<svg xmlns="http://www.w3.org/2000/svg" width="354.395" height="60.788" viewBox="0 0 354.395 60.788">
  <g id="Group_1483" data-name="Group 1483" transform="translate(-538.204 -41.85)">
    <path id="Path_5" data-name="Path 5" d="M13.336,6.9h83.91L84.412,67.035,8.4,66.624l74.12-28.71s8.226-13,1.234-15.137l-8.967-.165s0-1.974-9.954-3.62Z" transform="translate(536.714 35.602)" fill="#2b5688"/>
    <path id="Path_6" data-name="Path 6" d="M9.378,24.5H62.932s8.391,1.234,7.733,3.208l8.967.823s3.62,1.234-1.728,8.391l-.247.165,1.4-5.347-16.535.329,8.144-2.8L34.8,28.449l5.759,16.371,17.111-6.17s9.789-4.36,17.358-3.373l.165,1.81s-10.941,2.221-14.972,4.2c0,0-27.888,11.517-31.1,13.327L0,69.5Z" transform="translate(538.204 32.481)" fill="#2b5688"/>
    <rect id="Rectangle_5" data-name="Rectangle 5" width="252.058" height="4.442" transform="translate(640.541 69.896)" fill="#e94e60"/>
    <path id="Path_1624" data-name="Path 1624" d="M18.784-9.92l2.3-10.88H24.7L22.336-9.568A13.617,13.617,0,0,1,20.672-5.2a11.639,11.639,0,0,1-2.544,2.96,9.982,9.982,0,0,1-2.976,1.7A8.947,8.947,0,0,1,12.192,0H9.7A6.37,6.37,0,0,1,7.552-.4,6.02,6.02,0,0,1,5.5-1.648,6.648,6.648,0,0,1,3.968-3.824,7.519,7.519,0,0,1,3.36-6.976a13.006,13.006,0,0,1,.288-2.592L6.016-20.8H9.664L7.36-9.92a12.625,12.625,0,0,0-.288,2.5A4.25,4.25,0,0,0,8.224-4.1a4.751,4.751,0,0,0,3.264,1.024h.192a6.663,6.663,0,0,0,4.448-1.6A9.123,9.123,0,0,0,18.784-9.92ZM45.248-20.8,40.832,0H36.608L30.3-15.008,27.1,0H23.488L27.9-20.8h4.128l6.3,15.456,3.3-15.456Zm6.88,0H48.48L44.064,0h3.648Zm20.224,0-.64,3.072H65.024L61.248,0H57.632l3.776-17.728H54.72l.64-3.072ZM86.08-9.12H76.7L75.392-3.072H86.56L85.5,0H71.136l4.416-20.8H90.336L89.28-17.728H78.528L77.344-12.16h9.792Zm24.128-2.112-.352,1.664A15.625,15.625,0,0,1,108.3-5.2a10.874,10.874,0,0,1-2.336,2.96,8.724,8.724,0,0,1-2.928,1.7A10.268,10.268,0,0,1,99.712,0H89.12l4.416-20.8h10.592a6.847,6.847,0,0,1,2.288.4,5.941,5.941,0,0,1,2.048,1.232,6.11,6.11,0,0,1,1.472,2.128,7.843,7.843,0,0,1,.56,3.12A14.1,14.1,0,0,1,110.208-11.232Zm-3.648.128a12.487,12.487,0,0,0,.256-2.112,5.3,5.3,0,0,0-.368-2.08,3.649,3.649,0,0,0-1.024-1.408,4.036,4.036,0,0,0-1.536-.784,7.215,7.215,0,0,0-1.9-.24H96.512L93.376-3.072h5.472a7.787,7.787,0,0,0,2.448-.384,6.5,6.5,0,0,0,2.16-1.216A7.7,7.7,0,0,0,105.184-6.8a10.809,10.809,0,0,0,1.12-3.12ZM124.448,0H135.1a3.839,3.839,0,0,0,1.648-.352,4.294,4.294,0,0,0,1.312-.944,5.744,5.744,0,0,0,.944-1.344,6.05,6.05,0,0,0,.544-1.52A3.183,3.183,0,0,0,139.6-4.5q.016-.176.016-.336a4.518,4.518,0,0,0-.592-2.176,12.257,12.257,0,0,0-1.5-2.144q-.912-1.056-1.952-2.048t-1.952-1.872a16.513,16.513,0,0,1-1.5-1.632,2.271,2.271,0,0,1-.592-1.328v-.128l.032-.1a1.229,1.229,0,0,1,.288-.544,2.6,2.6,0,0,1,.544-.464,3.165,3.165,0,0,1,.688-.336,2.274,2.274,0,0,1,.752-.128h8.352l.64-3.1h-8.992a9.934,9.934,0,0,0-1.712.16,5.517,5.517,0,0,0-1.744.624,4.832,4.832,0,0,0-1.488,1.328,5.557,5.557,0,0,0-.944,2.272,3.183,3.183,0,0,0-.048.336q-.016.176-.016.432a5.422,5.422,0,0,0,.208,1.408,2.888,2.888,0,0,0,.752,1.312l6.4,6.464a3.638,3.638,0,0,1,.5.7,2,2,0,0,1,.208.96,2.094,2.094,0,0,1-2.3,1.76h-8.544Zm38.816-20.8-.64,3.072h-6.688L152.16,0h-3.616l3.776-17.728h-6.688l.64-3.072ZM156.9,0l11.232-20.8h4.864l3.3,19.84v.32a1.544,1.544,0,0,1-.16.4Q176,0,175.968,0H163.9l1.664-3.04h6.656l-2.208-13.952L160.672,0Zm38.016-20.8-.64,3.072h-6.688L183.808,0h-3.616l3.776-17.728H177.28l.64-3.072ZM208.64-9.12h-9.376l-1.312,6.048H209.12L208.064,0H193.7l4.416-20.8H212.9l-1.056,3.072H201.088L199.9-12.16H209.7ZM211.68,0h10.656a3.839,3.839,0,0,0,1.648-.352A4.294,4.294,0,0,0,225.3-1.3a5.744,5.744,0,0,0,.944-1.344,6.05,6.05,0,0,0,.544-1.52,3.179,3.179,0,0,0,.048-.336q.016-.176.016-.336a4.518,4.518,0,0,0-.592-2.176,12.257,12.257,0,0,0-1.5-2.144q-.912-1.056-1.952-2.048t-1.952-1.872a16.514,16.514,0,0,1-1.5-1.632,2.271,2.271,0,0,1-.592-1.328v-.128l.032-.1a1.229,1.229,0,0,1,.288-.544,2.6,2.6,0,0,1,.544-.464,3.165,3.165,0,0,1,.688-.336,2.274,2.274,0,0,1,.752-.128h8.352l.64-3.1h-8.992a9.934,9.934,0,0,0-1.712.16,5.517,5.517,0,0,0-1.744.624,4.832,4.832,0,0,0-1.488,1.328,5.557,5.557,0,0,0-.944,2.272,3.183,3.183,0,0,0-.048.336q-.016.176-.016.432a5.422,5.422,0,0,0,.208,1.408,2.888,2.888,0,0,0,.752,1.312l6.4,6.464a3.639,3.639,0,0,1,.5.7,2,2,0,0,1,.208.96,2.094,2.094,0,0,1-2.3,1.76H212.32Z" transform="translate(640.79 62.682)"/>
    <path id="Path_1625" data-name="Path 1625" d="M5.216,0,8.992-17.728h6.5a2.835,2.835,0,0,1,.592.1,2.441,2.441,0,0,1,.8.368,2.589,2.589,0,0,1,.7.736,2.153,2.153,0,0,1,.3,1.2,3.689,3.689,0,0,1-.1.832v.064a3.644,3.644,0,0,1-.736,1.568,5.25,5.25,0,0,1-1.5,1.28,8.458,8.458,0,0,1-2.16.864,10.606,10.606,0,0,1-2.672.32l.352,3.136a12.65,12.65,0,0,0,3.1-.5,12.417,12.417,0,0,0,3.136-1.36A10.777,10.777,0,0,0,19.888-11.3a6.5,6.5,0,0,0,1.456-2.976,9.168,9.168,0,0,0,.192-1.792,4.507,4.507,0,0,0-1.36-3.472A6.122,6.122,0,0,0,15.9-20.8H6.016L1.6,0Zm27.1,0H29.184a6.186,6.186,0,0,1-2.336-.48A6.913,6.913,0,0,1,24.672-1.9,7.3,7.3,0,0,1,23.056-4.24a7.793,7.793,0,0,1-.624-3.216,9.512,9.512,0,0,1,.224-2.208l.32-1.472A13.089,13.089,0,0,1,24.7-15.5a12.251,12.251,0,0,1,2.656-3.008,10.432,10.432,0,0,1,3.1-1.728,9.566,9.566,0,0,1,3.1-.56H36.7a6.466,6.466,0,0,1,2.256.448,6.712,6.712,0,0,1,2.208,1.376,7.387,7.387,0,0,1,1.664,2.32,7.545,7.545,0,0,1,.656,3.248,9.451,9.451,0,0,1-.064,1.072q-.064.56-.192,1.2l-.32,1.472A12.709,12.709,0,0,1,41.168-5.28a12.29,12.29,0,0,1-2.7,2.992A10.854,10.854,0,0,1,35.328-.56,9.325,9.325,0,0,1,32.32,0Zm7.328-11.1a8.084,8.084,0,0,0,.224-2.016,5.306,5.306,0,0,0-.384-2.128,3.693,3.693,0,0,0-1.056-1.424,4.367,4.367,0,0,0-1.568-.8,6.961,6.961,0,0,0-1.92-.256H34.3a8.709,8.709,0,0,0-2.432.352A7.1,7.1,0,0,0,29.6-16.24a7.516,7.516,0,0,0-1.856,2.048A9.331,9.331,0,0,0,26.56-11.1L26.3-9.92a14.168,14.168,0,0,0-.256,2.208,4.318,4.318,0,0,0,1.344,3.536,5.42,5.42,0,0,0,3.552,1.1h.64A8.4,8.4,0,0,0,34.1-3.456a7.079,7.079,0,0,0,2.288-1.216A7.827,7.827,0,0,0,38.224-6.8a9.957,9.957,0,0,0,1.168-3.12ZM42.912,0H53.568a3.839,3.839,0,0,0,1.648-.352A4.294,4.294,0,0,0,56.528-1.3a5.744,5.744,0,0,0,.944-1.344,6.05,6.05,0,0,0,.544-1.52,3.183,3.183,0,0,0,.048-.336q.016-.176.016-.336a4.518,4.518,0,0,0-.592-2.176,12.257,12.257,0,0,0-1.5-2.144q-.912-1.056-1.952-2.048T52.08-13.072a16.513,16.513,0,0,1-1.5-1.632,2.271,2.271,0,0,1-.592-1.328v-.128l.032-.1A1.229,1.229,0,0,1,50.3-16.8a2.6,2.6,0,0,1,.544-.464,3.165,3.165,0,0,1,.688-.336,2.274,2.274,0,0,1,.752-.128H60.64l.64-3.1H52.288a9.934,9.934,0,0,0-1.712.16,5.516,5.516,0,0,0-1.744.624,4.832,4.832,0,0,0-1.488,1.328,5.557,5.557,0,0,0-.944,2.272,3.182,3.182,0,0,0-.048.336q-.016.176-.016.432a5.422,5.422,0,0,0,.208,1.408A2.888,2.888,0,0,0,47.3-12.96L53.7-6.5a3.639,3.639,0,0,1,.5.7,2,2,0,0,1,.208.96,2.094,2.094,0,0,1-2.3,1.76H43.552ZM81.728-20.8l-.64,3.072H74.4L70.624,0H67.008l3.776-17.728H64.1l.64-3.072ZM75.36,0,86.592-20.8h4.864l3.3,19.84v.32a1.544,1.544,0,0,1-.16.4q-.128.24-.16.24H82.368l1.664-3.04h6.656L88.48-16.992,79.136,0ZM104.9-20.8,101.12-3.072h11.168L111.232,0H96.864l4.416-20.8ZM128.288,0h10.656a3.839,3.839,0,0,0,1.648-.352A4.294,4.294,0,0,0,141.9-1.3a5.744,5.744,0,0,0,.944-1.344,6.05,6.05,0,0,0,.544-1.52,3.179,3.179,0,0,0,.048-.336q.016-.176.016-.336a4.518,4.518,0,0,0-.592-2.176,12.257,12.257,0,0,0-1.5-2.144q-.912-1.056-1.952-2.048t-1.952-1.872a16.514,16.514,0,0,1-1.5-1.632,2.271,2.271,0,0,1-.592-1.328v-.128l.032-.1a1.229,1.229,0,0,1,.288-.544,2.6,2.6,0,0,1,.544-.464,3.165,3.165,0,0,1,.688-.336,2.274,2.274,0,0,1,.752-.128h8.352l.64-3.1h-8.992a9.934,9.934,0,0,0-1.712.16,5.517,5.517,0,0,0-1.744.624,4.832,4.832,0,0,0-1.488,1.328,5.557,5.557,0,0,0-.944,2.272,3.183,3.183,0,0,0-.048.336q-.016.176-.016.432a5.422,5.422,0,0,0,.208,1.408,2.888,2.888,0,0,0,.752,1.312l6.4,6.464a3.639,3.639,0,0,1,.5.7,2,2,0,0,1,.208.96,2.094,2.094,0,0,1-2.3,1.76h-8.544ZM160.64-9.12h-9.376l-1.312,6.048H161.12L160.064,0H145.7l4.416-20.8H164.9l-1.056,3.072H153.088L151.9-12.16H161.7ZM163.68,0H167.3l3.776-17.728h6.5a2.835,2.835,0,0,1,.592.1,2.441,2.441,0,0,1,.8.368,2.589,2.589,0,0,1,.7.736,2.153,2.153,0,0,1,.3,1.2,3.69,3.69,0,0,1-.1.832v.064a4.768,4.768,0,0,1-2.352,3.008,8.993,8.993,0,0,1-4.208.9,1.562,1.562,0,0,0-.336.032,1.2,1.2,0,0,0-.4.224L177.024,0h3.648l-3.584-8a9.734,9.734,0,0,0,2.128-.848,8.858,8.858,0,0,0,1.888-1.36,8.586,8.586,0,0,0,1.472-1.84,7.224,7.224,0,0,0,.88-2.32,10.418,10.418,0,0,0,.192-1.984,3.874,3.874,0,0,0-1.472-3.424,7.287,7.287,0,0,0-4.192-1.024H168.1Zm25.44,0H192.1l12.96-20.8h-4.224L191.9-6.08,190.048-20.8h-3.936Zm21.856-20.8h-3.648L202.912,0h3.648Zm4.8,9.7q-.16.768-.256,1.3t-.16.912a6.276,6.276,0,0,0-.08.672q-.016.288-.016.544a4.3,4.3,0,0,0,1.328,3.52,5.253,5.253,0,0,0,3.44,1.088h7.1L226.5,0h-8.608a6.37,6.37,0,0,1-2.144-.4A6.02,6.02,0,0,1,213.7-1.648a6.648,6.648,0,0,1-1.536-2.176,7.519,7.519,0,0,1-.608-3.152,13.006,13.006,0,0,1,.288-2.592l.352-1.664a14.07,14.07,0,0,1,1.648-4.352,11.622,11.622,0,0,1,2.5-2.976,9.534,9.534,0,0,1,2.96-1.7A9.168,9.168,0,0,1,222.3-20.8h8.608l-.64,3.072h-7.1a8.218,8.218,0,0,0-2.384.352,6.3,6.3,0,0,0-2.144,1.136,7.515,7.515,0,0,0-1.728,2.048A10.079,10.079,0,0,0,215.776-11.1ZM244.64-9.12h-9.376l-1.312,6.048H245.12L244.064,0H229.7l4.416-20.8H248.9l-1.056,3.072H237.088L235.9-12.16H245.7Z" transform="translate(634.574 99.2)"/>
  </g>
</svg>
