<svg xmlns="http://www.w3.org/2000/svg" viewBox="0 0 34.964 35.899">
  <defs>
    <style>
      .cls-1 {
        fill: #fae700;
      }

      .cls-2 {
        fill: #fff7f7;
      }

      .cls-3 {
        fill: none;
        stroke: #fff8f8;
      }
    </style>
  </defs>
  <g id="Group_1483" data-name="Group 1483" transform="translate(-5642.5 757.696)">
    <path id="Path_1688" data-name="Path 1688" class="cls-1" d="M11.589.04c10.334-.9,7.894,13.588,10.714,16.021s2.324,3.11,2.324,4.051c0,3.923-5.513,7.1-12.313,7.1S0,24.035,0,20.112A5.473,5.473,0,0,1,2.519,15.5C4.87,13.842,2.276.072,11.589.04Z" transform="translate(5642.5 -745.366) rotate(-30)"/>
    <path id="Path_1689" data-name="Path 1689" class="cls-1" d="M1.894,0C2.941,0,3.789,1.862,3.789,3.169S2.941,4.2,1.894,4.2,0,4.477,0,3.169.848,0,1.894,0Z" transform="translate(5650.265 -751.199) rotate(-30)"/>
    <path id="Subtraction_101" data-name="Subtraction 101" class="cls-2" d="M2.137,11.485a2.145,2.145,0,0,1-1.976-.77C-.353,9.825.378,8.3,2.166,6.54a3.1,3.1,0,0,0,2.72,1.267,6.106,6.106,0,0,0,2.986-.851,5.876,5.876,0,0,0,2.415-2.515,2.9,2.9,0,0,0,.029-2.723,2.36,2.36,0,0,0-.238-.339A14.624,14.624,0,0,1,15.409,0a2.146,2.146,0,0,1,1.977.77c.443.767-.037,2-1.35,3.486a23.139,23.139,0,0,1-5.6,4.357C7.363,10.385,4.185,11.485,2.137,11.485Z" transform="translate(5655.081 -739.247)"/>
    <path id="Path_1690" data-name="Path 1690" class="cls-3" d="M9.945,0c5.493,0,9.945,1.7,9.945,3.789S15.438,7.577,9.945,7.577,0,5.881,0,3.789,4.453,0,9.945,0Z" transform="translate(5653.046 -731.767) rotate(-30)"/>
  </g>
</svg>
