<svg id="Group_459" data-name="Group 459" xmlns="http://www.w3.org/2000/svg" xmlns:xlink="http://www.w3.org/1999/xlink" viewBox="5878 -2301.618 41 40.539">
  <defs>
    <style>
      .cls-1, .cls-6 {
        fill: none;
      }

      .cls-1 {
        stroke: #fff;
        stroke-width: 0.2px;
      }

      .cls-2 {
        fill: #ffa85c;
      }

      .cls-3 {
        fill: #ff604e;
      }

      .cls-4 {
        fill: #f3cb2c;
      }

      .cls-5 {
        stroke: none;
      }

      .cls-7 {
        filter: url(#Rectangle_642);
      }

      .cls-8 {
        filter: url(#Path_597);
      }

      .cls-9 {
        filter: url(#Path_599);
      }
    </style>
    <filter id="Path_599" x="5878" y="-2301.618" width="30" height="29.539" filterUnits="userSpaceOnUse">
      <feOffset dy="2" input="SourceAlpha"/>
      <feGaussianBlur stdDeviation="1" result="blur"/>
      <feFlood flood-opacity="0.502"/>
      <feComposite operator="in" in2="blur"/>
      <feComposite in="SourceGraphic"/>
    </filter>
    <filter id="Path_597" x="5883" y="-2296.618" width="30" height="29.539" filterUnits="userSpaceOnUse">
      <feOffset dy="2" input="SourceAlpha"/>
      <feGaussianBlur stdDeviation="1" result="blur-2"/>
      <feFlood flood-opacity="0.502"/>
      <feComposite operator="in" in2="blur-2"/>
      <feComposite in="SourceGraphic"/>
    </filter>
    <filter id="Rectangle_642" x="5889" y="-2290.618" width="30" height="29.539" filterUnits="userSpaceOnUse">
      <feOffset dy="2" input="SourceAlpha"/>
      <feGaussianBlur stdDeviation="1" result="blur-3"/>
      <feFlood flood-opacity="0.502"/>
      <feComposite operator="in" in2="blur-3"/>
      <feComposite in="SourceGraphic"/>
    </filter>
  </defs>
  <g id="Group_458" data-name="Group 458">
    <g id="Rectangle_640" data-name="Rectangle 640" class="cls-1" transform="translate(5881 -2301)">
      <rect class="cls-5" width="35" height="35"/>
      <rect class="cls-6" x="0.1" y="0.1" width="34.8" height="34.8"/>
    </g>
    <g class="cls-9" transform="matrix(1, 0, 0, 1, 0, 0)">
      <path id="Path_599-2" data-name="Path 599" class="cls-2" d="M6,0H18a6,6,0,0,1,6,6V17.539a6,6,0,0,1-6,6H6a6,6,0,0,1-6-6V6A6,6,0,0,1,6,0Z" transform="translate(5881 -2300.62)"/>
    </g>
    <g class="cls-8" transform="matrix(1, 0, 0, 1, 0, 0)">
      <path id="Path_597-2" data-name="Path 597" class="cls-3" d="M6,0H18a6,6,0,0,1,6,6V17.539a6,6,0,0,1-6,6H6a6,6,0,0,1-6-6V6A6,6,0,0,1,6,0Z" transform="translate(5886 -2295.62)"/>
    </g>
    <g class="cls-7" transform="matrix(1, 0, 0, 1, 0, 0)">
      <rect id="Rectangle_642-2" data-name="Rectangle 642" class="cls-4" width="24" height="23.539" rx="6" transform="translate(5892 -2289.62)"/>
    </g>
  </g>
</svg>
