<svg xmlns="http://www.w3.org/2000/svg" viewBox="9515 -2959 205 231">
  <defs>
    <style>
      .cls-1 {
        fill: none;
      }

      .cls-2 {
        fill: #30d074;
      }

      .cls-3 {
        fill: #68b3e4;
      }

      .cls-4 {
        fill: #f3cb2c;
      }

      .cls-5 {
        fill: #ffa85c;
      }

      .cls-6 {
        fill: #ff604e;
      }

      .cls-7 {
        stroke: rgba(0,0,0,0);
      }
    </style>
  </defs>
  <g id="Group_464" data-name="Group 464" transform="translate(9308 -3794)">
    <rect id="Rectangle_392" data-name="Rectangle 392" class="cls-1" width="205" height="231" transform="translate(207 835)"/>
    <rect id="Rectangle_393" data-name="Rectangle 393" class="cls-2" width="30" height="30" transform="translate(224 872)"/>
    <rect id="Rectangle_394" data-name="Rectangle 394" class="cls-3" width="30" height="30" transform="translate(224 910)"/>
    <rect id="Rectangle_395" data-name="Rectangle 395" class="cls-4" width="30" height="30" transform="translate(224 948)"/>
    <rect id="Rectangle_396" data-name="Rectangle 396" class="cls-5" width="30" height="30" transform="translate(224 986)"/>
    <rect id="Rectangle_397" data-name="Rectangle 397" class="cls-6" width="30" height="30" transform="translate(224 1024)"/>
    <path id="Path_600" data-name="Path 600" class="cls-7" d="M11.188-4.263A4.528,4.528,0,0,1,9.664-1.011,5.355,5.355,0,0,1,6.038.176,4.816,4.816,0,0,1,2.167-1.481,6.793,6.793,0,0,1,.756-6.029v-.782a7.671,7.671,0,0,1,.65-3.252,4.874,4.874,0,0,1,1.859-2.158,5.207,5.207,0,0,1,2.808-.751,5.217,5.217,0,0,1,3.568,1.187,4.866,4.866,0,0,1,1.564,3.331H8.569a2.673,2.673,0,0,0-.69-1.8,2.555,2.555,0,0,0-1.806-.558A2.24,2.24,0,0,0,4.1-9.866a5.3,5.3,0,0,0-.672,2.931v.967a5.667,5.667,0,0,0,.628,3.032,2.2,2.2,0,0,0,1.982.958,2.6,2.6,0,0,0,1.824-.558,2.521,2.521,0,0,0,.69-1.727Zm1.169-.58A5.64,5.64,0,0,1,12.9-7.365a3.989,3.989,0,0,1,1.569-1.714,4.577,4.577,0,0,1,2.377-.606,4.33,4.33,0,0,1,3.142,1.178,4.727,4.727,0,0,1,1.358,3.2l.018.65a4.97,4.97,0,0,1-1.222,3.511A4.247,4.247,0,0,1,16.866.176a4.268,4.268,0,0,1-3.283-1.318,5.058,5.058,0,0,1-1.226-3.586Zm2.54.185a3.545,3.545,0,0,0,.51,2.07,1.682,1.682,0,0,0,1.459.716,1.686,1.686,0,0,0,1.441-.708,3.879,3.879,0,0,0,.519-2.263A3.51,3.51,0,0,0,18.308-6.9a1.686,1.686,0,0,0-1.459-.729,1.659,1.659,0,0,0-1.441.725A3.944,3.944,0,0,0,14.9-4.658ZM25.611,0H23.063V-13.5h2.549Zm1.7-4.843a5.64,5.64,0,0,1,.545-2.522,3.989,3.989,0,0,1,1.569-1.714A4.577,4.577,0,0,1,31.8-9.686a4.33,4.33,0,0,1,3.142,1.178,4.727,4.727,0,0,1,1.358,3.2l.018.65a4.97,4.97,0,0,1-1.222,3.511A4.247,4.247,0,0,1,31.816.176a4.268,4.268,0,0,1-3.283-1.318,5.058,5.058,0,0,1-1.226-3.586Zm2.54.185a3.545,3.545,0,0,0,.51,2.07,1.682,1.682,0,0,0,1.459.716,1.686,1.686,0,0,0,1.441-.708,3.879,3.879,0,0,0,.519-2.263A3.51,3.51,0,0,0,33.258-6.9,1.686,1.686,0,0,0,31.8-7.629a1.659,1.659,0,0,0-1.441.725A3.944,3.944,0,0,0,29.848-4.658Zm13.377-2.47a6.9,6.9,0,0,0-.914-.07,1.86,1.86,0,0,0-1.89.976V0h-2.54V-9.51h2.4l.07,1.134a2.354,2.354,0,0,1,2.118-1.31,2.662,2.662,0,0,1,.791.114Zm9.879,2L51.732-3.656V0H49.1V-12.8h2.637V-7l1.16-1.591,3.261-4.21H59.4L54.853-7.11,59.528,0H56.391ZM64.731.176a4.668,4.668,0,0,1-3.406-1.283,4.561,4.561,0,0,1-1.314-3.419v-.246a5.745,5.745,0,0,1,.554-2.562,4.064,4.064,0,0,1,1.569-1.74,4.4,4.4,0,0,1,2.316-.611,3.947,3.947,0,0,1,3.072,1.23,5,5,0,0,1,1.121,3.489v1.037H62.587a2.36,2.36,0,0,0,.743,1.494,2.245,2.245,0,0,0,1.569.563,2.742,2.742,0,0,0,2.294-1.063l1.248,1.4A3.813,3.813,0,0,1,66.894-.277,5.075,5.075,0,0,1,64.731.176Zm-.29-7.8a1.591,1.591,0,0,0-1.226.51,2.634,2.634,0,0,0-.6,1.459h3.533v-.2a1.878,1.878,0,0,0-.457-1.305A1.642,1.642,0,0,0,64.441-7.629Zm9.193,4.034L75.393-9.51h2.725L74.294,1.477l-.211.5a2.9,2.9,0,0,1-2.812,1.863,4,4,0,0,1-1.125-.167V1.749l.387.009a2.09,2.09,0,0,0,1.077-.22,1.443,1.443,0,0,0,.558-.729l.3-.782L69.135-9.51h2.733Z" transform="translate(224 860)"/>
    <path id="Path_617" data-name="Path 617" class="cls-7" d="M5.256-5.7A7.935,7.935,0,0,1,2.1-7.238a2.93,2.93,0,0,1-.989-2.246,3.1,3.1,0,0,1,1.208-2.5,4.8,4.8,0,0,1,3.142-.989,5.243,5.243,0,0,1,2.351.51,3.866,3.866,0,0,1,1.6,1.406A3.6,3.6,0,0,1,9.976-9.1h-1.7a2.327,2.327,0,0,0-.738-1.824,3.009,3.009,0,0,0-2.083-.664,3.078,3.078,0,0,0-1.947.549,1.831,1.831,0,0,0-.7,1.525,1.648,1.648,0,0,0,.664,1.323A6.514,6.514,0,0,0,5.735-7.2a10.46,10.46,0,0,1,2.5.989A3.788,3.788,0,0,1,9.567-4.948,3.219,3.219,0,0,1,10-3.252,2.99,2.99,0,0,1,8.789-.76,5.171,5.171,0,0,1,5.546.176,6.015,6.015,0,0,1,3.085-.33,4.142,4.142,0,0,1,1.323-1.714a3.378,3.378,0,0,1-.62-2H2.4a2.2,2.2,0,0,0,.857,1.833,3.608,3.608,0,0,0,2.29.672,3.317,3.317,0,0,0,2.048-.545,1.77,1.77,0,0,0,.712-1.485,1.738,1.738,0,0,0-.659-1.455A7.6,7.6,0,0,0,5.256-5.7ZM15.724-1.151a2.342,2.342,0,0,0,1.521-.527A1.855,1.855,0,0,0,17.965-3H19.5a2.949,2.949,0,0,1-.562,1.556A3.7,3.7,0,0,1,17.556-.264a3.994,3.994,0,0,1-1.833.439,3.918,3.918,0,0,1-3.089-1.3,5.163,5.163,0,0,1-1.147-3.546v-.272A5.725,5.725,0,0,1,12-7.409,3.883,3.883,0,0,1,13.46-9.088a4.157,4.157,0,0,1,2.254-.6,3.814,3.814,0,0,1,2.659.958A3.424,3.424,0,0,1,19.5-6.24H17.965a2.241,2.241,0,0,0-.7-1.516,2.174,2.174,0,0,0-1.551-.593,2.276,2.276,0,0,0-1.92.892,4.19,4.19,0,0,0-.681,2.58v.308a4.106,4.106,0,0,0,.677,2.531A2.287,2.287,0,0,0,15.724-1.151ZM20.9-4.843a5.617,5.617,0,0,1,.549-2.514,4.1,4.1,0,0,1,1.529-1.723,4.163,4.163,0,0,1,2.237-.606,4.01,4.01,0,0,1,3.142,1.345,5.174,5.174,0,0,1,1.2,3.577v.114a5.666,5.666,0,0,1-.532,2.492A4.038,4.038,0,0,1,27.505-.439a4.211,4.211,0,0,1-2.272.615A4,4,0,0,1,22.1-1.169a5.147,5.147,0,0,1-1.2-3.56Zm1.635.193a4.068,4.068,0,0,0,.734,2.54,2.349,2.349,0,0,0,1.964.958A2.335,2.335,0,0,0,27.2-2.123a4.449,4.449,0,0,0,.729-2.72,4.061,4.061,0,0,0-.743-2.536,2.361,2.361,0,0,0-1.973-.971,2.335,2.335,0,0,0-1.942.958A4.416,4.416,0,0,0,22.535-4.649Zm13.658-3.4a4.873,4.873,0,0,0-.8-.062A2.143,2.143,0,0,0,33.223-6.75V0H31.6V-9.51h1.582l.026,1.1a2.532,2.532,0,0,1,2.268-1.274,1.661,1.661,0,0,1,.721.123ZM41.634.176a4.155,4.155,0,0,1-3.146-1.27,4.714,4.714,0,0,1-1.213-3.4v-.3a5.707,5.707,0,0,1,.541-2.527,4.217,4.217,0,0,1,1.512-1.74,3.8,3.8,0,0,1,2.1-.628,3.562,3.562,0,0,1,2.883,1.222,5.289,5.289,0,0,1,1.028,3.5v.677H38.9a3.38,3.38,0,0,0,.822,2.272,2.583,2.583,0,0,0,2,.866A2.832,2.832,0,0,0,43.181-1.5a3.666,3.666,0,0,0,1.046-.932l.993.773A3.993,3.993,0,0,1,41.634.176Zm-.2-8.525a2.169,2.169,0,0,0-1.652.716,3.482,3.482,0,0,0-.826,2.008h4.764v-.123a3.1,3.1,0,0,0-.668-1.92A2.042,2.042,0,0,0,41.432-8.35ZM57.744-5.625a3.978,3.978,0,0,1-1.217.976,3.3,3.3,0,0,1-1.551.369,3.41,3.41,0,0,1-1.929-.545,3.543,3.543,0,0,1-1.27-1.534,5.229,5.229,0,0,1-.448-2.184,5.327,5.327,0,0,1,.488-2.312A3.583,3.583,0,0,1,53.2-12.428a3.947,3.947,0,0,1,2.092-.545,3.574,3.574,0,0,1,2.993,1.419,6.191,6.191,0,0,1,1.094,3.872v.475q0,3.735-1.477,5.454A5.673,5.673,0,0,1,53.446.009H53.13V-1.362h.343a4.471,4.471,0,0,0,3.094-1.05A4.512,4.512,0,0,0,57.744-5.625Zm-2.5,0a2.511,2.511,0,0,0,1.507-.5,2.953,2.953,0,0,0,1.006-1.239v-.65a4.474,4.474,0,0,0-.694-2.6,2.072,2.072,0,0,0-1.758-1,2.088,2.088,0,0,0-1.723.822,3.39,3.39,0,0,0-.65,2.167,3.528,3.528,0,0,0,.628,2.158A1.99,1.99,0,0,0,55.239-5.625Zm7.128-.791.65-6.381h6.557v1.5H64.4L64.011-7.8a4.13,4.13,0,0,1,2.136-.554A3.531,3.531,0,0,1,68.924-7.2a4.53,4.53,0,0,1,1.028,3.125A4.372,4.372,0,0,1,68.884-.962,3.892,3.892,0,0,1,65.9.176a4.045,4.045,0,0,1-2.769-.94,3.754,3.754,0,0,1-1.222-2.6h1.538a2.582,2.582,0,0,0,.782,1.657,2.432,2.432,0,0,0,1.67.558,2.194,2.194,0,0,0,1.78-.773,3.233,3.233,0,0,0,.646-2.136,2.968,2.968,0,0,0-.7-2.061A2.377,2.377,0,0,0,65.769-6.9a2.681,2.681,0,0,0-1.67.466l-.431.352ZM75.278-4.772H70.989V-6.1h4.289ZM82.037,0H80.4V-10.837l-3.278,1.2v-1.477l4.658-1.749h.255ZM94.825-5.458a7.436,7.436,0,0,1-.976,4.245A3.47,3.47,0,0,1,90.8.176a3.5,3.5,0,0,1-3.032-1.358,7.058,7.058,0,0,1-1.02-4.056V-7.409a7.271,7.271,0,0,1,.976-4.192,3.5,3.5,0,0,1,3.059-1.371,3.528,3.528,0,0,1,3.041,1.323,7.017,7.017,0,0,1,1,4.083ZM93.2-7.682a5.958,5.958,0,0,0-.58-3.01,2,2,0,0,0-1.837-.945,1.97,1.97,0,0,0-1.819.94A5.817,5.817,0,0,0,88.374-7.8v2.6a6.053,6.053,0,0,0,.6,3.063,1.993,1.993,0,0,0,1.824.989,1.966,1.966,0,0,0,1.789-.932A5.834,5.834,0,0,0,93.2-5.019Zm11.733,2.224a7.436,7.436,0,0,1-.976,4.245,3.47,3.47,0,0,1-3.05,1.389,3.5,3.5,0,0,1-3.032-1.358,7.058,7.058,0,0,1-1.02-4.056V-7.409a7.271,7.271,0,0,1,.976-4.192,3.5,3.5,0,0,1,3.059-1.371,3.528,3.528,0,0,1,3.041,1.323,7.017,7.017,0,0,1,1,4.083Zm-1.626-2.224a5.958,5.958,0,0,0-.58-3.01,2,2,0,0,0-1.837-.945,1.97,1.97,0,0,0-1.819.94A5.817,5.817,0,0,0,98.481-7.8v2.6a6.053,6.053,0,0,0,.6,3.063,1.993,1.993,0,0,0,1.824.989,1.966,1.966,0,0,0,1.789-.932,5.834,5.834,0,0,0,.611-2.936Zm3.568-2.654a2.6,2.6,0,0,1,.734-1.9,2.528,2.528,0,0,1,1.885-.747,2.513,2.513,0,0,1,1.894.751,2.687,2.687,0,0,1,.725,1.947v.624a2.563,2.563,0,0,1-.734,1.894,2.53,2.53,0,0,1-1.868.734,2.586,2.586,0,0,1-1.89-.734,2.617,2.617,0,0,1-.747-1.956Zm1.213.677a1.657,1.657,0,0,0,.387,1.129,1.306,1.306,0,0,0,1.037.444,1.281,1.281,0,0,0,1.006-.431,1.711,1.711,0,0,0,.382-1.178v-.642a1.7,1.7,0,0,0-.378-1.134,1.274,1.274,0,0,0-1.028-.448,1.274,1.274,0,0,0-1.028.448,1.752,1.752,0,0,0-.378,1.169Zm5.019,6.521a2.582,2.582,0,0,1,.734-1.894,2.536,2.536,0,0,1,1.885-.743,2.559,2.559,0,0,1,1.89.738,2.649,2.649,0,0,1,.738,1.96v.624a2.582,2.582,0,0,1-.734,1.894,2.525,2.525,0,0,1-1.876.743,2.586,2.586,0,0,1-1.89-.734,2.617,2.617,0,0,1-.747-1.956Zm1.213.686a1.67,1.67,0,0,0,.387,1.138,1.306,1.306,0,0,0,1.037.444,1.272,1.272,0,0,0,1.011-.435,1.741,1.741,0,0,0,.378-1.182v-.65a1.665,1.665,0,0,0-.382-1.134,1.289,1.289,0,0,0-1.024-.439,1.3,1.3,0,0,0-1.015.435,1.69,1.69,0,0,0-.391,1.173ZM109.881-.967l-.923-.58,6.249-10,.923.58Z" transform="translate(263 894)"/>
    <path id="Path_618" data-name="Path 618" class="cls-7" d="M5.256-5.7A7.935,7.935,0,0,1,2.1-7.238a2.93,2.93,0,0,1-.989-2.246,3.1,3.1,0,0,1,1.208-2.5,4.8,4.8,0,0,1,3.142-.989,5.243,5.243,0,0,1,2.351.51,3.866,3.866,0,0,1,1.6,1.406A3.6,3.6,0,0,1,9.976-9.1h-1.7a2.327,2.327,0,0,0-.738-1.824,3.009,3.009,0,0,0-2.083-.664,3.078,3.078,0,0,0-1.947.549,1.831,1.831,0,0,0-.7,1.525,1.648,1.648,0,0,0,.664,1.323A6.514,6.514,0,0,0,5.735-7.2a10.46,10.46,0,0,1,2.5.989A3.788,3.788,0,0,1,9.567-4.948,3.219,3.219,0,0,1,10-3.252,2.99,2.99,0,0,1,8.789-.76,5.171,5.171,0,0,1,5.546.176,6.015,6.015,0,0,1,3.085-.33,4.142,4.142,0,0,1,1.323-1.714a3.378,3.378,0,0,1-.62-2H2.4a2.2,2.2,0,0,0,.857,1.833,3.608,3.608,0,0,0,2.29.672,3.317,3.317,0,0,0,2.048-.545,1.77,1.77,0,0,0,.712-1.485,1.738,1.738,0,0,0-.659-1.455A7.6,7.6,0,0,0,5.256-5.7ZM15.724-1.151a2.342,2.342,0,0,0,1.521-.527A1.855,1.855,0,0,0,17.965-3H19.5a2.949,2.949,0,0,1-.562,1.556A3.7,3.7,0,0,1,17.556-.264a3.994,3.994,0,0,1-1.833.439,3.918,3.918,0,0,1-3.089-1.3,5.163,5.163,0,0,1-1.147-3.546v-.272A5.725,5.725,0,0,1,12-7.409,3.883,3.883,0,0,1,13.46-9.088a4.157,4.157,0,0,1,2.254-.6,3.814,3.814,0,0,1,2.659.958A3.424,3.424,0,0,1,19.5-6.24H17.965a2.241,2.241,0,0,0-.7-1.516,2.174,2.174,0,0,0-1.551-.593,2.276,2.276,0,0,0-1.92.892,4.19,4.19,0,0,0-.681,2.58v.308a4.106,4.106,0,0,0,.677,2.531A2.287,2.287,0,0,0,15.724-1.151ZM20.9-4.843a5.617,5.617,0,0,1,.549-2.514,4.1,4.1,0,0,1,1.529-1.723,4.163,4.163,0,0,1,2.237-.606,4.01,4.01,0,0,1,3.142,1.345,5.174,5.174,0,0,1,1.2,3.577v.114a5.666,5.666,0,0,1-.532,2.492A4.038,4.038,0,0,1,27.505-.439a4.211,4.211,0,0,1-2.272.615A4,4,0,0,1,22.1-1.169a5.147,5.147,0,0,1-1.2-3.56Zm1.635.193a4.068,4.068,0,0,0,.734,2.54,2.349,2.349,0,0,0,1.964.958A2.335,2.335,0,0,0,27.2-2.123a4.449,4.449,0,0,0,.729-2.72,4.061,4.061,0,0,0-.743-2.536,2.361,2.361,0,0,0-1.973-.971,2.335,2.335,0,0,0-1.942.958A4.416,4.416,0,0,0,22.535-4.649Zm13.658-3.4a4.873,4.873,0,0,0-.8-.062A2.143,2.143,0,0,0,33.223-6.75V0H31.6V-9.51h1.582l.026,1.1a2.532,2.532,0,0,1,2.268-1.274,1.661,1.661,0,0,1,.721.123ZM41.634.176a4.155,4.155,0,0,1-3.146-1.27,4.714,4.714,0,0,1-1.213-3.4v-.3a5.707,5.707,0,0,1,.541-2.527,4.217,4.217,0,0,1,1.512-1.74,3.8,3.8,0,0,1,2.1-.628,3.562,3.562,0,0,1,2.883,1.222,5.289,5.289,0,0,1,1.028,3.5v.677H38.9a3.38,3.38,0,0,0,.822,2.272,2.583,2.583,0,0,0,2,.866A2.832,2.832,0,0,0,43.181-1.5a3.666,3.666,0,0,0,1.046-.932l.993.773A3.993,3.993,0,0,1,41.634.176Zm-.2-8.525a2.169,2.169,0,0,0-1.652.716,3.482,3.482,0,0,0-.826,2.008h4.764v-.123a3.1,3.1,0,0,0-.668-1.92A2.042,2.042,0,0,0,41.432-8.35ZM57.744-5.625a3.978,3.978,0,0,1-1.217.976,3.3,3.3,0,0,1-1.551.369,3.41,3.41,0,0,1-1.929-.545,3.543,3.543,0,0,1-1.27-1.534,5.229,5.229,0,0,1-.448-2.184,5.327,5.327,0,0,1,.488-2.312A3.583,3.583,0,0,1,53.2-12.428a3.947,3.947,0,0,1,2.092-.545,3.574,3.574,0,0,1,2.993,1.419,6.191,6.191,0,0,1,1.094,3.872v.475q0,3.735-1.477,5.454A5.673,5.673,0,0,1,53.446.009H53.13V-1.362h.343a4.471,4.471,0,0,0,3.094-1.05A4.512,4.512,0,0,0,57.744-5.625Zm-2.5,0a2.511,2.511,0,0,0,1.507-.5,2.953,2.953,0,0,0,1.006-1.239v-.65a4.474,4.474,0,0,0-.694-2.6,2.072,2.072,0,0,0-1.758-1,2.088,2.088,0,0,0-1.723.822,3.39,3.39,0,0,0-.65,2.167,3.528,3.528,0,0,0,.628,2.158A1.99,1.99,0,0,0,55.239-5.625Zm14.405.167a7.436,7.436,0,0,1-.976,4.245A3.47,3.47,0,0,1,65.619.176a3.5,3.5,0,0,1-3.032-1.358,7.058,7.058,0,0,1-1.02-4.056V-7.409a7.271,7.271,0,0,1,.976-4.192A3.5,3.5,0,0,1,65.6-12.973a3.528,3.528,0,0,1,3.041,1.323,7.017,7.017,0,0,1,1,4.083ZM68.019-7.682a5.958,5.958,0,0,0-.58-3.01,2,2,0,0,0-1.837-.945,1.97,1.97,0,0,0-1.819.94A5.817,5.817,0,0,0,63.193-7.8v2.6a6.053,6.053,0,0,0,.6,3.063,1.993,1.993,0,0,0,1.824.989,1.966,1.966,0,0,0,1.789-.932,5.834,5.834,0,0,0,.611-2.936Zm7.26,2.909H70.989V-6.1h4.289Zm7.646-.853a3.978,3.978,0,0,1-1.217.976,3.3,3.3,0,0,1-1.551.369,3.41,3.41,0,0,1-1.929-.545,3.543,3.543,0,0,1-1.27-1.534,5.229,5.229,0,0,1-.448-2.184A5.327,5.327,0,0,1,77-10.854a3.583,3.583,0,0,1,1.384-1.573,3.947,3.947,0,0,1,2.092-.545,3.574,3.574,0,0,1,2.993,1.419A6.191,6.191,0,0,1,84.56-7.682v.475q0,3.735-1.477,5.454A5.673,5.673,0,0,1,78.627.009h-.316V-1.362h.343a4.471,4.471,0,0,0,3.094-1.05A4.512,4.512,0,0,0,82.925-5.625Zm-2.5,0a2.511,2.511,0,0,0,1.507-.5,2.953,2.953,0,0,0,1.006-1.239v-.65a4.474,4.474,0,0,0-.694-2.6,2.072,2.072,0,0,0-1.758-1,2.088,2.088,0,0,0-1.723.822,3.39,3.39,0,0,0-.65,2.167,3.528,3.528,0,0,0,.628,2.158A1.99,1.99,0,0,0,80.42-5.625Zm7.128-.791L88.2-12.8h6.557v1.5H89.578L89.191-7.8a4.13,4.13,0,0,1,2.136-.554A3.531,3.531,0,0,1,94.1-7.2a4.53,4.53,0,0,1,1.028,3.125A4.372,4.372,0,0,1,94.065-.962,3.892,3.892,0,0,1,91.081.176a4.045,4.045,0,0,1-2.769-.94,3.754,3.754,0,0,1-1.222-2.6h1.538a2.582,2.582,0,0,0,.782,1.657,2.432,2.432,0,0,0,1.67.558,2.194,2.194,0,0,0,1.78-.773,3.233,3.233,0,0,0,.646-2.136,2.968,2.968,0,0,0-.7-2.061A2.377,2.377,0,0,0,90.949-6.9a2.681,2.681,0,0,0-1.67.466l-.431.352Zm9.22-3.92a2.6,2.6,0,0,1,.734-1.9,2.528,2.528,0,0,1,1.885-.747,2.513,2.513,0,0,1,1.894.751,2.687,2.687,0,0,1,.725,1.947v.624a2.563,2.563,0,0,1-.734,1.894,2.53,2.53,0,0,1-1.868.734,2.586,2.586,0,0,1-1.89-.734,2.617,2.617,0,0,1-.747-1.956Zm1.213.677a1.657,1.657,0,0,0,.387,1.129,1.306,1.306,0,0,0,1.037.444,1.281,1.281,0,0,0,1.006-.431,1.711,1.711,0,0,0,.382-1.178v-.642a1.7,1.7,0,0,0-.378-1.134,1.274,1.274,0,0,0-1.028-.448,1.274,1.274,0,0,0-1.028.448A1.752,1.752,0,0,0,97.98-10.3ZM103-3.138a2.582,2.582,0,0,1,.734-1.894,2.536,2.536,0,0,1,1.885-.743,2.559,2.559,0,0,1,1.89.738,2.649,2.649,0,0,1,.738,1.96v.624a2.582,2.582,0,0,1-.734,1.894,2.525,2.525,0,0,1-1.876.743,2.586,2.586,0,0,1-1.89-.734A2.617,2.617,0,0,1,103-2.5Zm1.213.686a1.67,1.67,0,0,0,.387,1.138,1.306,1.306,0,0,0,1.037.444,1.272,1.272,0,0,0,1.011-.435,1.741,1.741,0,0,0,.378-1.182v-.65a1.665,1.665,0,0,0-.382-1.134,1.289,1.289,0,0,0-1.024-.439,1.3,1.3,0,0,0-1.015.435,1.69,1.69,0,0,0-.391,1.173ZM99.773-.967l-.923-.58,6.249-10,.923.58Z" transform="translate(263 932)"/>
    <path id="Path_619" data-name="Path 619" class="cls-7" d="M5.256-5.7A7.935,7.935,0,0,1,2.1-7.238a2.93,2.93,0,0,1-.989-2.246,3.1,3.1,0,0,1,1.208-2.5,4.8,4.8,0,0,1,3.142-.989,5.243,5.243,0,0,1,2.351.51,3.866,3.866,0,0,1,1.6,1.406A3.6,3.6,0,0,1,9.976-9.1h-1.7a2.327,2.327,0,0,0-.738-1.824,3.009,3.009,0,0,0-2.083-.664,3.078,3.078,0,0,0-1.947.549,1.831,1.831,0,0,0-.7,1.525,1.648,1.648,0,0,0,.664,1.323A6.514,6.514,0,0,0,5.735-7.2a10.46,10.46,0,0,1,2.5.989A3.788,3.788,0,0,1,9.567-4.948,3.219,3.219,0,0,1,10-3.252,2.99,2.99,0,0,1,8.789-.76,5.171,5.171,0,0,1,5.546.176,6.015,6.015,0,0,1,3.085-.33,4.142,4.142,0,0,1,1.323-1.714a3.378,3.378,0,0,1-.62-2H2.4a2.2,2.2,0,0,0,.857,1.833,3.608,3.608,0,0,0,2.29.672,3.317,3.317,0,0,0,2.048-.545,1.77,1.77,0,0,0,.712-1.485,1.738,1.738,0,0,0-.659-1.455A7.6,7.6,0,0,0,5.256-5.7ZM15.724-1.151a2.342,2.342,0,0,0,1.521-.527A1.855,1.855,0,0,0,17.965-3H19.5a2.949,2.949,0,0,1-.562,1.556A3.7,3.7,0,0,1,17.556-.264a3.994,3.994,0,0,1-1.833.439,3.918,3.918,0,0,1-3.089-1.3,5.163,5.163,0,0,1-1.147-3.546v-.272A5.725,5.725,0,0,1,12-7.409,3.883,3.883,0,0,1,13.46-9.088a4.157,4.157,0,0,1,2.254-.6,3.814,3.814,0,0,1,2.659.958A3.424,3.424,0,0,1,19.5-6.24H17.965a2.241,2.241,0,0,0-.7-1.516,2.174,2.174,0,0,0-1.551-.593,2.276,2.276,0,0,0-1.92.892,4.19,4.19,0,0,0-.681,2.58v.308a4.106,4.106,0,0,0,.677,2.531A2.287,2.287,0,0,0,15.724-1.151ZM20.9-4.843a5.617,5.617,0,0,1,.549-2.514,4.1,4.1,0,0,1,1.529-1.723,4.163,4.163,0,0,1,2.237-.606,4.01,4.01,0,0,1,3.142,1.345,5.174,5.174,0,0,1,1.2,3.577v.114a5.666,5.666,0,0,1-.532,2.492A4.038,4.038,0,0,1,27.505-.439a4.211,4.211,0,0,1-2.272.615A4,4,0,0,1,22.1-1.169a5.147,5.147,0,0,1-1.2-3.56Zm1.635.193a4.068,4.068,0,0,0,.734,2.54,2.349,2.349,0,0,0,1.964.958A2.335,2.335,0,0,0,27.2-2.123a4.449,4.449,0,0,0,.729-2.72,4.061,4.061,0,0,0-.743-2.536,2.361,2.361,0,0,0-1.973-.971,2.335,2.335,0,0,0-1.942.958A4.416,4.416,0,0,0,22.535-4.649Zm13.658-3.4a4.873,4.873,0,0,0-.8-.062A2.143,2.143,0,0,0,33.223-6.75V0H31.6V-9.51h1.582l.026,1.1a2.532,2.532,0,0,1,2.268-1.274,1.661,1.661,0,0,1,.721.123ZM41.634.176a4.155,4.155,0,0,1-3.146-1.27,4.714,4.714,0,0,1-1.213-3.4v-.3a5.707,5.707,0,0,1,.541-2.527,4.217,4.217,0,0,1,1.512-1.74,3.8,3.8,0,0,1,2.1-.628,3.562,3.562,0,0,1,2.883,1.222,5.289,5.289,0,0,1,1.028,3.5v.677H38.9a3.38,3.38,0,0,0,.822,2.272,2.583,2.583,0,0,0,2,.866A2.832,2.832,0,0,0,43.181-1.5a3.666,3.666,0,0,0,1.046-.932l.993.773A3.993,3.993,0,0,1,41.634.176Zm-.2-8.525a2.169,2.169,0,0,0-1.652.716,3.482,3.482,0,0,0-.826,2.008h4.764v-.123a3.1,3.1,0,0,0-.668-1.92A2.042,2.042,0,0,0,41.432-8.35ZM59.273-9.457a2.972,2.972,0,0,1-.505,1.705A3.439,3.439,0,0,1,57.4-6.583a3.668,3.668,0,0,1,1.586,1.257,3.163,3.163,0,0,1,.584,1.872A3.344,3.344,0,0,1,58.452-.809,4.305,4.305,0,0,1,55.5.176a4.286,4.286,0,0,1-2.958-.989,3.36,3.36,0,0,1-1.112-2.641A3.257,3.257,0,0,1,52-5.326a3.528,3.528,0,0,1,1.569-1.266,3.354,3.354,0,0,1-1.345-1.169,3.014,3.014,0,0,1-.492-1.7,3.308,3.308,0,0,1,1.037-2.566,3.89,3.89,0,0,1,2.733-.949,3.894,3.894,0,0,1,2.729.949A3.3,3.3,0,0,1,59.273-9.457ZM57.946-3.489a2.359,2.359,0,0,0-.681-1.749,2.416,2.416,0,0,0-1.78-.677,2.373,2.373,0,0,0-1.762.668,2.385,2.385,0,0,0-.664,1.758,2.271,2.271,0,0,0,.646,1.714,2.48,2.48,0,0,0,1.8.624A2.472,2.472,0,0,0,57.3-1.78,2.266,2.266,0,0,0,57.946-3.489ZM55.5-11.637a2.1,2.1,0,0,0-1.551.593,2.179,2.179,0,0,0-.593,1.613,2.169,2.169,0,0,0,.584,1.578,2.074,2.074,0,0,0,1.56.6,2.074,2.074,0,0,0,1.56-.6,2.169,2.169,0,0,0,.584-1.578,2.17,2.17,0,0,0-.606-1.591A2.068,2.068,0,0,0,55.5-11.637ZM69.645-5.458a7.436,7.436,0,0,1-.976,4.245A3.47,3.47,0,0,1,65.619.176a3.5,3.5,0,0,1-3.032-1.358,7.058,7.058,0,0,1-1.02-4.056V-7.409a7.271,7.271,0,0,1,.976-4.192A3.5,3.5,0,0,1,65.6-12.973a3.528,3.528,0,0,1,3.041,1.323,7.017,7.017,0,0,1,1,4.083ZM68.019-7.682a5.958,5.958,0,0,0-.58-3.01,2,2,0,0,0-1.837-.945,1.97,1.97,0,0,0-1.819.94A5.817,5.817,0,0,0,63.193-7.8v2.6a6.053,6.053,0,0,0,.6,3.063,1.993,1.993,0,0,0,1.824.989,1.966,1.966,0,0,0,1.789-.932,5.834,5.834,0,0,0,.611-2.936Zm7.26,2.909H70.989V-6.1h4.289Zm7.646-.853a3.978,3.978,0,0,1-1.217.976,3.3,3.3,0,0,1-1.551.369,3.41,3.41,0,0,1-1.929-.545,3.543,3.543,0,0,1-1.27-1.534,5.229,5.229,0,0,1-.448-2.184A5.327,5.327,0,0,1,77-10.854a3.583,3.583,0,0,1,1.384-1.573,3.947,3.947,0,0,1,2.092-.545,3.574,3.574,0,0,1,2.993,1.419A6.191,6.191,0,0,1,84.56-7.682v.475q0,3.735-1.477,5.454A5.673,5.673,0,0,1,78.627.009h-.316V-1.362h.343a4.471,4.471,0,0,0,3.094-1.05A4.512,4.512,0,0,0,82.925-5.625Zm-2.5,0a2.511,2.511,0,0,0,1.507-.5,2.953,2.953,0,0,0,1.006-1.239v-.65a4.474,4.474,0,0,0-.694-2.6,2.072,2.072,0,0,0-1.758-1,2.088,2.088,0,0,0-1.723.822,3.39,3.39,0,0,0-.65,2.167,3.528,3.528,0,0,0,.628,2.158A1.99,1.99,0,0,0,80.42-5.625Zm14.405.167a7.436,7.436,0,0,1-.976,4.245A3.47,3.47,0,0,1,90.8.176a3.5,3.5,0,0,1-3.032-1.358,7.058,7.058,0,0,1-1.02-4.056V-7.409a7.271,7.271,0,0,1,.976-4.192,3.5,3.5,0,0,1,3.059-1.371,3.528,3.528,0,0,1,3.041,1.323,7.017,7.017,0,0,1,1,4.083ZM93.2-7.682a5.958,5.958,0,0,0-.58-3.01,2,2,0,0,0-1.837-.945,1.97,1.97,0,0,0-1.819.94A5.817,5.817,0,0,0,88.374-7.8v2.6a6.053,6.053,0,0,0,.6,3.063,1.993,1.993,0,0,0,1.824.989,1.966,1.966,0,0,0,1.789-.932A5.834,5.834,0,0,0,93.2-5.019Zm3.568-2.654a2.6,2.6,0,0,1,.734-1.9,2.528,2.528,0,0,1,1.885-.747,2.513,2.513,0,0,1,1.894.751,2.687,2.687,0,0,1,.725,1.947v.624a2.563,2.563,0,0,1-.734,1.894,2.53,2.53,0,0,1-1.868.734,2.586,2.586,0,0,1-1.89-.734,2.617,2.617,0,0,1-.747-1.956Zm1.213.677a1.657,1.657,0,0,0,.387,1.129,1.306,1.306,0,0,0,1.037.444,1.281,1.281,0,0,0,1.006-.431,1.711,1.711,0,0,0,.382-1.178v-.642a1.7,1.7,0,0,0-.378-1.134,1.274,1.274,0,0,0-1.028-.448,1.274,1.274,0,0,0-1.028.448A1.752,1.752,0,0,0,97.98-10.3ZM103-3.138a2.582,2.582,0,0,1,.734-1.894,2.536,2.536,0,0,1,1.885-.743,2.559,2.559,0,0,1,1.89.738,2.649,2.649,0,0,1,.738,1.96v.624a2.582,2.582,0,0,1-.734,1.894,2.525,2.525,0,0,1-1.876.743,2.586,2.586,0,0,1-1.89-.734A2.617,2.617,0,0,1,103-2.5Zm1.213.686a1.67,1.67,0,0,0,.387,1.138,1.306,1.306,0,0,0,1.037.444,1.272,1.272,0,0,0,1.011-.435,1.741,1.741,0,0,0,.378-1.182v-.65a1.665,1.665,0,0,0-.382-1.134,1.289,1.289,0,0,0-1.024-.439,1.3,1.3,0,0,0-1.015.435,1.69,1.69,0,0,0-.391,1.173ZM99.773-.967l-.923-.58,6.249-10,.923.58Z" transform="translate(263 970)"/>
    <path id="Path_620" data-name="Path 620" class="cls-7" d="M5.256-5.7A7.935,7.935,0,0,1,2.1-7.238a2.93,2.93,0,0,1-.989-2.246,3.1,3.1,0,0,1,1.208-2.5,4.8,4.8,0,0,1,3.142-.989,5.243,5.243,0,0,1,2.351.51,3.866,3.866,0,0,1,1.6,1.406A3.6,3.6,0,0,1,9.976-9.1h-1.7a2.327,2.327,0,0,0-.738-1.824,3.009,3.009,0,0,0-2.083-.664,3.078,3.078,0,0,0-1.947.549,1.831,1.831,0,0,0-.7,1.525,1.648,1.648,0,0,0,.664,1.323A6.514,6.514,0,0,0,5.735-7.2a10.46,10.46,0,0,1,2.5.989A3.788,3.788,0,0,1,9.567-4.948,3.219,3.219,0,0,1,10-3.252,2.99,2.99,0,0,1,8.789-.76,5.171,5.171,0,0,1,5.546.176,6.015,6.015,0,0,1,3.085-.33,4.142,4.142,0,0,1,1.323-1.714a3.378,3.378,0,0,1-.62-2H2.4a2.2,2.2,0,0,0,.857,1.833,3.608,3.608,0,0,0,2.29.672,3.317,3.317,0,0,0,2.048-.545,1.77,1.77,0,0,0,.712-1.485,1.738,1.738,0,0,0-.659-1.455A7.6,7.6,0,0,0,5.256-5.7ZM15.724-1.151a2.342,2.342,0,0,0,1.521-.527A1.855,1.855,0,0,0,17.965-3H19.5a2.949,2.949,0,0,1-.562,1.556A3.7,3.7,0,0,1,17.556-.264a3.994,3.994,0,0,1-1.833.439,3.918,3.918,0,0,1-3.089-1.3,5.163,5.163,0,0,1-1.147-3.546v-.272A5.725,5.725,0,0,1,12-7.409,3.883,3.883,0,0,1,13.46-9.088a4.157,4.157,0,0,1,2.254-.6,3.814,3.814,0,0,1,2.659.958A3.424,3.424,0,0,1,19.5-6.24H17.965a2.241,2.241,0,0,0-.7-1.516,2.174,2.174,0,0,0-1.551-.593,2.276,2.276,0,0,0-1.92.892,4.19,4.19,0,0,0-.681,2.58v.308a4.106,4.106,0,0,0,.677,2.531A2.287,2.287,0,0,0,15.724-1.151ZM20.9-4.843a5.617,5.617,0,0,1,.549-2.514,4.1,4.1,0,0,1,1.529-1.723,4.163,4.163,0,0,1,2.237-.606,4.01,4.01,0,0,1,3.142,1.345,5.174,5.174,0,0,1,1.2,3.577v.114a5.666,5.666,0,0,1-.532,2.492A4.038,4.038,0,0,1,27.505-.439a4.211,4.211,0,0,1-2.272.615A4,4,0,0,1,22.1-1.169a5.147,5.147,0,0,1-1.2-3.56Zm1.635.193a4.068,4.068,0,0,0,.734,2.54,2.349,2.349,0,0,0,1.964.958A2.335,2.335,0,0,0,27.2-2.123a4.449,4.449,0,0,0,.729-2.72,4.061,4.061,0,0,0-.743-2.536,2.361,2.361,0,0,0-1.973-.971,2.335,2.335,0,0,0-1.942.958A4.416,4.416,0,0,0,22.535-4.649Zm13.658-3.4a4.873,4.873,0,0,0-.8-.062A2.143,2.143,0,0,0,33.223-6.75V0H31.6V-9.51h1.582l.026,1.1a2.532,2.532,0,0,1,2.268-1.274,1.661,1.661,0,0,1,.721.123ZM41.634.176a4.155,4.155,0,0,1-3.146-1.27,4.714,4.714,0,0,1-1.213-3.4v-.3a5.707,5.707,0,0,1,.541-2.527,4.217,4.217,0,0,1,1.512-1.74,3.8,3.8,0,0,1,2.1-.628,3.562,3.562,0,0,1,2.883,1.222,5.289,5.289,0,0,1,1.028,3.5v.677H38.9a3.38,3.38,0,0,0,.822,2.272,2.583,2.583,0,0,0,2,.866A2.832,2.832,0,0,0,43.181-1.5a3.666,3.666,0,0,0,1.046-.932l.993.773A3.993,3.993,0,0,1,41.634.176Zm-.2-8.525a2.169,2.169,0,0,0-1.652.716,3.482,3.482,0,0,0-.826,2.008h4.764v-.123a3.1,3.1,0,0,0-.668-1.92A2.042,2.042,0,0,0,41.432-8.35Zm18.343-3.533L54.475,0H52.77l5.282-11.461H51.126V-12.8h8.648Zm9.87,6.425a7.436,7.436,0,0,1-.976,4.245A3.47,3.47,0,0,1,65.619.176a3.5,3.5,0,0,1-3.032-1.358,7.058,7.058,0,0,1-1.02-4.056V-7.409a7.271,7.271,0,0,1,.976-4.192A3.5,3.5,0,0,1,65.6-12.973a3.528,3.528,0,0,1,3.041,1.323,7.017,7.017,0,0,1,1,4.083ZM68.019-7.682a5.958,5.958,0,0,0-.58-3.01,2,2,0,0,0-1.837-.945,1.97,1.97,0,0,0-1.819.94A5.817,5.817,0,0,0,63.193-7.8v2.6a6.053,6.053,0,0,0,.6,3.063,1.993,1.993,0,0,0,1.824.989,1.966,1.966,0,0,0,1.789-.932,5.834,5.834,0,0,0,.611-2.936Zm7.26,2.909H70.989V-6.1h4.289Zm9.176-4.685a2.972,2.972,0,0,1-.505,1.705,3.439,3.439,0,0,1-1.367,1.169,3.668,3.668,0,0,1,1.586,1.257,3.163,3.163,0,0,1,.584,1.872A3.344,3.344,0,0,1,83.632-.809a4.305,4.305,0,0,1-2.949.984,4.286,4.286,0,0,1-2.958-.989,3.36,3.36,0,0,1-1.112-2.641,3.257,3.257,0,0,1,.567-1.872A3.528,3.528,0,0,1,78.75-6.592a3.354,3.354,0,0,1-1.345-1.169,3.014,3.014,0,0,1-.492-1.7,3.308,3.308,0,0,1,1.037-2.566,3.89,3.89,0,0,1,2.733-.949,3.894,3.894,0,0,1,2.729.949A3.3,3.3,0,0,1,84.454-9.457ZM83.127-3.489a2.359,2.359,0,0,0-.681-1.749,2.416,2.416,0,0,0-1.78-.677,2.373,2.373,0,0,0-1.762.668,2.385,2.385,0,0,0-.664,1.758,2.271,2.271,0,0,0,.646,1.714,2.48,2.48,0,0,0,1.8.624,2.472,2.472,0,0,0,1.793-.628A2.266,2.266,0,0,0,83.127-3.489Zm-2.443-8.147a2.1,2.1,0,0,0-1.551.593,2.179,2.179,0,0,0-.593,1.613,2.169,2.169,0,0,0,.584,1.578,2.074,2.074,0,0,0,1.56.6,2.074,2.074,0,0,0,1.56-.6,2.169,2.169,0,0,0,.584-1.578,2.17,2.17,0,0,0-.606-1.591A2.068,2.068,0,0,0,80.684-11.637ZM94.825-5.458a7.436,7.436,0,0,1-.976,4.245A3.47,3.47,0,0,1,90.8.176a3.5,3.5,0,0,1-3.032-1.358,7.058,7.058,0,0,1-1.02-4.056V-7.409a7.271,7.271,0,0,1,.976-4.192,3.5,3.5,0,0,1,3.059-1.371,3.528,3.528,0,0,1,3.041,1.323,7.017,7.017,0,0,1,1,4.083ZM93.2-7.682a5.958,5.958,0,0,0-.58-3.01,2,2,0,0,0-1.837-.945,1.97,1.97,0,0,0-1.819.94A5.817,5.817,0,0,0,88.374-7.8v2.6a6.053,6.053,0,0,0,.6,3.063,1.993,1.993,0,0,0,1.824.989,1.966,1.966,0,0,0,1.789-.932A5.834,5.834,0,0,0,93.2-5.019Zm3.568-2.654a2.6,2.6,0,0,1,.734-1.9,2.528,2.528,0,0,1,1.885-.747,2.513,2.513,0,0,1,1.894.751,2.687,2.687,0,0,1,.725,1.947v.624a2.563,2.563,0,0,1-.734,1.894,2.53,2.53,0,0,1-1.868.734,2.586,2.586,0,0,1-1.89-.734,2.617,2.617,0,0,1-.747-1.956Zm1.213.677a1.657,1.657,0,0,0,.387,1.129,1.306,1.306,0,0,0,1.037.444,1.281,1.281,0,0,0,1.006-.431,1.711,1.711,0,0,0,.382-1.178v-.642a1.7,1.7,0,0,0-.378-1.134,1.274,1.274,0,0,0-1.028-.448,1.274,1.274,0,0,0-1.028.448A1.752,1.752,0,0,0,97.98-10.3ZM103-3.138a2.582,2.582,0,0,1,.734-1.894,2.536,2.536,0,0,1,1.885-.743,2.559,2.559,0,0,1,1.89.738,2.649,2.649,0,0,1,.738,1.96v.624a2.582,2.582,0,0,1-.734,1.894,2.525,2.525,0,0,1-1.876.743,2.586,2.586,0,0,1-1.89-.734A2.617,2.617,0,0,1,103-2.5Zm1.213.686a1.67,1.67,0,0,0,.387,1.138,1.306,1.306,0,0,0,1.037.444,1.272,1.272,0,0,0,1.011-.435,1.741,1.741,0,0,0,.378-1.182v-.65a1.665,1.665,0,0,0-.382-1.134,1.289,1.289,0,0,0-1.024-.439,1.3,1.3,0,0,0-1.015.435,1.69,1.69,0,0,0-.391,1.173ZM99.773-.967l-.923-.58,6.249-10,.923.58Z" transform="translate(263 1008)"/>
    <path id="Path_621" data-name="Path 621" class="cls-7" d="M5.256-5.7A7.935,7.935,0,0,1,2.1-7.238a2.93,2.93,0,0,1-.989-2.246,3.1,3.1,0,0,1,1.208-2.5,4.8,4.8,0,0,1,3.142-.989,5.243,5.243,0,0,1,2.351.51,3.866,3.866,0,0,1,1.6,1.406A3.6,3.6,0,0,1,9.976-9.1h-1.7a2.327,2.327,0,0,0-.738-1.824,3.009,3.009,0,0,0-2.083-.664,3.078,3.078,0,0,0-1.947.549,1.831,1.831,0,0,0-.7,1.525,1.648,1.648,0,0,0,.664,1.323A6.514,6.514,0,0,0,5.735-7.2a10.46,10.46,0,0,1,2.5.989A3.788,3.788,0,0,1,9.567-4.948,3.219,3.219,0,0,1,10-3.252,2.99,2.99,0,0,1,8.789-.76,5.171,5.171,0,0,1,5.546.176,6.015,6.015,0,0,1,3.085-.33,4.142,4.142,0,0,1,1.323-1.714a3.378,3.378,0,0,1-.62-2H2.4a2.2,2.2,0,0,0,.857,1.833,3.608,3.608,0,0,0,2.29.672,3.317,3.317,0,0,0,2.048-.545,1.77,1.77,0,0,0,.712-1.485,1.738,1.738,0,0,0-.659-1.455A7.6,7.6,0,0,0,5.256-5.7ZM15.724-1.151a2.342,2.342,0,0,0,1.521-.527A1.855,1.855,0,0,0,17.965-3H19.5a2.949,2.949,0,0,1-.562,1.556A3.7,3.7,0,0,1,17.556-.264a3.994,3.994,0,0,1-1.833.439,3.918,3.918,0,0,1-3.089-1.3,5.163,5.163,0,0,1-1.147-3.546v-.272A5.725,5.725,0,0,1,12-7.409,3.883,3.883,0,0,1,13.46-9.088a4.157,4.157,0,0,1,2.254-.6,3.814,3.814,0,0,1,2.659.958A3.424,3.424,0,0,1,19.5-6.24H17.965a2.241,2.241,0,0,0-.7-1.516,2.174,2.174,0,0,0-1.551-.593,2.276,2.276,0,0,0-1.92.892,4.19,4.19,0,0,0-.681,2.58v.308a4.106,4.106,0,0,0,.677,2.531A2.287,2.287,0,0,0,15.724-1.151ZM20.9-4.843a5.617,5.617,0,0,1,.549-2.514,4.1,4.1,0,0,1,1.529-1.723,4.163,4.163,0,0,1,2.237-.606,4.01,4.01,0,0,1,3.142,1.345,5.174,5.174,0,0,1,1.2,3.577v.114a5.666,5.666,0,0,1-.532,2.492A4.038,4.038,0,0,1,27.505-.439a4.211,4.211,0,0,1-2.272.615A4,4,0,0,1,22.1-1.169a5.147,5.147,0,0,1-1.2-3.56Zm1.635.193a4.068,4.068,0,0,0,.734,2.54,2.349,2.349,0,0,0,1.964.958A2.335,2.335,0,0,0,27.2-2.123a4.449,4.449,0,0,0,.729-2.72,4.061,4.061,0,0,0-.743-2.536,2.361,2.361,0,0,0-1.973-.971,2.335,2.335,0,0,0-1.942.958A4.416,4.416,0,0,0,22.535-4.649Zm13.658-3.4a4.873,4.873,0,0,0-.8-.062A2.143,2.143,0,0,0,33.223-6.75V0H31.6V-9.51h1.582l.026,1.1a2.532,2.532,0,0,1,2.268-1.274,1.661,1.661,0,0,1,.721.123ZM41.634.176a4.155,4.155,0,0,1-3.146-1.27,4.714,4.714,0,0,1-1.213-3.4v-.3a5.707,5.707,0,0,1,.541-2.527,4.217,4.217,0,0,1,1.512-1.74,3.8,3.8,0,0,1,2.1-.628,3.562,3.562,0,0,1,2.883,1.222,5.289,5.289,0,0,1,1.028,3.5v.677H38.9a3.38,3.38,0,0,0,.822,2.272,2.583,2.583,0,0,0,2,.866A2.832,2.832,0,0,0,43.181-1.5a3.666,3.666,0,0,0,1.046-.932l.993.773A3.993,3.993,0,0,1,41.634.176Zm-.2-8.525a2.169,2.169,0,0,0-1.652.716,3.482,3.482,0,0,0-.826,2.008h4.764v-.123a3.1,3.1,0,0,0-.668-1.92A2.042,2.042,0,0,0,41.432-8.35ZM59.537-5.458a7.436,7.436,0,0,1-.976,4.245A3.47,3.47,0,0,1,55.512.176a3.5,3.5,0,0,1-3.032-1.358,7.058,7.058,0,0,1-1.02-4.056V-7.409a7.271,7.271,0,0,1,.976-4.192,3.5,3.5,0,0,1,3.059-1.371,3.528,3.528,0,0,1,3.041,1.323,7.017,7.017,0,0,1,1,4.083ZM57.911-7.682a5.958,5.958,0,0,0-.58-3.01,2,2,0,0,0-1.837-.945,1.97,1.97,0,0,0-1.819.94A5.817,5.817,0,0,0,53.086-7.8v2.6a6.053,6.053,0,0,0,.6,3.063,1.993,1.993,0,0,0,1.824.989A1.966,1.966,0,0,0,57.3-2.083a5.834,5.834,0,0,0,.611-2.936Zm7.26,2.909H60.882V-6.1h4.289Zm9.677-7.11L69.548,0H67.843l5.282-11.461H66.2V-12.8h8.648Zm9.87,6.425a7.436,7.436,0,0,1-.976,4.245A3.47,3.47,0,0,1,80.692.176,3.5,3.5,0,0,1,77.66-1.182a7.058,7.058,0,0,1-1.02-4.056V-7.409a7.271,7.271,0,0,1,.976-4.192,3.5,3.5,0,0,1,3.059-1.371,3.528,3.528,0,0,1,3.041,1.323,7.017,7.017,0,0,1,1,4.083ZM83.092-7.682a5.958,5.958,0,0,0-.58-3.01,2,2,0,0,0-1.837-.945,1.97,1.97,0,0,0-1.819.94A5.817,5.817,0,0,0,78.267-7.8v2.6a6.053,6.053,0,0,0,.6,3.063,1.993,1.993,0,0,0,1.824.989,1.966,1.966,0,0,0,1.789-.932,5.834,5.834,0,0,0,.611-2.936Zm3.568-2.654a2.6,2.6,0,0,1,.734-1.9,2.528,2.528,0,0,1,1.885-.747,2.513,2.513,0,0,1,1.894.751,2.687,2.687,0,0,1,.725,1.947v.624a2.563,2.563,0,0,1-.734,1.894,2.53,2.53,0,0,1-1.868.734,2.586,2.586,0,0,1-1.89-.734,2.617,2.617,0,0,1-.747-1.956Zm1.213.677A1.657,1.657,0,0,0,88.26-8.53a1.306,1.306,0,0,0,1.037.444A1.281,1.281,0,0,0,90.3-8.517a1.711,1.711,0,0,0,.382-1.178v-.642a1.7,1.7,0,0,0-.378-1.134,1.274,1.274,0,0,0-1.028-.448,1.274,1.274,0,0,0-1.028.448,1.752,1.752,0,0,0-.378,1.169Zm5.019,6.521a2.582,2.582,0,0,1,.734-1.894,2.536,2.536,0,0,1,1.885-.743,2.559,2.559,0,0,1,1.89.738,2.649,2.649,0,0,1,.738,1.96v.624A2.582,2.582,0,0,1,97.4-.558a2.525,2.525,0,0,1-1.876.743,2.586,2.586,0,0,1-1.89-.734A2.617,2.617,0,0,1,92.892-2.5Zm1.213.686a1.67,1.67,0,0,0,.387,1.138,1.306,1.306,0,0,0,1.037.444,1.272,1.272,0,0,0,1.011-.435,1.741,1.741,0,0,0,.378-1.182v-.65a1.665,1.665,0,0,0-.382-1.134,1.289,1.289,0,0,0-1.024-.439,1.3,1.3,0,0,0-1.015.435A1.69,1.69,0,0,0,94.1-3.1ZM89.666-.967l-.923-.58,6.249-10,.923.58Z" transform="translate(263 1046)"/>
  </g>
</svg>
