<svg xmlns="http://www.w3.org/2000/svg" xmlns:xlink="http://www.w3.org/1999/xlink" viewBox="5893 3462 712.962 544">
  <defs>
    <style>
      .cls-1, .cls-4 {
        fill: #fff;
      }

      .cls-2, .cls-9 {
        fill: none;
      }

      .cls-3 {
        fill: #2b89fc;
      }

      .cls-4 {
        stroke: #95989a;
      }

      .cls-5 {
        fill: #212529;
      }

      .cls-6 {
        fill: #207ab5;
      }

      .cls-7, .cls-8 {
        stroke: none;
      }

      .cls-8 {
        fill: #95989a;
      }

      .cls-10 {
        filter: url(#Ellipse_140-4);
      }

      .cls-11 {
        filter: url(#Ellipse_140-3);
      }

      .cls-12 {
        filter: url(#Ellipse_140-2);
      }

      .cls-13 {
        filter: url(#Ellipse_140);
      }
    </style>
    <filter id="Ellipse_140" x="5960" y="3703.143" width="32" height="32" filterUnits="userSpaceOnUse">
      <feOffset dy="3" input="SourceAlpha"/>
      <feGaussianBlur stdDeviation="3" result="blur"/>
      <feFlood flood-opacity="0.161"/>
      <feComposite operator="in" in2="blur"/>
      <feComposite in="SourceGraphic"/>
    </filter>
    <filter id="Ellipse_140-2" x="6326" y="3667.143" width="32" height="32" filterUnits="userSpaceOnUse">
      <feOffset dy="3" input="SourceAlpha"/>
      <feGaussianBlur stdDeviation="3" result="blur-2"/>
      <feFlood flood-opacity="0.161"/>
      <feComposite operator="in" in2="blur-2"/>
      <feComposite in="SourceGraphic"/>
    </filter>
    <filter id="Ellipse_140-3" x="5960" y="3811.143" width="32" height="32" filterUnits="userSpaceOnUse">
      <feOffset dy="3" input="SourceAlpha"/>
      <feGaussianBlur stdDeviation="3" result="blur-3"/>
      <feFlood flood-opacity="0.161"/>
      <feComposite operator="in" in2="blur-3"/>
      <feComposite in="SourceGraphic"/>
    </filter>
    <filter id="Ellipse_140-4" x="6326" y="3847.143" width="32" height="32" filterUnits="userSpaceOnUse">
      <feOffset dy="3" input="SourceAlpha"/>
      <feGaussianBlur stdDeviation="3" result="blur-4"/>
      <feFlood flood-opacity="0.161"/>
      <feComposite operator="in" in2="blur-4"/>
      <feComposite in="SourceGraphic"/>
    </filter>
  </defs>
  <g id="Group_484" data-name="Group 484" transform="translate(5751 -2390)">
    <path id="Path_633" data-name="Path 633" class="cls-1" d="M3.92,0H709.043c2.165,0,3.92,4.029,3.92,9V535c0,4.971-1.755,9-3.92,9H3.92C1.755,544,0,539.971,0,535V9C0,4.029,1.755,0,3.92,0Z" transform="translate(142 5852)"/>
    <g id="Group_483" data-name="Group 483" transform="translate(-5295 2263.143)">
      <g id="Path_691" data-name="Path 691" class="cls-2" transform="translate(5506 3757)">
        <path class="cls-7" d="M14,0A14,14,0,1,1,0,14,14,14,0,0,1,14,0Z"/>
        <path class="cls-8" d="M 14 27 C 17.4724292755127 27 20.73700904846191 25.64776039123535 23.19239044189453 23.19239044189453 C 25.64776039123535 20.73700904846191 27 17.4724292755127 27 14 C 27 10.52756977081299 25.64776039123535 7.26298999786377 23.19239044189453 4.807610034942627 C 20.73700904846191 2.352240085601807 17.4724292755127 1 14 1 C 10.52756977081299 1 7.26298999786377 2.352240085601807 4.807610034942627 4.807610034942627 C 2.352240085601807 7.26298999786377 1 10.52756977081299 1 14 C 1 17.4724292755127 2.352240085601807 20.73700904846191 4.807610034942627 23.19239044189453 C 7.26298999786377 25.64776039123535 10.52756977081299 27 14 27 M 14 28 C 6.268010139465332 28 -1.77635683940025e-15 21.73199081420898 -1.77635683940025e-15 14 C -1.77635683940025e-15 6.268010139465332 6.268010139465332 -1.77635683940025e-15 14 -1.77635683940025e-15 C 21.73199081420898 -1.77635683940025e-15 28 6.268010139465332 28 14 C 28 21.73199081420898 21.73199081420898 28 14 28 Z"/>
      </g>
      <g id="Path_697" data-name="Path 697" class="cls-2" transform="translate(5872 3757)">
        <path class="cls-7" d="M14,0A14,14,0,1,1,0,14,14,14,0,0,1,14,0Z"/>
        <path class="cls-8" d="M 14 27 C 17.4724292755127 27 20.73700904846191 25.64776039123535 23.19239044189453 23.19239044189453 C 25.64776039123535 20.73700904846191 27 17.4724292755127 27 14 C 27 10.52756977081299 25.64776039123535 7.26298999786377 23.19239044189453 4.807610034942627 C 20.73700904846191 2.352240085601807 17.4724292755127 1 14 1 C 10.52756977081299 1 7.26298999786377 2.352240085601807 4.807610034942627 4.807610034942627 C 2.352240085601807 7.26298999786377 1 10.52756977081299 1 14 C 1 17.4724292755127 2.352240085601807 20.73700904846191 4.807610034942627 23.19239044189453 C 7.26298999786377 25.64776039123535 10.52756977081299 27 14 27 M 14 28 C 6.268010139465332 28 -1.77635683940025e-15 21.73199081420898 -1.77635683940025e-15 14 C -1.77635683940025e-15 6.268010139465332 6.268010139465332 -1.77635683940025e-15 14 -1.77635683940025e-15 C 21.73199081420898 -1.77635683940025e-15 28 6.268010139465332 28 14 C 28 21.73199081420898 21.73199081420898 28 14 28 Z"/>
      </g>
      <g id="Path_698" data-name="Path 698" class="cls-2" transform="translate(5872 3829)">
        <path class="cls-7" d="M14,0A14,14,0,1,1,0,14,14,14,0,0,1,14,0Z"/>
        <path class="cls-8" d="M 14 27 C 17.4724292755127 27 20.73700904846191 25.64776039123535 23.19239044189453 23.19239044189453 C 25.64776039123535 20.73700904846191 27 17.4724292755127 27 14 C 27 10.52756977081299 25.64776039123535 7.26298999786377 23.19239044189453 4.807610034942627 C 20.73700904846191 2.352240085601807 17.4724292755127 1 14 1 C 10.52756977081299 1 7.26298999786377 2.352240085601807 4.807610034942627 4.807610034942627 C 2.352240085601807 7.26298999786377 1 10.52756977081299 1 14 C 1 17.4724292755127 2.352240085601807 20.73700904846191 4.807610034942627 23.19239044189453 C 7.26298999786377 25.64776039123535 10.52756977081299 27 14 27 M 14 28 C 6.268010139465332 28 -1.77635683940025e-15 21.73199081420898 -1.77635683940025e-15 14 C -1.77635683940025e-15 6.268010139465332 6.268010139465332 -1.77635683940025e-15 14 -1.77635683940025e-15 C 21.73199081420898 -1.77635683940025e-15 28 6.268010139465332 28 14 C 28 21.73199081420898 21.73199081420898 28 14 28 Z"/>
      </g>
      <g id="Path_702" data-name="Path 702" class="cls-2" transform="translate(5506 3937)">
        <path class="cls-7" d="M14,0A14,14,0,1,1,0,14,14,14,0,0,1,14,0Z"/>
        <path class="cls-8" d="M 14 27 C 17.4724292755127 27 20.73700904846191 25.64776039123535 23.19239044189453 23.19239044189453 C 25.64776039123535 20.73700904846191 27 17.4724292755127 27 14 C 27 10.52756977081299 25.64776039123535 7.26298999786377 23.19239044189453 4.807610034942627 C 20.73700904846191 2.352240085601807 17.4724292755127 1 14 1 C 10.52756977081299 1 7.26298999786377 2.352240085601807 4.807610034942627 4.807610034942627 C 2.352240085601807 7.26298999786377 1 10.52756977081299 1 14 C 1 17.4724292755127 2.352240085601807 20.73700904846191 4.807610034942627 23.19239044189453 C 7.26298999786377 25.64776039123535 10.52756977081299 27 14 27 M 14 28 C 6.268010139465332 28 -1.77635683940025e-15 21.73199081420898 -1.77635683940025e-15 14 C -1.77635683940025e-15 6.268010139465332 6.268010139465332 -1.77635683940025e-15 14 -1.77635683940025e-15 C 21.73199081420898 -1.77635683940025e-15 28 6.268010139465332 28 14 C 28 21.73199081420898 21.73199081420898 28 14 28 Z"/>
      </g>
      <g id="Path_703" data-name="Path 703" class="cls-2" transform="translate(5872 3937)">
        <path class="cls-7" d="M14,0A14,14,0,1,1,0,14,14,14,0,0,1,14,0Z"/>
        <path class="cls-8" d="M 14 27 C 17.4724292755127 27 20.73700904846191 25.64776039123535 23.19239044189453 23.19239044189453 C 25.64776039123535 20.73700904846191 27 17.4724292755127 27 14 C 27 10.52756977081299 25.64776039123535 7.26298999786377 23.19239044189453 4.807610034942627 C 20.73700904846191 2.352240085601807 17.4724292755127 1 14 1 C 10.52756977081299 1 7.26298999786377 2.352240085601807 4.807610034942627 4.807610034942627 C 2.352240085601807 7.26298999786377 1 10.52756977081299 1 14 C 1 17.4724292755127 2.352240085601807 20.73700904846191 4.807610034942627 23.19239044189453 C 7.26298999786377 25.64776039123535 10.52756977081299 27 14 27 M 14 28 C 6.268010139465332 28 -1.77635683940025e-15 21.73199081420898 -1.77635683940025e-15 14 C -1.77635683940025e-15 6.268010139465332 6.268010139465332 -1.77635683940025e-15 14 -1.77635683940025e-15 C 21.73199081420898 -1.77635683940025e-15 28 6.268010139465332 28 14 C 28 21.73199081420898 21.73199081420898 28 14 28 Z"/>
      </g>
      <g id="Path_693" data-name="Path 693" class="cls-2" transform="translate(5506 3793)">
        <path class="cls-7" d="M14,0A14,14,0,1,1,0,14,14,14,0,0,1,14,0Z"/>
        <path class="cls-8" d="M 14 27 C 17.4724292755127 27 20.73700904846191 25.64776039123535 23.19239044189453 23.19239044189453 C 25.64776039123535 20.73700904846191 27 17.4724292755127 27 14 C 27 10.52756977081299 25.64776039123535 7.26298999786377 23.19239044189453 4.807610034942627 C 20.73700904846191 2.352240085601807 17.4724292755127 1 14 1 C 10.52756977081299 1 7.26298999786377 2.352240085601807 4.807610034942627 4.807610034942627 C 2.352240085601807 7.26298999786377 1 10.52756977081299 1 14 C 1 17.4724292755127 2.352240085601807 20.73700904846191 4.807610034942627 23.19239044189453 C 7.26298999786377 25.64776039123535 10.52756977081299 27 14 27 M 14 28 C 6.268010139465332 28 -1.77635683940025e-15 21.73199081420898 -1.77635683940025e-15 14 C -1.77635683940025e-15 6.268010139465332 6.268010139465332 -1.77635683940025e-15 14 -1.77635683940025e-15 C 21.73199081420898 -1.77635683940025e-15 28 6.268010139465332 28 14 C 28 21.73199081420898 21.73199081420898 28 14 28 Z"/>
      </g>
      <g id="Path_699" data-name="Path 699" class="cls-2" transform="translate(5872 3793)">
        <path class="cls-7" d="M14,0A14,14,0,1,1,0,14,14,14,0,0,1,14,0Z"/>
        <path class="cls-8" d="M 14 27 C 17.4724292755127 27 20.73700904846191 25.64776039123535 23.19239044189453 23.19239044189453 C 25.64776039123535 20.73700904846191 27 17.4724292755127 27 14 C 27 10.52756977081299 25.64776039123535 7.26298999786377 23.19239044189453 4.807610034942627 C 20.73700904846191 2.352240085601807 17.4724292755127 1 14 1 C 10.52756977081299 1 7.26298999786377 2.352240085601807 4.807610034942627 4.807610034942627 C 2.352240085601807 7.26298999786377 1 10.52756977081299 1 14 C 1 17.4724292755127 2.352240085601807 20.73700904846191 4.807610034942627 23.19239044189453 C 7.26298999786377 25.64776039123535 10.52756977081299 27 14 27 M 14 28 C 6.268010139465332 28 -1.77635683940025e-15 21.73199081420898 -1.77635683940025e-15 14 C -1.77635683940025e-15 6.268010139465332 6.268010139465332 -1.77635683940025e-15 14 -1.77635683940025e-15 C 21.73199081420898 -1.77635683940025e-15 28 6.268010139465332 28 14 C 28 21.73199081420898 21.73199081420898 28 14 28 Z"/>
      </g>
      <g id="Path_710" data-name="Path 710" class="cls-2" transform="translate(5506 3973)">
        <path class="cls-7" d="M14,0A14,14,0,1,1,0,14,14,14,0,0,1,14,0Z"/>
        <path class="cls-8" d="M 14 27 C 17.4724292755127 27 20.73700904846191 25.64776039123535 23.19239044189453 23.19239044189453 C 25.64776039123535 20.73700904846191 27 17.4724292755127 27 14 C 27 10.52756977081299 25.64776039123535 7.26298999786377 23.19239044189453 4.807610034942627 C 20.73700904846191 2.352240085601807 17.4724292755127 1 14 1 C 10.52756977081299 1 7.26298999786377 2.352240085601807 4.807610034942627 4.807610034942627 C 2.352240085601807 7.26298999786377 1 10.52756977081299 1 14 C 1 17.4724292755127 2.352240085601807 20.73700904846191 4.807610034942627 23.19239044189453 C 7.26298999786377 25.64776039123535 10.52756977081299 27 14 27 M 14 28 C 6.268010139465332 28 -1.77635683940025e-15 21.73199081420898 -1.77635683940025e-15 14 C -1.77635683940025e-15 6.268010139465332 6.268010139465332 -1.77635683940025e-15 14 -1.77635683940025e-15 C 21.73199081420898 -1.77635683940025e-15 28 6.268010139465332 28 14 C 28 21.73199081420898 21.73199081420898 28 14 28 Z"/>
      </g>
      <g id="Path_711" data-name="Path 711" class="cls-2" transform="translate(5872 3973)">
        <path class="cls-7" d="M14,0A14,14,0,1,1,0,14,14,14,0,0,1,14,0Z"/>
        <path class="cls-8" d="M 14 27 C 17.4724292755127 27 20.73700904846191 25.64776039123535 23.19239044189453 23.19239044189453 C 25.64776039123535 20.73700904846191 27 17.4724292755127 27 14 C 27 10.52756977081299 25.64776039123535 7.26298999786377 23.19239044189453 4.807610034942627 C 20.73700904846191 2.352240085601807 17.4724292755127 1 14 1 C 10.52756977081299 1 7.26298999786377 2.352240085601807 4.807610034942627 4.807610034942627 C 2.352240085601807 7.26298999786377 1 10.52756977081299 1 14 C 1 17.4724292755127 2.352240085601807 20.73700904846191 4.807610034942627 23.19239044189453 C 7.26298999786377 25.64776039123535 10.52756977081299 27 14 27 M 14 28 C 6.268010139465332 28 -1.77635683940025e-15 21.73199081420898 -1.77635683940025e-15 14 C -1.77635683940025e-15 6.268010139465332 6.268010139465332 -1.77635683940025e-15 14 -1.77635683940025e-15 C 21.73199081420898 -1.77635683940025e-15 28 6.268010139465332 28 14 C 28 21.73199081420898 21.73199081420898 28 14 28 Z"/>
      </g>
      <g id="Path_714" data-name="Path 714" class="cls-2" transform="translate(5506 4009)">
        <path class="cls-7" d="M14,0A14,14,0,1,1,0,14,14,14,0,0,1,14,0Z"/>
        <path class="cls-8" d="M 14 27 C 17.4724292755127 27 20.73700904846191 25.64776039123535 23.19239044189453 23.19239044189453 C 25.64776039123535 20.73700904846191 27 17.4724292755127 27 14 C 27 10.52756977081299 25.64776039123535 7.26298999786377 23.19239044189453 4.807610034942627 C 20.73700904846191 2.352240085601807 17.4724292755127 1 14 1 C 10.52756977081299 1 7.26298999786377 2.352240085601807 4.807610034942627 4.807610034942627 C 2.352240085601807 7.26298999786377 1 10.52756977081299 1 14 C 1 17.4724292755127 2.352240085601807 20.73700904846191 4.807610034942627 23.19239044189453 C 7.26298999786377 25.64776039123535 10.52756977081299 27 14 27 M 14 28 C 6.268010139465332 28 -1.77635683940025e-15 21.73199081420898 -1.77635683940025e-15 14 C -1.77635683940025e-15 6.268010139465332 6.268010139465332 -1.77635683940025e-15 14 -1.77635683940025e-15 C 21.73199081420898 -1.77635683940025e-15 28 6.268010139465332 28 14 C 28 21.73199081420898 21.73199081420898 28 14 28 Z"/>
      </g>
      <g id="Path_715" data-name="Path 715" class="cls-2" transform="translate(5872 4009)">
        <path class="cls-7" d="M14,0A14,14,0,1,1,0,14,14,14,0,0,1,14,0Z"/>
        <path class="cls-8" d="M 14 27 C 17.4724292755127 27 20.73700904846191 25.64776039123535 23.19239044189453 23.19239044189453 C 25.64776039123535 20.73700904846191 27 17.4724292755127 27 14 C 27 10.52756977081299 25.64776039123535 7.26298999786377 23.19239044189453 4.807610034942627 C 20.73700904846191 2.352240085601807 17.4724292755127 1 14 1 C 10.52756977081299 1 7.26298999786377 2.352240085601807 4.807610034942627 4.807610034942627 C 2.352240085601807 7.26298999786377 1 10.52756977081299 1 14 C 1 17.4724292755127 2.352240085601807 20.73700904846191 4.807610034942627 23.19239044189453 C 7.26298999786377 25.64776039123535 10.52756977081299 27 14 27 M 14 28 C 6.268010139465332 28 -1.77635683940025e-15 21.73199081420898 -1.77635683940025e-15 14 C -1.77635683940025e-15 6.268010139465332 6.268010139465332 -1.77635683940025e-15 14 -1.77635683940025e-15 C 21.73199081420898 -1.77635683940025e-15 28 6.268010139465332 28 14 C 28 21.73199081420898 21.73199081420898 28 14 28 Z"/>
      </g>
      <g id="Path_704" data-name="Path 704" class="cls-2" transform="translate(5872 3936)">
        <path class="cls-7" d="M14,0A14,14,0,1,1,0,14,14,14,0,0,1,14,0Z"/>
        <path class="cls-8" d="M 14 27 C 17.4724292755127 27 20.73700904846191 25.64776039123535 23.19239044189453 23.19239044189453 C 25.64776039123535 20.73700904846191 27 17.4724292755127 27 14 C 27 10.52756977081299 25.64776039123535 7.26298999786377 23.19239044189453 4.807610034942627 C 20.73700904846191 2.352240085601807 17.4724292755127 1 14 1 C 10.52756977081299 1 7.26298999786377 2.352240085601807 4.807610034942627 4.807610034942627 C 2.352240085601807 7.26298999786377 1 10.52756977081299 1 14 C 1 17.4724292755127 2.352240085601807 20.73700904846191 4.807610034942627 23.19239044189453 C 7.26298999786377 25.64776039123535 10.52756977081299 27 14 27 M 14 28 C 6.268010139465332 28 -1.77635683940025e-15 21.73199081420898 -1.77635683940025e-15 14 C -1.77635683940025e-15 6.268010139465332 6.268010139465332 -1.77635683940025e-15 14 -1.77635683940025e-15 C 21.73199081420898 -1.77635683940025e-15 28 6.268010139465332 28 14 C 28 21.73199081420898 21.73199081420898 28 14 28 Z"/>
      </g>
      <g id="Path_718" data-name="Path 718" class="cls-2" transform="translate(5506 4046)">
        <path class="cls-7" d="M14,0A14,14,0,1,1,0,14,14,14,0,0,1,14,0Z"/>
        <path class="cls-8" d="M 14 27 C 17.4724292755127 27 20.73700904846191 25.64776039123535 23.19239044189453 23.19239044189453 C 25.64776039123535 20.73700904846191 27 17.4724292755127 27 14 C 27 10.52756977081299 25.64776039123535 7.26298999786377 23.19239044189453 4.807610034942627 C 20.73700904846191 2.352240085601807 17.4724292755127 1 14 1 C 10.52756977081299 1 7.26298999786377 2.352240085601807 4.807610034942627 4.807610034942627 C 2.352240085601807 7.26298999786377 1 10.52756977081299 1 14 C 1 17.4724292755127 2.352240085601807 20.73700904846191 4.807610034942627 23.19239044189453 C 7.26298999786377 25.64776039123535 10.52756977081299 27 14 27 M 14 28 C 6.268010139465332 28 -1.77635683940025e-15 21.73199081420898 -1.77635683940025e-15 14 C -1.77635683940025e-15 6.268010139465332 6.268010139465332 -1.77635683940025e-15 14 -1.77635683940025e-15 C 21.73199081420898 -1.77635683940025e-15 28 6.268010139465332 28 14 C 28 21.73199081420898 21.73199081420898 28 14 28 Z"/>
      </g>
      <g id="Path_719" data-name="Path 719" class="cls-2" transform="translate(5872 4046)">
        <path class="cls-7" d="M14,0A14,14,0,1,1,0,14,14,14,0,0,1,14,0Z"/>
        <path class="cls-8" d="M 14 27 C 17.4724292755127 27 20.73700904846191 25.64776039123535 23.19239044189453 23.19239044189453 C 25.64776039123535 20.73700904846191 27 17.4724292755127 27 14 C 27 10.52756977081299 25.64776039123535 7.26298999786377 23.19239044189453 4.807610034942627 C 20.73700904846191 2.352240085601807 17.4724292755127 1 14 1 C 10.52756977081299 1 7.26298999786377 2.352240085601807 4.807610034942627 4.807610034942627 C 2.352240085601807 7.26298999786377 1 10.52756977081299 1 14 C 1 17.4724292755127 2.352240085601807 20.73700904846191 4.807610034942627 23.19239044189453 C 7.26298999786377 25.64776039123535 10.52756977081299 27 14 27 M 14 28 C 6.268010139465332 28 -1.77635683940025e-15 21.73199081420898 -1.77635683940025e-15 14 C -1.77635683940025e-15 6.268010139465332 6.268010139465332 -1.77635683940025e-15 14 -1.77635683940025e-15 C 21.73199081420898 -1.77635683940025e-15 28 6.268010139465332 28 14 C 28 21.73199081420898 21.73199081420898 28 14 28 Z"/>
      </g>
      <g id="Group_477" data-name="Group 477" transform="translate(-885 -128)">
        <circle id="Ellipse_139" data-name="Ellipse 139" class="cls-3" cx="14" cy="14" r="14" transform="translate(6391 3957)"/>
        <g class="cls-13" transform="matrix(1, 0, 0, 1, 429, 254.86)">
          <g id="Ellipse_140-5" data-name="Ellipse 140" class="cls-4" transform="translate(5969 3709.14)">
            <circle class="cls-7" cx="7" cy="7" r="7"/>
            <circle class="cls-9" cx="7" cy="7" r="6.5"/>
          </g>
        </g>
      </g>
      <g id="Group_482" data-name="Group 482" transform="translate(-519 -164)">
        <circle id="Ellipse_139-2" data-name="Ellipse 139" class="cls-3" cx="14" cy="14" r="14" transform="translate(6391 3957)"/>
        <g class="cls-12" transform="matrix(1, 0, 0, 1, 63, 290.86)">
          <g id="Ellipse_140-6" data-name="Ellipse 140" class="cls-4" transform="translate(6335 3673.14)">
            <circle class="cls-7" cx="7" cy="7" r="7"/>
            <circle class="cls-9" cx="7" cy="7" r="6.5"/>
          </g>
        </g>
      </g>
      <g id="Group_478" data-name="Group 478" transform="translate(-885 -20)">
        <circle id="Ellipse_139-3" data-name="Ellipse 139" class="cls-3" cx="14" cy="14" r="14" transform="translate(6391 3957)"/>
        <g class="cls-11" transform="matrix(1, 0, 0, 1, 429, 146.86)">
          <g id="Ellipse_140-7" data-name="Ellipse 140" class="cls-4" transform="translate(5969 3817.14)">
            <circle class="cls-7" cx="7" cy="7" r="7"/>
            <circle class="cls-9" cx="7" cy="7" r="6.5"/>
          </g>
        </g>
      </g>
      <g id="Group_481" data-name="Group 481" transform="translate(-519 16)">
        <circle id="Ellipse_139-4" data-name="Ellipse 139" class="cls-3" cx="14" cy="14" r="14" transform="translate(6391 3957)"/>
        <g class="cls-10" transform="matrix(1, 0, 0, 1, 63, 110.86)">
          <g id="Ellipse_140-8" data-name="Ellipse 140" class="cls-4" transform="translate(6335 3853.14)">
            <circle class="cls-7" cx="7" cy="7" r="7"/>
            <circle class="cls-9" cx="7" cy="7" r="6.5"/>
          </g>
        </g>
      </g>
      <path id="Path_688" data-name="Path 688" class="cls-5" d="M15.188-10.047H5.641V0h-3V-22.75H16.734v2.469H5.641V-12.5h9.547ZM23.547,0h-3V-22.75h3Zm8.5-2.453H42.828V0h-13.8V-22.75h3.016ZM57.672-20.281H50.359V0H47.375V-20.281h-7.3V-22.75H57.672Zm16.234,9.766H64.047v8.063H75.5V0H61.047V-22.75h14.3v2.469h-11.3v7.313h9.859ZM87.578-9.2H82.234V0H79.219V-22.75H86.75A8.914,8.914,0,0,1,92.664-21a6.3,6.3,0,0,1,2.07,5.094,6.125,6.125,0,0,1-1.148,3.7,6.856,6.856,0,0,1-3.2,2.359L95.734-.187V0H92.516Zm-5.344-2.453h4.609A5.2,5.2,0,0,0,90.4-12.812a3.907,3.907,0,0,0,1.32-3.094,4.113,4.113,0,0,0-1.258-3.234,5.333,5.333,0,0,0-3.633-1.141H82.234Zm23.406,1.516a14.107,14.107,0,0,1-5.617-2.727,5.209,5.209,0,0,1-1.758-3.992,5.5,5.5,0,0,1,2.148-4.445A8.538,8.538,0,0,1,106-23.062a9.32,9.32,0,0,1,4.18.906,6.873,6.873,0,0,1,2.844,2.5,6.393,6.393,0,0,1,1.008,3.484h-3.016a4.138,4.138,0,0,0-1.312-3.242,5.349,5.349,0,0,0-3.7-1.18,5.472,5.472,0,0,0-3.461.977,3.255,3.255,0,0,0-1.242,2.711,2.929,2.929,0,0,0,1.18,2.352,11.58,11.58,0,0,0,4.016,1.758,18.6,18.6,0,0,1,4.438,1.758A6.734,6.734,0,0,1,113.3-8.8a5.723,5.723,0,0,1,.773,3.016,5.315,5.315,0,0,1-2.156,4.43A9.194,9.194,0,0,1,106.156.313a10.693,10.693,0,0,1-4.375-.9,7.363,7.363,0,0,1-3.133-2.461,6.006,6.006,0,0,1-1.1-3.547h3.016a3.918,3.918,0,0,0,1.523,3.258,6.415,6.415,0,0,0,4.07,1.2,5.9,5.9,0,0,0,3.641-.969,3.147,3.147,0,0,0,1.266-2.641,3.089,3.089,0,0,0-1.172-2.586A13.511,13.511,0,0,0,105.641-10.141Zm25.766,1.656h-7.625v-2.359h7.625Z" transform="translate(5506 3674)"/>
      <path id="Path_690" data-name="Path 690" class="cls-5" d="M26.982-8.571a.575.575,0,0,0-.571-.571H22.982a.552.552,0,0,0-.536.411A14.486,14.486,0,0,1,21.5-6.643a9.115,9.115,0,0,1-7.786,4.357A9.126,9.126,0,0,1,7.5-4.75L9.946-7.2a1.136,1.136,0,0,0,.339-.8A1.151,1.151,0,0,0,9.143-9.143h-8A1.151,1.151,0,0,0,0-8V0A1.151,1.151,0,0,0,1.143,1.143,1.136,1.136,0,0,0,1.946.8l2.3-2.3a13.686,13.686,0,0,0,9.393,3.786A13.556,13.556,0,0,0,26.964-8.446.3.3,0,0,0,26.982-8.571Zm.446-14.286A1.151,1.151,0,0,0,26.286-24a1.136,1.136,0,0,0-.8.339l-2.321,2.3a13.865,13.865,0,0,0-9.446-3.786A13.631,13.631,0,0,0,.321-14.411v.125a.575.575,0,0,0,.571.571H4.446a.552.552,0,0,0,.536-.411,14.486,14.486,0,0,1,.946-2.089,9.115,9.115,0,0,1,7.786-4.357,9.185,9.185,0,0,1,6.232,2.446l-2.464,2.464a1.136,1.136,0,0,0-.339.8,1.151,1.151,0,0,0,1.143,1.143h8a1.151,1.151,0,0,0,1.143-1.143Z" transform="translate(5646 3673)"/>
      <path id="Path_689" data-name="Path 689" class="cls-6" d="M2.311,0V-19.906H7.93a9.046,9.046,0,0,1,4.594,1.148,7.767,7.767,0,0,1,3.083,3.268,10.636,10.636,0,0,1,1.1,4.867v1.271A10.673,10.673,0,0,1,15.62-4.416a7.645,7.645,0,0,1-3.1,3.254A9.622,9.622,0,0,1,7.82,0ZM4.936-17.746v15.6H7.7a6.011,6.011,0,0,0,4.724-1.887,7.791,7.791,0,0,0,1.688-5.373v-1.162a7.914,7.914,0,0,0-1.593-5.271A5.67,5.67,0,0,0,8-17.746ZM23.023,0H20.494V-14.793h2.529ZM20.289-18.717a1.51,1.51,0,0,1,.376-1.039,1.412,1.412,0,0,1,1.114-.424,1.434,1.434,0,0,1,1.121.424,1.494,1.494,0,0,1,.383,1.039,1.445,1.445,0,0,1-.383,1.025,1.46,1.46,0,0,1-1.121.41,1.437,1.437,0,0,1-1.114-.41A1.46,1.46,0,0,1,20.289-18.717Zm13.932,6.193a7.58,7.58,0,0,0-1.244-.1A3.333,3.333,0,0,0,29.6-10.5V0H27.07V-14.793h2.461l.041,1.709A3.938,3.938,0,0,1,33.1-15.066a2.584,2.584,0,0,1,1.121.191ZM42.684.273A6.463,6.463,0,0,1,37.789-1.7,7.332,7.332,0,0,1,35.9-6.986v-.465a8.877,8.877,0,0,1,.841-3.931,6.559,6.559,0,0,1,2.352-2.707,5.912,5.912,0,0,1,3.274-.978,5.54,5.54,0,0,1,4.484,1.9,8.228,8.228,0,0,1,1.6,5.441v1.053H38.432A5.258,5.258,0,0,0,39.71-3.138a4.018,4.018,0,0,0,3.11,1.347,4.405,4.405,0,0,0,2.27-.547,5.7,5.7,0,0,0,1.627-1.449l1.545,1.2A6.212,6.212,0,0,1,42.684.273Zm-.314-13.262a3.374,3.374,0,0,0-2.57,1.114A5.416,5.416,0,0,0,38.514-8.75h7.41v-.191a4.817,4.817,0,0,0-1.039-2.987A3.176,3.176,0,0,0,42.369-12.988Zm14.943,11.2a3.643,3.643,0,0,0,2.365-.82A2.886,2.886,0,0,0,60.8-4.662h2.393a4.587,4.587,0,0,1-.875,2.42A5.763,5.763,0,0,1,60.163-.41a6.213,6.213,0,0,1-2.851.684,6.094,6.094,0,0,1-4.806-2.017A8.032,8.032,0,0,1,50.723-7.26v-.424a8.906,8.906,0,0,1,.793-3.842,6.04,6.04,0,0,1,2.276-2.611,6.466,6.466,0,0,1,3.507-.93,5.933,5.933,0,0,1,4.136,1.49,5.326,5.326,0,0,1,1.757,3.869H60.8a3.486,3.486,0,0,0-1.087-2.358,3.381,3.381,0,0,0-2.413-.923A3.54,3.54,0,0,0,54.312-11.6a6.517,6.517,0,0,0-1.06,4.013v.479A6.387,6.387,0,0,0,54.3-3.172,3.557,3.557,0,0,0,57.313-1.791ZM69.467-18.375v3.582h2.762v1.955H69.467v9.174a2.049,2.049,0,0,0,.369,1.333,1.555,1.555,0,0,0,1.258.444,6.124,6.124,0,0,0,1.2-.164V0a7.333,7.333,0,0,1-1.941.273A3.15,3.15,0,0,1,67.8-.752a4.405,4.405,0,0,1-.861-2.912v-9.174H64.244v-1.955h2.693v-3.582ZM77.93,0H75.4V-14.793H77.93ZM75.2-18.717a1.51,1.51,0,0,1,.376-1.039,1.412,1.412,0,0,1,1.114-.424,1.434,1.434,0,0,1,1.121.424,1.494,1.494,0,0,1,.383,1.039,1.445,1.445,0,0,1-.383,1.025,1.46,1.46,0,0,1-1.121.41,1.437,1.437,0,0,1-1.114-.41A1.46,1.46,0,0,1,75.2-18.717ZM81.307-7.533a8.737,8.737,0,0,1,.854-3.91,6.374,6.374,0,0,1,2.379-2.68,6.476,6.476,0,0,1,3.479-.943,6.238,6.238,0,0,1,4.888,2.092A8.048,8.048,0,0,1,94.773-7.41v.178a8.814,8.814,0,0,1-.827,3.876A6.281,6.281,0,0,1,91.581-.684a6.55,6.55,0,0,1-3.534.957,6.223,6.223,0,0,1-4.874-2.092,8.007,8.007,0,0,1-1.866-5.537Zm2.543.3a6.329,6.329,0,0,0,1.142,3.951,3.654,3.654,0,0,0,3.056,1.49A3.631,3.631,0,0,0,91.109-3.3a6.92,6.92,0,0,0,1.135-4.231,6.318,6.318,0,0,0-1.155-3.944,3.673,3.673,0,0,0-3.069-1.511A3.632,3.632,0,0,0,85-11.5,6.869,6.869,0,0,0,83.85-7.232Zm16.488-7.561.082,1.859a5.391,5.391,0,0,1,4.43-2.133q4.689,0,4.73,5.291V0h-2.529V-9.789a3.405,3.405,0,0,0-.731-2.365,2.931,2.931,0,0,0-2.235-.766,3.65,3.65,0,0,0-2.16.656,4.456,4.456,0,0,0-1.449,1.723V0H97.945V-14.793Z" transform="translate(5506 3728)"/>
      <path id="Path_700" data-name="Path 700" class="cls-6" d="M5.7-19.906,12.209-3.664l6.508-16.242h3.4V0H19.5V-7.752l.246-8.367L13.207,0H11.2L4.676-16.078l.26,8.326V0H2.311V-19.906ZM35.492,0a5.313,5.313,0,0,1-.355-1.559A5.643,5.643,0,0,1,30.926.273,5.222,5.222,0,0,1,27.337-.964a4,4,0,0,1-1.4-3.138A4.182,4.182,0,0,1,27.692-7.69a8.283,8.283,0,0,1,4.942-1.278H35.1v-1.162a2.841,2.841,0,0,0-.793-2.112,3.187,3.187,0,0,0-2.338-.786,3.688,3.688,0,0,0-2.27.684,2.014,2.014,0,0,0-.916,1.654H26.236a3.491,3.491,0,0,1,.786-2.14,5.365,5.365,0,0,1,2.133-1.634,7.175,7.175,0,0,1,2.96-.6,5.848,5.848,0,0,1,4.006,1.278,4.611,4.611,0,0,1,1.5,3.521v6.809a8.324,8.324,0,0,0,.52,3.24V0Zm-4.2-1.928a4.445,4.445,0,0,0,2.256-.615,3.721,3.721,0,0,0,1.545-1.6V-7.178H33.113q-4.648,0-4.648,2.721A2.3,2.3,0,0,0,29.258-2.6,3.048,3.048,0,0,0,31.295-1.928ZM44.338,0H41.809V-14.793h2.529ZM41.6-18.717a1.51,1.51,0,0,1,.376-1.039,1.412,1.412,0,0,1,1.114-.424,1.434,1.434,0,0,1,1.121.424,1.494,1.494,0,0,1,.383,1.039,1.445,1.445,0,0,1-.383,1.025,1.46,1.46,0,0,1-1.121.41,1.437,1.437,0,0,1-1.114-.41A1.46,1.46,0,0,1,41.6-18.717ZM51.133,0H48.6V-21h2.529Zm17.24-8.873a12.343,12.343,0,0,1-4.915-2.386,4.558,4.558,0,0,1-1.538-3.493,4.815,4.815,0,0,1,1.88-3.89,7.471,7.471,0,0,1,4.888-1.538,8.155,8.155,0,0,1,3.657.793A6.014,6.014,0,0,1,74.833-17.2a5.594,5.594,0,0,1,.882,3.049H73.076a3.621,3.621,0,0,0-1.148-2.837,4.681,4.681,0,0,0-3.24-1.032,4.788,4.788,0,0,0-3.028.854,2.848,2.848,0,0,0-1.087,2.372A2.563,2.563,0,0,0,65.6-12.735,10.133,10.133,0,0,0,69.118-11.2,16.271,16.271,0,0,1,73-9.659,5.892,5.892,0,0,1,75.079-7.7a5.007,5.007,0,0,1,.677,2.639,4.651,4.651,0,0,1-1.887,3.876A8.044,8.044,0,0,1,68.824.273,9.357,9.357,0,0,1,65-.513a6.442,6.442,0,0,1-2.741-2.153,5.255,5.255,0,0,1-.964-3.1H63.93a3.428,3.428,0,0,0,1.333,2.851,5.613,5.613,0,0,0,3.562,1.046,5.16,5.16,0,0,0,3.186-.848,2.753,2.753,0,0,0,1.107-2.311,2.7,2.7,0,0,0-1.025-2.263A11.822,11.822,0,0,0,68.373-8.873ZM81.252-13a5.378,5.378,0,0,1,4.375-2.064q4.689,0,4.73,5.291V0H87.828V-9.789a3.405,3.405,0,0,0-.731-2.365,2.931,2.931,0,0,0-2.235-.766,3.65,3.65,0,0,0-2.16.656,4.456,4.456,0,0,0-1.449,1.723V0H78.723V-21h2.529ZM103.277,0a5.313,5.313,0,0,1-.355-1.559A5.643,5.643,0,0,1,98.711.273,5.222,5.222,0,0,1,95.122-.964a4,4,0,0,1-1.4-3.138A4.182,4.182,0,0,1,95.478-7.69a8.283,8.283,0,0,1,4.942-1.278h2.461v-1.162a2.841,2.841,0,0,0-.793-2.112,3.187,3.187,0,0,0-2.338-.786,3.688,3.688,0,0,0-2.27.684,2.014,2.014,0,0,0-.916,1.654H94.021a3.491,3.491,0,0,1,.786-2.14,5.365,5.365,0,0,1,2.133-1.634,7.175,7.175,0,0,1,2.96-.6,5.848,5.848,0,0,1,4.006,1.278,4.611,4.611,0,0,1,1.5,3.521v6.809a8.324,8.324,0,0,0,.52,3.24V0Zm-4.2-1.928a4.445,4.445,0,0,0,2.256-.615,3.721,3.721,0,0,0,1.545-1.6V-7.178H100.9q-4.648,0-4.648,2.721A2.3,2.3,0,0,0,97.043-2.6,3.048,3.048,0,0,0,99.08-1.928Zm22.791-5.3a8.858,8.858,0,0,1-1.545,5.441A4.952,4.952,0,0,1,116.143.273,5.425,5.425,0,0,1,111.9-1.436V5.688h-2.529v-20.48h2.311l.123,1.641a5.21,5.21,0,0,1,4.293-1.914,5.044,5.044,0,0,1,4.218,2.01,8.954,8.954,0,0,1,1.552,5.592Zm-2.529-.287a6.536,6.536,0,0,0-1.066-3.951,3.435,3.435,0,0,0-2.926-1.449,3.718,3.718,0,0,0-3.445,2.037v7.068a3.725,3.725,0,0,0,3.473,2.023,3.419,3.419,0,0,0,2.892-1.442A7.135,7.135,0,0,0,119.342-7.52ZM131.223.273A6.463,6.463,0,0,1,126.328-1.7a7.332,7.332,0,0,1-1.887-5.284v-.465a8.877,8.877,0,0,1,.841-3.931,6.559,6.559,0,0,1,2.352-2.707,5.912,5.912,0,0,1,3.274-.978,5.54,5.54,0,0,1,4.484,1.9,8.228,8.228,0,0,1,1.6,5.441v1.053H126.971a5.258,5.258,0,0,0,1.278,3.534,4.018,4.018,0,0,0,3.11,1.347,4.405,4.405,0,0,0,2.27-.547,5.7,5.7,0,0,0,1.627-1.449l1.545,1.2A6.212,6.212,0,0,1,131.223.273Zm-.314-13.262a3.374,3.374,0,0,0-2.57,1.114,5.416,5.416,0,0,0-1.285,3.124h7.41v-.191a4.817,4.817,0,0,0-1.039-2.987A3.176,3.176,0,0,0,130.908-12.988Z" transform="translate(5872 3728)"/>
      <path id="Path_696" data-name="Path 696" class="cls-6" d="M5.7-19.906,12.209-3.664l6.508-16.242h3.4V0H19.5V-7.752l.246-8.367L13.207,0H11.2L4.676-16.078l.26,8.326V0H2.311V-19.906ZM35.492,0a5.313,5.313,0,0,1-.355-1.559A5.643,5.643,0,0,1,30.926.273,5.222,5.222,0,0,1,27.337-.964a4,4,0,0,1-1.4-3.138A4.182,4.182,0,0,1,27.692-7.69a8.283,8.283,0,0,1,4.942-1.278H35.1v-1.162a2.841,2.841,0,0,0-.793-2.112,3.187,3.187,0,0,0-2.338-.786,3.688,3.688,0,0,0-2.27.684,2.014,2.014,0,0,0-.916,1.654H26.236a3.491,3.491,0,0,1,.786-2.14,5.365,5.365,0,0,1,2.133-1.634,7.175,7.175,0,0,1,2.96-.6,5.848,5.848,0,0,1,4.006,1.278,4.611,4.611,0,0,1,1.5,3.521v6.809a8.324,8.324,0,0,0,.52,3.24V0Zm-4.2-1.928a4.445,4.445,0,0,0,2.256-.615,3.721,3.721,0,0,0,1.545-1.6V-7.178H33.113q-4.648,0-4.648,2.721A2.3,2.3,0,0,0,29.258-2.6,3.048,3.048,0,0,0,31.295-1.928ZM44.338,0H41.809V-14.793h2.529ZM41.6-18.717a1.51,1.51,0,0,1,.376-1.039,1.412,1.412,0,0,1,1.114-.424,1.434,1.434,0,0,1,1.121.424,1.494,1.494,0,0,1,.383,1.039,1.445,1.445,0,0,1-.383,1.025,1.46,1.46,0,0,1-1.121.41,1.437,1.437,0,0,1-1.114-.41A1.46,1.46,0,0,1,41.6-18.717ZM51.133,0H48.6V-21h2.529ZM77.15-6.316a7.324,7.324,0,0,1-2.331,4.874A7.639,7.639,0,0,1,69.6.273,7.015,7.015,0,0,1,63.95-2.256a10.176,10.176,0,0,1-2.126-6.768v-1.914a11.342,11.342,0,0,1,.991-4.881,7.4,7.4,0,0,1,2.81-3.233,7.823,7.823,0,0,1,4.211-1.128,7.193,7.193,0,0,1,5.086,1.771,7.412,7.412,0,0,1,2.229,4.9H74.512a5.694,5.694,0,0,0-1.483-3.445,4.5,4.5,0,0,0-3.192-1.066,4.7,4.7,0,0,0-3.944,1.859,8.531,8.531,0,0,0-1.429,5.291v1.928a8.769,8.769,0,0,0,1.354,5.154A4.375,4.375,0,0,0,69.6-1.873a5.051,5.051,0,0,0,3.356-.991,5.5,5.5,0,0,0,1.552-3.452ZM83.084,0H80.555V-21h2.529Zm13.18,0a5.313,5.313,0,0,1-.355-1.559A5.643,5.643,0,0,1,91.7.273,5.222,5.222,0,0,1,88.108-.964a4,4,0,0,1-1.4-3.138A4.182,4.182,0,0,1,88.464-7.69a8.283,8.283,0,0,1,4.942-1.278h2.461v-1.162a2.841,2.841,0,0,0-.793-2.112,3.187,3.187,0,0,0-2.338-.786,3.688,3.688,0,0,0-2.27.684,2.014,2.014,0,0,0-.916,1.654H87.008a3.491,3.491,0,0,1,.786-2.14,5.365,5.365,0,0,1,2.133-1.634,7.175,7.175,0,0,1,2.96-.6,5.848,5.848,0,0,1,4.006,1.278,4.611,4.611,0,0,1,1.5,3.521v6.809a8.324,8.324,0,0,0,.52,3.24V0Zm-4.2-1.928a4.445,4.445,0,0,0,2.256-.615,3.721,3.721,0,0,0,1.545-1.6V-7.178H93.885q-4.648,0-4.648,2.721A2.3,2.3,0,0,0,90.029-2.6,3.048,3.048,0,0,0,92.066-1.928Zm18.908-2a1.862,1.862,0,0,0-.772-1.593,7.435,7.435,0,0,0-2.693-.978,12.734,12.734,0,0,1-3.049-.984,4.337,4.337,0,0,1-1.668-1.367,3.27,3.27,0,0,1-.54-1.887,3.837,3.837,0,0,1,1.538-3.076,6.007,6.007,0,0,1,3.931-1.258,6.181,6.181,0,0,1,4.081,1.3,4.125,4.125,0,0,1,1.565,3.322h-2.543a2.283,2.283,0,0,0-.882-1.791,3.3,3.3,0,0,0-2.222-.752,3.458,3.458,0,0,0-2.16.6,1.894,1.894,0,0,0-.779,1.572,1.534,1.534,0,0,0,.725,1.381,8.915,8.915,0,0,0,2.618.889,13.642,13.642,0,0,1,3.069,1.012,4.477,4.477,0,0,1,1.743,1.415A3.479,3.479,0,0,1,113.5-4.1a3.786,3.786,0,0,1-1.586,3.179A6.652,6.652,0,0,1,107.8.273a7.449,7.449,0,0,1-3.145-.629,5.114,5.114,0,0,1-2.14-1.757,4.234,4.234,0,0,1-.772-2.44h2.529a2.619,2.619,0,0,0,1.019,2.017,3.951,3.951,0,0,0,2.509.745,4.079,4.079,0,0,0,2.3-.581A1.785,1.785,0,0,0,110.975-3.924Zm14.438,0a1.862,1.862,0,0,0-.772-1.593,7.435,7.435,0,0,0-2.693-.978,12.734,12.734,0,0,1-3.049-.984,4.337,4.337,0,0,1-1.668-1.367,3.27,3.27,0,0,1-.54-1.887,3.837,3.837,0,0,1,1.538-3.076,6.007,6.007,0,0,1,3.931-1.258,6.181,6.181,0,0,1,4.081,1.3,4.125,4.125,0,0,1,1.565,3.322h-2.543a2.283,2.283,0,0,0-.882-1.791,3.3,3.3,0,0,0-2.222-.752,3.458,3.458,0,0,0-2.16.6,1.894,1.894,0,0,0-.779,1.572,1.534,1.534,0,0,0,.725,1.381,8.915,8.915,0,0,0,2.618.889,13.642,13.642,0,0,1,3.069,1.012,4.477,4.477,0,0,1,1.743,1.415,3.479,3.479,0,0,1,.567,2.017,3.786,3.786,0,0,1-1.586,3.179,6.652,6.652,0,0,1-4.115,1.2A7.449,7.449,0,0,1,119.1-.355a5.114,5.114,0,0,1-2.14-1.757,4.234,4.234,0,0,1-.772-2.44h2.529a2.619,2.619,0,0,0,1.019,2.017,3.951,3.951,0,0,0,2.509.745,4.079,4.079,0,0,0,2.3-.581A1.785,1.785,0,0,0,125.412-3.924Z" transform="translate(5506 3908)"/>
      <path id="Path_701" data-name="Path 701" class="cls-6" d="M8.176-8.873a12.343,12.343,0,0,1-4.915-2.386,4.558,4.558,0,0,1-1.538-3.493,4.815,4.815,0,0,1,1.88-3.89A7.471,7.471,0,0,1,8.49-20.18a8.155,8.155,0,0,1,3.657.793A6.014,6.014,0,0,1,14.636-17.2a5.594,5.594,0,0,1,.882,3.049H12.879a3.621,3.621,0,0,0-1.148-2.837A4.681,4.681,0,0,0,8.49-18.02a4.788,4.788,0,0,0-3.028.854,2.848,2.848,0,0,0-1.087,2.372,2.563,2.563,0,0,0,1.032,2.058A10.133,10.133,0,0,0,8.921-11.2,16.271,16.271,0,0,1,12.8-9.659,5.892,5.892,0,0,1,14.882-7.7a5.007,5.007,0,0,1,.677,2.639,4.651,4.651,0,0,1-1.887,3.876A8.044,8.044,0,0,1,8.627.273,9.357,9.357,0,0,1,4.8-.513,6.442,6.442,0,0,1,2.058-2.666a5.255,5.255,0,0,1-.964-3.1H3.732A3.428,3.428,0,0,0,5.065-2.919,5.613,5.613,0,0,0,8.627-1.873a5.16,5.16,0,0,0,3.186-.848A2.753,2.753,0,0,0,12.92-5.031a2.7,2.7,0,0,0-1.025-2.263A11.822,11.822,0,0,0,8.176-8.873ZM24.664.273A6.463,6.463,0,0,1,19.77-1.7a7.332,7.332,0,0,1-1.887-5.284v-.465a8.877,8.877,0,0,1,.841-3.931,6.559,6.559,0,0,1,2.352-2.707,5.912,5.912,0,0,1,3.274-.978,5.54,5.54,0,0,1,4.484,1.9,8.228,8.228,0,0,1,1.6,5.441v1.053H20.412A5.258,5.258,0,0,0,21.69-3.138,4.018,4.018,0,0,0,24.8-1.791a4.405,4.405,0,0,0,2.27-.547A5.7,5.7,0,0,0,28.7-3.787l1.545,1.2A6.212,6.212,0,0,1,24.664.273ZM24.35-12.988a3.374,3.374,0,0,0-2.57,1.114A5.416,5.416,0,0,0,20.494-8.75H27.9v-.191a4.817,4.817,0,0,0-1.039-2.987A3.176,3.176,0,0,0,24.35-12.988Zm16.16.465a7.58,7.58,0,0,0-1.244-.1A3.333,3.333,0,0,0,35.889-10.5V0H33.359V-14.793H35.82l.041,1.709a3.938,3.938,0,0,1,3.527-1.982,2.584,2.584,0,0,1,1.121.191Zm7.451,9.092,3.664-11.361h2.584L48.9,0H46.977L41.617-14.793H44.2ZM59.391,0H56.861V-14.793h2.529ZM56.656-18.717a1.51,1.51,0,0,1,.376-1.039,1.412,1.412,0,0,1,1.114-.424,1.434,1.434,0,0,1,1.121.424,1.494,1.494,0,0,1,.383,1.039,1.445,1.445,0,0,1-.383,1.025,1.46,1.46,0,0,1-1.121.41,1.437,1.437,0,0,1-1.114-.41A1.46,1.46,0,0,1,56.656-18.717ZM69.371-1.791a3.643,3.643,0,0,0,2.365-.82,2.886,2.886,0,0,0,1.121-2.051H75.25a4.587,4.587,0,0,1-.875,2.42A5.763,5.763,0,0,1,72.222-.41a6.213,6.213,0,0,1-2.851.684,6.094,6.094,0,0,1-4.806-2.017A8.032,8.032,0,0,1,62.781-7.26v-.424a8.906,8.906,0,0,1,.793-3.842,6.04,6.04,0,0,1,2.276-2.611,6.466,6.466,0,0,1,3.507-.93,5.933,5.933,0,0,1,4.136,1.49A5.326,5.326,0,0,1,75.25-9.707H72.857a3.486,3.486,0,0,0-1.087-2.358,3.381,3.381,0,0,0-2.413-.923A3.54,3.54,0,0,0,66.37-11.6a6.517,6.517,0,0,0-1.06,4.013v.479a6.387,6.387,0,0,0,1.053,3.938A3.557,3.557,0,0,0,69.371-1.791ZM84.232.273A6.463,6.463,0,0,1,79.338-1.7a7.332,7.332,0,0,1-1.887-5.284v-.465a8.877,8.877,0,0,1,.841-3.931,6.559,6.559,0,0,1,2.352-2.707,5.912,5.912,0,0,1,3.274-.978,5.54,5.54,0,0,1,4.484,1.9A8.228,8.228,0,0,1,90-7.725v1.053H79.98a5.258,5.258,0,0,0,1.278,3.534,4.018,4.018,0,0,0,3.11,1.347,4.405,4.405,0,0,0,2.27-.547,5.7,5.7,0,0,0,1.627-1.449l1.545,1.2A6.212,6.212,0,0,1,84.232.273Zm-.314-13.262a3.374,3.374,0,0,0-2.57,1.114A5.416,5.416,0,0,0,80.063-8.75h7.41v-.191a4.817,4.817,0,0,0-1.039-2.987A3.176,3.176,0,0,0,83.918-12.988Zm22.2,4.115a12.343,12.343,0,0,1-4.915-2.386,4.558,4.558,0,0,1-1.538-3.493,4.815,4.815,0,0,1,1.88-3.89,7.471,7.471,0,0,1,4.888-1.538,8.155,8.155,0,0,1,3.657.793,6.014,6.014,0,0,1,2.488,2.188,5.594,5.594,0,0,1,.882,3.049h-2.639a3.621,3.621,0,0,0-1.148-2.837,4.681,4.681,0,0,0-3.24-1.032,4.788,4.788,0,0,0-3.028.854,2.848,2.848,0,0,0-1.087,2.372,2.563,2.563,0,0,0,1.032,2.058,10.133,10.133,0,0,0,3.514,1.538,16.271,16.271,0,0,1,3.883,1.538A5.892,5.892,0,0,1,112.827-7.7a5.007,5.007,0,0,1,.677,2.639,4.651,4.651,0,0,1-1.887,3.876A8.044,8.044,0,0,1,106.572.273a9.357,9.357,0,0,1-3.828-.786A6.442,6.442,0,0,1,100-2.666a5.255,5.255,0,0,1-.964-3.1h2.639a3.428,3.428,0,0,0,1.333,2.851,5.613,5.613,0,0,0,3.562,1.046,5.16,5.16,0,0,0,3.186-.848,2.753,2.753,0,0,0,1.107-2.311,2.7,2.7,0,0,0-1.025-2.263A11.822,11.822,0,0,0,106.121-8.873Zm13.781-9.5v3.582h2.762v1.955H119.9v9.174a2.049,2.049,0,0,0,.369,1.333,1.555,1.555,0,0,0,1.258.444,6.124,6.124,0,0,0,1.2-.164V0a7.333,7.333,0,0,1-1.941.273,3.15,3.15,0,0,1-2.557-1.025,4.405,4.405,0,0,1-.861-2.912v-9.174H114.68v-1.955h2.693v-3.582ZM134.75,0a5.313,5.313,0,0,1-.355-1.559A5.643,5.643,0,0,1,130.184.273a5.222,5.222,0,0,1-3.589-1.237,4,4,0,0,1-1.4-3.138A4.182,4.182,0,0,1,126.95-7.69a8.283,8.283,0,0,1,4.942-1.278h2.461v-1.162a2.841,2.841,0,0,0-.793-2.112,3.187,3.187,0,0,0-2.338-.786,3.688,3.688,0,0,0-2.27.684,2.014,2.014,0,0,0-.916,1.654h-2.543a3.491,3.491,0,0,1,.786-2.14,5.365,5.365,0,0,1,2.133-1.634,7.175,7.175,0,0,1,2.96-.6,5.848,5.848,0,0,1,4.006,1.278,4.611,4.611,0,0,1,1.5,3.521v6.809a8.324,8.324,0,0,0,.52,3.24V0Zm-4.2-1.928a4.445,4.445,0,0,0,2.256-.615,3.721,3.721,0,0,0,1.545-1.6V-7.178h-1.982q-4.648,0-4.648,2.721a2.3,2.3,0,0,0,.793,1.859A3.048,3.048,0,0,0,130.553-1.928ZM143.24-14.793l.082,1.859a5.391,5.391,0,0,1,4.43-2.133q4.689,0,4.73,5.291V0h-2.529V-9.789a3.405,3.405,0,0,0-.731-2.365,2.931,2.931,0,0,0-2.235-.766,3.65,3.65,0,0,0-2.16.656,4.456,4.456,0,0,0-1.449,1.723V0h-2.529V-14.793ZM155.682-7.52A8.666,8.666,0,0,1,157.295-13a5.1,5.1,0,0,1,4.225-2.071,5.13,5.13,0,0,1,4.115,1.777V-21h2.529V0H165.84l-.123-1.586A5.151,5.151,0,0,1,161.492.273a5.053,5.053,0,0,1-4.19-2.105,8.764,8.764,0,0,1-1.62-5.5Zm2.529.287a6.561,6.561,0,0,0,1.039,3.938,3.359,3.359,0,0,0,2.871,1.422,3.69,3.69,0,0,0,3.514-2.16v-6.795a3.718,3.718,0,0,0-3.486-2.092,3.375,3.375,0,0,0-2.9,1.436A7.224,7.224,0,0,0,158.211-7.232ZM181.221,0a5.313,5.313,0,0,1-.355-1.559A5.643,5.643,0,0,1,176.654.273a5.222,5.222,0,0,1-3.589-1.237,4,4,0,0,1-1.4-3.138,4.182,4.182,0,0,1,1.757-3.589,8.283,8.283,0,0,1,4.942-1.278h2.461v-1.162a2.841,2.841,0,0,0-.793-2.112,3.187,3.187,0,0,0-2.338-.786,3.688,3.688,0,0,0-2.27.684,2.014,2.014,0,0,0-.916,1.654h-2.543a3.491,3.491,0,0,1,.786-2.14,5.365,5.365,0,0,1,2.133-1.634,7.175,7.175,0,0,1,2.96-.6,5.848,5.848,0,0,1,4.006,1.278,4.611,4.611,0,0,1,1.5,3.521v6.809a8.324,8.324,0,0,0,.52,3.24V0Zm-4.2-1.928a4.445,4.445,0,0,0,2.256-.615,3.721,3.721,0,0,0,1.545-1.6V-7.178h-1.982q-4.648,0-4.648,2.721a2.3,2.3,0,0,0,.793,1.859A3.048,3.048,0,0,0,177.023-1.928Zm17.445-10.6a7.58,7.58,0,0,0-1.244-.1,3.333,3.333,0,0,0-3.377,2.119V0h-2.529V-14.793h2.461l.041,1.709a3.938,3.938,0,0,1,3.527-1.982,2.584,2.584,0,0,1,1.121.191Zm1.709,5A8.666,8.666,0,0,1,197.791-13a5.1,5.1,0,0,1,4.225-2.071,5.13,5.13,0,0,1,4.115,1.777V-21h2.529V0h-2.324l-.123-1.586A5.151,5.151,0,0,1,201.988.273a5.053,5.053,0,0,1-4.19-2.105,8.764,8.764,0,0,1-1.62-5.5Zm2.529.287a6.561,6.561,0,0,0,1.039,3.938,3.359,3.359,0,0,0,2.871,1.422,3.69,3.69,0,0,0,3.514-2.16v-6.795a3.718,3.718,0,0,0-3.486-2.092,3.375,3.375,0,0,0-2.9,1.436A7.224,7.224,0,0,0,198.707-7.232Z" transform="translate(5872 3908)"/>
      <path id="Path_692" data-name="Path 692" d="M13.32-4.963a5.754,5.754,0,0,1-1.832,3.83A6,6,0,0,1,7.391.215,5.511,5.511,0,0,1,2.949-1.772,8,8,0,0,1,1.278-7.09v-1.5a8.911,8.911,0,0,1,.779-3.835,5.817,5.817,0,0,1,2.208-2.541,6.147,6.147,0,0,1,3.309-.886,5.652,5.652,0,0,1,4,1.391,5.823,5.823,0,0,1,1.751,3.851H11.247a4.474,4.474,0,0,0-1.166-2.707,3.533,3.533,0,0,0-2.508-.838,3.691,3.691,0,0,0-3.1,1.461A6.7,6.7,0,0,0,3.352-8.54v1.515a6.89,6.89,0,0,0,1.063,4.05,3.437,3.437,0,0,0,2.976,1.5,3.969,3.969,0,0,0,2.637-.779,4.322,4.322,0,0,0,1.219-2.712ZM15.3-5.919a6.865,6.865,0,0,1,.671-3.072A5.008,5.008,0,0,1,17.837-11.1a5.088,5.088,0,0,1,2.734-.741,4.9,4.9,0,0,1,3.84,1.644,6.323,6.323,0,0,1,1.466,4.372v.14a6.925,6.925,0,0,1-.65,3.045,4.935,4.935,0,0,1-1.858,2.1,5.146,5.146,0,0,1-2.777.752,4.889,4.889,0,0,1-3.83-1.644A6.291,6.291,0,0,1,15.3-5.779Zm2,.236a4.972,4.972,0,0,0,.9,3.1,2.871,2.871,0,0,0,2.4,1.171A2.853,2.853,0,0,0,23-2.594a5.437,5.437,0,0,0,.892-3.325,4.964,4.964,0,0,0-.908-3.1,2.886,2.886,0,0,0-2.412-1.187A2.854,2.854,0,0,0,18.2-9.034,5.4,5.4,0,0,0,17.295-5.683Zm12.944-5.94.054,1.289a4.292,4.292,0,0,1,3.448-1.5,3.323,3.323,0,0,1,3.319,1.869,4.4,4.4,0,0,1,1.509-1.354,4.458,4.458,0,0,1,2.2-.516q3.824,0,3.889,4.05V0H42.668V-7.67A2.669,2.669,0,0,0,42.1-9.534a2.507,2.507,0,0,0-1.912-.618,2.635,2.635,0,0,0-1.837.661A2.68,2.68,0,0,0,37.5-7.713V0h-2V-7.616a2.217,2.217,0,0,0-2.481-2.535,2.659,2.659,0,0,0-2.675,1.665V0H28.359V-11.623Zm27.231,5.94a6.96,6.96,0,0,1-1.214,4.275A3.89,3.89,0,0,1,52.97.215a4.263,4.263,0,0,1-3.33-1.343v5.6H47.652V-11.623h1.815l.1,1.289a4.094,4.094,0,0,1,3.373-1.5,3.963,3.963,0,0,1,3.314,1.579,7.036,7.036,0,0,1,1.219,4.394Zm-1.987-.226a5.135,5.135,0,0,0-.838-3.1,2.7,2.7,0,0,0-2.3-1.139,2.921,2.921,0,0,0-2.707,1.6V-3a2.927,2.927,0,0,0,2.729,1.59A2.686,2.686,0,0,0,54.64-2.541,5.606,5.606,0,0,0,55.483-5.908Zm3.985-.011a6.865,6.865,0,0,1,.671-3.072A5.008,5.008,0,0,1,62.009-11.1a5.088,5.088,0,0,1,2.734-.741,4.9,4.9,0,0,1,3.84,1.644A6.323,6.323,0,0,1,70.05-5.822v.14a6.925,6.925,0,0,1-.65,3.045,4.935,4.935,0,0,1-1.858,2.1,5.147,5.147,0,0,1-2.777.752,4.889,4.889,0,0,1-3.83-1.644,6.291,6.291,0,0,1-1.466-4.351Zm2,.236a4.972,4.972,0,0,0,.9,3.1,2.871,2.871,0,0,0,2.4,1.171,2.853,2.853,0,0,0,2.406-1.187,5.437,5.437,0,0,0,.892-3.325,4.964,4.964,0,0,0-.908-3.1,2.886,2.886,0,0,0-2.412-1.187,2.854,2.854,0,0,0-2.374,1.171A5.4,5.4,0,0,0,61.467-5.683Zm17.843,2.6A1.463,1.463,0,0,0,78.7-4.334,5.842,5.842,0,0,0,76.586-5.1a10.005,10.005,0,0,1-2.4-.773A3.408,3.408,0,0,1,72.88-6.95a2.57,2.57,0,0,1-.424-1.482,3.015,3.015,0,0,1,1.208-2.417,4.72,4.72,0,0,1,3.088-.988,4.857,4.857,0,0,1,3.207,1.021,3.241,3.241,0,0,1,1.23,2.61h-2A1.794,1.794,0,0,0,78.5-9.614a2.6,2.6,0,0,0-1.746-.591,2.717,2.717,0,0,0-1.7.473A1.488,1.488,0,0,0,74.443-8.5a1.205,1.205,0,0,0,.569,1.085,7,7,0,0,0,2.057.7,10.719,10.719,0,0,1,2.412.795,3.518,3.518,0,0,1,1.37,1.112A2.734,2.734,0,0,1,81.3-3.223a2.975,2.975,0,0,1-1.246,2.5,5.227,5.227,0,0,1-3.233.94,5.853,5.853,0,0,1-2.471-.494,4.018,4.018,0,0,1-1.681-1.38,3.327,3.327,0,0,1-.607-1.917h1.987a2.058,2.058,0,0,0,.8,1.584,3.1,3.1,0,0,0,1.971.585,3.2,3.2,0,0,0,1.81-.457A1.4,1.4,0,0,0,79.31-3.083ZM86.045,0H84.058V-11.623h1.987ZM83.9-14.706a1.186,1.186,0,0,1,.3-.816,1.109,1.109,0,0,1,.875-.333,1.126,1.126,0,0,1,.881.333,1.174,1.174,0,0,1,.3.816,1.135,1.135,0,0,1-.3.806,1.147,1.147,0,0,1-.881.322,1.129,1.129,0,0,1-.875-.322A1.147,1.147,0,0,1,83.9-14.706Zm8.024.269v2.814h2.17v1.536h-2.17v7.208a1.61,1.61,0,0,0,.29,1.047,1.221,1.221,0,0,0,.988.349,4.811,4.811,0,0,0,.945-.129V0a5.761,5.761,0,0,1-1.525.215A2.475,2.475,0,0,1,90.61-.591a3.461,3.461,0,0,1-.677-2.288v-7.208H87.817v-1.536h2.116v-2.814ZM101.234.215a5.078,5.078,0,0,1-3.846-1.552,5.761,5.761,0,0,1-1.482-4.152v-.365a6.975,6.975,0,0,1,.661-3.088,5.154,5.154,0,0,1,1.848-2.127,4.645,4.645,0,0,1,2.573-.768,4.353,4.353,0,0,1,3.523,1.493,6.465,6.465,0,0,1,1.257,4.275v.827H97.894a4.132,4.132,0,0,0,1,2.777,3.157,3.157,0,0,0,2.444,1.058,3.461,3.461,0,0,0,1.783-.43A4.481,4.481,0,0,0,104.4-2.976l1.214.945A4.881,4.881,0,0,1,101.234.215Zm-.247-10.42a2.651,2.651,0,0,0-2.02.875,4.255,4.255,0,0,0-1.01,2.455h5.822v-.15a3.785,3.785,0,0,0-.816-2.347A2.5,2.5,0,0,0,100.987-10.205Z" transform="translate(5542 3779)"/>
      <path id="Path_705" data-name="Path 705" d="M10.452-4.082H3.9L2.428,0H.3L6.273-15.641h1.8L14.062,0H11.945Zm-5.93-1.7H9.84L7.176-13.095ZM18.24-1.687h7.412V0H16.167V-15.641H18.24Zm11.838,0H37.49V0H28V-15.641h2.073Z" transform="translate(5908 3779)"/>
      <path id="Path_706" data-name="Path 706" d="M10.441-6.907H3.878V0H1.815V-15.641H11.5v1.7H3.878v5.35h6.563ZM15.823,0H13.836V-11.623h1.987ZM13.675-14.706a1.186,1.186,0,0,1,.3-.816,1.109,1.109,0,0,1,.875-.333,1.126,1.126,0,0,1,.881.333,1.174,1.174,0,0,1,.3.816,1.135,1.135,0,0,1-.3.806,1.147,1.147,0,0,1-.881.322,1.129,1.129,0,0,1-.875-.322A1.147,1.147,0,0,1,13.675-14.706ZM24.621-9.84a5.955,5.955,0,0,0-.978-.075A2.619,2.619,0,0,0,20.99-8.25V0H19V-11.623h1.934l.032,1.343a3.094,3.094,0,0,1,2.771-1.558,2.03,2.03,0,0,1,.881.15Zm8.594,6.757a1.463,1.463,0,0,0-.607-1.251A5.842,5.842,0,0,0,30.492-5.1a10.005,10.005,0,0,1-2.4-.773A3.408,3.408,0,0,1,26.786-6.95a2.57,2.57,0,0,1-.424-1.482A3.015,3.015,0,0,1,27.57-10.85a4.72,4.72,0,0,1,3.088-.988,4.857,4.857,0,0,1,3.207,1.021,3.241,3.241,0,0,1,1.23,2.61h-2A1.794,1.794,0,0,0,32.4-9.614a2.6,2.6,0,0,0-1.746-.591,2.717,2.717,0,0,0-1.7.473A1.488,1.488,0,0,0,28.349-8.5a1.205,1.205,0,0,0,.569,1.085,7,7,0,0,0,2.057.7,10.719,10.719,0,0,1,2.412.795,3.518,3.518,0,0,1,1.37,1.112A2.734,2.734,0,0,1,35.2-3.223a2.975,2.975,0,0,1-1.246,2.5,5.227,5.227,0,0,1-3.233.94,5.853,5.853,0,0,1-2.471-.494,4.018,4.018,0,0,1-1.681-1.38,3.327,3.327,0,0,1-.607-1.917h1.987a2.058,2.058,0,0,0,.8,1.584,3.1,3.1,0,0,0,1.971.585,3.2,3.2,0,0,0,1.81-.457A1.4,1.4,0,0,0,33.215-3.083Zm7.272-11.354v2.814h2.17v1.536h-2.17v7.208a1.61,1.61,0,0,0,.29,1.047,1.221,1.221,0,0,0,.988.349,4.811,4.811,0,0,0,.945-.129V0a5.761,5.761,0,0,1-1.525.215,2.475,2.475,0,0,1-2.009-.806A3.461,3.461,0,0,1,38.5-2.879v-7.208H36.384v-1.536H38.5v-2.814ZM62.24-4.963a5.754,5.754,0,0,1-1.832,3.83,6,6,0,0,1-4.1,1.348,5.511,5.511,0,0,1-4.442-1.987A8,8,0,0,1,50.2-7.09v-1.5a8.911,8.911,0,0,1,.779-3.835,5.817,5.817,0,0,1,2.208-2.541,6.147,6.147,0,0,1,3.309-.886,5.652,5.652,0,0,1,4,1.391,5.823,5.823,0,0,1,1.751,3.851H60.167A4.474,4.474,0,0,0,59-13.32a3.533,3.533,0,0,0-2.508-.838,3.691,3.691,0,0,0-3.1,1.461A6.7,6.7,0,0,0,52.271-8.54v1.515a6.89,6.89,0,0,0,1.063,4.05,3.437,3.437,0,0,0,2.976,1.5,3.969,3.969,0,0,0,2.637-.779,4.322,4.322,0,0,0,1.219-2.712ZM66.9,0H64.915V-16.5H66.9ZM77.258,0a4.175,4.175,0,0,1-.279-1.225A4.434,4.434,0,0,1,73.67.215a4.1,4.1,0,0,1-2.82-.972,3.145,3.145,0,0,1-1.1-2.465,3.286,3.286,0,0,1,1.38-2.82,6.508,6.508,0,0,1,3.883-1h1.934V-7.96a2.232,2.232,0,0,0-.623-1.66,2.5,2.5,0,0,0-1.837-.618A2.9,2.9,0,0,0,72.7-9.7a1.583,1.583,0,0,0-.72,1.3h-2a2.743,2.743,0,0,1,.618-1.681,4.216,4.216,0,0,1,1.676-1.284,5.638,5.638,0,0,1,2.326-.473,4.6,4.6,0,0,1,3.147,1,3.623,3.623,0,0,1,1.182,2.766v5.35a6.54,6.54,0,0,0,.408,2.546V0Zm-3.3-1.515A3.493,3.493,0,0,0,75.732-2a2.924,2.924,0,0,0,1.214-1.257V-5.64H75.389q-3.652,0-3.652,2.138a1.809,1.809,0,0,0,.623,1.461A2.4,2.4,0,0,0,73.96-1.515ZM88.816-3.083a1.463,1.463,0,0,0-.607-1.251A5.842,5.842,0,0,0,86.093-5.1a10.005,10.005,0,0,1-2.4-.773A3.408,3.408,0,0,1,82.387-6.95a2.57,2.57,0,0,1-.424-1.482,3.015,3.015,0,0,1,1.208-2.417,4.72,4.72,0,0,1,3.088-.988,4.857,4.857,0,0,1,3.207,1.021,3.241,3.241,0,0,1,1.23,2.61h-2a1.794,1.794,0,0,0-.693-1.407,2.6,2.6,0,0,0-1.746-.591,2.717,2.717,0,0,0-1.7.473A1.488,1.488,0,0,0,83.95-8.5a1.205,1.205,0,0,0,.569,1.085,7,7,0,0,0,2.057.7,10.719,10.719,0,0,1,2.412.795,3.518,3.518,0,0,1,1.37,1.112A2.734,2.734,0,0,1,90.8-3.223a2.975,2.975,0,0,1-1.246,2.5,5.227,5.227,0,0,1-3.233.94,5.853,5.853,0,0,1-2.471-.494,4.018,4.018,0,0,1-1.681-1.38,3.327,3.327,0,0,1-.607-1.917h1.987a2.058,2.058,0,0,0,.8,1.584,3.1,3.1,0,0,0,1.971.585,3.2,3.2,0,0,0,1.81-.457A1.4,1.4,0,0,0,88.816-3.083Zm11.344,0a1.463,1.463,0,0,0-.607-1.251A5.842,5.842,0,0,0,97.437-5.1a10.005,10.005,0,0,1-2.4-.773A3.408,3.408,0,0,1,93.731-6.95a2.57,2.57,0,0,1-.424-1.482,3.015,3.015,0,0,1,1.208-2.417,4.72,4.72,0,0,1,3.088-.988,4.857,4.857,0,0,1,3.207,1.021,3.241,3.241,0,0,1,1.23,2.61h-2a1.794,1.794,0,0,0-.693-1.407,2.6,2.6,0,0,0-1.746-.591,2.717,2.717,0,0,0-1.7.473A1.488,1.488,0,0,0,95.294-8.5a1.205,1.205,0,0,0,.569,1.085,7,7,0,0,0,2.057.7,10.719,10.719,0,0,1,2.412.795,3.518,3.518,0,0,1,1.37,1.112,2.734,2.734,0,0,1,.446,1.584,2.975,2.975,0,0,1-1.246,2.5,5.227,5.227,0,0,1-3.233.94A5.853,5.853,0,0,1,95.2-.279a4.018,4.018,0,0,1-1.681-1.38,3.327,3.327,0,0,1-.607-1.917H94.9a2.058,2.058,0,0,0,.8,1.584,3.1,3.1,0,0,0,1.971.585,3.2,3.2,0,0,0,1.81-.457A1.4,1.4,0,0,0,100.16-3.083Zm12.4-3.04V0h-2.062V-15.641h5.769a5.8,5.8,0,0,1,4.023,1.311,4.443,4.443,0,0,1,1.456,3.47,4.384,4.384,0,0,1-1.423,3.507,6.054,6.054,0,0,1-4.077,1.23Zm0-1.687h3.706a3.71,3.71,0,0,0,2.535-.779,2.845,2.845,0,0,0,.881-2.25,2.939,2.939,0,0,0-.881-2.234,3.475,3.475,0,0,0-2.417-.87h-3.824ZM129.68-9.84a5.955,5.955,0,0,0-.978-.075,2.619,2.619,0,0,0-2.653,1.665V0h-1.987V-11.623H126l.032,1.343a3.094,3.094,0,0,1,2.771-1.558,2.03,2.03,0,0,1,.881.15ZM136.329.215a5.078,5.078,0,0,1-3.846-1.552A5.761,5.761,0,0,1,131-5.489v-.365a6.975,6.975,0,0,1,.661-3.088,5.154,5.154,0,0,1,1.848-2.127,4.645,4.645,0,0,1,2.573-.768,4.353,4.353,0,0,1,3.523,1.493,6.465,6.465,0,0,1,1.257,4.275v.827h-7.874a4.132,4.132,0,0,0,1,2.777,3.157,3.157,0,0,0,2.444,1.058,3.461,3.461,0,0,0,1.783-.43A4.48,4.48,0,0,0,139.5-2.976l1.214.945A4.881,4.881,0,0,1,136.329.215Zm-.247-10.42a2.651,2.651,0,0,0-2.02.875,4.255,4.255,0,0,0-1.01,2.455h5.822v-.15a3.785,3.785,0,0,0-.816-2.347A2.5,2.5,0,0,0,136.082-10.205Zm13.847,7.122a1.463,1.463,0,0,0-.607-1.251,5.842,5.842,0,0,0-2.116-.768,10.005,10.005,0,0,1-2.4-.773A3.408,3.408,0,0,1,143.5-6.95a2.57,2.57,0,0,1-.424-1.482,3.015,3.015,0,0,1,1.208-2.417,4.72,4.72,0,0,1,3.088-.988,4.857,4.857,0,0,1,3.207,1.021,3.241,3.241,0,0,1,1.23,2.61h-2a1.794,1.794,0,0,0-.693-1.407,2.6,2.6,0,0,0-1.746-.591,2.717,2.717,0,0,0-1.7.473,1.488,1.488,0,0,0-.612,1.235,1.205,1.205,0,0,0,.569,1.085,7,7,0,0,0,2.057.7,10.719,10.719,0,0,1,2.412.795,3.518,3.518,0,0,1,1.37,1.112,2.734,2.734,0,0,1,.446,1.584,2.975,2.975,0,0,1-1.246,2.5,5.227,5.227,0,0,1-3.233.94,5.853,5.853,0,0,1-2.471-.494,4.018,4.018,0,0,1-1.681-1.38,3.327,3.327,0,0,1-.607-1.917h1.987a2.058,2.058,0,0,0,.8,1.584,3.1,3.1,0,0,0,1.971.585,3.2,3.2,0,0,0,1.81-.457A1.4,1.4,0,0,0,149.929-3.083Zm4.05-2.836a6.865,6.865,0,0,1,.671-3.072,5.008,5.008,0,0,1,1.869-2.105,5.088,5.088,0,0,1,2.734-.741,4.9,4.9,0,0,1,3.84,1.644,6.323,6.323,0,0,1,1.466,4.372v.14a6.925,6.925,0,0,1-.65,3.045,4.935,4.935,0,0,1-1.858,2.1,5.146,5.146,0,0,1-2.777.752,4.889,4.889,0,0,1-3.83-1.644,6.291,6.291,0,0,1-1.466-4.351Zm2,.236a4.972,4.972,0,0,0,.9,3.1,2.871,2.871,0,0,0,2.4,1.171,2.853,2.853,0,0,0,2.406-1.187,5.437,5.437,0,0,0,.892-3.325,4.964,4.964,0,0,0-.908-3.1,2.886,2.886,0,0,0-2.412-1.187,2.854,2.854,0,0,0-2.374,1.171A5.4,5.4,0,0,0,155.977-5.683ZM172.67-9.84a5.955,5.955,0,0,0-.978-.075,2.619,2.619,0,0,0-2.653,1.665V0h-1.987V-11.623h1.934l.032,1.343a3.094,3.094,0,0,1,2.771-1.558,2.03,2.03,0,0,1,.881.15Zm5.06-4.6v2.814h2.17v1.536h-2.17v7.208a1.61,1.61,0,0,0,.29,1.047,1.221,1.221,0,0,0,.988.349,4.811,4.811,0,0,0,.945-.129V0a5.761,5.761,0,0,1-1.525.215,2.475,2.475,0,0,1-2.009-.806,3.461,3.461,0,0,1-.677-2.288v-7.208h-2.116v-1.536h2.116v-2.814Z" transform="translate(5542 3959)"/>
      <path id="Path_707" data-name="Path 707" d="M10.452-4.082H3.9L2.428,0H.3L6.273-15.641h1.8L14.062,0H11.945Zm-5.93-1.7H9.84L7.176-13.095ZM18.24-1.687h7.412V0H16.167V-15.641H18.24Zm11.838,0H37.49V0H28V-15.641h2.073Z" transform="translate(5908 3959)"/>
      <path id="Path_694" data-name="Path 694" d="M13.847-7.315A9.675,9.675,0,0,1,13.073-3.3,5.858,5.858,0,0,1,10.882-.687a6.029,6.029,0,0,1-3.309.9A5.978,5.978,0,0,1,4.3-.693,6,6,0,0,1,2.079-3.282a9.283,9.283,0,0,1-.811-3.894V-8.3a9.56,9.56,0,0,1,.784-3.985A5.977,5.977,0,0,1,4.27-14.937a5.952,5.952,0,0,1,3.282-.918,6.063,6.063,0,0,1,3.314.908,5.848,5.848,0,0,1,2.208,2.632A9.722,9.722,0,0,1,13.847-8.3Zm-2.052-1.01a7.013,7.013,0,0,0-1.117-4.27,3.685,3.685,0,0,0-3.126-1.488A3.645,3.645,0,0,0,4.474-12.6a6.869,6.869,0,0,0-1.155,4.13v1.149A7.023,7.023,0,0,0,4.453-3.078,3.661,3.661,0,0,0,7.573-1.536a3.646,3.646,0,0,0,3.094-1.456,6.983,6.983,0,0,0,1.128-4.173ZM22.247-9.84a5.955,5.955,0,0,0-.978-.075A2.619,2.619,0,0,0,18.616-8.25V0H16.629V-11.623h1.934l.032,1.343a3.094,3.094,0,0,1,2.771-1.558,2.03,2.03,0,0,1,.881.15ZM26.232,0H24.245V-11.623h1.987ZM24.084-14.706a1.186,1.186,0,0,1,.3-.816,1.109,1.109,0,0,1,.875-.333,1.126,1.126,0,0,1,.881.333,1.174,1.174,0,0,1,.3.816,1.135,1.135,0,0,1-.3.806,1.147,1.147,0,0,1-.881.322,1.129,1.129,0,0,1-.875-.322A1.147,1.147,0,0,1,24.084-14.706Zm4.855,8.8A6.831,6.831,0,0,1,30.2-10.232a4.019,4.019,0,0,1,3.33-1.606,4,4,0,0,1,3.319,1.5l.1-1.289h1.815V-.279A4.728,4.728,0,0,1,37.42,3.276a4.935,4.935,0,0,1-3.593,1.3,5.978,5.978,0,0,1-2.46-.537A4.235,4.235,0,0,1,29.53,2.567l1.031-1.192a3.886,3.886,0,0,0,3.126,1.579,3.045,3.045,0,0,0,2.261-.816,3.12,3.12,0,0,0,.811-2.3v-1A4.085,4.085,0,0,1,33.5.215a3.97,3.97,0,0,1-3.3-1.644A7.182,7.182,0,0,1,28.939-5.908Zm2,.226a5.211,5.211,0,0,0,.806,3.088A2.618,2.618,0,0,0,34-1.472,2.911,2.911,0,0,0,36.76-3.18V-8.486a2.945,2.945,0,0,0-2.739-1.665,2.641,2.641,0,0,0-2.267,1.128A5.676,5.676,0,0,0,30.938-5.683ZM43.914,0H41.927V-11.623h1.987ZM41.766-14.706a1.186,1.186,0,0,1,.3-.816,1.109,1.109,0,0,1,.875-.333,1.126,1.126,0,0,1,.881.333,1.174,1.174,0,0,1,.3.816,1.135,1.135,0,0,1-.3.806,1.147,1.147,0,0,1-.881.322,1.129,1.129,0,0,1-.875-.322A1.147,1.147,0,0,1,41.766-14.706Zm7.208,3.083.064,1.461a4.236,4.236,0,0,1,3.48-1.676q3.685,0,3.717,4.157V0H54.248V-7.691a2.676,2.676,0,0,0-.575-1.858,2.3,2.3,0,0,0-1.756-.6,2.868,2.868,0,0,0-1.7.516,3.5,3.5,0,0,0-1.139,1.354V0H47.094V-11.623ZM66.408,0a4.175,4.175,0,0,1-.279-1.225A4.434,4.434,0,0,1,62.82.215,4.1,4.1,0,0,1,60-.757a3.145,3.145,0,0,1-1.1-2.465,3.286,3.286,0,0,1,1.38-2.82,6.508,6.508,0,0,1,3.883-1H66.1V-7.96a2.232,2.232,0,0,0-.623-1.66,2.5,2.5,0,0,0-1.837-.618,2.9,2.9,0,0,0-1.783.537,1.583,1.583,0,0,0-.72,1.3h-2a2.743,2.743,0,0,1,.618-1.681,4.216,4.216,0,0,1,1.676-1.284,5.638,5.638,0,0,1,2.326-.473,4.6,4.6,0,0,1,3.147,1,3.623,3.623,0,0,1,1.182,2.766v5.35a6.54,6.54,0,0,0,.408,2.546V0Zm-3.3-1.515A3.493,3.493,0,0,0,64.883-2,2.924,2.924,0,0,0,66.1-3.255V-5.64H64.539q-3.652,0-3.652,2.138a1.809,1.809,0,0,0,.623,1.461A2.4,2.4,0,0,0,63.11-1.515ZM73.9-14.437v2.814h2.17v1.536H73.9v7.208a1.61,1.61,0,0,0,.29,1.047,1.221,1.221,0,0,0,.988.349,4.811,4.811,0,0,0,.945-.129V0a5.761,5.761,0,0,1-1.525.215,2.475,2.475,0,0,1-2.009-.806,3.461,3.461,0,0,1-.677-2.288v-7.208H69.792v-1.536h2.116v-2.814ZM80.545,0H78.558V-11.623h1.987ZM78.4-14.706a1.186,1.186,0,0,1,.3-.816,1.109,1.109,0,0,1,.875-.333,1.126,1.126,0,0,1,.881.333,1.174,1.174,0,0,1,.3.816,1.135,1.135,0,0,1-.3.806,1.147,1.147,0,0,1-.881.322,1.129,1.129,0,0,1-.875-.322A1.147,1.147,0,0,1,78.4-14.706ZM85.6-11.623l.064,1.461a4.236,4.236,0,0,1,3.48-1.676q3.685,0,3.717,4.157V0H90.879V-7.691A2.676,2.676,0,0,0,90.3-9.55a2.3,2.3,0,0,0-1.756-.6,2.868,2.868,0,0,0-1.7.516,3.5,3.5,0,0,0-1.139,1.354V0H83.725V-11.623Zm9.786,5.715a6.831,6.831,0,0,1,1.257-4.324,4.019,4.019,0,0,1,3.33-1.606,4,4,0,0,1,3.319,1.5l.1-1.289h1.815V-.279a4.728,4.728,0,0,1-1.337,3.556,4.935,4.935,0,0,1-3.593,1.3,5.978,5.978,0,0,1-2.46-.537,4.235,4.235,0,0,1-1.837-1.472l1.031-1.192a3.886,3.886,0,0,0,3.126,1.579,3.045,3.045,0,0,0,2.261-.816,3.12,3.12,0,0,0,.811-2.3v-1A4.085,4.085,0,0,1,99.956.215a3.97,3.97,0,0,1-3.3-1.644A7.182,7.182,0,0,1,95.391-5.908Zm2,.226a5.211,5.211,0,0,0,.806,3.088,2.618,2.618,0,0,0,2.256,1.123,2.911,2.911,0,0,0,2.761-1.708V-8.486a2.945,2.945,0,0,0-2.739-1.665,2.641,2.641,0,0,0-2.267,1.128A5.676,5.676,0,0,0,97.389-5.683Z" transform="translate(5542 3816)"/>
      <path id="Path_708" data-name="Path 708" d="M3.889-1.687H11.3V0H1.815V-15.641H3.889ZM18.165.215a5.078,5.078,0,0,1-3.846-1.552,5.761,5.761,0,0,1-1.482-4.152v-.365A6.975,6.975,0,0,1,13.5-8.943a5.154,5.154,0,0,1,1.848-2.127,4.645,4.645,0,0,1,2.573-.768,4.353,4.353,0,0,1,3.523,1.493A6.465,6.465,0,0,1,22.7-6.069v.827H14.824a4.132,4.132,0,0,0,1,2.777,3.157,3.157,0,0,0,2.444,1.058,3.461,3.461,0,0,0,1.783-.43,4.48,4.48,0,0,0,1.278-1.139l1.214.945A4.881,4.881,0,0,1,18.165.215Zm-.247-10.42a2.651,2.651,0,0,0-2.02.875,4.255,4.255,0,0,0-1.01,2.455h5.822v-.15a3.785,3.785,0,0,0-.816-2.347A2.5,2.5,0,0,0,17.918-10.205Zm9.775-4.232v2.814h2.17v1.536h-2.17v7.208a1.61,1.61,0,0,0,.29,1.047,1.221,1.221,0,0,0,.988.349,4.811,4.811,0,0,0,.945-.129V0a5.761,5.761,0,0,1-1.525.215,2.475,2.475,0,0,1-2.009-.806,3.461,3.461,0,0,1-.677-2.288v-7.208H23.59v-1.536h2.116v-2.814Zm7.187,0v2.814h2.17v1.536H34.88v7.208a1.61,1.61,0,0,0,.29,1.047,1.221,1.221,0,0,0,.988.349,4.811,4.811,0,0,0,.945-.129V0a5.761,5.761,0,0,1-1.525.215,2.475,2.475,0,0,1-2.009-.806,3.461,3.461,0,0,1-.677-2.288v-7.208H30.776v-1.536h2.116v-2.814ZM44.193.215a5.078,5.078,0,0,1-3.846-1.552,5.761,5.761,0,0,1-1.482-4.152v-.365a6.975,6.975,0,0,1,.661-3.088,5.154,5.154,0,0,1,1.848-2.127,4.645,4.645,0,0,1,2.573-.768,4.353,4.353,0,0,1,3.523,1.493,6.465,6.465,0,0,1,1.257,4.275v.827H40.853a4.132,4.132,0,0,0,1,2.777A3.157,3.157,0,0,0,44.3-1.407a3.461,3.461,0,0,0,1.783-.43,4.48,4.48,0,0,0,1.278-1.139l1.214.945A4.881,4.881,0,0,1,44.193.215Zm-.247-10.42a2.651,2.651,0,0,0-2.02.875,4.255,4.255,0,0,0-1.01,2.455h5.822v-.15a3.785,3.785,0,0,0-.816-2.347A2.5,2.5,0,0,0,43.946-10.205Zm12.7.365a5.955,5.955,0,0,0-.978-.075A2.619,2.619,0,0,0,53.013-8.25V0H51.025V-11.623h1.934l.032,1.343a3.094,3.094,0,0,1,2.771-1.558,2.03,2.03,0,0,1,.881.15ZM58.867,1.343H57.159L63.69-15.641h1.7ZM79.353-4.963a5.754,5.754,0,0,1-1.832,3.83,6,6,0,0,1-4.1,1.348,5.511,5.511,0,0,1-4.442-1.987,8,8,0,0,1-1.67-5.317v-1.5a8.912,8.912,0,0,1,.779-3.835A5.817,5.817,0,0,1,70.3-14.969a6.147,6.147,0,0,1,3.309-.886,5.652,5.652,0,0,1,4,1.391,5.823,5.823,0,0,1,1.751,3.851H77.279a4.474,4.474,0,0,0-1.166-2.707,3.533,3.533,0,0,0-2.508-.838,3.691,3.691,0,0,0-3.1,1.461A6.7,6.7,0,0,0,69.384-8.54v1.515a6.89,6.89,0,0,0,1.063,4.05,3.437,3.437,0,0,0,2.976,1.5A3.969,3.969,0,0,0,76.06-2.25a4.322,4.322,0,0,0,1.219-2.712ZM89.031,0a4.175,4.175,0,0,1-.279-1.225A4.434,4.434,0,0,1,85.443.215a4.1,4.1,0,0,1-2.82-.972,3.145,3.145,0,0,1-1.1-2.465,3.286,3.286,0,0,1,1.38-2.82,6.508,6.508,0,0,1,3.883-1H88.72V-7.96A2.232,2.232,0,0,0,88.1-9.62a2.5,2.5,0,0,0-1.837-.618,2.9,2.9,0,0,0-1.783.537,1.583,1.583,0,0,0-.72,1.3h-2a2.743,2.743,0,0,1,.618-1.681,4.216,4.216,0,0,1,1.676-1.284,5.638,5.638,0,0,1,2.326-.473,4.6,4.6,0,0,1,3.147,1,3.623,3.623,0,0,1,1.182,2.766v5.35a6.54,6.54,0,0,0,.408,2.546V0Zm-3.3-1.515A3.493,3.493,0,0,0,87.506-2,2.924,2.924,0,0,0,88.72-3.255V-5.64H87.162Q83.51-5.64,83.51-3.5a1.809,1.809,0,0,0,.623,1.461A2.4,2.4,0,0,0,85.733-1.515ZM99.44-9.84a5.955,5.955,0,0,0-.978-.075A2.619,2.619,0,0,0,95.81-8.25V0H93.822V-11.623h1.934l.032,1.343a3.094,3.094,0,0,1,2.771-1.558,2.03,2.03,0,0,1,.881.15Zm1.343,3.932a6.809,6.809,0,0,1,1.268-4.3,4.008,4.008,0,0,1,3.319-1.627,4.031,4.031,0,0,1,3.233,1.4V-16.5h1.987V0h-1.826l-.1-1.246A4.047,4.047,0,0,1,105.349.215a3.97,3.97,0,0,1-3.292-1.654,6.886,6.886,0,0,1-1.273-4.318Zm1.987.226a5.155,5.155,0,0,0,.816,3.094,2.639,2.639,0,0,0,2.256,1.117,2.9,2.9,0,0,0,2.761-1.7V-8.508a2.921,2.921,0,0,0-2.739-1.644,2.652,2.652,0,0,0-2.277,1.128A5.676,5.676,0,0,0,102.771-5.683Z" transform="translate(5908 3816)"/>
      <path id="Path_712" data-name="Path 712" d="M6.424-6.972A9.7,9.7,0,0,1,2.562-8.846a3.582,3.582,0,0,1-1.208-2.745,3.783,3.783,0,0,1,1.477-3.056,5.87,5.87,0,0,1,3.84-1.208,6.408,6.408,0,0,1,2.874.623A4.725,4.725,0,0,1,11.5-13.514a4.395,4.395,0,0,1,.693,2.4H10.119a2.845,2.845,0,0,0-.9-2.229,3.678,3.678,0,0,0-2.546-.811,3.762,3.762,0,0,0-2.379.671,2.238,2.238,0,0,0-.854,1.864,2.014,2.014,0,0,0,.811,1.617A7.962,7.962,0,0,0,7.009-8.8,12.785,12.785,0,0,1,10.06-7.589a4.63,4.63,0,0,1,1.633,1.542,3.934,3.934,0,0,1,.532,2.073A3.654,3.654,0,0,1,10.742-.929,6.321,6.321,0,0,1,6.778.215,7.352,7.352,0,0,1,3.771-.4,5.062,5.062,0,0,1,1.617-2.095,4.129,4.129,0,0,1,.859-4.533H2.933A2.694,2.694,0,0,0,3.98-2.293a4.41,4.41,0,0,0,2.8.822,4.054,4.054,0,0,0,2.5-.666,2.163,2.163,0,0,0,.87-1.815,2.124,2.124,0,0,0-.806-1.778A9.289,9.289,0,0,0,6.424-6.972ZM16.715,0H14.728V-11.623h1.987ZM14.566-14.706a1.186,1.186,0,0,1,.3-.816,1.109,1.109,0,0,1,.875-.333,1.126,1.126,0,0,1,.881.333,1.174,1.174,0,0,1,.3.816,1.135,1.135,0,0,1-.3.806,1.147,1.147,0,0,1-.881.322,1.129,1.129,0,0,1-.875-.322A1.147,1.147,0,0,1,14.566-14.706Zm7.208,3.083.064,1.461a4.236,4.236,0,0,1,3.48-1.676q3.685,0,3.717,4.157V0H27.049V-7.691a2.676,2.676,0,0,0-.575-1.858,2.3,2.3,0,0,0-1.756-.6,2.868,2.868,0,0,0-1.7.516,3.5,3.5,0,0,0-1.139,1.354V0H19.895V-11.623Zm9.786,5.715a6.831,6.831,0,0,1,1.257-4.324,4.019,4.019,0,0,1,3.33-1.606,4,4,0,0,1,3.319,1.5l.1-1.289h1.815V-.279a4.728,4.728,0,0,1-1.337,3.556,4.935,4.935,0,0,1-3.593,1.3,5.978,5.978,0,0,1-2.46-.537,4.235,4.235,0,0,1-1.837-1.472l1.031-1.192a3.886,3.886,0,0,0,3.126,1.579,3.045,3.045,0,0,0,2.261-.816,3.12,3.12,0,0,0,.811-2.3v-1A4.085,4.085,0,0,1,36.126.215a3.97,3.97,0,0,1-3.3-1.644A7.182,7.182,0,0,1,31.561-5.908Zm2,.226a5.211,5.211,0,0,0,.806,3.088A2.618,2.618,0,0,0,36.62-1.472,2.911,2.911,0,0,0,39.381-3.18V-8.486a2.945,2.945,0,0,0-2.739-1.665,2.641,2.641,0,0,0-2.267,1.128A5.676,5.676,0,0,0,33.559-5.683ZM46.535,0H44.548V-16.5h1.987Zm8,.215a5.078,5.078,0,0,1-3.846-1.552A5.761,5.761,0,0,1,49.21-5.489v-.365a6.975,6.975,0,0,1,.661-3.088,5.154,5.154,0,0,1,1.848-2.127,4.645,4.645,0,0,1,2.573-.768,4.353,4.353,0,0,1,3.523,1.493,6.465,6.465,0,0,1,1.257,4.275v.827H51.2a4.132,4.132,0,0,0,1,2.777,3.157,3.157,0,0,0,2.444,1.058,3.461,3.461,0,0,0,1.783-.43,4.48,4.48,0,0,0,1.278-1.139l1.214.945A4.881,4.881,0,0,1,54.538.215Zm-.247-10.42a2.651,2.651,0,0,0-2.02.875,4.255,4.255,0,0,0-1.01,2.455h5.822v-.15a3.785,3.785,0,0,0-.816-2.347A2.5,2.5,0,0,0,54.291-10.205Zm14.9,4.082V0H67.128V-15.641H72.9a5.8,5.8,0,0,1,4.023,1.311,4.443,4.443,0,0,1,1.456,3.47,4.384,4.384,0,0,1-1.423,3.507,6.054,6.054,0,0,1-4.077,1.23Zm0-1.687H72.9a3.71,3.71,0,0,0,2.535-.779,2.845,2.845,0,0,0,.881-2.25,2.939,2.939,0,0,0-.881-2.234,3.475,3.475,0,0,0-2.417-.87H69.19ZM82.854,0H80.867V-11.623h1.987ZM80.706-14.706a1.186,1.186,0,0,1,.3-.816,1.109,1.109,0,0,1,.875-.333,1.126,1.126,0,0,1,.881.333,1.174,1.174,0,0,1,.3.816,1.135,1.135,0,0,1-.3.806,1.147,1.147,0,0,1-.881.322A1.129,1.129,0,0,1,81-13.9,1.147,1.147,0,0,1,80.706-14.706ZM90.857.215a5.078,5.078,0,0,1-3.846-1.552,5.761,5.761,0,0,1-1.482-4.152v-.365a6.975,6.975,0,0,1,.661-3.088,5.154,5.154,0,0,1,1.848-2.127,4.645,4.645,0,0,1,2.573-.768,4.353,4.353,0,0,1,3.523,1.493,6.465,6.465,0,0,1,1.257,4.275v.827H87.517a4.132,4.132,0,0,0,1,2.777,3.157,3.157,0,0,0,2.444,1.058,3.461,3.461,0,0,0,1.783-.43,4.481,4.481,0,0,0,1.278-1.139l1.214.945A4.881,4.881,0,0,1,90.857.215Zm-.247-10.42a2.651,2.651,0,0,0-2.02.875,4.255,4.255,0,0,0-1.01,2.455H93.4v-.15a3.785,3.785,0,0,0-.816-2.347A2.5,2.5,0,0,0,90.61-10.205Zm11.741,8.8a2.863,2.863,0,0,0,1.858-.645,2.268,2.268,0,0,0,.881-1.611h1.88a3.6,3.6,0,0,1-.687,1.9,4.528,4.528,0,0,1-1.692,1.439,4.882,4.882,0,0,1-2.24.537A4.788,4.788,0,0,1,98.576-1.37a6.311,6.311,0,0,1-1.4-4.334v-.333A7,7,0,0,1,97.8-9.056a4.745,4.745,0,0,1,1.789-2.052,5.081,5.081,0,0,1,2.755-.73,4.662,4.662,0,0,1,3.25,1.171,4.185,4.185,0,0,1,1.38,3.04h-1.88a2.739,2.739,0,0,0-.854-1.853,2.657,2.657,0,0,0-1.9-.725,2.781,2.781,0,0,0-2.347,1.09,5.121,5.121,0,0,0-.833,3.153v.376a5.019,5.019,0,0,0,.827,3.094A2.8,2.8,0,0,0,102.352-1.407ZM114.028.215a5.078,5.078,0,0,1-3.846-1.552A5.761,5.761,0,0,1,108.7-5.489v-.365a6.975,6.975,0,0,1,.661-3.088,5.154,5.154,0,0,1,1.848-2.127,4.645,4.645,0,0,1,2.573-.768,4.353,4.353,0,0,1,3.523,1.493,6.465,6.465,0,0,1,1.257,4.275v.827h-7.874a4.132,4.132,0,0,0,1,2.777,3.157,3.157,0,0,0,2.444,1.058,3.461,3.461,0,0,0,1.783-.43A4.481,4.481,0,0,0,117.2-2.976l1.214.945A4.881,4.881,0,0,1,114.028.215Zm-.247-10.42a2.651,2.651,0,0,0-2.02.875,4.255,4.255,0,0,0-1.01,2.455h5.822v-.15a3.785,3.785,0,0,0-.816-2.347A2.5,2.5,0,0,0,113.781-10.205Zm21.463,3.3h-6.563V0h-2.062V-15.641h9.689v1.7h-7.627v5.35h6.563ZM140.626,0h-1.987V-11.623h1.987Zm-2.148-14.706a1.186,1.186,0,0,1,.3-.816,1.109,1.109,0,0,1,.875-.333,1.126,1.126,0,0,1,.881.333,1.174,1.174,0,0,1,.3.816,1.135,1.135,0,0,1-.3.806,1.147,1.147,0,0,1-.881.322,1.129,1.129,0,0,1-.875-.322A1.147,1.147,0,0,1,138.478-14.706ZM149.424-9.84a5.955,5.955,0,0,0-.978-.075,2.619,2.619,0,0,0-2.653,1.665V0h-1.987V-11.623h1.934l.032,1.343a3.094,3.094,0,0,1,2.771-1.558,2.03,2.03,0,0,1,.881.15Zm8.594,6.757a1.463,1.463,0,0,0-.607-1.251,5.842,5.842,0,0,0-2.116-.768,10.005,10.005,0,0,1-2.4-.773,3.408,3.408,0,0,1-1.311-1.074,2.57,2.57,0,0,1-.424-1.482,3.015,3.015,0,0,1,1.208-2.417,4.72,4.72,0,0,1,3.088-.988,4.857,4.857,0,0,1,3.207,1.021,3.241,3.241,0,0,1,1.23,2.61h-2a1.794,1.794,0,0,0-.693-1.407,2.6,2.6,0,0,0-1.746-.591,2.717,2.717,0,0,0-1.7.473,1.488,1.488,0,0,0-.612,1.235,1.205,1.205,0,0,0,.569,1.085,7,7,0,0,0,2.057.7,10.719,10.719,0,0,1,2.412.795,3.518,3.518,0,0,1,1.37,1.112A2.734,2.734,0,0,1,160-3.223a2.975,2.975,0,0,1-1.246,2.5,5.227,5.227,0,0,1-3.233.94,5.853,5.853,0,0,1-2.471-.494,4.018,4.018,0,0,1-1.681-1.38,3.327,3.327,0,0,1-.607-1.917h1.987a2.058,2.058,0,0,0,.8,1.584,3.1,3.1,0,0,0,1.971.585,3.2,3.2,0,0,0,1.81-.457A1.4,1.4,0,0,0,158.018-3.083Zm7.272-11.354v2.814h2.17v1.536h-2.17v7.208a1.61,1.61,0,0,0,.29,1.047,1.221,1.221,0,0,0,.988.349,4.811,4.811,0,0,0,.945-.129V0a5.761,5.761,0,0,1-1.525.215,2.475,2.475,0,0,1-2.009-.806,3.461,3.461,0,0,1-.677-2.288v-7.208h-2.116v-1.536H163.3v-2.814Zm21.753,9.475a5.754,5.754,0,0,1-1.832,3.83,6,6,0,0,1-4.1,1.348,5.511,5.511,0,0,1-4.442-1.987A8,8,0,0,1,175-7.09v-1.5a8.911,8.911,0,0,1,.779-3.835,5.817,5.817,0,0,1,2.208-2.541,6.147,6.147,0,0,1,3.309-.886,5.652,5.652,0,0,1,4,1.391,5.823,5.823,0,0,1,1.751,3.851H184.97A4.474,4.474,0,0,0,183.8-13.32a3.533,3.533,0,0,0-2.508-.838,3.691,3.691,0,0,0-3.1,1.461,6.7,6.7,0,0,0-1.123,4.157v1.515a6.89,6.89,0,0,0,1.063,4.05,3.437,3.437,0,0,0,2.976,1.5,3.969,3.969,0,0,0,2.637-.779,4.322,4.322,0,0,0,1.219-2.712ZM191.705,0h-1.987V-16.5h1.987Zm10.355,0a4.175,4.175,0,0,1-.279-1.225A4.434,4.434,0,0,1,198.473.215a4.1,4.1,0,0,1-2.82-.972,3.145,3.145,0,0,1-1.1-2.465,3.286,3.286,0,0,1,1.38-2.82,6.508,6.508,0,0,1,3.883-1h1.934V-7.96a2.232,2.232,0,0,0-.623-1.66,2.5,2.5,0,0,0-1.837-.618,2.9,2.9,0,0,0-1.783.537,1.583,1.583,0,0,0-.72,1.3h-2a2.743,2.743,0,0,1,.618-1.681,4.216,4.216,0,0,1,1.676-1.284,5.638,5.638,0,0,1,2.326-.473,4.6,4.6,0,0,1,3.147,1,3.623,3.623,0,0,1,1.182,2.766v5.35a6.54,6.54,0,0,0,.408,2.546V0Zm-3.3-1.515A3.493,3.493,0,0,0,200.535-2a2.924,2.924,0,0,0,1.214-1.257V-5.64h-1.558q-3.652,0-3.652,2.138a1.809,1.809,0,0,0,.623,1.461A2.4,2.4,0,0,0,198.763-1.515Zm14.856-1.568a1.463,1.463,0,0,0-.607-1.251A5.842,5.842,0,0,0,210.9-5.1a10.005,10.005,0,0,1-2.4-.773A3.408,3.408,0,0,1,207.19-6.95a2.57,2.57,0,0,1-.424-1.482,3.015,3.015,0,0,1,1.208-2.417,4.72,4.72,0,0,1,3.088-.988,4.857,4.857,0,0,1,3.207,1.021,3.241,3.241,0,0,1,1.23,2.61h-2a1.794,1.794,0,0,0-.693-1.407,2.6,2.6,0,0,0-1.746-.591,2.717,2.717,0,0,0-1.7.473,1.488,1.488,0,0,0-.612,1.235,1.205,1.205,0,0,0,.569,1.085,7,7,0,0,0,2.057.7,10.719,10.719,0,0,1,2.412.795,3.518,3.518,0,0,1,1.37,1.112,2.734,2.734,0,0,1,.446,1.584,2.975,2.975,0,0,1-1.246,2.5,5.227,5.227,0,0,1-3.233.94,5.853,5.853,0,0,1-2.471-.494,4.018,4.018,0,0,1-1.681-1.38,3.327,3.327,0,0,1-.607-1.917h1.987a2.058,2.058,0,0,0,.8,1.584,3.1,3.1,0,0,0,1.971.585,3.2,3.2,0,0,0,1.81-.457A1.4,1.4,0,0,0,213.619-3.083Zm11.344,0a1.463,1.463,0,0,0-.607-1.251A5.842,5.842,0,0,0,222.24-5.1a10.005,10.005,0,0,1-2.4-.773,3.408,3.408,0,0,1-1.311-1.074,2.57,2.57,0,0,1-.424-1.482,3.015,3.015,0,0,1,1.208-2.417,4.72,4.72,0,0,1,3.088-.988,4.857,4.857,0,0,1,3.207,1.021,3.241,3.241,0,0,1,1.23,2.61h-2a1.794,1.794,0,0,0-.693-1.407,2.6,2.6,0,0,0-1.746-.591,2.717,2.717,0,0,0-1.7.473A1.488,1.488,0,0,0,220.1-8.5a1.205,1.205,0,0,0,.569,1.085,7,7,0,0,0,2.057.7,10.719,10.719,0,0,1,2.412.795,3.518,3.518,0,0,1,1.37,1.112,2.734,2.734,0,0,1,.446,1.584,2.975,2.975,0,0,1-1.246,2.5,5.227,5.227,0,0,1-3.233.94A5.853,5.853,0,0,1,220-.279a4.018,4.018,0,0,1-1.681-1.38,3.327,3.327,0,0,1-.607-1.917H219.7a2.058,2.058,0,0,0,.8,1.584,3.1,3.1,0,0,0,1.971.585,3.2,3.2,0,0,0,1.81-.457A1.4,1.4,0,0,0,224.963-3.083Z" transform="translate(5542 3996)"/>
      <path id="Path_713" data-name="Path 713" d="M13.847-7.315A9.675,9.675,0,0,1,13.073-3.3,5.858,5.858,0,0,1,10.882-.687a6.029,6.029,0,0,1-3.309.9A5.978,5.978,0,0,1,4.3-.693,6,6,0,0,1,2.079-3.282a9.283,9.283,0,0,1-.811-3.894V-8.3a9.56,9.56,0,0,1,.784-3.985A5.977,5.977,0,0,1,4.27-14.937a5.952,5.952,0,0,1,3.282-.918,6.063,6.063,0,0,1,3.314.908,5.848,5.848,0,0,1,2.208,2.632A9.722,9.722,0,0,1,13.847-8.3Zm-2.052-1.01a7.013,7.013,0,0,0-1.117-4.27,3.685,3.685,0,0,0-3.126-1.488A3.645,3.645,0,0,0,4.474-12.6a6.869,6.869,0,0,0-1.155,4.13v1.149A7.023,7.023,0,0,0,4.453-3.078,3.661,3.661,0,0,0,7.573-1.536a3.646,3.646,0,0,0,3.094-1.456,6.983,6.983,0,0,0,1.128-4.173ZM20.464-2.7l2.879-8.927h2.03L21.205,0H19.69L15.479-11.623h2.03ZM32.108.215a5.078,5.078,0,0,1-3.846-1.552A5.761,5.761,0,0,1,26.78-5.489v-.365a6.975,6.975,0,0,1,.661-3.088,5.154,5.154,0,0,1,1.848-2.127,4.645,4.645,0,0,1,2.573-.768,4.353,4.353,0,0,1,3.523,1.493,6.465,6.465,0,0,1,1.257,4.275v.827H28.768a4.132,4.132,0,0,0,1,2.777,3.157,3.157,0,0,0,2.444,1.058A3.461,3.461,0,0,0,34-1.837a4.48,4.48,0,0,0,1.278-1.139l1.214.945A4.881,4.881,0,0,1,32.108.215Zm-.247-10.42a2.651,2.651,0,0,0-2.02.875,4.255,4.255,0,0,0-1.01,2.455h5.822v-.15a3.785,3.785,0,0,0-.816-2.347A2.5,2.5,0,0,0,31.861-10.205Zm12.7.365a5.955,5.955,0,0,0-.978-.075A2.619,2.619,0,0,0,40.928-8.25V0H38.94V-11.623h1.934l.032,1.343a3.094,3.094,0,0,1,2.771-1.558,2.03,2.03,0,0,1,.881.15Zm3.706-1.783.064,1.461a4.236,4.236,0,0,1,3.48-1.676q3.685,0,3.717,4.157V0H53.539V-7.691a2.676,2.676,0,0,0-.575-1.858,2.3,2.3,0,0,0-1.756-.6,2.868,2.868,0,0,0-1.7.516,3.5,3.5,0,0,0-1.139,1.354V0H46.385V-11.623ZM60.683,0H58.7V-11.623h1.987ZM58.534-14.706a1.186,1.186,0,0,1,.3-.816,1.109,1.109,0,0,1,.875-.333,1.126,1.126,0,0,1,.881.333,1.174,1.174,0,0,1,.3.816,1.135,1.135,0,0,1-.3.806,1.147,1.147,0,0,1-.881.322,1.129,1.129,0,0,1-.875-.322A1.147,1.147,0,0,1,58.534-14.706Zm4.855,8.8a6.831,6.831,0,0,1,1.257-4.324,4.019,4.019,0,0,1,3.33-1.606,4,4,0,0,1,3.319,1.5l.1-1.289h1.815V-.279a4.728,4.728,0,0,1-1.337,3.556,4.935,4.935,0,0,1-3.593,1.3,5.978,5.978,0,0,1-2.46-.537A4.235,4.235,0,0,1,63.98,2.567l1.031-1.192a3.886,3.886,0,0,0,3.126,1.579A3.045,3.045,0,0,0,70.4,2.138a3.12,3.12,0,0,0,.811-2.3v-1A4.085,4.085,0,0,1,67.955.215a3.97,3.97,0,0,1-3.3-1.644A7.182,7.182,0,0,1,63.39-5.908Zm2,.226a5.211,5.211,0,0,0,.806,3.088,2.618,2.618,0,0,0,2.256,1.123A2.911,2.911,0,0,0,71.21-3.18V-8.486a2.945,2.945,0,0,0-2.739-1.665A2.641,2.641,0,0,0,66.2-9.023,5.676,5.676,0,0,0,65.388-5.683Zm12.8-4.533a4.225,4.225,0,0,1,3.438-1.622q3.685,0,3.717,4.157V0H83.359V-7.691a2.676,2.676,0,0,0-.575-1.858,2.3,2.3,0,0,0-1.756-.6,2.868,2.868,0,0,0-1.7.516,3.5,3.5,0,0,0-1.139,1.354V0H76.205V-16.5h1.987Zm12.826-4.222v2.814h2.17v1.536h-2.17v7.208a1.61,1.61,0,0,0,.29,1.047,1.221,1.221,0,0,0,.988.349,4.811,4.811,0,0,0,.945-.129V0a5.761,5.761,0,0,1-1.525.215,2.475,2.475,0,0,1-2.009-.806,3.461,3.461,0,0,1-.677-2.288v-7.208H86.915v-1.536h2.116v-2.814Z" transform="translate(5908 3996)"/>
      <path id="Path_695" data-name="Path 695" d="M1.815,0V-15.641H6.23a7.107,7.107,0,0,1,3.609.9,6.1,6.1,0,0,1,2.422,2.567,8.357,8.357,0,0,1,.865,3.824v1a8.386,8.386,0,0,1-.854,3.878A6.007,6.007,0,0,1,9.834-.913,7.56,7.56,0,0,1,6.145,0ZM3.878-13.943V-1.687h2.17A4.723,4.723,0,0,0,9.759-3.169a6.121,6.121,0,0,0,1.327-4.222V-8.3a6.218,6.218,0,0,0-1.251-4.141,4.455,4.455,0,0,0-3.55-1.5ZM20.754.215a5.078,5.078,0,0,1-3.846-1.552,5.761,5.761,0,0,1-1.482-4.152v-.365a6.975,6.975,0,0,1,.661-3.088,5.154,5.154,0,0,1,1.848-2.127,4.645,4.645,0,0,1,2.573-.768,4.353,4.353,0,0,1,3.523,1.493,6.465,6.465,0,0,1,1.257,4.275v.827H17.413a4.132,4.132,0,0,0,1,2.777,3.157,3.157,0,0,0,2.444,1.058,3.461,3.461,0,0,0,1.783-.43,4.48,4.48,0,0,0,1.278-1.139l1.214.945A4.881,4.881,0,0,1,20.754.215Zm-.247-10.42a2.651,2.651,0,0,0-2.02.875,4.255,4.255,0,0,0-1.01,2.455H23.3v-.15a3.785,3.785,0,0,0-.816-2.347A2.5,2.5,0,0,0,20.507-10.205ZM34.354-3.083a1.463,1.463,0,0,0-.607-1.251A5.842,5.842,0,0,0,31.63-5.1a10.005,10.005,0,0,1-2.4-.773A3.408,3.408,0,0,1,27.924-6.95,2.57,2.57,0,0,1,27.5-8.433a3.015,3.015,0,0,1,1.208-2.417,4.72,4.72,0,0,1,3.088-.988A4.857,4.857,0,0,1,35-10.817a3.241,3.241,0,0,1,1.23,2.61h-2a1.794,1.794,0,0,0-.693-1.407,2.6,2.6,0,0,0-1.746-.591,2.717,2.717,0,0,0-1.7.473A1.488,1.488,0,0,0,29.487-8.5a1.205,1.205,0,0,0,.569,1.085,7,7,0,0,0,2.057.7,10.719,10.719,0,0,1,2.412.795A3.518,3.518,0,0,1,35.9-4.807a2.734,2.734,0,0,1,.446,1.584,2.975,2.975,0,0,1-1.246,2.5,5.227,5.227,0,0,1-3.233.94,5.853,5.853,0,0,1-2.471-.494,4.018,4.018,0,0,1-1.681-1.38A3.327,3.327,0,0,1,27.1-3.577H29.09a2.058,2.058,0,0,0,.8,1.584,3.1,3.1,0,0,0,1.971.585,3.2,3.2,0,0,0,1.81-.457A1.4,1.4,0,0,0,34.354-3.083Zm7.272-11.354v2.814H43.8v1.536h-2.17v7.208a1.61,1.61,0,0,0,.29,1.047,1.221,1.221,0,0,0,.988.349,4.811,4.811,0,0,0,.945-.129V0a5.761,5.761,0,0,1-1.525.215,2.475,2.475,0,0,1-2.009-.806,3.461,3.461,0,0,1-.677-2.288v-7.208H37.522v-1.536h2.116v-2.814ZM48.275,0H46.288V-11.623h1.987ZM46.127-14.706a1.186,1.186,0,0,1,.3-.816,1.109,1.109,0,0,1,.875-.333,1.126,1.126,0,0,1,.881.333,1.174,1.174,0,0,1,.3.816,1.135,1.135,0,0,1-.3.806,1.147,1.147,0,0,1-.881.322,1.129,1.129,0,0,1-.875-.322A1.147,1.147,0,0,1,46.127-14.706Zm7.208,3.083.064,1.461a4.236,4.236,0,0,1,3.48-1.676q3.685,0,3.717,4.157V0H58.609V-7.691a2.676,2.676,0,0,0-.575-1.858,2.3,2.3,0,0,0-1.756-.6,2.868,2.868,0,0,0-1.7.516,3.5,3.5,0,0,0-1.139,1.354V0H51.455V-11.623ZM70.77,0a4.175,4.175,0,0,1-.279-1.225A4.434,4.434,0,0,1,67.182.215a4.1,4.1,0,0,1-2.82-.972,3.145,3.145,0,0,1-1.1-2.465,3.286,3.286,0,0,1,1.38-2.82,6.508,6.508,0,0,1,3.883-1h1.934V-7.96a2.232,2.232,0,0,0-.623-1.66A2.5,2.5,0,0,0,68-10.237a2.9,2.9,0,0,0-1.783.537,1.583,1.583,0,0,0-.72,1.3h-2a2.743,2.743,0,0,1,.618-1.681,4.216,4.216,0,0,1,1.676-1.284,5.638,5.638,0,0,1,2.326-.473,4.6,4.6,0,0,1,3.147,1,3.623,3.623,0,0,1,1.182,2.766v5.35a6.54,6.54,0,0,0,.408,2.546V0Zm-3.3-1.515A3.493,3.493,0,0,0,69.244-2a2.924,2.924,0,0,0,1.214-1.257V-5.64H68.9q-3.652,0-3.652,2.138a1.809,1.809,0,0,0,.623,1.461A2.4,2.4,0,0,0,67.472-1.515ZM78.257-14.437v2.814h2.17v1.536h-2.17v7.208a1.61,1.61,0,0,0,.29,1.047,1.221,1.221,0,0,0,.988.349,4.811,4.811,0,0,0,.945-.129V0a5.761,5.761,0,0,1-1.525.215,2.475,2.475,0,0,1-2.009-.806,3.461,3.461,0,0,1-.677-2.288v-7.208H74.153v-1.536H76.27v-2.814ZM84.906,0H82.919V-11.623h1.987ZM82.758-14.706a1.186,1.186,0,0,1,.3-.816,1.109,1.109,0,0,1,.875-.333,1.126,1.126,0,0,1,.881.333,1.174,1.174,0,0,1,.3.816,1.135,1.135,0,0,1-.3.806,1.147,1.147,0,0,1-.881.322,1.129,1.129,0,0,1-.875-.322A1.147,1.147,0,0,1,82.758-14.706Zm7.208,3.083.064,1.461a4.236,4.236,0,0,1,3.48-1.676q3.685,0,3.717,4.157V0H95.24V-7.691a2.676,2.676,0,0,0-.575-1.858,2.3,2.3,0,0,0-1.756-.6,2.868,2.868,0,0,0-1.7.516,3.5,3.5,0,0,0-1.139,1.354V0H88.086V-11.623Zm9.786,5.715a6.831,6.831,0,0,1,1.257-4.324,4.019,4.019,0,0,1,3.33-1.606,4,4,0,0,1,3.319,1.5l.1-1.289h1.815V-.279a4.728,4.728,0,0,1-1.337,3.556,4.935,4.935,0,0,1-3.593,1.3,5.978,5.978,0,0,1-2.46-.537,4.235,4.235,0,0,1-1.837-1.472l1.031-1.192A3.886,3.886,0,0,0,104.5,2.954a3.045,3.045,0,0,0,2.261-.816,3.12,3.12,0,0,0,.811-2.3v-1A4.085,4.085,0,0,1,104.317.215a3.97,3.97,0,0,1-3.3-1.644A7.182,7.182,0,0,1,99.752-5.908Zm2,.226a5.211,5.211,0,0,0,.806,3.088,2.618,2.618,0,0,0,2.256,1.123,2.911,2.911,0,0,0,2.761-1.708V-8.486a2.945,2.945,0,0,0-2.739-1.665,2.641,2.641,0,0,0-2.267,1.128A5.676,5.676,0,0,0,101.75-5.683Z" transform="translate(5542 3853)"/>
      <path id="Path_709" data-name="Path 709" d="M10.441-6.907H3.878V0H1.815V-15.641H11.5v1.7H3.878v5.35h6.563ZM15.823,0H13.836V-16.5h1.987ZM26.179,0A4.175,4.175,0,0,1,25.9-1.225,4.434,4.434,0,0,1,22.591.215a4.1,4.1,0,0,1-2.82-.972,3.145,3.145,0,0,1-1.1-2.465,3.286,3.286,0,0,1,1.38-2.82,6.508,6.508,0,0,1,3.883-1h1.934V-7.96a2.232,2.232,0,0,0-.623-1.66,2.5,2.5,0,0,0-1.837-.618,2.9,2.9,0,0,0-1.783.537,1.583,1.583,0,0,0-.72,1.3h-2a2.743,2.743,0,0,1,.618-1.681A4.216,4.216,0,0,1,21.2-11.365a5.638,5.638,0,0,1,2.326-.473,4.6,4.6,0,0,1,3.147,1,3.623,3.623,0,0,1,1.182,2.766v5.35a6.54,6.54,0,0,0,.408,2.546V0Zm-3.3-1.515A3.493,3.493,0,0,0,24.653-2a2.924,2.924,0,0,0,1.214-1.257V-5.64H24.31q-3.652,0-3.652,2.138a1.809,1.809,0,0,0,.623,1.461A2.4,2.4,0,0,0,22.881-1.515ZM33.666-14.437v2.814h2.17v1.536h-2.17v7.208a1.61,1.61,0,0,0,.29,1.047,1.221,1.221,0,0,0,.988.349,4.811,4.811,0,0,0,.945-.129V0a5.761,5.761,0,0,1-1.525.215,2.475,2.475,0,0,1-2.009-.806,3.461,3.461,0,0,1-.677-2.288v-7.208H29.563v-1.536h2.116v-2.814Z" transform="translate(5908 3853)"/>
      <path id="Path_716" data-name="Path 716" d="M12.826-15.641V-5.006a4.989,4.989,0,0,1-1.391,3.62A5.606,5.606,0,0,1,7.691.193L7.144.215A5.854,5.854,0,0,1,3.051-1.171,4.956,4.956,0,0,1,1.5-4.984V-15.641H3.545V-5.049a3.577,3.577,0,0,0,.935,2.637,3.592,3.592,0,0,0,2.664.94,3.616,3.616,0,0,0,2.68-.935,3.571,3.571,0,0,0,.929-2.632v-10.6Zm7.863,8.669a9.7,9.7,0,0,1-3.862-1.875,3.582,3.582,0,0,1-1.208-2.745A3.783,3.783,0,0,1,17.1-14.647a5.87,5.87,0,0,1,3.84-1.208,6.408,6.408,0,0,1,2.874.623,4.725,4.725,0,0,1,1.955,1.719,4.395,4.395,0,0,1,.693,2.4H24.385a2.845,2.845,0,0,0-.9-2.229,3.678,3.678,0,0,0-2.546-.811,3.762,3.762,0,0,0-2.379.671,2.238,2.238,0,0,0-.854,1.864,2.014,2.014,0,0,0,.811,1.617A7.962,7.962,0,0,0,21.275-8.8a12.785,12.785,0,0,1,3.051,1.208,4.63,4.63,0,0,1,1.633,1.542,3.934,3.934,0,0,1,.532,2.073A3.654,3.654,0,0,1,25.008-.929,6.321,6.321,0,0,1,21.044.215,7.352,7.352,0,0,1,18.036-.4a5.062,5.062,0,0,1-2.154-1.692,4.129,4.129,0,0,1-.757-2.438H17.2a2.694,2.694,0,0,0,1.047,2.24,4.41,4.41,0,0,0,2.8.822,4.054,4.054,0,0,0,2.5-.666,2.163,2.163,0,0,0,.87-1.815,2.124,2.124,0,0,0-.806-1.778A9.289,9.289,0,0,0,20.689-6.972ZM31.2-6.123V0H29.133V-15.641H34.9a5.8,5.8,0,0,1,4.023,1.311,4.443,4.443,0,0,1,1.456,3.47,4.384,4.384,0,0,1-1.423,3.507,6.055,6.055,0,0,1-4.077,1.23Zm0-1.687H34.9a3.71,3.71,0,0,0,2.535-.779,2.845,2.845,0,0,0,.881-2.25,2.939,2.939,0,0,0-.881-2.234,3.475,3.475,0,0,0-2.417-.87H31.2Zm16.425.838a9.7,9.7,0,0,1-3.862-1.875,3.582,3.582,0,0,1-1.208-2.745,3.783,3.783,0,0,1,1.477-3.056,5.87,5.87,0,0,1,3.84-1.208,6.408,6.408,0,0,1,2.874.623A4.725,4.725,0,0,1,52.7-13.514a4.395,4.395,0,0,1,.693,2.4H51.315a2.845,2.845,0,0,0-.9-2.229,3.678,3.678,0,0,0-2.546-.811,3.762,3.762,0,0,0-2.379.671,2.238,2.238,0,0,0-.854,1.864,2.014,2.014,0,0,0,.811,1.617A7.962,7.962,0,0,0,48.206-8.8a12.785,12.785,0,0,1,3.051,1.208,4.63,4.63,0,0,1,1.633,1.542,3.934,3.934,0,0,1,.532,2.073A3.654,3.654,0,0,1,51.938-.929,6.321,6.321,0,0,1,47.975.215,7.352,7.352,0,0,1,44.967-.4a5.062,5.062,0,0,1-2.154-1.692,4.129,4.129,0,0,1-.757-2.438h2.073a2.694,2.694,0,0,0,1.047,2.24,4.41,4.41,0,0,0,2.8.822,4.054,4.054,0,0,0,2.5-.666,2.163,2.163,0,0,0,.87-1.815,2.124,2.124,0,0,0-.806-1.778A9.289,9.289,0,0,0,47.62-6.972Zm16.554-8.669L69.287-2.879,74.4-15.641h2.675V0H75.013V-6.091l.193-6.574L70.071,0H68.492L63.368-12.633l.2,6.542V0H61.51V-15.641ZM87.581,0A4.175,4.175,0,0,1,87.3-1.225,4.434,4.434,0,0,1,83.993.215a4.1,4.1,0,0,1-2.82-.972,3.145,3.145,0,0,1-1.1-2.465,3.286,3.286,0,0,1,1.38-2.82,6.508,6.508,0,0,1,3.883-1H87.27V-7.96a2.232,2.232,0,0,0-.623-1.66,2.5,2.5,0,0,0-1.837-.618,2.9,2.9,0,0,0-1.783.537,1.583,1.583,0,0,0-.72,1.3h-2a2.743,2.743,0,0,1,.618-1.681A4.216,4.216,0,0,1,82.6-11.365a5.638,5.638,0,0,1,2.326-.473,4.6,4.6,0,0,1,3.147,1,3.623,3.623,0,0,1,1.182,2.766v5.35a6.54,6.54,0,0,0,.408,2.546V0Zm-3.3-1.515A3.493,3.493,0,0,0,86.056-2,2.924,2.924,0,0,0,87.27-3.255V-5.64H85.712Q82.06-5.64,82.06-3.5a1.809,1.809,0,0,0,.623,1.461A2.4,2.4,0,0,0,84.283-1.515ZM97.99-9.84a5.955,5.955,0,0,0-.978-.075A2.619,2.619,0,0,0,94.359-8.25V0H92.372V-11.623h1.934l.032,1.343a3.094,3.094,0,0,1,2.771-1.558,2.03,2.03,0,0,1,.881.15Zm5.07,4.458-1.246,1.3V0H99.827V-16.5h1.987v9.979L102.878-7.8l3.62-3.824h2.417l-4.522,4.855L109.441,0H107.11ZM115.79.215a5.078,5.078,0,0,1-3.846-1.552,5.761,5.761,0,0,1-1.482-4.152v-.365a6.975,6.975,0,0,1,.661-3.088,5.154,5.154,0,0,1,1.848-2.127,4.645,4.645,0,0,1,2.573-.768,4.353,4.353,0,0,1,3.523,1.493,6.465,6.465,0,0,1,1.257,4.275v.827h-7.874a4.132,4.132,0,0,0,1,2.777A3.157,3.157,0,0,0,115.9-1.407a3.461,3.461,0,0,0,1.783-.43,4.481,4.481,0,0,0,1.278-1.139l1.214.945A4.881,4.881,0,0,1,115.79.215Zm-.247-10.42a2.651,2.651,0,0,0-2.02.875,4.255,4.255,0,0,0-1.01,2.455h5.822v-.15a3.785,3.785,0,0,0-.816-2.347A2.5,2.5,0,0,0,115.543-10.205Zm9.775-4.232v2.814h2.17v1.536h-2.17v7.208a1.61,1.61,0,0,0,.29,1.047,1.221,1.221,0,0,0,.988.349,4.811,4.811,0,0,0,.945-.129V0a5.761,5.761,0,0,1-1.525.215,2.475,2.475,0,0,1-2.009-.806,3.461,3.461,0,0,1-.677-2.288v-7.208h-2.116v-1.536h2.116v-2.814ZM131.968,0H129.98V-11.623h1.987Zm-2.148-14.706a1.186,1.186,0,0,1,.3-.816,1.109,1.109,0,0,1,.875-.333,1.126,1.126,0,0,1,.881.333,1.174,1.174,0,0,1,.3.816,1.135,1.135,0,0,1-.3.806,1.147,1.147,0,0,1-.881.322,1.129,1.129,0,0,1-.875-.322A1.147,1.147,0,0,1,129.819-14.706Zm7.208,3.083.064,1.461a4.236,4.236,0,0,1,3.48-1.676q3.685,0,3.717,4.157V0H142.3V-7.691a2.676,2.676,0,0,0-.575-1.858,2.3,2.3,0,0,0-1.756-.6,2.868,2.868,0,0,0-1.7.516,3.5,3.5,0,0,0-1.139,1.354V0h-1.987V-11.623Zm9.786,5.715a6.831,6.831,0,0,1,1.257-4.324,4.019,4.019,0,0,1,3.33-1.606,4,4,0,0,1,3.319,1.5l.1-1.289h1.815V-.279a4.728,4.728,0,0,1-1.337,3.556,4.935,4.935,0,0,1-3.593,1.3,5.978,5.978,0,0,1-2.46-.537A4.235,4.235,0,0,1,147.4,2.567l1.031-1.192a3.886,3.886,0,0,0,3.126,1.579,3.045,3.045,0,0,0,2.261-.816,3.12,3.12,0,0,0,.811-2.3v-1A4.085,4.085,0,0,1,151.379.215a3.97,3.97,0,0,1-3.3-1.644A7.182,7.182,0,0,1,146.813-5.908Zm2,.226a5.211,5.211,0,0,0,.806,3.088,2.618,2.618,0,0,0,2.256,1.123,2.911,2.911,0,0,0,2.761-1.708V-8.486a2.945,2.945,0,0,0-2.739-1.665,2.641,2.641,0,0,0-2.267,1.128A5.676,5.676,0,0,0,148.812-5.683Zm19.239-9.958,5.113,12.762,5.113-12.762h2.675V0H178.89V-6.091l.193-6.574L173.948,0h-1.579l-5.124-12.633.2,6.542V0h-2.062V-15.641ZM191.458,0a4.175,4.175,0,0,1-.279-1.225A4.434,4.434,0,0,1,187.87.215a4.1,4.1,0,0,1-2.82-.972,3.145,3.145,0,0,1-1.1-2.465,3.286,3.286,0,0,1,1.38-2.82,6.508,6.508,0,0,1,3.883-1h1.934V-7.96a2.232,2.232,0,0,0-.623-1.66,2.5,2.5,0,0,0-1.837-.618A2.9,2.9,0,0,0,186.9-9.7a1.583,1.583,0,0,0-.72,1.3h-2a2.743,2.743,0,0,1,.618-1.681,4.216,4.216,0,0,1,1.676-1.284,5.638,5.638,0,0,1,2.326-.473,4.6,4.6,0,0,1,3.147,1,3.623,3.623,0,0,1,1.182,2.766v5.35a6.54,6.54,0,0,0,.408,2.546V0Zm-3.3-1.515A3.493,3.493,0,0,0,189.933-2a2.924,2.924,0,0,0,1.214-1.257V-5.64h-1.558q-3.652,0-3.652,2.138a1.809,1.809,0,0,0,.623,1.461A2.4,2.4,0,0,0,188.16-1.515ZM198.408,0h-1.987V-11.623h1.987ZM196.26-14.706a1.186,1.186,0,0,1,.3-.816,1.109,1.109,0,0,1,.875-.333,1.126,1.126,0,0,1,.881.333,1.174,1.174,0,0,1,.3.816,1.135,1.135,0,0,1-.3.806,1.147,1.147,0,0,1-.881.322,1.129,1.129,0,0,1-.875-.322A1.147,1.147,0,0,1,196.26-14.706ZM203.747,0H201.76V-16.5h1.987Z" transform="translate(5542 4033)"/>
      <path id="Path_717" data-name="Path 717" d="M12.622-13.943H7.595V0H5.543V-13.943H.526v-1.7h12.1ZM24.31-2.739l2.234-8.884h1.987L25.147,0H23.536L20.711-8.809,17.961,0H16.35L12.977-11.623h1.977l2.288,8.7,2.707-8.7h1.6Zm5.715-3.18A6.865,6.865,0,0,1,30.7-8.991,5.008,5.008,0,0,1,32.565-11.1a5.088,5.088,0,0,1,2.734-.741,4.9,4.9,0,0,1,3.84,1.644,6.323,6.323,0,0,1,1.466,4.372v.14a6.925,6.925,0,0,1-.65,3.045A4.935,4.935,0,0,1,38.1-.537,5.146,5.146,0,0,1,35.32.215a4.889,4.889,0,0,1-3.83-1.644,6.291,6.291,0,0,1-1.466-4.351Zm2,.236a4.972,4.972,0,0,0,.9,3.1,2.871,2.871,0,0,0,2.4,1.171,2.853,2.853,0,0,0,2.406-1.187,5.437,5.437,0,0,0,.892-3.325,4.964,4.964,0,0,0-.908-3.1A2.886,2.886,0,0,0,35.3-10.205a2.854,2.854,0,0,0-2.374,1.171A5.4,5.4,0,0,0,32.022-5.683Zm15.211-.15H41.991V-7.455h5.242ZM49.479,0V-15.641h4.415a7.107,7.107,0,0,1,3.609.9,6.1,6.1,0,0,1,2.422,2.567,8.357,8.357,0,0,1,.865,3.824v1a8.386,8.386,0,0,1-.854,3.878A6.007,6.007,0,0,1,57.5-.913,7.56,7.56,0,0,1,53.808,0Zm2.063-13.943V-1.687h2.17a4.723,4.723,0,0,0,3.711-1.482,6.121,6.121,0,0,0,1.327-4.222V-8.3A6.218,6.218,0,0,0,57.5-12.445a4.455,4.455,0,0,0-3.55-1.5ZM70.77,0a4.175,4.175,0,0,1-.279-1.225A4.434,4.434,0,0,1,67.182.215a4.1,4.1,0,0,1-2.82-.972,3.145,3.145,0,0,1-1.1-2.465,3.286,3.286,0,0,1,1.38-2.82,6.508,6.508,0,0,1,3.883-1h1.934V-7.96a2.232,2.232,0,0,0-.623-1.66A2.5,2.5,0,0,0,68-10.237a2.9,2.9,0,0,0-1.783.537,1.583,1.583,0,0,0-.72,1.3h-2a2.743,2.743,0,0,1,.618-1.681,4.216,4.216,0,0,1,1.676-1.284,5.638,5.638,0,0,1,2.326-.473,4.6,4.6,0,0,1,3.147,1,3.623,3.623,0,0,1,1.182,2.766v5.35a6.54,6.54,0,0,0,.408,2.546V0Zm-3.3-1.515A3.493,3.493,0,0,0,69.244-2a2.924,2.924,0,0,0,1.214-1.257V-5.64H68.9q-3.652,0-3.652,2.138a1.809,1.809,0,0,0,.623,1.461A2.4,2.4,0,0,0,67.472-1.515Zm11.892-1.4,2.707-8.712H84.2L79.524,1.794q-1.085,2.9-3.448,2.9L75.7,4.662l-.741-.14V2.911l.537.043a2.644,2.644,0,0,0,1.574-.408A2.954,2.954,0,0,0,78,1.053l.44-1.182L74.293-11.623h2.17Z" transform="translate(5908 4033)"/>
      <path id="Path_720" data-name="Path 720" d="M3.878-6.123V0H1.815V-15.641H7.584a5.8,5.8,0,0,1,4.023,1.311,4.443,4.443,0,0,1,1.456,3.47,4.384,4.384,0,0,1-1.423,3.507,6.055,6.055,0,0,1-4.077,1.23Zm0-1.687H7.584a3.71,3.71,0,0,0,2.535-.779A2.845,2.845,0,0,0,11-10.839a2.939,2.939,0,0,0-.881-2.234,3.475,3.475,0,0,0-2.417-.87H3.878ZM20.206.215A5.078,5.078,0,0,1,16.36-1.337a5.761,5.761,0,0,1-1.482-4.152v-.365a6.975,6.975,0,0,1,.661-3.088,5.154,5.154,0,0,1,1.848-2.127,4.645,4.645,0,0,1,2.573-.768,4.353,4.353,0,0,1,3.523,1.493,6.465,6.465,0,0,1,1.257,4.275v.827H16.865a4.132,4.132,0,0,0,1,2.777,3.157,3.157,0,0,0,2.444,1.058,3.461,3.461,0,0,0,1.783-.43,4.48,4.48,0,0,0,1.278-1.139l1.214.945A4.881,4.881,0,0,1,20.206.215Zm-.247-10.42a2.651,2.651,0,0,0-2.02.875,4.255,4.255,0,0,0-1.01,2.455h5.822v-.15a3.785,3.785,0,0,0-.816-2.347A2.5,2.5,0,0,0,19.959-10.205Zm12.7.365a5.955,5.955,0,0,0-.978-.075A2.619,2.619,0,0,0,29.025-8.25V0H27.038V-11.623h1.934L29-10.28a3.094,3.094,0,0,1,2.771-1.558,2.03,2.03,0,0,1,.881.15ZM36.642,0H34.654V-11.623h1.987ZM34.493-14.706a1.186,1.186,0,0,1,.3-.816,1.109,1.109,0,0,1,.875-.333,1.126,1.126,0,0,1,.881.333,1.174,1.174,0,0,1,.3.816,1.135,1.135,0,0,1-.3.806,1.147,1.147,0,0,1-.881.322,1.129,1.129,0,0,1-.875-.322A1.147,1.147,0,0,1,34.493-14.706Zm4.8,8.787a6.865,6.865,0,0,1,.671-3.072A5.008,5.008,0,0,1,41.835-11.1a5.088,5.088,0,0,1,2.734-.741,4.9,4.9,0,0,1,3.84,1.644,6.323,6.323,0,0,1,1.466,4.372v.14a6.925,6.925,0,0,1-.65,3.045,4.935,4.935,0,0,1-1.858,2.1,5.146,5.146,0,0,1-2.777.752,4.889,4.889,0,0,1-3.83-1.644,6.291,6.291,0,0,1-1.466-4.351Zm2,.236a4.972,4.972,0,0,0,.9,3.1,2.871,2.871,0,0,0,2.4,1.171A2.853,2.853,0,0,0,47-2.594a5.437,5.437,0,0,0,.892-3.325,4.964,4.964,0,0,0-.908-3.1,2.886,2.886,0,0,0-2.412-1.187A2.854,2.854,0,0,0,42.2-9.034,5.4,5.4,0,0,0,41.293-5.683Zm10.592-.226a6.809,6.809,0,0,1,1.268-4.3,4.008,4.008,0,0,1,3.319-1.627,4.031,4.031,0,0,1,3.233,1.4V-16.5h1.987V0H59.866l-.1-1.246A4.047,4.047,0,0,1,56.45.215a3.97,3.97,0,0,1-3.292-1.654,6.886,6.886,0,0,1-1.273-4.318Zm1.987.226a5.155,5.155,0,0,0,.816,3.094,2.639,2.639,0,0,0,2.256,1.117,2.9,2.9,0,0,0,2.761-1.7V-8.508a2.921,2.921,0,0,0-2.739-1.644,2.652,2.652,0,0,0-2.277,1.128A5.676,5.676,0,0,0,53.872-5.683ZM66.935,0H64.947V-11.623h1.987ZM64.786-14.706a1.186,1.186,0,0,1,.3-.816,1.109,1.109,0,0,1,.875-.333,1.126,1.126,0,0,1,.881.333,1.174,1.174,0,0,1,.3.816,1.135,1.135,0,0,1-.3.806,1.147,1.147,0,0,1-.881.322,1.129,1.129,0,0,1-.875-.322A1.147,1.147,0,0,1,64.786-14.706Zm9.99,13.3a2.863,2.863,0,0,0,1.858-.645,2.268,2.268,0,0,0,.881-1.611H79.4a3.6,3.6,0,0,1-.687,1.9A4.528,4.528,0,0,1,77.016-.322a4.882,4.882,0,0,1-2.24.537A4.788,4.788,0,0,1,71-1.37,6.311,6.311,0,0,1,69.6-5.7v-.333a7,7,0,0,1,.623-3.019,4.745,4.745,0,0,1,1.789-2.052,5.081,5.081,0,0,1,2.755-.73,4.662,4.662,0,0,1,3.25,1.171,4.185,4.185,0,0,1,1.38,3.04h-1.88a2.739,2.739,0,0,0-.854-1.853,2.657,2.657,0,0,0-1.9-.725,2.781,2.781,0,0,0-2.347,1.09,5.121,5.121,0,0,0-.833,3.153v.376a5.019,5.019,0,0,0,.827,3.094A2.8,2.8,0,0,0,74.776-1.407ZM88.806,0a4.175,4.175,0,0,1-.279-1.225A4.434,4.434,0,0,1,85.218.215,4.1,4.1,0,0,1,82.4-.757a3.145,3.145,0,0,1-1.1-2.465,3.286,3.286,0,0,1,1.38-2.82,6.508,6.508,0,0,1,3.883-1h1.934V-7.96a2.232,2.232,0,0,0-.623-1.66,2.5,2.5,0,0,0-1.837-.618,2.9,2.9,0,0,0-1.783.537,1.583,1.583,0,0,0-.72,1.3h-2a2.743,2.743,0,0,1,.618-1.681,4.216,4.216,0,0,1,1.676-1.284,5.638,5.638,0,0,1,2.326-.473,4.6,4.6,0,0,1,3.147,1,3.623,3.623,0,0,1,1.182,2.766v5.35A6.54,6.54,0,0,0,90.89-.172V0Zm-3.3-1.515A3.493,3.493,0,0,0,87.28-2a2.924,2.924,0,0,0,1.214-1.257V-5.64H86.937q-3.652,0-3.652,2.138a1.809,1.809,0,0,0,.623,1.461A2.4,2.4,0,0,0,85.508-1.515ZM95.756,0H93.769V-16.5h1.987ZM105.7-3.083a1.463,1.463,0,0,0-.607-1.251A5.842,5.842,0,0,0,102.98-5.1a10.005,10.005,0,0,1-2.4-.773A3.408,3.408,0,0,1,99.274-6.95a2.57,2.57,0,0,1-.424-1.482,3.015,3.015,0,0,1,1.208-2.417,4.72,4.72,0,0,1,3.088-.988,4.857,4.857,0,0,1,3.207,1.021,3.241,3.241,0,0,1,1.23,2.61h-2a1.794,1.794,0,0,0-.693-1.407,2.6,2.6,0,0,0-1.746-.591,2.717,2.717,0,0,0-1.7.473,1.488,1.488,0,0,0-.612,1.235,1.205,1.205,0,0,0,.569,1.085,7,7,0,0,0,2.057.7,10.719,10.719,0,0,1,2.412.795,3.518,3.518,0,0,1,1.37,1.112,2.734,2.734,0,0,1,.446,1.584,2.975,2.975,0,0,1-1.246,2.5,5.227,5.227,0,0,1-3.233.94,5.853,5.853,0,0,1-2.471-.494,4.018,4.018,0,0,1-1.681-1.38,3.327,3.327,0,0,1-.607-1.917h1.987a2.058,2.058,0,0,0,.8,1.584,3.1,3.1,0,0,0,1.971.585,3.2,3.2,0,0,0,1.81-.457A1.4,1.4,0,0,0,105.7-3.083Z" transform="translate(5542 4070)"/>
      <path id="Path_721" data-name="Path 721" d="M12.622-13.943H7.595V0H5.543V-13.943H.526v-1.7h12.1Zm4,3.728a4.225,4.225,0,0,1,3.438-1.622q3.685,0,3.717,4.157V0H21.785V-7.691A2.676,2.676,0,0,0,21.21-9.55a2.3,2.3,0,0,0-1.756-.6,2.868,2.868,0,0,0-1.7.516,3.5,3.5,0,0,0-1.139,1.354V0H14.631V-16.5h1.987Zm15.748.376a5.955,5.955,0,0,0-.978-.075A2.619,2.619,0,0,0,28.735-8.25V0H26.748V-11.623h1.934l.032,1.343a3.094,3.094,0,0,1,2.771-1.558,2.03,2.03,0,0,1,.881.15ZM39.016.215A5.078,5.078,0,0,1,35.17-1.337a5.761,5.761,0,0,1-1.482-4.152v-.365a6.975,6.975,0,0,1,.661-3.088A5.154,5.154,0,0,1,36.2-11.07a4.645,4.645,0,0,1,2.573-.768,4.353,4.353,0,0,1,3.523,1.493,6.465,6.465,0,0,1,1.257,4.275v.827H35.675a4.132,4.132,0,0,0,1,2.777,3.157,3.157,0,0,0,2.444,1.058,3.461,3.461,0,0,0,1.783-.43,4.48,4.48,0,0,0,1.278-1.139L43.4-2.03A4.881,4.881,0,0,1,39.016.215Zm-.247-10.42a2.651,2.651,0,0,0-2.02.875,4.255,4.255,0,0,0-1.01,2.455h5.822v-.15a3.785,3.785,0,0,0-.816-2.347A2.5,2.5,0,0,0,38.769-10.205ZM50.671.215a5.078,5.078,0,0,1-3.846-1.552,5.761,5.761,0,0,1-1.482-4.152v-.365A6.975,6.975,0,0,1,46-8.943a5.154,5.154,0,0,1,1.848-2.127,4.645,4.645,0,0,1,2.573-.768,4.353,4.353,0,0,1,3.523,1.493A6.465,6.465,0,0,1,55.2-6.069v.827H47.33a4.132,4.132,0,0,0,1,2.777,3.157,3.157,0,0,0,2.444,1.058,3.461,3.461,0,0,0,1.783-.43A4.48,4.48,0,0,0,53.84-2.976l1.214.945A4.881,4.881,0,0,1,50.671.215Zm-.247-10.42a2.651,2.651,0,0,0-2.02.875,4.255,4.255,0,0,0-1.01,2.455h5.822v-.15A3.785,3.785,0,0,0,52.4-9.373,2.5,2.5,0,0,0,50.424-10.205ZM61.639-5.833H56.4V-7.455h5.242Zm4.63-8.6v2.814h2.17v1.536h-2.17v7.208a1.61,1.61,0,0,0,.29,1.047,1.221,1.221,0,0,0,.988.349,4.811,4.811,0,0,0,.945-.129V0a5.761,5.761,0,0,1-1.525.215,2.475,2.475,0,0,1-2.009-.806,3.461,3.461,0,0,1-.677-2.288v-7.208H62.165v-1.536h2.116v-2.814Zm3.749,8.519a6.865,6.865,0,0,1,.671-3.072A5.009,5.009,0,0,1,72.558-11.1a5.088,5.088,0,0,1,2.734-.741,4.9,4.9,0,0,1,3.84,1.644A6.323,6.323,0,0,1,80.6-5.822v.14a6.925,6.925,0,0,1-.65,3.045,4.935,4.935,0,0,1-1.858,2.1,5.147,5.147,0,0,1-2.777.752,4.889,4.889,0,0,1-3.83-1.644,6.291,6.291,0,0,1-1.466-4.351Zm2,.236a4.972,4.972,0,0,0,.9,3.1,2.871,2.871,0,0,0,2.4,1.171A2.853,2.853,0,0,0,77.72-2.594a5.437,5.437,0,0,0,.892-3.325,4.964,4.964,0,0,0-.908-3.1,2.886,2.886,0,0,0-2.412-1.187,2.854,2.854,0,0,0-2.374,1.171A5.4,5.4,0,0,0,72.016-5.683Zm15.211-.15H81.984V-7.455h5.242ZM98.1-6.907H91.534V0H89.472V-15.641h9.689v1.7H91.534v5.35H98.1ZM103.479,0h-1.987V-11.623h1.987Zm-2.148-14.706a1.186,1.186,0,0,1,.3-.816,1.109,1.109,0,0,1,.875-.333,1.126,1.126,0,0,1,.881.333,1.174,1.174,0,0,1,.3.816,1.135,1.135,0,0,1-.3.806,1.147,1.147,0,0,1-.881.322,1.129,1.129,0,0,1-.875-.322A1.147,1.147,0,0,1,101.331-14.706ZM110.494-2.7l2.879-8.927h2.03L111.235,0h-1.515L105.51-11.623h2.03ZM122.139.215a5.078,5.078,0,0,1-3.846-1.552,5.761,5.761,0,0,1-1.482-4.152v-.365a6.975,6.975,0,0,1,.661-3.088,5.154,5.154,0,0,1,1.848-2.127,4.645,4.645,0,0,1,2.573-.768,4.353,4.353,0,0,1,3.523,1.493,6.465,6.465,0,0,1,1.257,4.275v.827H118.8a4.132,4.132,0,0,0,1,2.777,3.157,3.157,0,0,0,2.444,1.058,3.461,3.461,0,0,0,1.783-.43,4.481,4.481,0,0,0,1.278-1.139l1.214.945A4.881,4.881,0,0,1,122.139.215Zm-.247-10.42a2.651,2.651,0,0,0-2.02.875,4.255,4.255,0,0,0-1.01,2.455h5.822v-.15a3.785,3.785,0,0,0-.816-2.347A2.5,2.5,0,0,0,121.892-10.205Zm11.215,4.372h-5.242V-7.455h5.242ZM135.352,0V-15.641h4.415a7.107,7.107,0,0,1,3.609.9,6.1,6.1,0,0,1,2.422,2.567,8.357,8.357,0,0,1,.865,3.824v1a8.386,8.386,0,0,1-.854,3.878,6.007,6.007,0,0,1-2.438,2.557,7.56,7.56,0,0,1-3.69.913Zm2.063-13.943V-1.687h2.17A4.723,4.723,0,0,0,143.3-3.169a6.121,6.121,0,0,0,1.327-4.222V-8.3a6.218,6.218,0,0,0-1.251-4.141,4.455,4.455,0,0,0-3.55-1.5ZM156.643,0a4.175,4.175,0,0,1-.279-1.225A4.434,4.434,0,0,1,153.055.215a4.1,4.1,0,0,1-2.82-.972,3.145,3.145,0,0,1-1.1-2.465,3.286,3.286,0,0,1,1.38-2.82,6.508,6.508,0,0,1,3.883-1h1.934V-7.96a2.232,2.232,0,0,0-.623-1.66,2.5,2.5,0,0,0-1.837-.618,2.9,2.9,0,0,0-1.783.537,1.583,1.583,0,0,0-.72,1.3h-2a2.743,2.743,0,0,1,.618-1.681,4.216,4.216,0,0,1,1.676-1.284,5.638,5.638,0,0,1,2.326-.473,4.6,4.6,0,0,1,3.147,1,3.623,3.623,0,0,1,1.182,2.766v5.35a6.54,6.54,0,0,0,.408,2.546V0Zm-3.3-1.515A3.493,3.493,0,0,0,155.117-2a2.924,2.924,0,0,0,1.214-1.257V-5.64h-1.558q-3.652,0-3.652,2.138a1.809,1.809,0,0,0,.623,1.461A2.4,2.4,0,0,0,153.345-1.515Zm11.892-1.4,2.707-8.712h2.127L165.4,1.794q-1.085,2.9-3.448,2.9l-.376-.032-.741-.14V2.911l.537.043a2.644,2.644,0,0,0,1.574-.408,2.954,2.954,0,0,0,.929-1.493l.44-1.182-4.146-11.494h2.17Z" transform="translate(5908 4070)"/>
    </g>
  </g>
</svg>
