<svg id="Group_481" data-name="Group 481" xmlns="http://www.w3.org/2000/svg" viewBox="90 580 1637 410">
  <defs>
    <style>
      .cls-1 {
        fill: #fff;
      }

      .cls-2 {
        fill: #212529;
        stroke: rgba(0,0,0,0);
      }

      .cls-3 {
        fill: #bdc6d0;
      }

      .cls-4 {
        fill: #f3cb2c;
      }

      .cls-5 {
        fill: #30d074;
      }

      .cls-6 {
        fill: #68b3e4;
      }

      .cls-7 {
        fill: #ffa85c;
      }

      .cls-8 {
        fill: #ff604e;
      }
    </style>
  </defs>
  <rect id="Rectangle_724" data-name="Rectangle 724" class="cls-1" width="1637" height="410" rx="9" transform="translate(90 580)"/>
  <path id="Path_619" data-name="Path 619" class="cls-2" d="M-248.965-4.1l3.633-.7V-29.3l-3.633-.7v-4.125H-221.8v9.352h-5.25l-.3-4.078h-11.133v9.4h11.953v5.273h-11.953V-4.8l3.656.7V0h-14.133Zm29.6,0,3.3-.7V-20.531l-3.656-.7v-4.125h10.5V-4.8l3.281.7V0h-13.43Zm10.148-27.328h-6.844v-5.133h6.844ZM-203.168-4.1l3.281-.7V-20.531l-3.633-.7v-4.125h10.008l.3,3.7a7.982,7.982,0,0,1,2.3-3.07,5.133,5.133,0,0,1,3.258-1.1,8.372,8.372,0,0,1,1.137.082,6.964,6.964,0,0,1,1,.2l-.727,6.234-2.812-.07a4.793,4.793,0,0,0-2.484.586,3.787,3.787,0,0,0-1.5,1.664V-4.8l3.281.7V0h-13.406Zm40.383-12.539h-4.594l-.727-3.164a5.994,5.994,0,0,0-1.77-.937,7.06,7.06,0,0,0-2.355-.375,4.588,4.588,0,0,0-2.859.809,2.46,2.46,0,0,0-1.055,2.027,2.308,2.308,0,0,0,1.008,1.91,10.787,10.787,0,0,0,4.031,1.348,16.409,16.409,0,0,1,6.984,2.754,6.053,6.053,0,0,1,2.273,5,6.656,6.656,0,0,1-2.941,5.59A12.748,12.748,0,0,1-172.535.492a16.216,16.216,0,0,1-5.379-.855,13.741,13.741,0,0,1-4.348-2.449l-.07-5.7h4.781l.938,3.3a3.92,3.92,0,0,0,1.664.762,9.666,9.666,0,0,0,2.2.246,5.593,5.593,0,0,0,3.176-.75,2.351,2.351,0,0,0,1.09-2.039,2.385,2.385,0,0,0-1.1-1.945,11.246,11.246,0,0,0-4.055-1.453A16.254,16.254,0,0,1-180.4-13.09a5.877,5.877,0,0,1-2.285-4.887,7.09,7.09,0,0,1,2.625-5.5q2.625-2.309,7.477-2.309a19.222,19.222,0,0,1,5.59.8,11.811,11.811,0,0,1,4.137,2.039Zm14.109-14.93v6.211h4.453v4.8h-4.453V-7.641a2.985,2.985,0,0,0,.609,2.109,2.172,2.172,0,0,0,1.641.633,11.3,11.3,0,0,0,1.23-.059q.527-.059,1.184-.2l.586,4.945A16.429,16.429,0,0,1-145.7.316a15.819,15.819,0,0,1-2.437.176,7.294,7.294,0,0,1-5.449-1.945Q-155.5-3.4-155.5-7.617V-20.555h-3.727v-4.8h3.727V-31.57Zm52.336,6.328-.141-.023L-105.621,0h-4.594l-9.094-25.172-.141.023.656,14.977V-4.8l3.656.7V0H-129.27V-4.1l3.633-.7V-29.3l-3.633-.7v-4.125h12.563l8.7,25.148h.141l8.766-25.148H-86.5V-30l-3.656.7V-4.8l3.656.7V0h-14.133V-4.1L-97-4.8v-5.367ZM-84.105-4.1l3.3-.7V-20.531l-3.656-.7v-4.125h10.5V-4.8l3.281.7V0h-13.43ZM-73.957-31.43H-80.8v-5.133h6.844Zm4.8-1.008v-4.125h10.5V-4.8l3.3.7V0H-68.8V-4.1l3.3-.7v-26.93ZM-40.98.492a11.418,11.418,0,0,1-8.766-3.516,12.571,12.571,0,0,1-3.281-8.93v-.937a13.872,13.872,0,0,1,3.105-9.3,10.309,10.309,0,0,1,8.332-3.633q5.133,0,7.969,3.094a11.9,11.9,0,0,1,2.836,8.367v3.727H-45.926l-.047.141A6.619,6.619,0,0,0-44.3-6.375a5.224,5.224,0,0,0,4.043,1.617,13.167,13.167,0,0,0,3.773-.457A17.343,17.343,0,0,0-33.2-6.656l1.852,4.219A13.471,13.471,0,0,1-35.414-.352,17.31,17.31,0,0,1-40.98.492Zm-.609-21.047a3.563,3.563,0,0,0-3,1.453,7.566,7.566,0,0,0-1.359,3.82l.07.117h8.391v-.609a5.49,5.49,0,0,0-1.02-3.48A3.675,3.675,0,0,0-41.59-20.555ZM-.6-34.125a14.08,14.08,0,0,1,10.313,4A13.775,13.775,0,0,1,13.77-19.875v5.648A13.726,13.726,0,0,1,9.715-3.973,14.125,14.125,0,0,1-.6,0H-15.949V-4.1l3.633-.7V-29.3l-3.633-.7v-4.125H-.6Zm-4.875,5.273v23.6H-.949A7.122,7.122,0,0,0,4.816-7.734,9.757,9.757,0,0,0,6.9-14.227v-5.7a9.684,9.684,0,0,0-2.086-6.445A7.122,7.122,0,0,0-.949-28.852ZM17.074-4.1l3.3-.7V-20.531l-3.656-.7v-4.125h10.5V-4.8l3.281.7V0H17.074ZM27.223-31.43H20.379v-5.133h6.844ZM48.9,0a12.377,12.377,0,0,1-.492-1.3,10.26,10.26,0,0,1-.328-1.348A9.415,9.415,0,0,1,45.117-.375a8.868,8.868,0,0,1-4,.867A8.372,8.372,0,0,1,35.2-1.535a7.151,7.151,0,0,1-2.191-5.52,6.275,6.275,0,0,1,2.859-5.508q2.859-1.945,8.391-1.945h3.492v-2.484A3.736,3.736,0,0,0,46.7-19.828a4.349,4.349,0,0,0-3.117-1.008,7.382,7.382,0,0,0-2.086.27,5.458,5.458,0,0,0-1.477.645L39.574-17.2H34.418l.023-5.625a19.206,19.206,0,0,1,4.3-2.133,15.594,15.594,0,0,1,5.285-.867A12.033,12.033,0,0,1,51.68-23.52a7.869,7.869,0,0,1,2.941,6.574V-6.469q0,.586.012,1.1a7.837,7.837,0,0,0,.082.984L56.8-4.1V0Zm-5.93-4.57a5.932,5.932,0,0,0,2.813-.668,5.431,5.431,0,0,0,1.969-1.676v-3.867H44.262a4.769,4.769,0,0,0-3.3,1.02,3.192,3.192,0,0,0-1.125,2.449A2.535,2.535,0,0,0,40.664-5.3,3.394,3.394,0,0,0,42.973-4.57Zm16.57-7.9q0-6,2.613-9.68a8.469,8.469,0,0,1,7.324-3.68,7.27,7.27,0,0,1,3.75.949A8.374,8.374,0,0,1,76-22.172l.492-3.187h5.953V-.75a10.508,10.508,0,0,1-3.152,8q-3.152,2.988-8.66,2.988a17.191,17.191,0,0,1-4.078-.527,18.938,18.938,0,0,1-3.984-1.441l1.266-4.8a21.668,21.668,0,0,0,3.281,1.113,14.257,14.257,0,0,0,3.469.41,4.554,4.554,0,0,0,3.75-1.523A6.536,6.536,0,0,0,75.574-.773V-2.437a7.656,7.656,0,0,1-2.648,2.18,7.807,7.807,0,0,1-3.492.75,8.627,8.627,0,0,1-7.277-3.434,14.529,14.529,0,0,1-2.613-9.035Zm6.844.492a10.329,10.329,0,0,0,1.125,5.238,3.917,3.917,0,0,0,3.656,1.91,5.649,5.649,0,0,0,2.66-.574,4.387,4.387,0,0,0,1.746-1.676V-18.094a4.722,4.722,0,0,0-1.746-1.781,5.118,5.118,0,0,0-2.613-.633,3.862,3.862,0,0,0-3.668,2.227,12.583,12.583,0,0,0-1.16,5.813ZM86.168-4.1l3.281-.7V-20.531l-3.633-.7v-4.125H95.824l.3,3.633a9.275,9.275,0,0,1,3.117-3.023,8.092,8.092,0,0,1,4.148-1.078,7.63,7.63,0,0,1,6,2.414q2.156,2.414,2.156,7.57V-4.8l3.281.7V0H101.754V-4.1l2.93-.7V-15.82a5.13,5.13,0,0,0-1.031-3.621,4.151,4.151,0,0,0-3.117-1.066,5.281,5.281,0,0,0-2.437.551,5.01,5.01,0,0,0-1.8,1.559V-4.8l2.766.7V0H86.168Zm30.609-8.812a13.578,13.578,0,0,1,3.176-9.293,11.065,11.065,0,0,1,8.777-3.621,11.11,11.11,0,0,1,8.8,3.609,13.567,13.567,0,0,1,3.176,9.3v.492a13.557,13.557,0,0,1-3.176,9.316,11.072,11.072,0,0,1-8.754,3.6q-5.648,0-8.824-3.6a13.557,13.557,0,0,1-3.176-9.316Zm6.844.492a11.032,11.032,0,0,0,1.219,5.566,4.208,4.208,0,0,0,3.938,2.1,4.166,4.166,0,0,0,3.879-2.109,10.959,10.959,0,0,0,1.23-5.555v-.492a10.847,10.847,0,0,0-1.242-5.508,4.2,4.2,0,0,0-3.914-2.133,4.15,4.15,0,0,0-3.891,2.133,11.018,11.018,0,0,0-1.219,5.508Zm40.758-4.219h-4.594l-.727-3.164a5.994,5.994,0,0,0-1.77-.937,7.06,7.06,0,0,0-2.355-.375,4.588,4.588,0,0,0-2.859.809,2.46,2.46,0,0,0-1.055,2.027,2.308,2.308,0,0,0,1.008,1.91,10.787,10.787,0,0,0,4.031,1.348,16.409,16.409,0,0,1,6.984,2.754,6.053,6.053,0,0,1,2.273,5,6.656,6.656,0,0,1-2.941,5.59A12.748,12.748,0,0,1,154.629.492a16.216,16.216,0,0,1-5.379-.855A13.741,13.741,0,0,1,144.9-2.812l-.07-5.7h4.781l.938,3.3a3.92,3.92,0,0,0,1.664.762,9.666,9.666,0,0,0,2.2.246,5.593,5.593,0,0,0,3.176-.75,2.351,2.351,0,0,0,1.09-2.039,2.385,2.385,0,0,0-1.1-1.945,11.246,11.246,0,0,0-4.055-1.453,16.254,16.254,0,0,1-6.762-2.707,5.877,5.877,0,0,1-2.285-4.887,7.09,7.09,0,0,1,2.625-5.5q2.625-2.309,7.477-2.309a19.222,19.222,0,0,1,5.59.8,11.811,11.811,0,0,1,4.137,2.039Zm14.109-14.93v6.211h4.453v4.8h-4.453V-7.641a2.985,2.985,0,0,0,.609,2.109,2.172,2.172,0,0,0,1.641.633,11.3,11.3,0,0,0,1.23-.059q.527-.059,1.184-.2l.586,4.945a16.429,16.429,0,0,1-2.273.527,15.819,15.819,0,0,1-2.437.176,7.294,7.294,0,0,1-5.449-1.945q-1.91-1.945-1.91-6.164V-20.555h-3.727v-4.8h3.727V-31.57ZM186.082-4.1l3.3-.7V-20.531l-3.656-.7v-4.125h10.5V-4.8l3.281.7V0h-13.43ZM196.23-31.43h-6.844v-5.133h6.844ZM213.668-4.758a4.033,4.033,0,0,0,2.93-1.066,3.781,3.781,0,0,0,1.1-2.848h6.188l.07.141A7.911,7.911,0,0,1,221.074-2.1a10.88,10.88,0,0,1-7.406,2.59q-5.672,0-8.742-3.586a13.663,13.663,0,0,1-3.07-9.211v-.7a13.493,13.493,0,0,1,3.152-9.211q3.152-3.609,8.988-3.609a15.6,15.6,0,0,1,5.508.914,10.882,10.882,0,0,1,4.055,2.578l.094,6.773H218.1l-1.125-3.961a4.323,4.323,0,0,0-1.266-.738A4.676,4.676,0,0,0,214-20.555a4.321,4.321,0,0,0-4.1,2.109,10.949,10.949,0,0,0-1.2,5.438v.7a11.68,11.68,0,0,0,1.1,5.473A4,4,0,0,0,213.668-4.758Zm34.078-11.883h-4.594l-.727-3.164a5.994,5.994,0,0,0-1.77-.937,7.06,7.06,0,0,0-2.355-.375,4.588,4.588,0,0,0-2.859.809,2.46,2.46,0,0,0-1.055,2.027,2.308,2.308,0,0,0,1.008,1.91,10.787,10.787,0,0,0,4.031,1.348,16.409,16.409,0,0,1,6.984,2.754,6.053,6.053,0,0,1,2.273,5,6.656,6.656,0,0,1-2.941,5.59A12.748,12.748,0,0,1,238,.492a16.216,16.216,0,0,1-5.379-.855,13.741,13.741,0,0,1-4.348-2.449l-.07-5.7h4.781l.938,3.3a3.92,3.92,0,0,0,1.664.762,9.666,9.666,0,0,0,2.2.246,5.593,5.593,0,0,0,3.176-.75,2.351,2.351,0,0,0,1.09-2.039,2.385,2.385,0,0,0-1.1-1.945,11.246,11.246,0,0,0-4.055-1.453,16.254,16.254,0,0,1-6.762-2.707,5.877,5.877,0,0,1-2.285-4.887,7.09,7.09,0,0,1,2.625-5.5q2.625-2.309,7.477-2.309a19.222,19.222,0,0,1,5.59.8,11.811,11.811,0,0,1,4.137,2.039Z" transform="translate(372 684)"/>
  <rect id="Rectangle_725" data-name="Rectangle 725" class="cls-3" width="357.259" height="194.233" rx="17" transform="translate(123 765.155)"/>
  <rect id="Rectangle_726" data-name="Rectangle 726" class="cls-4" width="357.259" height="194.233" rx="17" transform="translate(524 766.035)"/>
  <rect id="Rectangle_727" data-name="Rectangle 727" class="cls-3" width="357.259" height="194.233" rx="17" transform="translate(926 766.035)"/>
  <rect id="Rectangle_728" data-name="Rectangle 728" class="cls-5" width="48.301" height="34.318" transform="translate(1329.506 711.478)"/>
  <rect id="Rectangle_729" data-name="Rectangle 729" class="cls-6" width="48.301" height="34.318" transform="translate(1329.506 759.875)"/>
  <rect id="Rectangle_730" data-name="Rectangle 730" class="cls-4" width="48.301" height="34.318" transform="translate(1329.506 808.272)"/>
  <rect id="Rectangle_731" data-name="Rectangle 731" class="cls-7" width="48.301" height="34.318" transform="translate(1329.506 859.309)"/>
  <rect id="Rectangle_732" data-name="Rectangle 732" class="cls-8" width="48.301" height="34.318" transform="translate(1329.506 908.586)"/>
  <path id="Path_620" data-name="Path 620" class="cls-2" d="M-104.194-9.28v6.857h-2.31V-19.939h6.46a6.491,6.491,0,0,1,4.505,1.468,4.976,4.976,0,0,1,1.63,3.886A4.91,4.91,0,0,1-95.5-10.658a6.781,6.781,0,0,1-4.566,1.377Zm0-1.889h4.151a4.155,4.155,0,0,0,2.839-.872,3.186,3.186,0,0,0,.987-2.52,3.292,3.292,0,0,0-.987-2.5,3.892,3.892,0,0,0-2.707-.974h-4.283Zm19.177-2.274a6.669,6.669,0,0,0-1.095-.084,2.933,2.933,0,0,0-2.972,1.865v9.239h-2.226V-15.44h2.165l.036,1.5A3.466,3.466,0,0,1-86-15.68a2.274,2.274,0,0,1,.987.168ZM-83.8-9.051a7.689,7.689,0,0,1,.752-3.441,5.609,5.609,0,0,1,2.093-2.358,5.7,5.7,0,0,1,3.062-.83,5.49,5.49,0,0,1,4.3,1.841,7.082,7.082,0,0,1,1.642,4.9v.156a7.756,7.756,0,0,1-.728,3.411,5.527,5.527,0,0,1-2.081,2.352,5.764,5.764,0,0,1-3.11.842A5.476,5.476,0,0,1-82.16-4.023,7.046,7.046,0,0,1-83.8-8.9Zm2.238.265a5.569,5.569,0,0,0,1,3.477A3.215,3.215,0,0,0-77.871-4a3.2,3.2,0,0,0,2.695-1.329,6.09,6.09,0,0,0,1-3.723,5.559,5.559,0,0,0-1.017-3.471,3.232,3.232,0,0,0-2.7-1.329,3.2,3.2,0,0,0-2.659,1.311A6.044,6.044,0,0,0-81.565-8.787ZM-63.94-4a3.206,3.206,0,0,0,2.081-.722,2.54,2.54,0,0,0,.987-1.8h2.105a4.036,4.036,0,0,1-.77,2.129,5.071,5.071,0,0,1-1.895,1.612,5.467,5.467,0,0,1-2.508.6,5.362,5.362,0,0,1-4.229-1.775,7.068,7.068,0,0,1-1.57-4.854v-.373a7.837,7.837,0,0,1,.7-3.381,5.315,5.315,0,0,1,2-2.3,5.69,5.69,0,0,1,3.086-.818,5.221,5.221,0,0,1,3.639,1.311,4.687,4.687,0,0,1,1.546,3.4h-2.105a3.067,3.067,0,0,0-.956-2.075,2.975,2.975,0,0,0-2.123-.812,3.115,3.115,0,0,0-2.629,1.221A5.735,5.735,0,0,0-67.513-9.1v.421a5.62,5.62,0,0,0,.926,3.465A3.13,3.13,0,0,0-63.94-4Zm13.077,1.817A5.688,5.688,0,0,1-55.17-3.92a6.452,6.452,0,0,1-1.66-4.65v-.409a7.811,7.811,0,0,1,.74-3.459,5.772,5.772,0,0,1,2.069-2.382,5.2,5.2,0,0,1,2.881-.86,4.875,4.875,0,0,1,3.946,1.672A7.24,7.24,0,0,1-45.786-9.22v.926H-54.6a4.627,4.627,0,0,0,1.125,3.11A3.536,3.536,0,0,0-50.742-4a3.876,3.876,0,0,0,2-.481,5.018,5.018,0,0,0,1.432-1.275L-45.954-4.7A5.466,5.466,0,0,1-50.863-2.182Zm-.277-11.67a2.969,2.969,0,0,0-2.262.98,4.766,4.766,0,0,0-1.131,2.749h6.521v-.168a4.239,4.239,0,0,0-.914-2.629A2.8,2.8,0,0,0-51.139-13.852Zm15.507,7.976a1.638,1.638,0,0,0-.68-1.4,6.543,6.543,0,0,0-2.37-.86A11.205,11.205,0,0,1-41.364-9a3.817,3.817,0,0,1-1.468-1.2,2.878,2.878,0,0,1-.475-1.66,3.377,3.377,0,0,1,1.353-2.707A5.286,5.286,0,0,1-38.5-15.68,5.439,5.439,0,0,1-34.9-14.537a3.63,3.63,0,0,1,1.377,2.923h-2.238a2.009,2.009,0,0,0-.776-1.576,2.907,2.907,0,0,0-1.955-.662,3.043,3.043,0,0,0-1.9.529,1.666,1.666,0,0,0-.686,1.384,1.35,1.35,0,0,0,.638,1.215,7.845,7.845,0,0,0,2.3.782,12,12,0,0,1,2.7.89,3.94,3.94,0,0,1,1.534,1.245,3.062,3.062,0,0,1,.5,1.775,3.331,3.331,0,0,1-1.4,2.8,5.854,5.854,0,0,1-3.621,1.053,6.555,6.555,0,0,1-2.767-.553,4.5,4.5,0,0,1-1.883-1.546,3.726,3.726,0,0,1-.68-2.147h2.226a2.3,2.3,0,0,0,.9,1.775A3.477,3.477,0,0,0-38.423-4,3.589,3.589,0,0,0-36.4-4.51,1.571,1.571,0,0,0-35.632-5.875Zm12.7,0a1.638,1.638,0,0,0-.68-1.4,6.543,6.543,0,0,0-2.37-.86A11.205,11.205,0,0,1-28.66-9a3.817,3.817,0,0,1-1.468-1.2,2.878,2.878,0,0,1-.475-1.66,3.377,3.377,0,0,1,1.353-2.707,5.286,5.286,0,0,1,3.459-1.107A5.439,5.439,0,0,1-22.2-14.537a3.63,3.63,0,0,1,1.377,2.923H-23.06a2.009,2.009,0,0,0-.776-1.576,2.907,2.907,0,0,0-1.955-.662,3.043,3.043,0,0,0-1.9.529,1.666,1.666,0,0,0-.686,1.384,1.35,1.35,0,0,0,.638,1.215,7.845,7.845,0,0,0,2.3.782,12,12,0,0,1,2.7.89A3.94,3.94,0,0,1-21.2-7.806a3.062,3.062,0,0,1,.5,1.775,3.331,3.331,0,0,1-1.4,2.8,5.854,5.854,0,0,1-3.621,1.053,6.555,6.555,0,0,1-2.767-.553,4.5,4.5,0,0,1-1.883-1.546,3.726,3.726,0,0,1-.68-2.147h2.226a2.3,2.3,0,0,0,.9,1.775A3.477,3.477,0,0,0-25.719-4a3.589,3.589,0,0,0,2.027-.511A1.571,1.571,0,0,0-22.928-5.875Zm7.543,3.453H-17.61V-15.44h2.226Zm-2.406-16.47a1.329,1.329,0,0,1,.331-.914,1.242,1.242,0,0,1,.98-.373,1.261,1.261,0,0,1,.987.373,1.315,1.315,0,0,1,.337.914,1.271,1.271,0,0,1-.337.9,1.284,1.284,0,0,1-.987.361,1.264,1.264,0,0,1-.98-.361A1.285,1.285,0,0,1-17.791-18.892Zm8.073,3.453.072,1.636a4.744,4.744,0,0,1,3.9-1.877q4.126,0,4.163,4.656v8.6H-3.811v-8.614a3,3,0,0,0-.644-2.081,2.579,2.579,0,0,0-1.967-.674,3.212,3.212,0,0,0-1.9.577A3.921,3.921,0,0,0-9.6-11.7v9.276h-2.226V-15.44Zm10.96,6.4a7.65,7.65,0,0,1,1.408-4.842,4.5,4.5,0,0,1,3.729-1.8A4.478,4.478,0,0,1,10.1-14L10.2-15.44h2.033v12.7a5.3,5.3,0,0,1-1.5,3.982A5.527,5.527,0,0,1,6.716,2.7a6.7,6.7,0,0,1-2.755-.6A4.742,4.742,0,0,1,1.9.453L3.058-.883A4.352,4.352,0,0,0,6.559.886,3.41,3.41,0,0,0,9.092-.029,3.5,3.5,0,0,0,10-2.6V-3.722a4.574,4.574,0,0,1-3.645,1.54,4.446,4.446,0,0,1-3.7-1.841A8.044,8.044,0,0,1,1.242-9.039Zm2.238.253a5.837,5.837,0,0,0,.9,3.459A2.932,2.932,0,0,0,6.908-4.071,3.26,3.26,0,0,0,10-5.984v-5.943a3.3,3.3,0,0,0-3.068-1.865,2.958,2.958,0,0,0-2.538,1.263A6.357,6.357,0,0,0,3.479-8.787ZM27.2-10.23a10.861,10.861,0,0,1-4.325-2.1A4.011,4.011,0,0,1,21.525-15.4a4.237,4.237,0,0,1,1.654-3.423,6.574,6.574,0,0,1,4.3-1.353,7.176,7.176,0,0,1,3.218.7,5.292,5.292,0,0,1,2.19,1.925,4.922,4.922,0,0,1,.776,2.683H31.342a3.186,3.186,0,0,0-1.011-2.5,4.119,4.119,0,0,0-2.851-.908,4.213,4.213,0,0,0-2.665.752,2.506,2.506,0,0,0-.956,2.087,2.255,2.255,0,0,0,.908,1.811,8.916,8.916,0,0,0,3.092,1.353,14.318,14.318,0,0,1,3.417,1.353A5.185,5.185,0,0,1,33.1-9.2a4.406,4.406,0,0,1,.6,2.322,4.093,4.093,0,0,1-1.66,3.411A7.079,7.079,0,0,1,27.6-2.182a8.233,8.233,0,0,1-3.369-.692A5.669,5.669,0,0,1,21.82-4.769,4.624,4.624,0,0,1,20.972-7.5h2.322a3.017,3.017,0,0,0,1.173,2.508,4.939,4.939,0,0,0,3.134.92,4.54,4.54,0,0,0,2.8-.746,2.423,2.423,0,0,0,.974-2.033,2.378,2.378,0,0,0-.9-1.991A10.4,10.4,0,0,0,27.2-10.23ZM41.532-4a3.206,3.206,0,0,0,2.081-.722,2.54,2.54,0,0,0,.987-1.8h2.105a4.036,4.036,0,0,1-.77,2.129A5.071,5.071,0,0,1,44.04-2.784a5.467,5.467,0,0,1-2.508.6A5.362,5.362,0,0,1,37.3-3.956a7.068,7.068,0,0,1-1.57-4.854v-.373a7.837,7.837,0,0,1,.7-3.381,5.315,5.315,0,0,1,2-2.3,5.69,5.69,0,0,1,3.086-.818,5.221,5.221,0,0,1,3.639,1.311,4.687,4.687,0,0,1,1.546,3.4H44.6a3.067,3.067,0,0,0-.956-2.075,2.975,2.975,0,0,0-2.123-.812,3.115,3.115,0,0,0-2.629,1.221A5.735,5.735,0,0,0,37.959-9.1v.421a5.62,5.62,0,0,0,.926,3.465A3.13,3.13,0,0,0,41.532-4Zm7.086-5.053a7.689,7.689,0,0,1,.752-3.441,5.609,5.609,0,0,1,2.093-2.358,5.7,5.7,0,0,1,3.062-.83,5.49,5.49,0,0,1,4.3,1.841,7.082,7.082,0,0,1,1.642,4.9v.156a7.756,7.756,0,0,1-.728,3.411,5.527,5.527,0,0,1-2.081,2.352,5.764,5.764,0,0,1-3.11.842A5.476,5.476,0,0,1,50.26-4.023,7.046,7.046,0,0,1,48.618-8.9Zm2.238.265a5.569,5.569,0,0,0,1,3.477A3.215,3.215,0,0,0,54.549-4a3.2,3.2,0,0,0,2.695-1.329,6.09,6.09,0,0,0,1-3.723,5.559,5.559,0,0,0-1.017-3.471,3.232,3.232,0,0,0-2.7-1.329,3.2,3.2,0,0,0-2.659,1.311A6.044,6.044,0,0,0,50.856-8.787Zm18.7-4.656a6.67,6.67,0,0,0-1.095-.084,2.933,2.933,0,0,0-2.972,1.865v9.239H63.259V-15.44h2.166l.036,1.5a3.466,3.466,0,0,1,3.1-1.744,2.274,2.274,0,0,1,.987.168ZM77-2.182A5.688,5.688,0,0,1,72.691-3.92a6.452,6.452,0,0,1-1.66-4.65v-.409a7.811,7.811,0,0,1,.74-3.459A5.772,5.772,0,0,1,73.84-14.82a5.2,5.2,0,0,1,2.881-.86,4.875,4.875,0,0,1,3.946,1.672A7.24,7.24,0,0,1,82.075-9.22v.926H73.257a4.627,4.627,0,0,0,1.125,3.11A3.536,3.536,0,0,0,77.118-4a3.876,3.876,0,0,0,2-.481,5.018,5.018,0,0,0,1.432-1.275L81.907-4.7A5.466,5.466,0,0,1,77-2.182Zm-.277-11.67a2.969,2.969,0,0,0-2.262.98,4.766,4.766,0,0,0-1.131,2.749h6.521v-.168a4.239,4.239,0,0,0-.914-2.629A2.8,2.8,0,0,0,76.721-13.852Z" transform="translate(313.504 754.378)"/>
  <path id="Path_623" data-name="Path 623" class="cls-2" d="M-46.911-28.543A7.554,7.554,0,0,1-48.2-24.208a8.741,8.741,0,0,1-3.474,2.972,9.324,9.324,0,0,1,4.033,3.195,8.04,8.04,0,0,1,1.486,4.759A8.5,8.5,0,0,1-49-6.558a10.944,10.944,0,0,1-7.5,2.5,10.9,10.9,0,0,1-7.518-2.514,8.54,8.54,0,0,1-2.826-6.714A8.28,8.28,0,0,1-65.4-18.042a8.969,8.969,0,0,1,3.988-3.217,8.526,8.526,0,0,1-3.418-2.972,7.662,7.662,0,0,1-1.251-4.312,8.409,8.409,0,0,1,2.636-6.524A9.89,9.89,0,0,1-56.5-37.48a9.9,9.9,0,0,1,6.937,2.413A8.391,8.391,0,0,1-46.911-28.543Zm-3.374,15.171a6,6,0,0,0-1.732-4.446,6.141,6.141,0,0,0-4.524-1.72,6.033,6.033,0,0,0-4.48,1.7,6.064,6.064,0,0,0-1.687,4.468,5.774,5.774,0,0,0,1.642,4.357A6.3,6.3,0,0,0-56.5-7.429a6.285,6.285,0,0,0,4.558-1.6A5.761,5.761,0,0,0-50.285-13.372ZM-56.5-34.084a5.333,5.333,0,0,0-3.943,1.508,5.54,5.54,0,0,0-1.508,4.1,5.514,5.514,0,0,0,1.486,4.01,5.273,5.273,0,0,0,3.966,1.53,5.273,5.273,0,0,0,3.966-1.53,5.514,5.514,0,0,0,1.486-4.01,5.515,5.515,0,0,0-1.542-4.044A5.258,5.258,0,0,0-56.5-34.084ZM-25.105-18.8a10.113,10.113,0,0,1-3.094,2.48,8.4,8.4,0,0,1-3.943.938,8.668,8.668,0,0,1-4.9-1.385,9.005,9.005,0,0,1-3.228-3.9,13.291,13.291,0,0,1-1.139-5.552,13.542,13.542,0,0,1,1.24-5.876,9.109,9.109,0,0,1,3.519-4,10.034,10.034,0,0,1,5.318-1.385,9.085,9.085,0,0,1,7.608,3.608q2.782,3.608,2.782,9.842v1.206q0,9.5-3.754,13.863T-36.031-4.48h-.8V-7.965h.871q5.116-.089,7.865-2.67T-25.105-18.8Zm-6.368,0a6.383,6.383,0,0,0,3.832-1.274,7.507,7.507,0,0,0,2.558-3.15v-1.653a11.374,11.374,0,0,0-1.765-6.613,5.267,5.267,0,0,0-4.468-2.547A5.308,5.308,0,0,0-35.7-31.95a8.618,8.618,0,0,0-1.653,5.507,8.969,8.969,0,0,0,1.6,5.485A5.058,5.058,0,0,0-31.473-18.8ZM-14.738-6.669A2.588,2.588,0,0,1-14.1-8.457a2.426,2.426,0,0,1,1.91-.715,2.5,2.5,0,0,1,1.933.715A2.536,2.536,0,0,1-9.6-6.669a2.4,2.4,0,0,1-.659,1.72,2.544,2.544,0,0,1-1.933.693,2.469,2.469,0,0,1-1.91-.693A2.446,2.446,0,0,1-14.738-6.669ZM-1.31-20.812.343-37.033H17.01v3.821H3.851l-.983,8.87A10.5,10.5,0,0,1,8.3-25.75a8.975,8.975,0,0,1,7.06,2.938,11.515,11.515,0,0,1,2.614,7.943,11.114,11.114,0,0,1-2.715,7.92A9.894,9.894,0,0,1,7.671-4.055,10.283,10.283,0,0,1,.633-6.446a9.542,9.542,0,0,1-3.106-6.613h3.91A6.565,6.565,0,0,0,3.426-8.848,6.183,6.183,0,0,0,7.671-7.429,5.577,5.577,0,0,0,12.2-9.4a8.219,8.219,0,0,0,1.642-5.429,7.544,7.544,0,0,0-1.776-5.239,6.042,6.042,0,0,0-4.725-1.977,6.814,6.814,0,0,0-4.245,1.184L2-19.963Zm23.437-9.965A6.6,6.6,0,0,1,23.992-35.6a6.427,6.427,0,0,1,4.792-1.9,6.389,6.389,0,0,1,4.815,1.91,6.83,6.83,0,0,1,1.843,4.949v1.586a6.516,6.516,0,0,1-1.866,4.815,6.431,6.431,0,0,1-4.748,1.866,6.573,6.573,0,0,1-4.8-1.866,6.653,6.653,0,0,1-1.9-4.971Zm3.083,1.72a4.212,4.212,0,0,0,.983,2.871,3.321,3.321,0,0,0,2.636,1.128,3.256,3.256,0,0,0,2.558-1.095,4.349,4.349,0,0,0,.972-2.994v-1.631a4.317,4.317,0,0,0-.961-2.882A3.24,3.24,0,0,0,28.785-34.8a3.24,3.24,0,0,0-2.614,1.139,4.453,4.453,0,0,0-.961,2.972ZM37.968-12.478a6.563,6.563,0,0,1,1.866-4.815,6.447,6.447,0,0,1,4.792-1.888,6.5,6.5,0,0,1,4.8,1.877,6.734,6.734,0,0,1,1.877,4.982v1.586a6.563,6.563,0,0,1-1.866,4.815,6.419,6.419,0,0,1-4.77,1.888,6.573,6.573,0,0,1-4.8-1.866,6.653,6.653,0,0,1-1.9-4.971Zm3.083,1.743a4.245,4.245,0,0,0,.983,2.893A3.321,3.321,0,0,0,44.67-6.714,3.233,3.233,0,0,0,47.24-7.82a4.426,4.426,0,0,0,.961-3.005v-1.653a4.232,4.232,0,0,0-.972-2.882,3.277,3.277,0,0,0-2.6-1.117,3.309,3.309,0,0,0-2.581,1.106,4.3,4.3,0,0,0-.994,2.983ZM29.768-6.96,27.422-8.434,43.308-33.86l2.346,1.475Z" transform="translate(309.841 884.05)"/>
  <path id="Path_624" data-name="Path 624" class="cls-2" d="M-50.415-16.634h-10.9v-3.374h10.9ZM-25.5-4.5H-46.818V-7.474l11.261-12.512A26.752,26.752,0,0,0-32.106-24.6a7.7,7.7,0,0,0,.95-3.675A5.837,5.837,0,0,0-32.7-32.453a5.39,5.39,0,0,0-4.111-1.631A6.384,6.384,0,0,0-41.6-32.33a6.7,6.7,0,0,0-1.709,4.882h-4.133a9.6,9.6,0,0,1,2.893-7.261,10.726,10.726,0,0,1,7.742-2.77A10.307,10.307,0,0,1-29.637-35.1,8.117,8.117,0,0,1-27-28.766q0,4.8-6.122,11.439l-8.714,9.451H-25.5Zm4.893-2.167a2.588,2.588,0,0,1,.637-1.787,2.426,2.426,0,0,1,1.91-.715,2.5,2.5,0,0,1,1.933.715,2.536,2.536,0,0,1,.659,1.787,2.4,2.4,0,0,1-.659,1.72,2.544,2.544,0,0,1-1.933.693,2.469,2.469,0,0,1-1.91-.693A2.446,2.446,0,0,1-20.61-6.669ZM12.233-4.5H-9.082V-7.474L2.179-19.985A26.752,26.752,0,0,0,5.631-24.6a7.7,7.7,0,0,0,.95-3.675,5.837,5.837,0,0,0-1.542-4.178A5.39,5.39,0,0,0,.928-34.084,6.384,6.384,0,0,0-3.865-32.33a6.7,6.7,0,0,0-1.709,4.882H-9.707a9.6,9.6,0,0,1,2.893-7.261A10.726,10.726,0,0,1,.928-37.48,10.307,10.307,0,0,1,8.1-35.1a8.116,8.116,0,0,1,2.636,6.334q0,4.8-6.122,11.439L-4.1-7.876H12.233Zm4.022-26.275A6.6,6.6,0,0,1,18.12-35.6a6.427,6.427,0,0,1,4.792-1.9,6.389,6.389,0,0,1,4.815,1.91,6.83,6.83,0,0,1,1.843,4.949v1.586a6.516,6.516,0,0,1-1.866,4.815,6.431,6.431,0,0,1-4.748,1.866,6.573,6.573,0,0,1-4.8-1.866,6.653,6.653,0,0,1-1.9-4.971Zm3.083,1.72a4.212,4.212,0,0,0,.983,2.871,3.321,3.321,0,0,0,2.636,1.128,3.256,3.256,0,0,0,2.558-1.095,4.349,4.349,0,0,0,.972-2.994v-1.631a4.317,4.317,0,0,0-.961-2.882A3.24,3.24,0,0,0,22.913-34.8,3.24,3.24,0,0,0,20.3-33.659a4.453,4.453,0,0,0-.961,2.972ZM32.1-12.478a6.563,6.563,0,0,1,1.866-4.815,6.447,6.447,0,0,1,4.792-1.888,6.5,6.5,0,0,1,4.8,1.877,6.734,6.734,0,0,1,1.877,4.982v1.586a6.563,6.563,0,0,1-1.866,4.815A6.419,6.419,0,0,1,38.8-4.033a6.573,6.573,0,0,1-4.8-1.866,6.653,6.653,0,0,1-1.9-4.971Zm3.083,1.743a4.245,4.245,0,0,0,.983,2.893A3.321,3.321,0,0,0,38.8-6.714,3.233,3.233,0,0,0,41.368-7.82a4.426,4.426,0,0,0,.961-3.005v-1.653a4.232,4.232,0,0,0-.972-2.882,3.277,3.277,0,0,0-2.6-1.117,3.309,3.309,0,0,0-2.581,1.106,4.3,4.3,0,0,0-.994,2.983ZM23.9-6.96,21.55-8.434,37.435-33.86l2.346,1.475Z" transform="translate(711.318 885.81)"/>
  <path id="Path_625" data-name="Path 625" class="cls-2" d="M-46.911-28.543A7.554,7.554,0,0,1-48.2-24.208a8.741,8.741,0,0,1-3.474,2.972,9.324,9.324,0,0,1,4.033,3.195,8.04,8.04,0,0,1,1.486,4.759A8.5,8.5,0,0,1-49-6.558a10.944,10.944,0,0,1-7.5,2.5,10.9,10.9,0,0,1-7.518-2.514,8.54,8.54,0,0,1-2.826-6.714A8.28,8.28,0,0,1-65.4-18.042a8.969,8.969,0,0,1,3.988-3.217,8.526,8.526,0,0,1-3.418-2.972,7.662,7.662,0,0,1-1.251-4.312,8.409,8.409,0,0,1,2.636-6.524A9.89,9.89,0,0,1-56.5-37.48a9.9,9.9,0,0,1,6.937,2.413A8.391,8.391,0,0,1-46.911-28.543Zm-3.374,15.171a6,6,0,0,0-1.732-4.446,6.141,6.141,0,0,0-4.524-1.72,6.033,6.033,0,0,0-4.48,1.7,6.064,6.064,0,0,0-1.687,4.468,5.774,5.774,0,0,0,1.642,4.357A6.3,6.3,0,0,0-56.5-7.429a6.285,6.285,0,0,0,4.558-1.6A5.761,5.761,0,0,0-50.285-13.372ZM-56.5-34.084a5.333,5.333,0,0,0-3.943,1.508,5.54,5.54,0,0,0-1.508,4.1,5.514,5.514,0,0,0,1.486,4.01,5.273,5.273,0,0,0,3.966,1.53,5.273,5.273,0,0,0,3.966-1.53,5.514,5.514,0,0,0,1.486-4.01,5.515,5.515,0,0,0-1.542-4.044A5.258,5.258,0,0,0-56.5-34.084Zm36.552-.626L-33.417-4.5h-4.334l13.428-29.135H-41.929v-3.4h21.985Zm5.206,28.04A2.588,2.588,0,0,1-14.1-8.457a2.426,2.426,0,0,1,1.91-.715,2.5,2.5,0,0,1,1.933.715A2.536,2.536,0,0,1-9.6-6.669a2.4,2.4,0,0,1-.659,1.72,2.544,2.544,0,0,1-1.933.693,2.469,2.469,0,0,1-1.91-.693A2.446,2.446,0,0,1-14.738-6.669ZM2.8-22.778H5.906a6.826,6.826,0,0,0,4.6-1.542,5.151,5.151,0,0,0,1.676-4.044q0-5.72-5.7-5.72a5.926,5.926,0,0,0-4.279,1.53A5.356,5.356,0,0,0,.611-28.5H-3.522A8.3,8.3,0,0,1-.7-34.921,10.3,10.3,0,0,1,6.487-37.48,10.174,10.174,0,0,1,13.7-35.044a8.8,8.8,0,0,1,2.614,6.77,7.141,7.141,0,0,1-1.374,4.111A8.3,8.3,0,0,1,11.2-21.192a7.994,7.994,0,0,1,4.145,2.815,7.818,7.818,0,0,1,1.463,4.8,8.874,8.874,0,0,1-2.86,6.949,10.709,10.709,0,0,1-7.44,2.569A10.992,10.992,0,0,1-.942-6.535a8.227,8.227,0,0,1-2.871-6.546H.343A5.317,5.317,0,0,0,2.019-8.971,6.373,6.373,0,0,0,6.509-7.429a6.254,6.254,0,0,0,4.58-1.564,6.027,6.027,0,0,0,1.586-4.491,5.469,5.469,0,0,0-1.743-4.357A7.593,7.593,0,0,0,5.906-19.4H2.8Zm19.326-8A6.6,6.6,0,0,1,23.992-35.6a6.427,6.427,0,0,1,4.792-1.9,6.389,6.389,0,0,1,4.815,1.91,6.83,6.83,0,0,1,1.843,4.949v1.586a6.516,6.516,0,0,1-1.866,4.815,6.431,6.431,0,0,1-4.748,1.866,6.573,6.573,0,0,1-4.8-1.866,6.653,6.653,0,0,1-1.9-4.971Zm3.083,1.72a4.212,4.212,0,0,0,.983,2.871,3.321,3.321,0,0,0,2.636,1.128,3.256,3.256,0,0,0,2.558-1.095,4.349,4.349,0,0,0,.972-2.994v-1.631a4.317,4.317,0,0,0-.961-2.882A3.24,3.24,0,0,0,28.785-34.8a3.24,3.24,0,0,0-2.614,1.139,4.453,4.453,0,0,0-.961,2.972ZM37.968-12.478a6.563,6.563,0,0,1,1.866-4.815,6.447,6.447,0,0,1,4.792-1.888,6.5,6.5,0,0,1,4.8,1.877,6.734,6.734,0,0,1,1.877,4.982v1.586a6.563,6.563,0,0,1-1.866,4.815,6.419,6.419,0,0,1-4.77,1.888,6.573,6.573,0,0,1-4.8-1.866,6.653,6.653,0,0,1-1.9-4.971Zm3.083,1.743a4.245,4.245,0,0,0,.983,2.893A3.321,3.321,0,0,0,44.67-6.714,3.233,3.233,0,0,0,47.24-7.82a4.426,4.426,0,0,0,.961-3.005v-1.653a4.232,4.232,0,0,0-.972-2.882,3.277,3.277,0,0,0-2.6-1.117,3.309,3.309,0,0,0-2.581,1.106,4.3,4.3,0,0,0-.994,2.983ZM29.768-6.96,27.422-8.434,43.308-33.86l2.346,1.475Z" transform="translate(1111.841 885.81)"/>
  <path id="Path_621" data-name="Path 621" class="cls-2" d="M-92.509-10.257H-99.86v7.736h-2.31V-20.038h10.852v1.9H-99.86v5.991h7.351Zm6.027,7.736h-2.226V-15.538h2.226Zm-2.406-16.47a1.329,1.329,0,0,1,.331-.914,1.242,1.242,0,0,1,.98-.373,1.261,1.261,0,0,1,.987.373,1.315,1.315,0,0,1,.337.914,1.271,1.271,0,0,1-.337.9,1.284,1.284,0,0,1-.987.361,1.264,1.264,0,0,1-.98-.361A1.285,1.285,0,0,1-88.888-18.991Zm12.259,5.45a6.67,6.67,0,0,0-1.095-.084A2.933,2.933,0,0,0-80.7-11.761v9.239h-2.226V-15.538h2.165l.036,1.5a3.466,3.466,0,0,1,3.1-1.744,2.274,2.274,0,0,1,.987.168ZM-67-5.974a1.638,1.638,0,0,0-.68-1.4,6.543,6.543,0,0,0-2.37-.86A11.205,11.205,0,0,1-72.737-9.1,3.817,3.817,0,0,1-74.2-10.3a2.878,2.878,0,0,1-.475-1.66,3.377,3.377,0,0,1,1.353-2.707,5.286,5.286,0,0,1,3.459-1.107,5.439,5.439,0,0,1,3.591,1.143A3.63,3.63,0,0,1-64.9-11.712h-2.238a2.009,2.009,0,0,0-.776-1.576,2.907,2.907,0,0,0-1.955-.662,3.043,3.043,0,0,0-1.9.529,1.666,1.666,0,0,0-.686,1.384,1.35,1.35,0,0,0,.638,1.215,7.845,7.845,0,0,0,2.3.782,12,12,0,0,1,2.7.89A3.94,3.94,0,0,1-65.278-7.9a3.062,3.062,0,0,1,.5,1.775,3.331,3.331,0,0,1-1.4,2.8A5.854,5.854,0,0,1-69.8-2.28a6.555,6.555,0,0,1-2.767-.553A4.5,4.5,0,0,1-74.446-4.38a3.726,3.726,0,0,1-.68-2.147H-72.9A2.3,2.3,0,0,0-72-4.753,3.477,3.477,0,0,0-69.8-4.1a3.589,3.589,0,0,0,2.027-.511A1.571,1.571,0,0,0-67-5.974ZM-58.86-18.69v3.152h2.43v1.72h-2.43v8.073a1.8,1.8,0,0,0,.325,1.173,1.368,1.368,0,0,0,1.107.391,5.389,5.389,0,0,0,1.059-.144v1.8a6.452,6.452,0,0,1-1.708.241,2.772,2.772,0,0,1-2.25-.9,3.876,3.876,0,0,1-.758-2.563v-8.073h-2.37v-1.72h2.37V-18.69ZM-44.4-20.038l5.727,14.292,5.727-14.292h3V-2.521h-2.31V-9.342l.217-7.363L-37.794-2.521h-1.768L-45.3-16.669l.229,7.327v6.821h-2.31V-20.038ZM-23.8-2.521h-2.226V-15.538H-23.8Zm-2.406-16.47a1.329,1.329,0,0,1,.331-.914,1.242,1.242,0,0,1,.98-.373,1.261,1.261,0,0,1,.987.373,1.315,1.315,0,0,1,.337.914,1.271,1.271,0,0,1-.337.9,1.284,1.284,0,0,1-.987.361,1.264,1.264,0,0,1-.98-.361A1.285,1.285,0,0,1-26.209-18.991Zm8.385,16.47h-2.226V-21h2.226Zm8.963.241a5.688,5.688,0,0,1-4.307-1.738,6.452,6.452,0,0,1-1.66-4.65v-.409a7.811,7.811,0,0,1,.74-3.459,5.772,5.772,0,0,1,2.069-2.382,5.2,5.2,0,0,1,2.881-.86,4.875,4.875,0,0,1,3.946,1.672A7.24,7.24,0,0,1-3.784-9.318v.926H-12.6a4.627,4.627,0,0,0,1.125,3.11A3.536,3.536,0,0,0-8.741-4.1a3.876,3.876,0,0,0,2-.481A5.018,5.018,0,0,0-5.312-5.854l1.359,1.059A5.466,5.466,0,0,1-8.861-2.28Zm-.277-11.67a2.969,2.969,0,0,0-2.262.98,4.766,4.766,0,0,0-1.131,2.749H-6.01v-.168a4.239,4.239,0,0,0-.914-2.629A2.8,2.8,0,0,0-9.138-13.95ZM7.717-2.521H5.407V-20.038h2.31Zm5.967-13.017.06,1.444a4.807,4.807,0,0,1,3.862-1.684,3.722,3.722,0,0,1,3.717,2.093,4.931,4.931,0,0,1,1.69-1.516,4.992,4.992,0,0,1,2.46-.577q4.283,0,4.355,4.536v8.722H27.6v-8.59a2.989,2.989,0,0,0-.638-2.087,2.808,2.808,0,0,0-2.141-.692,2.951,2.951,0,0,0-2.057.74,3,3,0,0,0-.95,1.991v8.638H19.579v-8.53q0-2.839-2.779-2.839a2.978,2.978,0,0,0-3,1.865v9.5H11.579V-15.538Zm30.5,6.653A7.794,7.794,0,0,1,42.822-4.1,4.357,4.357,0,0,1,39.141-2.28a4.774,4.774,0,0,1-3.729-1.5V2.484H33.186V-15.538h2.033l.108,1.444A4.585,4.585,0,0,1,39.1-15.779a4.439,4.439,0,0,1,3.711,1.768,7.879,7.879,0,0,1,1.365,4.92Zm-2.226-.253a5.751,5.751,0,0,0-.938-3.477,3.023,3.023,0,0,0-2.575-1.275A3.272,3.272,0,0,0,35.412-12.1v6.22A3.278,3.278,0,0,0,38.467-4.1a3.009,3.009,0,0,0,2.544-1.269A6.278,6.278,0,0,0,41.956-9.138ZM55.045-2.521a4.675,4.675,0,0,1-.313-1.371A4.966,4.966,0,0,1,51.027-2.28a4.6,4.6,0,0,1-3.158-1.089A3.523,3.523,0,0,1,46.636-6.13a3.68,3.68,0,0,1,1.546-3.158,7.289,7.289,0,0,1,4.349-1.125H54.7v-1.023a2.5,2.5,0,0,0-.7-1.859,2.8,2.8,0,0,0-2.057-.692,3.245,3.245,0,0,0-2,.6,1.772,1.772,0,0,0-.806,1.456H46.9a3.072,3.072,0,0,1,.692-1.883,4.721,4.721,0,0,1,1.877-1.438,6.314,6.314,0,0,1,2.6-.529A5.146,5.146,0,0,1,55.6-14.654a4.058,4.058,0,0,1,1.323,3.1v5.991a7.325,7.325,0,0,0,.457,2.851v.192Zm-3.693-1.7a3.912,3.912,0,0,0,1.985-.541A3.275,3.275,0,0,0,54.7-6.166V-8.837H52.952q-4.09,0-4.09,2.394a2.026,2.026,0,0,0,.7,1.636A2.682,2.682,0,0,0,51.352-4.217Zm14.28.12a3.206,3.206,0,0,0,2.081-.722,2.54,2.54,0,0,0,.987-1.8h2.105a4.036,4.036,0,0,1-.77,2.129,5.071,5.071,0,0,1-1.895,1.612,5.467,5.467,0,0,1-2.508.6A5.362,5.362,0,0,1,61.4-4.055a7.068,7.068,0,0,1-1.57-4.854v-.373a7.837,7.837,0,0,1,.7-3.381,5.315,5.315,0,0,1,2-2.3,5.69,5.69,0,0,1,3.086-.818,5.221,5.221,0,0,1,3.639,1.311,4.687,4.687,0,0,1,1.546,3.4H68.7a3.067,3.067,0,0,0-.956-2.075,2.975,2.975,0,0,0-2.123-.812,3.115,3.115,0,0,0-2.629,1.221A5.735,5.735,0,0,0,62.059-9.2v.421a5.62,5.62,0,0,0,.926,3.465A3.13,3.13,0,0,0,65.632-4.1Zm10.7-14.593v3.152h2.43v1.72h-2.43v8.073a1.8,1.8,0,0,0,.325,1.173,1.368,1.368,0,0,0,1.107.391,5.388,5.388,0,0,0,1.059-.144v1.8a6.452,6.452,0,0,1-1.708.241,2.772,2.772,0,0,1-2.25-.9A3.876,3.876,0,0,1,74.1-5.745v-8.073h-2.37v-1.72H74.1V-18.69Z" transform="translate(714.17 754.476)"/>
  <path id="Path_622" data-name="Path 622" class="cls-2" d="M-66.234-10.714A10.836,10.836,0,0,1-67.1-6.22a6.561,6.561,0,0,1-2.454,2.929A6.752,6.752,0,0,1-73.26-2.28,6.7,6.7,0,0,1-76.93-3.3a6.718,6.718,0,0,1-2.484-2.9,10.4,10.4,0,0,1-.908-4.361v-1.263a10.707,10.707,0,0,1,.878-4.463A6.694,6.694,0,0,1-76.96-19.25a6.666,6.666,0,0,1,3.675-1.029,6.79,6.79,0,0,1,3.711,1.017A6.549,6.549,0,0,1-67.1-16.314a10.888,10.888,0,0,1,.866,4.493Zm-2.3-1.131a7.854,7.854,0,0,0-1.251-4.782,4.127,4.127,0,0,0-3.5-1.666,4.082,4.082,0,0,0-3.447,1.666A7.693,7.693,0,0,0-78.024-12v1.287a7.865,7.865,0,0,0,1.269,4.746A4.1,4.1,0,0,0-73.26-4.241,4.083,4.083,0,0,0-69.8-5.872a7.821,7.821,0,0,0,1.263-4.674Zm9.709,6.3,3.224-10h2.274L-57.994-2.521h-1.7l-4.716-13.017h2.274Zm13.041,3.26a5.688,5.688,0,0,1-4.307-1.738,6.452,6.452,0,0,1-1.66-4.65v-.409a7.811,7.811,0,0,1,.74-3.459,5.772,5.772,0,0,1,2.069-2.382,5.2,5.2,0,0,1,2.881-.86,4.875,4.875,0,0,1,3.946,1.672,7.24,7.24,0,0,1,1.408,4.788v.926h-8.818A4.627,4.627,0,0,0-48.4-5.282,3.536,3.536,0,0,0-45.662-4.1a3.876,3.876,0,0,0,2-.481,5.018,5.018,0,0,0,1.432-1.275l1.359,1.059A5.466,5.466,0,0,1-45.783-2.28Zm-.277-11.67a2.969,2.969,0,0,0-2.262.98,4.766,4.766,0,0,0-1.131,2.749h6.521v-.168a4.239,4.239,0,0,0-.914-2.629A2.8,2.8,0,0,0-46.059-13.95Zm14.22.409a6.67,6.67,0,0,0-1.095-.084,2.933,2.933,0,0,0-2.972,1.865v9.239h-2.226V-15.538h2.166l.036,1.5a3.466,3.466,0,0,1,3.1-1.744,2.274,2.274,0,0,1,.987.168Zm9.6,11.02a4.675,4.675,0,0,1-.313-1.371A4.966,4.966,0,0,1-26.257-2.28a4.6,4.6,0,0,1-3.158-1.089A3.523,3.523,0,0,1-30.648-6.13,3.68,3.68,0,0,1-29.1-9.288a7.289,7.289,0,0,1,4.349-1.125h2.166v-1.023a2.5,2.5,0,0,0-.7-1.859,2.8,2.8,0,0,0-2.057-.692,3.245,3.245,0,0,0-2,.6,1.772,1.772,0,0,0-.806,1.456h-2.238a3.072,3.072,0,0,1,.692-1.883,4.721,4.721,0,0,1,1.877-1.438,6.314,6.314,0,0,1,2.6-.529,5.146,5.146,0,0,1,3.525,1.125,4.058,4.058,0,0,1,1.323,3.1v5.991A7.325,7.325,0,0,0-19.9-2.714v.192Zm-3.693-1.7a3.912,3.912,0,0,0,1.985-.541,3.275,3.275,0,0,0,1.359-1.408V-8.837h-1.744q-4.09,0-4.09,2.394a2.026,2.026,0,0,0,.7,1.636A2.682,2.682,0,0,0-25.932-4.217Zm11.477,1.7h-2.226V-21h2.226Zm5.979,0H-10.7V-21h2.226ZM6.695-10.329a10.861,10.861,0,0,1-4.325-2.1A4.011,4.011,0,0,1,1.016-15.5a4.237,4.237,0,0,1,1.654-3.423,6.574,6.574,0,0,1,4.3-1.353,7.176,7.176,0,0,1,3.218.7,5.292,5.292,0,0,1,2.19,1.925,4.922,4.922,0,0,1,.776,2.683H10.833a3.186,3.186,0,0,0-1.011-2.5,4.119,4.119,0,0,0-2.851-.908,4.213,4.213,0,0,0-2.665.752,2.506,2.506,0,0,0-.956,2.087,2.255,2.255,0,0,0,.908,1.811A8.916,8.916,0,0,0,7.35-12.374a14.318,14.318,0,0,1,3.417,1.353A5.185,5.185,0,0,1,12.6-9.294a4.406,4.406,0,0,1,.6,2.322,4.093,4.093,0,0,1-1.66,3.411A7.079,7.079,0,0,1,7.092-2.28a8.233,8.233,0,0,1-3.369-.692A5.669,5.669,0,0,1,1.311-4.867,4.624,4.624,0,0,1,.463-7.6H2.785A3.017,3.017,0,0,0,3.958-5.09a4.939,4.939,0,0,0,3.134.92,4.54,4.54,0,0,0,2.8-.746,2.423,2.423,0,0,0,.974-2.033,2.378,2.378,0,0,0-.9-1.991A10.4,10.4,0,0,0,6.695-10.329ZM21.023-4.1A3.206,3.206,0,0,0,23.1-4.819a2.54,2.54,0,0,0,.987-1.8H26.2a4.036,4.036,0,0,1-.77,2.129,5.071,5.071,0,0,1-1.895,1.612,5.467,5.467,0,0,1-2.508.6,5.362,5.362,0,0,1-4.229-1.775,7.068,7.068,0,0,1-1.57-4.854v-.373a7.837,7.837,0,0,1,.7-3.381,5.315,5.315,0,0,1,2-2.3,5.69,5.69,0,0,1,3.086-.818,5.221,5.221,0,0,1,3.639,1.311,4.687,4.687,0,0,1,1.546,3.4H24.091a3.067,3.067,0,0,0-.956-2.075,2.975,2.975,0,0,0-2.123-.812,3.115,3.115,0,0,0-2.629,1.221A5.735,5.735,0,0,0,17.45-9.2v.421a5.62,5.62,0,0,0,.926,3.465A3.13,3.13,0,0,0,21.023-4.1ZM28.109-9.15a7.689,7.689,0,0,1,.752-3.441,5.609,5.609,0,0,1,2.093-2.358,5.7,5.7,0,0,1,3.062-.83,5.49,5.49,0,0,1,4.3,1.841,7.082,7.082,0,0,1,1.642,4.9v.156a7.756,7.756,0,0,1-.728,3.411A5.527,5.527,0,0,1,37.15-3.123a5.764,5.764,0,0,1-3.11.842,5.476,5.476,0,0,1-4.289-1.841,7.046,7.046,0,0,1-1.642-4.872Zm2.238.265a5.569,5.569,0,0,0,1,3.477A3.215,3.215,0,0,0,34.04-4.1a3.2,3.2,0,0,0,2.695-1.329,6.09,6.09,0,0,0,1-3.723,5.559,5.559,0,0,0-1.017-3.471,3.232,3.232,0,0,0-2.7-1.329,3.2,3.2,0,0,0-2.659,1.311A6.044,6.044,0,0,0,30.347-8.885Zm18.7-4.656a6.67,6.67,0,0,0-1.095-.084,2.933,2.933,0,0,0-2.972,1.865v9.239H42.75V-15.538h2.165l.036,1.5a3.466,3.466,0,0,1,3.1-1.744,2.274,2.274,0,0,1,.987.168ZM56.489-2.28a5.688,5.688,0,0,1-4.307-1.738,6.452,6.452,0,0,1-1.66-4.65v-.409a7.811,7.811,0,0,1,.74-3.459,5.772,5.772,0,0,1,2.069-2.382,5.2,5.2,0,0,1,2.881-.86,4.875,4.875,0,0,1,3.946,1.672,7.24,7.24,0,0,1,1.408,4.788v.926H52.748a4.627,4.627,0,0,0,1.125,3.11A3.536,3.536,0,0,0,56.61-4.1a3.876,3.876,0,0,0,2-.481,5.018,5.018,0,0,0,1.432-1.275L61.4-4.795A5.466,5.466,0,0,1,56.489-2.28Zm-.277-11.67a2.969,2.969,0,0,0-2.262.98,4.766,4.766,0,0,0-1.131,2.749H59.34v-.168a4.239,4.239,0,0,0-.914-2.629A2.8,2.8,0,0,0,56.213-13.95Z" transform="translate(1113.322 756.236)"/>
  <path id="Path_626" data-name="Path 626" class="cls-2" d="M-44.387-8.079A6.445,6.445,0,0,1-46.438-3.79a6.722,6.722,0,0,1-4.59,1.51A6.172,6.172,0,0,1-56-4.506a8.954,8.954,0,0,1-1.871-5.955v-1.684A9.98,9.98,0,0,1-57-16.44a6.515,6.515,0,0,1,2.472-2.845,6.884,6.884,0,0,1,3.705-.993,6.33,6.33,0,0,1,4.475,1.558,6.522,6.522,0,0,1,1.961,4.313h-2.322a5.011,5.011,0,0,0-1.305-3.032,3.957,3.957,0,0,0-2.809-.938,4.134,4.134,0,0,0-3.471,1.636,7.506,7.506,0,0,0-1.257,4.656v1.7A7.716,7.716,0,0,0-54.36-5.854a3.849,3.849,0,0,0,3.332,1.684,4.445,4.445,0,0,0,2.953-.872,4.84,4.84,0,0,0,1.365-3.038Zm2.214-1.071a7.689,7.689,0,0,1,.752-3.441,5.609,5.609,0,0,1,2.093-2.358,5.7,5.7,0,0,1,3.062-.83,5.49,5.49,0,0,1,4.3,1.841,7.082,7.082,0,0,1,1.642,4.9v.156a7.756,7.756,0,0,1-.728,3.411,5.527,5.527,0,0,1-2.081,2.352,5.764,5.764,0,0,1-3.11.842,5.476,5.476,0,0,1-4.289-1.841,7.046,7.046,0,0,1-1.642-4.872Zm2.238.265a5.569,5.569,0,0,0,1,3.477A3.215,3.215,0,0,0-36.242-4.1a3.2,3.2,0,0,0,2.695-1.329,6.09,6.09,0,0,0,1-3.723,5.559,5.559,0,0,0-1.017-3.471,3.232,3.232,0,0,0-2.7-1.329,3.2,3.2,0,0,0-2.659,1.311A6.044,6.044,0,0,0-39.935-8.885Zm14.822,6.364h-2.226V-21h2.226Zm2.972-6.629a7.689,7.689,0,0,1,.752-3.441A5.609,5.609,0,0,1-19.3-14.949a5.7,5.7,0,0,1,3.062-.83,5.49,5.49,0,0,1,4.3,1.841,7.082,7.082,0,0,1,1.642,4.9v.156a7.756,7.756,0,0,1-.728,3.411A5.527,5.527,0,0,1-13.1-3.123a5.764,5.764,0,0,1-3.11.842A5.476,5.476,0,0,1-20.5-4.121a7.046,7.046,0,0,1-1.642-4.872Zm2.238.265a5.569,5.569,0,0,0,1,3.477A3.215,3.215,0,0,0-16.211-4.1a3.2,3.2,0,0,0,2.695-1.329,6.09,6.09,0,0,0,1-3.723,5.559,5.559,0,0,0-1.017-3.471,3.232,3.232,0,0,0-2.7-1.329,3.2,3.2,0,0,0-2.659,1.311A6.044,6.044,0,0,0-19.9-8.885Zm18.7-4.656A6.67,6.67,0,0,0-2.3-13.625a2.933,2.933,0,0,0-2.972,1.865v9.239H-7.5V-15.538h2.166l.036,1.5a3.466,3.466,0,0,1,3.1-1.744,2.274,2.274,0,0,1,.987.168Zm12.945,2.875L9.594-8.44v5.919H7.284V-20.038h2.31v8.662l7.784-8.662h2.791L13.276-12.3l7.435,9.781H17.944ZM27.785-2.28a5.688,5.688,0,0,1-4.307-1.738,6.452,6.452,0,0,1-1.66-4.65v-.409a7.811,7.811,0,0,1,.74-3.459,5.772,5.772,0,0,1,2.069-2.382,5.2,5.2,0,0,1,2.881-.86,4.875,4.875,0,0,1,3.946,1.672,7.24,7.24,0,0,1,1.408,4.788v.926H24.043a4.627,4.627,0,0,0,1.125,3.11A3.536,3.536,0,0,0,27.9-4.1a3.876,3.876,0,0,0,2-.481,5.018,5.018,0,0,0,1.432-1.275l1.359,1.059A5.466,5.466,0,0,1,27.785-2.28Zm-.277-11.67a2.969,2.969,0,0,0-2.262.98,4.766,4.766,0,0,0-1.131,2.749h6.521v-.168a4.239,4.239,0,0,0-.914-2.629A2.8,2.8,0,0,0,27.508-13.95ZM39.695-5.781l3.032-9.757h2.382L39.875-.512Q38.66,2.736,36.013,2.736L35.592,2.7l-.83-.156V.739l.6.048A2.962,2.962,0,0,0,37.126.33a3.308,3.308,0,0,0,1.041-1.672l.493-1.323L34.016-15.538h2.43Z" transform="translate(1388.274 692)"/>
  <path id="Path_627" data-name="Path 627" class="cls-2" d="M11.971-10.257H4.62v7.736H2.311V-20.038H13.162v1.9H4.62v5.991h7.351ZM18-2.521H15.773V-15.538H18Zm-2.406-16.47a1.329,1.329,0,0,1,.331-.914,1.242,1.242,0,0,1,.98-.373,1.261,1.261,0,0,1,.987.373,1.315,1.315,0,0,1,.337.914,1.271,1.271,0,0,1-.337.9,1.284,1.284,0,0,1-.987.361,1.264,1.264,0,0,1-.98-.361A1.285,1.285,0,0,1,15.592-18.991Zm12.259,5.45a6.67,6.67,0,0,0-1.095-.084,2.933,2.933,0,0,0-2.972,1.865v9.239H21.559V-15.538h2.166l.036,1.5a3.466,3.466,0,0,1,3.1-1.744,2.274,2.274,0,0,1,.987.168Zm9.624,7.567a1.638,1.638,0,0,0-.68-1.4,6.543,6.543,0,0,0-2.37-.86A11.205,11.205,0,0,1,31.743-9.1a3.817,3.817,0,0,1-1.468-1.2,2.878,2.878,0,0,1-.475-1.66,3.377,3.377,0,0,1,1.353-2.707,5.286,5.286,0,0,1,3.459-1.107A5.439,5.439,0,0,1,38.2-14.636a3.63,3.63,0,0,1,1.377,2.923H37.344a2.009,2.009,0,0,0-.776-1.576,2.907,2.907,0,0,0-1.955-.662,3.043,3.043,0,0,0-1.9.529,1.666,1.666,0,0,0-.686,1.384,1.35,1.35,0,0,0,.638,1.215,7.845,7.845,0,0,0,2.3.782,12,12,0,0,1,2.7.89A3.94,3.94,0,0,1,39.2-7.9a3.062,3.062,0,0,1,.5,1.775,3.331,3.331,0,0,1-1.4,2.8A5.854,5.854,0,0,1,34.685-2.28a6.555,6.555,0,0,1-2.767-.553A4.5,4.5,0,0,1,30.035-4.38a3.726,3.726,0,0,1-.68-2.147h2.226a2.3,2.3,0,0,0,.9,1.775,3.477,3.477,0,0,0,2.208.656,3.589,3.589,0,0,0,2.027-.511A1.571,1.571,0,0,0,37.476-5.974ZM45.621-18.69v3.152h2.43v1.72h-2.43v8.073a1.8,1.8,0,0,0,.325,1.173,1.368,1.368,0,0,0,1.107.391,5.388,5.388,0,0,0,1.059-.144v1.8A6.452,6.452,0,0,1,46.4-2.28a2.772,2.772,0,0,1-2.25-.9,3.876,3.876,0,0,1-.758-2.563v-8.073h-2.37v-1.72h2.37V-18.69Zm14.461-1.347L65.808-5.745l5.727-14.292h3V-2.521H72.22V-9.342l.217-7.363L66.686-2.521H64.918L59.179-16.669l.229,7.327v6.821H57.1V-20.038Zm20.6,17.516H78.452V-15.538h2.226Zm-2.406-16.47a1.329,1.329,0,0,1,.331-.914,1.242,1.242,0,0,1,.98-.373,1.261,1.261,0,0,1,.987.373,1.315,1.315,0,0,1,.337.914,1.271,1.271,0,0,1-.337.9,1.284,1.284,0,0,1-.987.361,1.264,1.264,0,0,1-.98-.361A1.285,1.285,0,0,1,78.271-18.991Zm8.385,16.47H84.431V-21h2.226Zm8.963.241a5.688,5.688,0,0,1-4.307-1.738,6.452,6.452,0,0,1-1.66-4.65v-.409a7.811,7.811,0,0,1,.74-3.459,5.772,5.772,0,0,1,2.069-2.382,5.2,5.2,0,0,1,2.881-.86,4.875,4.875,0,0,1,3.946,1.672A7.24,7.24,0,0,1,100.7-9.318v.926H91.878A4.627,4.627,0,0,0,93-5.282,3.536,3.536,0,0,0,95.74-4.1a3.876,3.876,0,0,0,2-.481,5.018,5.018,0,0,0,1.432-1.275l1.359,1.059A5.466,5.466,0,0,1,95.62-2.28Zm-.277-11.67a2.969,2.969,0,0,0-2.262.98,4.766,4.766,0,0,0-1.131,2.749h6.521v-.168a4.239,4.239,0,0,0-.914-2.629A2.8,2.8,0,0,0,95.343-13.95ZM112.2-2.521h-2.31V-20.038h2.31Zm5.967-13.017.06,1.444a4.807,4.807,0,0,1,3.862-1.684,3.722,3.722,0,0,1,3.717,2.093,4.931,4.931,0,0,1,1.69-1.516,4.992,4.992,0,0,1,2.46-.577q4.283,0,4.355,4.536v8.722h-2.226v-8.59a2.989,2.989,0,0,0-.638-2.087,2.808,2.808,0,0,0-2.141-.692,2.951,2.951,0,0,0-2.057.74,3,3,0,0,0-.95,1.991v8.638H124.06v-8.53q0-2.839-2.779-2.839a2.978,2.978,0,0,0-3,1.865v9.5h-2.226V-15.538Zm30.5,6.653A7.794,7.794,0,0,1,147.3-4.1a4.357,4.357,0,0,1-3.681,1.817,4.774,4.774,0,0,1-3.729-1.5V2.484h-2.226V-15.538H139.7l.108,1.444a4.585,4.585,0,0,1,3.778-1.684A4.439,4.439,0,0,1,147.3-14.01a7.879,7.879,0,0,1,1.365,4.92Zm-2.226-.253a5.751,5.751,0,0,0-.938-3.477,3.023,3.023,0,0,0-2.575-1.275,3.272,3.272,0,0,0-3.032,1.793v6.22A3.278,3.278,0,0,0,142.948-4.1a3.009,3.009,0,0,0,2.544-1.269A6.278,6.278,0,0,0,146.437-9.138Zm13.089,6.617a4.675,4.675,0,0,1-.313-1.371,4.966,4.966,0,0,1-3.705,1.612,4.6,4.6,0,0,1-3.158-1.089,3.523,3.523,0,0,1-1.233-2.761,3.68,3.68,0,0,1,1.546-3.158,7.289,7.289,0,0,1,4.349-1.125h2.165v-1.023a2.5,2.5,0,0,0-.7-1.859,2.8,2.8,0,0,0-2.057-.692,3.245,3.245,0,0,0-2,.6,1.773,1.773,0,0,0-.806,1.456h-2.238a3.071,3.071,0,0,1,.692-1.883,4.721,4.721,0,0,1,1.877-1.438,6.314,6.314,0,0,1,2.6-.529,5.146,5.146,0,0,1,3.525,1.125,4.058,4.058,0,0,1,1.323,3.1v5.991a7.325,7.325,0,0,0,.457,2.851v.192Zm-3.693-1.7a3.912,3.912,0,0,0,1.985-.541,3.275,3.275,0,0,0,1.359-1.408V-8.837h-1.744q-4.09,0-4.09,2.394a2.026,2.026,0,0,0,.7,1.636A2.682,2.682,0,0,0,155.832-4.217Zm14.28.12a3.206,3.206,0,0,0,2.081-.722,2.539,2.539,0,0,0,.987-1.8h2.105a4.036,4.036,0,0,1-.77,2.129,5.071,5.071,0,0,1-1.895,1.612,5.467,5.467,0,0,1-2.508.6,5.362,5.362,0,0,1-4.229-1.775,7.068,7.068,0,0,1-1.57-4.854v-.373a7.837,7.837,0,0,1,.7-3.381,5.315,5.315,0,0,1,2-2.3,5.69,5.69,0,0,1,3.086-.818,5.221,5.221,0,0,1,3.639,1.311,4.687,4.687,0,0,1,1.546,3.4h-2.105a3.067,3.067,0,0,0-.956-2.075,2.975,2.975,0,0,0-2.123-.812,3.115,3.115,0,0,0-2.629,1.221A5.735,5.735,0,0,0,166.54-9.2v.421a5.62,5.62,0,0,0,.926,3.465A3.13,3.13,0,0,0,170.113-4.1Zm10.7-14.593v3.152h2.43v1.72h-2.43v8.073a1.8,1.8,0,0,0,.325,1.173,1.368,1.368,0,0,0,1.107.391,5.388,5.388,0,0,0,1.059-.144v1.8a6.452,6.452,0,0,1-1.708.241,2.772,2.772,0,0,1-2.25-.9,3.876,3.876,0,0,1-.758-2.563v-8.073h-2.37v-1.72h2.37V-18.69Zm24.41,13.871a5.336,5.336,0,0,1-2.484,1.907,10.035,10.035,0,0,1-3.711.632,7.2,7.2,0,0,1-3.8-1,6.693,6.693,0,0,1-2.569-2.857,9.869,9.869,0,0,1-.932-4.295v-1.528a9.212,9.212,0,0,1,1.847-6.136,6.435,6.435,0,0,1,5.191-2.178,6.646,6.646,0,0,1,4.415,1.4,6.106,6.106,0,0,1,2.045,3.976h-2.31a3.816,3.816,0,0,0-4.139-3.477,4.09,4.09,0,0,0-3.519,1.63,7.954,7.954,0,0,0-1.209,4.722v1.432a7.455,7.455,0,0,0,1.347,4.686,4.369,4.369,0,0,0,3.645,1.738,8.034,8.034,0,0,0,2.274-.289,3.514,3.514,0,0,0,1.612-.974V-9.366h-4.054v-1.877h6.352ZM221.17-18.137h-5.63V-2.521h-2.3V-18.137h-5.618v-1.9H221.17Zm18.623,8.145q0,3.91-1.335,5.811a4.749,4.749,0,0,1-4.175,1.9,4.784,4.784,0,0,1-4.151-1.859,9.662,9.662,0,0,1-1.4-5.552v-2.972q0-3.862,1.335-5.739a4.786,4.786,0,0,1,4.187-1.877,4.83,4.83,0,0,1,4.163,1.811q1.335,1.811,1.371,5.588Zm-2.226-3.044a8.155,8.155,0,0,0-.794-4.12,2.733,2.733,0,0,0-2.514-1.293,2.7,2.7,0,0,0-2.49,1.287,7.963,7.963,0,0,0-.806,3.958v3.561a8.286,8.286,0,0,0,.824,4.193,2.728,2.728,0,0,0,2.5,1.353,2.69,2.69,0,0,0,2.448-1.275,7.986,7.986,0,0,0,.836-4.018Zm4.884-3.633a3.554,3.554,0,0,1,1-2.6,3.46,3.46,0,0,1,2.581-1.023,3.44,3.44,0,0,1,2.593,1.029,3.678,3.678,0,0,1,.993,2.665v.854a3.509,3.509,0,0,1-1,2.593,3.463,3.463,0,0,1-2.556,1,3.539,3.539,0,0,1-2.587-1,3.583,3.583,0,0,1-1.023-2.677Zm1.66.926a2.268,2.268,0,0,0,.529,1.546,1.788,1.788,0,0,0,1.42.608,1.753,1.753,0,0,0,1.377-.589,2.342,2.342,0,0,0,.523-1.612v-.878a2.325,2.325,0,0,0-.517-1.552,1.744,1.744,0,0,0-1.408-.614,1.744,1.744,0,0,0-1.408.614,2.4,2.4,0,0,0-.517,1.6Zm6.869,8.927a3.534,3.534,0,0,1,1-2.593,3.471,3.471,0,0,1,2.581-1.017,3.5,3.5,0,0,1,2.587,1.011,3.626,3.626,0,0,1,1.011,2.683v.854a3.534,3.534,0,0,1-1,2.593,3.456,3.456,0,0,1-2.568,1.017,3.539,3.539,0,0,1-2.587-1,3.582,3.582,0,0,1-1.023-2.677Zm1.66.938a2.286,2.286,0,0,0,.529,1.558,1.788,1.788,0,0,0,1.42.608,1.741,1.741,0,0,0,1.384-.6,2.383,2.383,0,0,0,.517-1.618v-.89a2.279,2.279,0,0,0-.523-1.552,1.764,1.764,0,0,0-1.4-.6,1.782,1.782,0,0,0-1.39.6,2.313,2.313,0,0,0-.535,1.606Zm-6.075,2.033L245.3-4.638l8.554-13.691,1.263.794Z" transform="translate(1392.488 740.397)"/>
  <path id="Path_628" data-name="Path 628" class="cls-2" d="M11.971-10.257H4.62v7.736H2.311V-20.038H13.162v1.9H4.62v5.991h7.351ZM18-2.521H15.773V-15.538H18Zm-2.406-16.47a1.329,1.329,0,0,1,.331-.914,1.242,1.242,0,0,1,.98-.373,1.261,1.261,0,0,1,.987.373,1.315,1.315,0,0,1,.337.914,1.271,1.271,0,0,1-.337.9,1.284,1.284,0,0,1-.987.361,1.264,1.264,0,0,1-.98-.361A1.285,1.285,0,0,1,15.592-18.991Zm12.259,5.45a6.67,6.67,0,0,0-1.095-.084,2.933,2.933,0,0,0-2.972,1.865v9.239H21.559V-15.538h2.166l.036,1.5a3.466,3.466,0,0,1,3.1-1.744,2.274,2.274,0,0,1,.987.168Zm9.624,7.567a1.638,1.638,0,0,0-.68-1.4,6.543,6.543,0,0,0-2.37-.86A11.205,11.205,0,0,1,31.743-9.1a3.817,3.817,0,0,1-1.468-1.2,2.878,2.878,0,0,1-.475-1.66,3.377,3.377,0,0,1,1.353-2.707,5.286,5.286,0,0,1,3.459-1.107A5.439,5.439,0,0,1,38.2-14.636a3.63,3.63,0,0,1,1.377,2.923H37.344a2.009,2.009,0,0,0-.776-1.576,2.907,2.907,0,0,0-1.955-.662,3.043,3.043,0,0,0-1.9.529,1.666,1.666,0,0,0-.686,1.384,1.35,1.35,0,0,0,.638,1.215,7.845,7.845,0,0,0,2.3.782,12,12,0,0,1,2.7.89A3.94,3.94,0,0,1,39.2-7.9a3.062,3.062,0,0,1,.5,1.775,3.331,3.331,0,0,1-1.4,2.8A5.854,5.854,0,0,1,34.685-2.28a6.555,6.555,0,0,1-2.767-.553A4.5,4.5,0,0,1,30.035-4.38a3.726,3.726,0,0,1-.68-2.147h2.226a2.3,2.3,0,0,0,.9,1.775,3.477,3.477,0,0,0,2.208.656,3.589,3.589,0,0,0,2.027-.511A1.571,1.571,0,0,0,37.476-5.974ZM45.621-18.69v3.152h2.43v1.72h-2.43v8.073a1.8,1.8,0,0,0,.325,1.173,1.368,1.368,0,0,0,1.107.391,5.388,5.388,0,0,0,1.059-.144v1.8A6.452,6.452,0,0,1,46.4-2.28a2.772,2.772,0,0,1-2.25-.9,3.876,3.876,0,0,1-.758-2.563v-8.073h-2.37v-1.72h2.37V-18.69Zm14.461-1.347L65.808-5.745l5.727-14.292h3V-2.521H72.22V-9.342l.217-7.363L66.686-2.521H64.918L59.179-16.669l.229,7.327v6.821H57.1V-20.038Zm20.6,17.516H78.452V-15.538h2.226Zm-2.406-16.47a1.329,1.329,0,0,1,.331-.914,1.242,1.242,0,0,1,.98-.373,1.261,1.261,0,0,1,.987.373,1.315,1.315,0,0,1,.337.914,1.271,1.271,0,0,1-.337.9,1.284,1.284,0,0,1-.987.361,1.264,1.264,0,0,1-.98-.361A1.285,1.285,0,0,1,78.271-18.991Zm8.385,16.47H84.431V-21h2.226Zm8.963.241a5.688,5.688,0,0,1-4.307-1.738,6.452,6.452,0,0,1-1.66-4.65v-.409a7.811,7.811,0,0,1,.74-3.459,5.772,5.772,0,0,1,2.069-2.382,5.2,5.2,0,0,1,2.881-.86,4.875,4.875,0,0,1,3.946,1.672A7.24,7.24,0,0,1,100.7-9.318v.926H91.878A4.627,4.627,0,0,0,93-5.282,3.536,3.536,0,0,0,95.74-4.1a3.876,3.876,0,0,0,2-.481,5.018,5.018,0,0,0,1.432-1.275l1.359,1.059A5.466,5.466,0,0,1,95.62-2.28Zm-.277-11.67a2.969,2.969,0,0,0-2.262.98,4.766,4.766,0,0,0-1.131,2.749h6.521v-.168a4.239,4.239,0,0,0-.914-2.629A2.8,2.8,0,0,0,95.343-13.95ZM112.2-2.521h-2.31V-20.038h2.31Zm5.967-13.017.06,1.444a4.807,4.807,0,0,1,3.862-1.684,3.722,3.722,0,0,1,3.717,2.093,4.931,4.931,0,0,1,1.69-1.516,4.992,4.992,0,0,1,2.46-.577q4.283,0,4.355,4.536v8.722h-2.226v-8.59a2.989,2.989,0,0,0-.638-2.087,2.808,2.808,0,0,0-2.141-.692,2.951,2.951,0,0,0-2.057.74,3,3,0,0,0-.95,1.991v8.638H124.06v-8.53q0-2.839-2.779-2.839a2.978,2.978,0,0,0-3,1.865v9.5h-2.226V-15.538Zm30.5,6.653A7.794,7.794,0,0,1,147.3-4.1a4.357,4.357,0,0,1-3.681,1.817,4.774,4.774,0,0,1-3.729-1.5V2.484h-2.226V-15.538H139.7l.108,1.444a4.585,4.585,0,0,1,3.778-1.684A4.439,4.439,0,0,1,147.3-14.01a7.879,7.879,0,0,1,1.365,4.92Zm-2.226-.253a5.751,5.751,0,0,0-.938-3.477,3.023,3.023,0,0,0-2.575-1.275,3.272,3.272,0,0,0-3.032,1.793v6.22A3.278,3.278,0,0,0,142.948-4.1a3.009,3.009,0,0,0,2.544-1.269A6.278,6.278,0,0,0,146.437-9.138Zm13.089,6.617a4.675,4.675,0,0,1-.313-1.371,4.966,4.966,0,0,1-3.705,1.612,4.6,4.6,0,0,1-3.158-1.089,3.523,3.523,0,0,1-1.233-2.761,3.68,3.68,0,0,1,1.546-3.158,7.289,7.289,0,0,1,4.349-1.125h2.165v-1.023a2.5,2.5,0,0,0-.7-1.859,2.8,2.8,0,0,0-2.057-.692,3.245,3.245,0,0,0-2,.6,1.773,1.773,0,0,0-.806,1.456h-2.238a3.071,3.071,0,0,1,.692-1.883,4.721,4.721,0,0,1,1.877-1.438,6.314,6.314,0,0,1,2.6-.529,5.146,5.146,0,0,1,3.525,1.125,4.058,4.058,0,0,1,1.323,3.1v5.991a7.325,7.325,0,0,0,.457,2.851v.192Zm-3.693-1.7a3.912,3.912,0,0,0,1.985-.541,3.275,3.275,0,0,0,1.359-1.408V-8.837h-1.744q-4.09,0-4.09,2.394a2.026,2.026,0,0,0,.7,1.636A2.682,2.682,0,0,0,155.832-4.217Zm14.28.12a3.206,3.206,0,0,0,2.081-.722,2.539,2.539,0,0,0,.987-1.8h2.105a4.036,4.036,0,0,1-.77,2.129,5.071,5.071,0,0,1-1.895,1.612,5.467,5.467,0,0,1-2.508.6,5.362,5.362,0,0,1-4.229-1.775,7.068,7.068,0,0,1-1.57-4.854v-.373a7.837,7.837,0,0,1,.7-3.381,5.315,5.315,0,0,1,2-2.3,5.69,5.69,0,0,1,3.086-.818,5.221,5.221,0,0,1,3.639,1.311,4.687,4.687,0,0,1,1.546,3.4h-2.105a3.067,3.067,0,0,0-.956-2.075,2.975,2.975,0,0,0-2.123-.812,3.115,3.115,0,0,0-2.629,1.221A5.735,5.735,0,0,0,166.54-9.2v.421a5.62,5.62,0,0,0,.926,3.465A3.13,3.13,0,0,0,170.113-4.1Zm10.7-14.593v3.152h2.43v1.72h-2.43v8.073a1.8,1.8,0,0,0,.325,1.173,1.368,1.368,0,0,0,1.107.391,5.388,5.388,0,0,0,1.059-.144v1.8a6.452,6.452,0,0,1-1.708.241,2.772,2.772,0,0,1-2.25-.9,3.876,3.876,0,0,1-.758-2.563v-8.073h-2.37v-1.72h2.37V-18.69Zm15.76,9.636H190.7V-10.87h5.871Zm13.414,6.533H198.5v-1.6l6.063-6.737a14.4,14.4,0,0,0,1.859-2.484,4.146,4.146,0,0,0,.511-1.979,3.143,3.143,0,0,0-.83-2.25,2.9,2.9,0,0,0-2.214-.878,3.437,3.437,0,0,0-2.581.944,3.607,3.607,0,0,0-.92,2.629h-2.226a5.166,5.166,0,0,1,1.558-3.91,5.776,5.776,0,0,1,4.169-1.492A5.55,5.55,0,0,1,207.756-19a4.37,4.37,0,0,1,1.42,3.411q0,2.587-3.3,6.16l-4.692,5.089h8.794ZM221.688-18.69v3.152h2.43v1.72h-2.43v8.073a1.8,1.8,0,0,0,.325,1.173,1.368,1.368,0,0,0,1.107.391,5.388,5.388,0,0,0,1.059-.144v1.8a6.452,6.452,0,0,1-1.708.241,2.772,2.772,0,0,1-2.25-.9,3.876,3.876,0,0,1-.758-2.563v-8.073h-2.37v-1.72h2.37V-18.69Zm4.2,9.54a7.688,7.688,0,0,1,.752-3.441,5.609,5.609,0,0,1,2.093-2.358,5.7,5.7,0,0,1,3.062-.83,5.49,5.49,0,0,1,4.3,1.841,7.082,7.082,0,0,1,1.642,4.9v.156a7.756,7.756,0,0,1-.728,3.411,5.527,5.527,0,0,1-2.081,2.352,5.764,5.764,0,0,1-3.11.842,5.476,5.476,0,0,1-4.289-1.841,7.046,7.046,0,0,1-1.642-4.872Zm2.238.265a5.569,5.569,0,0,0,1,3.477A3.215,3.215,0,0,0,231.817-4.1a3.2,3.2,0,0,0,2.695-1.329,6.09,6.09,0,0,0,1-3.723,5.559,5.559,0,0,0-1.017-3.471,3.232,3.232,0,0,0-2.7-1.329,3.2,3.2,0,0,0-2.659,1.311A6.044,6.044,0,0,0,228.124-8.885Zm29.258-1.107q0,3.91-1.335,5.811a4.749,4.749,0,0,1-4.175,1.9,4.784,4.784,0,0,1-4.151-1.859,9.661,9.661,0,0,1-1.4-5.552v-2.972q0-3.862,1.335-5.739a4.786,4.786,0,0,1,4.187-1.877,4.83,4.83,0,0,1,4.163,1.811q1.335,1.811,1.371,5.588Zm-2.226-3.044a8.155,8.155,0,0,0-.794-4.12,2.733,2.733,0,0,0-2.514-1.293,2.7,2.7,0,0,0-2.49,1.287,7.963,7.963,0,0,0-.806,3.958v3.561a8.286,8.286,0,0,0,.824,4.193,2.728,2.728,0,0,0,2.5,1.353,2.69,2.69,0,0,0,2.448-1.275,7.986,7.986,0,0,0,.836-4.018Zm4.884-3.633a3.554,3.554,0,0,1,1-2.6,3.461,3.461,0,0,1,2.581-1.023,3.44,3.44,0,0,1,2.593,1.029,3.678,3.678,0,0,1,.993,2.665v.854a3.509,3.509,0,0,1-1,2.593,3.463,3.463,0,0,1-2.557,1,3.539,3.539,0,0,1-2.587-1,3.582,3.582,0,0,1-1.023-2.677Zm1.66.926a2.268,2.268,0,0,0,.529,1.546,1.788,1.788,0,0,0,1.42.608,1.753,1.753,0,0,0,1.378-.589,2.342,2.342,0,0,0,.523-1.612v-.878a2.324,2.324,0,0,0-.517-1.552,1.744,1.744,0,0,0-1.408-.614,1.744,1.744,0,0,0-1.408.614,2.4,2.4,0,0,0-.517,1.6Zm6.869,8.927a3.534,3.534,0,0,1,1-2.593,3.471,3.471,0,0,1,2.581-1.017,3.5,3.5,0,0,1,2.587,1.011,3.626,3.626,0,0,1,1.011,2.683v.854a3.534,3.534,0,0,1-1,2.593,3.456,3.456,0,0,1-2.569,1.017,3.539,3.539,0,0,1-2.587-1,3.582,3.582,0,0,1-1.023-2.677Zm1.66.938a2.286,2.286,0,0,0,.529,1.558,1.788,1.788,0,0,0,1.42.608,1.741,1.741,0,0,0,1.384-.6,2.383,2.383,0,0,0,.517-1.618v-.89a2.279,2.279,0,0,0-.523-1.552,1.764,1.764,0,0,0-1.4-.6,1.782,1.782,0,0,0-1.39.6,2.313,2.313,0,0,0-.535,1.606Zm-6.075,2.033-1.263-.794,8.554-13.691,1.263.794Z" transform="translate(1392.488 788.794)"/>
  <path id="Path_629" data-name="Path 629" class="cls-2" d="M11.971-10.257H4.62v7.736H2.311V-20.038H13.162v1.9H4.62v5.991h7.351ZM18-2.521H15.773V-15.538H18Zm-2.406-16.47a1.329,1.329,0,0,1,.331-.914,1.242,1.242,0,0,1,.98-.373,1.261,1.261,0,0,1,.987.373,1.315,1.315,0,0,1,.337.914,1.271,1.271,0,0,1-.337.9,1.284,1.284,0,0,1-.987.361,1.264,1.264,0,0,1-.98-.361A1.285,1.285,0,0,1,15.592-18.991Zm12.259,5.45a6.67,6.67,0,0,0-1.095-.084,2.933,2.933,0,0,0-2.972,1.865v9.239H21.559V-15.538h2.166l.036,1.5a3.466,3.466,0,0,1,3.1-1.744,2.274,2.274,0,0,1,.987.168Zm9.624,7.567a1.638,1.638,0,0,0-.68-1.4,6.543,6.543,0,0,0-2.37-.86A11.205,11.205,0,0,1,31.743-9.1a3.817,3.817,0,0,1-1.468-1.2,2.878,2.878,0,0,1-.475-1.66,3.377,3.377,0,0,1,1.353-2.707,5.286,5.286,0,0,1,3.459-1.107A5.439,5.439,0,0,1,38.2-14.636a3.63,3.63,0,0,1,1.377,2.923H37.344a2.009,2.009,0,0,0-.776-1.576,2.907,2.907,0,0,0-1.955-.662,3.043,3.043,0,0,0-1.9.529,1.666,1.666,0,0,0-.686,1.384,1.35,1.35,0,0,0,.638,1.215,7.845,7.845,0,0,0,2.3.782,12,12,0,0,1,2.7.89A3.94,3.94,0,0,1,39.2-7.9a3.062,3.062,0,0,1,.5,1.775,3.331,3.331,0,0,1-1.4,2.8A5.854,5.854,0,0,1,34.685-2.28a6.555,6.555,0,0,1-2.767-.553A4.5,4.5,0,0,1,30.035-4.38a3.726,3.726,0,0,1-.68-2.147h2.226a2.3,2.3,0,0,0,.9,1.775,3.477,3.477,0,0,0,2.208.656,3.589,3.589,0,0,0,2.027-.511A1.571,1.571,0,0,0,37.476-5.974ZM45.621-18.69v3.152h2.43v1.72h-2.43v8.073a1.8,1.8,0,0,0,.325,1.173,1.368,1.368,0,0,0,1.107.391,5.388,5.388,0,0,0,1.059-.144v1.8A6.452,6.452,0,0,1,46.4-2.28a2.772,2.772,0,0,1-2.25-.9,3.876,3.876,0,0,1-.758-2.563v-8.073h-2.37v-1.72h2.37V-18.69Zm14.461-1.347L65.808-5.745l5.727-14.292h3V-2.521H72.22V-9.342l.217-7.363L66.686-2.521H64.918L59.179-16.669l.229,7.327v6.821H57.1V-20.038Zm20.6,17.516H78.452V-15.538h2.226Zm-2.406-16.47a1.329,1.329,0,0,1,.331-.914,1.242,1.242,0,0,1,.98-.373,1.261,1.261,0,0,1,.987.373,1.315,1.315,0,0,1,.337.914,1.271,1.271,0,0,1-.337.9,1.284,1.284,0,0,1-.987.361,1.264,1.264,0,0,1-.98-.361A1.285,1.285,0,0,1,78.271-18.991Zm8.385,16.47H84.431V-21h2.226Zm8.963.241a5.688,5.688,0,0,1-4.307-1.738,6.452,6.452,0,0,1-1.66-4.65v-.409a7.811,7.811,0,0,1,.74-3.459,5.772,5.772,0,0,1,2.069-2.382,5.2,5.2,0,0,1,2.881-.86,4.875,4.875,0,0,1,3.946,1.672A7.24,7.24,0,0,1,100.7-9.318v.926H91.878A4.627,4.627,0,0,0,93-5.282,3.536,3.536,0,0,0,95.74-4.1a3.876,3.876,0,0,0,2-.481,5.018,5.018,0,0,0,1.432-1.275l1.359,1.059A5.466,5.466,0,0,1,95.62-2.28Zm-.277-11.67a2.969,2.969,0,0,0-2.262.98,4.766,4.766,0,0,0-1.131,2.749h6.521v-.168a4.239,4.239,0,0,0-.914-2.629A2.8,2.8,0,0,0,95.343-13.95ZM112.2-2.521h-2.31V-20.038h2.31Zm5.967-13.017.06,1.444a4.807,4.807,0,0,1,3.862-1.684,3.722,3.722,0,0,1,3.717,2.093,4.931,4.931,0,0,1,1.69-1.516,4.992,4.992,0,0,1,2.46-.577q4.283,0,4.355,4.536v8.722h-2.226v-8.59a2.989,2.989,0,0,0-.638-2.087,2.808,2.808,0,0,0-2.141-.692,2.951,2.951,0,0,0-2.057.74,3,3,0,0,0-.95,1.991v8.638H124.06v-8.53q0-2.839-2.779-2.839a2.978,2.978,0,0,0-3,1.865v9.5h-2.226V-15.538Zm30.5,6.653A7.794,7.794,0,0,1,147.3-4.1a4.357,4.357,0,0,1-3.681,1.817,4.774,4.774,0,0,1-3.729-1.5V2.484h-2.226V-15.538H139.7l.108,1.444a4.585,4.585,0,0,1,3.778-1.684A4.439,4.439,0,0,1,147.3-14.01a7.879,7.879,0,0,1,1.365,4.92Zm-2.226-.253a5.751,5.751,0,0,0-.938-3.477,3.023,3.023,0,0,0-2.575-1.275,3.272,3.272,0,0,0-3.032,1.793v6.22A3.278,3.278,0,0,0,142.948-4.1a3.009,3.009,0,0,0,2.544-1.269A6.278,6.278,0,0,0,146.437-9.138Zm13.089,6.617a4.675,4.675,0,0,1-.313-1.371,4.966,4.966,0,0,1-3.705,1.612,4.6,4.6,0,0,1-3.158-1.089,3.523,3.523,0,0,1-1.233-2.761,3.68,3.68,0,0,1,1.546-3.158,7.289,7.289,0,0,1,4.349-1.125h2.165v-1.023a2.5,2.5,0,0,0-.7-1.859,2.8,2.8,0,0,0-2.057-.692,3.245,3.245,0,0,0-2,.6,1.773,1.773,0,0,0-.806,1.456h-2.238a3.071,3.071,0,0,1,.692-1.883,4.721,4.721,0,0,1,1.877-1.438,6.314,6.314,0,0,1,2.6-.529,5.146,5.146,0,0,1,3.525,1.125,4.058,4.058,0,0,1,1.323,3.1v5.991a7.325,7.325,0,0,0,.457,2.851v.192Zm-3.693-1.7a3.912,3.912,0,0,0,1.985-.541,3.275,3.275,0,0,0,1.359-1.408V-8.837h-1.744q-4.09,0-4.09,2.394a2.026,2.026,0,0,0,.7,1.636A2.682,2.682,0,0,0,155.832-4.217Zm14.28.12a3.206,3.206,0,0,0,2.081-.722,2.539,2.539,0,0,0,.987-1.8h2.105a4.036,4.036,0,0,1-.77,2.129,5.071,5.071,0,0,1-1.895,1.612,5.467,5.467,0,0,1-2.508.6,5.362,5.362,0,0,1-4.229-1.775,7.068,7.068,0,0,1-1.57-4.854v-.373a7.837,7.837,0,0,1,.7-3.381,5.315,5.315,0,0,1,2-2.3,5.69,5.69,0,0,1,3.086-.818,5.221,5.221,0,0,1,3.639,1.311,4.687,4.687,0,0,1,1.546,3.4h-2.105a3.067,3.067,0,0,0-.956-2.075,2.975,2.975,0,0,0-2.123-.812,3.115,3.115,0,0,0-2.629,1.221A5.735,5.735,0,0,0,166.54-9.2v.421a5.62,5.62,0,0,0,.926,3.465A3.13,3.13,0,0,0,170.113-4.1Zm10.7-14.593v3.152h2.43v1.72h-2.43v8.073a1.8,1.8,0,0,0,.325,1.173,1.368,1.368,0,0,0,1.107.391,5.388,5.388,0,0,0,1.059-.144v1.8a6.452,6.452,0,0,1-1.708.241,2.772,2.772,0,0,1-2.25-.9,3.876,3.876,0,0,1-.758-2.563v-8.073h-2.37v-1.72h2.37V-18.69Zm15.76,9.636H190.7V-10.87h5.871Zm2.96-2.25.89-8.734h8.975v2.057h-7.086l-.529,4.776a5.653,5.653,0,0,1,2.923-.758,4.833,4.833,0,0,1,3.8,1.582A6.2,6.2,0,0,1,209.91-8.1a5.984,5.984,0,0,1-1.462,4.265,5.328,5.328,0,0,1-4.084,1.558,5.537,5.537,0,0,1-3.79-1.287A5.138,5.138,0,0,1,198.9-7.129h2.105a3.535,3.535,0,0,0,1.071,2.268,3.329,3.329,0,0,0,2.286.764A3,3,0,0,0,206.8-5.156a4.426,4.426,0,0,0,.884-2.923,4.062,4.062,0,0,0-.956-2.821,3.253,3.253,0,0,0-2.544-1.065,3.669,3.669,0,0,0-2.286.638l-.589.481Zm22.16-7.387v3.152h2.43v1.72h-2.43v8.073a1.8,1.8,0,0,0,.325,1.173,1.368,1.368,0,0,0,1.107.391,5.388,5.388,0,0,0,1.059-.144v1.8a6.452,6.452,0,0,1-1.708.241,2.772,2.772,0,0,1-2.25-.9,3.876,3.876,0,0,1-.758-2.563v-8.073h-2.37v-1.72h2.37V-18.69Zm4.2,9.54a7.688,7.688,0,0,1,.752-3.441,5.609,5.609,0,0,1,2.093-2.358,5.7,5.7,0,0,1,3.062-.83,5.49,5.49,0,0,1,4.3,1.841,7.082,7.082,0,0,1,1.642,4.9v.156a7.756,7.756,0,0,1-.728,3.411,5.527,5.527,0,0,1-2.081,2.352,5.764,5.764,0,0,1-3.11.842,5.476,5.476,0,0,1-4.289-1.841,7.046,7.046,0,0,1-1.642-4.872Zm2.238.265a5.569,5.569,0,0,0,1,3.477A3.215,3.215,0,0,0,231.817-4.1a3.2,3.2,0,0,0,2.695-1.329,6.09,6.09,0,0,0,1-3.723,5.559,5.559,0,0,0-1.017-3.471,3.232,3.232,0,0,0-2.7-1.329,3.2,3.2,0,0,0-2.659,1.311A6.044,6.044,0,0,0,228.124-8.885Zm23.135-.168h-5.871V-10.87h5.871Zm13.414,6.533H253.2v-1.6l6.063-6.737a14.406,14.406,0,0,0,1.859-2.484,4.146,4.146,0,0,0,.511-1.979,3.143,3.143,0,0,0-.83-2.25,2.9,2.9,0,0,0-2.214-.878,3.437,3.437,0,0,0-2.581.944,3.607,3.607,0,0,0-.92,2.629h-2.226a5.166,5.166,0,0,1,1.558-3.91,5.776,5.776,0,0,1,4.169-1.492A5.55,5.55,0,0,1,262.447-19a4.37,4.37,0,0,1,1.42,3.411q0,2.587-3.3,6.16l-4.692,5.089h8.794Zm2.165-14.148a3.554,3.554,0,0,1,1-2.6,3.461,3.461,0,0,1,2.581-1.023,3.44,3.44,0,0,1,2.593,1.029,3.678,3.678,0,0,1,.993,2.665v.854a3.509,3.509,0,0,1-1,2.593,3.463,3.463,0,0,1-2.556,1,3.539,3.539,0,0,1-2.587-1,3.582,3.582,0,0,1-1.023-2.677Zm1.66.926a2.268,2.268,0,0,0,.529,1.546,1.788,1.788,0,0,0,1.42.608,1.753,1.753,0,0,0,1.378-.589,2.342,2.342,0,0,0,.523-1.612v-.878a2.325,2.325,0,0,0-.517-1.552,1.744,1.744,0,0,0-1.408-.614,1.744,1.744,0,0,0-1.408.614,2.4,2.4,0,0,0-.517,1.6Zm6.869,8.927a3.534,3.534,0,0,1,1-2.593,3.471,3.471,0,0,1,2.581-1.017,3.5,3.5,0,0,1,2.587,1.011,3.626,3.626,0,0,1,1.011,2.683v.854a3.534,3.534,0,0,1-1,2.593,3.456,3.456,0,0,1-2.569,1.017,3.539,3.539,0,0,1-2.587-1,3.582,3.582,0,0,1-1.023-2.677Zm1.66.938a2.286,2.286,0,0,0,.529,1.558,1.788,1.788,0,0,0,1.42.608,1.741,1.741,0,0,0,1.384-.6,2.383,2.383,0,0,0,.517-1.618v-.89a2.279,2.279,0,0,0-.523-1.552,1.764,1.764,0,0,0-1.4-.6,1.782,1.782,0,0,0-1.39.6,2.313,2.313,0,0,0-.535,1.606Zm-6.075,2.033-1.263-.794,8.554-13.691,1.263.794Z" transform="translate(1392.488 837.192)"/>
  <path id="Path_630" data-name="Path 630" class="cls-2" d="M11.971-10.257H4.62v7.736H2.311V-20.038H13.162v1.9H4.62v5.991h7.351ZM18-2.521H15.773V-15.538H18Zm-2.406-16.47a1.329,1.329,0,0,1,.331-.914,1.242,1.242,0,0,1,.98-.373,1.261,1.261,0,0,1,.987.373,1.315,1.315,0,0,1,.337.914,1.271,1.271,0,0,1-.337.9,1.284,1.284,0,0,1-.987.361,1.264,1.264,0,0,1-.98-.361A1.285,1.285,0,0,1,15.592-18.991Zm12.259,5.45a6.67,6.67,0,0,0-1.095-.084,2.933,2.933,0,0,0-2.972,1.865v9.239H21.559V-15.538h2.166l.036,1.5a3.466,3.466,0,0,1,3.1-1.744,2.274,2.274,0,0,1,.987.168Zm9.624,7.567a1.638,1.638,0,0,0-.68-1.4,6.543,6.543,0,0,0-2.37-.86A11.205,11.205,0,0,1,31.743-9.1a3.817,3.817,0,0,1-1.468-1.2,2.878,2.878,0,0,1-.475-1.66,3.377,3.377,0,0,1,1.353-2.707,5.286,5.286,0,0,1,3.459-1.107A5.439,5.439,0,0,1,38.2-14.636a3.63,3.63,0,0,1,1.377,2.923H37.344a2.009,2.009,0,0,0-.776-1.576,2.907,2.907,0,0,0-1.955-.662,3.043,3.043,0,0,0-1.9.529,1.666,1.666,0,0,0-.686,1.384,1.35,1.35,0,0,0,.638,1.215,7.845,7.845,0,0,0,2.3.782,12,12,0,0,1,2.7.89A3.94,3.94,0,0,1,39.2-7.9a3.062,3.062,0,0,1,.5,1.775,3.331,3.331,0,0,1-1.4,2.8A5.854,5.854,0,0,1,34.685-2.28a6.555,6.555,0,0,1-2.767-.553A4.5,4.5,0,0,1,30.035-4.38a3.726,3.726,0,0,1-.68-2.147h2.226a2.3,2.3,0,0,0,.9,1.775,3.477,3.477,0,0,0,2.208.656,3.589,3.589,0,0,0,2.027-.511A1.571,1.571,0,0,0,37.476-5.974ZM45.621-18.69v3.152h2.43v1.72h-2.43v8.073a1.8,1.8,0,0,0,.325,1.173,1.368,1.368,0,0,0,1.107.391,5.388,5.388,0,0,0,1.059-.144v1.8A6.452,6.452,0,0,1,46.4-2.28a2.772,2.772,0,0,1-2.25-.9,3.876,3.876,0,0,1-.758-2.563v-8.073h-2.37v-1.72h2.37V-18.69Zm14.461-1.347L65.808-5.745l5.727-14.292h3V-2.521H72.22V-9.342l.217-7.363L66.686-2.521H64.918L59.179-16.669l.229,7.327v6.821H57.1V-20.038Zm20.6,17.516H78.452V-15.538h2.226Zm-2.406-16.47a1.329,1.329,0,0,1,.331-.914,1.242,1.242,0,0,1,.98-.373,1.261,1.261,0,0,1,.987.373,1.315,1.315,0,0,1,.337.914,1.271,1.271,0,0,1-.337.9,1.284,1.284,0,0,1-.987.361,1.264,1.264,0,0,1-.98-.361A1.285,1.285,0,0,1,78.271-18.991Zm8.385,16.47H84.431V-21h2.226Zm8.963.241a5.688,5.688,0,0,1-4.307-1.738,6.452,6.452,0,0,1-1.66-4.65v-.409a7.811,7.811,0,0,1,.74-3.459,5.772,5.772,0,0,1,2.069-2.382,5.2,5.2,0,0,1,2.881-.86,4.875,4.875,0,0,1,3.946,1.672A7.24,7.24,0,0,1,100.7-9.318v.926H91.878A4.627,4.627,0,0,0,93-5.282,3.536,3.536,0,0,0,95.74-4.1a3.876,3.876,0,0,0,2-.481,5.018,5.018,0,0,0,1.432-1.275l1.359,1.059A5.466,5.466,0,0,1,95.62-2.28Zm-.277-11.67a2.969,2.969,0,0,0-2.262.98,4.766,4.766,0,0,0-1.131,2.749h6.521v-.168a4.239,4.239,0,0,0-.914-2.629A2.8,2.8,0,0,0,95.343-13.95ZM112.2-2.521h-2.31V-20.038h2.31Zm5.967-13.017.06,1.444a4.807,4.807,0,0,1,3.862-1.684,3.722,3.722,0,0,1,3.717,2.093,4.931,4.931,0,0,1,1.69-1.516,4.992,4.992,0,0,1,2.46-.577q4.283,0,4.355,4.536v8.722h-2.226v-8.59a2.989,2.989,0,0,0-.638-2.087,2.808,2.808,0,0,0-2.141-.692,2.951,2.951,0,0,0-2.057.74,3,3,0,0,0-.95,1.991v8.638H124.06v-8.53q0-2.839-2.779-2.839a2.978,2.978,0,0,0-3,1.865v9.5h-2.226V-15.538Zm30.5,6.653A7.794,7.794,0,0,1,147.3-4.1a4.357,4.357,0,0,1-3.681,1.817,4.774,4.774,0,0,1-3.729-1.5V2.484h-2.226V-15.538H139.7l.108,1.444a4.585,4.585,0,0,1,3.778-1.684A4.439,4.439,0,0,1,147.3-14.01a7.879,7.879,0,0,1,1.365,4.92Zm-2.226-.253a5.751,5.751,0,0,0-.938-3.477,3.023,3.023,0,0,0-2.575-1.275,3.272,3.272,0,0,0-3.032,1.793v6.22A3.278,3.278,0,0,0,142.948-4.1a3.009,3.009,0,0,0,2.544-1.269A6.278,6.278,0,0,0,146.437-9.138Zm13.089,6.617a4.675,4.675,0,0,1-.313-1.371,4.966,4.966,0,0,1-3.705,1.612,4.6,4.6,0,0,1-3.158-1.089,3.523,3.523,0,0,1-1.233-2.761,3.68,3.68,0,0,1,1.546-3.158,7.289,7.289,0,0,1,4.349-1.125h2.165v-1.023a2.5,2.5,0,0,0-.7-1.859,2.8,2.8,0,0,0-2.057-.692,3.245,3.245,0,0,0-2,.6,1.773,1.773,0,0,0-.806,1.456h-2.238a3.071,3.071,0,0,1,.692-1.883,4.721,4.721,0,0,1,1.877-1.438,6.314,6.314,0,0,1,2.6-.529,5.146,5.146,0,0,1,3.525,1.125,4.058,4.058,0,0,1,1.323,3.1v5.991a7.325,7.325,0,0,0,.457,2.851v.192Zm-3.693-1.7a3.912,3.912,0,0,0,1.985-.541,3.275,3.275,0,0,0,1.359-1.408V-8.837h-1.744q-4.09,0-4.09,2.394a2.026,2.026,0,0,0,.7,1.636A2.682,2.682,0,0,0,155.832-4.217Zm14.28.12a3.206,3.206,0,0,0,2.081-.722,2.539,2.539,0,0,0,.987-1.8h2.105a4.036,4.036,0,0,1-.77,2.129,5.071,5.071,0,0,1-1.895,1.612,5.467,5.467,0,0,1-2.508.6,5.362,5.362,0,0,1-4.229-1.775,7.068,7.068,0,0,1-1.57-4.854v-.373a7.837,7.837,0,0,1,.7-3.381,5.315,5.315,0,0,1,2-2.3,5.69,5.69,0,0,1,3.086-.818,5.221,5.221,0,0,1,3.639,1.311,4.687,4.687,0,0,1,1.546,3.4h-2.105a3.067,3.067,0,0,0-.956-2.075,2.975,2.975,0,0,0-2.123-.812,3.115,3.115,0,0,0-2.629,1.221A5.735,5.735,0,0,0,166.54-9.2v.421a5.62,5.62,0,0,0,.926,3.465A3.13,3.13,0,0,0,170.113-4.1Zm10.7-14.593v3.152h2.43v1.72h-2.43v8.073a1.8,1.8,0,0,0,.325,1.173,1.368,1.368,0,0,0,1.107.391,5.388,5.388,0,0,0,1.059-.144v1.8a6.452,6.452,0,0,1-1.708.241,2.772,2.772,0,0,1-2.25-.9,3.876,3.876,0,0,1-.758-2.563v-8.073h-2.37v-1.72h2.37V-18.69Zm15.76,9.636H190.7V-10.87h5.871Zm9.251,6.533h-2.238V-17.355l-4.487,1.648v-2.021l6.376-2.394h.349Zm17.5-7.471q0,3.91-1.335,5.811a4.749,4.749,0,0,1-4.175,1.9,4.784,4.784,0,0,1-4.151-1.859,9.661,9.661,0,0,1-1.4-5.552v-2.972q0-3.862,1.335-5.739a4.786,4.786,0,0,1,4.187-1.877,4.83,4.83,0,0,1,4.163,1.811q1.335,1.811,1.371,5.588ZM221.1-13.036a8.155,8.155,0,0,0-.794-4.12,2.733,2.733,0,0,0-2.514-1.293,2.7,2.7,0,0,0-2.49,1.287,7.963,7.963,0,0,0-.806,3.958v3.561a8.286,8.286,0,0,0,.824,4.193,2.728,2.728,0,0,0,2.5,1.353,2.69,2.69,0,0,0,2.448-1.275,7.986,7.986,0,0,0,.836-4.018Zm14.425-5.654v3.152h2.43v1.72h-2.43v8.073a1.8,1.8,0,0,0,.325,1.173,1.368,1.368,0,0,0,1.107.391,5.388,5.388,0,0,0,1.059-.144v1.8a6.452,6.452,0,0,1-1.708.241,2.772,2.772,0,0,1-2.25-.9,3.876,3.876,0,0,1-.758-2.563v-8.073h-2.37v-1.72h2.37V-18.69Zm4.2,9.54a7.688,7.688,0,0,1,.752-3.441,5.609,5.609,0,0,1,2.093-2.358,5.7,5.7,0,0,1,3.062-.83,5.49,5.49,0,0,1,4.3,1.841,7.082,7.082,0,0,1,1.642,4.9v.156a7.756,7.756,0,0,1-.728,3.411,5.526,5.526,0,0,1-2.081,2.352,5.764,5.764,0,0,1-3.11.842,5.476,5.476,0,0,1-4.289-1.841,7.046,7.046,0,0,1-1.642-4.872Zm2.238.265a5.569,5.569,0,0,0,1,3.477A3.215,3.215,0,0,0,245.653-4.1a3.2,3.2,0,0,0,2.695-1.329,6.09,6.09,0,0,0,1-3.723,5.559,5.559,0,0,0-1.017-3.471,3.232,3.232,0,0,0-2.7-1.329,3.2,3.2,0,0,0-2.659,1.311A6.044,6.044,0,0,0,241.959-8.885Zm23.135-.168h-5.871V-10.87h5.871Zm2.96-2.25.89-8.734h8.975v2.057h-7.086L270.3-13.2a5.653,5.653,0,0,1,2.923-.758,4.833,4.833,0,0,1,3.8,1.582A6.2,6.2,0,0,1,278.436-8.1a5.984,5.984,0,0,1-1.462,4.265A5.328,5.328,0,0,1,272.89-2.28a5.537,5.537,0,0,1-3.79-1.287,5.138,5.138,0,0,1-1.672-3.561h2.105A3.535,3.535,0,0,0,270.6-4.861a3.329,3.329,0,0,0,2.286.764,3,3,0,0,0,2.436-1.059,4.426,4.426,0,0,0,.884-2.923,4.062,4.062,0,0,0-.956-2.821,3.253,3.253,0,0,0-2.544-1.065,3.669,3.669,0,0,0-2.286.638l-.59.481Zm12.62-5.366a3.554,3.554,0,0,1,1-2.6,3.46,3.46,0,0,1,2.581-1.023,3.44,3.44,0,0,1,2.593,1.029,3.678,3.678,0,0,1,.993,2.665v.854a3.509,3.509,0,0,1-1,2.593,3.463,3.463,0,0,1-2.556,1,3.539,3.539,0,0,1-2.587-1,3.582,3.582,0,0,1-1.023-2.677Zm1.66.926a2.268,2.268,0,0,0,.529,1.546,1.788,1.788,0,0,0,1.42.608,1.753,1.753,0,0,0,1.378-.589,2.342,2.342,0,0,0,.523-1.612v-.878a2.325,2.325,0,0,0-.517-1.552,1.744,1.744,0,0,0-1.408-.614,1.744,1.744,0,0,0-1.408.614,2.4,2.4,0,0,0-.517,1.6ZM289.2-6.816a3.534,3.534,0,0,1,1-2.593,3.471,3.471,0,0,1,2.581-1.017,3.5,3.5,0,0,1,2.587,1.011,3.626,3.626,0,0,1,1.011,2.683v.854a3.534,3.534,0,0,1-1,2.593,3.456,3.456,0,0,1-2.569,1.017,3.539,3.539,0,0,1-2.587-1A3.582,3.582,0,0,1,289.2-5.95Zm1.66.938a2.286,2.286,0,0,0,.529,1.558,1.788,1.788,0,0,0,1.42.608,1.741,1.741,0,0,0,1.384-.6,2.383,2.383,0,0,0,.517-1.618v-.89a2.279,2.279,0,0,0-.523-1.552,1.764,1.764,0,0,0-1.4-.6,1.782,1.782,0,0,0-1.39.6,2.313,2.313,0,0,0-.535,1.606Zm-6.075,2.033-1.263-.794,8.554-13.691,1.263.794Z" transform="translate(1392.488 888.229)"/>
  <path id="Path_631" data-name="Path 631" class="cls-2" d="M11.971-10.257H4.62v7.736H2.311V-20.038H13.162v1.9H4.62v5.991h7.351ZM18-2.521H15.773V-15.538H18Zm-2.406-16.47a1.329,1.329,0,0,1,.331-.914,1.242,1.242,0,0,1,.98-.373,1.261,1.261,0,0,1,.987.373,1.315,1.315,0,0,1,.337.914,1.271,1.271,0,0,1-.337.9,1.284,1.284,0,0,1-.987.361,1.264,1.264,0,0,1-.98-.361A1.285,1.285,0,0,1,15.592-18.991Zm12.259,5.45a6.67,6.67,0,0,0-1.095-.084,2.933,2.933,0,0,0-2.972,1.865v9.239H21.559V-15.538h2.166l.036,1.5a3.466,3.466,0,0,1,3.1-1.744,2.274,2.274,0,0,1,.987.168Zm9.624,7.567a1.638,1.638,0,0,0-.68-1.4,6.543,6.543,0,0,0-2.37-.86A11.205,11.205,0,0,1,31.743-9.1a3.817,3.817,0,0,1-1.468-1.2,2.878,2.878,0,0,1-.475-1.66,3.377,3.377,0,0,1,1.353-2.707,5.286,5.286,0,0,1,3.459-1.107A5.439,5.439,0,0,1,38.2-14.636a3.63,3.63,0,0,1,1.377,2.923H37.344a2.009,2.009,0,0,0-.776-1.576,2.907,2.907,0,0,0-1.955-.662,3.043,3.043,0,0,0-1.9.529,1.666,1.666,0,0,0-.686,1.384,1.35,1.35,0,0,0,.638,1.215,7.845,7.845,0,0,0,2.3.782,12,12,0,0,1,2.7.89A3.94,3.94,0,0,1,39.2-7.9a3.062,3.062,0,0,1,.5,1.775,3.331,3.331,0,0,1-1.4,2.8A5.854,5.854,0,0,1,34.685-2.28a6.555,6.555,0,0,1-2.767-.553A4.5,4.5,0,0,1,30.035-4.38a3.726,3.726,0,0,1-.68-2.147h2.226a2.3,2.3,0,0,0,.9,1.775,3.477,3.477,0,0,0,2.208.656,3.589,3.589,0,0,0,2.027-.511A1.571,1.571,0,0,0,37.476-5.974ZM45.621-18.69v3.152h2.43v1.72h-2.43v8.073a1.8,1.8,0,0,0,.325,1.173,1.368,1.368,0,0,0,1.107.391,5.388,5.388,0,0,0,1.059-.144v1.8A6.452,6.452,0,0,1,46.4-2.28a2.772,2.772,0,0,1-2.25-.9,3.876,3.876,0,0,1-.758-2.563v-8.073h-2.37v-1.72h2.37V-18.69Zm14.461-1.347L65.808-5.745l5.727-14.292h3V-2.521H72.22V-9.342l.217-7.363L66.686-2.521H64.918L59.179-16.669l.229,7.327v6.821H57.1V-20.038Zm20.6,17.516H78.452V-15.538h2.226Zm-2.406-16.47a1.329,1.329,0,0,1,.331-.914,1.242,1.242,0,0,1,.98-.373,1.261,1.261,0,0,1,.987.373,1.315,1.315,0,0,1,.337.914,1.271,1.271,0,0,1-.337.9,1.284,1.284,0,0,1-.987.361,1.264,1.264,0,0,1-.98-.361A1.285,1.285,0,0,1,78.271-18.991Zm8.385,16.47H84.431V-21h2.226Zm8.963.241a5.688,5.688,0,0,1-4.307-1.738,6.452,6.452,0,0,1-1.66-4.65v-.409a7.811,7.811,0,0,1,.74-3.459,5.772,5.772,0,0,1,2.069-2.382,5.2,5.2,0,0,1,2.881-.86,4.875,4.875,0,0,1,3.946,1.672A7.24,7.24,0,0,1,100.7-9.318v.926H91.878A4.627,4.627,0,0,0,93-5.282,3.536,3.536,0,0,0,95.74-4.1a3.876,3.876,0,0,0,2-.481,5.018,5.018,0,0,0,1.432-1.275l1.359,1.059A5.466,5.466,0,0,1,95.62-2.28Zm-.277-11.67a2.969,2.969,0,0,0-2.262.98,4.766,4.766,0,0,0-1.131,2.749h6.521v-.168a4.239,4.239,0,0,0-.914-2.629A2.8,2.8,0,0,0,95.343-13.95ZM112.2-2.521h-2.31V-20.038h2.31Zm5.967-13.017.06,1.444a4.807,4.807,0,0,1,3.862-1.684,3.722,3.722,0,0,1,3.717,2.093,4.931,4.931,0,0,1,1.69-1.516,4.992,4.992,0,0,1,2.46-.577q4.283,0,4.355,4.536v8.722h-2.226v-8.59a2.989,2.989,0,0,0-.638-2.087,2.808,2.808,0,0,0-2.141-.692,2.951,2.951,0,0,0-2.057.74,3,3,0,0,0-.95,1.991v8.638H124.06v-8.53q0-2.839-2.779-2.839a2.978,2.978,0,0,0-3,1.865v9.5h-2.226V-15.538Zm30.5,6.653A7.794,7.794,0,0,1,147.3-4.1a4.357,4.357,0,0,1-3.681,1.817,4.774,4.774,0,0,1-3.729-1.5V2.484h-2.226V-15.538H139.7l.108,1.444a4.585,4.585,0,0,1,3.778-1.684A4.439,4.439,0,0,1,147.3-14.01a7.879,7.879,0,0,1,1.365,4.92Zm-2.226-.253a5.751,5.751,0,0,0-.938-3.477,3.023,3.023,0,0,0-2.575-1.275,3.272,3.272,0,0,0-3.032,1.793v6.22A3.278,3.278,0,0,0,142.948-4.1a3.009,3.009,0,0,0,2.544-1.269A6.278,6.278,0,0,0,146.437-9.138Zm13.089,6.617a4.675,4.675,0,0,1-.313-1.371,4.966,4.966,0,0,1-3.705,1.612,4.6,4.6,0,0,1-3.158-1.089,3.523,3.523,0,0,1-1.233-2.761,3.68,3.68,0,0,1,1.546-3.158,7.289,7.289,0,0,1,4.349-1.125h2.165v-1.023a2.5,2.5,0,0,0-.7-1.859,2.8,2.8,0,0,0-2.057-.692,3.245,3.245,0,0,0-2,.6,1.773,1.773,0,0,0-.806,1.456h-2.238a3.071,3.071,0,0,1,.692-1.883,4.721,4.721,0,0,1,1.877-1.438,6.314,6.314,0,0,1,2.6-.529,5.146,5.146,0,0,1,3.525,1.125,4.058,4.058,0,0,1,1.323,3.1v5.991a7.325,7.325,0,0,0,.457,2.851v.192Zm-3.693-1.7a3.912,3.912,0,0,0,1.985-.541,3.275,3.275,0,0,0,1.359-1.408V-8.837h-1.744q-4.09,0-4.09,2.394a2.026,2.026,0,0,0,.7,1.636A2.682,2.682,0,0,0,155.832-4.217Zm14.28.12a3.206,3.206,0,0,0,2.081-.722,2.539,2.539,0,0,0,.987-1.8h2.105a4.036,4.036,0,0,1-.77,2.129,5.071,5.071,0,0,1-1.895,1.612,5.467,5.467,0,0,1-2.508.6,5.362,5.362,0,0,1-4.229-1.775,7.068,7.068,0,0,1-1.57-4.854v-.373a7.837,7.837,0,0,1,.7-3.381,5.315,5.315,0,0,1,2-2.3,5.69,5.69,0,0,1,3.086-.818,5.221,5.221,0,0,1,3.639,1.311,4.687,4.687,0,0,1,1.546,3.4h-2.105a3.067,3.067,0,0,0-.956-2.075,2.975,2.975,0,0,0-2.123-.812,3.115,3.115,0,0,0-2.629,1.221A5.735,5.735,0,0,0,166.54-9.2v.421a5.62,5.62,0,0,0,.926,3.465A3.13,3.13,0,0,0,170.113-4.1Zm10.7-14.593v3.152h2.43v1.72h-2.43v8.073a1.8,1.8,0,0,0,.325,1.173,1.368,1.368,0,0,0,1.107.391,5.388,5.388,0,0,0,1.059-.144v1.8a6.452,6.452,0,0,1-1.708.241,2.772,2.772,0,0,1-2.25-.9,3.876,3.876,0,0,1-.758-2.563v-8.073h-2.37v-1.72h2.37V-18.69Zm12.62,8.421,7.531,3.044v2.358l-9.841-4.56v-1.756l9.841-4.548v2.358Zm21.763,1.215H209.32V-10.87h5.871Zm9.251,6.533h-2.238V-17.355l-4.487,1.648v-2.021l6.376-2.394h.349Zm17.5-7.471q0,3.91-1.335,5.811a4.749,4.749,0,0,1-4.175,1.9,4.784,4.784,0,0,1-4.151-1.859,9.662,9.662,0,0,1-1.4-5.552v-2.972q0-3.862,1.335-5.739a4.786,4.786,0,0,1,4.187-1.877,4.83,4.83,0,0,1,4.163,1.811q1.335,1.811,1.371,5.588Zm-2.226-3.044a8.155,8.155,0,0,0-.794-4.12,2.733,2.733,0,0,0-2.514-1.293,2.7,2.7,0,0,0-2.49,1.287,7.963,7.963,0,0,0-.806,3.958v3.561a8.286,8.286,0,0,0,.824,4.193,2.728,2.728,0,0,0,2.5,1.353,2.69,2.69,0,0,0,2.448-1.275,7.986,7.986,0,0,0,.836-4.018Zm4.884-3.633a3.554,3.554,0,0,1,1-2.6,3.461,3.461,0,0,1,2.581-1.023,3.44,3.44,0,0,1,2.593,1.029,3.678,3.678,0,0,1,.993,2.665v.854a3.509,3.509,0,0,1-1,2.593,3.463,3.463,0,0,1-2.557,1,3.539,3.539,0,0,1-2.587-1,3.582,3.582,0,0,1-1.023-2.677Zm1.66.926A2.268,2.268,0,0,0,246.8-14.2a1.788,1.788,0,0,0,1.42.608,1.753,1.753,0,0,0,1.378-.589,2.342,2.342,0,0,0,.523-1.612v-.878a2.325,2.325,0,0,0-.517-1.552,1.744,1.744,0,0,0-1.408-.614,1.744,1.744,0,0,0-1.408.614,2.4,2.4,0,0,0-.517,1.6Zm6.869,8.927a3.534,3.534,0,0,1,1-2.593,3.471,3.471,0,0,1,2.581-1.017,3.5,3.5,0,0,1,2.587,1.011,3.626,3.626,0,0,1,1.011,2.683v.854a3.534,3.534,0,0,1-1,2.593,3.456,3.456,0,0,1-2.569,1.017,3.539,3.539,0,0,1-2.587-1,3.582,3.582,0,0,1-1.023-2.677Zm1.66.938a2.286,2.286,0,0,0,.529,1.558,1.788,1.788,0,0,0,1.42.608,1.741,1.741,0,0,0,1.384-.6,2.383,2.383,0,0,0,.517-1.618v-.89a2.279,2.279,0,0,0-.523-1.552,1.764,1.764,0,0,0-1.4-.6,1.782,1.782,0,0,0-1.39.6,2.313,2.313,0,0,0-.535,1.606ZM248.72-3.844l-1.263-.794,8.554-13.691,1.263.794Z" transform="translate(1389.848 937.506)"/>
</svg>
