<svg id="Group_461" data-name="Group 461" xmlns="http://www.w3.org/2000/svg" viewBox="5839 -2353 35 35">
  <defs>
    <style>
      .cls-1, .cls-4 {
        fill: none;
      }

      .cls-1 {
        stroke: #fff;
        stroke-width: 0.2px;
      }

      .cls-2 {
        fill: #67b2e2;
      }

      .cls-3 {
        stroke: none;
      }
    </style>
  </defs>
  <g id="Rectangle_638" data-name="Rectangle 638" class="cls-1" transform="translate(5839 -2353)">
    <rect class="cls-3" width="35" height="35"/>
    <rect class="cls-4" x="0.1" y="0.1" width="34.8" height="34.8"/>
  </g>
  <path id="Path_598" data-name="Path 598" class="cls-2" d="M.561-2.393,1.982-2.6,8.039-19.906h4.088L18.143-2.6l1.422.205V0H12.783V-2.393l1.381-.246-.875-2.734H6.836L5.961-2.639l1.381.246V0H.561Zm7.219-5.92h4.566L10.1-15.326h-.082ZM30.393,0a7.22,7.22,0,0,1-.287-.759,5.985,5.985,0,0,1-.191-.786A5.492,5.492,0,0,1,28.185-.219a5.173,5.173,0,0,1-2.331.506A4.884,4.884,0,0,1,22.4-.9a4.171,4.171,0,0,1-1.278-3.22,3.661,3.661,0,0,1,1.668-3.213,8.712,8.712,0,0,1,4.895-1.135h2.037V-9.912a2.18,2.18,0,0,0-.615-1.654,2.537,2.537,0,0,0-1.818-.588A4.306,4.306,0,0,0,26.072-12a3.184,3.184,0,0,0-.861.376l-.26,1.586H21.943l.014-3.281a11.2,11.2,0,0,1,2.509-1.244,9.1,9.1,0,0,1,3.083-.506,7.019,7.019,0,0,1,4.464,1.347,4.59,4.59,0,0,1,1.716,3.835v6.111q0,.342.007.643a4.572,4.572,0,0,0,.048.574L35-2.393V0ZM26.934-2.666a3.46,3.46,0,0,0,1.641-.39,3.168,3.168,0,0,0,1.148-.978V-6.289H27.686a2.782,2.782,0,0,0-1.928.595A1.862,1.862,0,0,0,25.1-4.266a1.479,1.479,0,0,0,.485,1.176A1.98,1.98,0,0,0,26.934-2.666Z" transform="translate(5839 -2325)"/>
</svg>
