<svg xmlns="http://www.w3.org/2000/svg" viewBox="0 0 666.1 585.191">
  <defs>
    <style>
      .cls-1, .cls-5, .cls-9 {
        fill: #f57200;
      }

      .cls-2, .cls-3, .cls-6, .cls-7 {
        fill: none;
      }

      .cls-2 {
        stroke: #c6c6c6;
      }

      .cls-3 {
        stroke: #000;
        stroke-width: 2px;
      }

      .cls-4 {
        fill: #68b3e4;
      }

      .cls-5 {
        opacity: 0.448;
      }

      .cls-6, .cls-7 {
        stroke: #f57200;
      }

      .cls-6 {
        stroke-width: 4px;
      }

      .cls-7 {
        stroke-width: 3px;
      }

      .cls-8 {
        fill: #fff;
      }

      .cls-9 {
        font-size: 16px;
        font-family: Roboto-Bold, Roboto;
        font-weight: 700;
      }
    </style>
  </defs>
  <g id="Group_71" data-name="Group 71" transform="translate(-1061.07 -1149.887)">
    <path id="Path_204" data-name="Path 204" d="M4.648-14.219l4.1,10.9,4.092-10.9h3.193V0H13.574V-4.687l.244-6.27L9.619,0H7.852L3.662-10.947l.244,6.26V0H1.445V-14.219ZM21.25,0H18.877V-10.566H21.25ZM18.73-13.311a1.259,1.259,0,0,1,.347-.908,1.309,1.309,0,0,1,.991-.361,1.326,1.326,0,0,1,1,.361,1.25,1.25,0,0,1,.352.908,1.221,1.221,0,0,1-.352.894,1.336,1.336,0,0,1-1,.356,1.32,1.32,0,0,1-.991-.356A1.23,1.23,0,0,1,18.73-13.311Zm7.3,2.744L26.1-9.346a3.8,3.8,0,0,1,3.076-1.416q3.3,0,3.359,3.779V0H30.166V-6.846a2.176,2.176,0,0,0-.435-1.489,1.828,1.828,0,0,0-1.421-.483,2.287,2.287,0,0,0-2.139,1.3V0H23.8V-10.566ZM37.48,0H35.107V-10.566H37.48Zm-2.52-13.311a1.259,1.259,0,0,1,.347-.908,1.309,1.309,0,0,1,.991-.361,1.326,1.326,0,0,1,1,.361,1.25,1.25,0,0,1,.352.908,1.221,1.221,0,0,1-.352.894,1.336,1.336,0,0,1-1,.356,1.32,1.32,0,0,1-.991-.356A1.23,1.23,0,0,1,34.961-13.311Zm7.334,2.744.068,1.1a3.8,3.8,0,0,1,3.047-1.3,2.921,2.921,0,0,1,2.9,1.621,3.748,3.748,0,0,1,3.242-1.621,3.294,3.294,0,0,1,2.6.967,4.257,4.257,0,0,1,.874,2.852V0H52.656V-6.875a2.1,2.1,0,0,0-.439-1.475,1.924,1.924,0,0,0-1.455-.469,1.976,1.976,0,0,0-1.323.435,2.292,2.292,0,0,0-.718,1.138L48.73,0H46.357V-6.953a1.693,1.693,0,0,0-1.9-1.865,2.089,2.089,0,0,0-2.021,1.162V0H40.059V-10.566ZM63.867-1.035A3.68,3.68,0,0,1,60.9.2,3.28,3.28,0,0,1,58.3-.811a4.279,4.279,0,0,1-.884-2.91v-6.846h2.373V-3.75q0,2.012,1.67,2.012a2.345,2.345,0,0,0,2.334-1.24v-7.588h2.373V0H63.926Zm6.943-9.531.068,1.1a3.8,3.8,0,0,1,3.047-1.3,2.921,2.921,0,0,1,2.9,1.621,3.748,3.748,0,0,1,3.242-1.621,3.294,3.294,0,0,1,2.6.967,4.257,4.257,0,0,1,.874,2.852V0H81.172V-6.875a2.1,2.1,0,0,0-.439-1.475,1.924,1.924,0,0,0-1.455-.469,1.976,1.976,0,0,0-1.323.435,2.292,2.292,0,0,0-.718,1.138L77.246,0H74.873V-6.953a1.693,1.693,0,0,0-1.9-1.865,2.089,2.089,0,0,0-2.021,1.162V0H68.574V-10.566ZM96.494-8.4a5.872,5.872,0,0,0-.967-.078,2.177,2.177,0,0,0-2.2,1.25V0H90.957V-10.566h2.266l.059,1.182a2.674,2.674,0,0,1,2.383-1.377,2.222,2.222,0,0,1,.84.137ZM102.646.2a4.91,4.91,0,0,1-3.657-1.421,5.154,5.154,0,0,1-1.4-3.784V-5.3A6.34,6.34,0,0,1,98.2-8.13a4.645,4.645,0,0,1,1.714-1.938,4.531,4.531,0,0,1,2.461-.693,4.147,4.147,0,0,1,3.335,1.377,5.822,5.822,0,0,1,1.177,3.9v.957h-6.9a3.173,3.173,0,0,0,.874,2.07,2.624,2.624,0,0,0,1.929.762,3.213,3.213,0,0,0,2.656-1.318L106.719-1.8a4.272,4.272,0,0,1-1.694,1.47A5.3,5.3,0,0,1,102.646.2Zm-.283-9.053a2,2,0,0,0-1.577.684,3.543,3.543,0,0,0-.767,1.9h4.521v-.176a2.884,2.884,0,0,0-.635-1.8A1.983,1.983,0,0,0,102.363-8.857Zm5.918,3.486a6.244,6.244,0,0,1,1.133-3.936,3.681,3.681,0,0,1,3.066-1.455,3.46,3.46,0,0,1,2.8,1.24l.137-1.045h2.109V4.063h-2.373V-.9A3.542,3.542,0,0,1,112.461.2a3.646,3.646,0,0,1-3.037-1.479A6.537,6.537,0,0,1,108.281-5.371Zm2.373.205a4.409,4.409,0,0,0,.64,2.544,2.039,2.039,0,0,0,1.772.923,2.248,2.248,0,0,0,2.09-1.2v-4.8a2.249,2.249,0,0,0-2.07-1.152,2.073,2.073,0,0,0-1.782.908A4.811,4.811,0,0,0,110.654-5.166Zm15.83,4.131A3.68,3.68,0,0,1,123.516.2a3.28,3.28,0,0,1-2.6-1.006,4.279,4.279,0,0,1-.884-2.91v-6.846H122.4V-3.75q0,2.012,1.67,2.012a2.345,2.345,0,0,0,2.334-1.24v-7.588h2.373V0h-2.236ZM133.721,0h-2.373V-10.566h2.373ZM131.2-13.311a1.259,1.259,0,0,1,.347-.908,1.309,1.309,0,0,1,.991-.361,1.326,1.326,0,0,1,1,.361,1.25,1.25,0,0,1,.352.908,1.221,1.221,0,0,1-.352.894,1.336,1.336,0,0,1-1,.356,1.32,1.32,0,0,1-.991-.356A1.23,1.23,0,0,1,131.2-13.311ZM141.836-8.4a5.872,5.872,0,0,0-.967-.078,2.177,2.177,0,0,0-2.2,1.25V0H136.3V-10.566h2.266l.059,1.182a2.674,2.674,0,0,1,2.383-1.377,2.222,2.222,0,0,1,.84.137ZM147.988.2a4.91,4.91,0,0,1-3.657-1.421,5.154,5.154,0,0,1-1.4-3.784V-5.3a6.34,6.34,0,0,1,.61-2.827,4.646,4.646,0,0,1,1.714-1.938,4.531,4.531,0,0,1,2.461-.693,4.147,4.147,0,0,1,3.335,1.377,5.823,5.823,0,0,1,1.177,3.9v.957h-6.9a3.173,3.173,0,0,0,.874,2.07,2.624,2.624,0,0,0,1.929.762,3.213,3.213,0,0,0,2.656-1.318L152.061-1.8a4.272,4.272,0,0,1-1.694,1.47A5.3,5.3,0,0,1,147.988.2Zm-.283-9.053a2,2,0,0,0-1.577.684,3.543,3.543,0,0,0-.767,1.9h4.521v-.176a2.884,2.884,0,0,0-.635-1.8A1.983,1.983,0,0,0,147.705-8.857Zm8.594-1.709.068,1.1a3.8,3.8,0,0,1,3.047-1.3,2.921,2.921,0,0,1,2.9,1.621,3.748,3.748,0,0,1,3.242-1.621,3.294,3.294,0,0,1,2.6.967,4.257,4.257,0,0,1,.874,2.852V0H166.66V-6.875a2.1,2.1,0,0,0-.439-1.475,1.924,1.924,0,0,0-1.455-.469,1.976,1.976,0,0,0-1.323.435,2.292,2.292,0,0,0-.718,1.138L162.734,0h-2.373V-6.953a1.693,1.693,0,0,0-1.9-1.865,2.089,2.089,0,0,0-2.021,1.162V0h-2.373V-10.566ZM176.123.2a4.91,4.91,0,0,1-3.657-1.421,5.154,5.154,0,0,1-1.4-3.784V-5.3a6.34,6.34,0,0,1,.61-2.827,4.646,4.646,0,0,1,1.714-1.938,4.531,4.531,0,0,1,2.461-.693,4.147,4.147,0,0,1,3.335,1.377,5.823,5.823,0,0,1,1.177,3.9v.957h-6.9a3.173,3.173,0,0,0,.874,2.07,2.624,2.624,0,0,0,1.929.762,3.213,3.213,0,0,0,2.656-1.318L180.2-1.8A4.272,4.272,0,0,1,178.5-.327,5.3,5.3,0,0,1,176.123.2Zm-.283-9.053a2,2,0,0,0-1.577.684,3.543,3.543,0,0,0-.767,1.9h4.521v-.176a2.884,2.884,0,0,0-.635-1.8A1.983,1.983,0,0,0,175.84-8.857Zm8.564-1.709.068,1.221a3.8,3.8,0,0,1,3.076-1.416q3.3,0,3.359,3.779V0h-2.373V-6.846a2.176,2.176,0,0,0-.435-1.489,1.828,1.828,0,0,0-1.421-.483,2.287,2.287,0,0,0-2.139,1.3V0h-2.373V-10.566ZM196.3-13.135v2.568h1.865v1.758H196.3v5.9a1.3,1.3,0,0,0,.239.874,1.109,1.109,0,0,0,.854.269,3.656,3.656,0,0,0,.83-.1V-.029A5.845,5.845,0,0,1,196.66.2q-2.734,0-2.734-3.018V-8.809h-1.738v-1.758h1.738v-2.568Zm9.6,10.264a1.076,1.076,0,0,0-.522-.967,5.557,5.557,0,0,0-1.733-.586,8.911,8.911,0,0,1-2.021-.645,2.7,2.7,0,0,1-1.777-2.49A2.813,2.813,0,0,1,201-9.844a4.556,4.556,0,0,1,2.93-.918,4.74,4.74,0,0,1,3.062.938,2.975,2.975,0,0,1,1.167,2.432h-2.373a1.462,1.462,0,0,0-.508-1.138,1.946,1.946,0,0,0-1.348-.454,2.1,2.1,0,0,0-1.274.361,1.139,1.139,0,0,0-.493.967.962.962,0,0,0,.459.85,6.312,6.312,0,0,0,1.855.61,8.783,8.783,0,0,1,2.192.732,3.1,3.1,0,0,1,1.182,1.021A2.6,2.6,0,0,1,208.232-3a2.753,2.753,0,0,1-1.182,2.31,5.039,5.039,0,0,1-3.1.884,5.464,5.464,0,0,1-2.314-.469,3.809,3.809,0,0,1-1.582-1.289,3.051,3.051,0,0,1-.566-1.768h2.3a1.672,1.672,0,0,0,.635,1.294,2.467,2.467,0,0,0,1.553.454,2.4,2.4,0,0,0,1.426-.356A1.1,1.1,0,0,0,205.9-2.871ZM216.113,0V-8.809H214.5v-1.758h1.611v-.967a3.629,3.629,0,0,1,.977-2.715,3.741,3.741,0,0,1,2.734-.957,5.484,5.484,0,0,1,1.328.176l-.059,1.855a4.674,4.674,0,0,0-.908-.078,1.524,1.524,0,0,0-1.7,1.748v.938h2.148v1.758h-2.148V0Zm5.811-5.381a6.231,6.231,0,0,1,.615-2.8,4.493,4.493,0,0,1,1.729-1.914,4.87,4.87,0,0,1,2.559-.669A4.615,4.615,0,0,1,230.3-9.385a5.416,5.416,0,0,1,1.44,3.652l.01.557a6.286,6.286,0,0,1-.6,2.793,4.439,4.439,0,0,1-1.719,1.9A4.906,4.906,0,0,1,226.846.2a4.584,4.584,0,0,1-3.579-1.489,5.7,5.7,0,0,1-1.343-3.97Zm2.373.205a4.258,4.258,0,0,0,.674,2.554,2.191,2.191,0,0,0,1.875.923,2.167,2.167,0,0,0,1.87-.937,4.7,4.7,0,0,0,.669-2.744A4.2,4.2,0,0,0,228.7-7.92a2.2,2.2,0,0,0-1.87-.937,2.178,2.178,0,0,0-1.846.923A4.614,4.614,0,0,0,224.3-5.176ZM239.287-8.4a5.872,5.872,0,0,0-.967-.078,2.177,2.177,0,0,0-2.2,1.25V0H233.75V-10.566h2.266l.059,1.182a2.674,2.674,0,0,1,2.383-1.377,2.222,2.222,0,0,1,.84.137Zm9.453-4.736v2.568h1.865v1.758H248.74v5.9a1.3,1.3,0,0,0,.239.874,1.109,1.109,0,0,0,.854.269,3.656,3.656,0,0,0,.83-.1V-.029A5.845,5.845,0,0,1,249.1.2q-2.734,0-2.734-3.018V-8.809h-1.738v-1.758h1.738v-2.568Zm2.939,7.754a6.231,6.231,0,0,1,.615-2.8,4.493,4.493,0,0,1,1.729-1.914,4.87,4.87,0,0,1,2.559-.669,4.615,4.615,0,0,1,3.472,1.377,5.416,5.416,0,0,1,1.44,3.652l.01.557a6.286,6.286,0,0,1-.6,2.793,4.439,4.439,0,0,1-1.719,1.9A4.906,4.906,0,0,1,256.6.2a4.584,4.584,0,0,1-3.579-1.489,5.7,5.7,0,0,1-1.343-3.97Zm2.373.205a4.258,4.258,0,0,0,.674,2.554A2.191,2.191,0,0,0,256.6-1.7a2.167,2.167,0,0,0,1.87-.937,4.7,4.7,0,0,0,.669-2.744,4.2,4.2,0,0,0-.688-2.539,2.2,2.2,0,0,0-1.87-.937,2.178,2.178,0,0,0-1.846.923A4.614,4.614,0,0,0,254.053-5.176Zm15.859,4.141A3.68,3.68,0,0,1,266.943.2a3.28,3.28,0,0,1-2.6-1.006,4.279,4.279,0,0,1-.884-2.91v-6.846h2.373V-3.75q0,2.012,1.67,2.012a2.345,2.345,0,0,0,2.334-1.24v-7.588h2.373V0h-2.236Zm9.053-.664a2.146,2.146,0,0,0,1.475-.518,1.768,1.768,0,0,0,.625-1.279H283.3a3.485,3.485,0,0,1-.615,1.841A4.035,4.035,0,0,1,281.123-.3a4.656,4.656,0,0,1-2.129.5,4.505,4.505,0,0,1-3.516-1.436,5.694,5.694,0,0,1-1.3-3.965v-.244a5.6,5.6,0,0,1,1.289-3.862,4.464,4.464,0,0,1,3.516-1.45,4.341,4.341,0,0,1,3.071,1.1A3.935,3.935,0,0,1,283.3-6.777h-2.236a2.173,2.173,0,0,0-.62-1.494,2,2,0,0,0-1.479-.586,2.088,2.088,0,0,0-1.777.835,4.261,4.261,0,0,0-.635,2.534v.381a4.331,4.331,0,0,0,.62,2.563A2.086,2.086,0,0,0,278.965-1.7Zm8.467-7.715a3.714,3.714,0,0,1,2.939-1.348q3.379,0,3.428,3.857V0h-2.373V-6.816a2.086,2.086,0,0,0-.474-1.548,1.936,1.936,0,0,0-1.392-.454,2.286,2.286,0,0,0-2.129,1.27V0h-2.373V-15h2.373ZM307.1-2.871a1.076,1.076,0,0,0-.522-.967,5.557,5.557,0,0,0-1.733-.586,8.911,8.911,0,0,1-2.021-.645,2.7,2.7,0,0,1-1.777-2.49A2.813,2.813,0,0,1,302.2-9.844a4.556,4.556,0,0,1,2.93-.918,4.74,4.74,0,0,1,3.062.938,2.975,2.975,0,0,1,1.167,2.432h-2.373a1.462,1.462,0,0,0-.508-1.138,1.946,1.946,0,0,0-1.348-.454,2.1,2.1,0,0,0-1.274.361,1.139,1.139,0,0,0-.493.967.962.962,0,0,0,.459.85,6.312,6.312,0,0,0,1.855.61,8.783,8.783,0,0,1,2.192.732,3.1,3.1,0,0,1,1.182,1.021A2.6,2.6,0,0,1,309.434-3a2.753,2.753,0,0,1-1.182,2.31,5.039,5.039,0,0,1-3.1.884,5.464,5.464,0,0,1-2.314-.469,3.809,3.809,0,0,1-1.582-1.289,3.051,3.051,0,0,1-.566-1.768H303a1.672,1.672,0,0,0,.635,1.294,2.467,2.467,0,0,0,1.553.454,2.4,2.4,0,0,0,1.426-.356A1.1,1.1,0,0,0,307.1-2.871ZM315.84-1.7a2.146,2.146,0,0,0,1.475-.518,1.768,1.768,0,0,0,.625-1.279h2.236a3.485,3.485,0,0,1-.615,1.841A4.035,4.035,0,0,1,318-.3a4.656,4.656,0,0,1-2.129.5,4.505,4.505,0,0,1-3.516-1.436,5.694,5.694,0,0,1-1.3-3.965v-.244a5.6,5.6,0,0,1,1.289-3.862,4.464,4.464,0,0,1,3.516-1.45,4.341,4.341,0,0,1,3.071,1.1,3.935,3.935,0,0,1,1.245,2.886h-2.236a2.173,2.173,0,0,0-.62-1.494,2,2,0,0,0-1.479-.586,2.088,2.088,0,0,0-1.777.835,4.261,4.261,0,0,0-.635,2.534v.381a4.331,4.331,0,0,0,.62,2.563A2.086,2.086,0,0,0,315.84-1.7ZM327.5-8.4a5.872,5.872,0,0,0-.967-.078,2.177,2.177,0,0,0-2.2,1.25V0h-2.373V-10.566h2.266l.059,1.182a2.674,2.674,0,0,1,2.383-1.377,2.222,2.222,0,0,1,.84.137ZM333.652.2A4.91,4.91,0,0,1,330-1.226a5.154,5.154,0,0,1-1.4-3.784V-5.3a6.34,6.34,0,0,1,.61-2.827,4.645,4.645,0,0,1,1.714-1.938,4.531,4.531,0,0,1,2.461-.693,4.147,4.147,0,0,1,3.335,1.377,5.822,5.822,0,0,1,1.177,3.9v.957h-6.9a3.173,3.173,0,0,0,.874,2.07,2.624,2.624,0,0,0,1.929.762,3.213,3.213,0,0,0,2.656-1.318L337.725-1.8a4.272,4.272,0,0,1-1.694,1.47A5.3,5.3,0,0,1,333.652.2Zm-.283-9.053a2,2,0,0,0-1.577.684,3.543,3.543,0,0,0-.767,1.9h4.521v-.176a2.884,2.884,0,0,0-.635-1.8A1.983,1.983,0,0,0,333.369-8.857ZM344.385.2a4.91,4.91,0,0,1-3.657-1.421,5.154,5.154,0,0,1-1.4-3.784V-5.3a6.34,6.34,0,0,1,.61-2.827,4.645,4.645,0,0,1,1.714-1.938,4.531,4.531,0,0,1,2.461-.693,4.147,4.147,0,0,1,3.335,1.377,5.822,5.822,0,0,1,1.177,3.9v.957h-6.9a3.173,3.173,0,0,0,.874,2.07,2.624,2.624,0,0,0,1.929.762,3.213,3.213,0,0,0,2.656-1.318L348.457-1.8a4.272,4.272,0,0,1-1.694,1.47A5.3,5.3,0,0,1,344.385.2ZM344.1-8.857a2,2,0,0,0-1.577.684,3.543,3.543,0,0,0-.767,1.9h4.521v-.176a2.884,2.884,0,0,0-.635-1.8A1.983,1.983,0,0,0,344.1-8.857Zm8.564-1.709.068,1.221a3.8,3.8,0,0,1,3.076-1.416q3.3,0,3.359,3.779V0H356.8V-6.846a2.176,2.176,0,0,0-.435-1.489,1.828,1.828,0,0,0-1.421-.483,2.287,2.287,0,0,0-2.139,1.3V0H350.43V-10.566Z" transform="translate(1368 1218)"/>
    <path id="Path_201" data-name="Path 201" d="M7.989-3.3A1.545,1.545,0,0,0,7.4-4.6a7.138,7.138,0,0,0-2.14-.923A10.335,10.335,0,0,1,2.795-6.557,3.284,3.284,0,0,1,1.046-9.422a3.118,3.118,0,0,1,1.261-2.549,5.1,5.1,0,0,1,3.274-1,5.53,5.53,0,0,1,2.382.492,3.909,3.909,0,0,1,1.644,1.4,3.6,3.6,0,0,1,.6,2.017H7.989a2.005,2.005,0,0,0-.628-1.569,2.594,2.594,0,0,0-1.8-.567,2.709,2.709,0,0,0-1.692.466,1.551,1.551,0,0,0-.6,1.3,1.4,1.4,0,0,0,.65,1.173,7.493,7.493,0,0,0,2.145.914,9.865,9.865,0,0,1,2.4,1.011,3.816,3.816,0,0,1,1.327,1.3,3.388,3.388,0,0,1,.422,1.718A3.045,3.045,0,0,1,8.987-.769,5.318,5.318,0,0,1,5.66.176,6.251,6.251,0,0,1,3.107-.338,4.289,4.289,0,0,1,1.3-1.758,3.537,3.537,0,0,1,.65-3.867H2.874A2.07,2.07,0,0,0,3.595-2.18a3.156,3.156,0,0,0,2.065.6A2.742,2.742,0,0,0,7.4-2.052,1.517,1.517,0,0,0,7.989-3.3ZM14.229,0H12.094V-9.51h2.136ZM11.962-11.979a1.133,1.133,0,0,1,.312-.817,1.179,1.179,0,0,1,.892-.325,1.193,1.193,0,0,1,.9.325,1.125,1.125,0,0,1,.316.817,1.1,1.1,0,0,1-.316.8,1.2,1.2,0,0,1-.9.321,1.188,1.188,0,0,1-.892-.321A1.107,1.107,0,0,1,11.962-11.979ZM18.835-1.705H23.9V0H16.181V-1.4l4.825-6.39H16.269V-9.51h7.444v1.354ZM29.795.176A4.419,4.419,0,0,1,26.5-1.1a4.639,4.639,0,0,1-1.261-3.406v-.264a5.706,5.706,0,0,1,.549-2.544,4.181,4.181,0,0,1,1.542-1.745,4.078,4.078,0,0,1,2.215-.624,3.733,3.733,0,0,1,3,1.239,5.24,5.24,0,0,1,1.059,3.507v.861H27.4a2.856,2.856,0,0,0,.787,1.863,2.362,2.362,0,0,0,1.736.686,2.892,2.892,0,0,0,2.391-1.187l1.151,1.1A3.845,3.845,0,0,1,31.935-.294,4.774,4.774,0,0,1,29.795.176ZM29.54-7.972a1.8,1.8,0,0,0-1.419.615,3.189,3.189,0,0,0-.69,1.714H31.5V-5.8a2.6,2.6,0,0,0-.571-1.622A1.785,1.785,0,0,0,29.54-7.972Zm9.809,3.129A5.607,5.607,0,0,1,39.9-7.361a4.044,4.044,0,0,1,1.556-1.723,4.383,4.383,0,0,1,2.3-.6,4.154,4.154,0,0,1,3.125,1.239,4.874,4.874,0,0,1,1.3,3.287l.009.5a5.658,5.658,0,0,1-.541,2.514A4,4,0,0,1,46.1-.431a4.415,4.415,0,0,1-2.325.606,4.125,4.125,0,0,1-3.221-1.34,5.133,5.133,0,0,1-1.208-3.573Zm2.136.185a3.832,3.832,0,0,0,.606,2.3,1.971,1.971,0,0,0,1.688.831,1.95,1.95,0,0,0,1.683-.844,4.232,4.232,0,0,0,.6-2.47,3.782,3.782,0,0,0-.62-2.285,1.979,1.979,0,0,0-1.683-.844,1.96,1.96,0,0,0-1.661.831A4.152,4.152,0,0,0,41.484-4.658ZM50.748,0V-7.928H49.3V-9.51h1.45v-.87a3.266,3.266,0,0,1,.879-2.443,3.367,3.367,0,0,1,2.461-.861,4.936,4.936,0,0,1,1.2.158l-.053,1.67a4.207,4.207,0,0,0-.817-.07,1.371,1.371,0,0,0-1.529,1.573v.844h1.934v1.582H52.884V0ZM63.536-11.821V-9.51h1.679v1.582H63.536v5.309a1.169,1.169,0,0,0,.215.787,1,1,0,0,0,.769.242,3.29,3.29,0,0,0,.747-.088V-.026a5.26,5.26,0,0,1-1.406.2Q61.4.176,61.4-2.54V-7.928H59.836V-9.51H61.4v-2.312Zm2.646,6.979a5.607,5.607,0,0,1,.554-2.518,4.044,4.044,0,0,1,1.556-1.723,4.383,4.383,0,0,1,2.3-.6,4.154,4.154,0,0,1,3.125,1.239,4.874,4.874,0,0,1,1.3,3.287l.009.5a5.658,5.658,0,0,1-.541,2.514A4,4,0,0,1,72.936-.431a4.415,4.415,0,0,1-2.325.606,4.125,4.125,0,0,1-3.221-1.34,5.133,5.133,0,0,1-1.208-3.573Zm2.136.185a3.832,3.832,0,0,0,.606,2.3,1.971,1.971,0,0,0,1.688.831,1.95,1.95,0,0,0,1.683-.844,4.232,4.232,0,0,0,.6-2.47,3.782,3.782,0,0,0-.62-2.285,1.979,1.979,0,0,0-1.683-.844,1.96,1.96,0,0,0-1.661.831A4.152,4.152,0,0,0,68.317-4.658ZM82.591-.932A3.312,3.312,0,0,1,79.919.176a2.952,2.952,0,0,1-2.342-.905,3.851,3.851,0,0,1-.8-2.619V-9.51h2.136v6.135q0,1.811,1.5,1.811a2.111,2.111,0,0,0,2.1-1.116V-9.51h2.136V0H82.644Zm8.147-.6A1.931,1.931,0,0,0,92.065-2a1.591,1.591,0,0,0,.563-1.151h2.013a3.137,3.137,0,0,1-.554,1.657A3.632,3.632,0,0,1,92.681-.272a4.191,4.191,0,0,1-1.916.448A4.055,4.055,0,0,1,87.6-1.116a5.124,5.124,0,0,1-1.169-3.568V-4.9a5.039,5.039,0,0,1,1.16-3.476,4.018,4.018,0,0,1,3.164-1.305A3.907,3.907,0,0,1,93.52-8.7a3.542,3.542,0,0,1,1.121,2.6H92.628a1.956,1.956,0,0,0-.558-1.345,1.8,1.8,0,0,0-1.332-.527,1.879,1.879,0,0,0-1.6.751,3.834,3.834,0,0,0-.571,2.281V-4.6a3.9,3.9,0,0,0,.558,2.307A1.878,1.878,0,0,0,90.738-1.529Zm7.62-6.943A3.343,3.343,0,0,1,101-9.686q3.041,0,3.085,3.472V0h-2.136V-6.135a1.878,1.878,0,0,0-.426-1.393,1.743,1.743,0,0,0-1.252-.409,2.057,2.057,0,0,0-1.916,1.143V0H96.223V-13.5h2.136Zm15.047-3.349V-9.51h1.679v1.582h-1.679v5.309a1.169,1.169,0,0,0,.215.787,1,1,0,0,0,.769.242,3.29,3.29,0,0,0,.747-.088V-.026a5.26,5.26,0,0,1-1.406.2q-2.461,0-2.461-2.716V-7.928h-1.564V-9.51h1.564v-2.312ZM122.4,0a3.3,3.3,0,0,1-.246-.888,3.325,3.325,0,0,1-2.5,1.063,3.355,3.355,0,0,1-2.338-.817,2.615,2.615,0,0,1-.905-2.021A2.7,2.7,0,0,1,117.541-5a5.473,5.473,0,0,1,3.23-.813h1.31v-.624a1.666,1.666,0,0,0-.413-1.182,1.638,1.638,0,0,0-1.257-.444,1.881,1.881,0,0,0-1.2.365,1.129,1.129,0,0,0-.466.927h-2.136a2.37,2.37,0,0,1,.519-1.463A3.455,3.455,0,0,1,118.542-9.3a4.955,4.955,0,0,1,1.991-.387,3.99,3.99,0,0,1,2.663.839,2.993,2.993,0,0,1,1.02,2.36V-2.2a4.861,4.861,0,0,0,.36,2.048V0ZM120.05-1.538a2.429,2.429,0,0,0,1.191-.308,2.055,2.055,0,0,0,.839-.826V-4.465h-1.151a3.148,3.148,0,0,0-1.784.413,1.338,1.338,0,0,0-.6,1.169,1.248,1.248,0,0,0,.409.98A1.583,1.583,0,0,0,120.05-1.538Zm11.382-6.021a5.285,5.285,0,0,0-.87-.07A1.959,1.959,0,0,0,128.584-6.5V0h-2.136V-9.51h2.039l.053,1.063a2.406,2.406,0,0,1,2.145-1.239,2,2,0,0,1,.756.123Zm.976,2.733a5.562,5.562,0,0,1,1.042-3.538,3.343,3.343,0,0,1,2.764-1.323,3.132,3.132,0,0,1,2.558,1.134l.1-.958h1.925V-.29a3.832,3.832,0,0,1-1.165,2.953,4.436,4.436,0,0,1-3.142,1.081,5.064,5.064,0,0,1-2.043-.435,3.631,3.631,0,0,1-1.516-1.138L133.937.888a3.053,3.053,0,0,0,2.426,1.169,2.359,2.359,0,0,0,1.679-.576,2.206,2.206,0,0,0,.615-1.692V-.853A3.144,3.144,0,0,1,136.2.176a3.335,3.335,0,0,1-2.729-1.327A5.742,5.742,0,0,1,132.407-4.825Zm2.127.185a3.829,3.829,0,0,0,.584,2.254,1.879,1.879,0,0,0,1.622.822,2.055,2.055,0,0,0,1.916-1.107V-6.855a2.026,2.026,0,0,0-1.9-1.081,1.887,1.887,0,0,0-1.639.835A4.287,4.287,0,0,0,134.534-4.641ZM147.173.176A4.419,4.419,0,0,1,143.881-1.1a4.639,4.639,0,0,1-1.261-3.406v-.264a5.706,5.706,0,0,1,.549-2.544,4.181,4.181,0,0,1,1.542-1.745,4.078,4.078,0,0,1,2.215-.624,3.733,3.733,0,0,1,3,1.239,5.24,5.24,0,0,1,1.059,3.507v.861h-6.214a2.856,2.856,0,0,0,.787,1.863,2.362,2.362,0,0,0,1.736.686,2.892,2.892,0,0,0,2.391-1.187l1.151,1.1a3.845,3.845,0,0,1-1.525,1.323A4.774,4.774,0,0,1,147.173.176Zm-.255-8.147a1.8,1.8,0,0,0-1.419.615,3.189,3.189,0,0,0-.69,1.714h4.069V-5.8a2.6,2.6,0,0,0-.571-1.622A1.785,1.785,0,0,0,146.918-7.972Zm8.4-3.85V-9.51H157v1.582H155.32v5.309a1.169,1.169,0,0,0,.215.787,1,1,0,0,0,.769.242,3.29,3.29,0,0,0,.747-.088V-.026a5.26,5.26,0,0,1-1.406.2q-2.461,0-2.461-2.716V-7.928H151.62V-9.51h1.564v-2.312Zm8.64,9.237a.968.968,0,0,0-.47-.87,5,5,0,0,0-1.56-.527,8.02,8.02,0,0,1-1.819-.58,2.428,2.428,0,0,1-1.6-2.241,2.531,2.531,0,0,1,1.037-2.057,4.1,4.1,0,0,1,2.637-.826,4.266,4.266,0,0,1,2.755.844,2.677,2.677,0,0,1,1.05,2.188h-2.136a1.316,1.316,0,0,0-.457-1.024,1.752,1.752,0,0,0-1.213-.409,1.893,1.893,0,0,0-1.147.325,1.025,1.025,0,0,0-.444.87.866.866,0,0,0,.413.765,5.68,5.68,0,0,0,1.67.549,7.9,7.9,0,0,1,1.973.659A2.794,2.794,0,0,1,165.713-4a2.342,2.342,0,0,1,.347,1.3A2.478,2.478,0,0,1,165-.62a4.535,4.535,0,0,1-2.786.8,4.917,4.917,0,0,1-2.083-.422,3.428,3.428,0,0,1-1.424-1.16A2.746,2.746,0,0,1,158.194-3h2.074a1.5,1.5,0,0,0,.571,1.165,2.22,2.22,0,0,0,1.4.409,2.16,2.16,0,0,0,1.283-.321A.993.993,0,0,0,163.96-2.584Zm5.247.334a1.22,1.22,0,0,1,.923.338,1.175,1.175,0,0,1,.325.848,1.134,1.134,0,0,1-.325.831,1.238,1.238,0,0,1-.923.33,1.242,1.242,0,0,1-.905-.325,1.115,1.115,0,0,1-.334-.835,1.175,1.175,0,0,1,.325-.848A1.208,1.208,0,0,1,169.207-2.25Zm0-7.462a1.22,1.22,0,0,1,.923.338,1.175,1.175,0,0,1,.325.848,1.134,1.134,0,0,1-.325.831,1.238,1.238,0,0,1-.923.33,1.242,1.242,0,0,1-.905-.325,1.115,1.115,0,0,1-.334-.835,1.175,1.175,0,0,1,.325-.848A1.208,1.208,0,0,1,169.207-9.712Z" transform="translate(1061 1263)"/>
    <path id="Path_217" data-name="Path 217" class="cls-1" d="M3.771-11.821V-9.51H5.449v1.582H3.771v5.309a1.169,1.169,0,0,0,.215.787,1,1,0,0,0,.769.242A3.29,3.29,0,0,0,5.5-1.679V-.026A5.26,5.26,0,0,1,4.1.176Q1.635.176,1.635-2.54V-7.928H.07V-9.51H1.635v-2.312ZM6.416-4.843A5.607,5.607,0,0,1,6.97-7.361,4.044,4.044,0,0,1,8.525-9.083a4.383,4.383,0,0,1,2.3-.6,4.154,4.154,0,0,1,3.125,1.239,4.874,4.874,0,0,1,1.3,3.287l.009.5a5.658,5.658,0,0,1-.541,2.514A4,4,0,0,1,13.17-.431a4.415,4.415,0,0,1-2.325.606,4.125,4.125,0,0,1-3.221-1.34A5.133,5.133,0,0,1,6.416-4.737Zm2.136.185a3.832,3.832,0,0,0,.606,2.3,1.971,1.971,0,0,0,1.688.831,1.95,1.95,0,0,0,1.683-.844,4.232,4.232,0,0,0,.6-2.47,3.782,3.782,0,0,0-.62-2.285,1.979,1.979,0,0,0-1.683-.844,1.96,1.96,0,0,0-1.661.831A4.152,4.152,0,0,0,8.552-4.658ZM22.825-.932A3.312,3.312,0,0,1,20.153.176a2.952,2.952,0,0,1-2.342-.905,3.851,3.851,0,0,1-.8-2.619V-9.51h2.136v6.135q0,1.811,1.5,1.811a2.111,2.111,0,0,0,2.1-1.116V-9.51h2.136V0H22.878Zm8.147-.6A1.931,1.931,0,0,0,32.3-2a1.591,1.591,0,0,0,.563-1.151h2.013a3.137,3.137,0,0,1-.554,1.657A3.632,3.632,0,0,1,32.915-.272,4.191,4.191,0,0,1,31,.176a4.055,4.055,0,0,1-3.164-1.292,5.124,5.124,0,0,1-1.169-3.568V-4.9a5.039,5.039,0,0,1,1.16-3.476A4.018,4.018,0,0,1,30.99-9.686a3.907,3.907,0,0,1,2.764.989,3.542,3.542,0,0,1,1.121,2.6H32.862A1.956,1.956,0,0,0,32.3-7.444a1.8,1.8,0,0,0-1.332-.527,1.879,1.879,0,0,0-1.6.751A3.834,3.834,0,0,0,28.8-4.939V-4.6A3.9,3.9,0,0,0,29.36-2.29,1.878,1.878,0,0,0,30.973-1.529Zm7.62-6.943a3.343,3.343,0,0,1,2.646-1.213q3.041,0,3.085,3.472V0H42.188V-6.135a1.878,1.878,0,0,0-.426-1.393,1.743,1.743,0,0,0-1.252-.409,2.057,2.057,0,0,0-1.916,1.143V0H36.457V-13.5h2.136ZM53.64-11.821V-9.51h1.679v1.582H53.64v5.309a1.169,1.169,0,0,0,.215.787,1,1,0,0,0,.769.242,3.29,3.29,0,0,0,.747-.088V-.026a5.26,5.26,0,0,1-1.406.2Q51.5.176,51.5-2.54V-7.928H49.939V-9.51H51.5v-2.312ZM62.631,0a3.3,3.3,0,0,1-.246-.888,3.325,3.325,0,0,1-2.5,1.063,3.355,3.355,0,0,1-2.338-.817,2.615,2.615,0,0,1-.905-2.021A2.7,2.7,0,0,1,57.775-5,5.473,5.473,0,0,1,61-5.81h1.31v-.624A1.666,1.666,0,0,0,61.9-7.616a1.638,1.638,0,0,0-1.257-.444,1.881,1.881,0,0,0-1.2.365,1.129,1.129,0,0,0-.466.927H56.848a2.37,2.37,0,0,1,.519-1.463A3.455,3.455,0,0,1,58.777-9.3a4.955,4.955,0,0,1,1.991-.387,3.99,3.99,0,0,1,2.663.839,2.993,2.993,0,0,1,1.02,2.36V-2.2a4.861,4.861,0,0,0,.36,2.048V0ZM60.284-1.538a2.429,2.429,0,0,0,1.191-.308,2.055,2.055,0,0,0,.839-.826V-4.465H61.163a3.148,3.148,0,0,0-1.784.413,1.338,1.338,0,0,0-.6,1.169,1.248,1.248,0,0,0,.409.98A1.583,1.583,0,0,0,60.284-1.538ZM71.666-7.559a5.285,5.285,0,0,0-.87-.07A1.959,1.959,0,0,0,68.818-6.5V0H66.683V-9.51h2.039l.053,1.063a2.406,2.406,0,0,1,2.145-1.239,2,2,0,0,1,.756.123Zm.976,2.733a5.562,5.562,0,0,1,1.042-3.538,3.343,3.343,0,0,1,2.764-1.323A3.132,3.132,0,0,1,79-8.552l.1-.958h1.925V-.29a3.832,3.832,0,0,1-1.165,2.953A4.436,4.436,0,0,1,76.72,3.744a5.064,5.064,0,0,1-2.043-.435A3.631,3.631,0,0,1,73.16,2.171L74.171.888A3.053,3.053,0,0,0,76.6,2.057a2.359,2.359,0,0,0,1.679-.576,2.206,2.206,0,0,0,.615-1.692V-.853A3.144,3.144,0,0,1,76.43.176,3.335,3.335,0,0,1,73.7-1.151,5.742,5.742,0,0,1,72.642-4.825Zm2.127.185a3.829,3.829,0,0,0,.584,2.254,1.879,1.879,0,0,0,1.622.822,2.055,2.055,0,0,0,1.916-1.107V-6.855a2.026,2.026,0,0,0-1.9-1.081,1.887,1.887,0,0,0-1.639.835A4.287,4.287,0,0,0,74.769-4.641ZM87.407.176A4.419,4.419,0,0,1,84.116-1.1a4.639,4.639,0,0,1-1.261-3.406v-.264A5.706,5.706,0,0,1,83.4-7.317a4.181,4.181,0,0,1,1.542-1.745,4.078,4.078,0,0,1,2.215-.624,3.733,3.733,0,0,1,3,1.239,5.24,5.24,0,0,1,1.059,3.507v.861H85.008a2.856,2.856,0,0,0,.787,1.863,2.362,2.362,0,0,0,1.736.686,2.892,2.892,0,0,0,2.391-1.187l1.151,1.1A3.845,3.845,0,0,1,89.547-.294,4.774,4.774,0,0,1,87.407.176Zm-.255-8.147a1.8,1.8,0,0,0-1.419.615,3.189,3.189,0,0,0-.69,1.714h4.069V-5.8a2.6,2.6,0,0,0-.571-1.622A1.785,1.785,0,0,0,87.152-7.972Zm8.4-3.85V-9.51h1.679v1.582H95.555v5.309a1.169,1.169,0,0,0,.215.787,1,1,0,0,0,.769.242,3.29,3.29,0,0,0,.747-.088V-.026a5.26,5.26,0,0,1-1.406.2q-2.461,0-2.461-2.716V-7.928H91.854V-9.51h1.564v-2.312Z" transform="translate(1264 1409)"/>
    <path id="Path_202" data-name="Path 202" class="cls-1" d="M4.078-11.375,7-3.125l2.906-8.25h3.078V0H10.633V-3.109l.234-5.367L7.8,0H6.188L3.125-8.469l.234,5.359V0H1.016V-11.375ZM17.523,0H15.18V-11.375h2.344ZM28.945,0H26.6L22.039-7.484V0H19.7V-11.375h2.344l4.57,7.5v-7.5h2.336Zm2.016-1.109a1.137,1.137,0,0,1,.363-.875,1.289,1.289,0,0,1,.91-.336,1.3,1.3,0,0,1,.918.336,1.137,1.137,0,0,1,.363.875,1.121,1.121,0,0,1-.359.863,1.305,1.305,0,0,1-.922.332,1.294,1.294,0,0,1-.914-.332A1.121,1.121,0,0,1,30.961-1.109ZM8.57,21H.773V19.453l3.68-3.922a9.078,9.078,0,0,0,1.121-1.445,2.322,2.322,0,0,0,.363-1.172,1.738,1.738,0,0,0-.383-1.191,1.382,1.382,0,0,0-1.094-.434,1.49,1.49,0,0,0-1.207.527A2.089,2.089,0,0,0,2.813,13.2H.547a3.729,3.729,0,0,1,.5-1.9,3.5,3.5,0,0,1,1.4-1.348A4.262,4.262,0,0,1,4.5,9.469a4.036,4.036,0,0,1,2.73.844A2.985,2.985,0,0,1,8.2,12.7a3.825,3.825,0,0,1-.437,1.719,9.551,9.551,0,0,1-1.5,2.039L3.68,19.18H8.57Zm9.039-4.7a5.763,5.763,0,0,1-.977,3.609,3.409,3.409,0,0,1-2.859,1.25A3.433,3.433,0,0,1,10.93,19.93a5.594,5.594,0,0,1-1.008-3.516V14.32A5.687,5.687,0,0,1,10.91,10.7a3.434,3.434,0,0,1,2.848-1.234A3.437,3.437,0,0,1,16.6,10.691,5.576,5.576,0,0,1,17.609,14.2ZM15.352,14a4.158,4.158,0,0,0-.387-2.059,1.307,1.307,0,0,0-1.207-.645,1.284,1.284,0,0,0-1.176.613,3.891,3.891,0,0,0-.4,1.918v2.766a4.365,4.365,0,0,0,.379,2.066,1.29,1.29,0,0,0,1.215.676,1.268,1.268,0,0,0,1.2-.648,4.26,4.26,0,0,0,.383-1.984Zm11.484,2.852a5.07,5.07,0,0,1-.887,3.129,2.843,2.843,0,0,1-2.395,1.176,2.633,2.633,0,0,1-2.07-.891V24.25H19.227v-11.7H21.32l.078.828a2.654,2.654,0,0,1,2.141-.984,2.862,2.862,0,0,1,2.43,1.156,5.207,5.207,0,0,1,.867,3.188Zm-2.258-.164a3.327,3.327,0,0,0-.418-1.82,1.361,1.361,0,0,0-1.215-.641,1.478,1.478,0,0,0-1.461.813V18.5a1.5,1.5,0,0,0,1.477.836Q24.578,19.336,24.578,16.688Zm6.875-1.617,1.422-2.523h2.414l-2.406,4.141L35.391,21H32.969l-1.508-2.656L29.961,21h-2.43l2.508-4.312-2.4-4.141h2.422Z" transform="translate(1263 1243)"/>
    <path id="Path_212" data-name="Path 212" class="cls-1" d="M3.07-6.687h1.2a1.7,1.7,0,0,0,1.273-.43,1.574,1.574,0,0,0,.414-1.141,1.392,1.392,0,0,0-.41-1.07,1.59,1.59,0,0,0-1.129-.383,1.666,1.666,0,0,0-1.086.355A1.137,1.137,0,0,0,2.9-8.43H.641a2.777,2.777,0,0,1,.48-1.6,3.2,3.2,0,0,1,1.344-1.105,4.485,4.485,0,0,1,1.9-.4,4.253,4.253,0,0,1,2.828.863A2.945,2.945,0,0,1,8.219-8.289a2.394,2.394,0,0,1-.477,1.438,3.1,3.1,0,0,1-1.25,1.008A2.826,2.826,0,0,1,7.926-4.812,2.8,2.8,0,0,1,8.4-3.187,2.994,2.994,0,0,1,7.293-.758,4.445,4.445,0,0,1,4.367.156a4.214,4.214,0,0,1-2.785-.9A2.934,2.934,0,0,1,.5-3.117H2.758a1.308,1.308,0,0,0,.48,1.047,1.771,1.771,0,0,0,1.184.406A1.779,1.779,0,0,0,5.684-2.09a1.47,1.47,0,0,0,.457-1.129q0-1.7-1.875-1.7H3.07ZM17.609-4.7a5.763,5.763,0,0,1-.977,3.609A3.409,3.409,0,0,1,13.773.156,3.433,3.433,0,0,1,10.93-1.07,5.594,5.594,0,0,1,9.922-4.586V-6.68A5.687,5.687,0,0,1,10.91-10.3a3.434,3.434,0,0,1,2.848-1.234A3.437,3.437,0,0,1,16.6-10.309,5.576,5.576,0,0,1,17.609-6.8ZM15.352-7a4.158,4.158,0,0,0-.387-2.059A1.307,1.307,0,0,0,13.758-9.7a1.284,1.284,0,0,0-1.176.613,3.891,3.891,0,0,0-.4,1.918v2.766a4.365,4.365,0,0,0,.379,2.066,1.29,1.29,0,0,0,1.215.676,1.268,1.268,0,0,0,1.2-.648A4.26,4.26,0,0,0,15.352-4.3ZM26.836-4.148a5.07,5.07,0,0,1-.887,3.129A2.843,2.843,0,0,1,23.555.156a2.633,2.633,0,0,1-2.07-.891V3.25H19.227v-11.7H21.32l.078.828a2.654,2.654,0,0,1,2.141-.984,2.862,2.862,0,0,1,2.43,1.156,5.207,5.207,0,0,1,.867,3.188Zm-2.258-.164a3.327,3.327,0,0,0-.418-1.82,1.361,1.361,0,0,0-1.215-.641,1.478,1.478,0,0,0-1.461.813V-2.5a1.5,1.5,0,0,0,1.477.836Q24.578-1.664,24.578-4.312ZM31.453-5.93l1.422-2.523h2.414L32.883-4.312,35.391,0H32.969L31.461-2.656,29.961,0h-2.43l2.508-4.312-2.4-4.141h2.422Z" transform="translate(1263 1357)"/>
    <path id="Path_203" data-name="Path 203" d="M7.989-3.3A1.545,1.545,0,0,0,7.4-4.6a7.138,7.138,0,0,0-2.14-.923A10.335,10.335,0,0,1,2.795-6.557,3.284,3.284,0,0,1,1.046-9.422a3.118,3.118,0,0,1,1.261-2.549,5.1,5.1,0,0,1,3.274-1,5.53,5.53,0,0,1,2.382.492,3.909,3.909,0,0,1,1.644,1.4,3.6,3.6,0,0,1,.6,2.017H7.989a2.005,2.005,0,0,0-.628-1.569,2.594,2.594,0,0,0-1.8-.567,2.709,2.709,0,0,0-1.692.466,1.551,1.551,0,0,0-.6,1.3,1.4,1.4,0,0,0,.65,1.173,7.493,7.493,0,0,0,2.145.914,9.865,9.865,0,0,1,2.4,1.011,3.816,3.816,0,0,1,1.327,1.3,3.388,3.388,0,0,1,.422,1.718A3.045,3.045,0,0,1,8.987-.769,5.318,5.318,0,0,1,5.66.176,6.251,6.251,0,0,1,3.107-.338,4.289,4.289,0,0,1,1.3-1.758,3.537,3.537,0,0,1,.65-3.867H2.874A2.07,2.07,0,0,0,3.595-2.18a3.156,3.156,0,0,0,2.065.6A2.742,2.742,0,0,0,7.4-2.052,1.517,1.517,0,0,0,7.989-3.3Zm12.3-1.362a5.662,5.662,0,0,1-1,3.52A3.209,3.209,0,0,1,16.594.176a3.23,3.23,0,0,1-2.5-1.028V3.656H11.953V-9.51h1.969l.088.967a3.137,3.137,0,0,1,2.558-1.143,3.242,3.242,0,0,1,2.729,1.3,5.813,5.813,0,0,1,.989,3.6Zm-2.127-.185A3.966,3.966,0,0,0,17.591-7.1a1.843,1.843,0,0,0-1.622-.835,1.965,1.965,0,0,0-1.881,1.081v4.219a1.983,1.983,0,0,0,1.9,1.107,1.841,1.841,0,0,0,1.6-.822A4.366,4.366,0,0,0,18.158-4.843ZM27.773,0a3.3,3.3,0,0,1-.246-.888,3.325,3.325,0,0,1-2.5,1.063,3.355,3.355,0,0,1-2.338-.817,2.615,2.615,0,0,1-.905-2.021A2.7,2.7,0,0,1,22.917-5a5.473,5.473,0,0,1,3.23-.813h1.31v-.624a1.666,1.666,0,0,0-.413-1.182,1.638,1.638,0,0,0-1.257-.444,1.881,1.881,0,0,0-1.2.365,1.129,1.129,0,0,0-.466.927H21.99a2.37,2.37,0,0,1,.519-1.463A3.455,3.455,0,0,1,23.919-9.3a4.955,4.955,0,0,1,1.991-.387,3.99,3.99,0,0,1,2.663.839,2.993,2.993,0,0,1,1.02,2.36V-2.2a4.861,4.861,0,0,0,.36,2.048V0ZM25.427-1.538a2.429,2.429,0,0,0,1.191-.308,2.055,2.055,0,0,0,.839-.826V-4.465H26.306a3.148,3.148,0,0,0-1.784.413,1.338,1.338,0,0,0-.6,1.169,1.248,1.248,0,0,0,.409.98A1.583,1.583,0,0,0,25.427-1.538Zm10.31.009A1.931,1.931,0,0,0,37.063-2a1.591,1.591,0,0,0,.563-1.151h2.013a3.137,3.137,0,0,1-.554,1.657A3.632,3.632,0,0,1,37.679-.272a4.191,4.191,0,0,1-1.916.448A4.055,4.055,0,0,1,32.6-1.116,5.124,5.124,0,0,1,31.43-4.685V-4.9A5.039,5.039,0,0,1,32.59-8.38a4.018,4.018,0,0,1,3.164-1.305,3.907,3.907,0,0,1,2.764.989,3.542,3.542,0,0,1,1.121,2.6H37.626a1.956,1.956,0,0,0-.558-1.345,1.8,1.8,0,0,0-1.332-.527,1.879,1.879,0,0,0-1.6.751,3.834,3.834,0,0,0-.571,2.281V-4.6a3.9,3.9,0,0,0,.558,2.307A1.878,1.878,0,0,0,35.736-1.529ZM43.523,0H41.388V-9.51h2.136ZM41.256-11.979a1.133,1.133,0,0,1,.312-.817,1.179,1.179,0,0,1,.892-.325,1.193,1.193,0,0,1,.9.325,1.125,1.125,0,0,1,.316.817,1.1,1.1,0,0,1-.316.8,1.2,1.2,0,0,1-.9.321,1.188,1.188,0,0,1-.892-.321A1.107,1.107,0,0,1,41.256-11.979ZM47.83-9.51l.062,1.1A3.419,3.419,0,0,1,50.66-9.686q2.971,0,3.023,3.4V0H51.548V-6.161a1.958,1.958,0,0,0-.391-1.34,1.645,1.645,0,0,0-1.279-.435,2.058,2.058,0,0,0-1.925,1.169V0H45.817V-9.51Zm7.655,4.685a5.562,5.562,0,0,1,1.042-3.538,3.343,3.343,0,0,1,2.764-1.323,3.132,3.132,0,0,1,2.558,1.134l.1-.958H63.87V-.29a3.832,3.832,0,0,1-1.165,2.953,4.436,4.436,0,0,1-3.142,1.081,5.064,5.064,0,0,1-2.043-.435A3.631,3.631,0,0,1,56,2.171L57.015.888A3.053,3.053,0,0,0,59.44,2.057a2.359,2.359,0,0,0,1.679-.576,2.206,2.206,0,0,0,.615-1.692V-.853A3.144,3.144,0,0,1,59.273.176a3.335,3.335,0,0,1-2.729-1.327A5.742,5.742,0,0,1,55.485-4.825Zm2.127.185A3.829,3.829,0,0,0,58.2-2.386a1.879,1.879,0,0,0,1.622.822,2.055,2.055,0,0,0,1.916-1.107V-6.855a2.026,2.026,0,0,0-1.9-1.081A1.887,1.887,0,0,0,58.2-7.1,4.287,4.287,0,0,0,57.612-4.641Zm21.278-.018A5.712,5.712,0,0,1,77.9-1.134a3.221,3.221,0,0,1-2.72,1.31,3.1,3.1,0,0,1-2.6-1.2L72.475,0H70.541V-13.5h2.136v4.9a3.091,3.091,0,0,1,2.487-1.09A3.258,3.258,0,0,1,77.9-8.394a5.807,5.807,0,0,1,.993,3.612Zm-2.136-.185a4.037,4.037,0,0,0-.545-2.32,1.815,1.815,0,0,0-1.582-.773,1.983,1.983,0,0,0-1.951,1.213V-2.8a2,2,0,0,0,1.969,1.239,1.8,1.8,0,0,0,1.547-.747,3.912,3.912,0,0,0,.563-2.259ZM84.867.176A4.419,4.419,0,0,1,81.576-1.1a4.639,4.639,0,0,1-1.261-3.406v-.264a5.706,5.706,0,0,1,.549-2.544,4.181,4.181,0,0,1,1.542-1.745,4.078,4.078,0,0,1,2.215-.624,3.733,3.733,0,0,1,3,1.239,5.24,5.24,0,0,1,1.059,3.507v.861H82.468a2.856,2.856,0,0,0,.787,1.863,2.362,2.362,0,0,0,1.736.686,2.892,2.892,0,0,0,2.391-1.187l1.151,1.1A3.845,3.845,0,0,1,87.007-.294,4.774,4.774,0,0,1,84.867.176Zm-.255-8.147a1.8,1.8,0,0,0-1.419.615,3.189,3.189,0,0,0-.69,1.714h4.069V-5.8A2.6,2.6,0,0,0,86-7.422,1.785,1.785,0,0,0,84.612-7.972Zm8.4-3.85V-9.51h1.679v1.582H93.015v5.309a1.169,1.169,0,0,0,.215.787A1,1,0,0,0,94-1.591a3.29,3.29,0,0,0,.747-.088V-.026a5.26,5.26,0,0,1-1.406.2q-2.461,0-2.461-2.716V-7.928H89.314V-9.51h1.564v-2.312Zm11.663,8.877,1.512-6.565h2.083L105.68,0h-1.758l-2.039-6.53-2,6.53H98.121l-2.6-9.51H97.6l1.538,6.5,1.951-6.5H102.7Zm9.211,3.12A4.419,4.419,0,0,1,110.6-1.1a4.639,4.639,0,0,1-1.261-3.406v-.264a5.706,5.706,0,0,1,.549-2.544,4.181,4.181,0,0,1,1.542-1.745,4.078,4.078,0,0,1,2.215-.624,3.733,3.733,0,0,1,3,1.239A5.24,5.24,0,0,1,117.7-4.939v.861h-6.214a2.856,2.856,0,0,0,.787,1.863,2.362,2.362,0,0,0,1.736.686A2.892,2.892,0,0,0,116.4-2.716l1.151,1.1a3.845,3.845,0,0,1-1.525,1.323A4.774,4.774,0,0,1,113.889.176Zm-.255-8.147a1.8,1.8,0,0,0-1.419.615,3.189,3.189,0,0,0-.69,1.714h4.069V-5.8a2.6,2.6,0,0,0-.571-1.622A1.785,1.785,0,0,0,113.634-7.972ZM123.548.176A4.419,4.419,0,0,1,120.256-1.1,4.639,4.639,0,0,1,119-4.509v-.264a5.706,5.706,0,0,1,.549-2.544,4.181,4.181,0,0,1,1.542-1.745,4.078,4.078,0,0,1,2.215-.624,3.733,3.733,0,0,1,3,1.239,5.24,5.24,0,0,1,1.059,3.507v.861h-6.214a2.856,2.856,0,0,0,.787,1.863,2.362,2.362,0,0,0,1.736.686,2.892,2.892,0,0,0,2.391-1.187l1.151,1.1a3.845,3.845,0,0,1-1.525,1.323A4.774,4.774,0,0,1,123.548.176Zm-.255-8.147a1.8,1.8,0,0,0-1.419.615,3.189,3.189,0,0,0-.69,1.714h4.069V-5.8a2.6,2.6,0,0,0-.571-1.622A1.785,1.785,0,0,0,123.293-7.972ZM131-9.51l.062,1.1a3.419,3.419,0,0,1,2.769-1.274q2.971,0,3.023,3.4V0h-2.136V-6.161a1.958,1.958,0,0,0-.391-1.34,1.645,1.645,0,0,0-1.279-.435,2.058,2.058,0,0,0-1.925,1.169V0h-2.136V-9.51Zm15.188-2.312V-9.51h1.679v1.582h-1.679v5.309a1.169,1.169,0,0,0,.215.787,1,1,0,0,0,.769.242,3.29,3.29,0,0,0,.747-.088V-.026a5.26,5.26,0,0,1-1.406.2q-2.461,0-2.461-2.716V-7.928h-1.564V-9.51h1.564v-2.312ZM155.18,0a3.3,3.3,0,0,1-.246-.888,3.325,3.325,0,0,1-2.5,1.063A3.355,3.355,0,0,1,150.1-.642a2.615,2.615,0,0,1-.905-2.021A2.7,2.7,0,0,1,150.324-5a5.473,5.473,0,0,1,3.23-.813h1.31v-.624a1.666,1.666,0,0,0-.413-1.182,1.638,1.638,0,0,0-1.257-.444,1.881,1.881,0,0,0-1.2.365,1.129,1.129,0,0,0-.466.927H149.4a2.37,2.37,0,0,1,.519-1.463A3.455,3.455,0,0,1,151.326-9.3a4.955,4.955,0,0,1,1.991-.387,3.99,3.99,0,0,1,2.663.839A2.993,2.993,0,0,1,157-6.486V-2.2a4.861,4.861,0,0,0,.36,2.048V0Zm-2.347-1.538a2.429,2.429,0,0,0,1.191-.308,2.055,2.055,0,0,0,.839-.826V-4.465h-1.151a3.148,3.148,0,0,0-1.784.413,1.338,1.338,0,0,0-.6,1.169,1.248,1.248,0,0,0,.409.98A1.583,1.583,0,0,0,152.833-1.538Zm11.382-6.021a5.285,5.285,0,0,0-.87-.07A1.959,1.959,0,0,0,161.367-6.5V0h-2.136V-9.51h2.039l.053,1.063a2.406,2.406,0,0,1,2.145-1.239,2,2,0,0,1,.756.123Zm.976,2.733a5.562,5.562,0,0,1,1.042-3.538A3.343,3.343,0,0,1,169-9.686a3.132,3.132,0,0,1,2.558,1.134l.1-.958h1.925V-.29a3.832,3.832,0,0,1-1.165,2.953,4.436,4.436,0,0,1-3.142,1.081,5.064,5.064,0,0,1-2.043-.435,3.631,3.631,0,0,1-1.516-1.138L166.72.888a3.053,3.053,0,0,0,2.426,1.169,2.359,2.359,0,0,0,1.679-.576,2.206,2.206,0,0,0,.615-1.692V-.853A3.144,3.144,0,0,1,168.979.176a3.335,3.335,0,0,1-2.729-1.327A5.742,5.742,0,0,1,165.19-4.825Zm2.127.185a3.829,3.829,0,0,0,.584,2.254,1.879,1.879,0,0,0,1.622.822,2.055,2.055,0,0,0,1.916-1.107V-6.855a2.026,2.026,0,0,0-1.9-1.081A1.887,1.887,0,0,0,167.9-7.1,4.287,4.287,0,0,0,167.317-4.641ZM179.956.176A4.419,4.419,0,0,1,176.665-1.1,4.639,4.639,0,0,1,175.4-4.509v-.264a5.706,5.706,0,0,1,.549-2.544A4.181,4.181,0,0,1,177.5-9.062a4.078,4.078,0,0,1,2.215-.624,3.733,3.733,0,0,1,3,1.239,5.24,5.24,0,0,1,1.059,3.507v.861h-6.214a2.856,2.856,0,0,0,.787,1.863,2.362,2.362,0,0,0,1.736.686,2.892,2.892,0,0,0,2.391-1.187l1.151,1.1A3.845,3.845,0,0,1,182.1-.294,4.774,4.774,0,0,1,179.956.176ZM179.7-7.972a1.8,1.8,0,0,0-1.419.615,3.189,3.189,0,0,0-.69,1.714h4.069V-5.8a2.6,2.6,0,0,0-.571-1.622A1.785,1.785,0,0,0,179.7-7.972Zm8.4-3.85V-9.51h1.679v1.582H188.1v5.309a1.169,1.169,0,0,0,.215.787,1,1,0,0,0,.769.242,3.29,3.29,0,0,0,.747-.088V-.026a5.26,5.26,0,0,1-1.406.2q-2.461,0-2.461-2.716V-7.928H184.4V-9.51h1.564v-2.312Zm8.64,9.237a.968.968,0,0,0-.47-.87,5,5,0,0,0-1.56-.527,8.02,8.02,0,0,1-1.819-.58,2.428,2.428,0,0,1-1.6-2.241,2.531,2.531,0,0,1,1.037-2.057,4.1,4.1,0,0,1,2.637-.826,4.266,4.266,0,0,1,2.755.844,2.677,2.677,0,0,1,1.05,2.188h-2.136a1.316,1.316,0,0,0-.457-1.024,1.752,1.752,0,0,0-1.213-.409,1.893,1.893,0,0,0-1.147.325,1.025,1.025,0,0,0-.444.87.866.866,0,0,0,.413.765,5.68,5.68,0,0,0,1.67.549,7.9,7.9,0,0,1,1.973.659A2.794,2.794,0,0,1,198.5-4a2.342,2.342,0,0,1,.347,1.3A2.478,2.478,0,0,1,197.78-.62a4.535,4.535,0,0,1-2.786.8,4.917,4.917,0,0,1-2.083-.422,3.428,3.428,0,0,1-1.424-1.16A2.746,2.746,0,0,1,190.978-3h2.074a1.5,1.5,0,0,0,.571,1.165,2.22,2.22,0,0,0,1.4.409,2.16,2.16,0,0,0,1.283-.321A.993.993,0,0,0,196.743-2.584ZM3.771,12.179V14.49H5.449v1.582H3.771v5.309a1.169,1.169,0,0,0,.215.787,1,1,0,0,0,.769.242,3.29,3.29,0,0,0,.747-.088v1.652a5.26,5.26,0,0,1-1.406.2q-2.461,0-2.461-2.716V16.072H.07V14.49H1.635V12.179Zm2.646,6.979a5.607,5.607,0,0,1,.554-2.518,4.044,4.044,0,0,1,1.556-1.723,4.383,4.383,0,0,1,2.3-.6,4.154,4.154,0,0,1,3.125,1.239,4.874,4.874,0,0,1,1.3,3.287l.009.5a5.658,5.658,0,0,1-.541,2.514,4,4,0,0,1-1.547,1.714,4.415,4.415,0,0,1-2.325.606,4.125,4.125,0,0,1-3.221-1.34,5.133,5.133,0,0,1-1.208-3.573Zm2.136.185a3.832,3.832,0,0,0,.606,2.3,1.971,1.971,0,0,0,1.688.831,1.95,1.95,0,0,0,1.683-.844,4.232,4.232,0,0,0,.6-2.47,3.782,3.782,0,0,0-.62-2.285,1.979,1.979,0,0,0-1.683-.844,1.96,1.96,0,0,0-1.661.831A4.152,4.152,0,0,0,8.552,19.342ZM27.229,24a3.3,3.3,0,0,1-.246-.888,3.593,3.593,0,0,1-4.834.246,2.615,2.615,0,0,1-.905-2.021A2.7,2.7,0,0,1,22.373,19a5.473,5.473,0,0,1,3.23-.813h1.31v-.624a1.666,1.666,0,0,0-.413-1.182,1.638,1.638,0,0,0-1.257-.444,1.881,1.881,0,0,0-1.2.365,1.129,1.129,0,0,0-.466.927H21.445a2.37,2.37,0,0,1,.519-1.463A3.455,3.455,0,0,1,23.375,14.7a4.955,4.955,0,0,1,1.991-.387,3.99,3.99,0,0,1,2.663.839,2.993,2.993,0,0,1,1.02,2.36V21.8a4.861,4.861,0,0,0,.36,2.048V24Zm-2.347-1.538a2.429,2.429,0,0,0,1.191-.308,2.055,2.055,0,0,0,.839-.826V19.535H25.761a3.148,3.148,0,0,0-1.784.413,1.338,1.338,0,0,0-.6,1.169,1.248,1.248,0,0,0,.409.98A1.583,1.583,0,0,0,24.882,22.462Zm9.624-1.169,2.013-6.8h2.206L35.429,24H33.574l-3.322-9.51h2.215Zm5.019-2.136a5.607,5.607,0,0,1,.554-2.518,4.044,4.044,0,0,1,1.556-1.723,4.383,4.383,0,0,1,2.3-.6,4.154,4.154,0,0,1,3.125,1.239,4.874,4.874,0,0,1,1.3,3.287l.009.5a5.658,5.658,0,0,1-.541,2.514,4,4,0,0,1-1.547,1.714,4.415,4.415,0,0,1-2.325.606,4.125,4.125,0,0,1-3.221-1.34,5.133,5.133,0,0,1-1.208-3.573Zm2.136.185a3.832,3.832,0,0,0,.606,2.3,1.971,1.971,0,0,0,1.688.831,1.95,1.95,0,0,0,1.683-.844,4.232,4.232,0,0,0,.6-2.47,3.782,3.782,0,0,0-.62-2.285,2.089,2.089,0,0,0-3.344-.013A4.152,4.152,0,0,0,41.66,19.342ZM52.444,24H50.309V14.49h2.136ZM50.177,12.021a1.133,1.133,0,0,1,.312-.817,1.179,1.179,0,0,1,.892-.325,1.193,1.193,0,0,1,.9.325,1.125,1.125,0,0,1,.316.817,1.1,1.1,0,0,1-.316.8,1.2,1.2,0,0,1-.9.321,1.188,1.188,0,0,1-.892-.321A1.107,1.107,0,0,1,50.177,12.021Zm4.192,7.154a5.654,5.654,0,0,1,1.02-3.529,3.267,3.267,0,0,1,2.733-1.332,3.1,3.1,0,0,1,2.443,1.055V10.5H62.7V24H60.768l-.105-.984a3.148,3.148,0,0,1-2.558,1.16,3.248,3.248,0,0,1-2.7-1.345A5.861,5.861,0,0,1,54.369,19.175Zm2.136.185a3.958,3.958,0,0,0,.558,2.263,1.811,1.811,0,0,0,1.586.813,2.017,2.017,0,0,0,1.916-1.169V17.206a1.986,1.986,0,0,0-1.9-1.143,1.824,1.824,0,0,0-1.6.822A4.408,4.408,0,0,0,56.5,19.359ZM71.684,24H69.548V14.49h2.136ZM69.416,12.021a1.133,1.133,0,0,1,.312-.817,1.179,1.179,0,0,1,.892-.325,1.193,1.193,0,0,1,.9.325,1.125,1.125,0,0,1,.316.817,1.1,1.1,0,0,1-.316.8,1.2,1.2,0,0,1-.9.321,1.188,1.188,0,0,1-.892-.321A1.107,1.107,0,0,1,69.416,12.021Zm6.574,2.47.062,1.1a3.419,3.419,0,0,1,2.769-1.274q2.971,0,3.023,3.4V24H79.708V17.839a1.958,1.958,0,0,0-.391-1.34,1.645,1.645,0,0,0-1.279-.435,2.058,2.058,0,0,0-1.925,1.169V24H73.978V14.49ZM86.7,12.179V14.49h1.679v1.582H86.7v5.309a1.169,1.169,0,0,0,.215.787,1,1,0,0,0,.769.242,3.29,3.29,0,0,0,.747-.088v1.652a5.26,5.26,0,0,1-1.406.2q-2.461,0-2.461-2.716V16.072H83V14.49H84.56V12.179Zm7.5,12A4.419,4.419,0,0,1,90.9,22.9a4.639,4.639,0,0,1-1.261-3.406v-.264a5.706,5.706,0,0,1,.549-2.544,4.181,4.181,0,0,1,1.542-1.745,4.078,4.078,0,0,1,2.215-.624,3.733,3.733,0,0,1,3,1.239,5.24,5.24,0,0,1,1.059,3.507v.861H91.793a2.856,2.856,0,0,0,.787,1.863,2.362,2.362,0,0,0,1.736.686,2.892,2.892,0,0,0,2.391-1.187l1.151,1.1a3.845,3.845,0,0,1-1.525,1.323A4.774,4.774,0,0,1,94.192,24.176Zm-.255-8.147a1.8,1.8,0,0,0-1.419.615,3.189,3.189,0,0,0-.69,1.714H95.9V18.2a2.6,2.6,0,0,0-.571-1.622A1.785,1.785,0,0,0,93.938,16.028Zm10.705.413a5.285,5.285,0,0,0-.87-.07,1.959,1.959,0,0,0-1.978,1.125V24H99.659V14.49H101.7l.053,1.063a2.406,2.406,0,0,1,2.145-1.239,2,2,0,0,1,.756.123ZM106.919,24V16.072h-1.45V14.49h1.45v-.87a3.266,3.266,0,0,1,.879-2.443,3.367,3.367,0,0,1,2.461-.861,4.936,4.936,0,0,1,1.2.158l-.053,1.67a4.207,4.207,0,0,0-.817-.07,1.371,1.371,0,0,0-1.529,1.573v.844h1.934v1.582h-1.934V24Zm9.817.176a4.419,4.419,0,0,1-3.292-1.279,4.639,4.639,0,0,1-1.261-3.406v-.264a5.706,5.706,0,0,1,.549-2.544,4.181,4.181,0,0,1,1.542-1.745,4.078,4.078,0,0,1,2.215-.624,3.733,3.733,0,0,1,3,1.239,5.24,5.24,0,0,1,1.059,3.507v.861h-6.214a2.856,2.856,0,0,0,.787,1.863,2.362,2.362,0,0,0,1.736.686,2.892,2.892,0,0,0,2.391-1.187l1.151,1.1a3.845,3.845,0,0,1-1.525,1.323A4.774,4.774,0,0,1,116.736,24.176Zm-.255-8.147a1.8,1.8,0,0,0-1.419.615,3.189,3.189,0,0,0-.69,1.714h4.069V18.2a2.6,2.6,0,0,0-.571-1.622A1.785,1.785,0,0,0,116.481,16.028Zm10.705.413a5.285,5.285,0,0,0-.87-.07,1.959,1.959,0,0,0-1.978,1.125V24H122.2V14.49h2.039l.053,1.063a2.406,2.406,0,0,1,2.145-1.239,2,2,0,0,1,.756.123Zm5.537,7.734a4.419,4.419,0,0,1-3.292-1.279,4.639,4.639,0,0,1-1.261-3.406v-.264a5.706,5.706,0,0,1,.549-2.544,4.181,4.181,0,0,1,1.542-1.745,4.078,4.078,0,0,1,2.215-.624,3.733,3.733,0,0,1,3,1.239,5.24,5.24,0,0,1,1.059,3.507v.861h-6.214a2.856,2.856,0,0,0,.787,1.863,2.362,2.362,0,0,0,1.736.686,2.892,2.892,0,0,0,2.391-1.187l1.151,1.1a3.845,3.845,0,0,1-1.525,1.323A4.774,4.774,0,0,1,132.724,24.176Zm-.255-8.147a1.8,1.8,0,0,0-1.419.615,3.189,3.189,0,0,0-.69,1.714h4.069V18.2a2.6,2.6,0,0,0-.571-1.622A1.785,1.785,0,0,0,132.469,16.028Zm7.708-1.538.062,1.1a3.419,3.419,0,0,1,2.769-1.274q2.971,0,3.023,3.4V24h-2.136V17.839a1.958,1.958,0,0,0-.391-1.34,1.645,1.645,0,0,0-1.279-.435,2.058,2.058,0,0,0-1.925,1.169V24h-2.136V14.49Zm11.936,7.98A1.931,1.931,0,0,0,153.439,22,1.591,1.591,0,0,0,154,20.854h2.013a3.137,3.137,0,0,1-.554,1.657,3.632,3.632,0,0,1-1.406,1.217,4.191,4.191,0,0,1-1.916.448,4.055,4.055,0,0,1-3.164-1.292,5.124,5.124,0,0,1-1.169-3.568V19.1a5.039,5.039,0,0,1,1.16-3.476,4.018,4.018,0,0,1,3.164-1.305,3.907,3.907,0,0,1,2.764.989,3.542,3.542,0,0,1,1.121,2.6H154a1.956,1.956,0,0,0-.558-1.345,1.8,1.8,0,0,0-1.332-.527,1.879,1.879,0,0,0-1.6.751,3.834,3.834,0,0,0-.571,2.281V19.4a3.9,3.9,0,0,0,.558,2.307A1.878,1.878,0,0,0,152.112,22.471Zm9.7,1.705a4.419,4.419,0,0,1-3.292-1.279,4.639,4.639,0,0,1-1.261-3.406v-.264a5.706,5.706,0,0,1,.549-2.544,4.181,4.181,0,0,1,1.542-1.745,4.078,4.078,0,0,1,2.215-.624,3.733,3.733,0,0,1,3,1.239,5.24,5.24,0,0,1,1.059,3.507v.861h-6.214a2.856,2.856,0,0,0,.787,1.863,2.362,2.362,0,0,0,1.736.686,2.892,2.892,0,0,0,2.391-1.187l1.151,1.1a3.845,3.845,0,0,1-1.525,1.323A4.774,4.774,0,0,1,161.815,24.176Zm-.255-8.147a1.8,1.8,0,0,0-1.419.615,3.189,3.189,0,0,0-.69,1.714h4.069V18.2a2.6,2.6,0,0,0-.571-1.622A1.785,1.785,0,0,0,161.561,16.028ZM5.282,48.176A4.419,4.419,0,0,1,1.991,46.9,4.639,4.639,0,0,1,.729,43.491v-.264a5.706,5.706,0,0,1,.549-2.544,4.181,4.181,0,0,1,1.542-1.745,4.078,4.078,0,0,1,2.215-.624,3.733,3.733,0,0,1,3,1.239A5.24,5.24,0,0,1,9.1,43.061v.861H2.883a2.856,2.856,0,0,0,.787,1.863,2.362,2.362,0,0,0,1.736.686A2.892,2.892,0,0,0,7.8,45.284l1.151,1.1a3.845,3.845,0,0,1-1.525,1.323A4.774,4.774,0,0,1,5.282,48.176Zm-.255-8.147a1.8,1.8,0,0,0-1.419.615,3.189,3.189,0,0,0-.69,1.714H6.987V42.2a2.6,2.6,0,0,0-.571-1.622A1.785,1.785,0,0,0,5.027,40.028Zm10.705.413a5.285,5.285,0,0,0-.87-.07A1.959,1.959,0,0,0,12.885,41.5V48H10.749V38.49h2.039l.053,1.063a2.406,2.406,0,0,1,2.145-1.239,2,2,0,0,1,.756.123Zm6.328,0a5.285,5.285,0,0,0-.87-.07A1.959,1.959,0,0,0,19.213,41.5V48H17.077V38.49h2.039l.053,1.063a2.406,2.406,0,0,1,2.145-1.239,2,2,0,0,1,.756.123Zm.633,2.716a5.607,5.607,0,0,1,.554-2.518A4.044,4.044,0,0,1,24.8,38.917a4.383,4.383,0,0,1,2.3-.6,4.154,4.154,0,0,1,3.125,1.239,4.874,4.874,0,0,1,1.3,3.287l.009.5a5.658,5.658,0,0,1-.541,2.514,4,4,0,0,1-1.547,1.714,4.415,4.415,0,0,1-2.325.606,4.125,4.125,0,0,1-3.221-1.34,5.133,5.133,0,0,1-1.208-3.573Zm2.136.185a3.832,3.832,0,0,0,.606,2.3,1.971,1.971,0,0,0,1.688.831,1.95,1.95,0,0,0,1.683-.844,4.232,4.232,0,0,0,.6-2.47,3.782,3.782,0,0,0-.62-2.285,2.089,2.089,0,0,0-3.344-.013A4.152,4.152,0,0,0,24.829,43.342Zm13.491-2.9a5.285,5.285,0,0,0-.87-.07A1.959,1.959,0,0,0,35.473,41.5V48H33.337V38.49h2.039l.053,1.063a2.406,2.406,0,0,1,2.145-1.239,2,2,0,0,1,.756.123ZM45,45.416a.968.968,0,0,0-.47-.87,5,5,0,0,0-1.56-.527,8.02,8.02,0,0,1-1.819-.58,2.428,2.428,0,0,1-1.6-2.241,2.531,2.531,0,0,1,1.037-2.057,4.1,4.1,0,0,1,2.637-.826,4.266,4.266,0,0,1,2.755.844,2.677,2.677,0,0,1,1.05,2.188H44.895a1.316,1.316,0,0,0-.457-1.024,1.752,1.752,0,0,0-1.213-.409,1.893,1.893,0,0,0-1.147.325,1.025,1.025,0,0,0-.444.87.866.866,0,0,0,.413.765,5.68,5.68,0,0,0,1.67.549,7.9,7.9,0,0,1,1.973.659A2.794,2.794,0,0,1,46.753,44a2.342,2.342,0,0,1,.347,1.3,2.478,2.478,0,0,1-1.063,2.079,4.535,4.535,0,0,1-2.786.8,4.917,4.917,0,0,1-2.083-.422,3.428,3.428,0,0,1-1.424-1.16A2.746,2.746,0,0,1,39.234,45h2.074a1.5,1.5,0,0,0,.571,1.165,2.22,2.22,0,0,0,1.4.409,2.16,2.16,0,0,0,1.283-.321A.993.993,0,0,0,45,45.416Zm4.263,5.467L48.111,50.2a6.21,6.21,0,0,0,.7-1.393,4.157,4.157,0,0,0,.2-1.208V45.935h1.925l-.009,1.538a4.287,4.287,0,0,1-.47,1.868A4.64,4.64,0,0,1,49.263,50.883ZM57,43.157a5.607,5.607,0,0,1,.554-2.518,4.044,4.044,0,0,1,1.556-1.723,4.383,4.383,0,0,1,2.3-.6,4.154,4.154,0,0,1,3.125,1.239,4.874,4.874,0,0,1,1.3,3.287l.009.5a5.658,5.658,0,0,1-.541,2.514,4,4,0,0,1-1.547,1.714,4.415,4.415,0,0,1-2.325.606,4.125,4.125,0,0,1-3.221-1.34A5.133,5.133,0,0,1,57,43.263Zm2.136.185a3.832,3.832,0,0,0,.606,2.3,1.971,1.971,0,0,0,1.688.831,1.95,1.95,0,0,0,1.683-.844,4.232,4.232,0,0,0,.6-2.47,3.782,3.782,0,0,0-.62-2.285,2.089,2.089,0,0,0-3.344-.013A4.152,4.152,0,0,0,59.133,43.342ZM69.627,38.49l.062,1.1a3.419,3.419,0,0,1,2.769-1.274q2.971,0,3.023,3.4V48H73.345V41.839a1.958,1.958,0,0,0-.391-1.34,1.645,1.645,0,0,0-1.279-.435,2.058,2.058,0,0,0-1.925,1.169V48H67.614V38.49Zm16.418,7.98A1.931,1.931,0,0,0,87.372,46a1.591,1.591,0,0,0,.563-1.151h2.013a3.137,3.137,0,0,1-.554,1.657,3.632,3.632,0,0,1-1.406,1.217,4.191,4.191,0,0,1-1.916.448,4.055,4.055,0,0,1-3.164-1.292,5.124,5.124,0,0,1-1.169-3.568V43.1A5.039,5.039,0,0,1,82.9,39.62a4.018,4.018,0,0,1,3.164-1.305,3.907,3.907,0,0,1,2.764.989,3.542,3.542,0,0,1,1.121,2.6H87.935a1.956,1.956,0,0,0-.558-1.345,1.8,1.8,0,0,0-1.332-.527,1.879,1.879,0,0,0-1.6.751,3.834,3.834,0,0,0-.571,2.281V43.4a3.9,3.9,0,0,0,.558,2.307A1.878,1.878,0,0,0,86.045,46.471Zm9.7,1.705A4.419,4.419,0,0,1,92.457,46.9,4.639,4.639,0,0,1,91.2,43.491v-.264a5.706,5.706,0,0,1,.549-2.544,4.181,4.181,0,0,1,1.542-1.745,4.078,4.078,0,0,1,2.215-.624,3.733,3.733,0,0,1,3,1.239,5.24,5.24,0,0,1,1.059,3.507v.861H93.349a2.856,2.856,0,0,0,.787,1.863,2.362,2.362,0,0,0,1.736.686,2.892,2.892,0,0,0,2.391-1.187l1.151,1.1a3.845,3.845,0,0,1-1.525,1.323A4.774,4.774,0,0,1,95.748,48.176Zm-.255-8.147a1.8,1.8,0,0,0-1.419.615,3.189,3.189,0,0,0-.69,1.714h4.069V42.2a2.6,2.6,0,0,0-.571-1.622A1.785,1.785,0,0,0,95.493,40.028ZM103.2,38.49l.062,1.1a3.419,3.419,0,0,1,2.769-1.274q2.971,0,3.023,3.4V48h-2.136V41.839a1.958,1.958,0,0,0-.391-1.34,1.645,1.645,0,0,0-1.279-.435,2.058,2.058,0,0,0-1.925,1.169V48h-2.136V38.49Zm10.705-2.312V38.49h1.679v1.582h-1.679v5.309a1.169,1.169,0,0,0,.215.787,1,1,0,0,0,.769.242,3.29,3.29,0,0,0,.747-.088v1.652a5.26,5.26,0,0,1-1.406.2q-2.461,0-2.461-2.716V40.072h-1.564V38.49h1.564V36.179Zm7.5,12a4.419,4.419,0,0,1-3.292-1.279,4.639,4.639,0,0,1-1.261-3.406v-.264a5.706,5.706,0,0,1,.549-2.544,4.181,4.181,0,0,1,1.542-1.745,4.078,4.078,0,0,1,2.215-.624,3.733,3.733,0,0,1,3,1.239,5.24,5.24,0,0,1,1.059,3.507v.861H119a2.856,2.856,0,0,0,.787,1.863,2.362,2.362,0,0,0,1.736.686,2.892,2.892,0,0,0,2.391-1.187l1.151,1.1a3.845,3.845,0,0,1-1.525,1.323A4.774,4.774,0,0,1,121.4,48.176Zm-.255-8.147a1.8,1.8,0,0,0-1.419.615,3.189,3.189,0,0,0-.69,1.714h4.069V42.2a2.6,2.6,0,0,0-.571-1.622A1.785,1.785,0,0,0,121.148,40.028Zm10.705.413a5.285,5.285,0,0,0-.87-.07,1.959,1.959,0,0,0-1.978,1.125V48H126.87V38.49h2.039l.053,1.063a2.406,2.406,0,0,1,2.145-1.239,2,2,0,0,1,.756.123Zm2.637,5.309a1.22,1.22,0,0,1,.923.338,1.175,1.175,0,0,1,.325.848,1.134,1.134,0,0,1-.325.831,1.44,1.44,0,0,1-1.828,0,1.115,1.115,0,0,1-.334-.835,1.175,1.175,0,0,1,.325-.848A1.208,1.208,0,0,1,134.49,45.75Zm0-7.462a1.22,1.22,0,0,1,.923.338,1.175,1.175,0,0,1,.325.848,1.134,1.134,0,0,1-.325.831,1.44,1.44,0,0,1-1.828,0,1.115,1.115,0,0,1-.334-.835,1.175,1.175,0,0,1,.325-.848A1.208,1.208,0,0,1,134.49,38.288Z" transform="translate(1061 1309)"/>
    <path id="Path_48" data-name="Path 48" class="cls-2" d="M860.388,1689.517V1349.823" transform="translate(562 28)"/>
    <path id="Path_49" data-name="Path 49" class="cls-2" d="M860.388,1689.517V1349.823" transform="translate(613 27)"/>
    <path id="Path_50" data-name="Path 50" class="cls-2" d="M860.388,1689.517V1349.823" transform="translate(665 27)"/>
    <path id="Path_51" data-name="Path 51" class="cls-2" d="M860.388,1689.517V1349.823" transform="translate(716 27)"/>
    <g id="Group_24" data-name="Group 24" transform="translate(1369.786 1717.517)">
      <path id="Path_6" data-name="Path 6" class="cls-3" d="M104.946,483.135v-8.618H348.623v8.618" transform="translate(-104.946 -474.517)"/>
      <path id="Path_7" data-name="Path 7" class="cls-3" d="M191.347,474.517v8.618" transform="translate(-138.973 -474.517)"/>
      <path id="Path_8" data-name="Path 8" class="cls-3" d="M191.347,474.517v8.618" transform="translate(-88.055 -474.517)"/>
      <path id="Path_9" data-name="Path 9" class="cls-3" d="M191.347,474.517v8.618" transform="translate(-35.924 -474.517)"/>
      <path id="Path_10" data-name="Path 10" class="cls-3" d="M191.347,474.517v8.618" transform="translate(14.994 -474.517)"/>
    </g>
    <path id="Path_235" data-name="Path 235" d="M4.039-2.426A3.305,3.305,0,0,1,3.605-.539,1.542,1.542,0,0,1,2.25.078,1.553,1.553,0,0,1,.9-.525a3.137,3.137,0,0,1-.453-1.8v-.965A3.232,3.232,0,0,1,.883-5.156a1.554,1.554,0,0,1,1.359-.609,1.568,1.568,0,0,1,1.352.588,3.119,3.119,0,0,1,.445,1.814Zm-.723-.988a2.648,2.648,0,0,0-.258-1.338.887.887,0,0,0-.816-.42.876.876,0,0,0-.809.418,2.585,2.585,0,0,0-.262,1.285v1.156A2.69,2.69,0,0,0,1.439-.951a.886.886,0,0,0,.811.439.874.874,0,0,0,.795-.414,2.593,2.593,0,0,0,.271-1.3Z" transform="translate(1368 1735)"/>
    <path id="Path_236" data-name="Path 236" d="M.8-2.852l.289-2.836H4.008v.668h-2.3L1.535-3.469a1.835,1.835,0,0,1,.949-.246A1.569,1.569,0,0,1,3.719-3.2a2.013,2.013,0,0,1,.457,1.389A1.943,1.943,0,0,1,3.7-.428,1.73,1.73,0,0,1,2.375.078,1.8,1.8,0,0,1,1.145-.34,1.668,1.668,0,0,1,.6-1.5h.684a1.148,1.148,0,0,0,.348.736,1.081,1.081,0,0,0,.742.248.975.975,0,0,0,.791-.344A1.437,1.437,0,0,0,3.453-1.8a1.319,1.319,0,0,0-.311-.916,1.056,1.056,0,0,0-.826-.346,1.191,1.191,0,0,0-.742.207L1.383-2.7Zm7.727.426A3.305,3.305,0,0,1,8.1-.539,1.542,1.542,0,0,1,6.742.078a1.553,1.553,0,0,1-1.348-.6,3.137,3.137,0,0,1-.453-1.8v-.965a3.232,3.232,0,0,1,.434-1.863,1.554,1.554,0,0,1,1.359-.609,1.568,1.568,0,0,1,1.352.588,3.119,3.119,0,0,1,.445,1.814Zm-.723-.988a2.648,2.648,0,0,0-.258-1.338.887.887,0,0,0-.816-.42.876.876,0,0,0-.809.418,2.585,2.585,0,0,0-.262,1.285v1.156A2.69,2.69,0,0,0,5.932-.951a.886.886,0,0,0,.811.439.874.874,0,0,0,.795-.414,2.593,2.593,0,0,0,.271-1.3Zm5.215.988A3.305,3.305,0,0,1,12.59-.539a1.542,1.542,0,0,1-1.355.617,1.553,1.553,0,0,1-1.348-.6,3.137,3.137,0,0,1-.453-1.8v-.965a3.232,3.232,0,0,1,.434-1.863,1.554,1.554,0,0,1,1.359-.609,1.568,1.568,0,0,1,1.352.588,3.119,3.119,0,0,1,.445,1.814ZM12.3-3.414a2.648,2.648,0,0,0-.258-1.338.887.887,0,0,0-.816-.42.876.876,0,0,0-.809.418,2.585,2.585,0,0,0-.262,1.285v1.156a2.69,2.69,0,0,0,.268,1.361.886.886,0,0,0,.811.439.874.874,0,0,0,.795-.414,2.593,2.593,0,0,0,.271-1.3Z" transform="translate(1415.887 1734)"/>
    <path id="Path_237" data-name="Path 237" d="M2.848,0H2.121V-4.816L.664-4.281v-.656l2.07-.777h.113ZM5.055-.379a.453.453,0,0,1,.111-.312A.424.424,0,0,1,5.5-.816a.437.437,0,0,1,.338.125.443.443,0,0,1,.115.313.419.419,0,0,1-.115.3A.445.445,0,0,1,5.5.043a.432.432,0,0,1-.334-.121A.428.428,0,0,1,5.055-.379ZM7.4-2.852l.289-2.836h2.914v.668H8.3L8.133-3.469a1.835,1.835,0,0,1,.949-.246,1.569,1.569,0,0,1,1.234.514,2.013,2.013,0,0,1,.457,1.389A1.943,1.943,0,0,1,10.3-.428,1.73,1.73,0,0,1,8.973.078,1.8,1.8,0,0,1,7.742-.34,1.668,1.668,0,0,1,7.2-1.5h.684A1.148,1.148,0,0,0,8.23-.76a1.081,1.081,0,0,0,.742.248.975.975,0,0,0,.791-.344,1.437,1.437,0,0,0,.287-.949,1.319,1.319,0,0,0-.311-.916,1.056,1.056,0,0,0-.826-.346,1.191,1.191,0,0,0-.742.207L7.98-2.7Zm5.414.895-.453.473V0h-.723V-6h.723v3.629l.387-.465,1.316-1.391h.879L13.3-2.461,15.137,0h-.848Z" transform="translate(1518.937 1734)"/>
    <path id="Path_238" data-name="Path 238" d="M2.848,0H2.121V-4.816L.664-4.281v-.656l2.07-.777h.113ZM6.219-1.957l-.453.473V0H5.043V-6h.723v3.629l.387-.465L7.469-4.227h.879L6.7-2.461,8.539,0H7.691Z" transform="translate(1469.231 1734)"/>
    <path id="Path_239" data-name="Path 239" d="M4.2,0H.473V-.52L2.441-2.707a4.677,4.677,0,0,0,.6-.807,1.346,1.346,0,0,0,.166-.643,1.02,1.02,0,0,0-.27-.73.942.942,0,0,0-.719-.285,1.116,1.116,0,0,0-.838.307,1.171,1.171,0,0,0-.3.854H.363a1.677,1.677,0,0,1,.506-1.27,1.875,1.875,0,0,1,1.354-.484,1.8,1.8,0,0,1,1.254.416,1.419,1.419,0,0,1,.461,1.107,3.253,3.253,0,0,1-1.07,2L1.344-.59H4.2Zm2.02-1.957-.453.473V0H5.043V-6h.723v3.629l.387-.465L7.469-4.227h.879L6.7-2.461,8.539,0H7.691Z" transform="translate(1572.886 1734)"/>
    <path id="Path_205" data-name="Path 205" class="cls-4" d="M0,0H271V30H0Z" transform="translate(1368 1244)"/>
    <path id="Path_206" data-name="Path 206" class="cls-4" d="M0,0H245.463V30H0Z" transform="translate(1368 1280)"/>
    <path id="Path_207" data-name="Path 207" class="cls-4" d="M0,0H213.749V30H0Z" transform="translate(1368 1316)"/>
    <path id="Path_213" data-name="Path 213" class="cls-4" d="M0,0H83.116V30H0Z" transform="translate(1368 1352)"/>
    <path id="Path_215" data-name="Path 215" class="cls-4" d="M0,0H63.693V30H0Z" transform="translate(1368 1388)"/>
    <path id="Path_216" data-name="Path 216" class="cls-5" d="M0,0H83V36H0Z" transform="translate(1368 1385)"/>
    <path id="Path_219" data-name="Path 219" class="cls-4" d="M0,0H63.693V30H0Z" transform="translate(1368 1424)"/>
    <path id="Path_221" data-name="Path 221" class="cls-4" d="M0,0H31.846V30H0Z" transform="translate(1368 1460)"/>
    <path id="Path_223" data-name="Path 223" class="cls-4" d="M0,0H31.846V30H0Z" transform="translate(1368 1496)"/>
    <path id="Path_225" data-name="Path 225" class="cls-4" d="M0,0H23V30H0Z" transform="translate(1368 1532)"/>
    <path id="Path_227" data-name="Path 227" class="cls-4" d="M0,0H23V30H0Z" transform="translate(1368 1568)"/>
    <path id="Path_229" data-name="Path 229" class="cls-4" d="M0,0H23V30H0Z" transform="translate(1368 1604)"/>
    <path id="Path_231" data-name="Path 231" class="cls-4" d="M0,0H15.923V30H0Z" transform="translate(1368 1640)"/>
    <path id="Path_233" data-name="Path 233" class="cls-4" d="M0,0H15.923V30H0Z" transform="translate(1368 1676)"/>
    <path id="Path_209" data-name="Path 209" d="M2.673-9.187V-7.4H4.054v.978H2.673v4.587a1.024,1.024,0,0,0,.185.667.777.777,0,0,0,.629.222,3.062,3.062,0,0,0,.6-.082V0a3.666,3.666,0,0,1-.971.137A1.575,1.575,0,0,1,1.839-.376a2.2,2.2,0,0,1-.431-1.456V-6.419H.062V-7.4H1.408V-9.187ZM8.6.137A3.232,3.232,0,0,1,6.152-.851a3.666,3.666,0,0,1-.943-2.642v-.232a4.438,4.438,0,0,1,.42-1.965A3.28,3.28,0,0,1,6.805-7.044a2.956,2.956,0,0,1,1.637-.489,2.77,2.77,0,0,1,2.242.95,4.114,4.114,0,0,1,.8,2.721v.526H6.474a2.629,2.629,0,0,0,.639,1.767A2.009,2.009,0,0,0,8.668-.9,2.2,2.2,0,0,0,9.8-1.169a2.851,2.851,0,0,0,.813-.725l.772.6A3.106,3.106,0,0,1,8.6.137ZM8.442-6.494a1.687,1.687,0,0,0-1.285.557,2.708,2.708,0,0,0-.643,1.562H10.22v-.1A2.409,2.409,0,0,0,9.7-5.964,1.588,1.588,0,0,0,8.442-6.494Zm6.986,1.8,1.641-2.7h1.477l-2.42,3.657L18.621,0H17.158L15.449-2.769,13.74,0h-1.47l2.5-3.739L12.346-7.4h1.463ZM21.6-9.187V-7.4h1.381v.978H21.6v4.587a1.024,1.024,0,0,0,.185.667.777.777,0,0,0,.629.222,3.062,3.062,0,0,0,.6-.082V0a3.666,3.666,0,0,1-.971.137,1.575,1.575,0,0,1-1.278-.513,2.2,2.2,0,0,1-.431-1.456V-6.419H18.99V-7.4h1.347V-9.187Z" transform="translate(1379 1265)"/>
    <path id="Path_210" data-name="Path 210" d="M2.673-9.187V-7.4H4.054v.978H2.673v4.587a1.024,1.024,0,0,0,.185.667.777.777,0,0,0,.629.222,3.062,3.062,0,0,0,.6-.082V0a3.666,3.666,0,0,1-.971.137A1.575,1.575,0,0,1,1.839-.376a2.2,2.2,0,0,1-.431-1.456V-6.419H.062V-7.4H1.408V-9.187ZM8.6.137A3.232,3.232,0,0,1,6.152-.851a3.666,3.666,0,0,1-.943-2.642v-.232a4.438,4.438,0,0,1,.42-1.965A3.28,3.28,0,0,1,6.805-7.044a2.956,2.956,0,0,1,1.637-.489,2.77,2.77,0,0,1,2.242.95,4.114,4.114,0,0,1,.8,2.721v.526H6.474a2.629,2.629,0,0,0,.639,1.767A2.009,2.009,0,0,0,8.668-.9,2.2,2.2,0,0,0,9.8-1.169a2.851,2.851,0,0,0,.813-.725l.772.6A3.106,3.106,0,0,1,8.6.137ZM8.442-6.494a1.687,1.687,0,0,0-1.285.557,2.708,2.708,0,0,0-.643,1.562H10.22v-.1A2.409,2.409,0,0,0,9.7-5.964,1.588,1.588,0,0,0,8.442-6.494Zm6.986,1.8,1.641-2.7h1.477l-2.42,3.657L18.621,0H17.158L15.449-2.769,13.74,0h-1.47l2.5-3.739L12.346-7.4h1.463ZM21.6-9.187V-7.4h1.381v.978H21.6v4.587a1.024,1.024,0,0,0,.185.667.777.777,0,0,0,.629.222,3.062,3.062,0,0,0,.6-.082V0a3.666,3.666,0,0,1-.971.137,1.575,1.575,0,0,1-1.278-.513,2.2,2.2,0,0,1-.431-1.456V-6.419H18.99V-7.4h1.347V-9.187Z" transform="translate(1379 1301)"/>
    <path id="Path_211" data-name="Path 211" d="M2.673-9.187V-7.4H4.054v.978H2.673v4.587a1.024,1.024,0,0,0,.185.667.777.777,0,0,0,.629.222,3.062,3.062,0,0,0,.6-.082V0a3.666,3.666,0,0,1-.971.137A1.575,1.575,0,0,1,1.839-.376a2.2,2.2,0,0,1-.431-1.456V-6.419H.062V-7.4H1.408V-9.187ZM8.6.137A3.232,3.232,0,0,1,6.152-.851a3.666,3.666,0,0,1-.943-2.642v-.232a4.438,4.438,0,0,1,.42-1.965A3.28,3.28,0,0,1,6.805-7.044a2.956,2.956,0,0,1,1.637-.489,2.77,2.77,0,0,1,2.242.95,4.114,4.114,0,0,1,.8,2.721v.526H6.474a2.629,2.629,0,0,0,.639,1.767A2.009,2.009,0,0,0,8.668-.9,2.2,2.2,0,0,0,9.8-1.169a2.851,2.851,0,0,0,.813-.725l.772.6A3.106,3.106,0,0,1,8.6.137ZM8.442-6.494a1.687,1.687,0,0,0-1.285.557,2.708,2.708,0,0,0-.643,1.562H10.22v-.1A2.409,2.409,0,0,0,9.7-5.964,1.588,1.588,0,0,0,8.442-6.494Zm6.986,1.8,1.641-2.7h1.477l-2.42,3.657L18.621,0H17.158L15.449-2.769,13.74,0h-1.47l2.5-3.739L12.346-7.4h1.463ZM21.6-9.187V-7.4h1.381v.978H21.6v4.587a1.024,1.024,0,0,0,.185.667.777.777,0,0,0,.629.222,3.062,3.062,0,0,0,.6-.082V0a3.666,3.666,0,0,1-.971.137,1.575,1.575,0,0,1-1.278-.513,2.2,2.2,0,0,1-.431-1.456V-6.419H18.99V-7.4h1.347V-9.187Z" transform="translate(1379 1337)"/>
    <path id="Path_214" data-name="Path 214" d="M2.673-9.187V-7.4H4.054v.978H2.673v4.587a1.024,1.024,0,0,0,.185.667.777.777,0,0,0,.629.222,3.062,3.062,0,0,0,.6-.082V0a3.666,3.666,0,0,1-.971.137A1.575,1.575,0,0,1,1.839-.376a2.2,2.2,0,0,1-.431-1.456V-6.419H.062V-7.4H1.408V-9.187ZM8.6.137A3.232,3.232,0,0,1,6.152-.851a3.666,3.666,0,0,1-.943-2.642v-.232a4.438,4.438,0,0,1,.42-1.965A3.28,3.28,0,0,1,6.805-7.044a2.956,2.956,0,0,1,1.637-.489,2.77,2.77,0,0,1,2.242.95,4.114,4.114,0,0,1,.8,2.721v.526H6.474a2.629,2.629,0,0,0,.639,1.767A2.009,2.009,0,0,0,8.668-.9,2.2,2.2,0,0,0,9.8-1.169a2.851,2.851,0,0,0,.813-.725l.772.6A3.106,3.106,0,0,1,8.6.137ZM8.442-6.494a1.687,1.687,0,0,0-1.285.557,2.708,2.708,0,0,0-.643,1.562H10.22v-.1A2.409,2.409,0,0,0,9.7-5.964,1.588,1.588,0,0,0,8.442-6.494Zm6.986,1.8,1.641-2.7h1.477l-2.42,3.657L18.621,0H17.158L15.449-2.769,13.74,0h-1.47l2.5-3.739L12.346-7.4h1.463ZM21.6-9.187V-7.4h1.381v.978H21.6v4.587a1.024,1.024,0,0,0,.185.667.777.777,0,0,0,.629.222,3.062,3.062,0,0,0,.6-.082V0a3.666,3.666,0,0,1-.971.137,1.575,1.575,0,0,1-1.278-.513,2.2,2.2,0,0,1-.431-1.456V-6.419H18.99V-7.4h1.347V-9.187Z" transform="translate(1379 1373)"/>
    <path id="Path_218" data-name="Path 218" d="M2.673-9.187V-7.4H4.054v.978H2.673v4.587a1.024,1.024,0,0,0,.185.667.777.777,0,0,0,.629.222,3.062,3.062,0,0,0,.6-.082V0a3.666,3.666,0,0,1-.971.137A1.575,1.575,0,0,1,1.839-.376a2.2,2.2,0,0,1-.431-1.456V-6.419H.062V-7.4H1.408V-9.187ZM8.6.137A3.232,3.232,0,0,1,6.152-.851a3.666,3.666,0,0,1-.943-2.642v-.232a4.438,4.438,0,0,1,.42-1.965A3.28,3.28,0,0,1,6.805-7.044a2.956,2.956,0,0,1,1.637-.489,2.77,2.77,0,0,1,2.242.95,4.114,4.114,0,0,1,.8,2.721v.526H6.474a2.629,2.629,0,0,0,.639,1.767A2.009,2.009,0,0,0,8.668-.9,2.2,2.2,0,0,0,9.8-1.169a2.851,2.851,0,0,0,.813-.725l.772.6A3.106,3.106,0,0,1,8.6.137ZM8.442-6.494a1.687,1.687,0,0,0-1.285.557,2.708,2.708,0,0,0-.643,1.562H10.22v-.1A2.409,2.409,0,0,0,9.7-5.964,1.588,1.588,0,0,0,8.442-6.494Zm6.986,1.8,1.641-2.7h1.477l-2.42,3.657L18.621,0H17.158L15.449-2.769,13.74,0h-1.47l2.5-3.739L12.346-7.4h1.463ZM21.6-9.187V-7.4h1.381v.978H21.6v4.587a1.024,1.024,0,0,0,.185.667.777.777,0,0,0,.629.222,3.062,3.062,0,0,0,.6-.082V0a3.666,3.666,0,0,1-.971.137,1.575,1.575,0,0,1-1.278-.513,2.2,2.2,0,0,1-.431-1.456V-6.419H18.99V-7.4h1.347V-9.187Z" transform="translate(1379 1409)"/>
    <path id="Path_222" data-name="Path 222" d="M2.673-9.187V-7.4H4.054v.978H2.673v4.587a1.024,1.024,0,0,0,.185.667.777.777,0,0,0,.629.222,3.062,3.062,0,0,0,.6-.082V0a3.666,3.666,0,0,1-.971.137A1.575,1.575,0,0,1,1.839-.376a2.2,2.2,0,0,1-.431-1.456V-6.419H.062V-7.4H1.408V-9.187ZM8.6.137A3.232,3.232,0,0,1,6.152-.851a3.666,3.666,0,0,1-.943-2.642v-.232a4.438,4.438,0,0,1,.42-1.965A3.28,3.28,0,0,1,6.805-7.044a2.956,2.956,0,0,1,1.637-.489,2.77,2.77,0,0,1,2.242.95,4.114,4.114,0,0,1,.8,2.721v.526H6.474a2.629,2.629,0,0,0,.639,1.767A2.009,2.009,0,0,0,8.668-.9,2.2,2.2,0,0,0,9.8-1.169a2.851,2.851,0,0,0,.813-.725l.772.6A3.106,3.106,0,0,1,8.6.137ZM8.442-6.494a1.687,1.687,0,0,0-1.285.557,2.708,2.708,0,0,0-.643,1.562H10.22v-.1A2.409,2.409,0,0,0,9.7-5.964,1.588,1.588,0,0,0,8.442-6.494Zm6.986,1.8,1.641-2.7h1.477l-2.42,3.657L18.621,0H17.158L15.449-2.769,13.74,0h-1.47l2.5-3.739L12.346-7.4h1.463ZM21.6-9.187V-7.4h1.381v.978H21.6v4.587a1.024,1.024,0,0,0,.185.667.777.777,0,0,0,.629.222,3.062,3.062,0,0,0,.6-.082V0a3.666,3.666,0,0,1-.971.137,1.575,1.575,0,0,1-1.278-.513,2.2,2.2,0,0,1-.431-1.456V-6.419H18.99V-7.4h1.347V-9.187Z" transform="translate(1379 1481)"/>
    <path id="Path_224" data-name="Path 224" d="M2.673-9.187V-7.4H4.054v.978H2.673v4.587a1.024,1.024,0,0,0,.185.667.777.777,0,0,0,.629.222,3.062,3.062,0,0,0,.6-.082V0a3.666,3.666,0,0,1-.971.137A1.575,1.575,0,0,1,1.839-.376a2.2,2.2,0,0,1-.431-1.456V-6.419H.062V-7.4H1.408V-9.187ZM8.6.137A3.232,3.232,0,0,1,6.152-.851a3.666,3.666,0,0,1-.943-2.642v-.232a4.438,4.438,0,0,1,.42-1.965A3.28,3.28,0,0,1,6.805-7.044a2.956,2.956,0,0,1,1.637-.489,2.77,2.77,0,0,1,2.242.95,4.114,4.114,0,0,1,.8,2.721v.526H6.474a2.629,2.629,0,0,0,.639,1.767A2.009,2.009,0,0,0,8.668-.9,2.2,2.2,0,0,0,9.8-1.169a2.851,2.851,0,0,0,.813-.725l.772.6A3.106,3.106,0,0,1,8.6.137ZM8.442-6.494a1.687,1.687,0,0,0-1.285.557,2.708,2.708,0,0,0-.643,1.562H10.22v-.1A2.409,2.409,0,0,0,9.7-5.964,1.588,1.588,0,0,0,8.442-6.494Zm6.986,1.8,1.641-2.7h1.477l-2.42,3.657L18.621,0H17.158L15.449-2.769,13.74,0h-1.47l2.5-3.739L12.346-7.4h1.463ZM21.6-9.187V-7.4h1.381v.978H21.6v4.587a1.024,1.024,0,0,0,.185.667.777.777,0,0,0,.629.222,3.062,3.062,0,0,0,.6-.082V0a3.666,3.666,0,0,1-.971.137,1.575,1.575,0,0,1-1.278-.513,2.2,2.2,0,0,1-.431-1.456V-6.419H18.99V-7.4h1.347V-9.187Z" transform="translate(1379 1517)"/>
    <path id="Path_226" data-name="Path 226" d="M2.673-9.187V-7.4H4.054v.978H2.673v4.587a1.024,1.024,0,0,0,.185.667.777.777,0,0,0,.629.222,3.062,3.062,0,0,0,.6-.082V0a3.666,3.666,0,0,1-.971.137A1.575,1.575,0,0,1,1.839-.376a2.2,2.2,0,0,1-.431-1.456V-6.419H.062V-7.4H1.408V-9.187ZM8.6.137A3.232,3.232,0,0,1,6.152-.851a3.666,3.666,0,0,1-.943-2.642v-.232a4.438,4.438,0,0,1,.42-1.965A3.28,3.28,0,0,1,6.805-7.044a2.956,2.956,0,0,1,1.637-.489,2.77,2.77,0,0,1,2.242.95,4.114,4.114,0,0,1,.8,2.721v.526H6.474a2.629,2.629,0,0,0,.639,1.767A2.009,2.009,0,0,0,8.668-.9,2.2,2.2,0,0,0,9.8-1.169a2.851,2.851,0,0,0,.813-.725l.772.6A3.106,3.106,0,0,1,8.6.137ZM8.442-6.494a1.687,1.687,0,0,0-1.285.557,2.708,2.708,0,0,0-.643,1.562H10.22v-.1A2.409,2.409,0,0,0,9.7-5.964,1.588,1.588,0,0,0,8.442-6.494Zm6.986,1.8,1.641-2.7h1.477l-2.42,3.657L18.621,0H17.158L15.449-2.769,13.74,0h-1.47l2.5-3.739L12.346-7.4h1.463ZM21.6-9.187V-7.4h1.381v.978H21.6v4.587a1.024,1.024,0,0,0,.185.667.777.777,0,0,0,.629.222,3.062,3.062,0,0,0,.6-.082V0a3.666,3.666,0,0,1-.971.137,1.575,1.575,0,0,1-1.278-.513,2.2,2.2,0,0,1-.431-1.456V-6.419H18.99V-7.4h1.347V-9.187Z" transform="translate(1379 1553)"/>
    <path id="Path_228" data-name="Path 228" d="M2.673-9.187V-7.4H4.054v.978H2.673v4.587a1.024,1.024,0,0,0,.185.667.777.777,0,0,0,.629.222,3.062,3.062,0,0,0,.6-.082V0a3.666,3.666,0,0,1-.971.137A1.575,1.575,0,0,1,1.839-.376a2.2,2.2,0,0,1-.431-1.456V-6.419H.062V-7.4H1.408V-9.187ZM8.6.137A3.232,3.232,0,0,1,6.152-.851a3.666,3.666,0,0,1-.943-2.642v-.232a4.438,4.438,0,0,1,.42-1.965A3.28,3.28,0,0,1,6.805-7.044a2.956,2.956,0,0,1,1.637-.489,2.77,2.77,0,0,1,2.242.95,4.114,4.114,0,0,1,.8,2.721v.526H6.474a2.629,2.629,0,0,0,.639,1.767A2.009,2.009,0,0,0,8.668-.9,2.2,2.2,0,0,0,9.8-1.169a2.851,2.851,0,0,0,.813-.725l.772.6A3.106,3.106,0,0,1,8.6.137ZM8.442-6.494a1.687,1.687,0,0,0-1.285.557,2.708,2.708,0,0,0-.643,1.562H10.22v-.1A2.409,2.409,0,0,0,9.7-5.964,1.588,1.588,0,0,0,8.442-6.494Zm6.986,1.8,1.641-2.7h1.477l-2.42,3.657L18.621,0H17.158L15.449-2.769,13.74,0h-1.47l2.5-3.739L12.346-7.4h1.463ZM21.6-9.187V-7.4h1.381v.978H21.6v4.587a1.024,1.024,0,0,0,.185.667.777.777,0,0,0,.629.222,3.062,3.062,0,0,0,.6-.082V0a3.666,3.666,0,0,1-.971.137,1.575,1.575,0,0,1-1.278-.513,2.2,2.2,0,0,1-.431-1.456V-6.419H18.99V-7.4h1.347V-9.187Z" transform="translate(1379 1589)"/>
    <path id="Path_230" data-name="Path 230" d="M2.673-9.187V-7.4H4.054v.978H2.673v4.587a1.024,1.024,0,0,0,.185.667.777.777,0,0,0,.629.222,3.062,3.062,0,0,0,.6-.082V0a3.666,3.666,0,0,1-.971.137A1.575,1.575,0,0,1,1.839-.376a2.2,2.2,0,0,1-.431-1.456V-6.419H.062V-7.4H1.408V-9.187ZM8.6.137A3.232,3.232,0,0,1,6.152-.851a3.666,3.666,0,0,1-.943-2.642v-.232a4.438,4.438,0,0,1,.42-1.965A3.28,3.28,0,0,1,6.805-7.044a2.956,2.956,0,0,1,1.637-.489,2.77,2.77,0,0,1,2.242.95,4.114,4.114,0,0,1,.8,2.721v.526H6.474a2.629,2.629,0,0,0,.639,1.767A2.009,2.009,0,0,0,8.668-.9,2.2,2.2,0,0,0,9.8-1.169a2.851,2.851,0,0,0,.813-.725l.772.6A3.106,3.106,0,0,1,8.6.137ZM8.442-6.494a1.687,1.687,0,0,0-1.285.557,2.708,2.708,0,0,0-.643,1.562H10.22v-.1A2.409,2.409,0,0,0,9.7-5.964,1.588,1.588,0,0,0,8.442-6.494Zm6.986,1.8,1.641-2.7h1.477l-2.42,3.657L18.621,0H17.158L15.449-2.769,13.74,0h-1.47l2.5-3.739L12.346-7.4h1.463ZM21.6-9.187V-7.4h1.381v.978H21.6v4.587a1.024,1.024,0,0,0,.185.667.777.777,0,0,0,.629.222,3.062,3.062,0,0,0,.6-.082V0a3.666,3.666,0,0,1-.971.137,1.575,1.575,0,0,1-1.278-.513,2.2,2.2,0,0,1-.431-1.456V-6.419H18.99V-7.4h1.347V-9.187Z" transform="translate(1379 1625)"/>
    <path id="Path_232" data-name="Path 232" d="M2.673-9.187V-7.4H4.054v.978H2.673v4.587a1.024,1.024,0,0,0,.185.667.777.777,0,0,0,.629.222,3.062,3.062,0,0,0,.6-.082V0a3.666,3.666,0,0,1-.971.137A1.575,1.575,0,0,1,1.839-.376a2.2,2.2,0,0,1-.431-1.456V-6.419H.062V-7.4H1.408V-9.187ZM8.6.137A3.232,3.232,0,0,1,6.152-.851a3.666,3.666,0,0,1-.943-2.642v-.232a4.438,4.438,0,0,1,.42-1.965A3.28,3.28,0,0,1,6.805-7.044a2.956,2.956,0,0,1,1.637-.489,2.77,2.77,0,0,1,2.242.95,4.114,4.114,0,0,1,.8,2.721v.526H6.474a2.629,2.629,0,0,0,.639,1.767A2.009,2.009,0,0,0,8.668-.9,2.2,2.2,0,0,0,9.8-1.169a2.851,2.851,0,0,0,.813-.725l.772.6A3.106,3.106,0,0,1,8.6.137ZM8.442-6.494a1.687,1.687,0,0,0-1.285.557,2.708,2.708,0,0,0-.643,1.562H10.22v-.1A2.409,2.409,0,0,0,9.7-5.964,1.588,1.588,0,0,0,8.442-6.494Zm6.986,1.8,1.641-2.7h1.477l-2.42,3.657L18.621,0H17.158L15.449-2.769,13.74,0h-1.47l2.5-3.739L12.346-7.4h1.463ZM21.6-9.187V-7.4h1.381v.978H21.6v4.587a1.024,1.024,0,0,0,.185.667.777.777,0,0,0,.629.222,3.062,3.062,0,0,0,.6-.082V0a3.666,3.666,0,0,1-.971.137,1.575,1.575,0,0,1-1.278-.513,2.2,2.2,0,0,1-.431-1.456V-6.419H18.99V-7.4h1.347V-9.187Z" transform="translate(1379 1661)"/>
    <path id="Path_234" data-name="Path 234" d="M2.673-9.187V-7.4H4.054v.978H2.673v4.587a1.024,1.024,0,0,0,.185.667.777.777,0,0,0,.629.222,3.062,3.062,0,0,0,.6-.082V0a3.666,3.666,0,0,1-.971.137A1.575,1.575,0,0,1,1.839-.376a2.2,2.2,0,0,1-.431-1.456V-6.419H.062V-7.4H1.408V-9.187ZM8.6.137A3.232,3.232,0,0,1,6.152-.851a3.666,3.666,0,0,1-.943-2.642v-.232a4.438,4.438,0,0,1,.42-1.965A3.28,3.28,0,0,1,6.805-7.044a2.956,2.956,0,0,1,1.637-.489,2.77,2.77,0,0,1,2.242.95,4.114,4.114,0,0,1,.8,2.721v.526H6.474a2.629,2.629,0,0,0,.639,1.767A2.009,2.009,0,0,0,8.668-.9,2.2,2.2,0,0,0,9.8-1.169a2.851,2.851,0,0,0,.813-.725l.772.6A3.106,3.106,0,0,1,8.6.137ZM8.442-6.494a1.687,1.687,0,0,0-1.285.557,2.708,2.708,0,0,0-.643,1.562H10.22v-.1A2.409,2.409,0,0,0,9.7-5.964,1.588,1.588,0,0,0,8.442-6.494Zm6.986,1.8,1.641-2.7h1.477l-2.42,3.657L18.621,0H17.158L15.449-2.769,13.74,0h-1.47l2.5-3.739L12.346-7.4h1.463ZM21.6-9.187V-7.4h1.381v.978H21.6v4.587a1.024,1.024,0,0,0,.185.667.777.777,0,0,0,.629.222,3.062,3.062,0,0,0,.6-.082V0a3.666,3.666,0,0,1-.971.137,1.575,1.575,0,0,1-1.278-.513,2.2,2.2,0,0,1-.431-1.456V-6.419H18.99V-7.4h1.347V-9.187Z" transform="translate(1379 1697)"/>
    <path id="Path_220" data-name="Path 220" d="M2.673-9.187V-7.4H4.054v.978H2.673v4.587a1.024,1.024,0,0,0,.185.667.777.777,0,0,0,.629.222,3.062,3.062,0,0,0,.6-.082V0a3.666,3.666,0,0,1-.971.137A1.575,1.575,0,0,1,1.839-.376a2.2,2.2,0,0,1-.431-1.456V-6.419H.062V-7.4H1.408V-9.187ZM8.6.137A3.232,3.232,0,0,1,6.152-.851a3.666,3.666,0,0,1-.943-2.642v-.232a4.438,4.438,0,0,1,.42-1.965A3.28,3.28,0,0,1,6.805-7.044a2.956,2.956,0,0,1,1.637-.489,2.77,2.77,0,0,1,2.242.95,4.114,4.114,0,0,1,.8,2.721v.526H6.474a2.629,2.629,0,0,0,.639,1.767A2.009,2.009,0,0,0,8.668-.9,2.2,2.2,0,0,0,9.8-1.169a2.851,2.851,0,0,0,.813-.725l.772.6A3.106,3.106,0,0,1,8.6.137ZM8.442-6.494a1.687,1.687,0,0,0-1.285.557,2.708,2.708,0,0,0-.643,1.562H10.22v-.1A2.409,2.409,0,0,0,9.7-5.964,1.588,1.588,0,0,0,8.442-6.494Zm6.986,1.8,1.641-2.7h1.477l-2.42,3.657L18.621,0H17.158L15.449-2.769,13.74,0h-1.47l2.5-3.739L12.346-7.4h1.463ZM21.6-9.187V-7.4h1.381v.978H21.6v4.587a1.024,1.024,0,0,0,.185.667.777.777,0,0,0,.629.222,3.062,3.062,0,0,0,.6-.082V0a3.666,3.666,0,0,1-.971.137,1.575,1.575,0,0,1-1.278-.513,2.2,2.2,0,0,1-.431-1.456V-6.419H18.99V-7.4h1.347V-9.187Z" transform="translate(1379 1445)"/>
    <path id="Path_52" data-name="Path 52" class="cls-6" d="M1010.137,1224h-62.1" transform="translate(351.46 23)"/>
    <path id="Path_57" data-name="Path 57" class="cls-6" d="M1218.594,1226.163H948.04" transform="translate(351.46 106.837)"/>
    <path id="Path_53" data-name="Path 53" class="cls-6" d="M1010.137,1224h-62.1" transform="translate(351.46 49)"/>
    <path id="Path_58" data-name="Path 58" class="cls-6" d="M1218.594,1226.683H948.04" transform="translate(351.46 142.317)"/>
    <g id="Group_63" data-name="Group 63" transform="translate(566.614 94.013)">
      <path id="Path_54" data-name="Path 54" class="cls-1" d="M750.57,1161.782l4.28-6.443,4.28,6.443h-6.9" transform="translate(8.783 0)"/>
      <path id="Path_55" data-name="Path 55" class="cls-1" d="M0,6.443,4.28,0,8.56,6.443h-6.9" transform="translate(767.914 1176.304) rotate(180)"/>
      <path id="Path_56" data-name="Path 56" class="cls-7" d="M767,1167.317v13.2" transform="translate(-3.333 -7.501)"/>
    </g>
    <g id="Group_64" data-name="Group 64" transform="translate(351 20)">
      <path id="Path_54-2" data-name="Path 54" class="cls-1" d="M750.57,1161.782l4.28-6.443,4.28,6.443h-6.9" transform="translate(224.397 160.013)"/>
      <path id="Path_55-2" data-name="Path 55" class="cls-1" d="M0,6.443,4.28,0,8.56,6.443h-6.9" transform="translate(983.528 1346.317) rotate(180)"/>
      <path id="Path_56-2" data-name="Path 56" class="cls-7" d="M767,1167.317V1191.1" transform="translate(212.281 151.256)"/>
    </g>
    <path id="Path_54-3" data-name="Path 54" class="cls-1" d="M750.57,1161.782l4.28-6.443,4.28,6.443h-6.9" transform="translate(212.426 2203.685) rotate(-90)"/>
    <path id="Path_55-3" data-name="Path 55" class="cls-1" d="M0,6.443,4.28,0,8.56,6.443h-6.9" transform="translate(1450.73 1444.554) rotate(90)"/>
    <path id="Path_56-3" data-name="Path 56" class="cls-7" d="M767,1167.317v76.523" transform="translate(203.669 2215.801) rotate(-90)"/>
    <path id="Path_60" data-name="Path 60" class="cls-7" d="M1346.765,1432v49.42" transform="translate(105 -18)"/>
    <g id="Group_65" data-name="Group 65" transform="translate(127 -14)">
      <rect id="Rectangle_70" data-name="Rectangle 70" class="cls-8" width="102" height="46" transform="translate(1215 1467)"/>
      <text id="MIN._60px" data-name="MIN. 60px" class="cls-9" transform="translate(1229 1497)"><tspan x="0" y="0">MIN. 60px</tspan></text>
    </g>
    <path id="Path_59" data-name="Path 59" class="cls-7" d="M1346.765,1432v49.42" transform="translate(20 -18)"/>
    <path id="Path_208" data-name="Path 208" d="M10.652-4.395a2.06,2.06,0,0,0-.791-1.734,9.517,9.517,0,0,0-2.854-1.23A13.779,13.779,0,0,1,3.727-8.742a4.379,4.379,0,0,1-2.332-3.82,4.158,4.158,0,0,1,1.682-3.4A6.806,6.806,0,0,1,7.441-17.3a7.373,7.373,0,0,1,3.176.656,5.213,5.213,0,0,1,2.191,1.869,4.794,4.794,0,0,1,.8,2.689H10.652a2.674,2.674,0,0,0-.838-2.092,3.458,3.458,0,0,0-2.4-.756,3.612,3.612,0,0,0-2.256.621,2.068,2.068,0,0,0-.8,1.734,1.871,1.871,0,0,0,.867,1.564A9.99,9.99,0,0,0,8.086-9.791a13.153,13.153,0,0,1,3.2,1.348,5.089,5.089,0,0,1,1.77,1.734,4.517,4.517,0,0,1,.563,2.291,4.061,4.061,0,0,1-1.635,3.393A7.091,7.091,0,0,1,7.547.234a8.335,8.335,0,0,1-3.4-.686A5.719,5.719,0,0,1,1.729-2.344,4.716,4.716,0,0,1,.867-5.156H3.832a2.76,2.76,0,0,0,.961,2.25,4.208,4.208,0,0,0,2.754.8,3.656,3.656,0,0,0,2.326-.627A2.023,2.023,0,0,0,10.652-4.395ZM18.973,0H16.125V-12.68h2.848ZM15.949-15.973a1.511,1.511,0,0,1,.416-1.09,1.571,1.571,0,0,1,1.189-.434,1.591,1.591,0,0,1,1.2.434,1.5,1.5,0,0,1,.422,1.09A1.465,1.465,0,0,1,18.75-14.9a1.6,1.6,0,0,1-1.2.428,1.584,1.584,0,0,1-1.189-.428A1.476,1.476,0,0,1,15.949-15.973Zm9.164,13.7h6.75V0H21.574V-1.863l6.434-8.52H21.691v-2.3h9.926v1.8ZM37.172,0H34.324V-12.68h2.848ZM34.148-15.973a1.511,1.511,0,0,1,.416-1.09,1.571,1.571,0,0,1,1.189-.434,1.591,1.591,0,0,1,1.2.434,1.5,1.5,0,0,1,.422,1.09,1.465,1.465,0,0,1-.422,1.072,1.6,1.6,0,0,1-1.2.428,1.584,1.584,0,0,1-1.189-.428A1.476,1.476,0,0,1,34.148-15.973Zm8.766,3.293L43-11.215a4.559,4.559,0,0,1,3.691-1.7q3.961,0,4.031,4.535V0H47.871V-8.215A2.611,2.611,0,0,0,47.35-10a2.194,2.194,0,0,0-1.705-.58,2.744,2.744,0,0,0-2.566,1.559V0H40.23V-12.68ZM53.121-6.434A7.416,7.416,0,0,1,54.51-11.15,4.457,4.457,0,0,1,58.2-12.914a4.175,4.175,0,0,1,3.41,1.512l.129-1.277H64.3V-.387a5.109,5.109,0,0,1-1.553,3.938,5.914,5.914,0,0,1-4.189,1.441,6.753,6.753,0,0,1-2.725-.58,4.841,4.841,0,0,1-2.021-1.518L55.16,1.184a4.07,4.07,0,0,0,3.234,1.559,3.146,3.146,0,0,0,2.238-.768,2.942,2.942,0,0,0,.82-2.256v-.855A4.193,4.193,0,0,1,58.172.234a4.446,4.446,0,0,1-3.639-1.77A7.656,7.656,0,0,1,53.121-6.434Zm2.836.246a5.1,5.1,0,0,0,.779,3.006,2.506,2.506,0,0,0,2.162,1.1,2.74,2.74,0,0,0,2.555-1.477V-9.141a2.7,2.7,0,0,0-2.531-1.441,2.516,2.516,0,0,0-2.186,1.113A5.716,5.716,0,0,0,55.957-6.187Zm17.285-.75a17.857,17.857,0,0,1,.727-5.139A14.1,14.1,0,0,1,76.1-16.424a8.468,8.468,0,0,1,2.977-2.689l.563,1.664a8.7,8.7,0,0,0-2.678,3.826,17.136,17.136,0,0,0-1.119,5.889l-.012,1.008a18.63,18.63,0,0,0,1,6.334,9.335,9.335,0,0,0,2.807,4.236l-.562,1.582a8.483,8.483,0,0,1-2.982-2.7,14.1,14.1,0,0,1-2.133-4.348A18.561,18.561,0,0,1,73.242-6.937Zm11-5.742.082,1.324a4.563,4.563,0,0,1,3.656-1.559,3.505,3.505,0,0,1,3.48,1.945,4.5,4.5,0,0,1,3.891-1.945,3.953,3.953,0,0,1,3.123,1.16,5.108,5.108,0,0,1,1.049,3.422V0H96.68V-8.25a2.522,2.522,0,0,0-.527-1.77,2.308,2.308,0,0,0-1.746-.562,2.371,2.371,0,0,0-1.588.521A2.75,2.75,0,0,0,91.957-8.7L91.969,0H89.121V-8.344a2.031,2.031,0,0,0-2.285-2.238A2.507,2.507,0,0,0,84.41-9.187V0H81.563V-12.68Zm17.672,6.223a7.477,7.477,0,0,1,.738-3.357,5.392,5.392,0,0,1,2.074-2.3,5.844,5.844,0,0,1,3.07-.8,5.539,5.539,0,0,1,4.166,1.652A6.5,6.5,0,0,1,113.7-6.879l.012.668a7.543,7.543,0,0,1-.721,3.352,5.327,5.327,0,0,1-2.062,2.285,5.887,5.887,0,0,1-3.1.809,5.5,5.5,0,0,1-4.295-1.787,6.845,6.845,0,0,1-1.611-4.764Zm2.848.246a5.109,5.109,0,0,0,.809,3.064,2.629,2.629,0,0,0,2.25,1.107,2.6,2.6,0,0,0,2.244-1.125,5.643,5.643,0,0,0,.8-3.293,5.043,5.043,0,0,0-.826-3.047,2.638,2.638,0,0,0-2.244-1.125,2.614,2.614,0,0,0-2.215,1.107A5.537,5.537,0,0,0,104.766-6.211Zm22.477,0a7.617,7.617,0,0,1-1.318,4.7A4.3,4.3,0,0,1,122.3.234a4.136,4.136,0,0,1-3.469-1.605L118.688,0h-2.578V-18h2.848v6.539a4.122,4.122,0,0,1,3.316-1.453,4.344,4.344,0,0,1,3.645,1.723,7.743,7.743,0,0,1,1.324,4.816Zm-2.848-.246a5.383,5.383,0,0,0-.727-3.094,2.419,2.419,0,0,0-2.109-1.031,2.644,2.644,0,0,0-2.6,1.617v5.227a2.671,2.671,0,0,0,2.625,1.652,2.4,2.4,0,0,0,2.063-1,5.216,5.216,0,0,0,.75-3.012ZM132.656,0h-2.848V-12.68h2.848Zm-3.023-15.973a1.511,1.511,0,0,1,.416-1.09,1.571,1.571,0,0,1,1.189-.434,1.591,1.591,0,0,1,1.2.434,1.5,1.5,0,0,1,.422,1.09,1.465,1.465,0,0,1-.422,1.072,1.6,1.6,0,0,1-1.2.428,1.584,1.584,0,0,1-1.189-.428A1.476,1.476,0,0,1,129.633-15.973ZM138.785,0h-2.848V-18h2.848Zm8.684.234a5.891,5.891,0,0,1-4.389-1.705A6.185,6.185,0,0,1,141.4-6.012v-.352a7.608,7.608,0,0,1,.732-3.393,5.575,5.575,0,0,1,2.057-2.326,5.437,5.437,0,0,1,2.953-.832,4.977,4.977,0,0,1,4,1.652,6.987,6.987,0,0,1,1.412,4.676v1.148H144.27a3.808,3.808,0,0,0,1.049,2.484,3.149,3.149,0,0,0,2.314.914,3.856,3.856,0,0,0,3.188-1.582l1.535,1.465a5.127,5.127,0,0,1-2.033,1.764A6.365,6.365,0,0,1,147.469.234Zm-.34-10.863a2.4,2.4,0,0,0-1.893.82,4.252,4.252,0,0,0-.92,2.285h5.426v-.211A3.461,3.461,0,0,0,148.98-9.9,2.38,2.38,0,0,0,147.129-10.629ZM160.254-6.75a17.632,17.632,0,0,1-.715,5.021,14.227,14.227,0,0,1-2.168,4.406,8.49,8.49,0,0,1-3.035,2.748l-.562-1.582a9.006,9.006,0,0,0,2.783-4.154,18.453,18.453,0,0,0,1.025-6.381v-.27a18.726,18.726,0,0,0-.891-5.936,10.47,10.47,0,0,0-2.555-4.295l-.363-.328.563-1.594a8.4,8.4,0,0,1,2.906,2.578,13.989,13.989,0,0,1,2.156,4.143,17.255,17.255,0,0,1,.844,4.729Z" transform="translate(1371 1169)"/>
  </g>
</svg>
