<svg xmlns="http://www.w3.org/2000/svg" viewBox="0 0 155.91 118.469">
  <defs>
    <style>
      .cls-1, .cls-2 {
        fill: #f57200;
      }

      .cls-2 {
        opacity: 0.17;
      }

      .cls-3, .cls-4 {
        fill: none;
        stroke: #f57200;
      }

      .cls-3 {
        stroke-width: 4px;
      }

      .cls-4 {
        stroke-width: 3px;
      }
    </style>
  </defs>
  <g id="Group_71" data-name="Group 71" transform="translate(-1018.752 -1483)">
    <path id="Path_205" data-name="Path 205" class="cls-1" d="M11.594-12.25a.633.633,0,0,0,.465-.191.633.633,0,0,0,.191-.465v-2.625A.633.633,0,0,0,12.059-16a.633.633,0,0,0-.465-.191H6.234a10.118,10.118,0,0,1,3.391-2.871A9.242,9.242,0,0,1,14-20.125a9.473,9.473,0,0,1,4.84,1.285,9.481,9.481,0,0,1,3.5,3.5,9.473,9.473,0,0,1,1.285,4.84A9.473,9.473,0,0,1,22.34-5.66a9.481,9.481,0,0,1-3.5,3.5A9.473,9.473,0,0,1,14-.875,9.543,9.543,0,0,1,10.555-1.5a9.069,9.069,0,0,1-2.9-1.777.762.762,0,0,0-.465-.164.762.762,0,0,0-.465.164L4.867-1.422A.8.8,0,0,0,4.7-.93a.68.68,0,0,0,.219.492,13.492,13.492,0,0,0,4.156,2.57A13.267,13.267,0,0,0,14,3.062,13.1,13.1,0,0,0,20.809,1.23,13.841,13.841,0,0,0,25.73-3.691a13.053,13.053,0,0,0,1.832-6.781,13.509,13.509,0,0,0-1.777-6.809,13.345,13.345,0,0,0-4.867-4.949,13.1,13.1,0,0,0-6.809-1.832A13.679,13.679,0,0,0,8.5-22.887a13.311,13.311,0,0,0-4.566,3.309v-4.266a.633.633,0,0,0-.191-.465.633.633,0,0,0-.465-.191H.656a.633.633,0,0,0-.465.191A.633.633,0,0,0,0-23.844v10.937a.633.633,0,0,0,.191.465.633.633,0,0,0,.465.191Z" transform="translate(1125 1512)"/>
    <path id="Path_206" data-name="Path 206" class="cls-2" d="M0,0H29V29H0Z" transform="translate(1124 1487)"/>
    <path id="Path_202" data-name="Path 202" class="cls-3" d="M1010.137,1224h-62.1" transform="translate(107.96 261)"/>
    <path id="Path_204" data-name="Path 204" class="cls-3" d="M1010.137,1224h-62.1" transform="translate(-102 2530.04) rotate(-90)"/>
    <path id="Path_201" data-name="Path 201" class="cls-3" d="M1010.137,1224h-62.1" transform="translate(107.96 294)"/>
    <path id="Path_203" data-name="Path 203" class="cls-3" d="M1010.137,1224h-62.1" transform="translate(-69 2530.04) rotate(-90)"/>
    <path id="Path_54" data-name="Path 54" class="cls-1" d="M750.57,1161.782l4.28-6.443,4.28,6.443h-6.9" transform="translate(331.897 332.013)"/>
    <path id="Path_55" data-name="Path 55" class="cls-1" d="M0,6.443,4.28,0,8.56,6.443h-6.9" transform="translate(1091.028 1515.317) rotate(180)"/>
    <path id="Path_56" data-name="Path 56" class="cls-4" d="M767,1167.317v21.427" transform="translate(319.781 323.256)"/>
    <path id="Path_54-2" data-name="Path 54" class="cls-1" d="M750.57,1163.221l4.28-7.882,4.28,7.882h-6.9" transform="translate(-30.987 2309.103) rotate(-90)"/>
    <path id="Path_55-2" data-name="Path 55" class="cls-1" d="M0,7.882,4.28,0,8.56,7.882h-6.9" transform="translate(1153 1549.972) rotate(90)"/>
    <path id="Path_56-2" data-name="Path 56" class="cls-4" d="M767,1167.317v16.15" transform="translate(-35.488 2321.219) rotate(-90)"/>
    <path id="Path_208" data-name="Path 208" class="cls-1" d="M11.784,0H1.063V-2.127L6.123-7.52A12.482,12.482,0,0,0,7.665-9.507a3.193,3.193,0,0,0,.5-1.611,2.389,2.389,0,0,0-.526-1.638,1.9,1.9,0,0,0-1.5-.6,2.049,2.049,0,0,0-1.66.725,2.872,2.872,0,0,0-.607,1.907H.752a5.128,5.128,0,0,1,.682-2.61,4.808,4.808,0,0,1,1.928-1.853,5.861,5.861,0,0,1,2.825-.671A5.549,5.549,0,0,1,9.942-14.7a4.1,4.1,0,0,1,1.337,3.276,5.259,5.259,0,0,1-.6,2.363,13.133,13.133,0,0,1-2.062,2.8L5.06-2.5h6.725Zm9.163-6.252A3.92,3.92,0,0,1,18.111-5.06a4.193,4.193,0,0,1-3.319-1.423,5.625,5.625,0,0,1-1.246-3.84,5.991,5.991,0,0,1,.671-2.82,4.925,4.925,0,0,1,1.875-2,5.2,5.2,0,0,1,2.707-.714,4.974,4.974,0,0,1,2.75.773,5.085,5.085,0,0,1,1.869,2.224,7.984,7.984,0,0,1,.677,3.319V-8.39A9.047,9.047,0,0,1,22.15-2.245,7.351,7.351,0,0,1,16.64.14L15.877.15V-2.438l.688-.011Q20.614-2.632,20.947-6.252ZM18.874-7.434a2.171,2.171,0,0,0,1.294-.387,2.584,2.584,0,0,0,.822-.935v-1.278a4.269,4.269,0,0,0-.6-2.449,1.867,1.867,0,0,0-1.611-.87,1.812,1.812,0,0,0-1.536.854,3.631,3.631,0,0,0-.6,2.143,3.534,3.534,0,0,0,.585,2.1A1.907,1.907,0,0,0,18.874-7.434ZM36.9-5.7A6.971,6.971,0,0,1,35.68-1.4,3.909,3.909,0,0,1,32.388.215,3.621,3.621,0,0,1,29.541-1.01V4.469h-3.1V-11.623h2.879l.107,1.139a3.649,3.649,0,0,1,2.943-1.354,3.936,3.936,0,0,1,3.341,1.59A7.16,7.16,0,0,1,36.9-5.865Zm-3.1-.226a4.574,4.574,0,0,0-.575-2.5,1.872,1.872,0,0,0-1.67-.881A2.033,2.033,0,0,0,29.541-8.2v4.759a2.067,2.067,0,0,0,2.03,1.149Q33.795-2.288,33.795-5.93Zm9.453-2.224,1.955-3.47h3.319L45.214-5.93,48.662,0h-3.33L43.259-3.652,41.2,0H37.855L41.3-5.93l-3.3-5.693h3.33Z" transform="translate(1018 1506)"/>
    <path id="Path_207" data-name="Path 207" class="cls-1" d="M11.784,0H1.063V-2.127L6.123-7.52A12.482,12.482,0,0,0,7.665-9.507a3.193,3.193,0,0,0,.5-1.611,2.389,2.389,0,0,0-.526-1.638,1.9,1.9,0,0,0-1.5-.6,2.049,2.049,0,0,0-1.66.725,2.872,2.872,0,0,0-.607,1.907H.752a5.128,5.128,0,0,1,.682-2.61,4.808,4.808,0,0,1,1.928-1.853,5.861,5.861,0,0,1,2.825-.671A5.549,5.549,0,0,1,9.942-14.7a4.1,4.1,0,0,1,1.337,3.276,5.259,5.259,0,0,1-.6,2.363,13.133,13.133,0,0,1-2.062,2.8L5.06-2.5h6.725Zm9.163-6.252A3.92,3.92,0,0,1,18.111-5.06a4.193,4.193,0,0,1-3.319-1.423,5.625,5.625,0,0,1-1.246-3.84,5.991,5.991,0,0,1,.671-2.82,4.925,4.925,0,0,1,1.875-2,5.2,5.2,0,0,1,2.707-.714,4.974,4.974,0,0,1,2.75.773,5.085,5.085,0,0,1,1.869,2.224,7.984,7.984,0,0,1,.677,3.319V-8.39A9.047,9.047,0,0,1,22.15-2.245,7.351,7.351,0,0,1,16.64.14L15.877.15V-2.438l.688-.011Q20.614-2.632,20.947-6.252ZM18.874-7.434a2.171,2.171,0,0,0,1.294-.387,2.584,2.584,0,0,0,.822-.935v-1.278a4.269,4.269,0,0,0-.6-2.449,1.867,1.867,0,0,0-1.611-.87,1.812,1.812,0,0,0-1.536.854,3.631,3.631,0,0,0-.6,2.143,3.534,3.534,0,0,0,.585,2.1A1.907,1.907,0,0,0,18.874-7.434ZM36.9-5.7A6.971,6.971,0,0,1,35.68-1.4,3.909,3.909,0,0,1,32.388.215,3.621,3.621,0,0,1,29.541-1.01V4.469h-3.1V-11.623h2.879l.107,1.139a3.649,3.649,0,0,1,2.943-1.354,3.936,3.936,0,0,1,3.341,1.59A7.16,7.16,0,0,1,36.9-5.865Zm-3.1-.226a4.574,4.574,0,0,0-.575-2.5,1.872,1.872,0,0,0-1.67-.881A2.033,2.033,0,0,0,29.541-8.2v4.759a2.067,2.067,0,0,0,2.03,1.149Q33.795-2.288,33.795-5.93Zm9.453-2.224,1.955-3.47h3.319L45.214-5.93,48.662,0h-3.33L43.259-3.652,41.2,0H37.855L41.3-5.93l-3.3-5.693h3.33Z" transform="translate(1126 1597)"/>
  </g>
</svg>
