<svg id="Group_484" data-name="Group 484" xmlns="http://www.w3.org/2000/svg" viewBox="91 1080 1637 544">
  <defs>
    <style>
      .cls-1 {
        fill: #fff;
      }

      .cls-2 {
        fill: #68b3e4;
      }

      .cls-3 {
        fill: #30d074;
      }

      .cls-4 {
        fill: #f3cb2c;
      }

      .cls-5 {
        fill: #ffa85c;
      }

      .cls-6 {
        fill: #ff604e;
      }

      .cls-7 {
        fill: #212529;
        stroke: rgba(0,0,0,0);
      }

      .cls-10, .cls-8 {
        stroke: #bdc6d0;
        stroke-width: 5px;
      }

      .cls-10, .cls-9 {
        fill: none;
      }

      .cls-11 {
        stroke: none;
      }
    </style>
  </defs>
  <path id="Path_633" data-name="Path 633" class="cls-1" d="M9,0H1628a9,9,0,0,1,9,9V535a9,9,0,0,1-9,9H9a9,9,0,0,1-9-9V9A9,9,0,0,1,9,0Z" transform="translate(91 1080)"/>
  <rect id="Rectangle_734" data-name="Rectangle 734" class="cls-2" width="357.259" height="194.233" rx="17" transform="translate(123 1383)"/>
  <rect id="Rectangle_735" data-name="Rectangle 735" class="cls-2" width="357.259" height="194.233" rx="17" transform="translate(524 1384)"/>
  <rect id="Rectangle_736" data-name="Rectangle 736" class="cls-2" width="357.259" height="194.233" rx="17" transform="translate(926 1384)"/>
  <rect id="Rectangle_737" data-name="Rectangle 737" class="cls-3" width="48.301" height="34.318" transform="translate(1329.506 1329.478)"/>
  <rect id="Rectangle_738" data-name="Rectangle 738" class="cls-2" width="48.301" height="34.318" transform="translate(1329.506 1377.875)"/>
  <rect id="Rectangle_739" data-name="Rectangle 739" class="cls-4" width="48.301" height="34.318" transform="translate(1329.506 1426.272)"/>
  <rect id="Rectangle_740" data-name="Rectangle 740" class="cls-5" width="48.301" height="34.318" transform="translate(1329.506 1477.309)"/>
  <rect id="Rectangle_741" data-name="Rectangle 741" class="cls-6" width="48.301" height="34.318" transform="translate(1329.506 1526.586)"/>
  <path id="Path_632" data-name="Path 632" class="cls-7" d="M-44.387-8.079A6.445,6.445,0,0,1-46.438-3.79a6.722,6.722,0,0,1-4.59,1.51A6.172,6.172,0,0,1-56-4.506a8.954,8.954,0,0,1-1.871-5.955v-1.684A9.98,9.98,0,0,1-57-16.44a6.515,6.515,0,0,1,2.472-2.845,6.884,6.884,0,0,1,3.705-.993,6.33,6.33,0,0,1,4.475,1.558,6.522,6.522,0,0,1,1.961,4.313h-2.322a5.011,5.011,0,0,0-1.305-3.032,3.957,3.957,0,0,0-2.809-.938,4.134,4.134,0,0,0-3.471,1.636,7.506,7.506,0,0,0-1.257,4.656v1.7A7.716,7.716,0,0,0-54.36-5.854a3.849,3.849,0,0,0,3.332,1.684,4.445,4.445,0,0,0,2.953-.872,4.84,4.84,0,0,0,1.365-3.038Zm2.214-1.071a7.689,7.689,0,0,1,.752-3.441,5.609,5.609,0,0,1,2.093-2.358,5.7,5.7,0,0,1,3.062-.83,5.49,5.49,0,0,1,4.3,1.841,7.082,7.082,0,0,1,1.642,4.9v.156a7.756,7.756,0,0,1-.728,3.411,5.527,5.527,0,0,1-2.081,2.352,5.764,5.764,0,0,1-3.11.842,5.476,5.476,0,0,1-4.289-1.841,7.046,7.046,0,0,1-1.642-4.872Zm2.238.265a5.569,5.569,0,0,0,1,3.477A3.215,3.215,0,0,0-36.242-4.1a3.2,3.2,0,0,0,2.695-1.329,6.09,6.09,0,0,0,1-3.723,5.559,5.559,0,0,0-1.017-3.471,3.232,3.232,0,0,0-2.7-1.329,3.2,3.2,0,0,0-2.659,1.311A6.044,6.044,0,0,0-39.935-8.885Zm14.822,6.364h-2.226V-21h2.226Zm2.972-6.629a7.689,7.689,0,0,1,.752-3.441A5.609,5.609,0,0,1-19.3-14.949a5.7,5.7,0,0,1,3.062-.83,5.49,5.49,0,0,1,4.3,1.841,7.082,7.082,0,0,1,1.642,4.9v.156a7.756,7.756,0,0,1-.728,3.411A5.527,5.527,0,0,1-13.1-3.123a5.764,5.764,0,0,1-3.11.842A5.476,5.476,0,0,1-20.5-4.121a7.046,7.046,0,0,1-1.642-4.872Zm2.238.265a5.569,5.569,0,0,0,1,3.477A3.215,3.215,0,0,0-16.211-4.1a3.2,3.2,0,0,0,2.695-1.329,6.09,6.09,0,0,0,1-3.723,5.559,5.559,0,0,0-1.017-3.471,3.232,3.232,0,0,0-2.7-1.329,3.2,3.2,0,0,0-2.659,1.311A6.044,6.044,0,0,0-19.9-8.885Zm18.7-4.656A6.67,6.67,0,0,0-2.3-13.625a2.933,2.933,0,0,0-2.972,1.865v9.239H-7.5V-15.538h2.166l.036,1.5a3.466,3.466,0,0,1,3.1-1.744,2.274,2.274,0,0,1,.987.168Zm12.945,2.875L9.594-8.44v5.919H7.284V-20.038h2.31v8.662l7.784-8.662h2.791L13.276-12.3l7.435,9.781H17.944ZM27.785-2.28a5.688,5.688,0,0,1-4.307-1.738,6.452,6.452,0,0,1-1.66-4.65v-.409a7.811,7.811,0,0,1,.74-3.459,5.772,5.772,0,0,1,2.069-2.382,5.2,5.2,0,0,1,2.881-.86,4.875,4.875,0,0,1,3.946,1.672,7.24,7.24,0,0,1,1.408,4.788v.926H24.043a4.627,4.627,0,0,0,1.125,3.11A3.536,3.536,0,0,0,27.9-4.1a3.876,3.876,0,0,0,2-.481,5.018,5.018,0,0,0,1.432-1.275l1.359,1.059A5.466,5.466,0,0,1,27.785-2.28Zm-.277-11.67a2.969,2.969,0,0,0-2.262.98,4.766,4.766,0,0,0-1.131,2.749h6.521v-.168a4.239,4.239,0,0,0-.914-2.629A2.8,2.8,0,0,0,27.508-13.95ZM39.695-5.781l3.032-9.757h2.382L39.875-.512Q38.66,2.736,36.013,2.736L35.592,2.7l-.83-.156V.739l.6.048A2.962,2.962,0,0,0,37.126.33a3.308,3.308,0,0,0,1.041-1.672l.493-1.323L34.016-15.538h2.43Z" transform="translate(1388.274 1310)"/>
  <path id="Path_634" data-name="Path 634" class="cls-7" d="M34.242-25.242l-.141-.023L24.961,0H20.367L11.273-25.172l-.141.023.656,14.977V-4.8l3.656.7V0H1.313V-4.1l3.633-.7V-29.3L1.313-30v-4.125H13.875l8.7,25.148h.141l8.766-25.148H44.086V-30l-3.656.7V-4.8l3.656.7V0H29.953V-4.1l3.633-.7v-5.367ZM62.836,0a12.377,12.377,0,0,1-.492-1.3,10.26,10.26,0,0,1-.328-1.348A9.415,9.415,0,0,1,59.051-.375a8.868,8.868,0,0,1-4,.867,8.372,8.372,0,0,1-5.918-2.027,7.151,7.151,0,0,1-2.191-5.52A6.275,6.275,0,0,1,49.8-12.562q2.859-1.945,8.391-1.945h3.492v-2.484a3.736,3.736,0,0,0-1.055-2.836,4.349,4.349,0,0,0-3.117-1.008,7.382,7.382,0,0,0-2.086.27,5.458,5.458,0,0,0-1.477.645L53.508-17.2H48.352l.023-5.625a19.206,19.206,0,0,1,4.3-2.133,15.594,15.594,0,0,1,5.285-.867,12.033,12.033,0,0,1,7.652,2.309,7.869,7.869,0,0,1,2.941,6.574V-6.469q0,.586.012,1.1a7.837,7.837,0,0,0,.082.984l2.086.281V0Zm-5.93-4.57a5.932,5.932,0,0,0,2.813-.668,5.431,5.431,0,0,0,1.969-1.676v-3.867H58.2a4.769,4.769,0,0,0-3.3,1.02,3.192,3.192,0,0,0-1.125,2.449A2.535,2.535,0,0,0,54.6-5.3,3.394,3.394,0,0,0,56.906-4.57ZM72.844-4.1l3.3-.7V-20.531l-3.656-.7v-4.125h10.5V-4.8l3.281.7V0H72.844ZM82.992-31.43H76.148v-5.133h6.844Zm4.8-1.008v-4.125H98.3V-4.8l3.3.7V0H88.148V-4.1l3.3-.7v-26.93Zm43.875-1.687q5.859,0,9.246,3.012a10.051,10.051,0,0,1,3.387,7.887,9.972,9.972,0,0,1-3.387,7.875q-3.387,2.977-9.246,2.977h-5.766V-4.8l3.656.7V0H115.43V-4.1l3.633-.7V-29.3L115.43-30v-4.125h16.242Zm-5.766,16.477h5.766A5.654,5.654,0,0,0,136-19.207a5.569,5.569,0,0,0,1.465-3.973A5.8,5.8,0,0,0,136-27.246a5.561,5.561,0,0,0-4.324-1.605h-5.766ZM147.164-4.1l3.281-.7V-20.531l-3.633-.7v-4.125H156.82l.3,3.7a7.982,7.982,0,0,1,2.3-3.07,5.133,5.133,0,0,1,3.258-1.1,8.372,8.372,0,0,1,1.137.082,6.964,6.964,0,0,1,1,.2l-.727,6.234-2.812-.07a4.793,4.793,0,0,0-2.484.586,3.787,3.787,0,0,0-1.5,1.664V-4.8l3.281.7V0H147.164Zm19.219-8.812a13.578,13.578,0,0,1,3.176-9.293,11.065,11.065,0,0,1,8.777-3.621,11.11,11.11,0,0,1,8.8,3.609,13.567,13.567,0,0,1,3.176,9.3v.492a13.557,13.557,0,0,1-3.176,9.316,11.072,11.072,0,0,1-8.754,3.6q-5.648,0-8.824-3.6a13.557,13.557,0,0,1-3.176-9.316Zm6.844.492a11.032,11.032,0,0,0,1.219,5.566,4.208,4.208,0,0,0,3.938,2.1,4.166,4.166,0,0,0,3.879-2.109,10.959,10.959,0,0,0,1.23-5.555v-.492a10.847,10.847,0,0,0-1.242-5.508,4.2,4.2,0,0,0-3.914-2.133,4.15,4.15,0,0,0-3.891,2.133,11.018,11.018,0,0,0-1.219,5.508ZM205.2-4.758a4.033,4.033,0,0,0,2.93-1.066,3.781,3.781,0,0,0,1.1-2.848h6.188l.07.141A7.911,7.911,0,0,1,212.6-2.1,10.88,10.88,0,0,1,205.2.492q-5.672,0-8.742-3.586a13.663,13.663,0,0,1-3.07-9.211v-.7a13.493,13.493,0,0,1,3.152-9.211q3.152-3.609,8.988-3.609a15.6,15.6,0,0,1,5.508.914,10.882,10.882,0,0,1,4.055,2.578l.094,6.773h-5.555L208.5-19.523a4.323,4.323,0,0,0-1.266-.738,4.676,4.676,0,0,0-1.711-.293,4.321,4.321,0,0,0-4.1,2.109,10.949,10.949,0,0,0-1.2,5.438v.7a11.68,11.68,0,0,0,1.1,5.473A4,4,0,0,0,205.2-4.758ZM230.719.492a11.418,11.418,0,0,1-8.766-3.516,12.571,12.571,0,0,1-3.281-8.93v-.937a13.872,13.872,0,0,1,3.105-9.3,10.309,10.309,0,0,1,8.332-3.633q5.133,0,7.969,3.094a11.9,11.9,0,0,1,2.836,8.367v3.727H225.773l-.047.141A6.619,6.619,0,0,0,227.4-6.375a5.224,5.224,0,0,0,4.043,1.617,13.167,13.167,0,0,0,3.773-.457A17.343,17.343,0,0,0,238.5-6.656l1.852,4.219a13.471,13.471,0,0,1-4.066,2.086A17.31,17.31,0,0,1,230.719.492Zm-.609-21.047a3.563,3.563,0,0,0-3,1.453,7.566,7.566,0,0,0-1.359,3.82l.07.117h8.391v-.609a5.49,5.49,0,0,0-1.02-3.48A3.675,3.675,0,0,0,230.109-20.555Zm34.734,3.914H260.25l-.727-3.164a5.994,5.994,0,0,0-1.77-.937,7.06,7.06,0,0,0-2.355-.375,4.588,4.588,0,0,0-2.859.809,2.46,2.46,0,0,0-1.055,2.027,2.308,2.308,0,0,0,1.008,1.91,10.787,10.787,0,0,0,4.031,1.348,16.409,16.409,0,0,1,6.984,2.754,6.053,6.053,0,0,1,2.273,5,6.656,6.656,0,0,1-2.941,5.59A12.748,12.748,0,0,1,255.094.492a16.216,16.216,0,0,1-5.379-.855,13.741,13.741,0,0,1-4.348-2.449l-.07-5.7h4.781l.938,3.3a3.92,3.92,0,0,0,1.664.762,9.666,9.666,0,0,0,2.2.246,5.593,5.593,0,0,0,3.176-.75,2.351,2.351,0,0,0,1.09-2.039,2.385,2.385,0,0,0-1.1-1.945,11.246,11.246,0,0,0-4.055-1.453,16.254,16.254,0,0,1-6.762-2.707,5.877,5.877,0,0,1-2.285-4.887,7.09,7.09,0,0,1,2.625-5.5q2.625-2.309,7.477-2.309a19.222,19.222,0,0,1,5.59.8,11.811,11.811,0,0,1,4.137,2.039Zm24.7,0h-4.594l-.727-3.164a5.994,5.994,0,0,0-1.77-.937,7.06,7.06,0,0,0-2.355-.375,4.588,4.588,0,0,0-2.859.809,2.46,2.46,0,0,0-1.055,2.027,2.308,2.308,0,0,0,1.008,1.91,10.787,10.787,0,0,0,4.031,1.348,16.409,16.409,0,0,1,6.984,2.754,6.053,6.053,0,0,1,2.273,5,6.656,6.656,0,0,1-2.941,5.59A12.748,12.748,0,0,1,279.8.492a16.216,16.216,0,0,1-5.379-.855,13.741,13.741,0,0,1-4.348-2.449l-.07-5.7h4.781l.938,3.3a3.92,3.92,0,0,0,1.664.762,9.666,9.666,0,0,0,2.2.246,5.593,5.593,0,0,0,3.176-.75,2.351,2.351,0,0,0,1.09-2.039,2.385,2.385,0,0,0-1.1-1.945,11.246,11.246,0,0,0-4.055-1.453,16.254,16.254,0,0,1-6.762-2.707,5.877,5.877,0,0,1-2.285-4.887,7.09,7.09,0,0,1,2.625-5.5q2.625-2.309,7.477-2.309a19.222,19.222,0,0,1,5.59.8,11.811,11.811,0,0,1,4.137,2.039Zm3.8,12.539,3.3-.7V-20.531l-3.656-.7v-4.125h10.5V-4.8l3.281.7V0h-13.43ZM303.492-31.43h-6.844v-5.133h6.844ZM308.648-4.1l3.281-.7V-20.531l-3.633-.7v-4.125H318.3l.3,3.633a9.275,9.275,0,0,1,3.117-3.023,8.092,8.092,0,0,1,4.148-1.078,7.63,7.63,0,0,1,6,2.414q2.156,2.414,2.156,7.57V-4.8l3.281.7V0H324.234V-4.1l2.93-.7V-15.82a5.13,5.13,0,0,0-1.031-3.621,4.151,4.151,0,0,0-3.117-1.066,5.281,5.281,0,0,0-2.437.551,5.01,5.01,0,0,0-1.8,1.559V-4.8l2.766.7V0H308.648Zm31.031-8.367q0-6,2.613-9.68a8.469,8.469,0,0,1,7.324-3.68,7.27,7.27,0,0,1,3.75.949,8.374,8.374,0,0,1,2.766,2.707l.492-3.187h5.953V-.75a10.508,10.508,0,0,1-3.152,8q-3.152,2.988-8.66,2.988a17.191,17.191,0,0,1-4.078-.527A18.938,18.938,0,0,1,342.7,8.273l1.266-4.8a21.668,21.668,0,0,0,3.281,1.113,14.257,14.257,0,0,0,3.469.41,4.554,4.554,0,0,0,3.75-1.523,6.536,6.536,0,0,0,1.242-4.242V-2.437a7.656,7.656,0,0,1-2.648,2.18,7.807,7.807,0,0,1-3.492.75,8.627,8.627,0,0,1-7.277-3.434,14.529,14.529,0,0,1-2.613-9.035Zm6.844.492a10.329,10.329,0,0,0,1.125,5.238,3.917,3.917,0,0,0,3.656,1.91,5.649,5.649,0,0,0,2.66-.574,4.387,4.387,0,0,0,1.746-1.676V-18.094a4.722,4.722,0,0,0-1.746-1.781,5.118,5.118,0,0,0-2.613-.633,3.862,3.862,0,0,0-3.668,2.227,12.583,12.583,0,0,0-1.16,5.813Zm57.68-11.25H399.07l-.891-4.687a9.073,9.073,0,0,0-2.6-.984,15.131,15.131,0,0,0-3.633-.422,6.987,6.987,0,0,0-4.348,1.184,3.691,3.691,0,0,0-1.535,3.059,3.346,3.346,0,0,0,1.605,2.848,22.2,22.2,0,0,0,5.543,2.355,21.625,21.625,0,0,1,8.566,4.148A8.6,8.6,0,0,1,404.7-8.953a8.1,8.1,0,0,1-3.469,6.914A15.154,15.154,0,0,1,392.086.492,19.822,19.822,0,0,1,384.762-.8a15.087,15.087,0,0,1-5.449-3.562v-7.125h5.3l.727,4.852a8.293,8.293,0,0,0,2.8,1.395,13.255,13.255,0,0,0,3.949.551,6.824,6.824,0,0,0,4.277-1.148,3.7,3.7,0,0,0,1.465-3.07,3.961,3.961,0,0,0-1.395-3.164,14.108,14.108,0,0,0-4.887-2.25,27.826,27.826,0,0,1-9.187-4.172,7.9,7.9,0,0,1-3.117-6.609,8.125,8.125,0,0,1,3.516-6.785,14.652,14.652,0,0,1,8.836-2.707,20.555,20.555,0,0,1,7.172,1.2,16.557,16.557,0,0,1,5.438,3.188ZM419.7.492a11.418,11.418,0,0,1-8.766-3.516,12.571,12.571,0,0,1-3.281-8.93v-.937a13.872,13.872,0,0,1,3.105-9.3,10.309,10.309,0,0,1,8.332-3.633q5.133,0,7.969,3.094a11.9,11.9,0,0,1,2.836,8.367v3.727H414.75l-.047.141a6.619,6.619,0,0,0,1.676,4.125,5.224,5.224,0,0,0,4.043,1.617,13.167,13.167,0,0,0,3.773-.457,17.343,17.343,0,0,0,3.281-1.441l1.852,4.219a13.471,13.471,0,0,1-4.066,2.086A17.31,17.31,0,0,1,419.7.492Zm-.609-21.047a3.563,3.563,0,0,0-3,1.453,7.566,7.566,0,0,0-1.359,3.82l.07.117h8.391v-.609a5.49,5.49,0,0,0-1.02-3.48A3.675,3.675,0,0,0,419.086-20.555ZM433.641-4.1l3.281-.7V-20.531l-3.633-.7v-4.125H443.3l.3,3.7a7.982,7.982,0,0,1,2.3-3.07,5.133,5.133,0,0,1,3.258-1.1,8.372,8.372,0,0,1,1.137.082,6.964,6.964,0,0,1,1,.2l-.727,6.234-2.812-.07a4.793,4.793,0,0,0-2.484.586,3.787,3.787,0,0,0-1.5,1.664V-4.8l3.281.7V0H433.641Zm30.867-17.133-2.391.445,3.352,11.344.445,2.391h.141l.492-2.391,3.3-11.32-2.437-.469v-4.125h11.508v4.125l-2.2.352L469.242,0H462.7l-7.5-20.883-2.2-.352v-4.125h11.508ZM480.891-4.1l3.3-.7V-20.531l-3.656-.7v-4.125h10.5V-4.8l3.281.7V0h-13.43ZM491.039-31.43H484.2v-5.133h6.844ZM508.477-4.758a4.033,4.033,0,0,0,2.93-1.066,3.781,3.781,0,0,0,1.1-2.848H518.7l.07.141A7.911,7.911,0,0,1,515.883-2.1a10.88,10.88,0,0,1-7.406,2.59q-5.672,0-8.742-3.586a13.663,13.663,0,0,1-3.07-9.211v-.7a13.493,13.493,0,0,1,3.152-9.211q3.152-3.609,8.988-3.609a15.6,15.6,0,0,1,5.508.914,10.882,10.882,0,0,1,4.055,2.578l.094,6.773h-5.555l-1.125-3.961a4.323,4.323,0,0,0-1.266-.738,4.676,4.676,0,0,0-1.711-.293,4.321,4.321,0,0,0-4.1,2.109,10.949,10.949,0,0,0-1.2,5.438v.7a11.68,11.68,0,0,0,1.1,5.473A4,4,0,0,0,508.477-4.758ZM534,.492a11.418,11.418,0,0,1-8.766-3.516,12.571,12.571,0,0,1-3.281-8.93v-.937a13.872,13.872,0,0,1,3.105-9.3,10.309,10.309,0,0,1,8.332-3.633q5.133,0,7.969,3.094a11.9,11.9,0,0,1,2.836,8.367v3.727H529.055l-.047.141a6.619,6.619,0,0,0,1.676,4.125,5.224,5.224,0,0,0,4.043,1.617,13.167,13.167,0,0,0,3.773-.457,17.343,17.343,0,0,0,3.281-1.441l1.852,4.219a13.471,13.471,0,0,1-4.066,2.086A17.31,17.31,0,0,1,534,.492Zm-.609-21.047a3.563,3.563,0,0,0-3,1.453,7.566,7.566,0,0,0-1.359,3.82l.07.117h8.391v-.609a5.49,5.49,0,0,0-1.02-3.48A3.675,3.675,0,0,0,533.391-20.555Zm41.883-13.57q5.859,0,9.246,3.012a10.051,10.051,0,0,1,3.387,7.887,9.972,9.972,0,0,1-3.387,7.875q-3.387,2.977-9.246,2.977h-5.766V-4.8l3.656.7V0H559.031V-4.1l3.633-.7V-29.3l-3.633-.7v-4.125h16.242Zm-5.766,16.477h5.766a5.654,5.654,0,0,0,4.324-1.559,5.569,5.569,0,0,0,1.465-3.973,5.8,5.8,0,0,0-1.465-4.066,5.561,5.561,0,0,0-4.324-1.605h-5.766ZM602.086.492a11.418,11.418,0,0,1-8.766-3.516,12.571,12.571,0,0,1-3.281-8.93v-.937a13.872,13.872,0,0,1,3.105-9.3,10.309,10.309,0,0,1,8.332-3.633q5.133,0,7.969,3.094a11.9,11.9,0,0,1,2.836,8.367v3.727H597.141l-.047.141a6.619,6.619,0,0,0,1.676,4.125,5.224,5.224,0,0,0,4.043,1.617,13.167,13.167,0,0,0,3.773-.457,17.343,17.343,0,0,0,3.281-1.441l1.852,4.219a13.471,13.471,0,0,1-4.066,2.086A17.31,17.31,0,0,1,602.086.492Zm-.609-21.047a3.563,3.563,0,0,0-3,1.453,7.566,7.566,0,0,0-1.359,3.82l.07.117h8.391v-.609a5.49,5.49,0,0,0-1.02-3.48A3.675,3.675,0,0,0,601.477-20.555ZM616.031-4.1l3.281-.7V-20.531l-3.633-.7v-4.125h10.008l.3,3.7a7.982,7.982,0,0,1,2.3-3.07,5.133,5.133,0,0,1,3.258-1.1,8.372,8.372,0,0,1,1.137.082,6.964,6.964,0,0,1,1,.2l-.727,6.234-2.812-.07a4.793,4.793,0,0,0-2.484.586,3.787,3.787,0,0,0-1.5,1.664V-4.8l3.281.7V0H616.031Zm20.531,0,3.3-.7v-15.75h-3.773v-4.8h3.773v-2.812a8.576,8.576,0,0,1,2.461-6.574,9.716,9.716,0,0,1,6.914-2.309,12.5,12.5,0,0,1,1.77.129q.9.129,1.98.363l-.586,5.086q-.562-.094-1.09-.164a9.431,9.431,0,0,0-1.23-.07,3.286,3.286,0,0,0-2.52.914,3.7,3.7,0,0,0-.855,2.625v2.813h5.039v4.8h-5.039V-4.8l3.3.7V0H636.563Zm17.484-8.812a13.578,13.578,0,0,1,3.176-9.293A11.065,11.065,0,0,1,666-25.828a11.11,11.11,0,0,1,8.8,3.609,13.567,13.567,0,0,1,3.176,9.3v.492A13.557,13.557,0,0,1,674.8-3.105a11.072,11.072,0,0,1-8.754,3.6q-5.648,0-8.824-3.6a13.557,13.557,0,0,1-3.176-9.316Zm6.844.492a11.032,11.032,0,0,0,1.219,5.566,4.208,4.208,0,0,0,3.938,2.1,4.166,4.166,0,0,0,3.879-2.109,10.959,10.959,0,0,0,1.23-5.555v-.492a10.847,10.847,0,0,0-1.242-5.508A4.2,4.2,0,0,0,666-20.555a4.15,4.15,0,0,0-3.891,2.133,11.018,11.018,0,0,0-1.219,5.508ZM681.469-4.1l3.281-.7V-20.531l-3.633-.7v-4.125h10.008l.3,3.7a7.982,7.982,0,0,1,2.3-3.07,5.133,5.133,0,0,1,3.258-1.1,8.372,8.372,0,0,1,1.137.082,6.964,6.964,0,0,1,1,.2l-.727,6.234-2.812-.07a4.793,4.793,0,0,0-2.484.586,3.787,3.787,0,0,0-1.5,1.664V-4.8l3.281.7V0H681.469Zm18.891-17.133v-4.125h10.008l.281,3.352a8.519,8.519,0,0,1,3.059-2.824,8.8,8.8,0,0,1,4.254-1,7.747,7.747,0,0,1,4.172,1.078,6.651,6.651,0,0,1,2.625,3.258A8.79,8.79,0,0,1,727.8-24.68a8.268,8.268,0,0,1,4.406-1.148,7.309,7.309,0,0,1,5.918,2.59q2.168,2.59,2.168,7.887V-4.8l3.3.7V0H730.5V-4.1l2.953-.7v-10.57q0-2.883-.937-4.008a3.423,3.423,0,0,0-2.789-1.125,4.777,4.777,0,0,0-2.52.645,4.7,4.7,0,0,0-1.7,1.793q0,.445.023.762t.023.645V-4.8l2.766.7V0H715.969V-4.1l2.766-.7v-10.57a6.431,6.431,0,0,0-.937-3.973,3.4,3.4,0,0,0-2.812-1.16,5.308,5.308,0,0,0-2.426.527,4.652,4.652,0,0,0-1.723,1.488V-4.8l2.953.7V0H700.711V-4.1l3.3-.7V-20.531ZM761.953,0a12.377,12.377,0,0,1-.492-1.3,10.26,10.26,0,0,1-.328-1.348,9.415,9.415,0,0,1-2.965,2.273,8.868,8.868,0,0,1-4,.867,8.372,8.372,0,0,1-5.918-2.027,7.151,7.151,0,0,1-2.191-5.52,6.275,6.275,0,0,1,2.859-5.508q2.859-1.945,8.391-1.945H760.8v-2.484a3.736,3.736,0,0,0-1.055-2.836,4.349,4.349,0,0,0-3.117-1.008,7.382,7.382,0,0,0-2.086.27,5.458,5.458,0,0,0-1.477.645l-.445,2.719h-5.156l.023-5.625a19.206,19.206,0,0,1,4.3-2.133,15.594,15.594,0,0,1,5.285-.867,12.033,12.033,0,0,1,7.652,2.309,7.869,7.869,0,0,1,2.941,6.574V-6.469q0,.586.012,1.1a7.837,7.837,0,0,0,.082.984l2.086.281V0Zm-5.93-4.57a5.932,5.932,0,0,0,2.813-.668A5.431,5.431,0,0,0,760.8-6.914v-3.867h-3.492a4.769,4.769,0,0,0-3.3,1.02,3.192,3.192,0,0,0-1.125,2.449,2.535,2.535,0,0,0,.832,2.016A3.394,3.394,0,0,0,756.023-4.57ZM771.8-4.1l3.281-.7V-20.531l-3.633-.7v-4.125h10.008l.3,3.633a9.275,9.275,0,0,1,3.117-3.023,8.092,8.092,0,0,1,4.148-1.078,7.63,7.63,0,0,1,6,2.414q2.156,2.414,2.156,7.57V-4.8l3.281.7V0H787.383V-4.1l2.93-.7V-15.82a5.13,5.13,0,0,0-1.031-3.621,4.151,4.151,0,0,0-3.117-1.066,5.281,5.281,0,0,0-2.437.551,5.01,5.01,0,0,0-1.8,1.559V-4.8l2.766.7V0H771.8Zm42.516-.656a4.033,4.033,0,0,0,2.93-1.066,3.781,3.781,0,0,0,1.1-2.848h6.188l.07.141A7.911,7.911,0,0,1,821.719-2.1a10.88,10.88,0,0,1-7.406,2.59q-5.672,0-8.742-3.586A13.663,13.663,0,0,1,802.5-12.3v-.7a13.493,13.493,0,0,1,3.152-9.211q3.152-3.609,8.988-3.609a15.6,15.6,0,0,1,5.508.914,10.882,10.882,0,0,1,4.055,2.578l.094,6.773h-5.555l-1.125-3.961a4.323,4.323,0,0,0-1.266-.738,4.676,4.676,0,0,0-1.711-.293,4.321,4.321,0,0,0-4.1,2.109,10.949,10.949,0,0,0-1.2,5.438v.7a11.68,11.68,0,0,0,1.1,5.473A4,4,0,0,0,814.313-4.758ZM839.836.492a11.418,11.418,0,0,1-8.766-3.516,12.571,12.571,0,0,1-3.281-8.93v-.937a13.872,13.872,0,0,1,3.105-9.3,10.309,10.309,0,0,1,8.332-3.633q5.133,0,7.969,3.094a11.9,11.9,0,0,1,2.836,8.367v3.727H834.891l-.047.141a6.619,6.619,0,0,0,1.676,4.125,5.224,5.224,0,0,0,4.043,1.617,13.167,13.167,0,0,0,3.773-.457,17.343,17.343,0,0,0,3.281-1.441l1.852,4.219A13.471,13.471,0,0,1,845.4-.352,17.31,17.31,0,0,1,839.836.492Zm-.609-21.047a3.563,3.563,0,0,0-3,1.453,7.566,7.566,0,0,0-1.359,3.82l.07.117h8.391v-.609a5.49,5.49,0,0,0-1.02-3.48A3.675,3.675,0,0,0,839.227-20.555Z" transform="translate(123 1183)"/>
  <g id="Group_475" data-name="Group 475" transform="translate(-727 1111)">
    <g id="Ellipse_138" data-name="Ellipse 138" class="cls-8" transform="translate(849.984 102.985)">
      <circle class="cls-11" cx="9.507" cy="9.507" r="9.507"/>
      <circle class="cls-9" cx="9.507" cy="9.507" r="7.007"/>
    </g>
    <circle id="Ellipse_139" data-name="Ellipse 139" class="cls-9" cx="5.282" cy="5.282" r="5.282" transform="translate(854.211 107.21)"/>
  </g>
  <g id="Group_476" data-name="Group 476" transform="translate(-727 1148)">
    <g id="Ellipse_138-2" data-name="Ellipse 138" class="cls-8" transform="translate(849.984 102.985)">
      <circle class="cls-11" cx="9.507" cy="9.507" r="9.507"/>
      <circle class="cls-9" cx="9.507" cy="9.507" r="7.007"/>
    </g>
    <circle id="Ellipse_139-2" data-name="Ellipse 139" class="cls-9" cx="5.282" cy="5.282" r="5.282" transform="translate(854.211 107.21)"/>
  </g>
  <g id="Group_477" data-name="Group 477" transform="translate(-453 1111)">
    <g id="Ellipse_138-3" data-name="Ellipse 138" class="cls-10" transform="translate(849.984 102.985)">
      <circle class="cls-11" cx="9.507" cy="9.507" r="9.507"/>
      <circle class="cls-9" cx="9.507" cy="9.507" r="7.007"/>
    </g>
    <circle id="Ellipse_139-3" data-name="Ellipse 139" class="cls-9" cx="5.282" cy="5.282" r="5.282" transform="translate(854.211 107.21)"/>
  </g>
  <g id="Group_478" data-name="Group 478" transform="translate(-543 1148)">
    <g id="Ellipse_138-4" data-name="Ellipse 138" class="cls-10" transform="translate(849.984 102.985)">
      <circle class="cls-11" cx="9.507" cy="9.507" r="9.507"/>
      <circle class="cls-9" cx="9.507" cy="9.507" r="7.007"/>
    </g>
    <circle id="Ellipse_139-4" data-name="Ellipse 139" class="cls-9" cx="5.282" cy="5.282" r="5.282" transform="translate(854.211 107.21)"/>
  </g>
  <path id="Path_635" data-name="Path 635" class="cls-7" d="M12.353-4.824H4.608L2.869,0H.355L7.414-18.484H9.547L16.618,0h-2.5ZM5.345-6.83h6.284L8.48-15.476Zm18.9,5.167a3.383,3.383,0,0,0,2.2-.762,2.68,2.68,0,0,0,1.041-1.9h2.222a4.259,4.259,0,0,1-.812,2.247,5.351,5.351,0,0,1-2,1.7,5.769,5.769,0,0,1-2.647.635,5.659,5.659,0,0,1-4.462-1.873,7.458,7.458,0,0,1-1.657-5.123v-.394a8.27,8.27,0,0,1,.736-3.567,5.608,5.608,0,0,1,2.114-2.425,6,6,0,0,1,3.256-.863,5.509,5.509,0,0,1,3.84,1.384,4.945,4.945,0,0,1,1.631,3.593H27.485a3.237,3.237,0,0,0-1.009-2.19,3.14,3.14,0,0,0-2.241-.857,3.287,3.287,0,0,0-2.774,1.289,6.052,6.052,0,0,0-.984,3.726V-6.6a5.931,5.931,0,0,0,.978,3.656A3.3,3.3,0,0,0,24.248-1.663Zm11.286-15.4v3.326H38.1v1.815H35.534V-3.4a1.9,1.9,0,0,0,.343,1.238,1.444,1.444,0,0,0,1.168.413A5.686,5.686,0,0,0,38.162-1.9V0a6.809,6.809,0,0,1-1.8.254A2.925,2.925,0,0,1,33.985-.7a4.09,4.09,0,0,1-.8-2.7v-8.519h-2.5v-1.815h2.5v-3.326Zm13.787,15.7A4.989,4.989,0,0,1,45.3.254a4.27,4.27,0,0,1-3.345-1.276A5.523,5.523,0,0,1,40.79-4.8v-8.937h2.349v8.874q0,3.123,2.539,3.123a3.516,3.516,0,0,0,3.58-2.006v-9.991h2.349V0H49.372ZM63.654,0a4.934,4.934,0,0,1-.33-1.447,5.24,5.24,0,0,1-3.91,1.7A4.849,4.849,0,0,1,56.082-.9a3.717,3.717,0,0,1-1.3-2.914,3.883,3.883,0,0,1,1.631-3.333A7.691,7.691,0,0,1,61-8.328h2.285V-9.407a2.638,2.638,0,0,0-.736-1.961,2.959,2.959,0,0,0-2.171-.73,3.425,3.425,0,0,0-2.107.635,1.87,1.87,0,0,0-.851,1.536H55.06a3.241,3.241,0,0,1,.73-1.987,4.982,4.982,0,0,1,1.98-1.517,6.663,6.663,0,0,1,2.749-.559,5.43,5.43,0,0,1,3.72,1.187,4.282,4.282,0,0,1,1.4,3.269v6.322A7.73,7.73,0,0,0,66.117-.2V0Zm-3.9-1.79a4.128,4.128,0,0,0,2.095-.571,3.456,3.456,0,0,0,1.435-1.485V-6.665H61.445q-4.316,0-4.316,2.526a2.138,2.138,0,0,0,.736,1.727A2.83,2.83,0,0,0,59.757-1.79ZM71.868,0H69.52V-19.5h2.349ZM82.431,0V-18.484h5.218a8.4,8.4,0,0,1,4.266,1.066,7.212,7.212,0,0,1,2.863,3.034A9.876,9.876,0,0,1,95.8-9.864v1.181A9.911,9.911,0,0,1,94.79-4.1a7.1,7.1,0,0,1-2.882,3.021A8.935,8.935,0,0,1,87.547,0Zm2.438-16.479V-1.993h2.564a5.582,5.582,0,0,0,4.386-1.752,7.234,7.234,0,0,0,1.568-4.989V-9.813a7.349,7.349,0,0,0-1.479-4.894,5.265,5.265,0,0,0-4.2-1.771ZM104.813.254a6,6,0,0,1-4.545-1.834,6.809,6.809,0,0,1-1.752-4.907v-.432a8.243,8.243,0,0,1,.781-3.65,6.091,6.091,0,0,1,2.184-2.514,5.49,5.49,0,0,1,3.041-.908,5.144,5.144,0,0,1,4.164,1.765,7.64,7.64,0,0,1,1.485,5.053V-6.2h-9.306a4.883,4.883,0,0,0,1.187,3.282,3.731,3.731,0,0,0,2.888,1.25,4.091,4.091,0,0,0,2.107-.508,5.3,5.3,0,0,0,1.511-1.346L109.992-2.4A5.768,5.768,0,0,1,104.813.254Zm-.292-12.314a3.133,3.133,0,0,0-2.387,1.035,5.029,5.029,0,0,0-1.193,2.9h6.881V-8.3a4.473,4.473,0,0,0-.965-2.774A2.949,2.949,0,0,0,104.521-12.061ZM115.438,0H113.09V-19.5h2.349Zm6.31,0H119.4V-13.736h2.349Zm-2.539-17.38a1.4,1.4,0,0,1,.349-.965,1.311,1.311,0,0,1,1.035-.394,1.331,1.331,0,0,1,1.041.394,1.387,1.387,0,0,1,.355.965,1.342,1.342,0,0,1-.355.952,1.355,1.355,0,0,1-1.041.381,1.334,1.334,0,0,1-1.035-.381A1.356,1.356,0,0,1,119.209-17.38ZM130.038-3.187l3.4-10.55h2.4L130.914,0h-1.79l-4.977-13.736h2.4ZM143.8.254a6,6,0,0,1-4.545-1.834A6.809,6.809,0,0,1,137.5-6.487v-.432a8.243,8.243,0,0,1,.781-3.65,6.09,6.09,0,0,1,2.184-2.514,5.49,5.49,0,0,1,3.041-.908,5.144,5.144,0,0,1,4.164,1.765,7.64,7.64,0,0,1,1.485,5.053V-6.2h-9.306a4.883,4.883,0,0,0,1.187,3.282,3.731,3.731,0,0,0,2.888,1.25,4.091,4.091,0,0,0,2.107-.508,5.3,5.3,0,0,0,1.511-1.346L148.979-2.4A5.768,5.768,0,0,1,143.8.254Zm-.292-12.314a3.133,3.133,0,0,0-2.387,1.035,5.029,5.029,0,0,0-1.193,2.9h6.881V-8.3a4.473,4.473,0,0,0-.965-2.774A2.949,2.949,0,0,0,143.508-12.061Zm15.006.432a7.038,7.038,0,0,0-1.155-.089,3.1,3.1,0,0,0-3.136,1.968V0h-2.349V-13.736h2.285l.038,1.587a3.657,3.657,0,0,1,3.275-1.841,2.4,2.4,0,0,1,1.041.178Zm6.652,8.188,3.2-10.3h2.514L165.356,2.12q-1.282,3.428-4.075,3.428l-.444-.038-.876-.165V3.44l.635.051a3.125,3.125,0,0,0,1.86-.482,3.491,3.491,0,0,0,1.1-1.765l.521-1.4-4.9-13.584h2.564ZM179.778,0V-18.484H185a8.4,8.4,0,0,1,4.266,1.066,7.212,7.212,0,0,1,2.863,3.034,9.876,9.876,0,0,1,1.022,4.52v1.181A9.911,9.911,0,0,1,192.137-4.1a7.1,7.1,0,0,1-2.882,3.021A8.935,8.935,0,0,1,184.895,0Zm2.438-16.479V-1.993h2.564a5.582,5.582,0,0,0,4.386-1.752,7.234,7.234,0,0,0,1.568-4.989V-9.813a7.349,7.349,0,0,0-1.479-4.894,5.265,5.265,0,0,0-4.2-1.771ZM204.94,0a4.934,4.934,0,0,1-.33-1.447,5.24,5.24,0,0,1-3.91,1.7A4.849,4.849,0,0,1,197.368-.9a3.717,3.717,0,0,1-1.3-2.914A3.883,3.883,0,0,1,197.7-7.141a7.691,7.691,0,0,1,4.589-1.187h2.285V-9.407a2.638,2.638,0,0,0-.736-1.961,2.959,2.959,0,0,0-2.171-.73,3.425,3.425,0,0,0-2.107.635,1.87,1.87,0,0,0-.851,1.536h-2.361a3.241,3.241,0,0,1,.73-1.987,4.982,4.982,0,0,1,1.98-1.517,6.663,6.663,0,0,1,2.749-.559,5.43,5.43,0,0,1,3.72,1.187,4.282,4.282,0,0,1,1.4,3.269v6.322A7.73,7.73,0,0,0,207.4-.2V0Zm-3.9-1.79a4.128,4.128,0,0,0,2.095-.571,3.456,3.456,0,0,0,1.435-1.485V-6.665h-1.841q-4.316,0-4.316,2.526a2.138,2.138,0,0,0,.736,1.727A2.83,2.83,0,0,0,201.043-1.79Zm12.746-15.272v3.326h2.564v1.815h-2.564V-3.4a1.9,1.9,0,0,0,.343,1.238,1.444,1.444,0,0,0,1.168.413,5.686,5.686,0,0,0,1.117-.152V0a6.809,6.809,0,0,1-1.8.254A2.925,2.925,0,0,1,212.24-.7a4.09,4.09,0,0,1-.8-2.7v-8.519h-2.5v-1.815h2.5v-3.326ZM224.8.254a6,6,0,0,1-4.545-1.834A6.809,6.809,0,0,1,218.5-6.487v-.432a8.243,8.243,0,0,1,.781-3.65,6.09,6.09,0,0,1,2.184-2.514,5.49,5.49,0,0,1,3.041-.908,5.144,5.144,0,0,1,4.164,1.765,7.64,7.64,0,0,1,1.485,5.053V-6.2h-9.306a4.883,4.883,0,0,0,1.187,3.282,3.731,3.731,0,0,0,2.888,1.25,4.091,4.091,0,0,0,2.107-.508,5.3,5.3,0,0,0,1.511-1.346L229.976-2.4A5.768,5.768,0,0,1,224.8.254ZM224.5-12.061a3.133,3.133,0,0,0-2.387,1.035,5.029,5.029,0,0,0-1.193,2.9H227.8V-8.3a4.473,4.473,0,0,0-.965-2.774A2.949,2.949,0,0,0,224.5-12.061Z" transform="translate(147 1233)"/>
  <path id="Path_636" data-name="Path 636" class="cls-7" d="M7.592-8.239a11.462,11.462,0,0,1-4.564-2.215A4.233,4.233,0,0,1,1.6-13.7,4.471,4.471,0,0,1,3.345-17.31a6.938,6.938,0,0,1,4.539-1.428,7.573,7.573,0,0,1,3.4.736,5.584,5.584,0,0,1,2.311,2.031,5.194,5.194,0,0,1,.819,2.831h-2.45a3.362,3.362,0,0,0-1.066-2.634,4.346,4.346,0,0,0-3.009-.958,4.446,4.446,0,0,0-2.812.793,2.645,2.645,0,0,0-1.009,2.2,2.38,2.38,0,0,0,.958,1.911A9.409,9.409,0,0,0,8.284-10.4a15.109,15.109,0,0,1,3.605,1.428,5.471,5.471,0,0,1,1.93,1.822,4.65,4.65,0,0,1,.628,2.45A4.319,4.319,0,0,1,12.7-1.1,7.47,7.47,0,0,1,8.011.254a8.688,8.688,0,0,1-3.555-.73,5.982,5.982,0,0,1-2.545-2,4.88,4.88,0,0,1-.9-2.882h2.45A3.184,3.184,0,0,0,4.7-2.71a5.212,5.212,0,0,0,3.307.971,4.791,4.791,0,0,0,2.958-.787A2.557,2.557,0,0,0,12-4.672a2.51,2.51,0,0,0-.952-2.1A10.977,10.977,0,0,0,7.592-8.239Zm12.8-8.823v3.326h2.564v1.815H20.389V-3.4a1.9,1.9,0,0,0,.343,1.238,1.444,1.444,0,0,0,1.168.413A5.686,5.686,0,0,0,23.017-1.9V0a6.809,6.809,0,0,1-1.8.254A2.925,2.925,0,0,1,18.84-.7a4.09,4.09,0,0,1-.8-2.7v-8.519h-2.5v-1.815h2.5v-3.326ZM34.176,0a4.934,4.934,0,0,1-.33-1.447,5.24,5.24,0,0,1-3.91,1.7A4.849,4.849,0,0,1,26.6-.9a3.717,3.717,0,0,1-1.3-2.914,3.883,3.883,0,0,1,1.631-3.333,7.691,7.691,0,0,1,4.589-1.187h2.285V-9.407a2.638,2.638,0,0,0-.736-1.961A2.959,2.959,0,0,0,30.9-12.1a3.425,3.425,0,0,0-2.107.635,1.87,1.87,0,0,0-.851,1.536H25.581a3.241,3.241,0,0,1,.73-1.987,4.982,4.982,0,0,1,1.98-1.517,6.663,6.663,0,0,1,2.749-.559A5.43,5.43,0,0,1,34.76-12.8a4.282,4.282,0,0,1,1.4,3.269v6.322A7.73,7.73,0,0,0,36.639-.2V0Zm-3.9-1.79a4.128,4.128,0,0,0,2.095-.571,3.456,3.456,0,0,0,1.435-1.485V-6.665H31.967q-4.316,0-4.316,2.526a2.138,2.138,0,0,0,.736,1.727A2.83,2.83,0,0,0,30.278-1.79Zm16.2-9.839a7.038,7.038,0,0,0-1.155-.089A3.1,3.1,0,0,0,42.187-9.75V0H39.838V-13.736h2.285l.038,1.587a3.657,3.657,0,0,1,3.275-1.841,2.4,2.4,0,0,1,1.041.178Zm5.979-5.434v3.326h2.564v1.815H52.457V-3.4A1.9,1.9,0,0,0,52.8-2.165a1.444,1.444,0,0,0,1.168.413A5.686,5.686,0,0,0,55.085-1.9V0a6.809,6.809,0,0,1-1.8.254A2.925,2.925,0,0,1,50.908-.7a4.09,4.09,0,0,1-.8-2.7v-8.519h-2.5v-1.815h2.5v-3.326Zm24.375.584H70.891V0H68.466V-16.479H62.537v-2.006H76.832Zm4.723,4.405a4.993,4.993,0,0,1,4.063-1.917q4.354,0,4.393,4.913V0H87.661V-9.09a3.162,3.162,0,0,0-.679-2.2A2.722,2.722,0,0,0,84.906-12a3.39,3.39,0,0,0-2.006.609,4.138,4.138,0,0,0-1.346,1.6V0H79.206V-19.5h2.349ZM99.227.254a6,6,0,0,1-4.545-1.834A6.809,6.809,0,0,1,92.93-6.487v-.432a8.243,8.243,0,0,1,.781-3.65,6.091,6.091,0,0,1,2.184-2.514,5.49,5.49,0,0,1,3.041-.908,5.144,5.144,0,0,1,4.164,1.765,7.64,7.64,0,0,1,1.485,5.053V-6.2H95.278a4.883,4.883,0,0,0,1.187,3.282,3.731,3.731,0,0,0,2.888,1.25,4.091,4.091,0,0,0,2.107-.508,5.3,5.3,0,0,0,1.511-1.346L104.406-2.4A5.768,5.768,0,0,1,99.227.254Zm-.292-12.314a3.133,3.133,0,0,0-2.387,1.035,5.029,5.029,0,0,0-1.193,2.9h6.881V-8.3a4.473,4.473,0,0,0-.965-2.774A2.949,2.949,0,0,0,98.935-12.061Zm28.768,6.2a6.8,6.8,0,0,1-2.165,4.526A7.094,7.094,0,0,1,120.694.254a6.514,6.514,0,0,1-5.25-2.349,9.449,9.449,0,0,1-1.974-6.284v-1.777a10.532,10.532,0,0,1,.92-4.532,6.875,6.875,0,0,1,2.609-3,7.264,7.264,0,0,1,3.91-1.047,6.679,6.679,0,0,1,4.723,1.644,6.882,6.882,0,0,1,2.069,4.551h-2.45a5.287,5.287,0,0,0-1.377-3.2,4.175,4.175,0,0,0-2.964-.99,4.362,4.362,0,0,0-3.663,1.727,7.921,7.921,0,0,0-1.327,4.913V-8.3a8.142,8.142,0,0,0,1.257,4.786,4.062,4.062,0,0,0,3.517,1.777,4.691,4.691,0,0,0,3.117-.92,5.108,5.108,0,0,0,1.441-3.206ZM133.212,0h-2.349V-19.5h2.349Zm3.136-7a8.113,8.113,0,0,1,.793-3.631,5.919,5.919,0,0,1,2.209-2.488,6.013,6.013,0,0,1,3.231-.876,5.793,5.793,0,0,1,4.539,1.942,7.473,7.473,0,0,1,1.733,5.167v.165a8.184,8.184,0,0,1-.768,3.6,5.832,5.832,0,0,1-2.2,2.482,6.082,6.082,0,0,1-3.282.889,5.778,5.778,0,0,1-4.526-1.942,7.435,7.435,0,0,1-1.733-5.142Zm2.361.279a5.876,5.876,0,0,0,1.06,3.669,3.393,3.393,0,0,0,2.837,1.384,3.372,3.372,0,0,0,2.844-1.4A6.426,6.426,0,0,0,146.5-7a5.866,5.866,0,0,0-1.073-3.663,3.41,3.41,0,0,0-2.85-1.4,3.373,3.373,0,0,0-2.806,1.384A6.378,6.378,0,0,0,138.709-6.716Zm18.6,5.053a3.383,3.383,0,0,0,2.2-.762,2.68,2.68,0,0,0,1.041-1.9h2.222a4.259,4.259,0,0,1-.812,2.247,5.351,5.351,0,0,1-2,1.7,5.769,5.769,0,0,1-2.647.635,5.659,5.659,0,0,1-4.462-1.873,7.458,7.458,0,0,1-1.657-5.123v-.394a8.27,8.27,0,0,1,.736-3.567,5.608,5.608,0,0,1,2.114-2.425,6,6,0,0,1,3.256-.863,5.509,5.509,0,0,1,3.84,1.384,4.945,4.945,0,0,1,1.631,3.593h-2.222a3.237,3.237,0,0,0-1.009-2.19,3.14,3.14,0,0,0-2.241-.857,3.287,3.287,0,0,0-2.774,1.289,6.052,6.052,0,0,0-.984,3.726V-6.6a5.931,5.931,0,0,0,.978,3.656A3.3,3.3,0,0,0,157.308-1.663Zm11.934-4.7-1.473,1.536V0H165.42V-19.5h2.349V-7.706l1.257-1.511,4.278-4.52h2.856L170.815-8l5.967,8h-2.755ZM185.39,0V-18.484h5.218a8.4,8.4,0,0,1,4.266,1.066,7.212,7.212,0,0,1,2.863,3.034,9.876,9.876,0,0,1,1.022,4.52v1.181A9.911,9.911,0,0,1,197.749-4.1a7.1,7.1,0,0,1-2.882,3.021A8.935,8.935,0,0,1,190.506,0Zm2.438-16.479V-1.993h2.564a5.582,5.582,0,0,0,4.386-1.752,7.234,7.234,0,0,0,1.568-4.989V-9.813a7.349,7.349,0,0,0-1.479-4.894,5.265,5.265,0,0,0-4.2-1.771ZM210.552,0a4.934,4.934,0,0,1-.33-1.447,5.24,5.24,0,0,1-3.91,1.7A4.849,4.849,0,0,1,202.979-.9a3.717,3.717,0,0,1-1.3-2.914,3.883,3.883,0,0,1,1.631-3.333A7.691,7.691,0,0,1,207.9-8.328h2.285V-9.407a2.638,2.638,0,0,0-.736-1.961,2.959,2.959,0,0,0-2.171-.73,3.425,3.425,0,0,0-2.107.635,1.87,1.87,0,0,0-.851,1.536h-2.361a3.241,3.241,0,0,1,.73-1.987,4.982,4.982,0,0,1,1.98-1.517,6.663,6.663,0,0,1,2.749-.559,5.43,5.43,0,0,1,3.72,1.187,4.282,4.282,0,0,1,1.4,3.269v6.322A7.73,7.73,0,0,0,213.015-.2V0Zm-3.9-1.79a4.128,4.128,0,0,0,2.095-.571,3.456,3.456,0,0,0,1.435-1.485V-6.665h-1.841q-4.316,0-4.316,2.526a2.138,2.138,0,0,0,.736,1.727A2.83,2.83,0,0,0,206.654-1.79ZM219.4-17.062v3.326h2.564v1.815H219.4V-3.4a1.9,1.9,0,0,0,.343,1.238,1.444,1.444,0,0,0,1.168.413,5.686,5.686,0,0,0,1.117-.152V0a6.809,6.809,0,0,1-1.8.254A2.925,2.925,0,0,1,217.852-.7a4.09,4.09,0,0,1-.8-2.7v-8.519h-2.5v-1.815h2.5v-3.326ZM230.407.254a6,6,0,0,1-4.545-1.834,6.809,6.809,0,0,1-1.752-4.907v-.432a8.243,8.243,0,0,1,.781-3.65,6.09,6.09,0,0,1,2.184-2.514,5.49,5.49,0,0,1,3.041-.908,5.144,5.144,0,0,1,4.164,1.765,7.64,7.64,0,0,1,1.485,5.053V-6.2h-9.306a4.883,4.883,0,0,0,1.187,3.282,3.731,3.731,0,0,0,2.888,1.25,4.091,4.091,0,0,0,2.107-.508,5.3,5.3,0,0,0,1.511-1.346L235.587-2.4A5.768,5.768,0,0,1,230.407.254Zm-.292-12.314a3.133,3.133,0,0,0-2.387,1.035,5.029,5.029,0,0,0-1.193,2.9h6.881V-8.3a4.473,4.473,0,0,0-.965-2.774A2.949,2.949,0,0,0,230.115-12.061Z" transform="translate(421 1236)"/>
  <path id="Path_637" data-name="Path 637" class="cls-7" d="M7.592-8.239a11.462,11.462,0,0,1-4.564-2.215A4.233,4.233,0,0,1,1.6-13.7,4.471,4.471,0,0,1,3.345-17.31a6.938,6.938,0,0,1,4.539-1.428,7.573,7.573,0,0,1,3.4.736,5.584,5.584,0,0,1,2.311,2.031,5.194,5.194,0,0,1,.819,2.831h-2.45a3.362,3.362,0,0,0-1.066-2.634,4.346,4.346,0,0,0-3.009-.958,4.446,4.446,0,0,0-2.812.793,2.645,2.645,0,0,0-1.009,2.2,2.38,2.38,0,0,0,.958,1.911A9.409,9.409,0,0,0,8.284-10.4a15.109,15.109,0,0,1,3.605,1.428,5.471,5.471,0,0,1,1.93,1.822,4.65,4.65,0,0,1,.628,2.45A4.319,4.319,0,0,1,12.7-1.1,7.47,7.47,0,0,1,8.011.254a8.688,8.688,0,0,1-3.555-.73,5.982,5.982,0,0,1-2.545-2,4.88,4.88,0,0,1-.9-2.882h2.45A3.184,3.184,0,0,0,4.7-2.71a5.212,5.212,0,0,0,3.307.971,4.791,4.791,0,0,0,2.958-.787A2.557,2.557,0,0,0,12-4.672a2.51,2.51,0,0,0-.952-2.1A10.977,10.977,0,0,0,7.592-8.239ZM19.754,0H17.405V-13.736h2.349ZM17.215-17.38a1.4,1.4,0,0,1,.349-.965,1.311,1.311,0,0,1,1.035-.394,1.331,1.331,0,0,1,1.041.394A1.387,1.387,0,0,1,20-17.38a1.342,1.342,0,0,1-.355.952,1.355,1.355,0,0,1-1.041.381,1.334,1.334,0,0,1-1.035-.381A1.356,1.356,0,0,1,17.215-17.38Zm8.519,3.644.076,1.727a5.006,5.006,0,0,1,4.113-1.98q4.354,0,4.393,4.913V0H31.967V-9.09a3.162,3.162,0,0,0-.679-2.2A2.722,2.722,0,0,0,29.212-12a3.39,3.39,0,0,0-2.006.609,4.138,4.138,0,0,0-1.346,1.6V0H23.512V-13.736ZM37.3-6.982a8.073,8.073,0,0,1,1.485-5.11,4.75,4.75,0,0,1,3.936-1.9,4.725,4.725,0,0,1,3.923,1.777l.114-1.523H48.9V-.33a5.588,5.588,0,0,1-1.581,4.2,5.833,5.833,0,0,1-4.247,1.536,7.065,7.065,0,0,1-2.907-.635A5,5,0,0,1,38,3.034l1.219-1.409A4.593,4.593,0,0,0,42.91,3.491a3.6,3.6,0,0,0,2.672-.965A3.688,3.688,0,0,0,46.541-.19V-1.371A4.827,4.827,0,0,1,42.694.254a4.692,4.692,0,0,1-3.9-1.942A8.488,8.488,0,0,1,37.3-6.982Zm2.361.267a6.159,6.159,0,0,0,.952,3.65,3.094,3.094,0,0,0,2.666,1.327,3.44,3.44,0,0,0,3.263-2.019v-6.271A3.481,3.481,0,0,0,43.3-12a3.122,3.122,0,0,0-2.679,1.333A6.708,6.708,0,0,0,39.66-6.716ZM55,0H52.647V-19.5H55Zm9.458.254a6,6,0,0,1-4.545-1.834,6.809,6.809,0,0,1-1.752-4.907v-.432a8.243,8.243,0,0,1,.781-3.65,6.091,6.091,0,0,1,2.184-2.514,5.49,5.49,0,0,1,3.041-.908,5.144,5.144,0,0,1,4.164,1.765,7.64,7.64,0,0,1,1.485,5.053V-6.2H60.506a4.883,4.883,0,0,0,1.187,3.282,3.731,3.731,0,0,0,2.888,1.25,4.091,4.091,0,0,0,2.107-.508A5.3,5.3,0,0,0,68.2-3.517L69.634-2.4A5.768,5.768,0,0,1,64.454.254Zm-.292-12.314a3.133,3.133,0,0,0-2.387,1.035,5.029,5.029,0,0,0-1.193,2.9h6.881V-8.3a4.473,4.473,0,0,0-.965-2.774A2.949,2.949,0,0,0,64.162-12.061ZM77.416-6.894h-6.2V-8.811h6.2Zm5.091-.343V0H80.069V-18.484h6.817a6.849,6.849,0,0,1,4.754,1.549,5.251,5.251,0,0,1,1.72,4.1A5.181,5.181,0,0,1,91.679-8.69a7.155,7.155,0,0,1-4.818,1.454Zm0-1.993h4.38a4.384,4.384,0,0,0,3-.92,3.362,3.362,0,0,0,1.041-2.66,3.474,3.474,0,0,0-1.041-2.641,4.107,4.107,0,0,0-2.856-1.028h-4.52ZM98.655,0H96.307V-13.736h2.349ZM96.116-17.38a1.4,1.4,0,0,1,.349-.965,1.311,1.311,0,0,1,1.035-.394,1.331,1.331,0,0,1,1.041.394,1.387,1.387,0,0,1,.355.965,1.342,1.342,0,0,1-.355.952,1.355,1.355,0,0,1-1.041.381,1.334,1.334,0,0,1-1.035-.381A1.356,1.356,0,0,1,96.116-17.38Zm12,17.634a6,6,0,0,1-4.545-1.834,6.809,6.809,0,0,1-1.752-4.907v-.432a8.243,8.243,0,0,1,.781-3.65,6.091,6.091,0,0,1,2.184-2.514,5.49,5.49,0,0,1,3.041-.908,5.144,5.144,0,0,1,4.164,1.765,7.64,7.64,0,0,1,1.485,5.053V-6.2h-9.306a4.883,4.883,0,0,0,1.187,3.282,3.731,3.731,0,0,0,2.888,1.25,4.091,4.091,0,0,0,2.107-.508,5.3,5.3,0,0,0,1.511-1.346L113.293-2.4A5.768,5.768,0,0,1,108.113.254Zm-.292-12.314a3.133,3.133,0,0,0-2.387,1.035,5.029,5.029,0,0,0-1.193,2.9h6.881V-8.3a4.473,4.473,0,0,0-.965-2.774A2.949,2.949,0,0,0,107.821-12.061ZM121.7-1.663a3.383,3.383,0,0,0,2.2-.762,2.68,2.68,0,0,0,1.041-1.9h2.222a4.259,4.259,0,0,1-.812,2.247,5.351,5.351,0,0,1-2,1.7A5.769,5.769,0,0,1,121.7.254a5.659,5.659,0,0,1-4.462-1.873,7.458,7.458,0,0,1-1.657-5.123v-.394a8.27,8.27,0,0,1,.736-3.567,5.608,5.608,0,0,1,2.114-2.425,6,6,0,0,1,3.256-.863,5.509,5.509,0,0,1,3.84,1.384,4.945,4.945,0,0,1,1.631,3.593h-2.222a3.237,3.237,0,0,0-1.009-2.19,3.14,3.14,0,0,0-2.241-.857,3.287,3.287,0,0,0-2.774,1.289,6.052,6.052,0,0,0-.984,3.726V-6.6a5.931,5.931,0,0,0,.978,3.656A3.3,3.3,0,0,0,121.7-1.663ZM135.5.254a6,6,0,0,1-4.545-1.834A6.809,6.809,0,0,1,129.2-6.487v-.432a8.243,8.243,0,0,1,.781-3.65,6.09,6.09,0,0,1,2.184-2.514,5.49,5.49,0,0,1,3.041-.908,5.144,5.144,0,0,1,4.164,1.765,7.64,7.64,0,0,1,1.485,5.053V-6.2h-9.306a4.883,4.883,0,0,0,1.187,3.282,3.731,3.731,0,0,0,2.888,1.25,4.091,4.091,0,0,0,2.107-.508,5.3,5.3,0,0,0,1.511-1.346L140.677-2.4A5.768,5.768,0,0,1,135.5.254Zm-.292-12.314a3.133,3.133,0,0,0-2.387,1.035,5.029,5.029,0,0,0-1.193,2.9h6.881V-8.3a4.473,4.473,0,0,0-.965-2.774A2.949,2.949,0,0,0,135.205-12.061Z" transform="translate(326 1270)"/>
  <path id="Path_638" data-name="Path 638" class="cls-7" d="M15.742-5.865a6.8,6.8,0,0,1-2.165,4.526A7.094,7.094,0,0,1,8.734.254a6.514,6.514,0,0,1-5.25-2.349A9.449,9.449,0,0,1,1.511-8.379v-1.777a10.532,10.532,0,0,1,.92-4.532,6.875,6.875,0,0,1,2.609-3,7.264,7.264,0,0,1,3.91-1.047,6.679,6.679,0,0,1,4.723,1.644,6.882,6.882,0,0,1,2.069,4.551h-2.45a5.287,5.287,0,0,0-1.377-3.2,4.175,4.175,0,0,0-2.964-.99,4.362,4.362,0,0,0-3.663,1.727,7.921,7.921,0,0,0-1.327,4.913V-8.3A8.142,8.142,0,0,0,5.218-3.517,4.062,4.062,0,0,0,8.734-1.739a4.691,4.691,0,0,0,3.117-.92,5.108,5.108,0,0,0,1.441-3.206ZM18.078-7a8.113,8.113,0,0,1,.793-3.631,5.919,5.919,0,0,1,2.209-2.488,6.013,6.013,0,0,1,3.231-.876,5.793,5.793,0,0,1,4.539,1.942,7.473,7.473,0,0,1,1.733,5.167v.165a8.184,8.184,0,0,1-.768,3.6,5.832,5.832,0,0,1-2.2,2.482,6.082,6.082,0,0,1-3.282.889,5.778,5.778,0,0,1-4.526-1.942A7.435,7.435,0,0,1,18.078-6.83Zm2.361.279A5.877,5.877,0,0,0,21.5-3.047a3.393,3.393,0,0,0,2.837,1.384,3.372,3.372,0,0,0,2.844-1.4A6.426,6.426,0,0,0,28.234-7a5.866,5.866,0,0,0-1.073-3.663,3.41,3.41,0,0,0-2.85-1.4,3.373,3.373,0,0,0-2.806,1.384A6.378,6.378,0,0,0,20.439-6.716Zm15.3-7.021.063,1.523a5.073,5.073,0,0,1,4.075-1.777A3.927,3.927,0,0,1,43.8-11.781a5.2,5.2,0,0,1,1.784-1.6,5.268,5.268,0,0,1,2.6-.609q4.52,0,4.6,4.786V0H50.426V-9.064a3.154,3.154,0,0,0-.673-2.2,2.963,2.963,0,0,0-2.26-.73,3.114,3.114,0,0,0-2.171.781,3.167,3.167,0,0,0-1,2.1V0H41.958V-9q0-3-2.933-3a3.142,3.142,0,0,0-3.161,1.968V0H33.516V-13.736Zm22.788,0,.063,1.523a5.073,5.073,0,0,1,4.075-1.777,3.927,3.927,0,0,1,3.923,2.209,5.2,5.2,0,0,1,1.784-1.6,5.268,5.268,0,0,1,2.6-.609q4.52,0,4.6,4.786V0H73.214V-9.064a3.154,3.154,0,0,0-.673-2.2,2.963,2.963,0,0,0-2.26-.73,3.114,3.114,0,0,0-2.171.781,3.167,3.167,0,0,0-1,2.1V0H64.746V-9q0-3-2.933-3a3.142,3.142,0,0,0-3.161,1.968V0H56.3V-13.736ZM84.8.254A6,6,0,0,1,80.26-1.581a6.809,6.809,0,0,1-1.752-4.907v-.432a8.243,8.243,0,0,1,.781-3.65,6.091,6.091,0,0,1,2.184-2.514,5.49,5.49,0,0,1,3.041-.908,5.144,5.144,0,0,1,4.164,1.765,7.64,7.64,0,0,1,1.485,5.053V-6.2H80.856a4.883,4.883,0,0,0,1.187,3.282,3.731,3.731,0,0,0,2.888,1.25,4.091,4.091,0,0,0,2.107-.508A5.3,5.3,0,0,0,88.55-3.517L89.984-2.4A5.768,5.768,0,0,1,84.8.254Zm-.292-12.314a3.133,3.133,0,0,0-2.387,1.035,5.029,5.029,0,0,0-1.193,2.9h6.881V-8.3a4.473,4.473,0,0,0-.965-2.774A2.949,2.949,0,0,0,84.513-12.061Zm15.006.432a7.038,7.038,0,0,0-1.155-.089A3.1,3.1,0,0,0,95.228-9.75V0H92.879V-13.736h2.285l.038,1.587a3.657,3.657,0,0,1,3.275-1.841,2.4,2.4,0,0,1,1.041.178Zm7.427,9.966a3.383,3.383,0,0,0,2.2-.762,2.68,2.68,0,0,0,1.041-1.9H112.4a4.259,4.259,0,0,1-.812,2.247,5.351,5.351,0,0,1-2,1.7,5.769,5.769,0,0,1-2.647.635,5.659,5.659,0,0,1-4.462-1.873,7.458,7.458,0,0,1-1.657-5.123v-.394a8.27,8.27,0,0,1,.736-3.567,5.608,5.608,0,0,1,2.114-2.425,6,6,0,0,1,3.256-.863,5.509,5.509,0,0,1,3.84,1.384A4.945,4.945,0,0,1,112.4-9.014h-2.222a3.237,3.237,0,0,0-1.009-2.19,3.14,3.14,0,0,0-2.241-.857,3.287,3.287,0,0,0-2.774,1.289,6.052,6.052,0,0,0-.984,3.726V-6.6a5.931,5.931,0,0,0,.978,3.656A3.3,3.3,0,0,0,106.945-1.663ZM117.6,0h-2.349V-13.736H117.6Zm-2.539-17.38a1.4,1.4,0,0,1,.349-.965,1.311,1.311,0,0,1,1.035-.394,1.331,1.331,0,0,1,1.041.394,1.387,1.387,0,0,1,.355.965,1.342,1.342,0,0,1-.355.952,1.355,1.355,0,0,1-1.041.381,1.334,1.334,0,0,1-1.035-.381A1.356,1.356,0,0,1,115.058-17.38ZM129.835,0a4.934,4.934,0,0,1-.33-1.447,5.24,5.24,0,0,1-3.91,1.7A4.849,4.849,0,0,1,122.262-.9a3.717,3.717,0,0,1-1.3-2.914,3.883,3.883,0,0,1,1.631-3.333,7.691,7.691,0,0,1,4.589-1.187h2.285V-9.407a2.638,2.638,0,0,0-.736-1.961,2.959,2.959,0,0,0-2.171-.73,3.425,3.425,0,0,0-2.107.635,1.87,1.87,0,0,0-.851,1.536H121.24a3.241,3.241,0,0,1,.73-1.987,4.982,4.982,0,0,1,1.98-1.517,6.663,6.663,0,0,1,2.749-.559,5.43,5.43,0,0,1,3.72,1.187,4.282,4.282,0,0,1,1.4,3.269v6.322A7.73,7.73,0,0,0,132.3-.2V0Zm-3.9-1.79a4.128,4.128,0,0,0,2.095-.571,3.456,3.456,0,0,0,1.435-1.485V-6.665h-1.841q-4.316,0-4.316,2.526a2.138,2.138,0,0,0,.736,1.727A2.83,2.83,0,0,0,125.938-1.79ZM138.049,0H135.7V-19.5h2.349Z" transform="translate(147 1270)"/>
  <path id="Path_639" data-name="Path 639" class="cls-7" d="M4.583-7.236V0H2.146V-18.484H8.963a6.849,6.849,0,0,1,4.754,1.549,5.251,5.251,0,0,1,1.72,4.1A5.181,5.181,0,0,1,13.755-8.69,7.155,7.155,0,0,1,8.938-7.236Zm0-1.993h4.38a4.384,4.384,0,0,0,3-.92A3.362,3.362,0,0,0,13-12.81a3.474,3.474,0,0,0-1.041-2.641A4.107,4.107,0,0,0,9.1-16.479H4.583Zm20.236-2.4a7.038,7.038,0,0,0-1.155-.089A3.1,3.1,0,0,0,20.528-9.75V0H18.18V-13.736h2.285l.038,1.587a3.657,3.657,0,0,1,3.275-1.841,2.4,2.4,0,0,1,1.041.178ZM26.1-7a8.113,8.113,0,0,1,.793-3.631A5.919,5.919,0,0,1,29.1-13.114a6.013,6.013,0,0,1,3.231-.876,5.793,5.793,0,0,1,4.539,1.942,7.473,7.473,0,0,1,1.733,5.167v.165a8.184,8.184,0,0,1-.768,3.6,5.832,5.832,0,0,1-2.2,2.482A6.082,6.082,0,0,1,32.36.254a5.778,5.778,0,0,1-4.526-1.942A7.435,7.435,0,0,1,26.1-6.83Zm2.361.279a5.877,5.877,0,0,0,1.06,3.669A3.393,3.393,0,0,0,32.36-1.663a3.372,3.372,0,0,0,2.844-1.4A6.426,6.426,0,0,0,36.258-7a5.866,5.866,0,0,0-1.073-3.663,3.41,3.41,0,0,0-2.85-1.4,3.373,3.373,0,0,0-2.806,1.384A6.378,6.378,0,0,0,28.463-6.716Zm18.6,5.053a3.383,3.383,0,0,0,2.2-.762,2.68,2.68,0,0,0,1.041-1.9h2.222a4.259,4.259,0,0,1-.812,2.247,5.351,5.351,0,0,1-2,1.7,5.769,5.769,0,0,1-2.647.635A5.659,5.659,0,0,1,42.6-1.619a7.458,7.458,0,0,1-1.657-5.123v-.394a8.27,8.27,0,0,1,.736-3.567,5.608,5.608,0,0,1,2.114-2.425,6,6,0,0,1,3.256-.863,5.509,5.509,0,0,1,3.84,1.384,4.945,4.945,0,0,1,1.631,3.593H50.3A3.237,3.237,0,0,0,49.29-11.2a3.14,3.14,0,0,0-2.241-.857,3.287,3.287,0,0,0-2.774,1.289,6.052,6.052,0,0,0-.984,3.726V-6.6a5.931,5.931,0,0,0,.978,3.656A3.3,3.3,0,0,0,47.062-1.663ZM60.861.254a6,6,0,0,1-4.545-1.834,6.809,6.809,0,0,1-1.752-4.907v-.432a8.243,8.243,0,0,1,.781-3.65,6.091,6.091,0,0,1,2.184-2.514,5.49,5.49,0,0,1,3.041-.908,5.144,5.144,0,0,1,4.164,1.765,7.64,7.64,0,0,1,1.485,5.053V-6.2H56.913A4.883,4.883,0,0,0,58.1-2.914a3.731,3.731,0,0,0,2.888,1.25A4.091,4.091,0,0,0,63.1-2.171a5.3,5.3,0,0,0,1.511-1.346L66.041-2.4A5.768,5.768,0,0,1,60.861.254Zm-.292-12.314a3.133,3.133,0,0,0-2.387,1.035,5.029,5.029,0,0,0-1.193,2.9H63.87V-8.3a4.473,4.473,0,0,0-.965-2.774A2.949,2.949,0,0,0,60.569-12.061ZM76.934-3.644a1.729,1.729,0,0,0-.717-1.479,6.9,6.9,0,0,0-2.5-.908,11.824,11.824,0,0,1-2.831-.914,4.028,4.028,0,0,1-1.549-1.27,3.037,3.037,0,0,1-.5-1.752,3.563,3.563,0,0,1,1.428-2.856,5.578,5.578,0,0,1,3.65-1.168,5.74,5.74,0,0,1,3.79,1.206A3.831,3.831,0,0,1,79.155-9.7H76.794a2.12,2.12,0,0,0-.819-1.663,3.068,3.068,0,0,0-2.063-.7,3.211,3.211,0,0,0-2.006.559,1.758,1.758,0,0,0-.724,1.46,1.425,1.425,0,0,0,.673,1.282,8.279,8.279,0,0,0,2.431.825A12.667,12.667,0,0,1,77.137-7a4.157,4.157,0,0,1,1.619,1.314,3.231,3.231,0,0,1,.527,1.873A3.515,3.515,0,0,1,77.81-.857,6.177,6.177,0,0,1,73.988.254a6.917,6.917,0,0,1-2.92-.584,4.749,4.749,0,0,1-1.987-1.631,3.932,3.932,0,0,1-.717-2.266h2.349a2.432,2.432,0,0,0,.946,1.873,3.669,3.669,0,0,0,2.33.692,3.788,3.788,0,0,0,2.139-.54A1.658,1.658,0,0,0,76.934-3.644Zm13.406,0a1.729,1.729,0,0,0-.717-1.479,6.9,6.9,0,0,0-2.5-.908,11.824,11.824,0,0,1-2.831-.914,4.028,4.028,0,0,1-1.549-1.27,3.037,3.037,0,0,1-.5-1.752,3.563,3.563,0,0,1,1.428-2.856,5.578,5.578,0,0,1,3.65-1.168,5.74,5.74,0,0,1,3.79,1.206A3.831,3.831,0,0,1,92.562-9.7H90.2a2.12,2.12,0,0,0-.819-1.663,3.068,3.068,0,0,0-2.063-.7,3.211,3.211,0,0,0-2.006.559,1.758,1.758,0,0,0-.724,1.46,1.425,1.425,0,0,0,.673,1.282,8.279,8.279,0,0,0,2.431.825A12.667,12.667,0,0,1,90.543-7a4.157,4.157,0,0,1,1.619,1.314,3.231,3.231,0,0,1,.527,1.873A3.515,3.515,0,0,1,91.216-.857,6.177,6.177,0,0,1,87.395.254a6.917,6.917,0,0,1-2.92-.584,4.749,4.749,0,0,1-1.987-1.631,3.932,3.932,0,0,1-.717-2.266h2.349a2.432,2.432,0,0,0,.946,1.873,3.669,3.669,0,0,0,2.33.692,3.788,3.788,0,0,0,2.139-.54A1.658,1.658,0,0,0,90.34-3.644ZM98.3,0H95.951V-13.736H98.3ZM95.761-17.38a1.4,1.4,0,0,1,.349-.965,1.311,1.311,0,0,1,1.035-.394,1.331,1.331,0,0,1,1.041.394,1.387,1.387,0,0,1,.355.965,1.342,1.342,0,0,1-.355.952,1.355,1.355,0,0,1-1.041.381,1.334,1.334,0,0,1-1.035-.381A1.356,1.356,0,0,1,95.761-17.38Zm8.519,3.644.076,1.727a5.006,5.006,0,0,1,4.113-1.98q4.354,0,4.393,4.913V0h-2.349V-9.09a3.162,3.162,0,0,0-.679-2.2A2.722,2.722,0,0,0,107.758-12a3.39,3.39,0,0,0-2.006.609,4.138,4.138,0,0,0-1.346,1.6V0h-2.349V-13.736Zm11.565,6.754a8.073,8.073,0,0,1,1.485-5.11,4.75,4.75,0,0,1,3.936-1.9,4.725,4.725,0,0,1,3.923,1.777l.114-1.523h2.146V-.33a5.588,5.588,0,0,1-1.581,4.2,5.833,5.833,0,0,1-4.247,1.536,7.065,7.065,0,0,1-2.907-.635,5,5,0,0,1-2.171-1.739l1.219-1.409a4.593,4.593,0,0,0,3.694,1.866,3.6,3.6,0,0,0,2.672-.965,3.688,3.688,0,0,0,.958-2.717V-1.371A4.827,4.827,0,0,1,121.24.254a4.692,4.692,0,0,1-3.9-1.942A8.488,8.488,0,0,1,115.845-6.982Zm2.361.267a6.159,6.159,0,0,0,.952,3.65,3.094,3.094,0,0,0,2.666,1.327,3.44,3.44,0,0,0,3.263-2.019v-6.271A3.481,3.481,0,0,0,121.85-12a3.122,3.122,0,0,0-2.679,1.333A6.708,6.708,0,0,0,118.206-6.716Zm25.035-1.523a11.462,11.462,0,0,1-4.564-2.215,4.233,4.233,0,0,1-1.428-3.244,4.471,4.471,0,0,1,1.746-3.612,6.938,6.938,0,0,1,4.539-1.428,7.573,7.573,0,0,1,3.4.736,5.584,5.584,0,0,1,2.311,2.031,5.194,5.194,0,0,1,.819,2.831h-2.45a3.362,3.362,0,0,0-1.066-2.634,4.346,4.346,0,0,0-3.009-.958,4.446,4.446,0,0,0-2.812.793,2.645,2.645,0,0,0-1.009,2.2,2.38,2.38,0,0,0,.958,1.911,9.409,9.409,0,0,0,3.263,1.428,15.109,15.109,0,0,1,3.605,1.428,5.471,5.471,0,0,1,1.93,1.822A4.65,4.65,0,0,1,150.1-4.7a4.319,4.319,0,0,1-1.752,3.6A7.47,7.47,0,0,1,143.66.254a8.688,8.688,0,0,1-3.555-.73,5.982,5.982,0,0,1-2.545-2,4.88,4.88,0,0,1-.9-2.882h2.45a3.184,3.184,0,0,0,1.238,2.647,5.212,5.212,0,0,0,3.307.971,4.791,4.791,0,0,0,2.958-.787,2.557,2.557,0,0,0,1.028-2.146,2.51,2.51,0,0,0-.952-2.1A10.977,10.977,0,0,0,143.241-8.239Zm15.12,6.576a3.383,3.383,0,0,0,2.2-.762,2.68,2.68,0,0,0,1.041-1.9h2.222a4.259,4.259,0,0,1-.812,2.247,5.351,5.351,0,0,1-2,1.7,5.769,5.769,0,0,1-2.647.635A5.659,5.659,0,0,1,153.9-1.619a7.458,7.458,0,0,1-1.657-5.123v-.394a8.27,8.27,0,0,1,.736-3.567,5.608,5.608,0,0,1,2.114-2.425,6,6,0,0,1,3.256-.863,5.509,5.509,0,0,1,3.84,1.384,4.945,4.945,0,0,1,1.631,3.593H161.6a3.237,3.237,0,0,0-1.009-2.19,3.14,3.14,0,0,0-2.241-.857,3.287,3.287,0,0,0-2.774,1.289,6.052,6.052,0,0,0-.984,3.726V-6.6a5.931,5.931,0,0,0,.978,3.656A3.3,3.3,0,0,0,158.361-1.663ZM165.839-7a8.113,8.113,0,0,1,.793-3.631,5.919,5.919,0,0,1,2.209-2.488,6.013,6.013,0,0,1,3.231-.876,5.793,5.793,0,0,1,4.539,1.942,7.473,7.473,0,0,1,1.733,5.167v.165a8.184,8.184,0,0,1-.768,3.6,5.832,5.832,0,0,1-2.2,2.482A6.082,6.082,0,0,1,172.1.254a5.778,5.778,0,0,1-4.526-1.942,7.435,7.435,0,0,1-1.733-5.142Zm2.361.279a5.876,5.876,0,0,0,1.06,3.669A3.393,3.393,0,0,0,172.1-1.663a3.372,3.372,0,0,0,2.844-1.4A6.426,6.426,0,0,0,176-7a5.866,5.866,0,0,0-1.073-3.663,3.41,3.41,0,0,0-2.85-1.4,3.373,3.373,0,0,0-2.806,1.384A6.378,6.378,0,0,0,168.2-6.716Zm19.729-4.913a7.038,7.038,0,0,0-1.155-.089,3.1,3.1,0,0,0-3.136,1.968V0h-2.349V-13.736h2.285l.038,1.587a3.657,3.657,0,0,1,3.275-1.841,2.4,2.4,0,0,1,1.041.178ZM195.787.254a6,6,0,0,1-4.545-1.834,6.809,6.809,0,0,1-1.752-4.907v-.432a8.243,8.243,0,0,1,.781-3.65,6.09,6.09,0,0,1,2.184-2.514,5.49,5.49,0,0,1,3.041-.908,5.144,5.144,0,0,1,4.164,1.765,7.64,7.64,0,0,1,1.485,5.053V-6.2h-9.306a4.883,4.883,0,0,0,1.187,3.282,3.731,3.731,0,0,0,2.888,1.25,4.091,4.091,0,0,0,2.107-.508,5.3,5.3,0,0,0,1.511-1.346L200.967-2.4A5.768,5.768,0,0,1,195.787.254ZM195.5-12.061a3.133,3.133,0,0,0-2.387,1.035,5.029,5.029,0,0,0-1.193,2.9H198.8V-8.3a4.473,4.473,0,0,0-.965-2.774A2.949,2.949,0,0,0,195.5-12.061Z" transform="translate(201 1371)"/>
  <path id="Path_641" data-name="Path 641" class="cls-7" d="M12.34-8.163H4.583V0H2.146V-18.484H13.6v2.006H4.583v6.322H12.34ZM24.2,0a4.934,4.934,0,0,1-.33-1.447,5.24,5.24,0,0,1-3.91,1.7A4.849,4.849,0,0,1,16.625-.9a3.717,3.717,0,0,1-1.3-2.914,3.883,3.883,0,0,1,1.631-3.333,7.691,7.691,0,0,1,4.589-1.187h2.285V-9.407a2.638,2.638,0,0,0-.736-1.961,2.959,2.959,0,0,0-2.171-.73,3.425,3.425,0,0,0-2.107.635,1.87,1.87,0,0,0-.851,1.536H15.6a3.241,3.241,0,0,1,.73-1.987,4.982,4.982,0,0,1,1.98-1.517,6.663,6.663,0,0,1,2.749-.559,5.43,5.43,0,0,1,3.72,1.187,4.282,4.282,0,0,1,1.4,3.269v6.322A7.73,7.73,0,0,0,26.66-.2V0ZM20.3-1.79a4.128,4.128,0,0,0,2.095-.571,3.456,3.456,0,0,0,1.435-1.485V-6.665H21.988q-4.316,0-4.316,2.526a2.138,2.138,0,0,0,.736,1.727A2.83,2.83,0,0,0,20.3-1.79ZM32.411,0H30.063V-13.736h2.349ZM29.872-17.38a1.4,1.4,0,0,1,.349-.965,1.311,1.311,0,0,1,1.035-.394,1.331,1.331,0,0,1,1.041.394,1.387,1.387,0,0,1,.355.965,1.342,1.342,0,0,1-.355.952,1.355,1.355,0,0,1-1.041.381,1.334,1.334,0,0,1-1.035-.381A1.356,1.356,0,0,1,29.872-17.38ZM38.721,0H36.372V-19.5h2.349Zm9.458.254a6,6,0,0,1-4.545-1.834,6.809,6.809,0,0,1-1.752-4.907v-.432a8.243,8.243,0,0,1,.781-3.65,6.091,6.091,0,0,1,2.184-2.514,5.49,5.49,0,0,1,3.041-.908,5.144,5.144,0,0,1,4.164,1.765,7.64,7.64,0,0,1,1.485,5.053V-6.2H44.23a4.883,4.883,0,0,0,1.187,3.282,3.731,3.731,0,0,0,2.888,1.25,4.091,4.091,0,0,0,2.107-.508,5.3,5.3,0,0,0,1.511-1.346L53.358-2.4A5.768,5.768,0,0,1,48.179.254Zm-.292-12.314A3.133,3.133,0,0,0,45.5-11.026a5.029,5.029,0,0,0-1.193,2.9h6.881V-8.3a4.473,4.473,0,0,0-.965-2.774A2.949,2.949,0,0,0,47.887-12.061Zm7.795,5.078a8.047,8.047,0,0,1,1.5-5.084A4.737,4.737,0,0,1,61.1-13.99a4.764,4.764,0,0,1,3.821,1.65V-19.5h2.349V0H65.114L65-1.473A4.783,4.783,0,0,1,61.077.254,4.692,4.692,0,0,1,57.186-1.7a8.138,8.138,0,0,1-1.5-5.1Zm2.349.267A6.093,6.093,0,0,0,59-3.06a3.119,3.119,0,0,0,2.666,1.32,3.426,3.426,0,0,0,3.263-2.006v-6.31A3.453,3.453,0,0,0,61.687-12,3.134,3.134,0,0,0,59-10.664,6.708,6.708,0,0,0,58.03-6.716Zm22.128-.521V0H77.721V-18.484h6.817a6.849,6.849,0,0,1,4.754,1.549,5.251,5.251,0,0,1,1.72,4.1A5.181,5.181,0,0,1,89.331-8.69a7.155,7.155,0,0,1-4.818,1.454Zm0-1.993h4.38a4.384,4.384,0,0,0,3-.92,3.362,3.362,0,0,0,1.041-2.66,3.474,3.474,0,0,0-1.041-2.641,4.107,4.107,0,0,0-2.856-1.028h-4.52ZM96.307,0H93.958V-13.736h2.349ZM93.768-17.38a1.4,1.4,0,0,1,.349-.965,1.311,1.311,0,0,1,1.035-.394,1.331,1.331,0,0,1,1.041.394,1.387,1.387,0,0,1,.355.965,1.342,1.342,0,0,1-.355.952,1.355,1.355,0,0,1-1.041.381,1.334,1.334,0,0,1-1.035-.381A1.356,1.356,0,0,1,93.768-17.38Zm12,17.634a6,6,0,0,1-4.545-1.834,6.809,6.809,0,0,1-1.752-4.907v-.432a8.243,8.243,0,0,1,.781-3.65,6.091,6.091,0,0,1,2.184-2.514,5.49,5.49,0,0,1,3.041-.908,5.144,5.144,0,0,1,4.164,1.765,7.64,7.64,0,0,1,1.485,5.053V-6.2h-9.306A4.883,4.883,0,0,0,103-2.914a3.731,3.731,0,0,0,2.888,1.25A4.091,4.091,0,0,0,108-2.171a5.3,5.3,0,0,0,1.511-1.346L110.944-2.4A5.768,5.768,0,0,1,105.765.254Zm-.292-12.314a3.133,3.133,0,0,0-2.387,1.035,5.029,5.029,0,0,0-1.193,2.9h6.881V-8.3a4.473,4.473,0,0,0-.965-2.774A2.949,2.949,0,0,0,105.473-12.061Zm13.876,10.4a3.383,3.383,0,0,0,2.2-.762,2.68,2.68,0,0,0,1.041-1.9h2.222A4.259,4.259,0,0,1,124-2.082a5.351,5.351,0,0,1-2,1.7,5.769,5.769,0,0,1-2.647.635,5.659,5.659,0,0,1-4.462-1.873,7.458,7.458,0,0,1-1.657-5.123v-.394a8.27,8.27,0,0,1,.736-3.567,5.608,5.608,0,0,1,2.114-2.425,6,6,0,0,1,3.256-.863,5.509,5.509,0,0,1,3.84,1.384,4.945,4.945,0,0,1,1.631,3.593h-2.222a3.237,3.237,0,0,0-1.009-2.19,3.14,3.14,0,0,0-2.241-.857,3.287,3.287,0,0,0-2.774,1.289,6.052,6.052,0,0,0-.984,3.726V-6.6a5.931,5.931,0,0,0,.978,3.656A3.3,3.3,0,0,0,119.349-1.663Zm13.8,1.917A6,6,0,0,1,128.6-1.581a6.809,6.809,0,0,1-1.752-4.907v-.432a8.243,8.243,0,0,1,.781-3.65,6.09,6.09,0,0,1,2.184-2.514,5.49,5.49,0,0,1,3.041-.908,5.144,5.144,0,0,1,4.164,1.765,7.64,7.64,0,0,1,1.485,5.053V-6.2H129.2a4.883,4.883,0,0,0,1.187,3.282,3.731,3.731,0,0,0,2.888,1.25,4.091,4.091,0,0,0,2.107-.508,5.3,5.3,0,0,0,1.511-1.346L138.328-2.4A5.768,5.768,0,0,1,133.148.254Zm-.292-12.314a3.133,3.133,0,0,0-2.387,1.035,5.029,5.029,0,0,0-1.193,2.9h6.881V-8.3a4.473,4.473,0,0,0-.965-2.774A2.949,2.949,0,0,0,132.856-12.061Zm16.364,8.417a1.729,1.729,0,0,0-.717-1.479A6.9,6.9,0,0,0,146-6.03a11.824,11.824,0,0,1-2.831-.914,4.028,4.028,0,0,1-1.549-1.27,3.037,3.037,0,0,1-.5-1.752,3.563,3.563,0,0,1,1.428-2.856,5.578,5.578,0,0,1,3.65-1.168,5.74,5.74,0,0,1,3.79,1.206A3.831,3.831,0,0,1,151.442-9.7h-2.361a2.12,2.12,0,0,0-.819-1.663,3.068,3.068,0,0,0-2.063-.7,3.211,3.211,0,0,0-2.006.559,1.758,1.758,0,0,0-.724,1.46,1.425,1.425,0,0,0,.673,1.282,8.279,8.279,0,0,0,2.431.825,12.667,12.667,0,0,1,2.85.939,4.158,4.158,0,0,1,1.619,1.314,3.231,3.231,0,0,1,.527,1.873A3.515,3.515,0,0,1,150.1-.857,6.177,6.177,0,0,1,146.275.254a6.917,6.917,0,0,1-2.92-.584,4.749,4.749,0,0,1-1.987-1.631,3.932,3.932,0,0,1-.717-2.266H143a2.432,2.432,0,0,0,.946,1.873,3.669,3.669,0,0,0,2.33.692,3.788,3.788,0,0,0,2.139-.54A1.658,1.658,0,0,0,149.221-3.644Z" transform="translate(626 1371)"/>
  <path id="Path_643" data-name="Path 643" class="cls-7" d="M14.917-16.479H8.976V0H6.551V-16.479H.622v-2.006H14.917ZM15.412-7a8.113,8.113,0,0,1,.793-3.631,5.919,5.919,0,0,1,2.209-2.488,6.013,6.013,0,0,1,3.231-.876,5.793,5.793,0,0,1,4.539,1.942,7.473,7.473,0,0,1,1.733,5.167v.165a8.184,8.184,0,0,1-.768,3.6,5.832,5.832,0,0,1-2.2,2.482,6.082,6.082,0,0,1-3.282.889,5.778,5.778,0,0,1-4.526-1.942A7.435,7.435,0,0,1,15.412-6.83Zm2.361.279a5.877,5.877,0,0,0,1.06,3.669,3.393,3.393,0,0,0,2.837,1.384,3.372,3.372,0,0,0,2.844-1.4A6.426,6.426,0,0,0,25.568-7,5.866,5.866,0,0,0,24.5-10.658a3.41,3.41,0,0,0-2.85-1.4,3.373,3.373,0,0,0-2.806,1.384A6.378,6.378,0,0,0,17.773-6.716ZM34.049-17.062v3.326h2.564v1.815H34.049V-3.4a1.9,1.9,0,0,0,.343,1.238,1.444,1.444,0,0,0,1.168.413A5.686,5.686,0,0,0,36.677-1.9V0a6.809,6.809,0,0,1-1.8.254A2.925,2.925,0,0,1,32.5-.7a4.09,4.09,0,0,1-.8-2.7v-8.519H29.2v-1.815h2.5v-3.326ZM47.836,0a4.934,4.934,0,0,1-.33-1.447A5.24,5.24,0,0,1,43.6.254,4.849,4.849,0,0,1,40.263-.9a3.717,3.717,0,0,1-1.3-2.914,3.883,3.883,0,0,1,1.631-3.333,7.691,7.691,0,0,1,4.589-1.187h2.285V-9.407a2.638,2.638,0,0,0-.736-1.961,2.959,2.959,0,0,0-2.171-.73,3.425,3.425,0,0,0-2.107.635A1.87,1.87,0,0,0,41.6-9.928H39.241a3.241,3.241,0,0,1,.73-1.987,4.982,4.982,0,0,1,1.98-1.517A6.663,6.663,0,0,1,44.7-13.99,5.43,5.43,0,0,1,48.42-12.8a4.282,4.282,0,0,1,1.4,3.269v6.322A7.73,7.73,0,0,0,50.3-.2V0Zm-3.9-1.79a4.128,4.128,0,0,0,2.095-.571,3.456,3.456,0,0,0,1.435-1.485V-6.665H45.627q-4.316,0-4.316,2.526a2.138,2.138,0,0,0,.736,1.727A2.83,2.83,0,0,0,43.938-1.79ZM56.05,0H53.7V-19.5H56.05Zm13-7.236V0H66.612V-18.484H73.43a6.849,6.849,0,0,1,4.754,1.549,5.251,5.251,0,0,1,1.72,4.1A5.181,5.181,0,0,1,78.222-8.69,7.155,7.155,0,0,1,73.4-7.236Zm0-1.993h4.38a4.384,4.384,0,0,0,3-.92,3.362,3.362,0,0,0,1.041-2.66,3.474,3.474,0,0,0-1.041-2.641,4.107,4.107,0,0,0-2.856-1.028H69.05ZM85.2,0H82.85V-13.736H85.2ZM82.659-17.38a1.4,1.4,0,0,1,.349-.965,1.311,1.311,0,0,1,1.035-.394,1.331,1.331,0,0,1,1.041.394,1.387,1.387,0,0,1,.355.965,1.342,1.342,0,0,1-.355.952,1.355,1.355,0,0,1-1.041.381,1.334,1.334,0,0,1-1.035-.381A1.356,1.356,0,0,1,82.659-17.38Zm12,17.634a6,6,0,0,1-4.545-1.834,6.809,6.809,0,0,1-1.752-4.907v-.432a8.243,8.243,0,0,1,.781-3.65,6.091,6.091,0,0,1,2.184-2.514,5.49,5.49,0,0,1,3.041-.908,5.144,5.144,0,0,1,4.164,1.765,7.64,7.64,0,0,1,1.485,5.053V-6.2H90.708A4.883,4.883,0,0,0,91.9-2.914a3.731,3.731,0,0,0,2.888,1.25,4.091,4.091,0,0,0,2.107-.508A5.3,5.3,0,0,0,98.4-3.517L99.836-2.4A5.768,5.768,0,0,1,94.656.254Zm-.292-12.314a3.133,3.133,0,0,0-2.387,1.035,5.029,5.029,0,0,0-1.193,2.9h6.881V-8.3a4.473,4.473,0,0,0-.965-2.774A2.949,2.949,0,0,0,94.364-12.061Zm13.876,10.4a3.383,3.383,0,0,0,2.2-.762,2.68,2.68,0,0,0,1.041-1.9H113.7a4.259,4.259,0,0,1-.812,2.247,5.351,5.351,0,0,1-2,1.7,5.769,5.769,0,0,1-2.647.635,5.659,5.659,0,0,1-4.462-1.873,7.458,7.458,0,0,1-1.657-5.123v-.394a8.27,8.27,0,0,1,.736-3.567,5.608,5.608,0,0,1,2.114-2.425,6,6,0,0,1,3.256-.863,5.509,5.509,0,0,1,3.84,1.384A4.945,4.945,0,0,1,113.7-9.014h-2.222a3.237,3.237,0,0,0-1.009-2.19,3.14,3.14,0,0,0-2.241-.857,3.287,3.287,0,0,0-2.774,1.289,6.052,6.052,0,0,0-.984,3.726V-6.6a5.931,5.931,0,0,0,.978,3.656A3.3,3.3,0,0,0,108.24-1.663ZM122.04.254A6,6,0,0,1,117.5-1.581a6.809,6.809,0,0,1-1.752-4.907v-.432a8.243,8.243,0,0,1,.781-3.65,6.091,6.091,0,0,1,2.184-2.514,5.49,5.49,0,0,1,3.041-.908,5.144,5.144,0,0,1,4.164,1.765A7.64,7.64,0,0,1,127.4-7.173V-6.2h-9.306a4.883,4.883,0,0,0,1.187,3.282,3.731,3.731,0,0,0,2.888,1.25,4.091,4.091,0,0,0,2.107-.508,5.3,5.3,0,0,0,1.511-1.346L127.22-2.4A5.768,5.768,0,0,1,122.04.254Zm-.292-12.314a3.133,3.133,0,0,0-2.387,1.035,5.029,5.029,0,0,0-1.193,2.9h6.881V-8.3a4.473,4.473,0,0,0-.965-2.774A2.949,2.949,0,0,0,121.748-12.061Zm16.364,8.417a1.729,1.729,0,0,0-.717-1.479,6.9,6.9,0,0,0-2.5-.908,11.824,11.824,0,0,1-2.831-.914,4.028,4.028,0,0,1-1.549-1.27,3.037,3.037,0,0,1-.5-1.752,3.563,3.563,0,0,1,1.428-2.856,5.578,5.578,0,0,1,3.65-1.168,5.74,5.74,0,0,1,3.79,1.206A3.831,3.831,0,0,1,140.334-9.7h-2.361a2.12,2.12,0,0,0-.819-1.663,3.068,3.068,0,0,0-2.063-.7,3.211,3.211,0,0,0-2.006.559,1.758,1.758,0,0,0-.724,1.46,1.425,1.425,0,0,0,.673,1.282,8.279,8.279,0,0,0,2.431.825,12.667,12.667,0,0,1,2.85.939,4.158,4.158,0,0,1,1.619,1.314,3.231,3.231,0,0,1,.527,1.873,3.515,3.515,0,0,1-1.473,2.952A6.177,6.177,0,0,1,135.167.254a6.917,6.917,0,0,1-2.92-.584,4.749,4.749,0,0,1-1.987-1.631,3.932,3.932,0,0,1-.717-2.266h2.349a2.432,2.432,0,0,0,.946,1.873,3.669,3.669,0,0,0,2.33.692,3.788,3.788,0,0,0,2.139-.54A1.658,1.658,0,0,0,138.112-3.644Z" transform="translate(1034 1371)"/>
  <path id="Path_640" data-name="Path 640" class="cls-7" d="M17.021-13.125a9.283,9.283,0,0,1-2.84,2.276,7.706,7.706,0,0,1-3.62.861,7.956,7.956,0,0,1-4.5-1.271A8.266,8.266,0,0,1,3.1-14.837a12.2,12.2,0,0,1-1.046-5.1,12.43,12.43,0,0,1,1.138-5.394A8.361,8.361,0,0,1,6.419-29,9.211,9.211,0,0,1,11.3-30.27a8.339,8.339,0,0,1,6.983,3.312q2.553,3.312,2.553,9.034v1.107q0,8.716-3.445,12.725T6.993.021H6.255v-3.2h.8q4.7-.082,7.219-2.451T17.021-13.125Zm-5.845,0a5.859,5.859,0,0,0,3.517-1.169,6.891,6.891,0,0,0,2.348-2.892V-18.7a10.44,10.44,0,0,0-1.62-6.07,4.834,4.834,0,0,0-4.1-2.338A4.872,4.872,0,0,0,7.3-25.194a7.91,7.91,0,0,0-1.518,5.055A8.232,8.232,0,0,0,7.25-15.1,4.643,4.643,0,0,0,11.177-13.125ZM45.63,0H26.065V-2.728L36.4-14.212a24.556,24.556,0,0,0,3.168-4.235,7.068,7.068,0,0,0,.872-3.374,5.358,5.358,0,0,0-1.415-3.835,4.948,4.948,0,0,0-3.773-1.5,5.86,5.86,0,0,0-4.4,1.61,6.149,6.149,0,0,0-1.569,4.481H25.491a8.807,8.807,0,0,1,2.656-6.665,9.845,9.845,0,0,1,7.106-2.543,9.46,9.46,0,0,1,6.583,2.184,7.45,7.45,0,0,1,2.42,5.814q0,4.409-5.619,10.5l-8,8.675H45.63Zm4.491-1.989a2.376,2.376,0,0,1,.584-1.641,2.227,2.227,0,0,1,1.753-.656,2.294,2.294,0,0,1,1.774.656,2.328,2.328,0,0,1,.6,1.641,2.2,2.2,0,0,1-.6,1.579,2.335,2.335,0,0,1-1.774.636A2.266,2.266,0,0,1,50.706-.41,2.245,2.245,0,0,1,50.121-1.989Zm28.69-20.077a6.934,6.934,0,0,1-1.179,3.979,8.023,8.023,0,0,1-3.189,2.728,8.558,8.558,0,0,1,3.7,2.933A7.379,7.379,0,0,1,79.509-8.06a7.8,7.8,0,0,1-2.615,6.173,10.046,10.046,0,0,1-6.88,2.3,10,10,0,0,1-6.9-2.307A7.839,7.839,0,0,1,60.519-8.06a7.6,7.6,0,0,1,1.323-4.368A8.232,8.232,0,0,1,65.5-15.381a7.825,7.825,0,0,1-3.138-2.728,7.032,7.032,0,0,1-1.148-3.958,7.718,7.718,0,0,1,2.42-5.988,9.078,9.078,0,0,1,6.378-2.215,9.086,9.086,0,0,1,6.368,2.215A7.7,7.7,0,0,1,78.812-22.066Zm-3.1,13.925a5.5,5.5,0,0,0-1.589-4.081A5.636,5.636,0,0,0,69.973-13.8a5.538,5.538,0,0,0-4.112,1.559,5.566,5.566,0,0,0-1.548,4.1,5.3,5.3,0,0,0,1.507,4,5.786,5.786,0,0,0,4.194,1.456A5.769,5.769,0,0,0,74.2-4.153,5.288,5.288,0,0,0,75.715-8.142Zm-5.7-19.011a4.9,4.9,0,0,0-3.62,1.384A5.085,5.085,0,0,0,65.01-22a5.061,5.061,0,0,0,1.364,3.681,4.84,4.84,0,0,0,3.64,1.4,4.84,4.84,0,0,0,3.64-1.4A5.061,5.061,0,0,0,75.018-22,5.062,5.062,0,0,0,73.6-25.717,4.826,4.826,0,0,0,70.014-27.152Zm13.945,3.035a6.059,6.059,0,0,1,1.712-4.43,5.9,5.9,0,0,1,4.4-1.743,5.864,5.864,0,0,1,4.419,1.753,6.269,6.269,0,0,1,1.692,4.542v1.456a5.981,5.981,0,0,1-1.712,4.419,5.9,5.9,0,0,1-4.358,1.712A6.033,6.033,0,0,1,85.7-18.119a6.107,6.107,0,0,1-1.743-4.563Zm2.83,1.579a3.866,3.866,0,0,0,.9,2.635,3.048,3.048,0,0,0,2.42,1.036,2.989,2.989,0,0,0,2.348-1,3.992,3.992,0,0,0,.892-2.748v-1.5a3.963,3.963,0,0,0-.882-2.646,2.974,2.974,0,0,0-2.4-1.046,2.974,2.974,0,0,0-2.4,1.046,4.088,4.088,0,0,0-.882,2.728ZM98.5-7.321a6.024,6.024,0,0,1,1.712-4.419,5.917,5.917,0,0,1,4.4-1.733,5.97,5.97,0,0,1,4.409,1.723,6.181,6.181,0,0,1,1.723,4.573v1.456A6.024,6.024,0,0,1,109.03-1.3,5.892,5.892,0,0,1,104.651.431a6.033,6.033,0,0,1-4.409-1.712A6.107,6.107,0,0,1,98.5-5.845Zm2.83,1.6a3.9,3.9,0,0,0,.9,2.656,3.048,3.048,0,0,0,2.42,1.036,2.967,2.967,0,0,0,2.358-1.015,4.062,4.062,0,0,0,.882-2.758V-7.321A3.885,3.885,0,0,0,107-9.967a3.007,3.007,0,0,0-2.389-1.025,3.037,3.037,0,0,0-2.369,1.015,3.943,3.943,0,0,0-.913,2.738ZM90.973-2.256,88.819-3.609,103.4-26.947l2.153,1.354Z" transform="translate(245 1497)"/>
  <path id="Path_642" data-name="Path 642" class="cls-7" d="M18.5-10.028h4.143v3.1H18.5V0H14.684V-6.932H1.087V-9.167L14.458-29.859H18.5Zm-13.1,0h9.29V-24.671l-.451.82ZM40.954-29.88v3.22h-.7A9.989,9.989,0,0,0,33.2-24.035a10.923,10.923,0,0,0-3.035,7.157,8.1,8.1,0,0,1,6.439-2.707,7.743,7.743,0,0,1,6.224,2.748,10.6,10.6,0,0,1,2.328,7.1,10.566,10.566,0,0,1-2.512,7.383A8.65,8.65,0,0,1,35.909.41a8.523,8.523,0,0,1-6.952-3.292,13.045,13.045,0,0,1-2.666-8.48v-1.456q0-8.244,3.517-12.6t10.469-4.46ZM35.971-16.427a6.053,6.053,0,0,0-3.589,1.169,6.091,6.091,0,0,0-2.276,2.933v1.395a9.8,9.8,0,0,0,1.661,5.947,4.978,4.978,0,0,0,4.143,2.256,4.824,4.824,0,0,0,4.03-1.887,7.829,7.829,0,0,0,1.466-4.942,7.831,7.831,0,0,0-1.487-4.973A4.766,4.766,0,0,0,35.971-16.427ZM49.916,5.947,47.763,4.471a9.9,9.9,0,0,0,2.01-5.537V-4.491h3.712v2.974a9.341,9.341,0,0,1-1.015,4.143A9.7,9.7,0,0,1,49.916,5.947ZM73.91-10.028h4.143v3.1H73.91V0H70.1V-6.932H56.5V-9.167L69.87-29.859h4.04Zm-13.1,0H70.1V-24.671l-.451.82Zm35.212-3.1a9.283,9.283,0,0,1-2.84,2.276,7.706,7.706,0,0,1-3.62.861,7.956,7.956,0,0,1-4.5-1.271,8.266,8.266,0,0,1-2.963-3.579,12.2,12.2,0,0,1-1.046-5.1,12.43,12.43,0,0,1,1.138-5.394A8.361,8.361,0,0,1,85.415-29,9.211,9.211,0,0,1,90.3-30.27a8.339,8.339,0,0,1,6.983,3.312q2.553,3.312,2.553,9.034v1.107q0,8.716-3.445,12.725T85.989.021h-.738v-3.2h.8q4.7-.082,7.219-2.451T96.018-13.125Zm-5.845,0a5.859,5.859,0,0,0,3.517-1.169,6.891,6.891,0,0,0,2.348-2.892V-18.7a10.44,10.44,0,0,0-1.62-6.07,4.834,4.834,0,0,0-4.1-2.338,4.872,4.872,0,0,0-4.02,1.917,7.91,7.91,0,0,0-1.518,5.055A8.232,8.232,0,0,0,86.246-15.1,4.643,4.643,0,0,0,90.173-13.125Zm33-8.941a6.934,6.934,0,0,1-1.179,3.979A8.023,8.023,0,0,1,118.8-15.36a8.558,8.558,0,0,1,3.7,2.933,7.379,7.379,0,0,1,1.364,4.368,7.8,7.8,0,0,1-2.615,6.173,10.046,10.046,0,0,1-6.88,2.3,10,10,0,0,1-6.9-2.307,7.839,7.839,0,0,1-2.594-6.163,7.6,7.6,0,0,1,1.323-4.368,8.232,8.232,0,0,1,3.661-2.953,7.825,7.825,0,0,1-3.138-2.728,7.032,7.032,0,0,1-1.148-3.958,7.718,7.718,0,0,1,2.42-5.988,9.078,9.078,0,0,1,6.378-2.215,9.086,9.086,0,0,1,6.368,2.215A7.7,7.7,0,0,1,123.17-22.066Zm-3.1,13.925a5.5,5.5,0,0,0-1.589-4.081,5.636,5.636,0,0,0-4.153-1.579,5.538,5.538,0,0,0-4.112,1.559,5.566,5.566,0,0,0-1.548,4.1,5.3,5.3,0,0,0,1.507,4,5.786,5.786,0,0,0,4.194,1.456,5.769,5.769,0,0,0,4.184-1.466A5.288,5.288,0,0,0,120.073-8.142Zm-5.7-19.011a4.9,4.9,0,0,0-3.62,1.384A5.085,5.085,0,0,0,109.368-22a5.061,5.061,0,0,0,1.364,3.681,4.84,4.84,0,0,0,3.64,1.4,4.84,4.84,0,0,0,3.64-1.4A5.061,5.061,0,0,0,119.376-22a5.062,5.062,0,0,0-1.415-3.712A4.826,4.826,0,0,0,114.372-27.152Zm14.54,33.1-2.153-1.477a9.9,9.9,0,0,0,2.01-5.537V-4.491h3.712v2.974a9.341,9.341,0,0,1-1.015,4.143A9.7,9.7,0,0,1,128.912,5.947ZM155-22.066a6.934,6.934,0,0,1-1.179,3.979,8.023,8.023,0,0,1-3.189,2.728,8.558,8.558,0,0,1,3.7,2.933A7.379,7.379,0,0,1,155.7-8.06a7.8,7.8,0,0,1-2.615,6.173A10.046,10.046,0,0,1,146.2.41,10,10,0,0,1,139.3-1.9a7.839,7.839,0,0,1-2.594-6.163,7.6,7.6,0,0,1,1.323-4.368,8.232,8.232,0,0,1,3.661-2.953,7.825,7.825,0,0,1-3.138-2.728,7.032,7.032,0,0,1-1.148-3.958,7.718,7.718,0,0,1,2.42-5.988A9.078,9.078,0,0,1,146.2-30.27a9.086,9.086,0,0,1,6.368,2.215A7.7,7.7,0,0,1,155-22.066ZM151.9-8.142a5.5,5.5,0,0,0-1.589-4.081,5.636,5.636,0,0,0-4.153-1.579,5.538,5.538,0,0,0-4.112,1.559,5.566,5.566,0,0,0-1.548,4.1,5.3,5.3,0,0,0,1.507,4A5.786,5.786,0,0,0,146.2-2.687a5.769,5.769,0,0,0,4.184-1.466A5.288,5.288,0,0,0,151.9-8.142Zm-5.7-19.011a4.9,4.9,0,0,0-3.62,1.384A5.085,5.085,0,0,0,141.2-22a5.061,5.061,0,0,0,1.364,3.681,4.84,4.84,0,0,0,3.64,1.4,4.84,4.84,0,0,0,3.64-1.4A5.061,5.061,0,0,0,151.2-22a5.062,5.062,0,0,0-1.415-3.712A4.826,4.826,0,0,0,146.2-27.152Zm33.551-.574L167.385,0h-3.979l12.325-26.742h-16.16v-3.117h20.18Zm23.03,14.991q0,6.665-2.276,9.905T193.389.41q-4.778,0-7.075-3.168t-2.379-9.464v-5.065q0-6.583,2.276-9.782t7.137-3.2q4.819,0,7.1,3.086t2.338,9.526Zm-3.794-5.188q0-4.819-1.354-7.024a4.659,4.659,0,0,0-4.286-2.2,4.6,4.6,0,0,0-4.245,2.194q-1.333,2.194-1.374,6.747v6.07q0,4.84,1.4,7.147a4.65,4.65,0,0,0,4.255,2.307,4.586,4.586,0,0,0,4.173-2.174q1.364-2.174,1.425-6.85Z" transform="translate(600 1498)"/>
  <path id="Path_644" data-name="Path 644" class="cls-7" d="M17.37-29.88v3.22h-.7a9.989,9.989,0,0,0-7.055,2.625,10.923,10.923,0,0,0-3.035,7.157,8.1,8.1,0,0,1,6.439-2.707,7.743,7.743,0,0,1,6.224,2.748,10.6,10.6,0,0,1,2.328,7.1,10.566,10.566,0,0,1-2.512,7.383A8.65,8.65,0,0,1,12.325.41,8.523,8.523,0,0,1,5.373-2.881a13.045,13.045,0,0,1-2.666-8.48v-1.456q0-8.244,3.517-12.6t10.469-4.46ZM12.387-16.427A6.053,6.053,0,0,0,8.8-15.258a6.091,6.091,0,0,0-2.276,2.933v1.395A9.8,9.8,0,0,0,8.183-4.983a4.978,4.978,0,0,0,4.143,2.256,4.824,4.824,0,0,0,4.03-1.887,7.829,7.829,0,0,0,1.466-4.942,7.831,7.831,0,0,0-1.487-4.973A4.766,4.766,0,0,0,12.387-16.427Zm29.7,6.4h4.143v3.1H42.082V0H38.268V-6.932h-13.6V-9.167L38.042-29.859h4.04Zm-13.1,0h9.29V-24.671l-.451.82Zm26.188-6.747h2.851a6.265,6.265,0,0,0,4.225-1.415A4.728,4.728,0,0,0,63.779-21.9q0-5.25-5.229-5.25a5.439,5.439,0,0,0-3.927,1.4,4.916,4.916,0,0,0-1.466,3.722H49.362a7.617,7.617,0,0,1,2.594-5.9A9.451,9.451,0,0,1,58.55-30.27a9.339,9.339,0,0,1,6.624,2.235,8.075,8.075,0,0,1,2.4,6.214,6.554,6.554,0,0,1-1.261,3.773,7.615,7.615,0,0,1-3.435,2.728,7.338,7.338,0,0,1,3.8,2.584,7.176,7.176,0,0,1,1.343,4.409A8.145,8.145,0,0,1,65.4-1.948,9.83,9.83,0,0,1,58.57.41a10.09,10.09,0,0,1-6.839-2.276A7.551,7.551,0,0,1,49.1-7.875H52.91A4.88,4.88,0,0,0,54.448-4.1,5.85,5.85,0,0,0,58.57-2.687a5.741,5.741,0,0,0,4.2-1.436A5.532,5.532,0,0,0,64.23-8.244a5.02,5.02,0,0,0-1.6-4,6.969,6.969,0,0,0-4.614-1.436H55.166ZM73.5,5.947,71.347,4.471a9.9,9.9,0,0,0,2.01-5.537V-4.491h3.712v2.974a9.341,9.341,0,0,1-1.015,4.143A9.7,9.7,0,0,1,73.5,5.947ZM101.042,0H81.478V-2.728L91.813-14.212a24.556,24.556,0,0,0,3.168-4.235,7.068,7.068,0,0,0,.872-3.374,5.358,5.358,0,0,0-1.415-3.835,4.948,4.948,0,0,0-3.773-1.5,5.86,5.86,0,0,0-4.4,1.61A6.149,6.149,0,0,0,84.7-21.062H80.9a8.807,8.807,0,0,1,2.656-6.665,9.845,9.845,0,0,1,7.106-2.543,9.46,9.46,0,0,1,6.583,2.184,7.45,7.45,0,0,1,2.42,5.814q0,4.409-5.619,10.5l-8,8.675h14.991ZM123.17-22.066a6.934,6.934,0,0,1-1.179,3.979A8.023,8.023,0,0,1,118.8-15.36a8.558,8.558,0,0,1,3.7,2.933,7.379,7.379,0,0,1,1.364,4.368,7.8,7.8,0,0,1-2.615,6.173,10.046,10.046,0,0,1-6.88,2.3,10,10,0,0,1-6.9-2.307,7.839,7.839,0,0,1-2.594-6.163,7.6,7.6,0,0,1,1.323-4.368,8.232,8.232,0,0,1,3.661-2.953,7.825,7.825,0,0,1-3.138-2.728,7.032,7.032,0,0,1-1.148-3.958,7.718,7.718,0,0,1,2.42-5.988,9.078,9.078,0,0,1,6.378-2.215,9.086,9.086,0,0,1,6.368,2.215A7.7,7.7,0,0,1,123.17-22.066Zm-3.1,13.925a5.5,5.5,0,0,0-1.589-4.081,5.636,5.636,0,0,0-4.153-1.579,5.538,5.538,0,0,0-4.112,1.559,5.566,5.566,0,0,0-1.548,4.1,5.3,5.3,0,0,0,1.507,4,5.786,5.786,0,0,0,4.194,1.456,5.769,5.769,0,0,0,4.184-1.466A5.288,5.288,0,0,0,120.073-8.142Zm-5.7-19.011a4.9,4.9,0,0,0-3.62,1.384A5.085,5.085,0,0,0,109.368-22a5.061,5.061,0,0,0,1.364,3.681,4.84,4.84,0,0,0,3.64,1.4,4.84,4.84,0,0,0,3.64-1.4A5.061,5.061,0,0,0,119.376-22a5.062,5.062,0,0,0-1.415-3.712A4.826,4.826,0,0,0,114.372-27.152Zm32.382,5.086a6.934,6.934,0,0,1-1.179,3.979,8.023,8.023,0,0,1-3.189,2.728,8.558,8.558,0,0,1,3.7,2.933,7.379,7.379,0,0,1,1.364,4.368,7.8,7.8,0,0,1-2.615,6.173,10.046,10.046,0,0,1-6.88,2.3,10,10,0,0,1-6.9-2.307,7.839,7.839,0,0,1-2.594-6.163,7.6,7.6,0,0,1,1.323-4.368,8.232,8.232,0,0,1,3.661-2.953,7.825,7.825,0,0,1-3.138-2.728,7.032,7.032,0,0,1-1.148-3.958,7.718,7.718,0,0,1,2.42-5.988,9.078,9.078,0,0,1,6.378-2.215,9.086,9.086,0,0,1,6.368,2.215A7.7,7.7,0,0,1,146.754-22.066Zm-3.1,13.925a5.5,5.5,0,0,0-1.589-4.081,5.636,5.636,0,0,0-4.153-1.579,5.538,5.538,0,0,0-4.112,1.559,5.566,5.566,0,0,0-1.548,4.1,5.3,5.3,0,0,0,1.507,4,5.786,5.786,0,0,0,4.194,1.456,5.769,5.769,0,0,0,4.184-1.466A5.288,5.288,0,0,0,143.657-8.142Zm-5.7-19.011a4.9,4.9,0,0,0-3.62,1.384A5.085,5.085,0,0,0,132.952-22a5.061,5.061,0,0,0,1.364,3.681,4.84,4.84,0,0,0,3.64,1.4,4.84,4.84,0,0,0,3.64-1.4A5.061,5.061,0,0,0,142.96-22a5.062,5.062,0,0,0-1.415-3.712A4.826,4.826,0,0,0,137.956-27.152Zm14.54,33.1-2.153-1.477a9.9,9.9,0,0,0,2.01-5.537V-4.491h3.712v2.974a9.341,9.341,0,0,1-1.015,4.143A9.7,9.7,0,0,1,152.5,5.947ZM176.49-10.028h4.143v3.1H176.49V0h-3.814V-6.932h-13.6V-9.167L172.45-29.859h4.04Zm-13.1,0h9.29V-24.671l-.451.82Zm26.188-6.747h2.851a6.265,6.265,0,0,0,4.225-1.415,4.728,4.728,0,0,0,1.538-3.712q0-5.25-5.229-5.25a5.439,5.439,0,0,0-3.927,1.4,4.916,4.916,0,0,0-1.466,3.722h-3.794a7.617,7.617,0,0,1,2.594-5.9,9.451,9.451,0,0,1,6.593-2.348,9.339,9.339,0,0,1,6.624,2.235,8.075,8.075,0,0,1,2.4,6.214,6.554,6.554,0,0,1-1.261,3.773,7.615,7.615,0,0,1-3.435,2.728,7.338,7.338,0,0,1,3.8,2.584,7.176,7.176,0,0,1,1.343,4.409,8.145,8.145,0,0,1-2.625,6.378A9.83,9.83,0,0,1,192.979.41a10.09,10.09,0,0,1-6.839-2.276A7.551,7.551,0,0,1,183.5-7.875h3.814A4.88,4.88,0,0,0,188.856-4.1a5.85,5.85,0,0,0,4.122,1.415,5.741,5.741,0,0,0,4.2-1.436,5.532,5.532,0,0,0,1.456-4.122,5.02,5.02,0,0,0-1.6-4,6.969,6.969,0,0,0-4.614-1.436h-2.851Zm37.345-10.951L214.553,0h-3.979L222.9-26.742h-16.16v-3.117h20.18Z" transform="translate(990 1498)"/>
  <path id="Path_645" data-name="Path 645" class="cls-7" d="M7.008-7.605A10.58,10.58,0,0,1,2.795-9.65a3.907,3.907,0,0,1-1.318-2.994,4.127,4.127,0,0,1,1.611-3.334A6.4,6.4,0,0,1,7.277-17.3a6.99,6.99,0,0,1,3.135.68,5.154,5.154,0,0,1,2.133,1.875,4.8,4.8,0,0,1,.756,2.613H11.039a3.1,3.1,0,0,0-.984-2.432,4.012,4.012,0,0,0-2.777-.885,4.1,4.1,0,0,0-2.6.732A2.442,2.442,0,0,0,3.75-12.68a2.2,2.2,0,0,0,.885,1.764A8.685,8.685,0,0,0,7.646-9.6a13.947,13.947,0,0,1,3.328,1.318A5.05,5.05,0,0,1,12.756-6.6a4.292,4.292,0,0,1,.58,2.262,3.987,3.987,0,0,1-1.617,3.322A6.9,6.9,0,0,1,7.395.234,8.02,8.02,0,0,1,4.113-.439a5.522,5.522,0,0,1-2.35-1.846,4.5,4.5,0,0,1-.826-2.66H3.2A2.939,2.939,0,0,0,4.342-2.5a4.811,4.811,0,0,0,3.053.9,4.423,4.423,0,0,0,2.73-.727,2.36,2.36,0,0,0,.949-1.98A2.317,2.317,0,0,0,10.2-6.252,10.133,10.133,0,0,0,7.008-7.605Zm13.957,6.07a3.123,3.123,0,0,0,2.027-.7A2.474,2.474,0,0,0,23.953-4H26a3.931,3.931,0,0,1-.75,2.074,4.94,4.94,0,0,1-1.846,1.57,5.326,5.326,0,0,1-2.443.586,5.223,5.223,0,0,1-4.119-1.729,6.884,6.884,0,0,1-1.529-4.729v-.363A7.634,7.634,0,0,1,16-9.879a5.177,5.177,0,0,1,1.951-2.238,5.543,5.543,0,0,1,3.006-.8A5.085,5.085,0,0,1,24.5-11.637,4.565,4.565,0,0,1,26-8.32H23.953a2.988,2.988,0,0,0-.932-2.021,2.9,2.9,0,0,0-2.068-.791,3.034,3.034,0,0,0-2.561,1.189A5.586,5.586,0,0,0,17.484-6.5v.41a5.475,5.475,0,0,0,.9,3.375A3.049,3.049,0,0,0,20.965-1.535Zm6.9-4.922A7.489,7.489,0,0,1,28.6-9.809a5.464,5.464,0,0,1,2.039-2.3,5.551,5.551,0,0,1,2.982-.809,5.347,5.347,0,0,1,4.189,1.793,6.9,6.9,0,0,1,1.6,4.77V-6.2A7.555,7.555,0,0,1,38.7-2.877,5.383,5.383,0,0,1,36.674-.586a5.614,5.614,0,0,1-3.029.82,5.334,5.334,0,0,1-4.178-1.793,6.863,6.863,0,0,1-1.6-4.746Zm2.18.258a5.424,5.424,0,0,0,.979,3.387,3.132,3.132,0,0,0,2.619,1.277A3.113,3.113,0,0,0,36.27-2.83a5.932,5.932,0,0,0,.973-3.627,5.415,5.415,0,0,0-.99-3.381,3.148,3.148,0,0,0-2.631-1.295,3.113,3.113,0,0,0-2.59,1.277A5.888,5.888,0,0,0,30.047-6.2Zm18.211-4.535a6.5,6.5,0,0,0-1.066-.082A2.857,2.857,0,0,0,44.3-9V0H42.129V-12.68h2.109l.035,1.465a3.376,3.376,0,0,1,3.023-1.7,2.215,2.215,0,0,1,.961.164ZM55.512.234a5.54,5.54,0,0,1-4.2-1.693A6.285,6.285,0,0,1,49.7-5.988v-.4a7.609,7.609,0,0,1,.721-3.369,5.622,5.622,0,0,1,2.016-2.32,5.068,5.068,0,0,1,2.807-.838,4.749,4.749,0,0,1,3.844,1.629,7.053,7.053,0,0,1,1.371,4.664v.9h-8.59a4.507,4.507,0,0,0,1.1,3.029,3.444,3.444,0,0,0,2.666,1.154A3.776,3.776,0,0,0,57.574-2a4.888,4.888,0,0,0,1.395-1.242l1.324,1.031A5.325,5.325,0,0,1,55.512.234Zm-.27-11.367a2.892,2.892,0,0,0-2.2.955,4.642,4.642,0,0,0-1.1,2.678h6.352v-.164a4.129,4.129,0,0,0-.891-2.561A2.723,2.723,0,0,0,55.242-11.133ZM76.992-7.5a5.3,5.3,0,0,1-1.623,1.3,4.4,4.4,0,0,1-2.068.492,4.546,4.546,0,0,1-2.572-.727,4.723,4.723,0,0,1-1.693-2.045,6.971,6.971,0,0,1-.6-2.912,7.1,7.1,0,0,1,.65-3.082,4.778,4.778,0,0,1,1.846-2.1,5.263,5.263,0,0,1,2.789-.727,4.765,4.765,0,0,1,3.99,1.893,8.255,8.255,0,0,1,1.459,5.162v.633q0,4.98-1.969,7.271T71.262.012H70.84V-1.816H71.3a5.961,5.961,0,0,0,4.125-1.4A6.016,6.016,0,0,0,76.992-7.5Zm-3.34,0a3.348,3.348,0,0,0,2.01-.668A3.938,3.938,0,0,0,77-9.82v-.867a5.966,5.966,0,0,0-.926-3.469,2.762,2.762,0,0,0-2.344-1.336,2.784,2.784,0,0,0-2.3,1.1,4.52,4.52,0,0,0-.867,2.889,4.7,4.7,0,0,0,.838,2.877A2.653,2.653,0,0,0,73.652-7.5Zm9.5-1.055.867-8.508h8.742v2h-6.9l-.516,4.652a5.506,5.506,0,0,1,2.848-.738A4.707,4.707,0,0,1,91.9-9.6,6.04,6.04,0,0,1,93.27-5.437a5.829,5.829,0,0,1-1.424,4.154A5.19,5.19,0,0,1,87.867.234,5.393,5.393,0,0,1,84.176-1.02a5,5,0,0,1-1.629-3.469H84.6a3.443,3.443,0,0,0,1.043,2.209,3.243,3.243,0,0,0,2.227.744A2.925,2.925,0,0,0,90.24-2.566,4.311,4.311,0,0,0,91.1-5.414a3.957,3.957,0,0,0-.932-2.748A3.169,3.169,0,0,0,87.691-9.2a3.574,3.574,0,0,0-2.227.621l-.574.469Zm17.215,2.191H94.652v-1.77h5.719ZM109.383,0H107.2V-14.449l-4.371,1.605v-1.969l6.211-2.332h.34Zm17.051-7.277a9.915,9.915,0,0,1-1.3,5.66A4.626,4.626,0,0,1,121.066.234a4.66,4.66,0,0,1-4.043-1.811,9.411,9.411,0,0,1-1.359-5.408V-9.879a9.7,9.7,0,0,1,1.3-5.59,4.662,4.662,0,0,1,4.078-1.828,4.7,4.7,0,0,1,4.055,1.764,9.356,9.356,0,0,1,1.336,5.443Zm-2.168-2.965a7.944,7.944,0,0,0-.773-4.014,2.662,2.662,0,0,0-2.449-1.26,2.627,2.627,0,0,0-2.426,1.254,7.756,7.756,0,0,0-.785,3.855v3.469a8.071,8.071,0,0,0,.8,4.084,2.657,2.657,0,0,0,2.432,1.318,2.621,2.621,0,0,0,2.385-1.242,7.779,7.779,0,0,0,.814-3.914ZM139.91-7.277a9.915,9.915,0,0,1-1.3,5.66A4.626,4.626,0,0,1,134.543.234,4.66,4.66,0,0,1,130.5-1.576a9.411,9.411,0,0,1-1.359-5.408V-9.879a9.7,9.7,0,0,1,1.3-5.59A4.662,4.662,0,0,1,134.52-17.3a4.7,4.7,0,0,1,4.055,1.764,9.356,9.356,0,0,1,1.336,5.443Zm-2.168-2.965a7.944,7.944,0,0,0-.773-4.014,2.662,2.662,0,0,0-2.449-1.26,2.627,2.627,0,0,0-2.426,1.254,7.756,7.756,0,0,0-.785,3.855v3.469a8.071,8.071,0,0,0,.8,4.084,2.657,2.657,0,0,0,2.432,1.318,2.621,2.621,0,0,0,2.385-1.242,7.779,7.779,0,0,0,.814-3.914Zm4.758-3.539a3.462,3.462,0,0,1,.979-2.531,3.371,3.371,0,0,1,2.514-1,3.351,3.351,0,0,1,2.525,1,3.582,3.582,0,0,1,.967,2.6v.832a3.418,3.418,0,0,1-.979,2.525,3.373,3.373,0,0,1-2.49.979,3.447,3.447,0,0,1-2.52-.979,3.49,3.49,0,0,1-1-2.607Zm1.617.9a2.209,2.209,0,0,0,.516,1.506,1.742,1.742,0,0,0,1.383.592,1.708,1.708,0,0,0,1.342-.574,2.281,2.281,0,0,0,.51-1.57v-.855a2.264,2.264,0,0,0-.5-1.512,1.7,1.7,0,0,0-1.371-.6,1.7,1.7,0,0,0-1.371.6,2.336,2.336,0,0,0-.5,1.559Zm6.691,8.7a3.442,3.442,0,0,1,.979-2.525A3.381,3.381,0,0,1,154.3-7.7a3.412,3.412,0,0,1,2.52.984A3.532,3.532,0,0,1,157.8-4.1v.832a3.442,3.442,0,0,1-.979,2.525,3.367,3.367,0,0,1-2.5.99,3.447,3.447,0,0,1-2.52-.979,3.49,3.49,0,0,1-1-2.607Zm1.617.914a2.226,2.226,0,0,0,.516,1.518,1.742,1.742,0,0,0,1.383.592,1.7,1.7,0,0,0,1.348-.58,2.321,2.321,0,0,0,.5-1.576v-.867a2.22,2.22,0,0,0-.51-1.512,1.719,1.719,0,0,0-1.365-.586,1.735,1.735,0,0,0-1.354.58,2.253,2.253,0,0,0-.521,1.564Zm-5.918,1.98-1.23-.773L153.609-15.4l1.23.773Z" transform="translate(1390 1354)"/>
  <path id="Path_646" data-name="Path 646" class="cls-7" d="M7.008-7.605A10.58,10.58,0,0,1,2.795-9.65a3.907,3.907,0,0,1-1.318-2.994,4.127,4.127,0,0,1,1.611-3.334A6.4,6.4,0,0,1,7.277-17.3a6.99,6.99,0,0,1,3.135.68,5.154,5.154,0,0,1,2.133,1.875,4.8,4.8,0,0,1,.756,2.613H11.039a3.1,3.1,0,0,0-.984-2.432,4.012,4.012,0,0,0-2.777-.885,4.1,4.1,0,0,0-2.6.732A2.442,2.442,0,0,0,3.75-12.68a2.2,2.2,0,0,0,.885,1.764A8.685,8.685,0,0,0,7.646-9.6a13.947,13.947,0,0,1,3.328,1.318A5.05,5.05,0,0,1,12.756-6.6a4.292,4.292,0,0,1,.58,2.262,3.987,3.987,0,0,1-1.617,3.322A6.9,6.9,0,0,1,7.395.234,8.02,8.02,0,0,1,4.113-.439a5.522,5.522,0,0,1-2.35-1.846,4.5,4.5,0,0,1-.826-2.66H3.2A2.939,2.939,0,0,0,4.342-2.5a4.811,4.811,0,0,0,3.053.9,4.423,4.423,0,0,0,2.73-.727,2.36,2.36,0,0,0,.949-1.98A2.317,2.317,0,0,0,10.2-6.252,10.133,10.133,0,0,0,7.008-7.605Zm13.957,6.07a3.123,3.123,0,0,0,2.027-.7A2.474,2.474,0,0,0,23.953-4H26a3.931,3.931,0,0,1-.75,2.074,4.94,4.94,0,0,1-1.846,1.57,5.326,5.326,0,0,1-2.443.586,5.223,5.223,0,0,1-4.119-1.729,6.884,6.884,0,0,1-1.529-4.729v-.363A7.634,7.634,0,0,1,16-9.879a5.177,5.177,0,0,1,1.951-2.238,5.543,5.543,0,0,1,3.006-.8A5.085,5.085,0,0,1,24.5-11.637,4.565,4.565,0,0,1,26-8.32H23.953a2.988,2.988,0,0,0-.932-2.021,2.9,2.9,0,0,0-2.068-.791,3.034,3.034,0,0,0-2.561,1.189A5.586,5.586,0,0,0,17.484-6.5v.41a5.475,5.475,0,0,0,.9,3.375A3.049,3.049,0,0,0,20.965-1.535Zm6.9-4.922A7.489,7.489,0,0,1,28.6-9.809a5.464,5.464,0,0,1,2.039-2.3,5.551,5.551,0,0,1,2.982-.809,5.347,5.347,0,0,1,4.189,1.793,6.9,6.9,0,0,1,1.6,4.77V-6.2A7.555,7.555,0,0,1,38.7-2.877,5.383,5.383,0,0,1,36.674-.586a5.614,5.614,0,0,1-3.029.82,5.334,5.334,0,0,1-4.178-1.793,6.863,6.863,0,0,1-1.6-4.746Zm2.18.258a5.424,5.424,0,0,0,.979,3.387,3.132,3.132,0,0,0,2.619,1.277A3.113,3.113,0,0,0,36.27-2.83a5.932,5.932,0,0,0,.973-3.627,5.415,5.415,0,0,0-.99-3.381,3.148,3.148,0,0,0-2.631-1.295,3.113,3.113,0,0,0-2.59,1.277A5.888,5.888,0,0,0,30.047-6.2Zm18.211-4.535a6.5,6.5,0,0,0-1.066-.082A2.857,2.857,0,0,0,44.3-9V0H42.129V-12.68h2.109l.035,1.465a3.376,3.376,0,0,1,3.023-1.7,2.215,2.215,0,0,1,.961.164ZM55.512.234a5.54,5.54,0,0,1-4.2-1.693A6.285,6.285,0,0,1,49.7-5.988v-.4a7.609,7.609,0,0,1,.721-3.369,5.622,5.622,0,0,1,2.016-2.32,5.068,5.068,0,0,1,2.807-.838,4.749,4.749,0,0,1,3.844,1.629,7.053,7.053,0,0,1,1.371,4.664v.9h-8.59a4.507,4.507,0,0,0,1.1,3.029,3.444,3.444,0,0,0,2.666,1.154A3.776,3.776,0,0,0,57.574-2a4.888,4.888,0,0,0,1.395-1.242l1.324,1.031A5.325,5.325,0,0,1,55.512.234Zm-.27-11.367a2.892,2.892,0,0,0-2.2.955,4.642,4.642,0,0,0-1.1,2.678h6.352v-.164a4.129,4.129,0,0,0-.891-2.561A2.723,2.723,0,0,0,55.242-11.133ZM76.992-7.5a5.3,5.3,0,0,1-1.623,1.3,4.4,4.4,0,0,1-2.068.492,4.546,4.546,0,0,1-2.572-.727,4.723,4.723,0,0,1-1.693-2.045,6.971,6.971,0,0,1-.6-2.912,7.1,7.1,0,0,1,.65-3.082,4.778,4.778,0,0,1,1.846-2.1,5.263,5.263,0,0,1,2.789-.727,4.765,4.765,0,0,1,3.99,1.893,8.255,8.255,0,0,1,1.459,5.162v.633q0,4.98-1.969,7.271T71.262.012H70.84V-1.816H71.3a5.961,5.961,0,0,0,4.125-1.4A6.016,6.016,0,0,0,76.992-7.5Zm-3.34,0a3.348,3.348,0,0,0,2.01-.668A3.938,3.938,0,0,0,77-9.82v-.867a5.966,5.966,0,0,0-.926-3.469,2.762,2.762,0,0,0-2.344-1.336,2.784,2.784,0,0,0-2.3,1.1,4.52,4.52,0,0,0-.867,2.889,4.7,4.7,0,0,0,.838,2.877A2.653,2.653,0,0,0,73.652-7.5Zm19.207.223a9.915,9.915,0,0,1-1.3,5.66A4.626,4.626,0,0,1,87.492.234a4.66,4.66,0,0,1-4.043-1.811A9.411,9.411,0,0,1,82.09-6.984V-9.879a9.7,9.7,0,0,1,1.3-5.59A4.662,4.662,0,0,1,87.469-17.3a4.7,4.7,0,0,1,4.055,1.764,9.356,9.356,0,0,1,1.336,5.443Zm-2.168-2.965a7.944,7.944,0,0,0-.773-4.014,2.662,2.662,0,0,0-2.449-1.26,2.627,2.627,0,0,0-2.426,1.254,7.756,7.756,0,0,0-.785,3.855v3.469a8.071,8.071,0,0,0,.8,4.084,2.657,2.657,0,0,0,2.432,1.318,2.621,2.621,0,0,0,2.385-1.242,7.779,7.779,0,0,0,.814-3.914Zm9.68,3.879H94.652v-1.77h5.719Zm10.2-1.137a5.3,5.3,0,0,1-1.623,1.3,4.4,4.4,0,0,1-2.068.492,4.546,4.546,0,0,1-2.572-.727,4.723,4.723,0,0,1-1.693-2.045,6.971,6.971,0,0,1-.6-2.912,7.1,7.1,0,0,1,.65-3.082,4.778,4.778,0,0,1,1.846-2.1A5.263,5.263,0,0,1,107.3-17.3a4.765,4.765,0,0,1,3.99,1.893,8.255,8.255,0,0,1,1.459,5.162v.633q0,4.98-1.969,7.271T104.836.012h-.422V-1.816h.457A5.961,5.961,0,0,0,109-3.217,6.016,6.016,0,0,0,110.566-7.5Zm-3.34,0a3.348,3.348,0,0,0,2.01-.668,3.938,3.938,0,0,0,1.342-1.652v-.867a5.966,5.966,0,0,0-.926-3.469,2.762,2.762,0,0,0-2.344-1.336,2.784,2.784,0,0,0-2.3,1.1,4.52,4.52,0,0,0-.867,2.889,4.7,4.7,0,0,0,.838,2.877A2.653,2.653,0,0,0,107.227-7.5Zm9.5-1.055.867-8.508h8.742v2h-6.9l-.516,4.652a5.506,5.506,0,0,1,2.848-.738,4.707,4.707,0,0,1,3.7,1.541,6.04,6.04,0,0,1,1.371,4.166,5.829,5.829,0,0,1-1.424,4.154A5.19,5.19,0,0,1,121.441.234,5.393,5.393,0,0,1,117.75-1.02a5,5,0,0,1-1.629-3.469h2.051a3.443,3.443,0,0,0,1.043,2.209,3.243,3.243,0,0,0,2.227.744,2.925,2.925,0,0,0,2.373-1.031,4.311,4.311,0,0,0,.861-2.848,3.957,3.957,0,0,0-.932-2.748A3.169,3.169,0,0,0,121.266-9.2a3.574,3.574,0,0,0-2.227.621l-.574.469Zm12.293-5.227A3.462,3.462,0,0,1,130-16.312a3.371,3.371,0,0,1,2.514-1,3.351,3.351,0,0,1,2.525,1,3.582,3.582,0,0,1,.967,2.6v.832a3.418,3.418,0,0,1-.979,2.525,3.373,3.373,0,0,1-2.49.979,3.447,3.447,0,0,1-2.52-.979,3.49,3.49,0,0,1-1-2.607Zm1.617.9a2.209,2.209,0,0,0,.516,1.506,1.742,1.742,0,0,0,1.383.592,1.708,1.708,0,0,0,1.342-.574,2.281,2.281,0,0,0,.51-1.57v-.855a2.264,2.264,0,0,0-.5-1.512,1.7,1.7,0,0,0-1.371-.6,1.7,1.7,0,0,0-1.371.6,2.336,2.336,0,0,0-.5,1.559Zm6.691,8.7a3.442,3.442,0,0,1,.979-2.525,3.381,3.381,0,0,1,2.514-.99,3.412,3.412,0,0,1,2.52.984,3.532,3.532,0,0,1,.984,2.613v.832a3.442,3.442,0,0,1-.979,2.525,3.367,3.367,0,0,1-2.5.99,3.447,3.447,0,0,1-2.52-.979,3.49,3.49,0,0,1-1-2.607Zm1.617.914a2.226,2.226,0,0,0,.516,1.518,1.742,1.742,0,0,0,1.383.592,1.7,1.7,0,0,0,1.348-.58,2.321,2.321,0,0,0,.5-1.576v-.867a2.22,2.22,0,0,0-.51-1.512,1.719,1.719,0,0,0-1.365-.586,1.735,1.735,0,0,0-1.354.58,2.253,2.253,0,0,0-.521,1.564Zm-5.918,1.98-1.23-.773L140.133-15.4l1.23.773Z" transform="translate(1390 1402)"/>
  <path id="Path_647" data-name="Path 647" class="cls-7" d="M7.008-7.605A10.58,10.58,0,0,1,2.795-9.65a3.907,3.907,0,0,1-1.318-2.994,4.127,4.127,0,0,1,1.611-3.334A6.4,6.4,0,0,1,7.277-17.3a6.99,6.99,0,0,1,3.135.68,5.154,5.154,0,0,1,2.133,1.875,4.8,4.8,0,0,1,.756,2.613H11.039a3.1,3.1,0,0,0-.984-2.432,4.012,4.012,0,0,0-2.777-.885,4.1,4.1,0,0,0-2.6.732A2.442,2.442,0,0,0,3.75-12.68a2.2,2.2,0,0,0,.885,1.764A8.685,8.685,0,0,0,7.646-9.6a13.947,13.947,0,0,1,3.328,1.318A5.05,5.05,0,0,1,12.756-6.6a4.292,4.292,0,0,1,.58,2.262,3.987,3.987,0,0,1-1.617,3.322A6.9,6.9,0,0,1,7.395.234,8.02,8.02,0,0,1,4.113-.439a5.522,5.522,0,0,1-2.35-1.846,4.5,4.5,0,0,1-.826-2.66H3.2A2.939,2.939,0,0,0,4.342-2.5a4.811,4.811,0,0,0,3.053.9,4.423,4.423,0,0,0,2.73-.727,2.36,2.36,0,0,0,.949-1.98A2.317,2.317,0,0,0,10.2-6.252,10.133,10.133,0,0,0,7.008-7.605Zm13.957,6.07a3.123,3.123,0,0,0,2.027-.7A2.474,2.474,0,0,0,23.953-4H26a3.931,3.931,0,0,1-.75,2.074,4.94,4.94,0,0,1-1.846,1.57,5.326,5.326,0,0,1-2.443.586,5.223,5.223,0,0,1-4.119-1.729,6.884,6.884,0,0,1-1.529-4.729v-.363A7.634,7.634,0,0,1,16-9.879a5.177,5.177,0,0,1,1.951-2.238,5.543,5.543,0,0,1,3.006-.8A5.085,5.085,0,0,1,24.5-11.637,4.565,4.565,0,0,1,26-8.32H23.953a2.988,2.988,0,0,0-.932-2.021,2.9,2.9,0,0,0-2.068-.791,3.034,3.034,0,0,0-2.561,1.189A5.586,5.586,0,0,0,17.484-6.5v.41a5.475,5.475,0,0,0,.9,3.375A3.049,3.049,0,0,0,20.965-1.535Zm6.9-4.922A7.489,7.489,0,0,1,28.6-9.809a5.464,5.464,0,0,1,2.039-2.3,5.551,5.551,0,0,1,2.982-.809,5.347,5.347,0,0,1,4.189,1.793,6.9,6.9,0,0,1,1.6,4.77V-6.2A7.555,7.555,0,0,1,38.7-2.877,5.383,5.383,0,0,1,36.674-.586a5.614,5.614,0,0,1-3.029.82,5.334,5.334,0,0,1-4.178-1.793,6.863,6.863,0,0,1-1.6-4.746Zm2.18.258a5.424,5.424,0,0,0,.979,3.387,3.132,3.132,0,0,0,2.619,1.277A3.113,3.113,0,0,0,36.27-2.83a5.932,5.932,0,0,0,.973-3.627,5.415,5.415,0,0,0-.99-3.381,3.148,3.148,0,0,0-2.631-1.295,3.113,3.113,0,0,0-2.59,1.277A5.888,5.888,0,0,0,30.047-6.2Zm18.211-4.535a6.5,6.5,0,0,0-1.066-.082A2.857,2.857,0,0,0,44.3-9V0H42.129V-12.68h2.109l.035,1.465a3.376,3.376,0,0,1,3.023-1.7,2.215,2.215,0,0,1,.961.164ZM55.512.234a5.54,5.54,0,0,1-4.2-1.693A6.285,6.285,0,0,1,49.7-5.988v-.4a7.609,7.609,0,0,1,.721-3.369,5.622,5.622,0,0,1,2.016-2.32,5.068,5.068,0,0,1,2.807-.838,4.749,4.749,0,0,1,3.844,1.629,7.053,7.053,0,0,1,1.371,4.664v.9h-8.59a4.507,4.507,0,0,0,1.1,3.029,3.444,3.444,0,0,0,2.666,1.154A3.776,3.776,0,0,0,57.574-2a4.888,4.888,0,0,0,1.395-1.242l1.324,1.031A5.325,5.325,0,0,1,55.512.234Zm-.27-11.367a2.892,2.892,0,0,0-2.2.955,4.642,4.642,0,0,0-1.1,2.678h6.352v-.164a4.129,4.129,0,0,0-.891-2.561A2.723,2.723,0,0,0,55.242-11.133Zm23.789-1.477a3.962,3.962,0,0,1-.674,2.273,4.585,4.585,0,0,1-1.822,1.559A4.89,4.89,0,0,1,78.65-7.1a4.217,4.217,0,0,1,.779,2.5,4.459,4.459,0,0,1-1.494,3.527A5.74,5.74,0,0,1,74,.234a5.715,5.715,0,0,1-3.943-1.318,4.479,4.479,0,0,1-1.482-3.521,4.343,4.343,0,0,1,.756-2.5,4.7,4.7,0,0,1,2.092-1.687,4.472,4.472,0,0,1-1.793-1.559,4.019,4.019,0,0,1-.656-2.262,4.41,4.41,0,0,1,1.383-3.422A5.187,5.187,0,0,1,74-17.3a5.192,5.192,0,0,1,3.639,1.266A4.4,4.4,0,0,1,79.031-12.609Zm-1.77,7.957a3.145,3.145,0,0,0-.908-2.332,3.221,3.221,0,0,0-2.373-.9A3.164,3.164,0,0,0,71.631-7a3.18,3.18,0,0,0-.885,2.344,3.029,3.029,0,0,0,.861,2.285,3.306,3.306,0,0,0,2.4.832,3.3,3.3,0,0,0,2.391-.838A3.022,3.022,0,0,0,77.262-4.652ZM74-15.516a2.8,2.8,0,0,0-2.068.791,2.906,2.906,0,0,0-.791,2.15,2.892,2.892,0,0,0,.779,2.1,2.766,2.766,0,0,0,2.08.8,2.766,2.766,0,0,0,2.08-.8,2.892,2.892,0,0,0,.779-2.1,2.893,2.893,0,0,0-.809-2.121A2.758,2.758,0,0,0,74-15.516ZM92.859-7.277a9.915,9.915,0,0,1-1.3,5.66A4.626,4.626,0,0,1,87.492.234a4.66,4.66,0,0,1-4.043-1.811A9.411,9.411,0,0,1,82.09-6.984V-9.879a9.7,9.7,0,0,1,1.3-5.59A4.662,4.662,0,0,1,87.469-17.3a4.7,4.7,0,0,1,4.055,1.764,9.356,9.356,0,0,1,1.336,5.443Zm-2.168-2.965a7.944,7.944,0,0,0-.773-4.014,2.662,2.662,0,0,0-2.449-1.26,2.627,2.627,0,0,0-2.426,1.254,7.756,7.756,0,0,0-.785,3.855v3.469a8.071,8.071,0,0,0,.8,4.084,2.657,2.657,0,0,0,2.432,1.318,2.621,2.621,0,0,0,2.385-1.242,7.779,7.779,0,0,0,.814-3.914Zm9.68,3.879H94.652v-1.77h5.719Zm10.2-1.137a5.3,5.3,0,0,1-1.623,1.3,4.4,4.4,0,0,1-2.068.492,4.546,4.546,0,0,1-2.572-.727,4.723,4.723,0,0,1-1.693-2.045,6.971,6.971,0,0,1-.6-2.912,7.1,7.1,0,0,1,.65-3.082,4.778,4.778,0,0,1,1.846-2.1A5.263,5.263,0,0,1,107.3-17.3a4.765,4.765,0,0,1,3.99,1.893,8.255,8.255,0,0,1,1.459,5.162v.633q0,4.98-1.969,7.271T104.836.012h-.422V-1.816h.457A5.961,5.961,0,0,0,109-3.217,6.016,6.016,0,0,0,110.566-7.5Zm-3.34,0a3.348,3.348,0,0,0,2.01-.668,3.938,3.938,0,0,0,1.342-1.652v-.867a5.966,5.966,0,0,0-.926-3.469,2.762,2.762,0,0,0-2.344-1.336,2.784,2.784,0,0,0-2.3,1.1,4.52,4.52,0,0,0-.867,2.889,4.7,4.7,0,0,0,.838,2.877A2.653,2.653,0,0,0,107.227-7.5Zm19.207.223a9.915,9.915,0,0,1-1.3,5.66A4.626,4.626,0,0,1,121.066.234a4.66,4.66,0,0,1-4.043-1.811,9.411,9.411,0,0,1-1.359-5.408V-9.879a9.7,9.7,0,0,1,1.3-5.59,4.662,4.662,0,0,1,4.078-1.828,4.7,4.7,0,0,1,4.055,1.764,9.356,9.356,0,0,1,1.336,5.443Zm-2.168-2.965a7.944,7.944,0,0,0-.773-4.014,2.662,2.662,0,0,0-2.449-1.26,2.627,2.627,0,0,0-2.426,1.254,7.756,7.756,0,0,0-.785,3.855v3.469a8.071,8.071,0,0,0,.8,4.084,2.657,2.657,0,0,0,2.432,1.318,2.621,2.621,0,0,0,2.385-1.242,7.779,7.779,0,0,0,.814-3.914Zm4.758-3.539A3.462,3.462,0,0,1,130-16.312a3.371,3.371,0,0,1,2.514-1,3.351,3.351,0,0,1,2.525,1,3.582,3.582,0,0,1,.967,2.6v.832a3.418,3.418,0,0,1-.979,2.525,3.373,3.373,0,0,1-2.49.979,3.447,3.447,0,0,1-2.52-.979,3.49,3.49,0,0,1-1-2.607Zm1.617.9a2.209,2.209,0,0,0,.516,1.506,1.742,1.742,0,0,0,1.383.592,1.708,1.708,0,0,0,1.342-.574,2.281,2.281,0,0,0,.51-1.57v-.855a2.264,2.264,0,0,0-.5-1.512,1.7,1.7,0,0,0-1.371-.6,1.7,1.7,0,0,0-1.371.6,2.336,2.336,0,0,0-.5,1.559Zm6.691,8.7a3.442,3.442,0,0,1,.979-2.525,3.381,3.381,0,0,1,2.514-.99,3.412,3.412,0,0,1,2.52.984,3.532,3.532,0,0,1,.984,2.613v.832a3.442,3.442,0,0,1-.979,2.525,3.367,3.367,0,0,1-2.5.99,3.447,3.447,0,0,1-2.52-.979,3.49,3.49,0,0,1-1-2.607Zm1.617.914a2.226,2.226,0,0,0,.516,1.518,1.742,1.742,0,0,0,1.383.592,1.7,1.7,0,0,0,1.348-.58,2.321,2.321,0,0,0,.5-1.576v-.867a2.22,2.22,0,0,0-.51-1.512,1.719,1.719,0,0,0-1.365-.586,1.735,1.735,0,0,0-1.354.58,2.253,2.253,0,0,0-.521,1.564Zm-5.918,1.98-1.23-.773L140.133-15.4l1.23.773Z" transform="translate(1390 1450)"/>
  <path id="Path_648" data-name="Path 648" class="cls-7" d="M7.008-7.605A10.58,10.58,0,0,1,2.795-9.65a3.907,3.907,0,0,1-1.318-2.994,4.127,4.127,0,0,1,1.611-3.334A6.4,6.4,0,0,1,7.277-17.3a6.99,6.99,0,0,1,3.135.68,5.154,5.154,0,0,1,2.133,1.875,4.8,4.8,0,0,1,.756,2.613H11.039a3.1,3.1,0,0,0-.984-2.432,4.012,4.012,0,0,0-2.777-.885,4.1,4.1,0,0,0-2.6.732A2.442,2.442,0,0,0,3.75-12.68a2.2,2.2,0,0,0,.885,1.764A8.685,8.685,0,0,0,7.646-9.6a13.947,13.947,0,0,1,3.328,1.318A5.05,5.05,0,0,1,12.756-6.6a4.292,4.292,0,0,1,.58,2.262,3.987,3.987,0,0,1-1.617,3.322A6.9,6.9,0,0,1,7.395.234,8.02,8.02,0,0,1,4.113-.439a5.522,5.522,0,0,1-2.35-1.846,4.5,4.5,0,0,1-.826-2.66H3.2A2.939,2.939,0,0,0,4.342-2.5a4.811,4.811,0,0,0,3.053.9,4.423,4.423,0,0,0,2.73-.727,2.36,2.36,0,0,0,.949-1.98A2.317,2.317,0,0,0,10.2-6.252,10.133,10.133,0,0,0,7.008-7.605Zm13.957,6.07a3.123,3.123,0,0,0,2.027-.7A2.474,2.474,0,0,0,23.953-4H26a3.931,3.931,0,0,1-.75,2.074,4.94,4.94,0,0,1-1.846,1.57,5.326,5.326,0,0,1-2.443.586,5.223,5.223,0,0,1-4.119-1.729,6.884,6.884,0,0,1-1.529-4.729v-.363A7.634,7.634,0,0,1,16-9.879a5.177,5.177,0,0,1,1.951-2.238,5.543,5.543,0,0,1,3.006-.8A5.085,5.085,0,0,1,24.5-11.637,4.565,4.565,0,0,1,26-8.32H23.953a2.988,2.988,0,0,0-.932-2.021,2.9,2.9,0,0,0-2.068-.791,3.034,3.034,0,0,0-2.561,1.189A5.586,5.586,0,0,0,17.484-6.5v.41a5.475,5.475,0,0,0,.9,3.375A3.049,3.049,0,0,0,20.965-1.535Zm6.9-4.922A7.489,7.489,0,0,1,28.6-9.809a5.464,5.464,0,0,1,2.039-2.3,5.551,5.551,0,0,1,2.982-.809,5.347,5.347,0,0,1,4.189,1.793,6.9,6.9,0,0,1,1.6,4.77V-6.2A7.555,7.555,0,0,1,38.7-2.877,5.383,5.383,0,0,1,36.674-.586a5.614,5.614,0,0,1-3.029.82,5.334,5.334,0,0,1-4.178-1.793,6.863,6.863,0,0,1-1.6-4.746Zm2.18.258a5.424,5.424,0,0,0,.979,3.387,3.132,3.132,0,0,0,2.619,1.277A3.113,3.113,0,0,0,36.27-2.83a5.932,5.932,0,0,0,.973-3.627,5.415,5.415,0,0,0-.99-3.381,3.148,3.148,0,0,0-2.631-1.295,3.113,3.113,0,0,0-2.59,1.277A5.888,5.888,0,0,0,30.047-6.2Zm18.211-4.535a6.5,6.5,0,0,0-1.066-.082A2.857,2.857,0,0,0,44.3-9V0H42.129V-12.68h2.109l.035,1.465a3.376,3.376,0,0,1,3.023-1.7,2.215,2.215,0,0,1,.961.164ZM55.512.234a5.54,5.54,0,0,1-4.2-1.693A6.285,6.285,0,0,1,49.7-5.988v-.4a7.609,7.609,0,0,1,.721-3.369,5.622,5.622,0,0,1,2.016-2.32,5.068,5.068,0,0,1,2.807-.838,4.749,4.749,0,0,1,3.844,1.629,7.053,7.053,0,0,1,1.371,4.664v.9h-8.59a4.507,4.507,0,0,0,1.1,3.029,3.444,3.444,0,0,0,2.666,1.154A3.776,3.776,0,0,0,57.574-2a4.888,4.888,0,0,0,1.395-1.242l1.324,1.031A5.325,5.325,0,0,1,55.512.234Zm-.27-11.367a2.892,2.892,0,0,0-2.2.955,4.642,4.642,0,0,0-1.1,2.678h6.352v-.164a4.129,4.129,0,0,0-.891-2.561A2.723,2.723,0,0,0,55.242-11.133ZM79.7-15.844,72.633,0H70.359L77.4-15.281H68.168v-1.781H79.7Zm13.16,8.566a9.915,9.915,0,0,1-1.3,5.66A4.626,4.626,0,0,1,87.492.234a4.66,4.66,0,0,1-4.043-1.811A9.411,9.411,0,0,1,82.09-6.984V-9.879a9.7,9.7,0,0,1,1.3-5.59A4.662,4.662,0,0,1,87.469-17.3a4.7,4.7,0,0,1,4.055,1.764,9.356,9.356,0,0,1,1.336,5.443Zm-2.168-2.965a7.944,7.944,0,0,0-.773-4.014,2.662,2.662,0,0,0-2.449-1.26,2.627,2.627,0,0,0-2.426,1.254,7.756,7.756,0,0,0-.785,3.855v3.469a8.071,8.071,0,0,0,.8,4.084,2.657,2.657,0,0,0,2.432,1.318,2.621,2.621,0,0,0,2.385-1.242,7.779,7.779,0,0,0,.814-3.914Zm9.68,3.879H94.652v-1.77h5.719Zm12.234-6.246a3.962,3.962,0,0,1-.674,2.273,4.585,4.585,0,0,1-1.822,1.559A4.89,4.89,0,0,1,112.225-7.1a4.217,4.217,0,0,1,.779,2.5,4.459,4.459,0,0,1-1.494,3.527A5.74,5.74,0,0,1,107.578.234a5.715,5.715,0,0,1-3.943-1.318,4.479,4.479,0,0,1-1.482-3.521,4.343,4.343,0,0,1,.756-2.5A4.7,4.7,0,0,1,105-8.789a4.472,4.472,0,0,1-1.793-1.559,4.019,4.019,0,0,1-.656-2.262,4.41,4.41,0,0,1,1.383-3.422,5.187,5.187,0,0,1,3.645-1.266,5.192,5.192,0,0,1,3.639,1.266A4.4,4.4,0,0,1,112.605-12.609Zm-1.77,7.957a3.145,3.145,0,0,0-.908-2.332,3.221,3.221,0,0,0-2.373-.9,3.164,3.164,0,0,0-2.35.891,3.18,3.18,0,0,0-.885,2.344,3.029,3.029,0,0,0,.861,2.285,3.306,3.306,0,0,0,2.4.832,3.3,3.3,0,0,0,2.391-.838A3.022,3.022,0,0,0,110.836-4.652Zm-3.258-10.863a2.8,2.8,0,0,0-2.068.791,2.906,2.906,0,0,0-.791,2.15,2.892,2.892,0,0,0,.779,2.1,2.766,2.766,0,0,0,2.08.8,2.766,2.766,0,0,0,2.08-.8,2.892,2.892,0,0,0,.779-2.1,2.893,2.893,0,0,0-.809-2.121A2.758,2.758,0,0,0,107.578-15.516Zm18.855,8.238a9.915,9.915,0,0,1-1.3,5.66A4.626,4.626,0,0,1,121.066.234a4.66,4.66,0,0,1-4.043-1.811,9.411,9.411,0,0,1-1.359-5.408V-9.879a9.7,9.7,0,0,1,1.3-5.59,4.662,4.662,0,0,1,4.078-1.828,4.7,4.7,0,0,1,4.055,1.764,9.356,9.356,0,0,1,1.336,5.443Zm-2.168-2.965a7.944,7.944,0,0,0-.773-4.014,2.662,2.662,0,0,0-2.449-1.26,2.627,2.627,0,0,0-2.426,1.254,7.756,7.756,0,0,0-.785,3.855v3.469a8.071,8.071,0,0,0,.8,4.084,2.657,2.657,0,0,0,2.432,1.318,2.621,2.621,0,0,0,2.385-1.242,7.779,7.779,0,0,0,.814-3.914Zm4.758-3.539A3.462,3.462,0,0,1,130-16.312a3.371,3.371,0,0,1,2.514-1,3.351,3.351,0,0,1,2.525,1,3.582,3.582,0,0,1,.967,2.6v.832a3.418,3.418,0,0,1-.979,2.525,3.373,3.373,0,0,1-2.49.979,3.447,3.447,0,0,1-2.52-.979,3.49,3.49,0,0,1-1-2.607Zm1.617.9a2.209,2.209,0,0,0,.516,1.506,1.742,1.742,0,0,0,1.383.592,1.708,1.708,0,0,0,1.342-.574,2.281,2.281,0,0,0,.51-1.57v-.855a2.264,2.264,0,0,0-.5-1.512,1.7,1.7,0,0,0-1.371-.6,1.7,1.7,0,0,0-1.371.6,2.336,2.336,0,0,0-.5,1.559Zm6.691,8.7a3.442,3.442,0,0,1,.979-2.525,3.381,3.381,0,0,1,2.514-.99,3.412,3.412,0,0,1,2.52.984,3.532,3.532,0,0,1,.984,2.613v.832a3.442,3.442,0,0,1-.979,2.525,3.367,3.367,0,0,1-2.5.99,3.447,3.447,0,0,1-2.52-.979,3.49,3.49,0,0,1-1-2.607Zm1.617.914a2.226,2.226,0,0,0,.516,1.518,1.742,1.742,0,0,0,1.383.592,1.7,1.7,0,0,0,1.348-.58,2.321,2.321,0,0,0,.5-1.576v-.867a2.22,2.22,0,0,0-.51-1.512,1.719,1.719,0,0,0-1.365-.586,1.735,1.735,0,0,0-1.354.58,2.253,2.253,0,0,0-.521,1.564Zm-5.918,1.98-1.23-.773L140.133-15.4l1.23.773Z" transform="translate(1390 1503)"/>
  <path id="Path_649" data-name="Path 649" class="cls-7" d="M7.008-7.605A10.58,10.58,0,0,1,2.795-9.65a3.907,3.907,0,0,1-1.318-2.994,4.127,4.127,0,0,1,1.611-3.334A6.4,6.4,0,0,1,7.277-17.3a6.99,6.99,0,0,1,3.135.68,5.154,5.154,0,0,1,2.133,1.875,4.8,4.8,0,0,1,.756,2.613H11.039a3.1,3.1,0,0,0-.984-2.432,4.012,4.012,0,0,0-2.777-.885,4.1,4.1,0,0,0-2.6.732A2.442,2.442,0,0,0,3.75-12.68a2.2,2.2,0,0,0,.885,1.764A8.685,8.685,0,0,0,7.646-9.6a13.947,13.947,0,0,1,3.328,1.318A5.05,5.05,0,0,1,12.756-6.6a4.292,4.292,0,0,1,.58,2.262,3.987,3.987,0,0,1-1.617,3.322A6.9,6.9,0,0,1,7.395.234,8.02,8.02,0,0,1,4.113-.439a5.522,5.522,0,0,1-2.35-1.846,4.5,4.5,0,0,1-.826-2.66H3.2A2.939,2.939,0,0,0,4.342-2.5a4.811,4.811,0,0,0,3.053.9,4.423,4.423,0,0,0,2.73-.727,2.36,2.36,0,0,0,.949-1.98A2.317,2.317,0,0,0,10.2-6.252,10.133,10.133,0,0,0,7.008-7.605Zm13.957,6.07a3.123,3.123,0,0,0,2.027-.7A2.474,2.474,0,0,0,23.953-4H26a3.931,3.931,0,0,1-.75,2.074,4.94,4.94,0,0,1-1.846,1.57,5.326,5.326,0,0,1-2.443.586,5.223,5.223,0,0,1-4.119-1.729,6.884,6.884,0,0,1-1.529-4.729v-.363A7.634,7.634,0,0,1,16-9.879a5.177,5.177,0,0,1,1.951-2.238,5.543,5.543,0,0,1,3.006-.8A5.085,5.085,0,0,1,24.5-11.637,4.565,4.565,0,0,1,26-8.32H23.953a2.988,2.988,0,0,0-.932-2.021,2.9,2.9,0,0,0-2.068-.791,3.034,3.034,0,0,0-2.561,1.189A5.586,5.586,0,0,0,17.484-6.5v.41a5.475,5.475,0,0,0,.9,3.375A3.049,3.049,0,0,0,20.965-1.535Zm6.9-4.922A7.489,7.489,0,0,1,28.6-9.809a5.464,5.464,0,0,1,2.039-2.3,5.551,5.551,0,0,1,2.982-.809,5.347,5.347,0,0,1,4.189,1.793,6.9,6.9,0,0,1,1.6,4.77V-6.2A7.555,7.555,0,0,1,38.7-2.877,5.383,5.383,0,0,1,36.674-.586a5.614,5.614,0,0,1-3.029.82,5.334,5.334,0,0,1-4.178-1.793,6.863,6.863,0,0,1-1.6-4.746Zm2.18.258a5.424,5.424,0,0,0,.979,3.387,3.132,3.132,0,0,0,2.619,1.277A3.113,3.113,0,0,0,36.27-2.83a5.932,5.932,0,0,0,.973-3.627,5.415,5.415,0,0,0-.99-3.381,3.148,3.148,0,0,0-2.631-1.295,3.113,3.113,0,0,0-2.59,1.277A5.888,5.888,0,0,0,30.047-6.2Zm18.211-4.535a6.5,6.5,0,0,0-1.066-.082A2.857,2.857,0,0,0,44.3-9V0H42.129V-12.68h2.109l.035,1.465a3.376,3.376,0,0,1,3.023-1.7,2.215,2.215,0,0,1,.961.164ZM55.512.234a5.54,5.54,0,0,1-4.2-1.693A6.285,6.285,0,0,1,49.7-5.988v-.4a7.609,7.609,0,0,1,.721-3.369,5.622,5.622,0,0,1,2.016-2.32,5.068,5.068,0,0,1,2.807-.838,4.749,4.749,0,0,1,3.844,1.629,7.053,7.053,0,0,1,1.371,4.664v.9h-8.59a4.507,4.507,0,0,0,1.1,3.029,3.444,3.444,0,0,0,2.666,1.154A3.776,3.776,0,0,0,57.574-2a4.888,4.888,0,0,0,1.395-1.242l1.324,1.031A5.325,5.325,0,0,1,55.512.234Zm-.27-11.367a2.892,2.892,0,0,0-2.2.955,4.642,4.642,0,0,0-1.1,2.678h6.352v-.164a4.129,4.129,0,0,0-.891-2.561A2.723,2.723,0,0,0,55.242-11.133ZM79.383-7.277a9.915,9.915,0,0,1-1.3,5.66A4.626,4.626,0,0,1,74.016.234a4.66,4.66,0,0,1-4.043-1.811,9.411,9.411,0,0,1-1.359-5.408V-9.879a9.7,9.7,0,0,1,1.3-5.59A4.662,4.662,0,0,1,73.992-17.3a4.7,4.7,0,0,1,4.055,1.764,9.356,9.356,0,0,1,1.336,5.443Zm-2.168-2.965a7.944,7.944,0,0,0-.773-4.014,2.662,2.662,0,0,0-2.449-1.26,2.627,2.627,0,0,0-2.426,1.254,7.756,7.756,0,0,0-.785,3.855v3.469a8.071,8.071,0,0,0,.8,4.084,2.657,2.657,0,0,0,2.432,1.318A2.621,2.621,0,0,0,76.4-2.777a7.779,7.779,0,0,0,.814-3.914Zm9.68,3.879H81.176v-1.77h5.719Zm12.9-9.48L92.73,0H90.457L97.5-15.281H88.266v-1.781H99.8Zm13.16,8.566a9.915,9.915,0,0,1-1.3,5.66A4.626,4.626,0,0,1,107.59.234a4.66,4.66,0,0,1-4.043-1.811,9.411,9.411,0,0,1-1.359-5.408V-9.879a9.7,9.7,0,0,1,1.3-5.59,4.662,4.662,0,0,1,4.078-1.828,4.7,4.7,0,0,1,4.055,1.764,9.356,9.356,0,0,1,1.336,5.443Zm-2.168-2.965a7.944,7.944,0,0,0-.773-4.014,2.662,2.662,0,0,0-2.449-1.26,2.627,2.627,0,0,0-2.426,1.254,7.756,7.756,0,0,0-.785,3.855v3.469a8.071,8.071,0,0,0,.8,4.084,2.657,2.657,0,0,0,2.432,1.318,2.621,2.621,0,0,0,2.385-1.242,7.779,7.779,0,0,0,.814-3.914Zm4.758-3.539a3.462,3.462,0,0,1,.979-2.531,3.371,3.371,0,0,1,2.514-1,3.351,3.351,0,0,1,2.525,1,3.582,3.582,0,0,1,.967,2.6v.832a3.418,3.418,0,0,1-.979,2.525,3.373,3.373,0,0,1-2.49.979,3.447,3.447,0,0,1-2.52-.979,3.49,3.49,0,0,1-1-2.607Zm1.617.9a2.209,2.209,0,0,0,.516,1.506,1.742,1.742,0,0,0,1.383.592,1.708,1.708,0,0,0,1.342-.574,2.281,2.281,0,0,0,.51-1.57v-.855a2.264,2.264,0,0,0-.5-1.512,1.7,1.7,0,0,0-1.371-.6,1.7,1.7,0,0,0-1.371.6,2.336,2.336,0,0,0-.5,1.559Zm6.691,8.7a3.442,3.442,0,0,1,.979-2.525,3.381,3.381,0,0,1,2.514-.99,3.412,3.412,0,0,1,2.52.984,3.532,3.532,0,0,1,.984,2.613v.832a3.442,3.442,0,0,1-.979,2.525,3.367,3.367,0,0,1-2.5.99,3.447,3.447,0,0,1-2.52-.979,3.49,3.49,0,0,1-1-2.607Zm1.617.914a2.226,2.226,0,0,0,.516,1.518,1.742,1.742,0,0,0,1.383.592,1.7,1.7,0,0,0,1.348-.58,2.321,2.321,0,0,0,.5-1.576v-.867a2.22,2.22,0,0,0-.51-1.512,1.719,1.719,0,0,0-1.365-.586,1.735,1.735,0,0,0-1.354.58,2.253,2.253,0,0,0-.521,1.564Zm-5.918,1.98-1.23-.773L126.656-15.4l1.23.773Z" transform="translate(1390 1551)"/>
</svg>
