<svg xmlns="http://www.w3.org/2000/svg" viewBox="0 0 197 33.791">
  <defs>
    <style>
      .cls-1 {
        fill: #2b5688;
      }

      .cls-2 {
        fill: #e94e60;
      }
    </style>
  </defs>
  <g id="Group_1407" data-name="Group 1407" transform="translate(-130.204 -66.168)">
    <path id="Path_10" data-name="Path 10" class="cls-1" d="M11.144,6.9H57.787L50.653,40.328,8.4,40.1,49.6,24.14s4.573-7.225.686-8.414L45.3,15.634s0-1.1-5.533-2.012Z" transform="translate(125.645 59.631)"/>
    <path id="Path_11" data-name="Path 11" class="cls-1" d="M5.213,24.5h29.77s4.664.686,4.3,1.783l4.984.457s2.012.686-.96,4.664l-.137.091.777-2.972-9.192.183,4.527-1.555-19.938-.457,3.2,9.1,9.512-3.43S37.5,29.942,41.7,30.49L41.8,31.5s-6.082,1.235-8.323,2.332c0,0-15.5,6.4-17.286,7.408L0,49.514Z" transform="translate(130.204 50.079)"/>
    <rect id="Rectangle_5" data-name="Rectangle 5" class="cls-2" width="140.113" height="2.469" transform="translate(187.091 81.758)"/>
    <path id="Path_12" data-name="Path 12" d="M11.934-14.766l1.281-6.048h2.01l-1.316,6.244a7.569,7.569,0,0,1-.925,2.428A6.47,6.47,0,0,1,11.569-10.5a5.549,5.549,0,0,1-1.654.943,4.973,4.973,0,0,1-1.645.3H6.882A3.541,3.541,0,0,1,5.69-9.474a3.346,3.346,0,0,1-1.138-.694,3.7,3.7,0,0,1-.854-1.21A4.18,4.18,0,0,1,3.36-13.13a7.23,7.23,0,0,1,.16-1.441l1.316-6.244H6.864L5.584-14.766a7.018,7.018,0,0,0-.16,1.387,2.363,2.363,0,0,0,.64,1.85,2.641,2.641,0,0,0,1.814.569h.107a3.7,3.7,0,0,0,2.473-.889A5.071,5.071,0,0,0,11.934-14.766Zm14.711-6.048L24.19-9.252H21.842l-3.5-8.343L16.559-9.252h-2.01L17-20.814H19.3l3.5,8.592,1.832-8.592Zm3.824,0H28.441L25.986-9.252h2.028Zm11.242,0-.356,1.708H37.638l-2.1,9.855h-2.01l2.1-9.855H31.91l.356-1.708Zm7.631,6.493H44.13L43.4-10.96h6.208l-.587,1.708H41.035L43.49-20.814h8.218l-.587,1.708H45.144l-.658,3.1h5.443ZM62.754-15.5l-.2.925a8.686,8.686,0,0,1-.863,2.428A6.045,6.045,0,0,1,60.4-10.5a4.849,4.849,0,0,1-1.628.943,5.708,5.708,0,0,1-1.85.3H51.032l2.455-11.562h5.888a3.806,3.806,0,0,1,1.272.222,3.3,3.3,0,0,1,1.138.685,3.4,3.4,0,0,1,.818,1.183,4.359,4.359,0,0,1,.311,1.734A7.836,7.836,0,0,1,62.754-15.5Zm-2.028.071a6.941,6.941,0,0,0,.142-1.174,2.944,2.944,0,0,0-.2-1.156,2.028,2.028,0,0,0-.569-.783,2.244,2.244,0,0,0-.854-.436,4.011,4.011,0,0,0-1.058-.133H55.141L53.4-10.96H56.44a4.329,4.329,0,0,0,1.361-.213,3.615,3.615,0,0,0,1.2-.676,4.28,4.28,0,0,0,.961-1.183,6.008,6.008,0,0,0,.623-1.734ZM70.67-9.252h5.923a2.134,2.134,0,0,0,.916-.2,2.387,2.387,0,0,0,.729-.525,3.193,3.193,0,0,0,.525-.747,3.364,3.364,0,0,0,.3-.845,1.77,1.77,0,0,0,.027-.187q.009-.1.009-.187a2.511,2.511,0,0,0-.329-1.21,6.814,6.814,0,0,0-.836-1.192q-.507-.587-1.085-1.138t-1.085-1.041a9.179,9.179,0,0,1-.836-.907,1.263,1.263,0,0,1-.329-.738v-.071l.018-.053a.683.683,0,0,1,.16-.3,1.444,1.444,0,0,1,.3-.258,1.759,1.759,0,0,1,.382-.187,1.264,1.264,0,0,1,.418-.071h4.643l.356-1.725h-5a5.522,5.522,0,0,0-.952.089,3.067,3.067,0,0,0-.969.347,2.686,2.686,0,0,0-.827.738,3.089,3.089,0,0,0-.525,1.263,1.77,1.77,0,0,0-.027.187q-.009.1-.009.24a3.014,3.014,0,0,0,.116.783,1.605,1.605,0,0,0,.418.729l3.558,3.593a2.022,2.022,0,0,1,.276.391,1.111,1.111,0,0,1,.116.534,1.164,1.164,0,0,1-1.281.978H71.026ZM92.247-20.814l-.356,1.708H88.173l-2.1,9.855h-2.01l2.1-9.855H82.446l.356-1.708ZM88.707-9.252l6.244-11.562h2.7L99.487-9.786v.178a.858.858,0,0,1-.089.222q-.071.133-.089.133H92.6l.925-1.69h3.7L96-18.7,90.806-9.252Zm21.132-11.562-.356,1.708h-3.718l-2.1,9.855h-2.01l2.1-9.855h-3.718l.356-1.708Zm7.631,6.493h-5.212l-.729,3.362h6.208l-.587,1.708h-7.987l2.455-11.562h8.218l-.587,1.708h-5.977l-.658,3.1h5.443Zm1.69,5.07h5.923a2.134,2.134,0,0,0,.916-.2,2.387,2.387,0,0,0,.729-.525,3.193,3.193,0,0,0,.525-.747,3.363,3.363,0,0,0,.3-.845,1.77,1.77,0,0,0,.027-.187q.009-.1.009-.187a2.511,2.511,0,0,0-.329-1.21,6.813,6.813,0,0,0-.836-1.192q-.507-.587-1.085-1.138t-1.085-1.041a9.18,9.18,0,0,1-.836-.907,1.263,1.263,0,0,1-.329-.738v-.071l.018-.053a.683.683,0,0,1,.16-.3,1.444,1.444,0,0,1,.3-.258,1.76,1.76,0,0,1,.382-.187,1.264,1.264,0,0,1,.418-.071h4.643l.356-1.725h-5a5.522,5.522,0,0,0-.952.089,3.067,3.067,0,0,0-.969.347,2.686,2.686,0,0,0-.827.738A3.089,3.089,0,0,0,121.1-18.4a1.768,1.768,0,0,0-.027.187q-.009.1-.009.24a3.014,3.014,0,0,0,.116.783,1.606,1.606,0,0,0,.418.729l3.558,3.593a2.023,2.023,0,0,1,.276.391,1.111,1.111,0,0,1,.116.534,1.164,1.164,0,0,1-1.281.978h-4.749Z" transform="translate(185.737 87)"/>
    <path id="Path_13" data-name="Path 13" d="M3.61-9.252l2.1-9.855H9.32a1.576,1.576,0,0,1,.329.053,1.357,1.357,0,0,1,.445.2,1.439,1.439,0,0,1,.391.409,1.2,1.2,0,0,1,.169.667,2.051,2.051,0,0,1-.053.462v.036a2.026,2.026,0,0,1-.409.872,2.918,2.918,0,0,1-.836.712,4.7,4.7,0,0,1-1.2.48,5.9,5.9,0,0,1-1.485.178l.2,1.743a7.032,7.032,0,0,0,1.725-.276,6.9,6.9,0,0,0,1.743-.756,5.991,5.991,0,0,0,1.432-1.21,3.614,3.614,0,0,0,.809-1.654,5.1,5.1,0,0,0,.107-1,2.506,2.506,0,0,0-.756-1.93,3.4,3.4,0,0,0-2.375-.7h-5.5L1.6-9.252Zm15.066,0H16.933a3.438,3.438,0,0,1-1.3-.267,3.843,3.843,0,0,1-1.21-.792,4.058,4.058,0,0,1-.9-1.3A4.332,4.332,0,0,1,13.18-13.4a5.287,5.287,0,0,1,.125-1.227l.178-.818a7.276,7.276,0,0,1,.961-2.428,6.81,6.81,0,0,1,1.476-1.672,5.8,5.8,0,0,1,1.725-.961,5.318,5.318,0,0,1,1.725-.311h1.743a3.594,3.594,0,0,1,1.254.249,3.731,3.731,0,0,1,1.227.765,4.106,4.106,0,0,1,.925,1.29,4.194,4.194,0,0,1,.365,1.805,5.254,5.254,0,0,1-.036.6q-.036.311-.107.667l-.178.818a7.064,7.064,0,0,1-.969,2.437,6.831,6.831,0,0,1-1.5,1.663,6.033,6.033,0,0,1-1.743.961A5.184,5.184,0,0,1,18.677-9.252Zm4.073-6.172a4.494,4.494,0,0,0,.125-1.121,2.95,2.95,0,0,0-.213-1.183,2.053,2.053,0,0,0-.587-.792,2.427,2.427,0,0,0-.872-.445,3.869,3.869,0,0,0-1.067-.142h-.356a4.841,4.841,0,0,0-1.352.2,3.948,3.948,0,0,0-1.263.631,4.178,4.178,0,0,0-1.032,1.138,5.187,5.187,0,0,0-.658,1.717l-.142.658a7.876,7.876,0,0,0-.142,1.227,2.4,2.4,0,0,0,.747,1.966,3.013,3.013,0,0,0,1.974.614h.356a4.666,4.666,0,0,0,1.4-.213,3.935,3.935,0,0,0,1.272-.676,4.351,4.351,0,0,0,1.023-1.183,5.535,5.535,0,0,0,.649-1.734Zm1.814,6.172h5.923a2.134,2.134,0,0,0,.916-.2,2.387,2.387,0,0,0,.729-.525,3.193,3.193,0,0,0,.525-.747,3.363,3.363,0,0,0,.3-.845,1.77,1.77,0,0,0,.027-.187q.009-.1.009-.187a2.511,2.511,0,0,0-.329-1.21,6.813,6.813,0,0,0-.836-1.192q-.507-.587-1.085-1.138t-1.085-1.041a9.179,9.179,0,0,1-.836-.907,1.263,1.263,0,0,1-.329-.738v-.071l.018-.053a.683.683,0,0,1,.16-.3,1.444,1.444,0,0,1,.3-.258,1.759,1.759,0,0,1,.382-.187,1.264,1.264,0,0,1,.418-.071h4.643l.356-1.725h-5a5.522,5.522,0,0,0-.952.089,3.067,3.067,0,0,0-.969.347,2.686,2.686,0,0,0-.827.738A3.089,3.089,0,0,0,26.5-18.4a1.769,1.769,0,0,0-.027.187q-.009.1-.009.24a3.014,3.014,0,0,0,.116.783,1.605,1.605,0,0,0,.418.729l3.558,3.593a2.023,2.023,0,0,1,.276.391,1.111,1.111,0,0,1,.116.534,1.164,1.164,0,0,1-1.281.978H24.92ZM46.141-20.814l-.356,1.708H42.068l-2.1,9.855h-2.01l2.1-9.855H36.34l.356-1.708ZM42.6-9.252l6.244-11.562h2.7L53.381-9.786v.178a.858.858,0,0,1-.089.222q-.071.133-.089.133H46.5l.925-1.69h3.7L49.895-18.7,44.7-9.252ZM59.02-20.814l-2.1,9.855h6.208l-.587,1.708H54.555L57.01-20.814Zm13,11.562h5.923a2.134,2.134,0,0,0,.916-.2,2.387,2.387,0,0,0,.729-.525,3.193,3.193,0,0,0,.525-.747,3.363,3.363,0,0,0,.3-.845,1.766,1.766,0,0,0,.027-.187q.009-.1.009-.187a2.511,2.511,0,0,0-.329-1.21,6.813,6.813,0,0,0-.836-1.192q-.507-.587-1.085-1.138t-1.085-1.041a9.179,9.179,0,0,1-.836-.907,1.263,1.263,0,0,1-.329-.738v-.071l.018-.053a.683.683,0,0,1,.16-.3,1.443,1.443,0,0,1,.3-.258,1.759,1.759,0,0,1,.382-.187,1.264,1.264,0,0,1,.418-.071h4.643l.356-1.725h-5a5.522,5.522,0,0,0-.952.089,3.067,3.067,0,0,0-.969.347,2.686,2.686,0,0,0-.827.738,3.089,3.089,0,0,0-.525,1.263,1.772,1.772,0,0,0-.027.187q-.009.1-.009.24a3.014,3.014,0,0,0,.116.783,1.605,1.605,0,0,0,.418.729l3.558,3.593a2.023,2.023,0,0,1,.276.391,1.111,1.111,0,0,1,.116.534,1.164,1.164,0,0,1-1.281.978H72.379Zm17.984-5.07H84.795l-.729,3.362h6.208l-.587,1.708H81.7l2.455-11.562h8.218l-.587,1.708H85.809l-.658,3.1h5.443Zm1.69,5.07h2.01l2.1-9.855h3.611a1.576,1.576,0,0,1,.329.053,1.357,1.357,0,0,1,.445.2,1.439,1.439,0,0,1,.391.409,1.2,1.2,0,0,1,.169.667,2.051,2.051,0,0,1-.053.462v.036A2.65,2.65,0,0,1,99.39-15.6a5,5,0,0,1-2.339.5.868.868,0,0,0-.187.018.669.669,0,0,0-.222.125l2.473,5.71h2.028L99.15-13.7a5.411,5.411,0,0,0,1.183-.471,4.924,4.924,0,0,0,1.049-.756,4.773,4.773,0,0,0,.818-1.023,4.015,4.015,0,0,0,.489-1.29,5.791,5.791,0,0,0,.107-1.1,2.153,2.153,0,0,0-.818-1.9,4.051,4.051,0,0,0-2.33-.569h-5.5Zm14.142,0h1.654l7.2-11.562h-2.348l-4.963,8.183-1.032-8.183h-2.188Zm12.149-11.562h-2.028L113.5-9.252h2.028Zm2.668,5.39q-.089.427-.142.72t-.089.507a3.487,3.487,0,0,0-.044.374q-.009.16-.009.3a2.388,2.388,0,0,0,.738,1.957,2.92,2.92,0,0,0,1.912.6h3.949l-.356,1.708H121.83a3.541,3.541,0,0,1-1.192-.222,3.346,3.346,0,0,1-1.138-.694,3.7,3.7,0,0,1-.854-1.21,4.18,4.18,0,0,1-.338-1.752,7.229,7.229,0,0,1,.16-1.441l.2-.925a7.821,7.821,0,0,1,.916-2.419,6.46,6.46,0,0,1,1.387-1.654,5.3,5.3,0,0,1,1.645-.943,5.1,5.1,0,0,1,1.672-.3h4.785l-.356,1.708h-3.949a4.568,4.568,0,0,0-1.325.2,3.5,3.5,0,0,0-1.192.631,4.178,4.178,0,0,0-.961,1.138A5.6,5.6,0,0,0,120.655-15.424Zm16.045,1.1h-5.212l-.729,3.362h6.208l-.587,1.708h-7.987l2.455-11.562h8.218l-.587,1.708H132.5l-.658,3.1h5.443Z" transform="translate(183.063 107.3)"/>
  </g>
</svg>
