<svg xmlns="http://www.w3.org/2000/svg" width="95.756" height="60.135" viewBox="0 0 95.756 60.135">
  <g id="Group_1483" data-name="Group 1483" transform="translate(-4468.204 135.179)">
    <path id="Path_35" data-name="Path 35" d="M13.336,6.9h83.91L84.412,67.035,8.4,66.624l74.12-28.71s8.226-13,1.234-15.137l-8.967-.165s0-1.974-9.954-3.62Z" transform="translate(4466.714 -142.079)" fill="#fff"/>
    <path id="Path_36" data-name="Path 36" d="M9.378,24.5H62.932s8.391,1.234,7.733,3.208l8.967.823s3.62,1.234-1.728,8.391l-.247.165,1.4-5.347-16.535.329,8.144-2.8L34.8,28.449l5.759,16.371,17.111-6.17s9.789-4.36,17.358-3.373l.165,1.81s-10.941,2.221-14.972,4.2c0,0-27.888,11.517-31.1,13.327L0,69.5Z" transform="translate(4468.204 -145.201)" fill="#fff"/>
  </g>
</svg>
