<svg xmlns="http://www.w3.org/2000/svg" viewBox="91 30 1637 410">
  <defs>
    <style>
      .cls-1 {
        fill: #fff;
      }

      .cls-2 {
        fill: #30d074;
      }

      .cls-3 {
        fill: #bdc6d0;
      }

      .cls-4 {
        fill: #ffa85c;
      }

      .cls-5 {
        fill: #68b3e4;
      }

      .cls-6 {
        fill: #f3cb2c;
      }

      .cls-7 {
        fill: #ff604e;
      }

      .cls-8 {
        fill: #212529;
        stroke: rgba(0,0,0,0);
      }
    </style>
  </defs>
  <g id="Group_480" data-name="Group 480" transform="translate(1 -45)">
    <rect id="Rectangle_723" data-name="Rectangle 723" class="cls-1" width="1637" height="410" rx="9" transform="translate(90 75)"/>
    <g id="Group_479" data-name="Group 479">
      <path id="Path_604" data-name="Path 604" class="cls-2" d="M0,0H310V143H0Z" transform="translate(134 281.563)"/>
      <path id="Path_607" data-name="Path 607" class="cls-3" d="M0,0H930V59H0Z" transform="translate(444 365.563)"/>
      <path id="Path_606" data-name="Path 606" class="cls-4" d="M0,0H310V143H0Z" transform="translate(1374 281.563)"/>
      <rect id="Rectangle_721" data-name="Rectangle 721" class="cls-5" width="310" height="84" transform="translate(444 281.563)"/>
      <path id="Path_605" data-name="Path 605" class="cls-6" d="M0,0H310V84H0Z" transform="translate(1064 281.563)"/>
      <rect id="Rectangle_722" data-name="Rectangle 722" class="cls-7" width="310" height="84" transform="translate(754 281.563)"/>
      <path id="Path_608" data-name="Path 608" class="cls-8" d="M13.289-8.791H4.936V0H2.311V-19.906H14.643v2.16H4.936v6.809h8.354ZM20.139,0H17.609V-14.793h2.529ZM17.4-18.717a1.51,1.51,0,0,1,.376-1.039,1.412,1.412,0,0,1,1.114-.424,1.434,1.434,0,0,1,1.121.424,1.494,1.494,0,0,1,.383,1.039,1.445,1.445,0,0,1-.383,1.025,1.46,1.46,0,0,1-1.121.41,1.437,1.437,0,0,1-1.114-.41A1.46,1.46,0,0,1,17.4-18.717Zm13.932,6.193a7.579,7.579,0,0,0-1.244-.1A3.333,3.333,0,0,0,26.715-10.5V0H24.186V-14.793h2.461l.041,1.709a3.938,3.938,0,0,1,3.527-1.982,2.584,2.584,0,0,1,1.121.191Zm10.938,8.6A1.862,1.862,0,0,0,41.5-5.517a7.435,7.435,0,0,0-2.693-.978,12.734,12.734,0,0,1-3.049-.984,4.337,4.337,0,0,1-1.668-1.367,3.27,3.27,0,0,1-.54-1.887,3.837,3.837,0,0,1,1.538-3.076,6.007,6.007,0,0,1,3.931-1.258,6.181,6.181,0,0,1,4.081,1.3,4.125,4.125,0,0,1,1.565,3.322H42.123a2.283,2.283,0,0,0-.882-1.791,3.3,3.3,0,0,0-2.222-.752,3.458,3.458,0,0,0-2.16.6,1.894,1.894,0,0,0-.779,1.572A1.534,1.534,0,0,0,36.8-9.434a8.915,8.915,0,0,0,2.618.889,13.642,13.642,0,0,1,3.069,1.012,4.477,4.477,0,0,1,1.743,1.415A3.479,3.479,0,0,1,44.8-4.1,3.786,3.786,0,0,1,43.217-.923,6.652,6.652,0,0,1,39.1.273a7.449,7.449,0,0,1-3.145-.629,5.114,5.114,0,0,1-2.14-1.757,4.234,4.234,0,0,1-.772-2.44h2.529a2.619,2.619,0,0,0,1.019,2.017,3.951,3.951,0,0,0,2.509.745,4.079,4.079,0,0,0,2.3-.581A1.785,1.785,0,0,0,42.273-3.924Zm9.256-14.451v3.582h2.762v1.955H51.529v9.174A2.049,2.049,0,0,0,51.9-2.331a1.555,1.555,0,0,0,1.258.444,6.124,6.124,0,0,0,1.2-.164V0a7.333,7.333,0,0,1-1.941.273A3.15,3.15,0,0,1,49.861-.752,4.405,4.405,0,0,1,49-3.664v-9.174H46.307v-1.955H49v-3.582Zm16.434-1.531L74.471-3.664l6.508-16.242h3.4V0H81.758V-7.752L82-16.119,75.469,0h-2.01L66.938-16.078l.26,8.326V0H64.572V-19.906ZM91.369,0H88.84V-14.793h2.529ZM88.635-18.717a1.51,1.51,0,0,1,.376-1.039,1.412,1.412,0,0,1,1.114-.424,1.434,1.434,0,0,1,1.121.424,1.494,1.494,0,0,1,.383,1.039,1.445,1.445,0,0,1-.383,1.025,1.46,1.46,0,0,1-1.121.41,1.437,1.437,0,0,1-1.114-.41A1.46,1.46,0,0,1,88.635-18.717ZM98.164,0H95.635V-21h2.529ZM108.35.273A6.463,6.463,0,0,1,103.455-1.7a7.332,7.332,0,0,1-1.887-5.284v-.465a8.877,8.877,0,0,1,.841-3.931,6.559,6.559,0,0,1,2.352-2.707,5.912,5.912,0,0,1,3.274-.978,5.54,5.54,0,0,1,4.484,1.9,8.228,8.228,0,0,1,1.6,5.441v1.053H104.1a5.258,5.258,0,0,0,1.278,3.534,4.018,4.018,0,0,0,3.11,1.347,4.405,4.405,0,0,0,2.27-.547,5.7,5.7,0,0,0,1.627-1.449l1.545,1.2A6.212,6.212,0,0,1,108.35.273Zm-.314-13.262a3.374,3.374,0,0,0-2.57,1.114A5.416,5.416,0,0,0,104.18-8.75h7.41v-.191a4.817,4.817,0,0,0-1.039-2.987A3.176,3.176,0,0,0,108.035-12.988Z" transform="translate(232 264.563)"/>
      <path id="Path_609" data-name="Path 609" class="cls-8" d="M-27.556,0H-30.1V-16.857l-5.1,1.873v-2.3L-27.952-20h.4Zm7.725-1.326a1.584,1.584,0,0,1,.39-1.094,1.485,1.485,0,0,1,1.169-.437,1.529,1.529,0,0,1,1.183.438,1.552,1.552,0,0,1,.4,1.094,1.468,1.468,0,0,1-.4,1.053A1.557,1.557,0,0,1-18.272.15a1.511,1.511,0,0,1-1.169-.424A1.5,1.5,0,0,1-19.831-1.326ZM-.294-8.49q0,4.443-1.518,6.6A5.4,5.4,0,0,1-6.556.273a5.437,5.437,0,0,1-4.717-2.112q-1.531-2.112-1.586-6.31v-3.377q0-4.389,1.518-6.521A5.439,5.439,0,0,1-6.583-20.18a5.488,5.488,0,0,1,4.73,2.058q1.518,2.058,1.559,6.351Zm-2.529-3.459a9.268,9.268,0,0,0-.9-4.683A3.106,3.106,0,0,0-6.583-18.1a3.065,3.065,0,0,0-2.83,1.463,9.049,9.049,0,0,0-.916,4.5v4.047a9.417,9.417,0,0,0,.937,4.765A3.1,3.1,0,0,0-6.556-1.791,3.057,3.057,0,0,0-3.773-3.24a9.076,9.076,0,0,0,.95-4.566ZM12.64-8.75a6.189,6.189,0,0,1-1.894,1.518,5.137,5.137,0,0,1-2.413.574,5.3,5.3,0,0,1-3-.848A5.511,5.511,0,0,1,3.356-9.892a8.133,8.133,0,0,1-.7-3.4,8.287,8.287,0,0,1,.759-3.6,5.574,5.574,0,0,1,2.153-2.447,6.14,6.14,0,0,1,3.254-.848,5.559,5.559,0,0,1,4.655,2.208,9.631,9.631,0,0,1,1.7,6.022v.738q0,5.811-2.3,8.483T5.954.014H5.462V-2.119H6a6.955,6.955,0,0,0,4.813-1.634A7.019,7.019,0,0,0,12.64-8.75Zm-3.9,0a3.906,3.906,0,0,0,2.345-.779,4.594,4.594,0,0,0,1.565-1.928v-1.012a6.96,6.96,0,0,0-1.08-4.047,3.223,3.223,0,0,0-2.734-1.559A3.248,3.248,0,0,0,6.159-16.8a5.273,5.273,0,0,0-1.012,3.37,5.488,5.488,0,0,0,.978,3.356A3.1,3.1,0,0,0,8.743-8.75Zm9.707-7.328a4.039,4.039,0,0,1,1.142-2.953,3.933,3.933,0,0,1,2.933-1.162,3.909,3.909,0,0,1,2.946,1.169A4.179,4.179,0,0,1,26.6-16v.971a3.987,3.987,0,0,1-1.142,2.946,3.936,3.936,0,0,1-2.905,1.142,4.022,4.022,0,0,1-2.939-1.142,4.071,4.071,0,0,1-1.162-3.042Zm1.887,1.053a2.577,2.577,0,0,0,.6,1.757,2.032,2.032,0,0,0,1.613.69,1.992,1.992,0,0,0,1.565-.67,2.661,2.661,0,0,0,.595-1.832v-1a2.642,2.642,0,0,0-.588-1.764,1.982,1.982,0,0,0-1.6-.7,1.982,1.982,0,0,0-1.6.7,2.725,2.725,0,0,0-.588,1.818ZM28.144-4.881a4.016,4.016,0,0,1,1.142-2.946,3.945,3.945,0,0,1,2.933-1.155,3.98,3.98,0,0,1,2.939,1.148,4.121,4.121,0,0,1,1.148,3.049v.971A4.016,4.016,0,0,1,35.164-.868,3.928,3.928,0,0,1,32.245.287,4.022,4.022,0,0,1,29.306-.854,4.071,4.071,0,0,1,28.144-3.9ZM30.03-3.814a2.6,2.6,0,0,0,.6,1.771,2.032,2.032,0,0,0,1.613.69,1.978,1.978,0,0,0,1.572-.677,2.708,2.708,0,0,0,.588-1.839V-4.881a2.59,2.59,0,0,0-.595-1.764,2,2,0,0,0-1.593-.684,2.025,2.025,0,0,0-1.579.677,2.628,2.628,0,0,0-.608,1.825ZM23.126-1.5l-1.436-.9,9.721-15.559,1.436.9ZM-83.617,28.92a21.138,21.138,0,0,1,.827-5.934,17.237,17.237,0,0,1,2.468-5.168,10.5,10.5,0,0,1,3.4-3.281l.52,1.668a10.889,10.889,0,0,0-3.274,4.676,20.27,20.27,0,0,0-1.4,7.041l-.014,1.162a20.376,20.376,0,0,0,1.928,9.16A10.94,10.94,0,0,0-76.4,41.881l-.52,1.545a10.836,10.836,0,0,1-3.473-3.391A19,19,0,0,1-83.617,28.92ZM-65.9,37h-2.543V20.143l-5.1,1.873v-2.3L-66.295,17h.4Zm17.1-8.75a6.189,6.189,0,0,1-1.894,1.518,5.137,5.137,0,0,1-2.413.574,5.3,5.3,0,0,1-3-.848,5.511,5.511,0,0,1-1.976-2.386,8.133,8.133,0,0,1-.7-3.4,8.287,8.287,0,0,1,.759-3.6,5.574,5.574,0,0,1,2.153-2.447,6.14,6.14,0,0,1,3.254-.848,5.559,5.559,0,0,1,4.655,2.208,9.631,9.631,0,0,1,1.7,6.022v.738q0,5.811-2.3,8.483t-6.932,2.741h-.492V34.881h.533a6.955,6.955,0,0,0,4.813-1.634A7.019,7.019,0,0,0-48.795,28.25Zm-3.9,0a3.906,3.906,0,0,0,2.345-.779,4.594,4.594,0,0,0,1.565-1.928V24.531a6.96,6.96,0,0,0-1.08-4.047A3.223,3.223,0,0,0-52.6,18.926a3.248,3.248,0,0,0-2.68,1.278,5.273,5.273,0,0,0-1.012,3.37,5.488,5.488,0,0,0,.978,3.356A3.1,3.1,0,0,0-52.691,28.25ZM-29.723,37H-42.766V35.182l6.891-7.656A16.37,16.37,0,0,0-33.763,24.7a4.712,4.712,0,0,0,.581-2.249,3.572,3.572,0,0,0-.943-2.557,3.3,3.3,0,0,0-2.516-1,3.906,3.906,0,0,0-2.933,1.073,4.1,4.1,0,0,0-1.046,2.987h-2.529a5.871,5.871,0,0,1,1.771-4.443,6.563,6.563,0,0,1,4.737-1.7,6.307,6.307,0,0,1,4.389,1.456,4.967,4.967,0,0,1,1.613,3.876q0,2.939-3.746,7l-5.332,5.783h9.994Zm2.857,3.965L-28.3,39.98a6.6,6.6,0,0,0,1.34-3.691V34.006h2.475v1.982a6.227,6.227,0,0,1-.677,2.762A6.466,6.466,0,0,1-26.865,40.965ZM-8.5,37H-21.547V35.182l6.891-7.656A16.37,16.37,0,0,0-12.544,24.7a4.712,4.712,0,0,0,.581-2.249,3.572,3.572,0,0,0-.943-2.557,3.3,3.3,0,0,0-2.516-1,3.906,3.906,0,0,0-2.933,1.073A4.1,4.1,0,0,0-19.4,22.959H-21.93a5.871,5.871,0,0,1,1.771-4.443,6.563,6.563,0,0,1,4.737-1.7,6.307,6.307,0,0,1,4.389,1.456A4.967,4.967,0,0,1-9.42,22.152q0,2.939-3.746,7L-18.5,34.936H-8.5ZM2.488,37H-.055V20.143l-5.1,1.873v-2.3L2.092,17h.4Zm20.453,0H9.9V35.182l6.891-7.656A16.37,16.37,0,0,0,18.9,24.7a4.712,4.712,0,0,0,.581-2.249,3.572,3.572,0,0,0-.943-2.557,3.3,3.3,0,0,0-2.516-1,3.906,3.906,0,0,0-2.933,1.073,4.1,4.1,0,0,0-1.046,2.987H9.516a5.871,5.871,0,0,1,1.771-4.443,6.563,6.563,0,0,1,4.737-1.7,6.307,6.307,0,0,1,4.389,1.456,4.967,4.967,0,0,1,1.613,3.876q0,2.939-3.746,7l-5.332,5.783h9.994Zm22.367-7.232a8.858,8.858,0,0,1-1.545,5.441,4.952,4.952,0,0,1-4.184,2.064,5.425,5.425,0,0,1-4.238-1.709v7.123H32.813V22.207h2.311l.123,1.641a5.21,5.21,0,0,1,4.293-1.914,5.044,5.044,0,0,1,4.218,2.01,8.954,8.954,0,0,1,1.552,5.592Zm-2.529-.287a6.536,6.536,0,0,0-1.066-3.951,3.435,3.435,0,0,0-2.926-1.449,3.718,3.718,0,0,0-3.445,2.037v7.068a3.725,3.725,0,0,0,3.473,2.023,3.419,3.419,0,0,0,2.892-1.442A7.135,7.135,0,0,0,42.779,29.48Zm11.676,5.729a3.643,3.643,0,0,0,2.365-.82,2.886,2.886,0,0,0,1.121-2.051h2.393a4.587,4.587,0,0,1-.875,2.42,5.763,5.763,0,0,1-2.153,1.832,6.213,6.213,0,0,1-2.851.684,6.094,6.094,0,0,1-4.806-2.017,8.032,8.032,0,0,1-1.784-5.517v-.424a8.906,8.906,0,0,1,.793-3.842,6.04,6.04,0,0,1,2.276-2.611,6.466,6.466,0,0,1,3.507-.93,5.933,5.933,0,0,1,4.136,1.49,5.326,5.326,0,0,1,1.757,3.869H57.941a3.486,3.486,0,0,0-1.087-2.358,3.381,3.381,0,0,0-2.413-.923A3.54,3.54,0,0,0,51.454,25.4a6.517,6.517,0,0,0-1.06,4.013v.479a6.387,6.387,0,0,0,1.053,3.938A3.557,3.557,0,0,0,54.455,35.209Zm17.336-2.133a1.862,1.862,0,0,0-.772-1.593,7.435,7.435,0,0,0-2.693-.978,12.734,12.734,0,0,1-3.049-.984,4.337,4.337,0,0,1-1.668-1.367,3.27,3.27,0,0,1-.54-1.887,3.837,3.837,0,0,1,1.538-3.076,6.007,6.007,0,0,1,3.931-1.258,6.181,6.181,0,0,1,4.081,1.3,4.125,4.125,0,0,1,1.565,3.322H71.641a2.283,2.283,0,0,0-.882-1.791,3.3,3.3,0,0,0-2.222-.752,3.458,3.458,0,0,0-2.16.6,1.894,1.894,0,0,0-.779,1.572,1.534,1.534,0,0,0,.725,1.381,8.915,8.915,0,0,0,2.618.889,13.642,13.642,0,0,1,3.069,1.012,4.477,4.477,0,0,1,1.743,1.415A3.479,3.479,0,0,1,74.32,32.9a3.786,3.786,0,0,1-1.586,3.179,6.652,6.652,0,0,1-4.115,1.2,7.449,7.449,0,0,1-3.145-.629,5.114,5.114,0,0,1-2.14-1.757,4.234,4.234,0,0,1-.772-2.44h2.529a2.619,2.619,0,0,0,1.019,2.017,3.951,3.951,0,0,0,2.509.745,4.079,4.079,0,0,0,2.3-.581A1.785,1.785,0,0,0,71.791,33.076Zm11.662-4.02a21.148,21.148,0,0,1-.8,5.845,17.283,17.283,0,0,1-2.447,5.161,10.722,10.722,0,0,1-3.452,3.363l-.533-1.545A10.991,10.991,0,0,0,79.6,36.87a21.677,21.677,0,0,0,1.306-7.54v-.437a22.507,22.507,0,0,0-.6-5.339,18.019,18.019,0,0,0-1.675-4.423,10.216,10.216,0,0,0-2.413-3.049l.533-1.545a10.68,10.68,0,0,1,3.438,3.336,17.32,17.32,0,0,1,2.447,5.154A21.636,21.636,0,0,1,83.453,29.057Z" transform="translate(289 345.563)"/>
      <path id="Path_611" data-name="Path 611" class="cls-8" d="M-23.386-8.49q0,4.443-1.518,6.6A5.4,5.4,0,0,1-29.647.273a5.437,5.437,0,0,1-4.717-2.112Q-35.9-3.951-35.95-8.148v-3.377q0-4.389,1.518-6.521a5.439,5.439,0,0,1,4.758-2.133,5.488,5.488,0,0,1,4.73,2.058q1.518,2.058,1.559,6.351Zm-2.529-3.459a9.268,9.268,0,0,0-.9-4.683,3.106,3.106,0,0,0-2.857-1.47,3.065,3.065,0,0,0-2.83,1.463,9.049,9.049,0,0,0-.916,4.5v4.047a9.417,9.417,0,0,0,.937,4.765,3.1,3.1,0,0,0,2.837,1.538A3.057,3.057,0,0,0-26.865-3.24a9.076,9.076,0,0,0,.95-4.566Zm6.084,10.623a1.584,1.584,0,0,1,.39-1.094,1.485,1.485,0,0,1,1.169-.437,1.529,1.529,0,0,1,1.183.438,1.552,1.552,0,0,1,.4,1.094,1.468,1.468,0,0,1-.4,1.053A1.557,1.557,0,0,1-18.272.15a1.511,1.511,0,0,1-1.169-.424A1.5,1.5,0,0,1-19.831-1.326ZM.075-18.484-8.169,0h-2.652L-2.6-17.828H-13.378v-2.078H.075Zm6.549,7.3h1.9a4.177,4.177,0,0,0,2.816-.943A3.152,3.152,0,0,0,12.366-14.6q0-3.5-3.486-3.5a3.626,3.626,0,0,0-2.618.937,3.278,3.278,0,0,0-.978,2.481H2.755a5.078,5.078,0,0,1,1.729-3.931,6.3,6.3,0,0,1,4.4-1.565,6.226,6.226,0,0,1,4.416,1.49,5.383,5.383,0,0,1,1.6,4.143,4.37,4.37,0,0,1-.841,2.516,5.077,5.077,0,0,1-2.29,1.818A4.892,4.892,0,0,1,14.3-8.49a4.784,4.784,0,0,1,.9,2.939A5.43,5.43,0,0,1,13.446-1.3,6.553,6.553,0,0,1,8.894.273a6.726,6.726,0,0,1-4.56-1.518A5.034,5.034,0,0,1,2.577-5.25H5.12A3.254,3.254,0,0,0,6.146-2.734a3.9,3.9,0,0,0,2.748.943,3.827,3.827,0,0,0,2.8-.957A3.688,3.688,0,0,0,12.667-5.5,3.347,3.347,0,0,0,11.6-8.162a4.646,4.646,0,0,0-3.076-.957h-1.9ZM18.45-16.078a4.039,4.039,0,0,1,1.142-2.953,3.933,3.933,0,0,1,2.933-1.162,3.909,3.909,0,0,1,2.946,1.169A4.179,4.179,0,0,1,26.6-16v.971a3.987,3.987,0,0,1-1.142,2.946,3.936,3.936,0,0,1-2.905,1.142,4.022,4.022,0,0,1-2.939-1.142,4.071,4.071,0,0,1-1.162-3.042Zm1.887,1.053a2.577,2.577,0,0,0,.6,1.757,2.032,2.032,0,0,0,1.613.69,1.992,1.992,0,0,0,1.565-.67,2.661,2.661,0,0,0,.595-1.832v-1a2.642,2.642,0,0,0-.588-1.764,1.982,1.982,0,0,0-1.6-.7,1.982,1.982,0,0,0-1.6.7,2.725,2.725,0,0,0-.588,1.818ZM28.144-4.881a4.016,4.016,0,0,1,1.142-2.946,3.945,3.945,0,0,1,2.933-1.155,3.98,3.98,0,0,1,2.939,1.148,4.121,4.121,0,0,1,1.148,3.049v.971A4.016,4.016,0,0,1,35.164-.868,3.928,3.928,0,0,1,32.245.287,4.022,4.022,0,0,1,29.306-.854,4.071,4.071,0,0,1,28.144-3.9ZM30.03-3.814a2.6,2.6,0,0,0,.6,1.771,2.032,2.032,0,0,0,1.613.69,1.978,1.978,0,0,0,1.572-.677,2.708,2.708,0,0,0,.588-1.839V-4.881a2.59,2.59,0,0,0-.595-1.764,2,2,0,0,0-1.593-.684,2.025,2.025,0,0,0-1.579.677,2.628,2.628,0,0,0-.608,1.825ZM23.126-1.5l-1.436-.9,9.721-15.559,1.436.9ZM-83.617,28.92a21.138,21.138,0,0,1,.827-5.934,17.237,17.237,0,0,1,2.468-5.168,10.5,10.5,0,0,1,3.4-3.281l.52,1.668a10.889,10.889,0,0,0-3.274,4.676,20.27,20.27,0,0,0-1.4,7.041l-.014,1.162a20.376,20.376,0,0,0,1.928,9.16A10.94,10.94,0,0,0-76.4,41.881l-.52,1.545a10.836,10.836,0,0,1-3.473-3.391A19,19,0,0,1-83.617,28.92ZM-65.9,37h-2.543V20.143l-5.1,1.873v-2.3L-66.295,17h.4Zm20.453,0H-58.488V35.182l6.891-7.656A16.37,16.37,0,0,0-49.485,24.7a4.712,4.712,0,0,0,.581-2.249,3.572,3.572,0,0,0-.943-2.557,3.3,3.3,0,0,0-2.516-1A3.906,3.906,0,0,0-55.3,19.972a4.1,4.1,0,0,0-1.046,2.987h-2.529A5.871,5.871,0,0,1-57.1,18.516a6.563,6.563,0,0,1,4.737-1.7,6.307,6.307,0,0,1,4.389,1.456,4.967,4.967,0,0,1,1.613,3.876q0,2.939-3.746,7l-5.332,5.783h9.994Zm12.373-8.75a6.189,6.189,0,0,1-1.894,1.518,5.137,5.137,0,0,1-2.413.574,5.3,5.3,0,0,1-3-.848,5.511,5.511,0,0,1-1.976-2.386,8.133,8.133,0,0,1-.7-3.4,8.287,8.287,0,0,1,.759-3.6,5.574,5.574,0,0,1,2.153-2.447,6.14,6.14,0,0,1,3.254-.848,5.559,5.559,0,0,1,4.655,2.208,9.631,9.631,0,0,1,1.7,6.022v.738q0,5.811-2.3,8.483t-6.932,2.741h-.492V34.881h.533A6.955,6.955,0,0,0-34.9,33.247,7.019,7.019,0,0,0-33.072,28.25Zm-3.9,0a3.906,3.906,0,0,0,2.345-.779,4.594,4.594,0,0,0,1.565-1.928V24.531a6.96,6.96,0,0,0-1.08-4.047,3.223,3.223,0,0,0-2.734-1.559,3.248,3.248,0,0,0-2.68,1.278,5.273,5.273,0,0,0-1.012,3.37,5.488,5.488,0,0,0,.978,3.356A3.1,3.1,0,0,0-36.969,28.25Zm10.1,12.715L-28.3,39.98a6.6,6.6,0,0,0,1.34-3.691V34.006h2.475v1.982a6.227,6.227,0,0,1-.677,2.762A6.466,6.466,0,0,1-26.865,40.965Zm9-15.148h1.9a4.177,4.177,0,0,0,2.816-.943A3.152,3.152,0,0,0-12.127,22.4q0-3.5-3.486-3.5a3.626,3.626,0,0,0-2.618.937,3.278,3.278,0,0,0-.978,2.481h-2.529a5.078,5.078,0,0,1,1.729-3.931,6.3,6.3,0,0,1,4.4-1.565,6.226,6.226,0,0,1,4.416,1.49,5.383,5.383,0,0,1,1.6,4.143,4.37,4.37,0,0,1-.841,2.516,5.077,5.077,0,0,1-2.29,1.818,4.892,4.892,0,0,1,2.536,1.723,4.784,4.784,0,0,1,.9,2.939,5.43,5.43,0,0,1-1.75,4.252A6.553,6.553,0,0,1-15.6,37.273a6.726,6.726,0,0,1-4.56-1.518,5.034,5.034,0,0,1-1.757-4.006h2.543a3.254,3.254,0,0,0,1.025,2.516,3.9,3.9,0,0,0,2.748.943,3.827,3.827,0,0,0,2.8-.957,3.688,3.688,0,0,0,.971-2.748,3.347,3.347,0,0,0-1.066-2.666,4.646,4.646,0,0,0-3.076-.957h-1.9ZM3.869,28.25a6.189,6.189,0,0,1-1.894,1.518,5.137,5.137,0,0,1-2.413.574,5.3,5.3,0,0,1-3-.848,5.511,5.511,0,0,1-1.976-2.386,8.133,8.133,0,0,1-.7-3.4,8.287,8.287,0,0,1,.759-3.6A5.574,5.574,0,0,1-3.2,17.668,6.14,6.14,0,0,1,.055,16.82,5.559,5.559,0,0,1,4.71,19.028a9.631,9.631,0,0,1,1.7,6.022v.738q0,5.811-2.3,8.483t-6.932,2.741h-.492V34.881h.533a6.955,6.955,0,0,0,4.813-1.634A7.019,7.019,0,0,0,3.869,28.25Zm-3.9,0a3.906,3.906,0,0,0,2.345-.779,4.594,4.594,0,0,0,1.565-1.928V24.531A6.96,6.96,0,0,0,2.8,20.484,3.223,3.223,0,0,0,.068,18.926,3.248,3.248,0,0,0-2.611,20.2a5.273,5.273,0,0,0-1.012,3.37,5.488,5.488,0,0,0,.978,3.356A3.1,3.1,0,0,0-.027,28.25Zm22.408.26q0,4.443-1.518,6.6a5.4,5.4,0,0,1-4.744,2.16A5.437,5.437,0,0,1,11.4,35.161q-1.531-2.112-1.586-6.31V25.475q0-4.389,1.518-6.521a5.439,5.439,0,0,1,4.758-2.133,5.488,5.488,0,0,1,4.73,2.058q1.518,2.058,1.559,6.351Zm-2.529-3.459a9.268,9.268,0,0,0-.9-4.683,3.106,3.106,0,0,0-2.857-1.47,3.065,3.065,0,0,0-2.83,1.463,9.049,9.049,0,0,0-.916,4.5v4.047a9.417,9.417,0,0,0,.937,4.765,3.1,3.1,0,0,0,2.837,1.538A3.057,3.057,0,0,0,18.9,33.76a9.076,9.076,0,0,0,.95-4.566Zm25.457,4.717a8.858,8.858,0,0,1-1.545,5.441,4.952,4.952,0,0,1-4.184,2.064,5.425,5.425,0,0,1-4.238-1.709v7.123H32.813V22.207h2.311l.123,1.641a5.21,5.21,0,0,1,4.293-1.914,5.044,5.044,0,0,1,4.218,2.01,8.954,8.954,0,0,1,1.552,5.592Zm-2.529-.287a6.536,6.536,0,0,0-1.066-3.951,3.435,3.435,0,0,0-2.926-1.449,3.718,3.718,0,0,0-3.445,2.037v7.068a3.725,3.725,0,0,0,3.473,2.023,3.419,3.419,0,0,0,2.892-1.442A7.135,7.135,0,0,0,42.779,29.48Zm11.676,5.729a3.643,3.643,0,0,0,2.365-.82,2.886,2.886,0,0,0,1.121-2.051h2.393a4.587,4.587,0,0,1-.875,2.42,5.763,5.763,0,0,1-2.153,1.832,6.213,6.213,0,0,1-2.851.684,6.094,6.094,0,0,1-4.806-2.017,8.032,8.032,0,0,1-1.784-5.517v-.424a8.906,8.906,0,0,1,.793-3.842,6.04,6.04,0,0,1,2.276-2.611,6.466,6.466,0,0,1,3.507-.93,5.933,5.933,0,0,1,4.136,1.49,5.326,5.326,0,0,1,1.757,3.869H57.941a3.486,3.486,0,0,0-1.087-2.358,3.381,3.381,0,0,0-2.413-.923A3.54,3.54,0,0,0,51.454,25.4a6.517,6.517,0,0,0-1.06,4.013v.479a6.387,6.387,0,0,0,1.053,3.938A3.557,3.557,0,0,0,54.455,35.209Zm17.336-2.133a1.862,1.862,0,0,0-.772-1.593,7.435,7.435,0,0,0-2.693-.978,12.734,12.734,0,0,1-3.049-.984,4.337,4.337,0,0,1-1.668-1.367,3.27,3.27,0,0,1-.54-1.887,3.837,3.837,0,0,1,1.538-3.076,6.007,6.007,0,0,1,3.931-1.258,6.181,6.181,0,0,1,4.081,1.3,4.125,4.125,0,0,1,1.565,3.322H71.641a2.283,2.283,0,0,0-.882-1.791,3.3,3.3,0,0,0-2.222-.752,3.458,3.458,0,0,0-2.16.6,1.894,1.894,0,0,0-.779,1.572,1.534,1.534,0,0,0,.725,1.381,8.915,8.915,0,0,0,2.618.889,13.642,13.642,0,0,1,3.069,1.012,4.477,4.477,0,0,1,1.743,1.415A3.479,3.479,0,0,1,74.32,32.9a3.786,3.786,0,0,1-1.586,3.179,6.652,6.652,0,0,1-4.115,1.2,7.449,7.449,0,0,1-3.145-.629,5.114,5.114,0,0,1-2.14-1.757,4.234,4.234,0,0,1-.772-2.44h2.529a2.619,2.619,0,0,0,1.019,2.017,3.951,3.951,0,0,0,2.509.745,4.079,4.079,0,0,0,2.3-.581A1.785,1.785,0,0,0,71.791,33.076Zm11.662-4.02a21.148,21.148,0,0,1-.8,5.845,17.283,17.283,0,0,1-2.447,5.161,10.722,10.722,0,0,1-3.452,3.363l-.533-1.545A10.991,10.991,0,0,0,79.6,36.87a21.677,21.677,0,0,0,1.306-7.54v-.437a22.507,22.507,0,0,0-.6-5.339,18.019,18.019,0,0,0-1.675-4.423,10.216,10.216,0,0,0-2.413-3.049l.533-1.545a10.68,10.68,0,0,1,3.438,3.336,17.32,17.32,0,0,1,2.447,5.154A21.636,21.636,0,0,1,83.453,29.057Z" transform="translate(599 315.563)"/>
      <path id="Path_613" data-name="Path 613" class="cls-8" d="M-42.567-9.98l1.012-9.926h10.2v2.338h-8.053l-.6,5.428A6.424,6.424,0,0,1-36.688-13a5.492,5.492,0,0,1,4.32,1.8,7.046,7.046,0,0,1,1.6,4.86A6.8,6.8,0,0,1-32.43-1.5,6.054,6.054,0,0,1-37.071.273a6.292,6.292,0,0,1-4.307-1.463,5.839,5.839,0,0,1-1.9-4.047h2.393a4.017,4.017,0,0,0,1.217,2.577,3.783,3.783,0,0,0,2.6.868,3.413,3.413,0,0,0,2.769-1.2,5.03,5.03,0,0,0,1-3.322,4.616,4.616,0,0,0-1.087-3.206,3.7,3.7,0,0,0-2.892-1.21,4.17,4.17,0,0,0-2.6.725l-.67.547Zm27.412-8.5L-23.4,0h-2.652l8.217-17.828H-28.608v-2.078h13.453ZM-11.97-1.326a1.584,1.584,0,0,1,.39-1.094,1.485,1.485,0,0,1,1.169-.437,1.529,1.529,0,0,1,1.183.438,1.552,1.552,0,0,1,.4,1.094,1.468,1.468,0,0,1-.4,1.053A1.557,1.557,0,0,1-10.411.15,1.511,1.511,0,0,1-11.58-.273,1.5,1.5,0,0,1-11.97-1.326ZM7.937-18.484-.308,0H-2.96L5.257-17.828H-5.517v-2.078H7.937Zm6.549,7.3h1.9a4.177,4.177,0,0,0,2.816-.943A3.152,3.152,0,0,0,20.228-14.6q0-3.5-3.486-3.5a3.626,3.626,0,0,0-2.618.937,3.278,3.278,0,0,0-.978,2.481H10.616a5.078,5.078,0,0,1,1.729-3.931,6.3,6.3,0,0,1,4.4-1.565,6.226,6.226,0,0,1,4.416,1.49,5.383,5.383,0,0,1,1.6,4.143,4.37,4.37,0,0,1-.841,2.516,5.077,5.077,0,0,1-2.29,1.818A4.892,4.892,0,0,1,22.162-8.49a4.784,4.784,0,0,1,.9,2.939A5.43,5.43,0,0,1,21.308-1.3,6.553,6.553,0,0,1,16.755.273,6.726,6.726,0,0,1,12.2-1.244,5.034,5.034,0,0,1,10.438-5.25h2.543a3.254,3.254,0,0,0,1.025,2.516,3.9,3.9,0,0,0,2.748.943,3.827,3.827,0,0,0,2.8-.957A3.688,3.688,0,0,0,20.528-5.5a3.347,3.347,0,0,0-1.066-2.666,4.646,4.646,0,0,0-3.076-.957h-1.9Zm11.826-4.895a4.039,4.039,0,0,1,1.142-2.953,3.933,3.933,0,0,1,2.933-1.162,3.909,3.909,0,0,1,2.946,1.169A4.179,4.179,0,0,1,34.46-16v.971a3.987,3.987,0,0,1-1.142,2.946,3.936,3.936,0,0,1-2.905,1.142,4.022,4.022,0,0,1-2.939-1.142,4.071,4.071,0,0,1-1.162-3.042ZM28.2-15.025a2.577,2.577,0,0,0,.6,1.757,2.032,2.032,0,0,0,1.613.69,1.992,1.992,0,0,0,1.565-.67,2.661,2.661,0,0,0,.595-1.832v-1a2.642,2.642,0,0,0-.588-1.764,1.982,1.982,0,0,0-1.6-.7,1.982,1.982,0,0,0-1.6.7,2.725,2.725,0,0,0-.588,1.818ZM36-4.881a4.016,4.016,0,0,1,1.142-2.946,3.945,3.945,0,0,1,2.933-1.155,3.98,3.98,0,0,1,2.939,1.148,4.121,4.121,0,0,1,1.148,3.049v.971A4.016,4.016,0,0,1,43.025-.868,3.928,3.928,0,0,1,40.106.287,4.022,4.022,0,0,1,37.167-.854,4.071,4.071,0,0,1,36-3.9Zm1.887,1.066a2.6,2.6,0,0,0,.6,1.771,2.032,2.032,0,0,0,1.613.69,1.978,1.978,0,0,0,1.572-.677,2.708,2.708,0,0,0,.588-1.839V-4.881a2.59,2.59,0,0,0-.595-1.764,2,2,0,0,0-1.593-.684,2.025,2.025,0,0,0-1.579.677,2.628,2.628,0,0,0-.608,1.825ZM30.987-1.5l-1.436-.9,9.721-15.559,1.436.9ZM-102.088,28.92a21.138,21.138,0,0,1,.827-5.934,17.237,17.237,0,0,1,2.468-5.168,10.5,10.5,0,0,1,3.4-3.281l.52,1.668a10.889,10.889,0,0,0-3.274,4.676,20.27,20.27,0,0,0-1.4,7.041l-.014,1.162a20.376,20.376,0,0,0,1.928,9.16,10.94,10.94,0,0,0,2.762,3.637l-.52,1.545a10.836,10.836,0,0,1-3.473-3.391A19,19,0,0,1-102.088,28.92ZM-84.369,37h-2.543V20.143l-5.1,1.873v-2.3L-84.766,17h.4Zm19.893-8.49q0,4.443-1.518,6.6a5.4,5.4,0,0,1-4.744,2.16,5.437,5.437,0,0,1-4.717-2.112q-1.531-2.112-1.586-6.31V25.475q0-4.389,1.518-6.521a5.439,5.439,0,0,1,4.758-2.133,5.488,5.488,0,0,1,4.73,2.058q1.518,2.058,1.559,6.351Zm-2.529-3.459a9.268,9.268,0,0,0-.9-4.683,3.106,3.106,0,0,0-2.857-1.47,3.065,3.065,0,0,0-2.83,1.463,9.049,9.049,0,0,0-.916,4.5v4.047a9.417,9.417,0,0,0,.937,4.765,3.1,3.1,0,0,0,2.837,1.538,3.057,3.057,0,0,0,2.782-1.449,9.076,9.076,0,0,0,.95-4.566Zm5.947,15.914-1.436-.984a6.6,6.6,0,0,0,1.34-3.691V34.006h2.475v1.982a6.227,6.227,0,0,1-.677,2.762A6.466,6.466,0,0,1-61.059,40.965ZM-47.428,37h-2.543V20.143l-5.1,1.873v-2.3L-47.824,17h.4Zm19.482-14.711a4.623,4.623,0,0,1-.786,2.652,5.349,5.349,0,0,1-2.126,1.818,5.705,5.705,0,0,1,2.468,1.955,4.92,4.92,0,0,1,.909,2.912,5.2,5.2,0,0,1-1.743,4.115,6.7,6.7,0,0,1-4.587,1.531,6.667,6.667,0,0,1-4.6-1.538,5.226,5.226,0,0,1-1.729-4.108,5.067,5.067,0,0,1,.882-2.912,5.488,5.488,0,0,1,2.44-1.969,5.217,5.217,0,0,1-2.092-1.818,4.688,4.688,0,0,1-.766-2.639A5.146,5.146,0,0,1-38.062,18.3a6.052,6.052,0,0,1,4.252-1.477A6.057,6.057,0,0,1-29.565,18.3,5.135,5.135,0,0,1-27.945,22.289Zm-2.064,9.283a3.669,3.669,0,0,0-1.06-2.721A3.758,3.758,0,0,0-33.838,27.8a3.692,3.692,0,0,0-2.741,1.039,3.71,3.71,0,0,0-1.032,2.734,3.533,3.533,0,0,0,1,2.666,3.857,3.857,0,0,0,2.8.971,3.846,3.846,0,0,0,2.789-.978A3.525,3.525,0,0,0-30.01,31.572Zm-3.8-12.674a3.263,3.263,0,0,0-2.413.923,3.39,3.39,0,0,0-.923,2.509,3.374,3.374,0,0,0,.909,2.454,3.227,3.227,0,0,0,2.427.937,3.227,3.227,0,0,0,2.427-.937,3.374,3.374,0,0,0,.909-2.454,3.375,3.375,0,0,0-.943-2.475A3.218,3.218,0,0,0-33.811,18.9Zm10.678,8.121,1.012-9.926h10.2v2.338h-8.053l-.6,5.428A6.424,6.424,0,0,1-17.254,24a5.492,5.492,0,0,1,4.32,1.8,7.046,7.046,0,0,1,1.6,4.86A6.8,6.8,0,0,1-13,35.5a6.054,6.054,0,0,1-4.642,1.771,6.292,6.292,0,0,1-4.307-1.463,5.839,5.839,0,0,1-1.9-4.047h2.393a4.017,4.017,0,0,0,1.217,2.577,3.783,3.783,0,0,0,2.6.868,3.413,3.413,0,0,0,2.769-1.2,5.03,5.03,0,0,0,1-3.322,4.616,4.616,0,0,0-1.087-3.206,3.7,3.7,0,0,0-2.892-1.21,4.17,4.17,0,0,0-2.6.725l-.67.547ZM-8.395,40.965-9.83,39.98a6.6,6.6,0,0,0,1.34-3.691V34.006h2.475v1.982a6.227,6.227,0,0,1-.677,2.762A6.466,6.466,0,0,1-8.395,40.965ZM6.85,17.08v2.146H6.385a6.66,6.66,0,0,0-4.7,1.75A7.282,7.282,0,0,0-.342,25.748a5.4,5.4,0,0,1,4.293-1.8A5.162,5.162,0,0,1,8.1,25.775a7.066,7.066,0,0,1,1.552,4.73,7.044,7.044,0,0,1-1.675,4.922,5.767,5.767,0,0,1-4.491,1.846,5.682,5.682,0,0,1-4.635-2.194,8.7,8.7,0,0,1-1.777-5.653v-.971q0-5.5,2.345-8.4T6.4,17.08ZM3.527,26.049a4.035,4.035,0,0,0-2.393.779A4.061,4.061,0,0,0-.383,28.783v.93A6.53,6.53,0,0,0,.725,33.678a3.319,3.319,0,0,0,2.762,1.5,3.216,3.216,0,0,0,2.687-1.258,5.219,5.219,0,0,0,.978-3.295,5.221,5.221,0,0,0-.991-3.315A3.177,3.177,0,0,0,3.527,26.049Zm19.8,4.266h2.762v2.064H23.324V37H20.781V32.379H11.717v-1.49l8.914-13.795h2.693Zm-8.736,0h6.193V20.553l-.3.547Zm25.854-8.025a4.623,4.623,0,0,1-.786,2.652,5.349,5.349,0,0,1-2.126,1.818A5.705,5.705,0,0,1,40,28.715a4.92,4.92,0,0,1,.909,2.912,5.2,5.2,0,0,1-1.743,4.115,6.7,6.7,0,0,1-4.587,1.531,6.667,6.667,0,0,1-4.6-1.538,5.226,5.226,0,0,1-1.729-4.108,5.067,5.067,0,0,1,.882-2.912,5.488,5.488,0,0,1,2.44-1.969,5.217,5.217,0,0,1-2.092-1.818,4.688,4.688,0,0,1-.766-2.639A5.146,5.146,0,0,1,30.324,18.3a6.052,6.052,0,0,1,4.252-1.477A6.057,6.057,0,0,1,38.821,18.3,5.135,5.135,0,0,1,40.441,22.289Zm-2.064,9.283a3.669,3.669,0,0,0-1.06-2.721A3.758,3.758,0,0,0,34.549,27.8a3.559,3.559,0,0,0-3.773,3.773,3.533,3.533,0,0,0,1,2.666,3.857,3.857,0,0,0,2.8.971,3.846,3.846,0,0,0,2.789-.978A3.525,3.525,0,0,0,38.377,31.572ZM34.576,18.9a3.263,3.263,0,0,0-2.413.923,3.39,3.39,0,0,0-.923,2.509,3.374,3.374,0,0,0,.909,2.454,3.612,3.612,0,0,0,4.854,0,3.374,3.374,0,0,0,.909-2.454,3.375,3.375,0,0,0-.943-2.475A3.218,3.218,0,0,0,34.576,18.9Zm29.2,10.869a8.858,8.858,0,0,1-1.545,5.441,4.952,4.952,0,0,1-4.184,2.064,5.425,5.425,0,0,1-4.238-1.709v7.123H51.283V22.207h2.311l.123,1.641a5.21,5.21,0,0,1,4.293-1.914,5.044,5.044,0,0,1,4.218,2.01,8.954,8.954,0,0,1,1.552,5.592ZM61.25,29.48a6.536,6.536,0,0,0-1.066-3.951,3.435,3.435,0,0,0-2.926-1.449,3.718,3.718,0,0,0-3.445,2.037v7.068a3.725,3.725,0,0,0,3.473,2.023,3.419,3.419,0,0,0,2.892-1.442A7.135,7.135,0,0,0,61.25,29.48Zm11.676,5.729a3.643,3.643,0,0,0,2.365-.82,2.886,2.886,0,0,0,1.121-2.051H78.8a4.587,4.587,0,0,1-.875,2.42,5.763,5.763,0,0,1-2.153,1.832,6.213,6.213,0,0,1-2.851.684,6.094,6.094,0,0,1-4.806-2.017,8.032,8.032,0,0,1-1.784-5.517v-.424a8.906,8.906,0,0,1,.793-3.842,6.04,6.04,0,0,1,2.276-2.611,6.466,6.466,0,0,1,3.507-.93,5.933,5.933,0,0,1,4.136,1.49A5.326,5.326,0,0,1,78.8,27.293H76.412a3.486,3.486,0,0,0-1.087-2.358,3.381,3.381,0,0,0-2.413-.923A3.54,3.54,0,0,0,69.925,25.4a6.517,6.517,0,0,0-1.06,4.013v.479a6.387,6.387,0,0,0,1.053,3.938A3.557,3.557,0,0,0,72.926,35.209Zm17.336-2.133a1.862,1.862,0,0,0-.772-1.593,7.435,7.435,0,0,0-2.693-.978,12.734,12.734,0,0,1-3.049-.984,4.337,4.337,0,0,1-1.668-1.367,3.27,3.27,0,0,1-.54-1.887,3.837,3.837,0,0,1,1.538-3.076,6.007,6.007,0,0,1,3.931-1.258,6.181,6.181,0,0,1,4.081,1.3,4.125,4.125,0,0,1,1.565,3.322H90.111a2.283,2.283,0,0,0-.882-1.791,3.3,3.3,0,0,0-2.222-.752,3.458,3.458,0,0,0-2.16.6,1.894,1.894,0,0,0-.779,1.572,1.534,1.534,0,0,0,.725,1.381,8.915,8.915,0,0,0,2.618.889,13.642,13.642,0,0,1,3.069,1.012,4.477,4.477,0,0,1,1.743,1.415,3.479,3.479,0,0,1,.567,2.017,3.786,3.786,0,0,1-1.586,3.179,6.652,6.652,0,0,1-4.115,1.2,7.449,7.449,0,0,1-3.145-.629,5.114,5.114,0,0,1-2.14-1.757,4.234,4.234,0,0,1-.772-2.44h2.529a2.619,2.619,0,0,0,1.019,2.017,3.951,3.951,0,0,0,2.509.745,4.079,4.079,0,0,0,2.3-.581A1.785,1.785,0,0,0,90.262,33.076Zm11.662-4.02a21.148,21.148,0,0,1-.8,5.845,17.283,17.283,0,0,1-2.447,5.161,10.722,10.722,0,0,1-3.452,3.363l-.533-1.545a10.991,10.991,0,0,0,3.384-5.011,21.677,21.677,0,0,0,1.306-7.54v-.437a22.507,22.507,0,0,0-.6-5.339A18.019,18.019,0,0,0,97.1,19.131a10.216,10.216,0,0,0-2.413-3.049l.533-1.545a10.68,10.68,0,0,1,3.438,3.336,17.32,17.32,0,0,1,2.447,5.154A21.636,21.636,0,0,1,101.924,29.057Z" transform="translate(909 315.563)"/>
      <path id="Path_616" data-name="Path 616" class="cls-8" d="M-23.017-18.484-31.261,0h-2.652L-25.7-17.828H-36.47v-2.078h13.453Zm3.186,17.158a1.584,1.584,0,0,1,.39-1.094,1.485,1.485,0,0,1,1.169-.437,1.529,1.529,0,0,1,1.183.438,1.552,1.552,0,0,1,.4,1.094,1.468,1.468,0,0,1-.4,1.053A1.557,1.557,0,0,1-18.272.15a1.511,1.511,0,0,1-1.169-.424A1.5,1.5,0,0,1-19.831-1.326ZM-2.1-6.686H.663v2.064H-2.1V0H-4.642V-4.621h-9.064v-1.49l8.914-13.795H-2.1Zm-8.736,0h6.193v-9.762l-.3.547ZM12.872-19.92v2.146h-.465a6.66,6.66,0,0,0-4.7,1.75,7.282,7.282,0,0,0-2.023,4.771,5.4,5.4,0,0,1,4.293-1.8,5.162,5.162,0,0,1,4.149,1.832,7.066,7.066,0,0,1,1.552,4.73A7.044,7.044,0,0,1,14-1.572,5.767,5.767,0,0,1,9.509.273,5.682,5.682,0,0,1,4.874-1.921,8.7,8.7,0,0,1,3.1-7.574v-.971q0-5.5,2.345-8.4t6.979-2.974ZM9.55-10.951a4.035,4.035,0,0,0-2.393.779A4.061,4.061,0,0,0,5.64-8.217v.93A6.53,6.53,0,0,0,6.747-3.322a3.319,3.319,0,0,0,2.762,1.5A3.216,3.216,0,0,0,12.2-3.076a5.219,5.219,0,0,0,.978-3.295,5.221,5.221,0,0,0-.991-3.315A3.177,3.177,0,0,0,9.55-10.951Zm8.9-5.127a4.039,4.039,0,0,1,1.142-2.953,3.933,3.933,0,0,1,2.933-1.162,3.909,3.909,0,0,1,2.946,1.169A4.179,4.179,0,0,1,26.6-16v.971a3.987,3.987,0,0,1-1.142,2.946,3.936,3.936,0,0,1-2.905,1.142,4.022,4.022,0,0,1-2.939-1.142,4.071,4.071,0,0,1-1.162-3.042Zm1.887,1.053a2.577,2.577,0,0,0,.6,1.757,2.032,2.032,0,0,0,1.613.69,1.992,1.992,0,0,0,1.565-.67,2.661,2.661,0,0,0,.595-1.832v-1a2.642,2.642,0,0,0-.588-1.764,1.982,1.982,0,0,0-1.6-.7,1.982,1.982,0,0,0-1.6.7,2.725,2.725,0,0,0-.588,1.818ZM28.144-4.881a4.016,4.016,0,0,1,1.142-2.946,3.945,3.945,0,0,1,2.933-1.155,3.98,3.98,0,0,1,2.939,1.148,4.121,4.121,0,0,1,1.148,3.049v.971A4.016,4.016,0,0,1,35.164-.868,3.928,3.928,0,0,1,32.245.287,4.022,4.022,0,0,1,29.306-.854,4.071,4.071,0,0,1,28.144-3.9ZM30.03-3.814a2.6,2.6,0,0,0,.6,1.771,2.032,2.032,0,0,0,1.613.69,1.978,1.978,0,0,0,1.572-.677,2.708,2.708,0,0,0,.588-1.839V-4.881a2.59,2.59,0,0,0-.595-1.764,2,2,0,0,0-1.593-.684,2.025,2.025,0,0,0-1.579.677,2.628,2.628,0,0,0-.608,1.825ZM23.126-1.5l-1.436-.9,9.721-15.559,1.436.9ZM-94.227,28.92a21.138,21.138,0,0,1,.827-5.934,17.237,17.237,0,0,1,2.468-5.168,10.5,10.5,0,0,1,3.4-3.281l.52,1.668a10.889,10.889,0,0,0-3.274,4.676,20.27,20.27,0,0,0-1.4,7.041l-.014,1.162a20.376,20.376,0,0,0,1.928,9.16,10.94,10.94,0,0,0,2.762,3.637l-.52,1.545A10.836,10.836,0,0,1-91,40.035,19,19,0,0,1-94.227,28.92ZM-76.508,37h-2.543V20.143l-5.1,1.873v-2.3L-76.9,17h.4Zm7.588,3.965-1.436-.984a6.6,6.6,0,0,0,1.34-3.691V34.006h2.475v1.982a6.227,6.227,0,0,1-.677,2.762A6.466,6.466,0,0,1-68.92,40.965Zm9-15.148h1.9a4.177,4.177,0,0,0,2.816-.943A3.152,3.152,0,0,0-54.182,22.4q0-3.5-3.486-3.5a3.626,3.626,0,0,0-2.618.937,3.278,3.278,0,0,0-.978,2.481h-2.529a5.078,5.078,0,0,1,1.729-3.931,6.3,6.3,0,0,1,4.4-1.565,6.226,6.226,0,0,1,4.416,1.49,5.383,5.383,0,0,1,1.6,4.143,4.37,4.37,0,0,1-.841,2.516,5.077,5.077,0,0,1-2.29,1.818,4.892,4.892,0,0,1,2.536,1.723,4.784,4.784,0,0,1,.9,2.939A5.43,5.43,0,0,1-53.1,35.7a6.553,6.553,0,0,1-4.553,1.572,6.726,6.726,0,0,1-4.56-1.518,5.034,5.034,0,0,1-1.757-4.006h2.543A3.254,3.254,0,0,0-60.4,34.266a3.9,3.9,0,0,0,2.748.943,3.827,3.827,0,0,0,2.8-.957,3.688,3.688,0,0,0,.971-2.748,3.347,3.347,0,0,0-1.066-2.666,4.646,4.646,0,0,0-3.076-.957h-1.9ZM-39.566,37h-2.543V20.143l-5.1,1.873v-2.3L-39.963,17h.4Zm8.572-9.98,1.012-9.926h10.2v2.338h-8.053l-.6,5.428A6.424,6.424,0,0,1-25.115,24a5.492,5.492,0,0,1,4.32,1.8,7.046,7.046,0,0,1,1.6,4.86A6.8,6.8,0,0,1-20.856,35.5,6.054,6.054,0,0,1-25.5,37.273,6.292,6.292,0,0,1-29.8,35.811a5.839,5.839,0,0,1-1.9-4.047h2.393A4.017,4.017,0,0,0-28.1,34.341a3.783,3.783,0,0,0,2.6.868,3.413,3.413,0,0,0,2.769-1.2,5.03,5.03,0,0,0,1-3.322,4.616,4.616,0,0,0-1.087-3.206,3.7,3.7,0,0,0-2.892-1.21,4.17,4.17,0,0,0-2.6.725l-.67.547Zm14.738,13.945-1.436-.984a6.6,6.6,0,0,0,1.34-3.691V34.006h2.475v1.982a6.227,6.227,0,0,1-.677,2.762A6.466,6.466,0,0,1-16.256,40.965ZM-1.012,17.08v2.146h-.465a6.66,6.66,0,0,0-4.7,1.75A7.282,7.282,0,0,0-8.2,25.748a5.4,5.4,0,0,1,4.293-1.8A5.162,5.162,0,0,1,.239,25.775a7.066,7.066,0,0,1,1.552,4.73A7.044,7.044,0,0,1,.116,35.428a5.767,5.767,0,0,1-4.491,1.846A5.682,5.682,0,0,1-9.01,35.079a8.7,8.7,0,0,1-1.777-5.653v-.971q0-5.5,2.345-8.4t6.979-2.974Zm-3.322,8.969a4.035,4.035,0,0,0-2.393.779,4.061,4.061,0,0,0-1.518,1.955v.93a6.53,6.53,0,0,0,1.107,3.965,3.319,3.319,0,0,0,2.762,1.5,3.216,3.216,0,0,0,2.687-1.258,5.219,5.219,0,0,0,.978-3.295A5.221,5.221,0,0,0-1.7,27.313,3.177,3.177,0,0,0-4.334,26.049Zm21.6,2.461q0,4.443-1.518,6.6a5.4,5.4,0,0,1-4.744,2.16,5.437,5.437,0,0,1-4.717-2.112Q4.758,33.049,4.7,28.852V25.475q0-4.389,1.518-6.521a5.439,5.439,0,0,1,4.758-2.133,5.488,5.488,0,0,1,4.73,2.058q1.518,2.058,1.559,6.351Zm-2.529-3.459a9.268,9.268,0,0,0-.9-4.683,3.106,3.106,0,0,0-2.857-1.47,3.065,3.065,0,0,0-2.83,1.463,9.049,9.049,0,0,0-.916,4.5v4.047a9.417,9.417,0,0,0,.937,4.765,3.1,3.1,0,0,0,2.837,1.538,3.057,3.057,0,0,0,2.782-1.449,9.076,9.076,0,0,0,.95-4.566ZM32.58,22.289a4.623,4.623,0,0,1-.786,2.652,5.349,5.349,0,0,1-2.126,1.818,5.705,5.705,0,0,1,2.468,1.955,4.92,4.92,0,0,1,.909,2.912A5.2,5.2,0,0,1,31.3,35.742a6.7,6.7,0,0,1-4.587,1.531,6.667,6.667,0,0,1-4.6-1.538,5.226,5.226,0,0,1-1.729-4.108,5.067,5.067,0,0,1,.882-2.912,5.488,5.488,0,0,1,2.44-1.969,5.217,5.217,0,0,1-2.092-1.818,4.688,4.688,0,0,1-.766-2.639A5.146,5.146,0,0,1,22.463,18.3a6.052,6.052,0,0,1,4.252-1.477A6.057,6.057,0,0,1,30.96,18.3,5.135,5.135,0,0,1,32.58,22.289Zm-2.064,9.283a3.669,3.669,0,0,0-1.06-2.721A3.758,3.758,0,0,0,26.688,27.8a3.559,3.559,0,0,0-3.773,3.773,3.533,3.533,0,0,0,1,2.666,3.857,3.857,0,0,0,2.8.971,3.846,3.846,0,0,0,2.789-.978A3.525,3.525,0,0,0,30.516,31.572ZM26.715,18.9a3.263,3.263,0,0,0-2.413.923,3.39,3.39,0,0,0-.923,2.509,3.374,3.374,0,0,0,.909,2.454,3.227,3.227,0,0,0,2.427.937,3.227,3.227,0,0,0,2.427-.937,3.374,3.374,0,0,0,.909-2.454,3.375,3.375,0,0,0-.943-2.475A3.218,3.218,0,0,0,26.715,18.9Zm29.2,10.869a8.858,8.858,0,0,1-1.545,5.441,4.952,4.952,0,0,1-4.184,2.064,5.425,5.425,0,0,1-4.238-1.709v7.123H43.422V22.207h2.311l.123,1.641a5.21,5.21,0,0,1,4.293-1.914,5.044,5.044,0,0,1,4.218,2.01,8.954,8.954,0,0,1,1.552,5.592Zm-2.529-.287a6.536,6.536,0,0,0-1.066-3.951A3.435,3.435,0,0,0,49.4,24.08a3.718,3.718,0,0,0-3.445,2.037v7.068a3.725,3.725,0,0,0,3.473,2.023,3.419,3.419,0,0,0,2.892-1.442A7.135,7.135,0,0,0,53.389,29.48Zm11.676,5.729a3.643,3.643,0,0,0,2.365-.82,2.886,2.886,0,0,0,1.121-2.051h2.393a4.587,4.587,0,0,1-.875,2.42,5.763,5.763,0,0,1-2.153,1.832,6.213,6.213,0,0,1-2.851.684,6.094,6.094,0,0,1-4.806-2.017,8.032,8.032,0,0,1-1.784-5.517v-.424a8.906,8.906,0,0,1,.793-3.842,6.04,6.04,0,0,1,2.276-2.611,6.466,6.466,0,0,1,3.507-.93,5.933,5.933,0,0,1,4.136,1.49,5.326,5.326,0,0,1,1.757,3.869H68.551a3.486,3.486,0,0,0-1.087-2.358,3.381,3.381,0,0,0-2.413-.923A3.54,3.54,0,0,0,62.063,25.4,6.517,6.517,0,0,0,61,29.412v.479a6.387,6.387,0,0,0,1.053,3.938A3.557,3.557,0,0,0,65.064,35.209ZM82.4,33.076a1.862,1.862,0,0,0-.772-1.593,7.435,7.435,0,0,0-2.693-.978,12.734,12.734,0,0,1-3.049-.984,4.337,4.337,0,0,1-1.668-1.367,3.27,3.27,0,0,1-.54-1.887,3.837,3.837,0,0,1,1.538-3.076,6.007,6.007,0,0,1,3.931-1.258,6.181,6.181,0,0,1,4.081,1.3,4.125,4.125,0,0,1,1.565,3.322H82.25a2.283,2.283,0,0,0-.882-1.791,3.3,3.3,0,0,0-2.222-.752,3.458,3.458,0,0,0-2.16.6,1.894,1.894,0,0,0-.779,1.572,1.534,1.534,0,0,0,.725,1.381,8.915,8.915,0,0,0,2.618.889,13.642,13.642,0,0,1,3.069,1.012,4.477,4.477,0,0,1,1.743,1.415A3.479,3.479,0,0,1,84.93,32.9a3.786,3.786,0,0,1-1.586,3.179,6.652,6.652,0,0,1-4.115,1.2,7.449,7.449,0,0,1-3.145-.629,5.114,5.114,0,0,1-2.14-1.757,4.234,4.234,0,0,1-.772-2.44H75.7a2.619,2.619,0,0,0,1.019,2.017,3.951,3.951,0,0,0,2.509.745,4.079,4.079,0,0,0,2.3-.581A1.785,1.785,0,0,0,82.4,33.076Zm11.662-4.02a21.148,21.148,0,0,1-.8,5.845,17.283,17.283,0,0,1-2.447,5.161,10.722,10.722,0,0,1-3.452,3.363l-.533-1.545a10.991,10.991,0,0,0,3.384-5.011,21.677,21.677,0,0,0,1.306-7.54v-.437a22.507,22.507,0,0,0-.6-5.339,18.019,18.019,0,0,0-1.675-4.423,10.216,10.216,0,0,0-2.413-3.049l.533-1.545A10.68,10.68,0,0,1,90.8,17.873a17.32,17.32,0,0,1,2.447,5.154A21.636,21.636,0,0,1,94.063,29.057Z" transform="translate(1219 315.563)"/>
      <path id="Path_618" data-name="Path 618" class="cls-8" d="M-30.687,0H-43.729V-1.818l6.891-7.656A16.37,16.37,0,0,0-34.727-12.3a4.712,4.712,0,0,0,.581-2.249,3.572,3.572,0,0,0-.943-2.557,3.3,3.3,0,0,0-2.516-1,3.906,3.906,0,0,0-2.933,1.073,4.1,4.1,0,0,0-1.046,2.987h-2.529a5.871,5.871,0,0,1,1.771-4.443,6.563,6.563,0,0,1,4.737-1.7,6.307,6.307,0,0,1,4.389,1.456A4.967,4.967,0,0,1-31.6-14.848q0,2.939-3.746,7l-5.332,5.783h9.994Zm12.373-8.75a6.189,6.189,0,0,1-1.894,1.518,5.137,5.137,0,0,1-2.413.574,5.3,5.3,0,0,1-3-.848A5.511,5.511,0,0,1-27.6-9.892a8.133,8.133,0,0,1-.7-3.4,8.287,8.287,0,0,1,.759-3.6,5.574,5.574,0,0,1,2.153-2.447,6.14,6.14,0,0,1,3.254-.848,5.559,5.559,0,0,1,4.655,2.208,9.631,9.631,0,0,1,1.7,6.022v.738q0,5.811-2.3,8.483T-25,.014h-.492V-2.119h.533a6.955,6.955,0,0,0,4.813-1.634A7.019,7.019,0,0,0-18.313-8.75Zm-3.9,0a3.906,3.906,0,0,0,2.345-.779A4.594,4.594,0,0,0-18.3-11.457v-1.012a6.96,6.96,0,0,0-1.08-4.047,3.223,3.223,0,0,0-2.734-1.559,3.248,3.248,0,0,0-2.68,1.278,5.273,5.273,0,0,0-1.012,3.37,5.488,5.488,0,0,0,.978,3.356A3.1,3.1,0,0,0-22.21-8.75Zm10.24,7.424a1.584,1.584,0,0,1,.39-1.094,1.485,1.485,0,0,1,1.169-.437,1.529,1.529,0,0,1,1.183.438,1.552,1.552,0,0,1,.4,1.094,1.468,1.468,0,0,1-.4,1.053A1.557,1.557,0,0,1-10.411.15,1.511,1.511,0,0,1-11.58-.273,1.5,1.5,0,0,1-11.97-1.326ZM8.128,0H-4.915V-1.818L1.976-9.475A16.37,16.37,0,0,0,4.088-12.3a4.712,4.712,0,0,0,.581-2.249A3.572,3.572,0,0,0,3.726-17.1a3.3,3.3,0,0,0-2.516-1,3.906,3.906,0,0,0-2.933,1.073,4.1,4.1,0,0,0-1.046,2.987H-5.3a5.871,5.871,0,0,1,1.771-4.443,6.563,6.563,0,0,1,4.737-1.7A6.307,6.307,0,0,1,5.6-18.724a4.967,4.967,0,0,1,1.613,3.876q0,2.939-3.746,7L-1.866-2.064H8.128ZM21.485-6.686h2.762v2.064H21.485V0H18.942V-4.621H9.878v-1.49l8.914-13.795h2.693Zm-8.736,0h6.193v-9.762l-.3.547Zm13.563-9.393a4.039,4.039,0,0,1,1.142-2.953,3.933,3.933,0,0,1,2.933-1.162,3.909,3.909,0,0,1,2.946,1.169A4.179,4.179,0,0,1,34.46-16v.971a3.987,3.987,0,0,1-1.142,2.946,3.936,3.936,0,0,1-2.905,1.142,4.022,4.022,0,0,1-2.939-1.142,4.071,4.071,0,0,1-1.162-3.042ZM28.2-15.025a2.577,2.577,0,0,0,.6,1.757,2.032,2.032,0,0,0,1.613.69,1.992,1.992,0,0,0,1.565-.67,2.661,2.661,0,0,0,.595-1.832v-1a2.642,2.642,0,0,0-.588-1.764,1.982,1.982,0,0,0-1.6-.7,1.982,1.982,0,0,0-1.6.7,2.725,2.725,0,0,0-.588,1.818ZM36-4.881a4.016,4.016,0,0,1,1.142-2.946,3.945,3.945,0,0,1,2.933-1.155,3.98,3.98,0,0,1,2.939,1.148,4.121,4.121,0,0,1,1.148,3.049v.971A4.016,4.016,0,0,1,43.025-.868,3.928,3.928,0,0,1,40.106.287,4.022,4.022,0,0,1,37.167-.854,4.071,4.071,0,0,1,36-3.9Zm1.887,1.066a2.6,2.6,0,0,0,.6,1.771,2.032,2.032,0,0,0,1.613.69,1.978,1.978,0,0,0,1.572-.677,2.708,2.708,0,0,0,.588-1.839V-4.881a2.59,2.59,0,0,0-.595-1.764,2,2,0,0,0-1.593-.684,2.025,2.025,0,0,0-1.579.677,2.628,2.628,0,0,0-.608,1.825ZM30.987-1.5l-1.436-.9,9.721-15.559,1.436.9ZM-94.227,28.92a21.138,21.138,0,0,1,.827-5.934,17.237,17.237,0,0,1,2.468-5.168,10.5,10.5,0,0,1,3.4-3.281l.52,1.668a10.889,10.889,0,0,0-3.274,4.676,20.27,20.27,0,0,0-1.4,7.041l-.014,1.162a20.376,20.376,0,0,0,1.928,9.16,10.94,10.94,0,0,0,2.762,3.637l-.52,1.545A10.836,10.836,0,0,1-91,40.035,19,19,0,0,1-94.227,28.92Zm10.568-1.9,1.012-9.926h10.2v2.338H-80.5l-.6,5.428A6.424,6.424,0,0,1-77.779,24a5.492,5.492,0,0,1,4.32,1.8,7.046,7.046,0,0,1,1.6,4.86A6.8,6.8,0,0,1-73.521,35.5a6.054,6.054,0,0,1-4.642,1.771,6.292,6.292,0,0,1-4.307-1.463,5.839,5.839,0,0,1-1.9-4.047h2.393a4.017,4.017,0,0,0,1.217,2.577,3.783,3.783,0,0,0,2.6.868,3.413,3.413,0,0,0,2.769-1.2,5.03,5.03,0,0,0,1-3.322,4.616,4.616,0,0,0-1.087-3.206,3.7,3.7,0,0,0-2.892-1.21,4.17,4.17,0,0,0-2.6.725l-.67.547ZM-68.92,40.965l-1.436-.984a6.6,6.6,0,0,0,1.34-3.691V34.006h2.475v1.982a6.227,6.227,0,0,1-.677,2.762A6.466,6.466,0,0,1-68.92,40.965ZM-55.289,37h-2.543V20.143l-5.1,1.873v-2.3L-55.686,17h.4Zm8.572-9.98,1.012-9.926h10.2v2.338h-8.053l-.6,5.428A6.424,6.424,0,0,1-40.838,24a5.492,5.492,0,0,1,4.32,1.8,7.046,7.046,0,0,1,1.6,4.86A6.8,6.8,0,0,1-36.579,35.5a6.054,6.054,0,0,1-4.642,1.771,6.292,6.292,0,0,1-4.307-1.463,5.839,5.839,0,0,1-1.9-4.047h2.393a4.017,4.017,0,0,0,1.217,2.577,3.783,3.783,0,0,0,2.6.868,3.413,3.413,0,0,0,2.769-1.2,5.03,5.03,0,0,0,1-3.322,4.616,4.616,0,0,0-1.087-3.206,3.7,3.7,0,0,0-2.892-1.21,4.17,4.17,0,0,0-2.6.725l-.67.547Zm24.254,1.23a6.189,6.189,0,0,1-1.894,1.518,5.137,5.137,0,0,1-2.413.574,5.3,5.3,0,0,1-3-.848,5.511,5.511,0,0,1-1.976-2.386,8.133,8.133,0,0,1-.7-3.4,8.287,8.287,0,0,1,.759-3.6,5.574,5.574,0,0,1,2.153-2.447,6.14,6.14,0,0,1,3.254-.848,5.559,5.559,0,0,1,4.655,2.208,9.631,9.631,0,0,1,1.7,6.022v.738q0,5.811-2.3,8.483t-6.932,2.741h-.492V34.881h.533a6.955,6.955,0,0,0,4.813-1.634A7.019,7.019,0,0,0-22.463,28.25Zm-3.9,0a3.906,3.906,0,0,0,2.345-.779,4.594,4.594,0,0,0,1.565-1.928V24.531a6.96,6.96,0,0,0-1.08-4.047,3.223,3.223,0,0,0-2.734-1.559,3.248,3.248,0,0,0-2.68,1.278,5.273,5.273,0,0,0-1.012,3.37,5.488,5.488,0,0,0,.978,3.356A3.1,3.1,0,0,0-26.359,28.25Zm10.1,12.715-1.436-.984a6.6,6.6,0,0,0,1.34-3.691V34.006h2.475v1.982a6.227,6.227,0,0,1-.677,2.762A6.466,6.466,0,0,1-16.256,40.965ZM-2.625,37H-5.168V20.143l-5.1,1.873v-2.3L-3.021,17h.4Zm19.893-8.49q0,4.443-1.518,6.6a5.4,5.4,0,0,1-4.744,2.16,5.437,5.437,0,0,1-4.717-2.112Q4.758,33.049,4.7,28.852V25.475q0-4.389,1.518-6.521a5.439,5.439,0,0,1,4.758-2.133,5.488,5.488,0,0,1,4.73,2.058q1.518,2.058,1.559,6.351Zm-2.529-3.459a9.268,9.268,0,0,0-.9-4.683,3.106,3.106,0,0,0-2.857-1.47,3.065,3.065,0,0,0-2.83,1.463,9.049,9.049,0,0,0-.916,4.5v4.047a9.417,9.417,0,0,0,.937,4.765,3.1,3.1,0,0,0,2.837,1.538,3.057,3.057,0,0,0,2.782-1.449,9.076,9.076,0,0,0,.95-4.566ZM28.82,37H26.277V20.143l-5.1,1.873v-2.3L28.424,17h.4Zm27.1-7.232a8.858,8.858,0,0,1-1.545,5.441,4.952,4.952,0,0,1-4.184,2.064,5.425,5.425,0,0,1-4.238-1.709v7.123H43.422V22.207h2.311l.123,1.641a5.21,5.21,0,0,1,4.293-1.914,5.044,5.044,0,0,1,4.218,2.01,8.954,8.954,0,0,1,1.552,5.592Zm-2.529-.287a6.536,6.536,0,0,0-1.066-3.951A3.435,3.435,0,0,0,49.4,24.08a3.718,3.718,0,0,0-3.445,2.037v7.068a3.725,3.725,0,0,0,3.473,2.023,3.419,3.419,0,0,0,2.892-1.442A7.135,7.135,0,0,0,53.389,29.48Zm11.676,5.729a3.643,3.643,0,0,0,2.365-.82,2.886,2.886,0,0,0,1.121-2.051h2.393a4.587,4.587,0,0,1-.875,2.42,5.763,5.763,0,0,1-2.153,1.832,6.213,6.213,0,0,1-2.851.684,6.094,6.094,0,0,1-4.806-2.017,8.032,8.032,0,0,1-1.784-5.517v-.424a8.906,8.906,0,0,1,.793-3.842,6.04,6.04,0,0,1,2.276-2.611,6.466,6.466,0,0,1,3.507-.93,5.933,5.933,0,0,1,4.136,1.49,5.326,5.326,0,0,1,1.757,3.869H68.551a3.486,3.486,0,0,0-1.087-2.358,3.381,3.381,0,0,0-2.413-.923A3.54,3.54,0,0,0,62.063,25.4,6.517,6.517,0,0,0,61,29.412v.479a6.387,6.387,0,0,0,1.053,3.938A3.557,3.557,0,0,0,65.064,35.209ZM82.4,33.076a1.862,1.862,0,0,0-.772-1.593,7.435,7.435,0,0,0-2.693-.978,12.734,12.734,0,0,1-3.049-.984,4.337,4.337,0,0,1-1.668-1.367,3.27,3.27,0,0,1-.54-1.887,3.837,3.837,0,0,1,1.538-3.076,6.007,6.007,0,0,1,3.931-1.258,6.181,6.181,0,0,1,4.081,1.3,4.125,4.125,0,0,1,1.565,3.322H82.25a2.283,2.283,0,0,0-.882-1.791,3.3,3.3,0,0,0-2.222-.752,3.458,3.458,0,0,0-2.16.6,1.894,1.894,0,0,0-.779,1.572,1.534,1.534,0,0,0,.725,1.381,8.915,8.915,0,0,0,2.618.889,13.642,13.642,0,0,1,3.069,1.012,4.477,4.477,0,0,1,1.743,1.415A3.479,3.479,0,0,1,84.93,32.9a3.786,3.786,0,0,1-1.586,3.179,6.652,6.652,0,0,1-4.115,1.2,7.449,7.449,0,0,1-3.145-.629,5.114,5.114,0,0,1-2.14-1.757,4.234,4.234,0,0,1-.772-2.44H75.7a2.619,2.619,0,0,0,1.019,2.017,3.951,3.951,0,0,0,2.509.745,4.079,4.079,0,0,0,2.3-.581A1.785,1.785,0,0,0,82.4,33.076Zm11.662-4.02a21.148,21.148,0,0,1-.8,5.845,17.283,17.283,0,0,1-2.447,5.161,10.722,10.722,0,0,1-3.452,3.363l-.533-1.545a10.991,10.991,0,0,0,3.384-5.011,21.677,21.677,0,0,0,1.306-7.54v-.437a22.507,22.507,0,0,0-.6-5.339,18.019,18.019,0,0,0-1.675-4.423,10.216,10.216,0,0,0-2.413-3.049l.533-1.545A10.68,10.68,0,0,1,90.8,17.873a17.32,17.32,0,0,1,2.447,5.154A21.636,21.636,0,0,1,94.063,29.057Z" transform="translate(1529 345.563)"/>
      <path id="Path_603" data-name="Path 603" class="cls-8" d="M23.344-15H11.789v9.75H22.8l.3-4.078h5.2V0h-27V-4.1l3.633-.7V-29.3L1.313-30v-4.125H28.266v9.352h-5.25l-.3-4.078H11.789v8.578H23.344ZM31.758-4.1l3.281-.7V-20.531l-3.633-.7v-4.125H41.414l.3,3.633a9.275,9.275,0,0,1,3.117-3.023,8.092,8.092,0,0,1,4.148-1.078,7.63,7.63,0,0,1,6,2.414q2.156,2.414,2.156,7.57V-4.8l3.281.7V0H47.344V-4.1l2.93-.7V-15.82a5.13,5.13,0,0,0-1.031-3.621,4.151,4.151,0,0,0-3.117-1.066,5.281,5.281,0,0,0-2.437.551,5.01,5.01,0,0,0-1.8,1.559V-4.8l2.766.7V0H31.758ZM78.867-3.094A8.4,8.4,0,0,1,76.043-.422a7.46,7.46,0,0,1-3.715.914A8.6,8.6,0,0,1,65.051-2.93a14.612,14.612,0,0,1-2.59-9.047v-.492q0-6,2.6-9.68a8.44,8.44,0,0,1,7.313-3.68A7.021,7.021,0,0,1,75.8-25a8.366,8.366,0,0,1,2.672,2.355v-9.094l-3.656-.7v-4.125h10.5V-4.8l3.281.7V0H79.383ZM69.3-11.977a10.419,10.419,0,0,0,1.113,5.238,3.89,3.89,0,0,0,3.645,1.91,5.292,5.292,0,0,0,2.6-.609,4.86,4.86,0,0,0,1.8-1.758V-17.953a5.213,5.213,0,0,0-1.793-1.887,4.813,4.813,0,0,0-2.566-.668,3.838,3.838,0,0,0-3.656,2.227A12.692,12.692,0,0,0,69.3-12.469Zm36.281.023H92.367v-5.273h13.219ZM119.977-31.57v6.211h4.453v4.8h-4.453V-7.641a2.985,2.985,0,0,0,.609,2.109,2.172,2.172,0,0,0,1.641.633,11.3,11.3,0,0,0,1.23-.059q.527-.059,1.184-.2l.586,4.945a16.429,16.429,0,0,1-2.273.527,15.819,15.819,0,0,1-2.437.176,7.294,7.294,0,0,1-5.449-1.945q-1.91-1.945-1.91-6.164V-20.555H109.43v-4.8h3.727V-31.57Zm7.1,18.656a13.578,13.578,0,0,1,3.176-9.293,11.065,11.065,0,0,1,8.777-3.621,11.11,11.11,0,0,1,8.8,3.609,13.567,13.567,0,0,1,3.176,9.3v.492a13.557,13.557,0,0,1-3.176,9.316,11.072,11.072,0,0,1-8.754,3.6q-5.648,0-8.824-3.6a13.557,13.557,0,0,1-3.176-9.316Zm6.844.492a11.032,11.032,0,0,0,1.219,5.566,4.208,4.208,0,0,0,3.938,2.1,4.166,4.166,0,0,0,3.879-2.109,10.959,10.959,0,0,0,1.23-5.555v-.492a10.847,10.847,0,0,0-1.242-5.508,4.2,4.2,0,0,0-3.914-2.133,4.15,4.15,0,0,0-3.891,2.133,11.018,11.018,0,0,0-1.219,5.508Zm34.875.469H155.578v-5.273H168.8ZM194.953-15H183.4v9.75h11.016l.3-4.078h5.2V0h-27V-4.1l3.633-.7V-29.3l-3.633-.7v-4.125h26.953v9.352h-5.25l-.3-4.078H183.4v8.578h11.555Zm8.414,10.9,3.281-.7V-20.531l-3.633-.7v-4.125h10.008l.3,3.633a9.275,9.275,0,0,1,3.117-3.023,8.092,8.092,0,0,1,4.148-1.078,7.63,7.63,0,0,1,6,2.414q2.156,2.414,2.156,7.57V-4.8l3.281.7V0H218.953V-4.1l2.93-.7V-15.82a5.13,5.13,0,0,0-1.031-3.621,4.151,4.151,0,0,0-3.117-1.066,5.281,5.281,0,0,0-2.437.551,5.01,5.01,0,0,0-1.8,1.559V-4.8l2.766.7V0H203.367Zm47.109,1.008a8.4,8.4,0,0,1-2.824,2.672,7.46,7.46,0,0,1-3.715.914A8.6,8.6,0,0,1,236.66-2.93a14.612,14.612,0,0,1-2.59-9.047v-.492q0-6,2.6-9.68a8.44,8.44,0,0,1,7.313-3.68,7.021,7.021,0,0,1,3.422.832,8.366,8.366,0,0,1,2.672,2.355v-9.094l-3.656-.7v-4.125h10.5V-4.8l3.281.7V0h-9.211Zm-9.562-8.883a10.419,10.419,0,0,0,1.113,5.238,3.89,3.89,0,0,0,3.645,1.91,5.292,5.292,0,0,0,2.6-.609,4.86,4.86,0,0,0,1.8-1.758V-17.953a5.213,5.213,0,0,0-1.793-1.887,4.813,4.813,0,0,0-2.566-.668,3.838,3.838,0,0,0-3.656,2.227,12.692,12.692,0,0,0-1.148,5.813Zm66-13.266-.141-.023L297.633,0h-4.594l-9.094-25.172-.141.023.656,14.977V-4.8l3.656.7V0H273.984V-4.1l3.633-.7V-29.3l-3.633-.7v-4.125h12.563l8.7,25.148h.141l8.766-25.148h12.609V-30l-3.656.7V-4.8l3.656.7V0H302.625V-4.1l3.633-.7v-5.367ZM335.508,0a12.377,12.377,0,0,1-.492-1.3,10.26,10.26,0,0,1-.328-1.348,9.415,9.415,0,0,1-2.965,2.273,8.868,8.868,0,0,1-4,.867,8.372,8.372,0,0,1-5.918-2.027,7.151,7.151,0,0,1-2.191-5.52,6.275,6.275,0,0,1,2.859-5.508q2.859-1.945,8.391-1.945h3.492v-2.484a3.736,3.736,0,0,0-1.055-2.836,4.349,4.349,0,0,0-3.117-1.008,7.382,7.382,0,0,0-2.086.27,5.458,5.458,0,0,0-1.477.645L326.18-17.2h-5.156l.023-5.625a19.206,19.206,0,0,1,4.3-2.133,15.594,15.594,0,0,1,5.285-.867,12.033,12.033,0,0,1,7.652,2.309,7.869,7.869,0,0,1,2.941,6.574V-6.469q0,.586.012,1.1a7.837,7.837,0,0,0,.082.984l2.086.281V0Zm-5.93-4.57a5.932,5.932,0,0,0,2.813-.668,5.431,5.431,0,0,0,1.969-1.676v-3.867h-3.492a4.769,4.769,0,0,0-3.3,1.02,3.192,3.192,0,0,0-1.125,2.449A2.535,2.535,0,0,0,327.27-5.3,3.394,3.394,0,0,0,329.578-4.57Zm15.938.469,3.3-.7V-20.531l-3.656-.7v-4.125h10.5V-4.8l3.281.7V0h-13.43ZM355.664-31.43H348.82v-5.133h6.844Zm4.8-1.008v-4.125h10.5V-4.8l3.3.7V0H360.82V-4.1l3.3-.7v-26.93Zm42.984-1.687a14.08,14.08,0,0,1,10.313,4,13.775,13.775,0,0,1,4.055,10.254v5.648a13.726,13.726,0,0,1-4.055,10.254A14.125,14.125,0,0,1,403.453,0H388.1V-4.1l3.633-.7V-29.3L388.1-30v-4.125h15.352Zm-4.875,5.273v23.6H403.1a7.122,7.122,0,0,0,5.766-2.484,9.757,9.757,0,0,0,2.086-6.492v-5.7a9.684,9.684,0,0,0-2.086-6.445,7.122,7.122,0,0,0-5.766-2.484ZM421.125-4.1l3.3-.7V-20.531l-3.656-.7v-4.125h10.5V-4.8l3.281.7V0h-13.43ZM431.273-31.43H424.43v-5.133h6.844ZM452.953,0a12.377,12.377,0,0,1-.492-1.3,10.26,10.26,0,0,1-.328-1.348,9.415,9.415,0,0,1-2.965,2.273,8.868,8.868,0,0,1-4,.867,8.372,8.372,0,0,1-5.918-2.027,7.151,7.151,0,0,1-2.191-5.52,6.275,6.275,0,0,1,2.859-5.508q2.859-1.945,8.391-1.945H451.8v-2.484a3.736,3.736,0,0,0-1.055-2.836,4.349,4.349,0,0,0-3.117-1.008,7.382,7.382,0,0,0-2.086.27,5.458,5.458,0,0,0-1.477.645l-.445,2.719h-5.156l.023-5.625a19.206,19.206,0,0,1,4.3-2.133,15.594,15.594,0,0,1,5.285-.867,12.033,12.033,0,0,1,7.652,2.309,7.869,7.869,0,0,1,2.941,6.574V-6.469q0,.586.012,1.1a7.837,7.837,0,0,0,.082.984l2.086.281V0Zm-5.93-4.57a5.932,5.932,0,0,0,2.813-.668A5.431,5.431,0,0,0,451.8-6.914v-3.867h-3.492a4.769,4.769,0,0,0-3.3,1.02,3.192,3.192,0,0,0-1.125,2.449,2.535,2.535,0,0,0,.832,2.016A3.394,3.394,0,0,0,447.023-4.57Zm16.57-7.9q0-6,2.613-9.68a8.469,8.469,0,0,1,7.324-3.68,7.27,7.27,0,0,1,3.75.949,8.374,8.374,0,0,1,2.766,2.707l.492-3.187h5.953V-.75a10.508,10.508,0,0,1-3.152,8q-3.152,2.988-8.66,2.988a17.191,17.191,0,0,1-4.078-.527,18.938,18.938,0,0,1-3.984-1.441l1.266-4.8a21.668,21.668,0,0,0,3.281,1.113,14.257,14.257,0,0,0,3.469.41,4.554,4.554,0,0,0,3.75-1.523,6.536,6.536,0,0,0,1.242-4.242V-2.437a7.656,7.656,0,0,1-2.648,2.18,7.807,7.807,0,0,1-3.492.75,8.627,8.627,0,0,1-7.277-3.434,14.529,14.529,0,0,1-2.613-9.035Zm6.844.492a10.329,10.329,0,0,0,1.125,5.238,3.917,3.917,0,0,0,3.656,1.91,5.649,5.649,0,0,0,2.66-.574,4.387,4.387,0,0,0,1.746-1.676V-18.094a4.722,4.722,0,0,0-1.746-1.781,5.118,5.118,0,0,0-2.613-.633,3.862,3.862,0,0,0-3.668,2.227,12.583,12.583,0,0,0-1.16,5.813ZM490.219-4.1l3.281-.7V-20.531l-3.633-.7v-4.125h10.008l.3,3.633A9.275,9.275,0,0,1,503.3-24.75a8.092,8.092,0,0,1,4.148-1.078,7.63,7.63,0,0,1,6,2.414Q515.6-21,515.6-15.844V-4.8l3.281.7V0H505.8V-4.1l2.93-.7V-15.82a5.13,5.13,0,0,0-1.031-3.621,4.151,4.151,0,0,0-3.117-1.066,5.281,5.281,0,0,0-2.437.551,5.01,5.01,0,0,0-1.8,1.559V-4.8l2.766.7V0H490.219Zm30.609-8.812A13.578,13.578,0,0,1,524-22.207a11.065,11.065,0,0,1,8.777-3.621,11.11,11.11,0,0,1,8.8,3.609,13.567,13.567,0,0,1,3.176,9.3v.492a13.557,13.557,0,0,1-3.176,9.316,11.072,11.072,0,0,1-8.754,3.6q-5.648,0-8.824-3.6a13.557,13.557,0,0,1-3.176-9.316Zm6.844.492a11.032,11.032,0,0,0,1.219,5.566,4.208,4.208,0,0,0,3.938,2.1,4.166,4.166,0,0,0,3.879-2.109,10.959,10.959,0,0,0,1.23-5.555v-.492a10.847,10.847,0,0,0-1.242-5.508,4.2,4.2,0,0,0-3.914-2.133,4.15,4.15,0,0,0-3.891,2.133,11.018,11.018,0,0,0-1.219,5.508Zm40.758-4.219h-4.594l-.727-3.164a5.994,5.994,0,0,0-1.77-.937,7.06,7.06,0,0,0-2.355-.375,4.588,4.588,0,0,0-2.859.809,2.46,2.46,0,0,0-1.055,2.027,2.308,2.308,0,0,0,1.008,1.91,10.787,10.787,0,0,0,4.031,1.348,16.409,16.409,0,0,1,6.984,2.754,6.053,6.053,0,0,1,2.273,5,6.656,6.656,0,0,1-2.941,5.59A12.748,12.748,0,0,1,558.68.492,16.216,16.216,0,0,1,553.3-.363a13.741,13.741,0,0,1-4.348-2.449l-.07-5.7h4.781l.938,3.3a3.92,3.92,0,0,0,1.664.762,9.666,9.666,0,0,0,2.2.246,5.593,5.593,0,0,0,3.176-.75,2.351,2.351,0,0,0,1.09-2.039,2.385,2.385,0,0,0-1.1-1.945,11.246,11.246,0,0,0-4.055-1.453,16.254,16.254,0,0,1-6.762-2.707,5.877,5.877,0,0,1-2.285-4.887,7.09,7.09,0,0,1,2.625-5.5q2.625-2.309,7.477-2.309a19.222,19.222,0,0,1,5.59.8,11.811,11.811,0,0,1,4.137,2.039Zm14.109-14.93v6.211h4.453v4.8h-4.453V-7.641a2.985,2.985,0,0,0,.609,2.109,2.172,2.172,0,0,0,1.641.633,11.3,11.3,0,0,0,1.23-.059q.527-.059,1.184-.2l.586,4.945a16.429,16.429,0,0,1-2.273.527,15.819,15.819,0,0,1-2.437.176,7.294,7.294,0,0,1-5.449-1.945q-1.91-1.945-1.91-6.164V-20.555h-3.727v-4.8h3.727V-31.57ZM590.133-4.1l3.3-.7V-20.531l-3.656-.7v-4.125h10.5V-4.8l3.281.7V0h-13.43ZM600.281-31.43h-6.844v-5.133h6.844ZM617.719-4.758a4.033,4.033,0,0,0,2.93-1.066,3.781,3.781,0,0,0,1.1-2.848h6.188l.07.141A7.911,7.911,0,0,1,625.125-2.1a10.88,10.88,0,0,1-7.406,2.59q-5.672,0-8.742-3.586a13.663,13.663,0,0,1-3.07-9.211v-.7a13.493,13.493,0,0,1,3.152-9.211q3.152-3.609,8.988-3.609a15.6,15.6,0,0,1,5.508.914,10.882,10.882,0,0,1,4.055,2.578l.094,6.773h-5.555l-1.125-3.961a4.323,4.323,0,0,0-1.266-.738,4.676,4.676,0,0,0-1.711-.293,4.321,4.321,0,0,0-4.1,2.109,10.949,10.949,0,0,0-1.2,5.438v.7a11.68,11.68,0,0,0,1.1,5.473A4,4,0,0,0,617.719-4.758ZM651.8-16.641H647.2l-.727-3.164a5.994,5.994,0,0,0-1.77-.937,7.06,7.06,0,0,0-2.355-.375,4.588,4.588,0,0,0-2.859.809,2.46,2.46,0,0,0-1.055,2.027,2.308,2.308,0,0,0,1.008,1.91,10.787,10.787,0,0,0,4.031,1.348,16.409,16.409,0,0,1,6.984,2.754,6.053,6.053,0,0,1,2.273,5,6.656,6.656,0,0,1-2.941,5.59A12.748,12.748,0,0,1,642.047.492a16.216,16.216,0,0,1-5.379-.855,13.741,13.741,0,0,1-4.348-2.449l-.07-5.7h4.781l.938,3.3a3.92,3.92,0,0,0,1.664.762,9.666,9.666,0,0,0,2.2.246,5.593,5.593,0,0,0,3.176-.75,2.351,2.351,0,0,0,1.09-2.039A2.385,2.385,0,0,0,645-8.93a11.246,11.246,0,0,0-4.055-1.453,16.254,16.254,0,0,1-6.762-2.707,5.877,5.877,0,0,1-2.285-4.887,7.09,7.09,0,0,1,2.625-5.5q2.625-2.309,7.477-2.309a19.222,19.222,0,0,1,5.59.8,11.811,11.811,0,0,1,4.137,2.039Z" transform="translate(134 172.563)"/>
      <path id="Path_610" data-name="Path 610" class="cls-8" d="M17.623-9.311A12.314,12.314,0,0,1,16.639-4.2,7.456,7.456,0,0,1,13.85-.875,7.674,7.674,0,0,1,9.639.273,7.608,7.608,0,0,1,5.469-.882,7.634,7.634,0,0,1,2.646-4.177,11.815,11.815,0,0,1,1.613-9.133v-1.436a12.168,12.168,0,0,1,1-5.072,7.607,7.607,0,0,1,2.823-3.37A7.575,7.575,0,0,1,9.611-20.18a7.717,7.717,0,0,1,4.218,1.155,7.442,7.442,0,0,1,2.81,3.35,12.374,12.374,0,0,1,.984,5.106ZM15.012-10.6A8.925,8.925,0,0,0,13.59-16.03a4.69,4.69,0,0,0-3.979-1.894A4.639,4.639,0,0,0,5.694-16.03a8.742,8.742,0,0,0-1.47,5.257v1.463A8.938,8.938,0,0,0,5.667-3.917,4.659,4.659,0,0,0,9.639-1.955a4.64,4.64,0,0,0,3.938-1.853,8.888,8.888,0,0,0,1.436-5.312Zm13.3-1.928a7.579,7.579,0,0,0-1.244-.1A3.333,3.333,0,0,0,23.693-10.5V0H21.164V-14.793h2.461l.041,1.709a3.938,3.938,0,0,1,3.527-1.982,2.584,2.584,0,0,1,1.121.191ZM33.387,0H30.857V-14.793h2.529ZM30.652-18.717a1.51,1.51,0,0,1,.376-1.039,1.412,1.412,0,0,1,1.114-.424,1.434,1.434,0,0,1,1.121.424,1.494,1.494,0,0,1,.383,1.039,1.445,1.445,0,0,1-.383,1.025,1.46,1.46,0,0,1-1.121.41,1.437,1.437,0,0,1-1.114-.41A1.46,1.46,0,0,1,30.652-18.717Zm6.18,11.2a8.694,8.694,0,0,1,1.6-5.5,5.116,5.116,0,0,1,4.238-2.044,5.089,5.089,0,0,1,4.225,1.914l.123-1.641h2.311V-.355a6.018,6.018,0,0,1-1.7,4.525,6.281,6.281,0,0,1-4.573,1.654,7.608,7.608,0,0,1-3.131-.684,5.389,5.389,0,0,1-2.338-1.873L38.9,1.75a4.946,4.946,0,0,0,3.979,2.01,3.875,3.875,0,0,0,2.878-1.039A3.971,3.971,0,0,0,46.785-.205V-1.477A5.2,5.2,0,0,1,42.643.273a5.053,5.053,0,0,1-4.2-2.092A9.141,9.141,0,0,1,36.832-7.52Zm2.543.287A6.633,6.633,0,0,0,40.4-3.3a3.332,3.332,0,0,0,2.871,1.429,3.7,3.7,0,0,0,3.514-2.174V-10.8A3.748,3.748,0,0,0,43.3-12.92a3.362,3.362,0,0,0-2.885,1.436A7.224,7.224,0,0,0,39.375-7.232ZM55.891,0H53.361V-14.793h2.529ZM53.156-18.717a1.51,1.51,0,0,1,.376-1.039,1.412,1.412,0,0,1,1.114-.424,1.434,1.434,0,0,1,1.121.424,1.494,1.494,0,0,1,.383,1.039,1.445,1.445,0,0,1-.383,1.025,1.46,1.46,0,0,1-1.121.41,1.437,1.437,0,0,1-1.114-.41A1.46,1.46,0,0,1,53.156-18.717Zm9.174,3.924.082,1.859a5.391,5.391,0,0,1,4.43-2.133q4.689,0,4.73,5.291V0H69.043V-9.789a3.405,3.405,0,0,0-.731-2.365,2.931,2.931,0,0,0-2.235-.766,3.65,3.65,0,0,0-2.16.656,4.456,4.456,0,0,0-1.449,1.723V0H59.938V-14.793Zm23.01,7V0H82.715V-19.906h7.342a7.376,7.376,0,0,1,5.12,1.668,5.655,5.655,0,0,1,1.853,4.416,5.58,5.58,0,0,1-1.812,4.464,7.706,7.706,0,0,1-5.188,1.565Zm0-2.146h4.717a4.721,4.721,0,0,0,3.227-.991A3.621,3.621,0,0,0,94.4-13.795a3.741,3.741,0,0,0-1.121-2.844,4.423,4.423,0,0,0-3.076-1.107H85.34Zm21.793-2.584a7.579,7.579,0,0,0-1.244-.1,3.333,3.333,0,0,0-3.377,2.119V0H99.982V-14.793h2.461l.041,1.709a3.938,3.938,0,0,1,3.527-1.982,2.584,2.584,0,0,1,1.121.191Zm1.381,4.99a8.737,8.737,0,0,1,.854-3.91,6.374,6.374,0,0,1,2.379-2.68,6.476,6.476,0,0,1,3.479-.943,6.238,6.238,0,0,1,4.888,2.092A8.048,8.048,0,0,1,121.98-7.41v.178a8.814,8.814,0,0,1-.827,3.876,6.281,6.281,0,0,1-2.365,2.673,6.55,6.55,0,0,1-3.534.957,6.223,6.223,0,0,1-4.874-2.092,8.007,8.007,0,0,1-1.866-5.537Zm2.543.3A6.329,6.329,0,0,0,112.2-3.281a3.654,3.654,0,0,0,3.056,1.49A3.631,3.631,0,0,0,118.316-3.3a6.92,6.92,0,0,0,1.135-4.231,6.318,6.318,0,0,0-1.155-3.944,3.673,3.673,0,0,0-3.069-1.511,3.632,3.632,0,0,0-3.021,1.49A6.869,6.869,0,0,0,111.057-7.232Zm20.029,5.441a3.643,3.643,0,0,0,2.365-.82,2.886,2.886,0,0,0,1.121-2.051h2.393a4.587,4.587,0,0,1-.875,2.42A5.763,5.763,0,0,1,133.937-.41a6.213,6.213,0,0,1-2.851.684,6.094,6.094,0,0,1-4.806-2.017A8.032,8.032,0,0,1,124.5-7.26v-.424a8.906,8.906,0,0,1,.793-3.842,6.04,6.04,0,0,1,2.276-2.611,6.466,6.466,0,0,1,3.507-.93,5.933,5.933,0,0,1,4.136,1.49,5.326,5.326,0,0,1,1.757,3.869h-2.393a3.486,3.486,0,0,0-1.087-2.358,3.381,3.381,0,0,0-2.413-.923,3.54,3.54,0,0,0-2.987,1.388,6.517,6.517,0,0,0-1.06,4.013v.479a6.387,6.387,0,0,0,1.053,3.938A3.557,3.557,0,0,0,131.086-1.791ZM145.947.273A6.463,6.463,0,0,1,141.053-1.7a7.332,7.332,0,0,1-1.887-5.284v-.465a8.877,8.877,0,0,1,.841-3.931,6.559,6.559,0,0,1,2.352-2.707,5.912,5.912,0,0,1,3.274-.978,5.54,5.54,0,0,1,4.484,1.9,8.228,8.228,0,0,1,1.6,5.441v1.053H141.7a5.258,5.258,0,0,0,1.278,3.534,4.018,4.018,0,0,0,3.11,1.347,4.405,4.405,0,0,0,2.27-.547,5.7,5.7,0,0,0,1.627-1.449l1.545,1.2A6.212,6.212,0,0,1,145.947.273Zm-.314-13.262a3.374,3.374,0,0,0-2.57,1.114,5.416,5.416,0,0,0-1.285,3.124h7.41v-.191a4.817,4.817,0,0,0-1.039-2.987A3.176,3.176,0,0,0,145.633-12.988Zm17.623,9.064a1.862,1.862,0,0,0-.772-1.593,7.435,7.435,0,0,0-2.693-.978,12.734,12.734,0,0,1-3.049-.984,4.337,4.337,0,0,1-1.668-1.367,3.27,3.27,0,0,1-.54-1.887,3.837,3.837,0,0,1,1.538-3.076A6.007,6.007,0,0,1,160-15.066a6.181,6.181,0,0,1,4.081,1.3,4.125,4.125,0,0,1,1.565,3.322h-2.543a2.283,2.283,0,0,0-.882-1.791A3.3,3.3,0,0,0,160-12.988a3.458,3.458,0,0,0-2.16.6,1.894,1.894,0,0,0-.779,1.572,1.534,1.534,0,0,0,.725,1.381,8.915,8.915,0,0,0,2.618.889,13.642,13.642,0,0,1,3.069,1.012,4.477,4.477,0,0,1,1.743,1.415,3.479,3.479,0,0,1,.567,2.017A3.786,3.786,0,0,1,164.2-.923a6.652,6.652,0,0,1-4.115,1.2,7.449,7.449,0,0,1-3.145-.629,5.114,5.114,0,0,1-2.14-1.757,4.234,4.234,0,0,1-.772-2.44h2.529a2.619,2.619,0,0,0,1.019,2.017,3.951,3.951,0,0,0,2.509.745,4.079,4.079,0,0,0,2.3-.581A1.785,1.785,0,0,0,163.256-3.924Zm14.438,0a1.862,1.862,0,0,0-.772-1.593,7.435,7.435,0,0,0-2.693-.978,12.734,12.734,0,0,1-3.049-.984,4.337,4.337,0,0,1-1.668-1.367,3.27,3.27,0,0,1-.54-1.887,3.837,3.837,0,0,1,1.538-3.076,6.007,6.007,0,0,1,3.931-1.258,6.181,6.181,0,0,1,4.081,1.3,4.125,4.125,0,0,1,1.565,3.322h-2.543a2.283,2.283,0,0,0-.882-1.791,3.3,3.3,0,0,0-2.222-.752,3.458,3.458,0,0,0-2.16.6,1.894,1.894,0,0,0-.779,1.572,1.534,1.534,0,0,0,.725,1.381,8.915,8.915,0,0,0,2.618.889,13.642,13.642,0,0,1,3.069,1.012,4.477,4.477,0,0,1,1.743,1.415,3.479,3.479,0,0,1,.567,2.017,3.786,3.786,0,0,1-1.586,3.179,6.652,6.652,0,0,1-4.115,1.2,7.449,7.449,0,0,1-3.145-.629,5.114,5.114,0,0,1-2.14-1.757,4.234,4.234,0,0,1-.772-2.44h2.529a2.619,2.619,0,0,0,1.019,2.017,3.951,3.951,0,0,0,2.509.745,4.079,4.079,0,0,0,2.3-.581A1.785,1.785,0,0,0,177.693-3.924ZM186.266,0h-2.529V-14.793h2.529Zm-2.734-18.717a1.51,1.51,0,0,1,.376-1.039,1.412,1.412,0,0,1,1.114-.424,1.434,1.434,0,0,1,1.121.424,1.494,1.494,0,0,1,.383,1.039,1.445,1.445,0,0,1-.383,1.025,1.46,1.46,0,0,1-1.121.41,1.437,1.437,0,0,1-1.114-.41A1.46,1.46,0,0,1,183.531-18.717Zm9.174,3.924.082,1.859a5.391,5.391,0,0,1,4.43-2.133q4.689,0,4.73,5.291V0h-2.529V-9.789a3.405,3.405,0,0,0-.731-2.365,2.931,2.931,0,0,0-2.235-.766,3.65,3.65,0,0,0-2.16.656,4.456,4.456,0,0,0-1.449,1.723V0h-2.529V-14.793ZM205.16-7.52a8.694,8.694,0,0,1,1.6-5.5A5.116,5.116,0,0,1,211-15.066a5.089,5.089,0,0,1,4.225,1.914l.123-1.641h2.311V-.355a6.018,6.018,0,0,1-1.7,4.525,6.281,6.281,0,0,1-4.573,1.654,7.608,7.608,0,0,1-3.131-.684,5.389,5.389,0,0,1-2.338-1.873l1.313-1.518A4.946,4.946,0,0,0,211.2,3.76a3.875,3.875,0,0,0,2.878-1.039,3.971,3.971,0,0,0,1.032-2.926V-1.477a5.2,5.2,0,0,1-4.143,1.75,5.053,5.053,0,0,1-4.2-2.092A9.141,9.141,0,0,1,205.16-7.52Zm2.543.287A6.633,6.633,0,0,0,208.729-3.3,3.332,3.332,0,0,0,211.6-1.873a3.7,3.7,0,0,0,3.514-2.174V-10.8a3.748,3.748,0,0,0-3.486-2.119,3.362,3.362,0,0,0-2.885,1.436A7.224,7.224,0,0,0,207.7-7.232Z" transform="translate(489 264.563)"/>
      <path id="Path_614" data-name="Path 614" class="cls-8" d="M16.064-17.746h-6.4V0H7.055V-17.746H.67v-2.16H16.064Zm8.682,5.223a7.579,7.579,0,0,0-1.244-.1A3.333,3.333,0,0,0,20.125-10.5V0H17.6V-14.793h2.461l.041,1.709a3.938,3.938,0,0,1,3.527-1.982,2.584,2.584,0,0,1,1.121.191ZM35.656,0A5.313,5.313,0,0,1,35.3-1.559,5.643,5.643,0,0,1,31.09.273,5.222,5.222,0,0,1,27.5-.964,4,4,0,0,1,26.1-4.1,4.182,4.182,0,0,1,27.856-7.69,8.283,8.283,0,0,1,32.8-8.969H35.26v-1.162a2.841,2.841,0,0,0-.793-2.112,3.187,3.187,0,0,0-2.338-.786,3.688,3.688,0,0,0-2.27.684,2.014,2.014,0,0,0-.916,1.654H26.4a3.491,3.491,0,0,1,.786-2.14,5.365,5.365,0,0,1,2.133-1.634,7.175,7.175,0,0,1,2.96-.6,5.848,5.848,0,0,1,4.006,1.278,4.611,4.611,0,0,1,1.5,3.521v6.809a8.324,8.324,0,0,0,.52,3.24V0Zm-4.2-1.928a4.445,4.445,0,0,0,2.256-.615,3.721,3.721,0,0,0,1.545-1.6V-7.178H33.277q-4.648,0-4.648,2.721A2.3,2.3,0,0,0,29.422-2.6,3.048,3.048,0,0,0,31.459-1.928ZM44.146-14.793l.082,1.859a5.391,5.391,0,0,1,4.43-2.133q4.689,0,4.73,5.291V0H50.859V-9.789a3.405,3.405,0,0,0-.731-2.365,2.931,2.931,0,0,0-2.235-.766,3.65,3.65,0,0,0-2.16.656,4.456,4.456,0,0,0-1.449,1.723V0H41.754V-14.793ZM65.816-3.924a1.862,1.862,0,0,0-.772-1.593,7.435,7.435,0,0,0-2.693-.978A12.734,12.734,0,0,1,59.3-7.479a4.337,4.337,0,0,1-1.668-1.367,3.27,3.27,0,0,1-.54-1.887,3.837,3.837,0,0,1,1.538-3.076,6.007,6.007,0,0,1,3.931-1.258,6.181,6.181,0,0,1,4.081,1.3,4.125,4.125,0,0,1,1.565,3.322H65.666a2.283,2.283,0,0,0-.882-1.791,3.3,3.3,0,0,0-2.222-.752,3.458,3.458,0,0,0-2.16.6,1.894,1.894,0,0,0-.779,1.572,1.534,1.534,0,0,0,.725,1.381,8.915,8.915,0,0,0,2.618.889,13.642,13.642,0,0,1,3.069,1.012,4.477,4.477,0,0,1,1.743,1.415A3.479,3.479,0,0,1,68.346-4.1,3.786,3.786,0,0,1,66.76-.923a6.652,6.652,0,0,1-4.115,1.2A7.449,7.449,0,0,1,59.5-.355a5.114,5.114,0,0,1-2.14-1.757,4.234,4.234,0,0,1-.772-2.44h2.529a2.619,2.619,0,0,0,1.019,2.017,3.951,3.951,0,0,0,2.509.745,4.079,4.079,0,0,0,2.3-.581A1.785,1.785,0,0,0,65.816-3.924ZM74.389,0H71.859V-14.793h2.529ZM71.654-18.717a1.51,1.51,0,0,1,.376-1.039,1.412,1.412,0,0,1,1.114-.424,1.434,1.434,0,0,1,1.121.424,1.494,1.494,0,0,1,.383,1.039,1.445,1.445,0,0,1-.383,1.025,1.46,1.46,0,0,1-1.121.41,1.437,1.437,0,0,1-1.114-.41A1.46,1.46,0,0,1,71.654-18.717Zm10.213.342v3.582h2.762v1.955H81.867v9.174a2.049,2.049,0,0,0,.369,1.333,1.555,1.555,0,0,0,1.258.444,6.124,6.124,0,0,0,1.2-.164V0a7.333,7.333,0,0,1-1.941.273A3.15,3.15,0,0,1,80.2-.752a4.405,4.405,0,0,1-.861-2.912v-9.174H76.645v-1.955h2.693v-3.582Z" transform="translate(866 264.563)"/>
      <path id="Path_615" data-name="Path 615" class="cls-8" d="M2.311,0V-19.906H7.93a9.046,9.046,0,0,1,4.594,1.148,7.767,7.767,0,0,1,3.083,3.268,10.636,10.636,0,0,1,1.1,4.867v1.271A10.673,10.673,0,0,1,15.62-4.416a7.645,7.645,0,0,1-3.1,3.254A9.622,9.622,0,0,1,7.82,0ZM4.936-17.746v15.6H7.7a6.011,6.011,0,0,0,4.724-1.887,7.791,7.791,0,0,0,1.688-5.373v-1.162a7.914,7.914,0,0,0-1.593-5.271A5.67,5.67,0,0,0,8-17.746ZM26.414.273A6.463,6.463,0,0,1,21.52-1.7a7.332,7.332,0,0,1-1.887-5.284v-.465a8.877,8.877,0,0,1,.841-3.931,6.559,6.559,0,0,1,2.352-2.707,5.912,5.912,0,0,1,3.274-.978,5.54,5.54,0,0,1,4.484,1.9,8.228,8.228,0,0,1,1.6,5.441v1.053H22.162A5.258,5.258,0,0,0,23.44-3.138a4.018,4.018,0,0,0,3.11,1.347,4.405,4.405,0,0,0,2.27-.547,5.7,5.7,0,0,0,1.627-1.449l1.545,1.2A6.212,6.212,0,0,1,26.414.273ZM26.1-12.988a3.374,3.374,0,0,0-2.57,1.114A5.416,5.416,0,0,0,22.244-8.75h7.41v-.191a4.817,4.817,0,0,0-1.039-2.987A3.176,3.176,0,0,0,26.1-12.988ZM43.723-3.924a1.862,1.862,0,0,0-.772-1.593,7.435,7.435,0,0,0-2.693-.978,12.734,12.734,0,0,1-3.049-.984A4.337,4.337,0,0,1,35.54-8.846,3.27,3.27,0,0,1,35-10.732a3.837,3.837,0,0,1,1.538-3.076,6.007,6.007,0,0,1,3.931-1.258,6.181,6.181,0,0,1,4.081,1.3,4.125,4.125,0,0,1,1.565,3.322H43.572a2.283,2.283,0,0,0-.882-1.791,3.3,3.3,0,0,0-2.222-.752,3.458,3.458,0,0,0-2.16.6,1.894,1.894,0,0,0-.779,1.572,1.534,1.534,0,0,0,.725,1.381,8.915,8.915,0,0,0,2.618.889,13.642,13.642,0,0,1,3.069,1.012,4.477,4.477,0,0,1,1.743,1.415A3.479,3.479,0,0,1,46.252-4.1,3.786,3.786,0,0,1,44.666-.923a6.652,6.652,0,0,1-4.115,1.2,7.449,7.449,0,0,1-3.145-.629,5.114,5.114,0,0,1-2.14-1.757,4.234,4.234,0,0,1-.772-2.44h2.529a2.619,2.619,0,0,0,1.019,2.017,3.951,3.951,0,0,0,2.509.745,4.079,4.079,0,0,0,2.3-.581A1.785,1.785,0,0,0,43.723-3.924Zm9.256-14.451v3.582H55.74v1.955H52.979v9.174a2.049,2.049,0,0,0,.369,1.333,1.555,1.555,0,0,0,1.258.444,6.124,6.124,0,0,0,1.2-.164V0a7.333,7.333,0,0,1-1.941.273A3.15,3.15,0,0,1,51.311-.752a4.405,4.405,0,0,1-.861-2.912v-9.174H47.756v-1.955h2.693v-3.582ZM61.441,0H58.912V-14.793h2.529ZM58.707-18.717a1.51,1.51,0,0,1,.376-1.039A1.412,1.412,0,0,1,60.2-20.18a1.434,1.434,0,0,1,1.121.424,1.494,1.494,0,0,1,.383,1.039,1.445,1.445,0,0,1-.383,1.025,1.46,1.46,0,0,1-1.121.41,1.437,1.437,0,0,1-1.114-.41A1.46,1.46,0,0,1,58.707-18.717Zm9.174,3.924.082,1.859a5.391,5.391,0,0,1,4.43-2.133q4.689,0,4.73,5.291V0H74.594V-9.789a3.405,3.405,0,0,0-.731-2.365,2.931,2.931,0,0,0-2.235-.766,3.65,3.65,0,0,0-2.16.656,4.456,4.456,0,0,0-1.449,1.723V0H65.488V-14.793ZM90.07,0a5.313,5.313,0,0,1-.355-1.559A5.643,5.643,0,0,1,85.5.273,5.222,5.222,0,0,1,81.915-.964a4,4,0,0,1-1.4-3.138A4.182,4.182,0,0,1,82.271-7.69a8.283,8.283,0,0,1,4.942-1.278h2.461v-1.162a2.841,2.841,0,0,0-.793-2.112,3.187,3.187,0,0,0-2.338-.786,3.688,3.688,0,0,0-2.27.684,2.014,2.014,0,0,0-.916,1.654H80.814a3.491,3.491,0,0,1,.786-2.14,5.365,5.365,0,0,1,2.133-1.634,7.175,7.175,0,0,1,2.96-.6A5.848,5.848,0,0,1,90.7-13.788a4.611,4.611,0,0,1,1.5,3.521v6.809a8.324,8.324,0,0,0,.52,3.24V0Zm-4.2-1.928a4.445,4.445,0,0,0,2.256-.615,3.721,3.721,0,0,0,1.545-1.6V-7.178H87.691q-4.648,0-4.648,2.721A2.3,2.3,0,0,0,83.836-2.6,3.048,3.048,0,0,0,85.873-1.928ZM99.6-18.375v3.582h2.762v1.955H99.6v9.174a2.049,2.049,0,0,0,.369,1.333,1.555,1.555,0,0,0,1.258.444,6.124,6.124,0,0,0,1.2-.164V0a7.333,7.333,0,0,1-1.941.273A3.15,3.15,0,0,1,97.932-.752a4.405,4.405,0,0,1-.861-2.912v-9.174H94.377v-1.955H97.07v-3.582ZM108.063,0h-2.529V-14.793h2.529Zm-2.734-18.717a1.51,1.51,0,0,1,.376-1.039,1.412,1.412,0,0,1,1.114-.424,1.434,1.434,0,0,1,1.121.424,1.494,1.494,0,0,1,.383,1.039,1.445,1.445,0,0,1-.383,1.025,1.46,1.46,0,0,1-1.121.41,1.437,1.437,0,0,1-1.114-.41A1.46,1.46,0,0,1,105.328-18.717Zm6.111,11.184a8.737,8.737,0,0,1,.854-3.91,6.374,6.374,0,0,1,2.379-2.68,6.476,6.476,0,0,1,3.479-.943,6.238,6.238,0,0,1,4.888,2.092,8.048,8.048,0,0,1,1.866,5.564v.178a8.814,8.814,0,0,1-.827,3.876,6.281,6.281,0,0,1-2.365,2.673,6.55,6.55,0,0,1-3.534.957,6.223,6.223,0,0,1-4.874-2.092,8.007,8.007,0,0,1-1.866-5.537Zm2.543.3a6.329,6.329,0,0,0,1.142,3.951,3.654,3.654,0,0,0,3.056,1.49A3.631,3.631,0,0,0,121.242-3.3a6.92,6.92,0,0,0,1.135-4.231,6.318,6.318,0,0,0-1.155-3.944,3.673,3.673,0,0,0-3.069-1.511,3.632,3.632,0,0,0-3.021,1.49A6.869,6.869,0,0,0,113.982-7.232Zm16.488-7.561.082,1.859a5.391,5.391,0,0,1,4.43-2.133q4.689,0,4.73,5.291V0h-2.529V-9.789a3.405,3.405,0,0,0-.731-2.365,2.931,2.931,0,0,0-2.235-.766,3.65,3.65,0,0,0-2.16.656,4.456,4.456,0,0,0-1.449,1.723V0h-2.529V-14.793Zm23.01,7V0h-2.625V-19.906H158.2a7.376,7.376,0,0,1,5.12,1.668,5.655,5.655,0,0,1,1.853,4.416,5.58,5.58,0,0,1-1.812,4.464,7.706,7.706,0,0,1-5.188,1.565Zm0-2.146H158.2a4.721,4.721,0,0,0,3.227-.991,3.621,3.621,0,0,0,1.121-2.864,3.741,3.741,0,0,0-1.121-2.844,4.423,4.423,0,0,0-3.076-1.107H153.48Zm21.793-2.584a7.58,7.58,0,0,0-1.244-.1,3.333,3.333,0,0,0-3.377,2.119V0h-2.529V-14.793h2.461l.041,1.709a3.938,3.938,0,0,1,3.527-1.982,2.584,2.584,0,0,1,1.121.191Zm1.381,4.99a8.738,8.738,0,0,1,.854-3.91,6.374,6.374,0,0,1,2.379-2.68,6.476,6.476,0,0,1,3.479-.943,6.238,6.238,0,0,1,4.888,2.092,8.048,8.048,0,0,1,1.866,5.564v.178a8.814,8.814,0,0,1-.827,3.876,6.281,6.281,0,0,1-2.365,2.673,6.55,6.55,0,0,1-3.534.957,6.223,6.223,0,0,1-4.874-2.092,8.007,8.007,0,0,1-1.866-5.537Zm2.543.3a6.329,6.329,0,0,0,1.142,3.951,3.653,3.653,0,0,0,3.056,1.49A3.631,3.631,0,0,0,186.457-3.3a6.92,6.92,0,0,0,1.135-4.231,6.317,6.317,0,0,0-1.155-3.944,3.673,3.673,0,0,0-3.069-1.511,3.632,3.632,0,0,0-3.021,1.49A6.869,6.869,0,0,0,179.2-7.232Zm20.029,5.441a3.643,3.643,0,0,0,2.365-.82,2.886,2.886,0,0,0,1.121-2.051h2.393a4.587,4.587,0,0,1-.875,2.42A5.763,5.763,0,0,1,202.077-.41a6.213,6.213,0,0,1-2.851.684,6.094,6.094,0,0,1-4.806-2.017,8.032,8.032,0,0,1-1.784-5.517v-.424a8.906,8.906,0,0,1,.793-3.842,6.04,6.04,0,0,1,2.276-2.611,6.466,6.466,0,0,1,3.507-.93,5.933,5.933,0,0,1,4.136,1.49,5.326,5.326,0,0,1,1.757,3.869h-2.393a3.486,3.486,0,0,0-1.087-2.358,3.381,3.381,0,0,0-2.413-.923,3.54,3.54,0,0,0-2.987,1.388,6.517,6.517,0,0,0-1.06,4.013v.479a6.387,6.387,0,0,0,1.053,3.938A3.557,3.557,0,0,0,199.227-1.791ZM214.088.273A6.463,6.463,0,0,1,209.193-1.7a7.332,7.332,0,0,1-1.887-5.284v-.465a8.877,8.877,0,0,1,.841-3.931,6.559,6.559,0,0,1,2.352-2.707,5.912,5.912,0,0,1,3.274-.978,5.54,5.54,0,0,1,4.484,1.9,8.228,8.228,0,0,1,1.6,5.441v1.053H209.836a5.258,5.258,0,0,0,1.278,3.534,4.018,4.018,0,0,0,3.11,1.347,4.405,4.405,0,0,0,2.27-.547,5.7,5.7,0,0,0,1.627-1.449l1.545,1.2A6.212,6.212,0,0,1,214.088.273Zm-.314-13.262a3.374,3.374,0,0,0-2.57,1.114,5.416,5.416,0,0,0-1.285,3.124h7.41v-.191a4.817,4.817,0,0,0-1.039-2.987A3.176,3.176,0,0,0,213.773-12.988ZM231.4-3.924a1.862,1.862,0,0,0-.772-1.593,7.435,7.435,0,0,0-2.693-.978,12.734,12.734,0,0,1-3.049-.984,4.337,4.337,0,0,1-1.668-1.367,3.27,3.27,0,0,1-.54-1.887,3.837,3.837,0,0,1,1.538-3.076,6.007,6.007,0,0,1,3.931-1.258,6.181,6.181,0,0,1,4.081,1.3,4.125,4.125,0,0,1,1.565,3.322h-2.543a2.283,2.283,0,0,0-.882-1.791,3.3,3.3,0,0,0-2.222-.752,3.458,3.458,0,0,0-2.16.6,1.894,1.894,0,0,0-.779,1.572,1.534,1.534,0,0,0,.725,1.381,8.915,8.915,0,0,0,2.618.889,13.642,13.642,0,0,1,3.069,1.012,4.477,4.477,0,0,1,1.743,1.415,3.479,3.479,0,0,1,.567,2.017A3.786,3.786,0,0,1,232.34-.923a6.652,6.652,0,0,1-4.115,1.2,7.449,7.449,0,0,1-3.145-.629,5.114,5.114,0,0,1-2.14-1.757,4.234,4.234,0,0,1-.772-2.44H224.7a2.619,2.619,0,0,0,1.019,2.017,3.951,3.951,0,0,0,2.509.745,4.079,4.079,0,0,0,2.3-.581A1.785,1.785,0,0,0,231.4-3.924Zm14.438,0a1.862,1.862,0,0,0-.772-1.593,7.435,7.435,0,0,0-2.693-.978,12.734,12.734,0,0,1-3.049-.984,4.337,4.337,0,0,1-1.668-1.367,3.27,3.27,0,0,1-.54-1.887,3.837,3.837,0,0,1,1.538-3.076,6.007,6.007,0,0,1,3.931-1.258,6.181,6.181,0,0,1,4.081,1.3,4.125,4.125,0,0,1,1.565,3.322h-2.543a2.283,2.283,0,0,0-.882-1.791,3.3,3.3,0,0,0-2.222-.752,3.458,3.458,0,0,0-2.16.6,1.894,1.894,0,0,0-.779,1.572,1.534,1.534,0,0,0,.725,1.381,8.915,8.915,0,0,0,2.618.889,13.642,13.642,0,0,1,3.069,1.012A4.477,4.477,0,0,1,247.8-6.118a3.479,3.479,0,0,1,.567,2.017,3.786,3.786,0,0,1-1.586,3.179,6.652,6.652,0,0,1-4.115,1.2,7.449,7.449,0,0,1-3.145-.629,5.114,5.114,0,0,1-2.14-1.757,4.234,4.234,0,0,1-.772-2.44h2.529a2.619,2.619,0,0,0,1.019,2.017,3.951,3.951,0,0,0,2.509.745,4.079,4.079,0,0,0,2.3-.581A1.785,1.785,0,0,0,245.834-3.924ZM254.406,0h-2.529V-14.793h2.529Zm-2.734-18.717a1.51,1.51,0,0,1,.376-1.039,1.412,1.412,0,0,1,1.114-.424,1.434,1.434,0,0,1,1.121.424,1.494,1.494,0,0,1,.383,1.039,1.445,1.445,0,0,1-.383,1.025,1.46,1.46,0,0,1-1.121.41,1.437,1.437,0,0,1-1.114-.41A1.46,1.46,0,0,1,251.672-18.717Zm9.174,3.924.082,1.859a5.391,5.391,0,0,1,4.43-2.133q4.689,0,4.73,5.291V0h-2.529V-9.789a3.406,3.406,0,0,0-.731-2.365,2.931,2.931,0,0,0-2.235-.766,3.65,3.65,0,0,0-2.16.656,4.456,4.456,0,0,0-1.449,1.723V0h-2.529V-14.793ZM273.3-7.52a8.694,8.694,0,0,1,1.6-5.5,5.116,5.116,0,0,1,4.238-2.044,5.089,5.089,0,0,1,4.225,1.914l.123-1.641H285.8V-.355a6.018,6.018,0,0,1-1.7,4.525,6.281,6.281,0,0,1-4.573,1.654,7.608,7.608,0,0,1-3.131-.684,5.389,5.389,0,0,1-2.338-1.873l1.313-1.518a4.946,4.946,0,0,0,3.979,2.01,3.875,3.875,0,0,0,2.878-1.039,3.971,3.971,0,0,0,1.032-2.926V-1.477a5.2,5.2,0,0,1-4.143,1.75,5.053,5.053,0,0,1-4.2-2.092A9.141,9.141,0,0,1,273.3-7.52Zm2.543.287A6.633,6.633,0,0,0,276.869-3.3a3.332,3.332,0,0,0,2.871,1.429,3.7,3.7,0,0,0,3.514-2.174V-10.8a3.748,3.748,0,0,0-3.486-2.119,3.362,3.362,0,0,0-2.885,1.436A7.224,7.224,0,0,0,275.844-7.232Z" transform="translate(1075 264.563)"/>
      <path id="Path_617" data-name="Path 617" class="cls-8" d="M4.949-2.146h9.434V0H2.311V-19.906H4.949ZM26.113,0a5.313,5.313,0,0,1-.355-1.559A5.643,5.643,0,0,1,21.547.273,5.222,5.222,0,0,1,17.958-.964a4,4,0,0,1-1.4-3.138A4.182,4.182,0,0,1,18.313-7.69a8.283,8.283,0,0,1,4.942-1.278h2.461v-1.162a2.841,2.841,0,0,0-.793-2.112,3.187,3.187,0,0,0-2.338-.786,3.688,3.688,0,0,0-2.27.684,2.014,2.014,0,0,0-.916,1.654H16.857a3.491,3.491,0,0,1,.786-2.14,5.365,5.365,0,0,1,2.133-1.634,7.175,7.175,0,0,1,2.96-.6,5.848,5.848,0,0,1,4.006,1.278,4.611,4.611,0,0,1,1.5,3.521v6.809a8.324,8.324,0,0,0,.52,3.24V0Zm-4.2-1.928a4.445,4.445,0,0,0,2.256-.615,3.721,3.721,0,0,0,1.545-1.6V-7.178H23.734q-4.648,0-4.648,2.721A2.3,2.3,0,0,0,19.879-2.6,3.048,3.048,0,0,0,21.916-1.928Zm18.908-2a1.862,1.862,0,0,0-.772-1.593,7.435,7.435,0,0,0-2.693-.978,12.734,12.734,0,0,1-3.049-.984,4.337,4.337,0,0,1-1.668-1.367,3.27,3.27,0,0,1-.54-1.887,3.837,3.837,0,0,1,1.538-3.076,6.007,6.007,0,0,1,3.931-1.258,6.181,6.181,0,0,1,4.081,1.3,4.125,4.125,0,0,1,1.565,3.322H40.674a2.283,2.283,0,0,0-.882-1.791,3.3,3.3,0,0,0-2.222-.752,3.458,3.458,0,0,0-2.16.6,1.894,1.894,0,0,0-.779,1.572,1.534,1.534,0,0,0,.725,1.381,8.915,8.915,0,0,0,2.618.889,13.642,13.642,0,0,1,3.069,1.012,4.477,4.477,0,0,1,1.743,1.415A3.479,3.479,0,0,1,43.354-4.1,3.786,3.786,0,0,1,41.768-.923a6.652,6.652,0,0,1-4.115,1.2,7.449,7.449,0,0,1-3.145-.629,5.114,5.114,0,0,1-2.14-1.757,4.234,4.234,0,0,1-.772-2.44h2.529a2.619,2.619,0,0,0,1.019,2.017,3.951,3.951,0,0,0,2.509.745,4.079,4.079,0,0,0,2.3-.581A1.785,1.785,0,0,0,40.824-3.924ZM50.08-18.375v3.582h2.762v1.955H50.08v9.174a2.049,2.049,0,0,0,.369,1.333,1.555,1.555,0,0,0,1.258.444,6.124,6.124,0,0,0,1.2-.164V0a7.333,7.333,0,0,1-1.941.273A3.15,3.15,0,0,1,48.412-.752a4.405,4.405,0,0,1-.861-2.912v-9.174H44.857v-1.955h2.693v-3.582Zm16.434-1.531L73.021-3.664l6.508-16.242h3.4V0H80.309V-7.752l.246-8.367L74.02,0H72.01L65.488-16.078l.26,8.326V0H63.123V-19.906ZM89.92,0H87.391V-14.793H89.92ZM87.186-18.717a1.51,1.51,0,0,1,.376-1.039,1.412,1.412,0,0,1,1.114-.424,1.434,1.434,0,0,1,1.121.424,1.494,1.494,0,0,1,.383,1.039,1.445,1.445,0,0,1-.383,1.025,1.46,1.46,0,0,1-1.121.41,1.437,1.437,0,0,1-1.114-.41A1.46,1.46,0,0,1,87.186-18.717ZM96.715,0H94.186V-21h2.529ZM106.9.273A6.463,6.463,0,0,1,102.006-1.7a7.332,7.332,0,0,1-1.887-5.284v-.465a8.877,8.877,0,0,1,.841-3.931,6.559,6.559,0,0,1,2.352-2.707,5.912,5.912,0,0,1,3.274-.978,5.54,5.54,0,0,1,4.484,1.9,8.228,8.228,0,0,1,1.6,5.441v1.053H102.648a5.258,5.258,0,0,0,1.278,3.534,4.018,4.018,0,0,0,3.11,1.347,4.405,4.405,0,0,0,2.27-.547,5.7,5.7,0,0,0,1.627-1.449l1.545,1.2A6.212,6.212,0,0,1,106.9.273Zm-.314-13.262a3.374,3.374,0,0,0-2.57,1.114A5.416,5.416,0,0,0,102.73-8.75h7.41v-.191a4.817,4.817,0,0,0-1.039-2.987A3.176,3.176,0,0,0,106.586-12.988Z" transform="translate(1472 264.563)"/>
      <path id="Path_612" data-name="Path 612" class="cls-8" d="M-225.429-19.906V-6.371A6.349,6.349,0,0,1-227.2-1.764a7.135,7.135,0,0,1-4.765,2.01l-.7.027A7.451,7.451,0,0,1-237.87-1.49a6.308,6.308,0,0,1-1.969-4.854V-19.906h2.6v13.48a4.553,4.553,0,0,0,1.189,3.356,4.572,4.572,0,0,0,3.391,1.2,4.6,4.6,0,0,0,3.411-1.189,4.545,4.545,0,0,0,1.183-3.35V-19.906Zm6.139,5.113.082,1.859a5.391,5.391,0,0,1,4.43-2.133q4.689,0,4.73,5.291V0h-2.529V-9.789a3.405,3.405,0,0,0-.731-2.365,2.931,2.931,0,0,0-2.235-.766,3.65,3.65,0,0,0-2.16.656,4.456,4.456,0,0,0-1.449,1.723V0h-2.529V-14.793ZM-197.1,0a5.313,5.313,0,0,1-.355-1.559A5.643,5.643,0,0,1-201.667.273a5.222,5.222,0,0,1-3.589-1.237,4,4,0,0,1-1.4-3.138A4.182,4.182,0,0,1-204.9-7.69a8.283,8.283,0,0,1,4.942-1.278h2.461v-1.162a2.841,2.841,0,0,0-.793-2.112,3.187,3.187,0,0,0-2.338-.786,3.688,3.688,0,0,0-2.27.684,2.014,2.014,0,0,0-.916,1.654h-2.543a3.491,3.491,0,0,1,.786-2.14,5.365,5.365,0,0,1,2.133-1.634,7.175,7.175,0,0,1,2.96-.6,5.848,5.848,0,0,1,4.006,1.278,4.611,4.611,0,0,1,1.5,3.521v6.809a8.324,8.324,0,0,0,.52,3.24V0Zm-4.2-1.928a4.445,4.445,0,0,0,2.256-.615,3.721,3.721,0,0,0,1.545-1.6V-7.178h-1.982q-4.648,0-4.648,2.721a2.3,2.3,0,0,0,.793,1.859A3.048,3.048,0,0,0-201.3-1.928Zm22.818-5.3a8.8,8.8,0,0,1-1.559,5.448A4.98,4.98,0,0,1-184.222.273a5.157,5.157,0,0,1-4.334-1.982L-188.679,0H-191V-21h2.529v7.834a5.128,5.128,0,0,1,4.225-1.9,5.01,5.01,0,0,1,4.231,2.037,9.06,9.06,0,0,1,1.538,5.578Zm-2.529-.287a6.835,6.835,0,0,0-1-3.992,3.3,3.3,0,0,0-2.871-1.408,3.713,3.713,0,0,0-3.6,2.324v6.4a3.817,3.817,0,0,0,3.623,2.324,3.286,3.286,0,0,0,2.83-1.408A7.268,7.268,0,0,0-181.009-7.52ZM-172.546,0h-2.529V-21h2.529Zm10.186.273A6.463,6.463,0,0,1-167.255-1.7a7.332,7.332,0,0,1-1.887-5.284v-.465a8.877,8.877,0,0,1,.841-3.931,6.559,6.559,0,0,1,2.352-2.707,5.912,5.912,0,0,1,3.274-.978,5.54,5.54,0,0,1,4.484,1.9,8.228,8.228,0,0,1,1.6,5.441v1.053h-10.021a5.258,5.258,0,0,0,1.278,3.534,4.018,4.018,0,0,0,3.11,1.347,4.405,4.405,0,0,0,2.27-.547,5.7,5.7,0,0,0,1.627-1.449l1.545,1.2A6.212,6.212,0,0,1-162.36.273Zm-.314-13.262a3.374,3.374,0,0,0-2.57,1.114A5.416,5.416,0,0,0-166.53-8.75h7.41v-.191a4.817,4.817,0,0,0-1.039-2.987A3.176,3.176,0,0,0-162.675-12.988Zm19.373-5.387v3.582h2.762v1.955H-143.3v9.174a2.049,2.049,0,0,0,.369,1.333,1.555,1.555,0,0,0,1.258.444,6.124,6.124,0,0,0,1.2-.164V0a7.333,7.333,0,0,1-1.941.273A3.15,3.15,0,0,1-144.97-.752a4.405,4.405,0,0,1-.861-2.912v-9.174h-2.693v-1.955h2.693v-3.582Zm4.771,10.842a8.738,8.738,0,0,1,.854-3.91,6.374,6.374,0,0,1,2.379-2.68,6.476,6.476,0,0,1,3.479-.943,6.238,6.238,0,0,1,4.888,2.092,8.048,8.048,0,0,1,1.866,5.564v.178a8.814,8.814,0,0,1-.827,3.876,6.281,6.281,0,0,1-2.365,2.673,6.55,6.55,0,0,1-3.534.957,6.223,6.223,0,0,1-4.874-2.092,8.007,8.007,0,0,1-1.866-5.537Zm2.543.3a6.329,6.329,0,0,0,1.142,3.951,3.653,3.653,0,0,0,3.056,1.49A3.631,3.631,0,0,0-128.728-3.3a6.92,6.92,0,0,0,1.135-4.231,6.318,6.318,0,0,0-1.155-3.944,3.673,3.673,0,0,0-3.069-1.511,3.632,3.632,0,0,0-3.021,1.49A6.869,6.869,0,0,0-135.987-7.232ZM-103.571-5.2h-8.34L-113.784,0h-2.707l7.6-19.906h2.3L-98.978,0h-2.693Zm-7.547-2.16h6.768l-3.391-9.311Zm23.037,3.432a1.862,1.862,0,0,0-.772-1.593,7.435,7.435,0,0,0-2.693-.978A12.734,12.734,0,0,1-94.6-7.479a4.337,4.337,0,0,1-1.668-1.367,3.27,3.27,0,0,1-.54-1.887,3.837,3.837,0,0,1,1.538-3.076,6.007,6.007,0,0,1,3.931-1.258,6.181,6.181,0,0,1,4.081,1.3,4.125,4.125,0,0,1,1.565,3.322h-2.543a2.283,2.283,0,0,0-.882-1.791,3.3,3.3,0,0,0-2.222-.752,3.458,3.458,0,0,0-2.16.6,1.894,1.894,0,0,0-.779,1.572,1.534,1.534,0,0,0,.725,1.381,8.915,8.915,0,0,0,2.618.889,13.642,13.642,0,0,1,3.069,1.012,4.477,4.477,0,0,1,1.743,1.415A3.479,3.479,0,0,1-85.552-4.1,3.786,3.786,0,0,1-87.138-.923a6.652,6.652,0,0,1-4.115,1.2A7.449,7.449,0,0,1-94.4-.355a5.114,5.114,0,0,1-2.14-1.757,4.234,4.234,0,0,1-.772-2.44h2.529a2.619,2.619,0,0,0,1.019,2.017,3.951,3.951,0,0,0,2.509.745,4.079,4.079,0,0,0,2.3-.581A1.785,1.785,0,0,0-88.081-3.924Zm14.438,0a1.862,1.862,0,0,0-.772-1.593,7.435,7.435,0,0,0-2.693-.978,12.734,12.734,0,0,1-3.049-.984,4.337,4.337,0,0,1-1.668-1.367,3.27,3.27,0,0,1-.54-1.887,3.837,3.837,0,0,1,1.538-3.076A6.007,6.007,0,0,1-76.9-15.066a6.181,6.181,0,0,1,4.081,1.3,4.125,4.125,0,0,1,1.565,3.322h-2.543a2.283,2.283,0,0,0-.882-1.791,3.3,3.3,0,0,0-2.222-.752,3.458,3.458,0,0,0-2.16.6,1.894,1.894,0,0,0-.779,1.572,1.534,1.534,0,0,0,.725,1.381,8.915,8.915,0,0,0,2.618.889,13.642,13.642,0,0,1,3.069,1.012,4.477,4.477,0,0,1,1.743,1.415A3.479,3.479,0,0,1-71.114-4.1,3.786,3.786,0,0,1-72.7-.923a6.652,6.652,0,0,1-4.115,1.2A7.449,7.449,0,0,1-79.96-.355,5.114,5.114,0,0,1-82.1-2.112a4.234,4.234,0,0,1-.772-2.44h2.529a2.619,2.619,0,0,0,1.019,2.017,3.951,3.951,0,0,0,2.509.745,4.079,4.079,0,0,0,2.3-.581A1.785,1.785,0,0,0-73.644-3.924ZM-65.071,0H-67.6V-14.793h2.529Zm-2.734-18.717a1.51,1.51,0,0,1,.376-1.039,1.412,1.412,0,0,1,1.114-.424,1.434,1.434,0,0,1,1.121.424,1.494,1.494,0,0,1,.383,1.039,1.445,1.445,0,0,1-.383,1.025,1.46,1.46,0,0,1-1.121.41,1.437,1.437,0,0,1-1.114-.41A1.46,1.46,0,0,1-67.806-18.717Zm6.18,11.2a8.694,8.694,0,0,1,1.6-5.5,5.116,5.116,0,0,1,4.238-2.044,5.089,5.089,0,0,1,4.225,1.914l.123-1.641h2.311V-.355a6.018,6.018,0,0,1-1.7,4.525,6.281,6.281,0,0,1-4.573,1.654,7.608,7.608,0,0,1-3.131-.684,5.389,5.389,0,0,1-2.338-1.873l1.313-1.518a4.946,4.946,0,0,0,3.979,2.01,3.875,3.875,0,0,0,2.878-1.039A3.971,3.971,0,0,0-51.673-.205V-1.477A5.2,5.2,0,0,1-55.815.273a5.053,5.053,0,0,1-4.2-2.092A9.141,9.141,0,0,1-61.626-7.52Zm2.543.287A6.633,6.633,0,0,0-58.058-3.3a3.332,3.332,0,0,0,2.871,1.429,3.7,3.7,0,0,0,3.514-2.174V-10.8a3.748,3.748,0,0,0-3.486-2.119,3.362,3.362,0,0,0-2.885,1.436A7.224,7.224,0,0,0-59.083-7.232Zm16.16-7.561.082,1.859a5.391,5.391,0,0,1,4.43-2.133q4.689,0,4.73,5.291V0H-36.21V-9.789a3.405,3.405,0,0,0-.731-2.365,2.931,2.931,0,0,0-2.235-.766,3.65,3.65,0,0,0-2.16.656,4.456,4.456,0,0,0-1.449,1.723V0h-2.529V-14.793Zm22.5,18.484h-2.037v-23.6h2.037ZM-5.763-11.184h1.9a4.177,4.177,0,0,0,2.816-.943A3.152,3.152,0,0,0-.021-14.6q0-3.5-3.486-3.5a3.626,3.626,0,0,0-2.618.937A3.278,3.278,0,0,0-7.1-14.684H-9.632A5.078,5.078,0,0,1-7.9-18.614a6.3,6.3,0,0,1,4.4-1.565,6.226,6.226,0,0,1,4.416,1.49,5.383,5.383,0,0,1,1.6,4.143,4.37,4.37,0,0,1-.841,2.516,5.077,5.077,0,0,1-2.29,1.818A4.892,4.892,0,0,1,1.914-8.49a4.784,4.784,0,0,1,.9,2.939A5.43,5.43,0,0,1,1.06-1.3,6.553,6.553,0,0,1-3.493.273a6.726,6.726,0,0,1-4.56-1.518A5.034,5.034,0,0,1-9.81-5.25h2.543A3.254,3.254,0,0,0-6.241-2.734a3.9,3.9,0,0,0,2.748.943,3.827,3.827,0,0,0,2.8-.957A3.688,3.688,0,0,0,.28-5.5,3.347,3.347,0,0,0-.786-8.162a4.646,4.646,0,0,0-3.076-.957h-1.9ZM6.6-1.326a1.584,1.584,0,0,1,.39-1.094,1.485,1.485,0,0,1,1.169-.437,1.529,1.529,0,0,1,1.183.438,1.552,1.552,0,0,1,.4,1.094,1.468,1.468,0,0,1-.4,1.053A1.557,1.557,0,0,1,8.155.15,1.511,1.511,0,0,1,6.986-.273,1.5,1.5,0,0,1,6.6-1.326ZM23.577-19.92v2.146h-.465a6.66,6.66,0,0,0-4.7,1.75,7.282,7.282,0,0,0-2.023,4.771,5.4,5.4,0,0,1,4.293-1.8,5.162,5.162,0,0,1,4.149,1.832,7.066,7.066,0,0,1,1.552,4.73,7.044,7.044,0,0,1-1.675,4.922A5.767,5.767,0,0,1,20.214.273a5.682,5.682,0,0,1-4.635-2.194A8.7,8.7,0,0,1,13.8-7.574v-.971q0-5.5,2.345-8.4t6.979-2.974Zm-3.322,8.969a4.035,4.035,0,0,0-2.393.779,4.061,4.061,0,0,0-1.518,1.955v.93a6.53,6.53,0,0,0,1.107,3.965,3.319,3.319,0,0,0,2.762,1.5A3.216,3.216,0,0,0,22.9-3.076a5.219,5.219,0,0,0,.978-3.295,5.221,5.221,0,0,0-.991-3.315A3.177,3.177,0,0,0,20.255-10.951Zm18.813,2.2a6.189,6.189,0,0,1-1.894,1.518,5.137,5.137,0,0,1-2.413.574,5.3,5.3,0,0,1-3-.848,5.511,5.511,0,0,1-1.976-2.386,8.133,8.133,0,0,1-.7-3.4,8.287,8.287,0,0,1,.759-3.6A5.574,5.574,0,0,1,32-19.332a6.14,6.14,0,0,1,3.254-.848,5.559,5.559,0,0,1,4.655,2.208,9.631,9.631,0,0,1,1.7,6.022v.738q0,5.811-2.3,8.483T32.382.014H31.89V-2.119h.533a6.955,6.955,0,0,0,4.813-1.634A7.019,7.019,0,0,0,39.067-8.75Zm-3.9,0a3.906,3.906,0,0,0,2.345-.779,4.594,4.594,0,0,0,1.565-1.928v-1.012A6.96,6.96,0,0,0,38-16.516a3.223,3.223,0,0,0-2.734-1.559,3.248,3.248,0,0,0-2.68,1.278,5.273,5.273,0,0,0-1.012,3.37,5.488,5.488,0,0,0,.978,3.356A3.1,3.1,0,0,0,35.171-8.75Zm9.707-7.328a4.039,4.039,0,0,1,1.142-2.953,3.933,3.933,0,0,1,2.933-1.162A3.909,3.909,0,0,1,51.9-19.024,4.179,4.179,0,0,1,53.026-16v.971a3.987,3.987,0,0,1-1.142,2.946,3.936,3.936,0,0,1-2.905,1.142,4.022,4.022,0,0,1-2.939-1.142,4.071,4.071,0,0,1-1.162-3.042Zm1.887,1.053a2.577,2.577,0,0,0,.6,1.757,2.032,2.032,0,0,0,1.613.69,1.992,1.992,0,0,0,1.565-.67,2.661,2.661,0,0,0,.595-1.832v-1a2.642,2.642,0,0,0-.588-1.764,1.982,1.982,0,0,0-1.6-.7,1.982,1.982,0,0,0-1.6.7,2.725,2.725,0,0,0-.588,1.818ZM54.571-4.881a4.016,4.016,0,0,1,1.142-2.946,3.945,3.945,0,0,1,2.933-1.155,3.98,3.98,0,0,1,2.939,1.148,4.121,4.121,0,0,1,1.148,3.049v.971A4.016,4.016,0,0,1,61.592-.868,3.928,3.928,0,0,1,58.673.287,4.022,4.022,0,0,1,55.733-.854,4.071,4.071,0,0,1,54.571-3.9Zm1.887,1.066a2.6,2.6,0,0,0,.6,1.771,2.032,2.032,0,0,0,1.613.69,1.978,1.978,0,0,0,1.572-.677,2.708,2.708,0,0,0,.588-1.839V-4.881a2.59,2.59,0,0,0-.595-1.764,2,2,0,0,0-1.593-.684,2.025,2.025,0,0,0-1.579.677,2.628,2.628,0,0,0-.608,1.825ZM49.554-1.5l-1.436-.9,9.721-15.559,1.436.9ZM72.7-8.08a21.138,21.138,0,0,1,.827-5.934A17.237,17.237,0,0,1,76-19.182a10.5,10.5,0,0,1,3.4-3.281l.52,1.668a10.889,10.889,0,0,0-3.274,4.676,20.27,20.27,0,0,0-1.4,7.041l-.014,1.162a20.376,20.376,0,0,0,1.928,9.16,10.94,10.94,0,0,0,2.762,3.637L79.4,6.426a10.836,10.836,0,0,1-3.473-3.391A19,19,0,0,1,72.7-8.08ZM92.032-19.92v2.146h-.465a6.66,6.66,0,0,0-4.7,1.75,7.282,7.282,0,0,0-2.023,4.771,5.4,5.4,0,0,1,4.293-1.8,5.162,5.162,0,0,1,4.149,1.832,7.066,7.066,0,0,1,1.552,4.73A7.044,7.044,0,0,1,93.16-1.572,5.767,5.767,0,0,1,88.669.273a5.682,5.682,0,0,1-4.635-2.194,8.7,8.7,0,0,1-1.777-5.653v-.971q0-5.5,2.345-8.4t6.979-2.974ZM88.71-10.951a4.035,4.035,0,0,0-2.393.779A4.061,4.061,0,0,0,84.8-8.217v.93a6.53,6.53,0,0,0,1.107,3.965,3.319,3.319,0,0,0,2.762,1.5,3.216,3.216,0,0,0,2.687-1.258,5.219,5.219,0,0,0,.978-3.295,5.221,5.221,0,0,0-.991-3.315A3.177,3.177,0,0,0,88.71-10.951Zm10.281.971L100-19.906h10.2v2.338h-8.053l-.6,5.428A6.424,6.424,0,0,1,104.87-13a5.492,5.492,0,0,1,4.32,1.8,7.046,7.046,0,0,1,1.6,4.86A6.8,6.8,0,0,1,109.129-1.5,6.054,6.054,0,0,1,104.487.273a6.292,6.292,0,0,1-4.307-1.463,5.839,5.839,0,0,1-1.9-4.047h2.393a4.017,4.017,0,0,0,1.217,2.577,3.783,3.783,0,0,0,2.6.868,3.413,3.413,0,0,0,2.769-1.2,5.03,5.03,0,0,0,1-3.322,4.616,4.616,0,0,0-1.087-3.206,3.7,3.7,0,0,0-2.892-1.21,4.17,4.17,0,0,0-2.6.725l-.67.547Zm27.043,1.49q0,4.443-1.518,6.6a5.4,5.4,0,0,1-4.744,2.16,5.437,5.437,0,0,1-4.717-2.112q-1.531-2.112-1.586-6.31v-3.377q0-4.389,1.518-6.521a5.439,5.439,0,0,1,4.758-2.133,5.488,5.488,0,0,1,4.73,2.058q1.518,2.058,1.559,6.351ZM123.5-11.949a9.268,9.268,0,0,0-.9-4.683,3.106,3.106,0,0,0-2.857-1.47,3.065,3.065,0,0,0-2.83,1.463,9.049,9.049,0,0,0-.916,4.5v4.047a9.417,9.417,0,0,0,.937,4.765,3.1,3.1,0,0,0,2.837,1.538,3.057,3.057,0,0,0,2.782-1.449,9.076,9.076,0,0,0,.95-4.566Zm5.947,15.914-1.436-.984a6.6,6.6,0,0,0,1.34-3.691V-2.994h2.475v1.982a6.227,6.227,0,0,1-.677,2.762A6.466,6.466,0,0,1,129.452,3.965ZM144.464-8.75a6.189,6.189,0,0,1-1.894,1.518,5.137,5.137,0,0,1-2.413.574,5.3,5.3,0,0,1-3-.848,5.511,5.511,0,0,1-1.976-2.386,8.133,8.133,0,0,1-.7-3.4,8.287,8.287,0,0,1,.759-3.6,5.574,5.574,0,0,1,2.153-2.447,6.14,6.14,0,0,1,3.254-.848,5.559,5.559,0,0,1,4.655,2.208,9.631,9.631,0,0,1,1.7,6.022v.738q0,5.811-2.3,8.483T137.778.014h-.492V-2.119h.533a6.955,6.955,0,0,0,4.813-1.634A7.019,7.019,0,0,0,144.464-8.75Zm-3.9,0a3.906,3.906,0,0,0,2.345-.779,4.594,4.594,0,0,0,1.565-1.928v-1.012a6.96,6.96,0,0,0-1.08-4.047,3.223,3.223,0,0,0-2.734-1.559,3.248,3.248,0,0,0-2.68,1.278,5.273,5.273,0,0,0-1.012,3.37,5.488,5.488,0,0,0,.978,3.356A3.1,3.1,0,0,0,140.567-8.75Zm19.852-11.17v2.146h-.465a6.66,6.66,0,0,0-4.7,1.75,7.282,7.282,0,0,0-2.023,4.771,5.4,5.4,0,0,1,4.293-1.8,5.162,5.162,0,0,1,4.149,1.832,7.066,7.066,0,0,1,1.552,4.73,7.044,7.044,0,0,1-1.675,4.922A5.767,5.767,0,0,1,157.056.273a5.682,5.682,0,0,1-4.635-2.194,8.7,8.7,0,0,1-1.777-5.653v-.971q0-5.5,2.345-8.4t6.979-2.974ZM157.1-10.951a4.035,4.035,0,0,0-2.393.779,4.061,4.061,0,0,0-1.518,1.955v.93a6.53,6.53,0,0,0,1.107,3.965,3.319,3.319,0,0,0,2.762,1.5,3.216,3.216,0,0,0,2.687-1.258,5.219,5.219,0,0,0,.978-3.295,5.221,5.221,0,0,0-.991-3.315A3.177,3.177,0,0,0,157.1-10.951Zm19.8,4.266h2.762v2.064h-2.762V0h-2.543V-4.621h-9.064v-1.49L174.2-19.906h2.693Zm-8.736,0h6.193v-9.762l-.3.547Zm33.469-.547a8.858,8.858,0,0,1-1.545,5.441A4.952,4.952,0,0,1,195.9.273a5.425,5.425,0,0,1-4.238-1.709V5.688H189.13v-20.48h2.311l.123,1.641a5.21,5.21,0,0,1,4.293-1.914,5.044,5.044,0,0,1,4.218,2.01,8.954,8.954,0,0,1,1.552,5.592ZM199.1-7.52a6.536,6.536,0,0,0-1.066-3.951A3.435,3.435,0,0,0,195.1-12.92a3.718,3.718,0,0,0-3.445,2.037v7.068a3.725,3.725,0,0,0,3.473,2.023,3.419,3.419,0,0,0,2.892-1.442A7.135,7.135,0,0,0,199.1-7.52Zm11.676,5.729a3.643,3.643,0,0,0,2.365-.82,2.886,2.886,0,0,0,1.121-2.051h2.393a4.587,4.587,0,0,1-.875,2.42A5.763,5.763,0,0,1,213.623-.41a6.213,6.213,0,0,1-2.851.684,6.094,6.094,0,0,1-4.806-2.017,8.032,8.032,0,0,1-1.784-5.517v-.424a8.906,8.906,0,0,1,.793-3.842,6.04,6.04,0,0,1,2.276-2.611,6.466,6.466,0,0,1,3.507-.93,5.933,5.933,0,0,1,4.136,1.49,5.326,5.326,0,0,1,1.757,3.869h-2.393a3.486,3.486,0,0,0-1.087-2.358,3.381,3.381,0,0,0-2.413-.923,3.54,3.54,0,0,0-2.987,1.388,6.517,6.517,0,0,0-1.06,4.013v.479a6.387,6.387,0,0,0,1.053,3.938A3.557,3.557,0,0,0,210.772-1.791Zm17.336-2.133a1.862,1.862,0,0,0-.772-1.593,7.435,7.435,0,0,0-2.693-.978,12.734,12.734,0,0,1-3.049-.984,4.337,4.337,0,0,1-1.668-1.367,3.27,3.27,0,0,1-.54-1.887,3.837,3.837,0,0,1,1.538-3.076,6.007,6.007,0,0,1,3.931-1.258,6.181,6.181,0,0,1,4.081,1.3,4.125,4.125,0,0,1,1.565,3.322h-2.543a2.283,2.283,0,0,0-.882-1.791,3.3,3.3,0,0,0-2.222-.752,3.458,3.458,0,0,0-2.16.6,1.894,1.894,0,0,0-.779,1.572,1.534,1.534,0,0,0,.725,1.381,8.915,8.915,0,0,0,2.618.889,13.642,13.642,0,0,1,3.069,1.012,4.477,4.477,0,0,1,1.743,1.415,3.479,3.479,0,0,1,.567,2.017,3.786,3.786,0,0,1-1.586,3.179,6.652,6.652,0,0,1-4.115,1.2,7.449,7.449,0,0,1-3.145-.629,5.114,5.114,0,0,1-2.14-1.757,4.234,4.234,0,0,1-.772-2.44h2.529a2.619,2.619,0,0,0,1.019,2.017,3.951,3.951,0,0,0,2.509.745,4.079,4.079,0,0,0,2.3-.581A1.785,1.785,0,0,0,228.108-3.924Zm11.662-4.02a21.148,21.148,0,0,1-.8,5.845,17.283,17.283,0,0,1-2.447,5.161,10.722,10.722,0,0,1-3.452,3.363l-.533-1.545A10.991,10.991,0,0,0,235.922-.13a21.677,21.677,0,0,0,1.306-7.54v-.437a22.507,22.507,0,0,0-.6-5.339,18.018,18.018,0,0,0-1.675-4.423,10.216,10.216,0,0,0-2.413-3.049l.533-1.545a10.68,10.68,0,0,1,3.438,3.336,17.32,17.32,0,0,1,2.447,5.154A21.636,21.636,0,0,1,239.771-7.943Z" transform="translate(909 405.563)"/>
    </g>
  </g>
</svg>
