<svg xmlns="http://www.w3.org/2000/svg" viewBox="5888 -2355 35 35">
  <defs>
    <style>
      .cls-1, .cls-4 {
        fill: none;
      }

      .cls-1 {
        stroke: #fff;
        stroke-width: 0.2px;
      }

      .cls-2 {
        fill: #336;
        stroke: rgba(0,0,0,0);
      }

      .cls-3 {
        stroke: none;
      }
    </style>
  </defs>
  <g id="Group_462" data-name="Group 462" transform="translate(2 -2)">
    <g id="Group_460" data-name="Group 460">
      <g id="Rectangle_639" data-name="Rectangle 639" class="cls-1" transform="translate(5886 -2353)">
        <rect class="cls-3" width="35" height="35"/>
        <rect class="cls-4" x="0.1" y="0.1" width="34.8" height="34.8"/>
      </g>
      <path id="Path_600" data-name="Path 600" class="cls-2" d="M18.286-18.286h8.429a3.82,3.82,0,0,0-.5-.643l-7.286-7.286a3.82,3.82,0,0,0-.643-.5ZM16-17.714v-9.714H1.714A1.715,1.715,0,0,0,0-25.714V2.857A1.715,1.715,0,0,0,1.714,4.571h24a1.715,1.715,0,0,0,1.714-1.714V-16H17.714A1.715,1.715,0,0,1,16-17.714Z" transform="translate(5890 -2324)"/>
    </g>
  </g>
</svg>
