<svg xmlns="http://www.w3.org/2000/svg" viewBox="0 0 421.295 380">
  <defs>
    <style>
      .cls-1, .cls-5 {
        fill: none;
        stroke-width: 2px;
      }

      .cls-1 {
        stroke: #c6c6c6;
      }

      .cls-2, .cls-7 {
        fill: #e3e6e9;
      }

      .cls-2, .cls-3, .cls-4 {
        opacity: 0.93;
      }

      .cls-3 {
        fill: #e4e7ea;
      }

      .cls-4 {
        fill: #68b3e4;
      }

      .cls-5 {
        stroke: #000;
      }

      .cls-6 {
        font-size: 12px;
        font-family: Roboto-Regular, Roboto;
      }

      .cls-8 {
        fill: #aab3bd;
      }
    </style>
  </defs>
  <g id="Group_67" data-name="Group 67" transform="translate(-70 -584)">
    <path id="Path_11" data-name="Path 11" class="cls-1" d="M671,487.517l-1-303.043" transform="translate(-512 454.025)"/>
    <path id="Path_12" data-name="Path 12" class="cls-1" d="M671,487.517l-1-303.043" transform="translate(-428 454.025)"/>
    <path id="Path_13" data-name="Path 13" class="cls-1" d="M671,487.517l-1-303.043" transform="translate(-342 454.025)"/>
    <path id="Path_14" data-name="Path 14" class="cls-1" d="M671,487.517l-1-303.043" transform="translate(-258 454.025)"/>
    <path id="Path_93" data-name="Path 93" class="cls-2" d="M0,0H401V24H0Z" transform="translate(72 649)"/>
    <path id="Path_96" data-name="Path 96" class="cls-3" d="M0,0H276.532V24H0Z" transform="translate(72 678)"/>
    <path id="Path_97" data-name="Path 97" class="cls-4" d="M0,0H267.278V24H0Z" transform="translate(72 707)"/>
    <path id="Path_98" data-name="Path 98" class="cls-3" d="M0,0H245.781V24H0Z" transform="translate(72 736)"/>
    <path id="Path_99" data-name="Path 99" class="cls-3" d="M0,0H229.835V24H0Z" transform="translate(72 765)"/>
    <path id="Path_101" data-name="Path 101" class="cls-3" d="M0,0H219.7V24H0Z" transform="translate(72 794)"/>
    <path id="Path_103" data-name="Path 103" class="cls-3" d="M0,0H208.74V24H0Z" transform="translate(72 823)"/>
    <path id="Path_106" data-name="Path 106" class="cls-3" d="M0,0H200.5V24H0Z" transform="translate(72 852)"/>
    <path id="Path_111" data-name="Path 111" class="cls-3" d="M0,0H181.118V24H0Z" transform="translate(72 881)"/>
    <path id="Path_113" data-name="Path 113" class="cls-3" d="M0,0H181.118V24H0Z" transform="translate(72 910)"/>
    <path id="Path_107" data-name="Path 107" d="M1.32,0V-11.375H4.531a5.169,5.169,0,0,1,2.625.656A4.438,4.438,0,0,1,8.918-8.852,6.078,6.078,0,0,1,9.547-6.07v.727a6.1,6.1,0,0,1-.621,2.82A4.369,4.369,0,0,1,7.152-.664,5.5,5.5,0,0,1,4.469,0Zm1.5-10.141v8.914H4.4A3.435,3.435,0,0,0,7.1-2.3a4.452,4.452,0,0,0,.965-3.07v-.664a4.522,4.522,0,0,0-.91-3.012,3.24,3.24,0,0,0-2.582-1.09ZM18.242-5.258h-4.93v4.031h5.727V0H11.813V-11.375h7.148v1.234H13.313v3.656h4.93Zm10.68-4.883H25.266V0H23.773V-10.141H20.125v-1.234h8.8ZM34.781-4.6H32.109V0H30.6V-11.375h3.766a4.457,4.457,0,0,1,2.957.875,3.148,3.148,0,0,1,1.035,2.547A3.062,3.062,0,0,1,37.785-6.1a3.428,3.428,0,0,1-1.6,1.18L38.859-.094V0H37.25ZM32.109-5.828h2.3a2.6,2.6,0,0,0,1.777-.578,1.953,1.953,0,0,0,.66-1.547,2.057,2.057,0,0,0-.629-1.617,2.666,2.666,0,0,0-1.816-.57h-2.3Zm17.1.508A7.037,7.037,0,0,1,48.648-2.4,4.261,4.261,0,0,1,47.055-.5a4.385,4.385,0,0,1-2.406.656A4.347,4.347,0,0,1,42.266-.5a4.363,4.363,0,0,1-1.613-1.883,6.752,6.752,0,0,1-.59-2.832v-.82a6.953,6.953,0,0,1,.57-2.9,4.347,4.347,0,0,1,1.613-1.926,4.329,4.329,0,0,1,2.387-.668,4.41,4.41,0,0,1,2.41.66,4.253,4.253,0,0,1,1.605,1.914,7.071,7.071,0,0,1,.563,2.918Zm-1.492-.734a5.1,5.1,0,0,0-.812-3.105,2.68,2.68,0,0,0-2.273-1.082A2.651,2.651,0,0,0,42.395-9.16a5,5,0,0,0-.84,3v.836a5.107,5.107,0,0,0,.824,3.082,2.662,2.662,0,0,0,2.27,1.121A2.652,2.652,0,0,0,46.9-2.176a5.079,5.079,0,0,0,.82-3.035ZM53.07,0h-1.5V-11.375h1.5Zm10.6-10.141H60.016V0H58.523V-10.141H54.875v-1.234h8.8Z" transform="translate(82 668)"/>
    <path id="Path_108" data-name="Path 108" d="M7.6-2.969H2.836L1.766,0H.219L4.563-11.375H5.875L10.227,0H8.688ZM3.289-4.2H7.156L5.219-9.523ZM15.93-4.6H13.258V0H11.75V-11.375h3.766a4.457,4.457,0,0,1,2.957.875,3.148,3.148,0,0,1,1.035,2.547A3.062,3.062,0,0,1,18.934-6.1a3.428,3.428,0,0,1-1.6,1.18L20.008-.094V0H18.4ZM13.258-5.828h2.3a2.6,2.6,0,0,0,1.777-.578A1.953,1.953,0,0,0,18-7.953a2.057,2.057,0,0,0-.629-1.617,2.666,2.666,0,0,0-1.816-.57h-2.3ZM23.219,0h-1.5V-11.375h1.5Zm3.867-1.227h6.508V0H25.313V-1.125l6.234-9.016H25.414v-1.234h7.93v1.1Zm17-4.094A7.037,7.037,0,0,1,43.523-2.4,4.261,4.261,0,0,1,41.93-.5a4.385,4.385,0,0,1-2.406.656A4.347,4.347,0,0,1,37.141-.5a4.363,4.363,0,0,1-1.613-1.883,6.752,6.752,0,0,1-.59-2.832v-.82a6.953,6.953,0,0,1,.57-2.9,4.347,4.347,0,0,1,1.613-1.926,4.329,4.329,0,0,1,2.387-.668,4.41,4.41,0,0,1,2.41.66,4.253,4.253,0,0,1,1.605,1.914,7.071,7.071,0,0,1,.563,2.918Zm-1.492-.734a5.1,5.1,0,0,0-.812-3.105,2.68,2.68,0,0,0-2.273-1.082A2.651,2.651,0,0,0,37.27-9.16a5,5,0,0,0-.84,3v.836a5.107,5.107,0,0,0,.824,3.082,2.662,2.662,0,0,0,2.27,1.121,2.652,2.652,0,0,0,2.25-1.059,5.079,5.079,0,0,0,.82-3.035ZM55.078,0H53.57L47.844-8.766V0H46.336V-11.375h1.508l5.742,8.8v-8.8h1.492Zm8.945-2.969H59.258L58.188,0H56.641l4.344-11.375H62.3L66.648,0H65.109ZM59.711-4.2h3.867l-1.937-5.32Z" transform="translate(82 697)"/>
    <path id="Path_105" data-name="Path 105" d="M2.828-1.227H8.219V0H1.32V-11.375H2.828ZM16.359-2.969H11.594L10.523,0H8.977L13.32-11.375h1.313L18.984,0H17.445ZM12.047-4.2h3.867l-1.937-5.32ZM23.406-5.289,22.016-3.844V0h-1.5V-11.375h1.5V-5.75l5.055-5.625h1.813L24.406-6.352,29.234,0h-1.8Zm13.57.031h-4.93v4.031h5.727V0H30.547V-11.375H37.7v1.234H32.047v3.656h4.93Zm4.172,4.031h5.391V0h-6.9V-11.375h1.508ZM54.68-2.969H49.914L48.844,0H47.3l4.344-11.375h1.313L57.3,0H55.766ZM50.367-4.2h3.867L52.3-9.523ZM67.578,0H66.07L60.344-8.766V0H58.836V-11.375h1.508l5.742,8.8v-8.8h1.492Zm2.664,0V-11.375h3.211a5.169,5.169,0,0,1,2.625.656A4.438,4.438,0,0,1,77.84-8.852a6.078,6.078,0,0,1,.629,2.781v.727a6.1,6.1,0,0,1-.621,2.82A4.369,4.369,0,0,1,76.074-.664,5.5,5.5,0,0,1,73.391,0Zm1.5-10.141v8.914H73.32A3.435,3.435,0,0,0,76.02-2.3a4.452,4.452,0,0,0,.965-3.07v-.664a4.522,4.522,0,0,0-.91-3.012,3.24,3.24,0,0,0-2.582-1.09Z" transform="translate(82 726)"/>
    <path id="Path_100" data-name="Path 100" d="M9.688-3.609A4.185,4.185,0,0,1,8.355-.824a4.365,4.365,0,0,1-2.98.98,4.008,4.008,0,0,1-3.23-1.445A5.815,5.815,0,0,1,.93-5.156V-6.25A6.481,6.481,0,0,1,1.5-9.039,4.231,4.231,0,0,1,3.1-10.887a4.47,4.47,0,0,1,2.406-.645A4.11,4.11,0,0,1,8.414-10.52a4.235,4.235,0,0,1,1.273,2.8H8.18a3.254,3.254,0,0,0-.848-1.969A2.569,2.569,0,0,0,5.508-10.3,2.685,2.685,0,0,0,3.254-9.234a4.875,4.875,0,0,0-.816,3.023v1.1a5.011,5.011,0,0,0,.773,2.945A2.5,2.5,0,0,0,5.375-1.07a2.887,2.887,0,0,0,1.918-.566A3.143,3.143,0,0,0,8.18-3.609Zm10.8-1.711A7.037,7.037,0,0,1,19.922-2.4,4.261,4.261,0,0,1,18.328-.5a4.385,4.385,0,0,1-2.406.656A4.347,4.347,0,0,1,13.539-.5a4.363,4.363,0,0,1-1.613-1.883,6.752,6.752,0,0,1-.59-2.832v-.82a6.953,6.953,0,0,1,.57-2.9,4.347,4.347,0,0,1,1.613-1.926,4.329,4.329,0,0,1,2.387-.668,4.41,4.41,0,0,1,2.41.66,4.253,4.253,0,0,1,1.605,1.914,7.071,7.071,0,0,1,.563,2.918Zm-1.492-.734A5.1,5.1,0,0,0,18.18-9.16a2.68,2.68,0,0,0-2.273-1.082A2.651,2.651,0,0,0,13.668-9.16a5,5,0,0,0-.84,3v.836a5.107,5.107,0,0,0,.824,3.082,2.662,2.662,0,0,0,2.27,1.121,2.652,2.652,0,0,0,2.25-1.059,5.079,5.079,0,0,0,.82-3.035Zm5.25,4.828h5.391V0h-6.9V-11.375h1.508ZM39.586-5.32A7.037,7.037,0,0,1,39.023-2.4,4.261,4.261,0,0,1,37.43-.5a4.385,4.385,0,0,1-2.406.656A4.347,4.347,0,0,1,32.641-.5a4.363,4.363,0,0,1-1.613-1.883,6.752,6.752,0,0,1-.59-2.832v-.82a6.953,6.953,0,0,1,.57-2.9,4.347,4.347,0,0,1,1.613-1.926,4.329,4.329,0,0,1,2.387-.668,4.41,4.41,0,0,1,2.41.66,4.253,4.253,0,0,1,1.605,1.914,7.071,7.071,0,0,1,.563,2.918Zm-1.492-.734a5.1,5.1,0,0,0-.812-3.105,2.68,2.68,0,0,0-2.273-1.082A2.651,2.651,0,0,0,32.77-9.16a5,5,0,0,0-.84,3v.836a5.107,5.107,0,0,0,.824,3.082,2.662,2.662,0,0,0,2.27,1.121,2.652,2.652,0,0,0,2.25-1.059,5.079,5.079,0,0,0,.82-3.035ZM46.008-4.6H43.336V0H41.828V-11.375h3.766a4.457,4.457,0,0,1,2.957.875,3.148,3.148,0,0,1,1.035,2.547A3.062,3.062,0,0,1,49.012-6.1a3.428,3.428,0,0,1-1.6,1.18L50.086-.094V0H48.477ZM43.336-5.828h2.3a2.6,2.6,0,0,0,1.777-.578,1.953,1.953,0,0,0,.66-1.547,2.057,2.057,0,0,0-.629-1.617,2.666,2.666,0,0,0-1.816-.57h-2.3ZM57.969-2.969H53.2L52.133,0H50.586L54.93-11.375h1.313L60.594,0H59.055ZM53.656-4.2h3.867l-1.937-5.32ZM62.125,0V-11.375h3.211a5.169,5.169,0,0,1,2.625.656,4.438,4.438,0,0,1,1.762,1.867,6.078,6.078,0,0,1,.629,2.781v.727a6.1,6.1,0,0,1-.621,2.82A4.369,4.369,0,0,1,67.957-.664,5.5,5.5,0,0,1,65.273,0Zm1.5-10.141v8.914H65.2A3.435,3.435,0,0,0,67.9-2.3a4.452,4.452,0,0,0,.965-3.07v-.664a4.522,4.522,0,0,0-.91-3.012,3.24,3.24,0,0,0-2.582-1.09ZM81.367-5.32A7.037,7.037,0,0,1,80.8-2.4,4.261,4.261,0,0,1,79.211-.5,4.385,4.385,0,0,1,76.8.156,4.347,4.347,0,0,1,74.422-.5a4.363,4.363,0,0,1-1.613-1.883,6.752,6.752,0,0,1-.59-2.832v-.82a6.953,6.953,0,0,1,.57-2.9A4.347,4.347,0,0,1,74.4-10.863a4.329,4.329,0,0,1,2.387-.668,4.41,4.41,0,0,1,2.41.66A4.253,4.253,0,0,1,80.8-8.957a7.071,7.071,0,0,1,.563,2.918Zm-1.492-.734a5.1,5.1,0,0,0-.812-3.105,2.68,2.68,0,0,0-2.273-1.082A2.651,2.651,0,0,0,74.551-9.16a5,5,0,0,0-.84,3v.836a5.107,5.107,0,0,0,.824,3.082A2.662,2.662,0,0,0,76.8-1.117a2.652,2.652,0,0,0,2.25-1.059,5.079,5.079,0,0,0,.82-3.035ZM83.68.977H82.438l4.75-12.352h1.234Zm8.984-4.562.219,1.5.32-1.352,2.25-7.937h1.266l2.2,7.938.313,1.375.242-1.531,1.766-7.781h1.508L99.984,0H98.617L96.273-8.289l-.18-.867-.18.867L93.484,0H92.117l-2.75-11.375h1.5Zm15.211-2.078,2.969-5.711h1.7l-3.922,7.133V0h-1.5V-4.242L103.2-11.375h1.719Zm14.664.344a7.037,7.037,0,0,1-.562,2.918,4.261,4.261,0,0,1-1.594,1.9,4.385,4.385,0,0,1-2.406.656,4.347,4.347,0,0,1-2.383-.66,4.363,4.363,0,0,1-1.613-1.883,6.752,6.752,0,0,1-.59-2.832v-.82a6.953,6.953,0,0,1,.57-2.9,4.347,4.347,0,0,1,1.613-1.926,4.329,4.329,0,0,1,2.387-.668,4.41,4.41,0,0,1,2.41.66,4.253,4.253,0,0,1,1.605,1.914,7.071,7.071,0,0,1,.563,2.918Zm-1.492-.734a5.1,5.1,0,0,0-.812-3.105,2.68,2.68,0,0,0-2.273-1.082,2.651,2.651,0,0,0-2.238,1.082,5,5,0,0,0-.84,3v.836a5.107,5.107,0,0,0,.824,3.082,2.662,2.662,0,0,0,2.27,1.121,2.652,2.652,0,0,0,2.25-1.059,5.079,5.079,0,0,0,.82-3.035Zm5.68-5.32,3.719,9.281,3.719-9.281h1.945V0h-1.5V-4.43l.141-4.781L131.016,0h-1.148l-3.727-9.187.148,4.758V0h-1.5V-11.375ZM140.367,0h-1.5V-11.375h1.5Zm11.484,0h-1.508l-5.727-8.766V0h-1.508V-11.375h1.508l5.742,8.8v-8.8h1.492Zm11.063-1.492A3.465,3.465,0,0,1,161.3-.254a6.517,6.517,0,0,1-2.41.41A4.674,4.674,0,0,1,156.422-.5a4.346,4.346,0,0,1-1.668-1.855,6.408,6.408,0,0,1-.605-2.789v-.992a5.982,5.982,0,0,1,1.2-3.984,4.179,4.179,0,0,1,3.371-1.414,4.316,4.316,0,0,1,2.867.91,3.965,3.965,0,0,1,1.328,2.582h-1.5a2.478,2.478,0,0,0-2.687-2.258,2.656,2.656,0,0,0-2.285,1.059,5.165,5.165,0,0,0-.785,3.066v.93a4.841,4.841,0,0,0,.875,3.043A2.837,2.837,0,0,0,158.9-1.07a5.217,5.217,0,0,0,1.477-.187,2.282,2.282,0,0,0,1.047-.633V-4.445h-2.633V-5.664h4.125Z" transform="translate(82 755)"/>
    <path id="Path_102" data-name="Path 102" d="M9.719-1.492A3.465,3.465,0,0,1,8.105-.254,6.517,6.517,0,0,1,5.7.156,4.674,4.674,0,0,1,3.227-.5,4.346,4.346,0,0,1,1.559-2.352,6.408,6.408,0,0,1,.953-5.141v-.992a5.982,5.982,0,0,1,1.2-3.984,4.179,4.179,0,0,1,3.371-1.414,4.316,4.316,0,0,1,2.867.91A3.965,3.965,0,0,1,9.719-8.039h-1.5A2.478,2.478,0,0,0,5.531-10.3,2.656,2.656,0,0,0,3.246-9.238a5.165,5.165,0,0,0-.785,3.066v.93A4.841,4.841,0,0,0,3.336-2.2,2.837,2.837,0,0,0,5.7-1.07,5.217,5.217,0,0,0,7.18-1.258a2.282,2.282,0,0,0,1.047-.633V-4.445H5.594V-5.664H9.719ZM16.391-4.6H13.719V0H12.211V-11.375h3.766a4.457,4.457,0,0,1,2.957.875,3.148,3.148,0,0,1,1.035,2.547A3.062,3.062,0,0,1,19.395-6.1a3.428,3.428,0,0,1-1.6,1.18L20.469-.094V0H18.859ZM13.719-5.828h2.3A2.6,2.6,0,0,0,17.8-6.406a1.953,1.953,0,0,0,.66-1.547,2.057,2.057,0,0,0-.629-1.617,2.666,2.666,0,0,0-1.816-.57h-2.3Zm14.781.57H23.57v4.031H29.3V0H22.07V-11.375h7.148v1.234H23.57v3.656H28.5Zm8.945,2.289H32.68L31.609,0H30.063l4.344-11.375h1.313L40.07,0H38.531ZM33.133-4.2H37l-1.937-5.32Zm15.32-5.937H44.8V0H43.3V-10.141H39.656v-1.234h8.8ZM56.57-5.258h-4.93v4.031h5.727V0H50.141V-11.375h7.148v1.234H51.641v3.656h4.93Zm6.836.656H60.734V0H59.227V-11.375h3.766a4.457,4.457,0,0,1,2.957.875,3.148,3.148,0,0,1,1.035,2.547A3.062,3.062,0,0,1,66.41-6.1a3.428,3.428,0,0,1-1.6,1.18L67.484-.094V0H65.875ZM60.734-5.828h2.3a2.6,2.6,0,0,0,1.777-.578,1.953,1.953,0,0,0,.66-1.547,2.057,2.057,0,0,0-.629-1.617,2.666,2.666,0,0,0-1.816-.57h-2.3ZM74.656,0h-1.5V-11.375h1.5ZM86.141,0H84.633L78.906-8.766V0H77.4V-11.375h1.508l5.742,8.8v-8.8h1.492ZM88.8,0V-11.375h3.211a5.169,5.169,0,0,1,2.625.656A4.438,4.438,0,0,1,96.4-8.852a6.078,6.078,0,0,1,.629,2.781v.727a6.1,6.1,0,0,1-.621,2.82A4.369,4.369,0,0,1,94.637-.664,5.5,5.5,0,0,1,91.953,0Zm1.5-10.141v8.914h1.578a3.435,3.435,0,0,0,2.7-1.078,4.452,4.452,0,0,0,.965-3.07v-.664a4.522,4.522,0,0,0-.91-3.012,3.24,3.24,0,0,0-2.582-1.09ZM100.906,0h-1.5V-11.375h1.5Zm9.023-2.969h-4.766L104.094,0h-1.547l4.344-11.375H108.2L112.555,0h-1.539ZM105.617-4.2h3.867l-1.937-5.32ZM122.828,0H121.32l-5.727-8.766V0h-1.508V-11.375h1.508l5.742,8.8v-8.8h1.492Zm8.945-2.969h-4.766L125.938,0h-1.547l4.344-11.375h1.313L134.4,0h-1.539ZM127.461-4.2h3.867l-1.937-5.32Z" transform="translate(82 784)"/>
    <path id="Path_109" data-name="Path 109" d="M9.18-10.141H5.523V0H4.031V-10.141H.383v-1.234h8.8ZM15.039-4.6H12.367V0H10.859V-11.375h3.766a4.457,4.457,0,0,1,2.957.875,3.148,3.148,0,0,1,1.035,2.547A3.062,3.062,0,0,1,18.043-6.1a3.428,3.428,0,0,1-1.6,1.18L19.117-.094V0H17.508ZM12.367-5.828h2.3a2.6,2.6,0,0,0,1.777-.578,1.953,1.953,0,0,0,.66-1.547A2.057,2.057,0,0,0,16.48-9.57a2.666,2.666,0,0,0-1.816-.57h-2.3ZM22.328,0h-1.5V-11.375h1.5ZM25.07,0V-11.375h3.719a4.317,4.317,0,0,1,2.785.766,2.759,2.759,0,0,1,.934,2.266,2.31,2.31,0,0,1-.453,1.41,2.938,2.938,0,0,1-1.234.949A2.638,2.638,0,0,1,32.277-5a2.814,2.814,0,0,1,.535,1.723A3.042,3.042,0,0,1,31.82-.875a4.1,4.1,0,0,1-2.8.875Zm1.5-5.32v4.094h2.477A2.385,2.385,0,0,0,30.7-1.77a1.907,1.907,0,0,0,.605-1.5q0-2.055-2.234-2.055Zm0-1.2h2.266a2.378,2.378,0,0,0,1.574-.492A1.649,1.649,0,0,0,31-8.352a1.621,1.621,0,0,0-.547-1.363,2.69,2.69,0,0,0-1.664-.426H26.57Zm17.211,1.2A7.037,7.037,0,0,1,43.219-2.4,4.261,4.261,0,0,1,41.625-.5a4.385,4.385,0,0,1-2.406.656A4.347,4.347,0,0,1,36.836-.5a4.363,4.363,0,0,1-1.613-1.883,6.752,6.752,0,0,1-.59-2.832v-.82a6.953,6.953,0,0,1,.57-2.9,4.347,4.347,0,0,1,1.613-1.926,4.329,4.329,0,0,1,2.387-.668,4.41,4.41,0,0,1,2.41.66,4.253,4.253,0,0,1,1.605,1.914,7.071,7.071,0,0,1,.563,2.918Zm-1.492-.734a5.1,5.1,0,0,0-.812-3.105A2.68,2.68,0,0,0,39.2-10.242,2.651,2.651,0,0,0,36.965-9.16a5,5,0,0,0-.84,3v.836a5.107,5.107,0,0,0,.824,3.082,2.662,2.662,0,0,0,2.27,1.121,2.652,2.652,0,0,0,2.25-1.059,5.079,5.079,0,0,0,.82-3.035ZM50.2-4.6H47.531V0H46.023V-11.375h3.766a4.457,4.457,0,0,1,2.957.875,3.148,3.148,0,0,1,1.035,2.547A3.062,3.062,0,0,1,53.207-6.1a3.428,3.428,0,0,1-1.6,1.18L54.281-.094V0H52.672ZM47.531-5.828h2.3a2.6,2.6,0,0,0,1.777-.578,1.953,1.953,0,0,0,.66-1.547,2.057,2.057,0,0,0-.629-1.617,2.666,2.666,0,0,0-1.816-.57h-2.3Zm17.1.508A7.037,7.037,0,0,1,64.07-2.4,4.261,4.261,0,0,1,62.477-.5,4.385,4.385,0,0,1,60.07.156,4.347,4.347,0,0,1,57.688-.5a4.363,4.363,0,0,1-1.613-1.883,6.752,6.752,0,0,1-.59-2.832v-.82a6.953,6.953,0,0,1,.57-2.9,4.347,4.347,0,0,1,1.613-1.926,4.329,4.329,0,0,1,2.387-.668,4.41,4.41,0,0,1,2.41.66A4.253,4.253,0,0,1,64.07-8.957a7.071,7.071,0,0,1,.563,2.918Zm-1.492-.734a5.1,5.1,0,0,0-.812-3.105,2.68,2.68,0,0,0-2.273-1.082A2.651,2.651,0,0,0,57.816-9.16a5,5,0,0,0-.84,3v.836A5.107,5.107,0,0,0,57.8-2.238a2.662,2.662,0,0,0,2.27,1.121,2.652,2.652,0,0,0,2.25-1.059,5.079,5.079,0,0,0,.82-3.035Z" transform="translate(82 813)"/>
    <path id="Path_104" data-name="Path 104" d="M4.672-5.07A7.053,7.053,0,0,1,1.863-6.434a2.6,2.6,0,0,1-.879-2,2.751,2.751,0,0,1,1.074-2.223,4.269,4.269,0,0,1,2.793-.879,4.66,4.66,0,0,1,2.09.453,3.436,3.436,0,0,1,1.422,1.25,3.2,3.2,0,0,1,.5,1.742H7.359A2.069,2.069,0,0,0,6.7-9.707a2.675,2.675,0,0,0-1.852-.59,2.736,2.736,0,0,0-1.73.488A1.628,1.628,0,0,0,2.5-8.453a1.465,1.465,0,0,0,.59,1.176A5.79,5.79,0,0,0,5.1-6.4a9.3,9.3,0,0,1,2.219.879A3.367,3.367,0,0,1,8.5-4.4a2.861,2.861,0,0,1,.387,1.508A2.658,2.658,0,0,1,7.813-.676,4.6,4.6,0,0,1,4.93.156,5.347,5.347,0,0,1,2.742-.293a3.681,3.681,0,0,1-1.566-1.23A3,3,0,0,1,.625-3.3H2.133a1.959,1.959,0,0,0,.762,1.629,3.207,3.207,0,0,0,2.035.6,2.948,2.948,0,0,0,1.82-.484,1.573,1.573,0,0,0,.633-1.32A1.545,1.545,0,0,0,6.8-4.168,6.755,6.755,0,0,0,4.672-5.07Zm14.891-.25A7.037,7.037,0,0,1,19-2.4,4.261,4.261,0,0,1,17.406-.5,4.385,4.385,0,0,1,15,.156,4.347,4.347,0,0,1,12.617-.5,4.363,4.363,0,0,1,11-2.387a6.752,6.752,0,0,1-.59-2.832v-.82a6.953,6.953,0,0,1,.57-2.9A4.347,4.347,0,0,1,12.6-10.863a4.329,4.329,0,0,1,2.387-.668,4.41,4.41,0,0,1,2.41.66A4.253,4.253,0,0,1,19-8.957a7.071,7.071,0,0,1,.563,2.918ZM18.07-6.055a5.1,5.1,0,0,0-.812-3.105,2.68,2.68,0,0,0-2.273-1.082A2.651,2.651,0,0,0,12.746-9.16a5,5,0,0,0-.84,3v.836a5.107,5.107,0,0,0,.824,3.082A2.662,2.662,0,0,0,15-1.117a2.652,2.652,0,0,0,2.25-1.059,5.079,5.079,0,0,0,.82-3.035Zm11.75-5.32v7.734a3.628,3.628,0,0,1-1.012,2.633A4.077,4.077,0,0,1,26.086.141l-.4.016A4.258,4.258,0,0,1,22.711-.852a3.6,3.6,0,0,1-1.125-2.773v-7.75H23.07v7.7a2.6,2.6,0,0,0,.68,1.918,2.612,2.612,0,0,0,1.938.684,2.63,2.63,0,0,0,1.949-.68,2.6,2.6,0,0,0,.676-1.914v-7.711Zm10.227,1.234H36.391V0H34.9V-10.141H31.25v-1.234h8.8ZM50.477,0H48.969V-5.258H43.234V0h-1.5V-11.375h1.5v4.891h5.734v-4.891h1.508Zm12.9-5.023H58.6V0H57.1V-11.375h7.047v1.234H58.6V-6.25h4.773Zm4.078,3.8h5.391V0h-6.9V-11.375h1.508ZM82.8-5.32A7.037,7.037,0,0,1,82.234-2.4,4.261,4.261,0,0,1,80.641-.5a4.385,4.385,0,0,1-2.406.656A4.347,4.347,0,0,1,75.852-.5a4.363,4.363,0,0,1-1.613-1.883,6.752,6.752,0,0,1-.59-2.832v-.82a6.953,6.953,0,0,1,.57-2.9,4.347,4.347,0,0,1,1.613-1.926,4.329,4.329,0,0,1,2.387-.668,4.41,4.41,0,0,1,2.41.66,4.253,4.253,0,0,1,1.605,1.914A7.071,7.071,0,0,1,82.8-6.039ZM81.3-6.055a5.1,5.1,0,0,0-.812-3.105,2.68,2.68,0,0,0-2.273-1.082A2.651,2.651,0,0,0,75.98-9.16a5,5,0,0,0-.84,3v.836a5.107,5.107,0,0,0,.824,3.082,2.662,2.662,0,0,0,2.27,1.121,2.652,2.652,0,0,0,2.25-1.059,5.079,5.079,0,0,0,.82-3.035ZM89.219-4.6H86.547V0H85.039V-11.375H88.8a4.457,4.457,0,0,1,2.957.875A3.148,3.148,0,0,1,92.8-7.953,3.062,3.062,0,0,1,92.223-6.1a3.428,3.428,0,0,1-1.6,1.18L93.3-.094V0H91.688ZM86.547-5.828h2.3a2.6,2.6,0,0,0,1.777-.578,1.953,1.953,0,0,0,.66-1.547A2.057,2.057,0,0,0,90.66-9.57a2.666,2.666,0,0,0-1.816-.57h-2.3ZM96.508,0h-1.5V-11.375h1.5ZM99.25,0V-11.375h3.211a5.169,5.169,0,0,1,2.625.656,4.438,4.438,0,0,1,1.762,1.867,6.078,6.078,0,0,1,.629,2.781v.727a6.1,6.1,0,0,1-.621,2.82,4.369,4.369,0,0,1-1.773,1.859A5.5,5.5,0,0,1,102.4,0Zm1.5-10.141v8.914h1.578a3.435,3.435,0,0,0,2.7-1.078,4.452,4.452,0,0,0,.965-3.07v-.664a4.522,4.522,0,0,0-.91-3.012,3.24,3.24,0,0,0-2.582-1.09Zm15.273,7.172h-4.766L110.188,0h-1.547l4.344-11.375H114.3L118.648,0h-1.539ZM111.711-4.2h3.867l-1.937-5.32Z" transform="translate(82 842)"/>
    <path id="Path_110" data-name="Path 110" d="M9.688-3.609A4.185,4.185,0,0,1,8.355-.824a4.365,4.365,0,0,1-2.98.98,4.008,4.008,0,0,1-3.23-1.445A5.815,5.815,0,0,1,.93-5.156V-6.25A6.481,6.481,0,0,1,1.5-9.039,4.231,4.231,0,0,1,3.1-10.887a4.47,4.47,0,0,1,2.406-.645A4.11,4.11,0,0,1,8.414-10.52a4.235,4.235,0,0,1,1.273,2.8H8.18a3.254,3.254,0,0,0-.848-1.969A2.569,2.569,0,0,0,5.508-10.3,2.685,2.685,0,0,0,3.254-9.234a4.875,4.875,0,0,0-.816,3.023v1.1a5.011,5.011,0,0,0,.773,2.945A2.5,2.5,0,0,0,5.375-1.07a2.887,2.887,0,0,0,1.918-.566A3.143,3.143,0,0,0,8.18-3.609Zm8.477-1.648h-4.93v4.031h5.727V0H11.734V-11.375h7.148v1.234H13.234v3.656h4.93ZM29.57,0H28.063L22.336-8.766V0H20.828V-11.375h1.508l5.742,8.8v-8.8H29.57ZM40.094-10.141H36.438V0H34.945V-10.141H31.3v-1.234h8.8ZM45.953-4.6H43.281V0H41.773V-11.375h3.766A4.457,4.457,0,0,1,48.5-10.5a3.148,3.148,0,0,1,1.035,2.547A3.062,3.062,0,0,1,48.957-6.1a3.428,3.428,0,0,1-1.6,1.18L50.031-.094V0H48.422ZM43.281-5.828h2.3a2.6,2.6,0,0,0,1.777-.578,1.953,1.953,0,0,0,.66-1.547,2.057,2.057,0,0,0-.629-1.617,2.666,2.666,0,0,0-1.816-.57h-2.3ZM57.914-2.969H53.148L52.078,0H50.531l4.344-11.375h1.313L60.539,0H59ZM53.6-4.2h3.867l-1.937-5.32Zm9.977,2.977h5.391V0h-6.9V-11.375h1.508ZM76.25,0h-1.5V-11.375h1.5ZM80.5-1.227h5.391V0h-6.9V-11.375H80.5Zm8.609,0H94.5V0H87.6V-11.375h1.508ZM97.82,0h-1.5V-11.375h1.5ZM109.3,0H107.8L102.07-8.766V0h-1.508V-11.375h1.508l5.742,8.8v-8.8H109.3Zm11.414-5.32a7.037,7.037,0,0,1-.562,2.918,4.261,4.261,0,0,1-1.594,1.9,4.385,4.385,0,0,1-2.406.656,4.347,4.347,0,0,1-2.383-.66,4.363,4.363,0,0,1-1.613-1.883,6.752,6.752,0,0,1-.59-2.832v-.82a6.953,6.953,0,0,1,.57-2.9,4.347,4.347,0,0,1,1.613-1.926,4.329,4.329,0,0,1,2.387-.668,4.41,4.41,0,0,1,2.41.66,4.253,4.253,0,0,1,1.605,1.914,7.071,7.071,0,0,1,.563,2.918Zm-1.492-.734a5.1,5.1,0,0,0-.812-3.105,2.68,2.68,0,0,0-2.273-1.082A2.651,2.651,0,0,0,113.9-9.16a5,5,0,0,0-.84,3v.836a5.107,5.107,0,0,0,.824,3.082,2.662,2.662,0,0,0,2.27,1.121,2.652,2.652,0,0,0,2.25-1.059,5.079,5.079,0,0,0,.82-3.035ZM124.578,0h-1.5V-11.375h1.5Zm6.094-5.07a7.053,7.053,0,0,1-2.809-1.363,2.6,2.6,0,0,1-.879-2,2.751,2.751,0,0,1,1.074-2.223,4.269,4.269,0,0,1,2.793-.879,4.66,4.66,0,0,1,2.09.453,3.436,3.436,0,0,1,1.422,1.25,3.2,3.2,0,0,1,.5,1.742h-1.508a2.069,2.069,0,0,0-.656-1.621,2.675,2.675,0,0,0-1.852-.59,2.736,2.736,0,0,0-1.73.488,1.628,1.628,0,0,0-.621,1.355,1.464,1.464,0,0,0,.59,1.176A5.79,5.79,0,0,0,131.1-6.4a9.3,9.3,0,0,1,2.219.879A3.367,3.367,0,0,1,134.5-4.4a2.861,2.861,0,0,1,.387,1.508,2.658,2.658,0,0,1-1.078,2.215,4.6,4.6,0,0,1-2.883.832,5.347,5.347,0,0,1-2.187-.449,3.681,3.681,0,0,1-1.566-1.23,3,3,0,0,1-.551-1.773h1.508a1.959,1.959,0,0,0,.762,1.629,3.207,3.207,0,0,0,2.035.6,2.948,2.948,0,0,0,1.82-.484,1.573,1.573,0,0,0,.633-1.32,1.545,1.545,0,0,0-.586-1.293A6.755,6.755,0,0,0,130.672-5.07Z" transform="translate(82 871)"/>
    <path id="Path_112" data-name="Path 112" d="M4.672-5.07A7.053,7.053,0,0,1,1.863-6.434a2.6,2.6,0,0,1-.879-2,2.751,2.751,0,0,1,1.074-2.223,4.269,4.269,0,0,1,2.793-.879,4.66,4.66,0,0,1,2.09.453,3.436,3.436,0,0,1,1.422,1.25,3.2,3.2,0,0,1,.5,1.742H7.359A2.069,2.069,0,0,0,6.7-9.707a2.675,2.675,0,0,0-1.852-.59,2.736,2.736,0,0,0-1.73.488A1.628,1.628,0,0,0,2.5-8.453a1.465,1.465,0,0,0,.59,1.176A5.79,5.79,0,0,0,5.1-6.4a9.3,9.3,0,0,1,2.219.879A3.367,3.367,0,0,1,8.5-4.4a2.861,2.861,0,0,1,.387,1.508A2.658,2.658,0,0,1,7.813-.676,4.6,4.6,0,0,1,4.93.156,5.347,5.347,0,0,1,2.742-.293a3.681,3.681,0,0,1-1.566-1.23A3,3,0,0,1,.625-3.3H2.133a1.959,1.959,0,0,0,.762,1.629,3.207,3.207,0,0,0,2.035.6,2.948,2.948,0,0,0,1.82-.484,1.573,1.573,0,0,0,.633-1.32A1.545,1.545,0,0,0,6.8-4.168,6.755,6.755,0,0,0,4.672-5.07Zm14.148-6.3v7.734a3.628,3.628,0,0,1-1.012,2.633A4.077,4.077,0,0,1,15.086.141l-.4.016A4.258,4.258,0,0,1,11.711-.852a3.6,3.6,0,0,1-1.125-2.773v-7.75H12.07v7.7a2.6,2.6,0,0,0,.68,1.918,2.612,2.612,0,0,0,1.938.684,2.63,2.63,0,0,0,1.949-.68,2.6,2.6,0,0,0,.676-1.914v-7.711ZM29.93,0H28.422L22.7-8.766V0H21.188V-11.375H22.7l5.742,8.8v-8.8H29.93ZM40.961-3.609A4.185,4.185,0,0,1,39.629-.824a4.365,4.365,0,0,1-2.98.98,4.008,4.008,0,0,1-3.23-1.445A5.815,5.815,0,0,1,32.2-5.156V-6.25a6.481,6.481,0,0,1,.566-2.789,4.231,4.231,0,0,1,1.605-1.848,4.47,4.47,0,0,1,2.406-.645,4.11,4.11,0,0,1,2.906,1.012,4.235,4.235,0,0,1,1.273,2.8H39.453a3.254,3.254,0,0,0-.848-1.969,2.569,2.569,0,0,0-1.824-.609,2.685,2.685,0,0,0-2.254,1.063,4.875,4.875,0,0,0-.816,3.023v1.1a5.011,5.011,0,0,0,.773,2.945A2.5,2.5,0,0,0,36.648-1.07a2.887,2.887,0,0,0,1.918-.566,3.143,3.143,0,0,0,.887-1.973Zm10.8-1.711A7.037,7.037,0,0,1,51.2-2.4,4.261,4.261,0,0,1,49.6-.5,4.385,4.385,0,0,1,47.2.156,4.347,4.347,0,0,1,44.813-.5,4.363,4.363,0,0,1,43.2-2.387a6.752,6.752,0,0,1-.59-2.832v-.82a6.953,6.953,0,0,1,.57-2.9,4.347,4.347,0,0,1,1.613-1.926,4.329,4.329,0,0,1,2.387-.668,4.41,4.41,0,0,1,2.41.66A4.253,4.253,0,0,1,51.2-8.957a7.071,7.071,0,0,1,.563,2.918Zm-1.492-.734a5.1,5.1,0,0,0-.812-3.105,2.68,2.68,0,0,0-2.273-1.082A2.651,2.651,0,0,0,44.941-9.16a5,5,0,0,0-.84,3v.836a5.107,5.107,0,0,0,.824,3.082A2.662,2.662,0,0,0,47.2-1.117a2.652,2.652,0,0,0,2.25-1.059,5.079,5.079,0,0,0,.82-3.035Zm9.859,3.086H55.359L54.289,0H52.742l4.344-11.375H58.4L62.75,0H61.211ZM55.813-4.2H59.68l-1.937-5.32Zm11.82-.867a7.053,7.053,0,0,1-2.809-1.363,2.6,2.6,0,0,1-.879-2,2.751,2.751,0,0,1,1.074-2.223,4.269,4.269,0,0,1,2.793-.879,4.66,4.66,0,0,1,2.09.453,3.436,3.436,0,0,1,1.422,1.25,3.2,3.2,0,0,1,.5,1.742H70.32a2.069,2.069,0,0,0-.656-1.621,2.675,2.675,0,0,0-1.852-.59,2.736,2.736,0,0,0-1.73.488,1.628,1.628,0,0,0-.621,1.355,1.465,1.465,0,0,0,.59,1.176,5.79,5.79,0,0,0,2.008.879,9.3,9.3,0,0,1,2.219.879A3.367,3.367,0,0,1,71.465-4.4a2.861,2.861,0,0,1,.387,1.508A2.658,2.658,0,0,1,70.773-.676a4.6,4.6,0,0,1-2.883.832A5.347,5.347,0,0,1,65.7-.293a3.681,3.681,0,0,1-1.566-1.23A3,3,0,0,1,63.586-3.3h1.508a1.959,1.959,0,0,0,.762,1.629,3.207,3.207,0,0,0,2.035.6,2.948,2.948,0,0,0,1.82-.484,1.573,1.573,0,0,0,.633-1.32,1.545,1.545,0,0,0-.586-1.293A6.755,6.755,0,0,0,67.633-5.07Zm14-5.07H77.977V0H76.484V-10.141H72.836v-1.234h8.8Z" transform="translate(82 900)"/>
    <path id="Path_114" data-name="Path 114" d="M2.82-4.453V0H1.32V-11.375h4.2a4.215,4.215,0,0,1,2.926.953A3.231,3.231,0,0,1,9.5-7.9,3.189,3.189,0,0,1,8.465-5.348,4.4,4.4,0,0,1,5.5-4.453Zm0-1.227h2.7a2.7,2.7,0,0,0,1.844-.566A2.069,2.069,0,0,0,8-7.883a2.138,2.138,0,0,0-.641-1.625A2.528,2.528,0,0,0,5.6-10.141H2.82Zm17.344.359A7.037,7.037,0,0,1,19.6-2.4,4.261,4.261,0,0,1,18.008-.5,4.385,4.385,0,0,1,15.6.156,4.347,4.347,0,0,1,13.219-.5a4.363,4.363,0,0,1-1.613-1.883,6.752,6.752,0,0,1-.59-2.832v-.82a6.953,6.953,0,0,1,.57-2.9A4.347,4.347,0,0,1,13.2-10.863a4.329,4.329,0,0,1,2.387-.668,4.41,4.41,0,0,1,2.41.66A4.253,4.253,0,0,1,19.6-8.957a7.071,7.071,0,0,1,.563,2.918Zm-1.492-.734a5.1,5.1,0,0,0-.812-3.105,2.68,2.68,0,0,0-2.273-1.082A2.651,2.651,0,0,0,13.348-9.16a5,5,0,0,0-.84,3v.836a5.107,5.107,0,0,0,.824,3.082A2.662,2.662,0,0,0,15.6-1.117a2.652,2.652,0,0,0,2.25-1.059,5.079,5.079,0,0,0,.82-3.035ZM26.586-4.6H23.914V0H22.406V-11.375h3.766a4.457,4.457,0,0,1,2.957.875,3.148,3.148,0,0,1,1.035,2.547A3.062,3.062,0,0,1,29.59-6.1a3.428,3.428,0,0,1-1.6,1.18L30.664-.094V0H29.055ZM23.914-5.828h2.3A2.6,2.6,0,0,0,28-6.406a1.953,1.953,0,0,0,.66-1.547,2.057,2.057,0,0,0-.629-1.617,2.666,2.666,0,0,0-1.816-.57h-2.3ZM39.5-10.141H35.844V0H34.352V-10.141H30.7v-1.234h8.8Zm3.2,8.914h5.391V0h-6.9V-11.375H42.7ZM56.227-2.969H51.461L50.391,0H48.844l4.344-11.375H54.5L58.852,0H57.313ZM51.914-4.2h3.867l-1.937-5.32ZM69.125,0H67.617L61.891-8.766V0H60.383V-11.375h1.508l5.742,8.8v-8.8h1.492Zm2.664,0V-11.375H75a5.169,5.169,0,0,1,2.625.656,4.438,4.438,0,0,1,1.762,1.867,6.078,6.078,0,0,1,.629,2.781v.727a6.1,6.1,0,0,1-.621,2.82A4.369,4.369,0,0,1,77.621-.664,5.5,5.5,0,0,1,74.938,0Zm1.5-10.141v8.914h1.578a3.435,3.435,0,0,0,2.7-1.078,4.452,4.452,0,0,0,.965-3.07v-.664a4.522,4.522,0,0,0-.91-3.012,3.24,3.24,0,0,0-2.582-1.09Z" transform="translate(82 929)"/>
    <g id="Group_25" data-name="Group 25" transform="translate(-36 370)">
      <g id="Group_24" data-name="Group 24" transform="translate(4 97)">
        <path id="Path_6" data-name="Path 6" class="cls-5" d="M104.946,483.135v-8.618H506.94v8.618"/>
        <path id="Path_7" data-name="Path 7" class="cls-5" d="M191.347,474.517v8.618"/>
        <path id="Path_8" data-name="Path 8" class="cls-5" d="M191.347,474.517v8.618" transform="translate(84)"/>
        <path id="Path_9" data-name="Path 9" class="cls-5" d="M191.347,474.517v8.618" transform="translate(170)"/>
        <path id="Path_10" data-name="Path 10" class="cls-5" d="M191.347,474.517v8.618" transform="translate(254)"/>
      </g>
      <text id="_0" data-name="0" class="cls-6" transform="translate(106 591)"><tspan x="0" y="0">0</tspan></text>
      <text id="_500" data-name="500" class="cls-6" transform="translate(185 591)"><tspan x="0" y="0">500</tspan></text>
      <text id="_1.5k" data-name="1.5k" class="cls-6" transform="translate(355 591)"><tspan x="0" y="0">1.5k</tspan></text>
      <text id="_1k" data-name="1k" class="cls-6" transform="translate(273 591)"><tspan x="0" y="0">1k</tspan></text>
      <text id="_2k" data-name="2k" class="cls-6" transform="translate(444 591)"><tspan x="0" y="0">2k</tspan></text>
    </g>
    <path id="Path_94" data-name="Path 94" class="cls-7" d="M0,0H10.59V289.623H0Z" transform="translate(480.705 645.494)"/>
    <path id="Path_95" data-name="Path 95" class="cls-8" d="M0,0H10.59V61.419H0Z" transform="translate(480.705 645.494)"/>
    <path id="Path_15" data-name="Path 15" d="M511.022,195.389l5.415-6.994,5.151,6.994Z" transform="translate(-30.293 450.104)"/>
    <path id="Path_16" data-name="Path 16" d="M0,6.994,5.415,0l5.151,6.994Z" transform="translate(491.295 942) rotate(180)"/>
    <path id="Path_92" data-name="Path 92" d="M5.82-5.088H.693V-7H5.82Zm18.516-1.65a8.724,8.724,0,0,1-.723,3.667A5.464,5.464,0,0,1,21.548-.649,5.681,5.681,0,0,1,18.457.2a5.7,5.7,0,0,1-3.081-.845,5.548,5.548,0,0,1-2.09-2.407,8.451,8.451,0,0,1-.747-3.6v-.8a8.649,8.649,0,0,1,.737-3.672,5.542,5.542,0,0,1,2.08-2.437,5.663,5.663,0,0,1,3.081-.845,5.713,5.713,0,0,1,3.081.835,5.471,5.471,0,0,1,2.075,2.4,8.63,8.63,0,0,1,.742,3.647ZM21.865-7.48a6.216,6.216,0,0,0-.894-3.623,2.923,2.923,0,0,0-2.534-1.26,2.914,2.914,0,0,0-2.5,1.255,6.1,6.1,0,0,0-.923,3.55v.82a6.168,6.168,0,0,0,.913,3.623,2.94,2.94,0,0,0,2.534,1.279,2.906,2.906,0,0,0,2.524-1.25,6.3,6.3,0,0,0,.884-3.652Zm6.9-3.086.068,1.221a3.8,3.8,0,0,1,3.076-1.416q3.3,0,3.359,3.779V0H32.9V-6.846a2.176,2.176,0,0,0-.435-1.489,1.828,1.828,0,0,0-1.421-.483,2.287,2.287,0,0,0-2.139,1.3V0H26.533V-10.566ZM47.012-1.7a2.146,2.146,0,0,0,1.475-.518A1.768,1.768,0,0,0,49.111-3.5h2.236a3.486,3.486,0,0,1-.615,1.841A4.035,4.035,0,0,1,49.17-.3a4.656,4.656,0,0,1-2.129.5A4.505,4.505,0,0,1,43.525-1.24a5.694,5.694,0,0,1-1.3-3.965v-.244a5.6,5.6,0,0,1,1.289-3.862,4.464,4.464,0,0,1,3.516-1.45,4.341,4.341,0,0,1,3.071,1.1,3.935,3.935,0,0,1,1.245,2.886H49.111a2.173,2.173,0,0,0-.62-1.494,2,2,0,0,0-1.479-.586,2.088,2.088,0,0,0-1.777.835A4.261,4.261,0,0,0,44.6-5.488v.381a4.331,4.331,0,0,0,.62,2.563A2.086,2.086,0,0,0,47.012-1.7ZM55.664,0H53.291V-15h2.373Zm5.107,0H58.4V-10.566h2.373Zm-2.52-13.311a1.259,1.259,0,0,1,.347-.908,1.309,1.309,0,0,1,.991-.361,1.326,1.326,0,0,1,1,.361,1.25,1.25,0,0,1,.352.908,1.221,1.221,0,0,1-.352.894,1.336,1.336,0,0,1-1,.356,1.32,1.32,0,0,1-.991-.356A1.23,1.23,0,0,1,58.252-13.311ZM67.7-1.7a2.146,2.146,0,0,0,1.475-.518A1.768,1.768,0,0,0,69.795-3.5h2.236a3.486,3.486,0,0,1-.615,1.841A4.035,4.035,0,0,1,69.854-.3a4.656,4.656,0,0,1-2.129.5A4.505,4.505,0,0,1,64.209-1.24a5.694,5.694,0,0,1-1.3-3.965v-.244A5.6,5.6,0,0,1,64.2-9.312a4.464,4.464,0,0,1,3.516-1.45,4.341,4.341,0,0,1,3.071,1.1,3.935,3.935,0,0,1,1.245,2.886H69.795a2.173,2.173,0,0,0-.62-1.494A2,2,0,0,0,67.7-8.857a2.088,2.088,0,0,0-1.777.835,4.261,4.261,0,0,0-.635,2.534v.381a4.331,4.331,0,0,0,.62,2.563A2.086,2.086,0,0,0,67.7-1.7Zm9.561-2.832L76.2-3.447V0H73.828V-15H76.2v8.652l.742-.928,2.92-3.291h2.852l-3.926,4.4L83.135,0H80.391ZM85.693-2.5a1.356,1.356,0,0,1,1.025.376,1.306,1.306,0,0,1,.361.942,1.26,1.26,0,0,1-.361.923,1.376,1.376,0,0,1-1.025.366,1.38,1.38,0,0,1-1.006-.361,1.238,1.238,0,0,1-.371-.928,1.306,1.306,0,0,1,.361-.942A1.342,1.342,0,0,1,85.693-2.5Zm0-8.291a1.356,1.356,0,0,1,1.025.376,1.306,1.306,0,0,1,.361.942,1.26,1.26,0,0,1-.361.923,1.376,1.376,0,0,1-1.025.366,1.38,1.38,0,0,1-1.006-.361,1.238,1.238,0,0,1-.371-.928,1.306,1.306,0,0,1,.361-.942A1.342,1.342,0,0,1,85.693-10.791Zm14.775,7.92a1.076,1.076,0,0,0-.522-.967,5.557,5.557,0,0,0-1.733-.586,8.911,8.911,0,0,1-2.021-.645,2.7,2.7,0,0,1-1.777-2.49,2.813,2.813,0,0,1,1.152-2.285,4.556,4.556,0,0,1,2.93-.918,4.74,4.74,0,0,1,3.062.938,2.975,2.975,0,0,1,1.167,2.432h-2.373a1.462,1.462,0,0,0-.508-1.138A1.946,1.946,0,0,0,98.5-8.984a2.1,2.1,0,0,0-1.274.361,1.139,1.139,0,0,0-.493.967.962.962,0,0,0,.459.85,6.312,6.312,0,0,0,1.855.61,8.783,8.783,0,0,1,2.192.732,3.1,3.1,0,0,1,1.182,1.021A2.6,2.6,0,0,1,102.8-3a2.753,2.753,0,0,1-1.182,2.31,5.039,5.039,0,0,1-3.1.884,5.464,5.464,0,0,1-2.314-.469,3.809,3.809,0,0,1-1.582-1.289,3.051,3.051,0,0,1-.566-1.768h2.3A1.672,1.672,0,0,0,97-2.036a2.467,2.467,0,0,0,1.553.454,2.4,2.4,0,0,0,1.426-.356A1.1,1.1,0,0,0,100.469-2.871ZM109.521.2a4.91,4.91,0,0,1-3.657-1.421,5.154,5.154,0,0,1-1.4-3.784V-5.3a6.34,6.34,0,0,1,.61-2.827,4.645,4.645,0,0,1,1.714-1.938,4.531,4.531,0,0,1,2.461-.693,4.147,4.147,0,0,1,3.335,1.377,5.822,5.822,0,0,1,1.177,3.9v.957h-6.9a3.173,3.173,0,0,0,.874,2.07,2.624,2.624,0,0,0,1.929.762,3.213,3.213,0,0,0,2.656-1.318L113.594-1.8A4.272,4.272,0,0,1,111.9-.327,5.3,5.3,0,0,1,109.521.2Zm-.283-9.053a2,2,0,0,0-1.577.684,3.543,3.543,0,0,0-.767,1.9h4.521v-.176a2.884,2.884,0,0,0-.635-1.8A1.983,1.983,0,0,0,109.238-8.857ZM118.125,0h-2.373V-15h2.373Zm7.236.2A4.91,4.91,0,0,1,121.7-1.226a5.154,5.154,0,0,1-1.4-3.784V-5.3a6.34,6.34,0,0,1,.61-2.827,4.645,4.645,0,0,1,1.714-1.938,4.531,4.531,0,0,1,2.461-.693,4.147,4.147,0,0,1,3.335,1.377,5.823,5.823,0,0,1,1.177,3.9v.957h-6.9a3.173,3.173,0,0,0,.874,2.07A2.624,2.624,0,0,0,125.5-1.7a3.213,3.213,0,0,0,2.656-1.318L129.434-1.8a4.272,4.272,0,0,1-1.694,1.47A5.3,5.3,0,0,1,125.361.2Zm-.283-9.053a2,2,0,0,0-1.577.684,3.543,3.543,0,0,0-.767,1.9h4.521v-.176a2.884,2.884,0,0,0-.635-1.8A1.983,1.983,0,0,0,125.078-8.857Zm10.7,7.158a2.146,2.146,0,0,0,1.475-.518,1.768,1.768,0,0,0,.625-1.279h2.236a3.486,3.486,0,0,1-.615,1.841A4.035,4.035,0,0,1,137.939-.3a4.656,4.656,0,0,1-2.129.5,4.505,4.505,0,0,1-3.516-1.436A5.694,5.694,0,0,1,131-5.205v-.244a5.6,5.6,0,0,1,1.289-3.862,4.464,4.464,0,0,1,3.516-1.45,4.341,4.341,0,0,1,3.071,1.1,3.935,3.935,0,0,1,1.245,2.886h-2.236a2.173,2.173,0,0,0-.62-1.494,2,2,0,0,0-1.479-.586A2.088,2.088,0,0,0,134-8.022a4.261,4.261,0,0,0-.635,2.534v.381a4.331,4.331,0,0,0,.62,2.563A2.086,2.086,0,0,0,135.781-1.7Zm9.1-11.436v2.568h1.865v1.758h-1.865v5.9a1.3,1.3,0,0,0,.239.874,1.109,1.109,0,0,0,.854.269,3.656,3.656,0,0,0,.83-.1V-.029A5.845,5.845,0,0,1,145.244.2q-2.734,0-2.734-3.018V-8.809h-1.738v-1.758h1.738v-2.568ZM153.213.2a4.91,4.91,0,0,1-3.657-1.421,5.154,5.154,0,0,1-1.4-3.784V-5.3a6.34,6.34,0,0,1,.61-2.827,4.646,4.646,0,0,1,1.714-1.938,4.531,4.531,0,0,1,2.461-.693,4.147,4.147,0,0,1,3.335,1.377,5.823,5.823,0,0,1,1.177,3.9v.957h-6.9a3.173,3.173,0,0,0,.874,2.07,2.624,2.624,0,0,0,1.929.762,3.213,3.213,0,0,0,2.656-1.318L157.285-1.8a4.272,4.272,0,0,1-1.694,1.47A5.3,5.3,0,0,1,153.213.2Zm-.283-9.053a2,2,0,0,0-1.577.684,3.543,3.543,0,0,0-.767,1.9h4.521v-.176a2.884,2.884,0,0,0-.635-1.8A1.983,1.983,0,0,0,152.93-8.857Zm5.918,3.5a6.282,6.282,0,0,1,1.133-3.921,3.63,3.63,0,0,1,3.037-1.479,3.449,3.449,0,0,1,2.715,1.172V-15h2.373V0h-2.148l-.117-1.094A3.5,3.5,0,0,1,163,.2,3.609,3.609,0,0,1,160-1.3,6.512,6.512,0,0,1,158.848-5.361Zm2.373.205a4.4,4.4,0,0,0,.62,2.515,2.012,2.012,0,0,0,1.763.9,2.241,2.241,0,0,0,2.129-1.3V-7.549a2.207,2.207,0,0,0-2.109-1.27,2.027,2.027,0,0,0-1.777.913A4.9,4.9,0,0,0,161.221-5.156Zm23.613-.02a6.347,6.347,0,0,1-1.1,3.916A3.579,3.579,0,0,1,180.713.2a3.447,3.447,0,0,1-2.891-1.338L177.705,0h-2.148V-15h2.373v5.449a3.435,3.435,0,0,1,2.764-1.211,3.62,3.62,0,0,1,3.037,1.436,6.452,6.452,0,0,1,1.1,4.014Zm-2.373-.205a4.486,4.486,0,0,0-.605-2.578,2.016,2.016,0,0,0-1.758-.859,2.2,2.2,0,0,0-2.168,1.348v4.355a2.226,2.226,0,0,0,2.188,1.377,2,2,0,0,0,1.719-.83,4.347,4.347,0,0,0,.625-2.51ZM193.135,0a3.662,3.662,0,0,1-.273-.986A3.694,3.694,0,0,1,190.088.2a3.728,3.728,0,0,1-2.6-.908,2.906,2.906,0,0,1-1.006-2.246,3,3,0,0,1,1.255-2.593,6.081,6.081,0,0,1,3.589-.9h1.455v-.693a1.851,1.851,0,0,0-.459-1.313,1.819,1.819,0,0,0-1.4-.493,2.09,2.09,0,0,0-1.328.405,1.254,1.254,0,0,0-.518,1.03h-2.373a2.634,2.634,0,0,1,.576-1.626,3.838,3.838,0,0,1,1.567-1.187,5.506,5.506,0,0,1,2.212-.43,4.434,4.434,0,0,1,2.959.933,3.326,3.326,0,0,1,1.133,2.622v4.766a5.4,5.4,0,0,0,.4,2.275V0Zm-2.607-1.709a2.7,2.7,0,0,0,1.323-.342,2.284,2.284,0,0,0,.933-.918V-4.961H191.5a3.5,3.5,0,0,0-1.982.459,1.487,1.487,0,0,0-.664,1.3,1.387,1.387,0,0,0,.454,1.089A1.758,1.758,0,0,0,190.527-1.709ZM203.174-8.4a5.872,5.872,0,0,0-.967-.078,2.177,2.177,0,0,0-2.2,1.25V0h-2.373V-10.566H199.9l.059,1.182a2.674,2.674,0,0,1,2.383-1.377,2.222,2.222,0,0,1,.84.137Zm8.818-1.016a3.714,3.714,0,0,1,2.939-1.348q3.379,0,3.428,3.857V0h-2.373V-6.816a2.086,2.086,0,0,0-.474-1.548,1.936,1.936,0,0,0-1.392-.454,2.286,2.286,0,0,0-2.129,1.27V0h-2.373V-15h2.373ZM223.281,0h-2.373V-10.566h2.373Zm-2.52-13.311a1.259,1.259,0,0,1,.347-.908,1.309,1.309,0,0,1,.991-.361,1.326,1.326,0,0,1,1,.361,1.25,1.25,0,0,1,.352.908,1.221,1.221,0,0,1-.352.894,1.336,1.336,0,0,1-1,.356,1.32,1.32,0,0,1-.991-.356A1.23,1.23,0,0,1,220.762-13.311Zm4.688,7.949a6.18,6.18,0,0,1,1.157-3.931,3.714,3.714,0,0,1,3.071-1.47A3.48,3.48,0,0,1,232.52-9.5l.107-1.064h2.139V-.322a4.258,4.258,0,0,1-1.294,3.281,4.928,4.928,0,0,1-3.491,1.2,5.627,5.627,0,0,1-2.271-.483,4.034,4.034,0,0,1-1.685-1.265L227.148.986a3.392,3.392,0,0,0,2.7,1.3,2.621,2.621,0,0,0,1.865-.64,2.451,2.451,0,0,0,.684-1.88V-.947A3.494,3.494,0,0,1,229.658.2a3.705,3.705,0,0,1-3.032-1.475A6.38,6.38,0,0,1,225.449-5.361Zm2.363.205a4.254,4.254,0,0,0,.649,2.5,2.088,2.088,0,0,0,1.8.913,2.284,2.284,0,0,0,2.129-1.23V-7.617a2.251,2.251,0,0,0-2.109-1.2,2.1,2.1,0,0,0-1.821.928A4.763,4.763,0,0,0,227.813-5.156Zm11.729-4.258a3.714,3.714,0,0,1,2.939-1.348q3.379,0,3.428,3.857V0h-2.373V-6.816a2.086,2.086,0,0,0-.474-1.548,1.936,1.936,0,0,0-1.392-.454,2.286,2.286,0,0,0-2.129,1.27V0h-2.373V-15h2.373ZM250.83,0h-2.373V-15h2.373Zm5.107,0h-2.373V-10.566h2.373Zm-2.52-13.311a1.259,1.259,0,0,1,.347-.908,1.309,1.309,0,0,1,.991-.361,1.326,1.326,0,0,1,1,.361,1.25,1.25,0,0,1,.352.908,1.221,1.221,0,0,1-.352.894,1.336,1.336,0,0,1-1,.356,1.32,1.32,0,0,1-.991-.356A1.23,1.23,0,0,1,253.418-13.311Zm4.688,7.949a6.18,6.18,0,0,1,1.157-3.931,3.714,3.714,0,0,1,3.071-1.47,3.48,3.48,0,0,1,2.842,1.26l.107-1.064h2.139V-.322a4.258,4.258,0,0,1-1.294,3.281,4.928,4.928,0,0,1-3.491,1.2,5.627,5.627,0,0,1-2.271-.483,4.034,4.034,0,0,1-1.685-1.265L259.8.986a3.392,3.392,0,0,0,2.7,1.3,2.621,2.621,0,0,0,1.865-.64,2.451,2.451,0,0,0,.684-1.88V-.947A3.494,3.494,0,0,1,262.314.2a3.705,3.705,0,0,1-3.032-1.475A6.38,6.38,0,0,1,258.105-5.361Zm2.363.205a4.254,4.254,0,0,0,.649,2.5,2.088,2.088,0,0,0,1.8.913,2.284,2.284,0,0,0,2.129-1.23V-7.617a2.251,2.251,0,0,0-2.109-1.2,2.1,2.1,0,0,0-1.821.928A4.763,4.763,0,0,0,260.469-5.156ZM272.2-9.414a3.714,3.714,0,0,1,2.939-1.348q3.379,0,3.428,3.857V0h-2.373V-6.816a2.086,2.086,0,0,0-.474-1.548,1.936,1.936,0,0,0-1.392-.454,2.286,2.286,0,0,0-2.129,1.27V0h-2.373V-15H272.2Zm11.738-3.721v2.568H285.8v1.758h-1.865v5.9a1.3,1.3,0,0,0,.239.874,1.109,1.109,0,0,0,.854.269,3.656,3.656,0,0,0,.83-.1V-.029A5.845,5.845,0,0,1,284.3.2q-2.734,0-2.734-3.018V-8.809h-1.738v-1.758h1.738v-2.568ZM292.266.2a4.91,4.91,0,0,1-3.657-1.421,5.154,5.154,0,0,1-1.4-3.784V-5.3a6.34,6.34,0,0,1,.61-2.827,4.645,4.645,0,0,1,1.714-1.938,4.531,4.531,0,0,1,2.461-.693,4.147,4.147,0,0,1,3.335,1.377,5.822,5.822,0,0,1,1.177,3.9v.957h-6.9a3.173,3.173,0,0,0,.874,2.07A2.624,2.624,0,0,0,292.4-1.7a3.213,3.213,0,0,0,2.656-1.318L296.338-1.8a4.272,4.272,0,0,1-1.694,1.47A5.3,5.3,0,0,1,292.266.2Zm-.283-9.053a2,2,0,0,0-1.577.684,3.543,3.543,0,0,0-.767,1.9h4.521v-.176a2.884,2.884,0,0,0-.635-1.8A1.983,1.983,0,0,0,291.982-8.857Zm5.918,3.5a6.282,6.282,0,0,1,1.133-3.921,3.63,3.63,0,0,1,3.037-1.479,3.449,3.449,0,0,1,2.715,1.172V-15h2.373V0H305.01l-.117-1.094A3.5,3.5,0,0,1,302.051.2a3.609,3.609,0,0,1-3-1.494A6.512,6.512,0,0,1,297.9-5.361Zm2.373.205a4.4,4.4,0,0,0,.62,2.515,2.012,2.012,0,0,0,1.763.9,2.241,2.241,0,0,0,2.129-1.3V-7.549a2.207,2.207,0,0,0-2.109-1.27,2.027,2.027,0,0,0-1.777.913A4.9,4.9,0,0,0,300.273-5.156ZM323.9-3.271l1.68-7.295h2.314L325.01,0h-1.953l-2.266-7.256L318.564,0h-1.953l-2.891-10.566h2.314l1.709,7.217,2.168-7.217H321.7ZM332,0h-2.373V-10.566H332Zm-2.52-13.311a1.259,1.259,0,0,1,.347-.908,1.309,1.309,0,0,1,.991-.361,1.326,1.326,0,0,1,1,.361,1.25,1.25,0,0,1,.352.908,1.221,1.221,0,0,1-.352.894,1.336,1.336,0,0,1-1,.356,1.32,1.32,0,0,1-.991-.356A1.23,1.23,0,0,1,329.482-13.311Zm8.076.176v2.568h1.865v1.758h-1.865v5.9a1.3,1.3,0,0,0,.239.874,1.109,1.109,0,0,0,.854.269,3.656,3.656,0,0,0,.83-.1V-.029A5.845,5.845,0,0,1,337.92.2q-2.734,0-2.734-3.018V-8.809h-1.738v-1.758h1.738v-2.568Zm6.016,3.721a3.714,3.714,0,0,1,2.939-1.348q3.379,0,3.428,3.857V0h-2.373V-6.816a2.086,2.086,0,0,0-.474-1.548,1.936,1.936,0,0,0-1.392-.454,2.286,2.286,0,0,0-2.129,1.27V0H341.2V-15h2.373ZM361.66-1.7a2.146,2.146,0,0,0,1.475-.518A1.768,1.768,0,0,0,363.76-3.5H366a3.485,3.485,0,0,1-.615,1.841A4.035,4.035,0,0,1,363.818-.3a4.656,4.656,0,0,1-2.129.5,4.505,4.505,0,0,1-3.516-1.436,5.694,5.694,0,0,1-1.3-3.965v-.244a5.6,5.6,0,0,1,1.289-3.862,4.464,4.464,0,0,1,3.516-1.45,4.341,4.341,0,0,1,3.071,1.1A3.935,3.935,0,0,1,366-6.777H363.76a2.173,2.173,0,0,0-.62-1.494,2,2,0,0,0-1.479-.586,2.088,2.088,0,0,0-1.777.835,4.261,4.261,0,0,0-.635,2.534v.381a4.331,4.331,0,0,0,.62,2.563A2.086,2.086,0,0,0,361.66-1.7Zm5.684-3.682a6.231,6.231,0,0,1,.615-2.8,4.493,4.493,0,0,1,1.729-1.914,4.87,4.87,0,0,1,2.559-.669,4.615,4.615,0,0,1,3.472,1.377,5.416,5.416,0,0,1,1.44,3.652l.01.557a6.286,6.286,0,0,1-.6,2.793,4.439,4.439,0,0,1-1.719,1.9A4.906,4.906,0,0,1,372.266.2a4.584,4.584,0,0,1-3.579-1.489,5.7,5.7,0,0,1-1.343-3.97Zm2.373.205a4.258,4.258,0,0,0,.674,2.554,2.191,2.191,0,0,0,1.875.923,2.167,2.167,0,0,0,1.87-.937,4.7,4.7,0,0,0,.669-2.744,4.2,4.2,0,0,0-.688-2.539,2.2,2.2,0,0,0-1.87-.937,2.178,2.178,0,0,0-1.846.923A4.614,4.614,0,0,0,369.717-5.176ZM381.7,0h-2.373V-15H381.7Zm2.139-5.381a6.231,6.231,0,0,1,.615-2.8,4.493,4.493,0,0,1,1.729-1.914,4.87,4.87,0,0,1,2.559-.669,4.615,4.615,0,0,1,3.472,1.377,5.416,5.416,0,0,1,1.44,3.652l.01.557a6.286,6.286,0,0,1-.6,2.793,4.439,4.439,0,0,1-1.719,1.9A4.906,4.906,0,0,1,388.76.2a4.584,4.584,0,0,1-3.579-1.489,5.7,5.7,0,0,1-1.343-3.97Zm2.373.205a4.258,4.258,0,0,0,.674,2.554,2.191,2.191,0,0,0,1.875.923,2.167,2.167,0,0,0,1.87-.937,4.7,4.7,0,0,0,.669-2.744,4.2,4.2,0,0,0-.688-2.539,2.2,2.2,0,0,0-1.87-.937,2.178,2.178,0,0,0-1.846.923A4.614,4.614,0,0,0,386.211-5.176ZM401.2-8.4a5.872,5.872,0,0,0-.967-.078,2.177,2.177,0,0,0-2.2,1.25V0h-2.373V-10.566h2.266l.059,1.182a2.674,2.674,0,0,1,2.383-1.377,2.222,2.222,0,0,1,.84.137Zm.146,11.6-1.279-.762a6.9,6.9,0,0,0,.776-1.548,4.618,4.618,0,0,0,.22-1.343V-2.295H403.2l-.01,1.709a4.763,4.763,0,0,1-.522,2.075A5.155,5.155,0,0,1,401.348,3.2ZM101.768,23.129a1.076,1.076,0,0,0-.522-.967,5.557,5.557,0,0,0-1.733-.586,8.911,8.911,0,0,1-2.021-.645,2.7,2.7,0,0,1-1.777-2.49,2.813,2.813,0,0,1,1.152-2.285,4.556,4.556,0,0,1,2.93-.918,4.74,4.74,0,0,1,3.062.938,2.975,2.975,0,0,1,1.167,2.432H101.65a1.462,1.462,0,0,0-.508-1.138,1.946,1.946,0,0,0-1.348-.454,2.1,2.1,0,0,0-1.274.361,1.139,1.139,0,0,0-.493.967.962.962,0,0,0,.459.85,6.312,6.312,0,0,0,1.855.61,8.783,8.783,0,0,1,2.192.732,3.1,3.1,0,0,1,1.182,1.021A2.6,2.6,0,0,1,104.1,23a2.753,2.753,0,0,1-1.182,2.31,5.039,5.039,0,0,1-3.1.884,5.464,5.464,0,0,1-2.314-.469,3.809,3.809,0,0,1-1.582-1.289,3.051,3.051,0,0,1-.566-1.768h2.3a1.672,1.672,0,0,0,.635,1.294,2.467,2.467,0,0,0,1.553.454,2.4,2.4,0,0,0,1.426-.356A1.1,1.1,0,0,0,101.768,23.129Zm7.373-10.264v2.568h1.865v1.758h-1.865v5.9a1.3,1.3,0,0,0,.239.874,1.109,1.109,0,0,0,.854.269,3.656,3.656,0,0,0,.83-.1v1.836a5.844,5.844,0,0,1-1.562.225q-2.734,0-2.734-3.018V17.191h-1.738V15.434h1.738V12.865ZM119.131,26a3.662,3.662,0,0,1-.273-.986,3.992,3.992,0,0,1-5.371.273,2.906,2.906,0,0,1-1.006-2.246,3,3,0,0,1,1.255-2.593,6.081,6.081,0,0,1,3.589-.9h1.455v-.693a1.851,1.851,0,0,0-.459-1.313,1.819,1.819,0,0,0-1.4-.493,2.09,2.09,0,0,0-1.328.405,1.254,1.254,0,0,0-.518,1.03h-2.373a2.634,2.634,0,0,1,.576-1.626,3.839,3.839,0,0,1,1.567-1.187,5.506,5.506,0,0,1,2.212-.43,4.434,4.434,0,0,1,2.959.933,3.326,3.326,0,0,1,1.133,2.622v4.766a5.4,5.4,0,0,0,.4,2.275V26Zm-2.607-1.709a2.7,2.7,0,0,0,1.323-.342,2.284,2.284,0,0,0,.933-.918V21.039H117.5a3.5,3.5,0,0,0-1.982.459,1.487,1.487,0,0,0-.664,1.3,1.387,1.387,0,0,0,.454,1.089A1.758,1.758,0,0,0,116.523,24.291ZM127.334,22.6l2.148-7.168h2.529l-4.2,12.168q-.967,2.666-3.281,2.666a4.251,4.251,0,0,1-1.143-.176V28.256l.449.029a2.309,2.309,0,0,0,1.353-.327,2.169,2.169,0,0,0,.718-1.1l.342-.908-3.711-10.518H125.1Zm11.963.527a1.076,1.076,0,0,0-.522-.967,5.557,5.557,0,0,0-1.733-.586,8.911,8.911,0,0,1-2.021-.645,2.7,2.7,0,0,1-1.777-2.49,2.813,2.813,0,0,1,1.152-2.285,4.556,4.556,0,0,1,2.93-.918,4.74,4.74,0,0,1,3.062.938,2.975,2.975,0,0,1,1.167,2.432H139.18a1.462,1.462,0,0,0-.508-1.138,1.946,1.946,0,0,0-1.348-.454,2.1,2.1,0,0,0-1.274.361,1.139,1.139,0,0,0-.493.967.962.962,0,0,0,.459.85,6.312,6.312,0,0,0,1.855.61,8.783,8.783,0,0,1,2.192.732,3.1,3.1,0,0,1,1.182,1.021A2.6,2.6,0,0,1,141.631,23a2.753,2.753,0,0,1-1.182,2.31,5.039,5.039,0,0,1-3.1.884,5.464,5.464,0,0,1-2.314-.469,3.809,3.809,0,0,1-1.582-1.289,3.051,3.051,0,0,1-.566-1.768h2.3a1.672,1.672,0,0,0,.635,1.294,2.467,2.467,0,0,0,1.553.454,2.4,2.4,0,0,0,1.426-.356A1.1,1.1,0,0,0,139.3,23.129ZM151.2,26h-2.373V15.434H151.2Zm-2.52-13.311a1.259,1.259,0,0,1,.347-.908,1.309,1.309,0,0,1,.991-.361,1.326,1.326,0,0,1,1,.361,1.25,1.25,0,0,1,.352.908,1.221,1.221,0,0,1-.352.894,1.336,1.336,0,0,1-1,.356,1.32,1.32,0,0,1-.991-.356A1.23,1.23,0,0,1,148.682,12.689Zm7.3,2.744.068,1.221a3.8,3.8,0,0,1,3.076-1.416q3.3,0,3.359,3.779V26h-2.373V19.154a2.176,2.176,0,0,0-.435-1.489,1.828,1.828,0,0,0-1.421-.483,2.287,2.287,0,0,0-2.139,1.3V26H153.75V15.434Zm23.154,5.391a6.291,6.291,0,0,1-1.113,3.911,3.867,3.867,0,0,1-5.771.317v5.01h-2.373V15.434h2.188l.1,1.074a3.485,3.485,0,0,1,2.842-1.27,3.6,3.6,0,0,1,3.032,1.44,6.459,6.459,0,0,1,1.1,4Zm-2.363-.205a4.407,4.407,0,0,0-.63-2.51,2.048,2.048,0,0,0-1.8-.928,2.184,2.184,0,0,0-2.09,1.2V23.07a2.2,2.2,0,0,0,2.109,1.23,2.045,2.045,0,0,0,1.772-.913A4.851,4.851,0,0,0,176.777,20.619ZM183.672,26H181.3V11h2.373Zm8.9,0a3.662,3.662,0,0,1-.273-.986,3.992,3.992,0,0,1-5.371.273,2.906,2.906,0,0,1-1.006-2.246,3,3,0,0,1,1.255-2.593,6.081,6.081,0,0,1,3.589-.9h1.455v-.693a1.851,1.851,0,0,0-.459-1.313,1.819,1.819,0,0,0-1.4-.493,2.09,2.09,0,0,0-1.328.405,1.254,1.254,0,0,0-.518,1.03h-2.373a2.634,2.634,0,0,1,.576-1.626,3.838,3.838,0,0,1,1.567-1.187,5.506,5.506,0,0,1,2.212-.43,4.434,4.434,0,0,1,2.959.933,3.326,3.326,0,0,1,1.133,2.622v4.766a5.4,5.4,0,0,0,.4,2.275V26Zm-2.607-1.709a2.7,2.7,0,0,0,1.323-.342,2.284,2.284,0,0,0,.933-.918V21.039h-1.279a3.5,3.5,0,0,0-1.982.459,1.487,1.487,0,0,0-.664,1.3,1.387,1.387,0,0,0,.454,1.089A1.758,1.758,0,0,0,189.961,24.291Zm11.455.01a2.146,2.146,0,0,0,1.475-.518,1.768,1.768,0,0,0,.625-1.279h2.236a3.486,3.486,0,0,1-.615,1.841,4.035,4.035,0,0,1-1.562,1.353,4.656,4.656,0,0,1-2.129.5,4.505,4.505,0,0,1-3.516-1.436,5.694,5.694,0,0,1-1.3-3.965v-.244a5.6,5.6,0,0,1,1.289-3.862,4.464,4.464,0,0,1,3.516-1.45,4.341,4.341,0,0,1,3.071,1.1,3.935,3.935,0,0,1,1.245,2.886h-2.236a2.173,2.173,0,0,0-.62-1.494,2,2,0,0,0-1.479-.586,2.088,2.088,0,0,0-1.777.835A4.261,4.261,0,0,0,199,20.512v.381a4.331,4.331,0,0,0,.62,2.563A2.086,2.086,0,0,0,201.416,24.3ZM212.2,26.2a4.91,4.91,0,0,1-3.657-1.421,5.154,5.154,0,0,1-1.4-3.784V20.7a6.34,6.34,0,0,1,.61-2.827,4.646,4.646,0,0,1,1.714-1.938,4.531,4.531,0,0,1,2.461-.693,4.147,4.147,0,0,1,3.335,1.377,5.823,5.823,0,0,1,1.177,3.9v.957h-6.9a3.173,3.173,0,0,0,.874,2.07,2.624,2.624,0,0,0,1.929.762,3.213,3.213,0,0,0,2.656-1.318L216.27,24.2a4.272,4.272,0,0,1-1.694,1.47A5.3,5.3,0,0,1,212.2,26.2Zm-.283-9.053a2,2,0,0,0-1.577.684,3.543,3.543,0,0,0-.767,1.9h4.521v-.176a2.884,2.884,0,0,0-.635-1.8A1.983,1.983,0,0,0,211.914,17.143Z" transform="translate(72 599)"/>
  </g>
</svg>
