<svg xmlns="http://www.w3.org/2000/svg" xmlns:xlink="http://www.w3.org/1999/xlink" viewBox="0 0 421.326 359.117">
  <defs>
    <style>
      .cls-1, .cls-11, .cls-12, .cls-15, .cls-5 {
        fill: none;
      }

      .cls-1 {
        stroke: #c6c6c6;
      }

      .cls-1, .cls-5 {
        stroke-width: 2px;
      }

      .cls-2 {
        fill: #f3cb2c;
      }

      .cls-2, .cls-4 {
        opacity: 0.93;
      }

      .cls-3, .cls-4 {
        fill: #68b3e4;
      }

      .cls-3 {
        opacity: 0.805;
      }

      .cls-5, .cls-8 {
        stroke: #000;
      }

      .cls-6 {
        fill: #e3e6e9;
      }

      .cls-7 {
        fill: #aab3bd;
      }

      .cls-13, .cls-8 {
        fill: #fff;
      }

      .cls-9 {
        font-size: 12px;
        font-family: Roboto-Regular, Roboto;
      }

      .cls-10, .cls-16 {
        fill: #ee772e;
      }

      .cls-11 {
        stroke: #ee772e;
        stroke-width: 3px;
      }

      .cls-14, .cls-16 {
        stroke: none;
      }

      .cls-17 {
        filter: url(#Rectangle_15);
      }
    </style>
    <filter id="Rectangle_15" x="249.326" y="104" width="172" height="92" filterUnits="userSpaceOnUse">
      <feOffset dy="3" input="SourceAlpha"/>
      <feGaussianBlur stdDeviation="3" result="blur"/>
      <feFlood flood-opacity="0.416"/>
      <feComposite operator="in" in2="blur"/>
      <feComposite in="SourceGraphic"/>
    </filter>
  </defs>
  <g id="Group_68" data-name="Group 68" transform="translate(-70.674 -181)">
    <path id="Path_11" data-name="Path 11" class="cls-1" d="M671,487.517l-1-303.043" transform="translate(-512 33.025)"/>
    <path id="Path_12" data-name="Path 12" class="cls-1" d="M671,487.517l-1-303.043" transform="translate(-428 33.025)"/>
    <path id="Path_13" data-name="Path 13" class="cls-1" d="M671,487.517l-1-303.043" transform="translate(-342 33.025)"/>
    <path id="Path_14" data-name="Path 14" class="cls-1" d="M671,487.517l-1-303.043" transform="translate(-258 33.025)"/>
    <path id="Path_63" data-name="Path 63" class="cls-2" d="M0,0H401V24H0Z" transform="translate(72 228)"/>
    <path id="Path_67" data-name="Path 67" class="cls-3" d="M0,0H276.532V24H0Z" transform="translate(72 257)"/>
    <path id="Path_69" data-name="Path 69" class="cls-4" d="M0,0H267.278V24H0Z" transform="translate(72 286)"/>
    <path id="Path_70" data-name="Path 70" class="cls-4" d="M0,0H245.781V24H0Z" transform="translate(72 315)"/>
    <path id="Path_71" data-name="Path 71" class="cls-4" d="M0,0H229.835V24H0Z" transform="translate(72 344)"/>
    <path id="Path_72" data-name="Path 72" class="cls-4" d="M0,0H219.7V24H0Z" transform="translate(72 373)"/>
    <path id="Path_74" data-name="Path 74" class="cls-4" d="M0,0H208.74V24H0Z" transform="translate(72 402)"/>
    <path id="Path_75" data-name="Path 75" class="cls-4" d="M0,0H200.5V24H0Z" transform="translate(72 431)"/>
    <path id="Path_81" data-name="Path 81" class="cls-4" d="M0,0H181.118V24H0Z" transform="translate(72 460)"/>
    <path id="Path_85" data-name="Path 85" class="cls-4" d="M0,0H181.118V24H0Z" transform="translate(72 489)"/>
    <path id="Path_82" data-name="Path 82" d="M1.32,0V-11.375H4.531a5.169,5.169,0,0,1,2.625.656A4.438,4.438,0,0,1,8.918-8.852,6.078,6.078,0,0,1,9.547-6.07v.727a6.1,6.1,0,0,1-.621,2.82A4.369,4.369,0,0,1,7.152-.664,5.5,5.5,0,0,1,4.469,0Zm1.5-10.141v8.914H4.4A3.435,3.435,0,0,0,7.1-2.3a4.452,4.452,0,0,0,.965-3.07v-.664a4.522,4.522,0,0,0-.91-3.012,3.24,3.24,0,0,0-2.582-1.09ZM18.242-5.258h-4.93v4.031h5.727V0H11.813V-11.375h7.148v1.234H13.313v3.656h4.93Zm10.68-4.883H25.266V0H23.773V-10.141H20.125v-1.234h8.8ZM34.781-4.6H32.109V0H30.6V-11.375h3.766a4.457,4.457,0,0,1,2.957.875,3.148,3.148,0,0,1,1.035,2.547A3.062,3.062,0,0,1,37.785-6.1a3.428,3.428,0,0,1-1.6,1.18L38.859-.094V0H37.25ZM32.109-5.828h2.3a2.6,2.6,0,0,0,1.777-.578,1.953,1.953,0,0,0,.66-1.547,2.057,2.057,0,0,0-.629-1.617,2.666,2.666,0,0,0-1.816-.57h-2.3Zm17.1.508A7.037,7.037,0,0,1,48.648-2.4,4.261,4.261,0,0,1,47.055-.5a4.385,4.385,0,0,1-2.406.656A4.347,4.347,0,0,1,42.266-.5a4.363,4.363,0,0,1-1.613-1.883,6.752,6.752,0,0,1-.59-2.832v-.82a6.953,6.953,0,0,1,.57-2.9,4.347,4.347,0,0,1,1.613-1.926,4.329,4.329,0,0,1,2.387-.668,4.41,4.41,0,0,1,2.41.66,4.253,4.253,0,0,1,1.605,1.914,7.071,7.071,0,0,1,.563,2.918Zm-1.492-.734a5.1,5.1,0,0,0-.812-3.105,2.68,2.68,0,0,0-2.273-1.082A2.651,2.651,0,0,0,42.395-9.16a5,5,0,0,0-.84,3v.836a5.107,5.107,0,0,0,.824,3.082,2.662,2.662,0,0,0,2.27,1.121A2.652,2.652,0,0,0,46.9-2.176a5.079,5.079,0,0,0,.82-3.035ZM53.07,0h-1.5V-11.375h1.5Zm10.6-10.141H60.016V0H58.523V-10.141H54.875v-1.234h8.8Zm8.117,5.9H67.977v-1.18h3.813Zm7.32-2.148H80.2A2.387,2.387,0,0,0,81.8-6.93a1.8,1.8,0,0,0,.586-1.414,1.764,1.764,0,0,0-1.992-2,2.072,2.072,0,0,0-1.5.535,1.873,1.873,0,0,0-.559,1.418H76.9a2.9,2.9,0,0,1,.988-2.246,3.6,3.6,0,0,1,2.512-.895,3.558,3.558,0,0,1,2.523.852,3.076,3.076,0,0,1,.914,2.367,2.5,2.5,0,0,1-.48,1.438,2.9,2.9,0,0,1-1.309,1.039,2.8,2.8,0,0,1,1.449.984,2.734,2.734,0,0,1,.512,1.68,3.1,3.1,0,0,1-1,2.43,3.745,3.745,0,0,1-2.6.9A3.844,3.844,0,0,1,77.8-.711,2.877,2.877,0,0,1,76.8-3H78.25a1.859,1.859,0,0,0,.586,1.438,2.229,2.229,0,0,0,1.57.539,2.187,2.187,0,0,0,1.6-.547,2.108,2.108,0,0,0,.555-1.57,1.912,1.912,0,0,0-.609-1.523A2.655,2.655,0,0,0,80.2-5.211H79.109ZM86.172-.758a.905.905,0,0,1,.223-.625.848.848,0,0,1,.668-.25.874.874,0,0,1,.676.25.887.887,0,0,1,.23.625.839.839,0,0,1-.23.6.89.89,0,0,1-.676.242.863.863,0,0,1-.668-.242A.855.855,0,0,1,86.172-.758ZM94.953,0H93.5V-9.633l-2.914,1.07V-9.875l4.141-1.555h.227Zm4.109-9.187a2.308,2.308,0,0,1,.652-1.687,2.247,2.247,0,0,1,1.676-.664,2.234,2.234,0,0,1,1.684.668,2.388,2.388,0,0,1,.645,1.73v.555a2.278,2.278,0,0,1-.652,1.684,2.249,2.249,0,0,1-1.66.652,2.3,2.3,0,0,1-1.68-.652,2.326,2.326,0,0,1-.664-1.738Zm1.078.6a1.473,1.473,0,0,0,.344,1,1.161,1.161,0,0,0,.922.395,1.139,1.139,0,0,0,.895-.383,1.521,1.521,0,0,0,.34-1.047v-.57A1.51,1.51,0,0,0,102.3-10.2a1.133,1.133,0,0,0-.914-.4,1.133,1.133,0,0,0-.914.4,1.557,1.557,0,0,0-.336,1.039Zm4.461,5.8a2.3,2.3,0,0,1,.652-1.684,2.254,2.254,0,0,1,1.676-.66,2.274,2.274,0,0,1,1.68.656,2.355,2.355,0,0,1,.656,1.742v.555A2.3,2.3,0,0,1,108.613-.5a2.244,2.244,0,0,1-1.668.66,2.3,2.3,0,0,1-1.68-.652,2.326,2.326,0,0,1-.664-1.738Zm1.078.609a1.484,1.484,0,0,0,.344,1.012,1.161,1.161,0,0,0,.922.395,1.13,1.13,0,0,0,.9-.387,1.548,1.548,0,0,0,.336-1.051v-.578a1.48,1.48,0,0,0-.34-1.008,1.146,1.146,0,0,0-.91-.391,1.157,1.157,0,0,0-.9.387,1.5,1.5,0,0,0-.348,1.043Zm-3.945,1.32-.82-.516,5.555-8.891.82.516Z" transform="translate(82 247)"/>
    <path id="Path_79" data-name="Path 79" d="M7.6-2.969H2.836L1.766,0H.219L4.563-11.375H5.875L10.227,0H8.688ZM3.289-4.2H7.156L5.219-9.523ZM15.93-4.6H13.258V0H11.75V-11.375h3.766a4.457,4.457,0,0,1,2.957.875,3.148,3.148,0,0,1,1.035,2.547A3.062,3.062,0,0,1,18.934-6.1a3.428,3.428,0,0,1-1.6,1.18L20.008-.094V0H18.4ZM13.258-5.828h2.3a2.6,2.6,0,0,0,1.777-.578A1.953,1.953,0,0,0,18-7.953a2.057,2.057,0,0,0-.629-1.617,2.666,2.666,0,0,0-1.816-.57h-2.3ZM23.219,0h-1.5V-11.375h1.5Zm3.867-1.227h6.508V0H25.313V-1.125l6.234-9.016H25.414v-1.234h7.93v1.1Zm17-4.094A7.037,7.037,0,0,1,43.523-2.4,4.261,4.261,0,0,1,41.93-.5a4.385,4.385,0,0,1-2.406.656A4.347,4.347,0,0,1,37.141-.5a4.363,4.363,0,0,1-1.613-1.883,6.752,6.752,0,0,1-.59-2.832v-.82a6.953,6.953,0,0,1,.57-2.9,4.347,4.347,0,0,1,1.613-1.926,4.329,4.329,0,0,1,2.387-.668,4.41,4.41,0,0,1,2.41.66,4.253,4.253,0,0,1,1.605,1.914,7.071,7.071,0,0,1,.563,2.918Zm-1.492-.734a5.1,5.1,0,0,0-.812-3.105,2.68,2.68,0,0,0-2.273-1.082A2.651,2.651,0,0,0,37.27-9.16a5,5,0,0,0-.84,3v.836a5.107,5.107,0,0,0,.824,3.082,2.662,2.662,0,0,0,2.27,1.121,2.652,2.652,0,0,0,2.25-1.059,5.079,5.079,0,0,0,.82-3.035ZM55.078,0H53.57L47.844-8.766V0H46.336V-11.375h1.508l5.742,8.8v-8.8h1.492Zm8.945-2.969H59.258L58.188,0H56.641l4.344-11.375H62.3L66.648,0H65.109ZM59.711-4.2h3.867l-1.937-5.32Zm15.211-.039H71.109v-1.18h3.813Zm12.352-.609a6.61,6.61,0,0,1-.867,3.773A3.084,3.084,0,0,1,83.7.156,3.107,3.107,0,0,1,81-1.051a6.274,6.274,0,0,1-.906-3.605v-1.93a6.463,6.463,0,0,1,.867-3.727,3.108,3.108,0,0,1,2.719-1.219,3.136,3.136,0,0,1,2.7,1.176,6.237,6.237,0,0,1,.891,3.629ZM85.828-6.828A5.3,5.3,0,0,0,85.313-9.5a1.775,1.775,0,0,0-1.633-.84,1.751,1.751,0,0,0-1.617.836,5.171,5.171,0,0,0-.523,2.57v2.313A5.381,5.381,0,0,0,82.074-1.9a1.771,1.771,0,0,0,1.621.879,1.747,1.747,0,0,0,1.59-.828,5.186,5.186,0,0,0,.543-2.609ZM89.3-.758a.905.905,0,0,1,.223-.625.848.848,0,0,1,.668-.25.874.874,0,0,1,.676.25.887.887,0,0,1,.23.625.839.839,0,0,1-.23.6A.89.89,0,0,1,90.2.086a.863.863,0,0,1-.668-.242A.855.855,0,0,1,89.3-.758ZM98.875-5a3.536,3.536,0,0,1-1.082.867,2.936,2.936,0,0,1-1.379.328A3.031,3.031,0,0,1,94.7-4.289,3.149,3.149,0,0,1,93.57-5.652a4.648,4.648,0,0,1-.4-1.941,4.735,4.735,0,0,1,.434-2.055,3.185,3.185,0,0,1,1.23-1.4,3.509,3.509,0,0,1,1.859-.484,3.177,3.177,0,0,1,2.66,1.262,5.5,5.5,0,0,1,.973,3.441v.422q0,3.32-1.312,4.848A5.043,5.043,0,0,1,95.055.008h-.281V-1.211h.3a3.974,3.974,0,0,0,2.75-.934A4.011,4.011,0,0,0,98.875-5ZM96.648-5a2.232,2.232,0,0,0,1.34-.445,2.625,2.625,0,0,0,.895-1.1v-.578a3.977,3.977,0,0,0-.617-2.312,1.842,1.842,0,0,0-1.562-.891,1.856,1.856,0,0,0-1.531.73,3.013,3.013,0,0,0-.578,1.926,3.136,3.136,0,0,0,.559,1.918A1.769,1.769,0,0,0,96.648-5ZM102.2-9.187a2.308,2.308,0,0,1,.652-1.687,2.247,2.247,0,0,1,1.676-.664,2.234,2.234,0,0,1,1.684.668,2.388,2.388,0,0,1,.645,1.73v.555A2.278,2.278,0,0,1,106.2-6.9a2.249,2.249,0,0,1-1.66.652,2.3,2.3,0,0,1-1.68-.652,2.326,2.326,0,0,1-.664-1.738Zm1.078.6a1.473,1.473,0,0,0,.344,1,1.161,1.161,0,0,0,.922.395,1.139,1.139,0,0,0,.895-.383,1.521,1.521,0,0,0,.34-1.047v-.57a1.51,1.51,0,0,0-.336-1.008,1.133,1.133,0,0,0-.914-.4,1.133,1.133,0,0,0-.914.4,1.557,1.557,0,0,0-.336,1.039Zm4.461,5.8a2.3,2.3,0,0,1,.652-1.684,2.254,2.254,0,0,1,1.676-.66,2.274,2.274,0,0,1,1.68.656,2.355,2.355,0,0,1,.656,1.742v.555A2.3,2.3,0,0,1,111.746-.5a2.244,2.244,0,0,1-1.668.66,2.3,2.3,0,0,1-1.68-.652,2.326,2.326,0,0,1-.664-1.738Zm1.078.609a1.484,1.484,0,0,0,.344,1.012,1.161,1.161,0,0,0,.922.395,1.13,1.13,0,0,0,.9-.387,1.548,1.548,0,0,0,.336-1.051v-.578a1.48,1.48,0,0,0-.34-1.008,1.146,1.146,0,0,0-.91-.391,1.157,1.157,0,0,0-.9.387,1.5,1.5,0,0,0-.348,1.043Zm-3.945,1.32-.82-.516,5.555-8.891.82.516Z" transform="translate(82 276)"/>
    <path id="Path_78" data-name="Path 78" d="M2.828-1.227H8.219V0H1.32V-11.375H2.828ZM16.359-2.969H11.594L10.523,0H8.977L13.32-11.375h1.313L18.984,0H17.445ZM12.047-4.2h3.867l-1.937-5.32ZM23.406-5.289,22.016-3.844V0h-1.5V-11.375h1.5V-5.75l5.055-5.625h1.813L24.406-6.352,29.234,0h-1.8Zm13.57.031h-4.93v4.031h5.727V0H30.547V-11.375H37.7v1.234H32.047v3.656h4.93Zm4.172,4.031h5.391V0h-6.9V-11.375h1.508ZM54.68-2.969H49.914L48.844,0H47.3l4.344-11.375h1.313L57.3,0H55.766ZM50.367-4.2h3.867L52.3-9.523ZM67.578,0H66.07L60.344-8.766V0H58.836V-11.375h1.508l5.742,8.8v-8.8h1.492Zm2.664,0V-11.375h3.211a5.169,5.169,0,0,1,2.625.656A4.438,4.438,0,0,1,77.84-8.852a6.078,6.078,0,0,1,.629,2.781v.727a6.1,6.1,0,0,1-.621,2.82A4.369,4.369,0,0,1,76.074-.664,5.5,5.5,0,0,1,73.391,0Zm1.5-10.141v8.914H73.32A3.435,3.435,0,0,0,76.02-2.3a4.452,4.452,0,0,0,.965-3.07v-.664a4.522,4.522,0,0,0-.91-3.012,3.24,3.24,0,0,0-2.582-1.09Zm15.734,5.9H83.664v-1.18h3.813ZM97.445,0H95.992V-9.633l-2.914,1.07V-9.875l4.141-1.555h.227Zm4.414-.758a.905.905,0,0,1,.223-.625.848.848,0,0,1,.668-.25.874.874,0,0,1,.676.25.887.887,0,0,1,.23.625.839.839,0,0,1-.23.6.89.89,0,0,1-.676.242.863.863,0,0,1-.668-.242A.855.855,0,0,1,101.859-.758ZM110.641,0h-1.453V-9.633l-2.914,1.07V-9.875l4.141-1.555h.227Zm4.109-9.187a2.308,2.308,0,0,1,.652-1.687,2.247,2.247,0,0,1,1.676-.664,2.234,2.234,0,0,1,1.684.668,2.388,2.388,0,0,1,.645,1.73v.555a2.278,2.278,0,0,1-.652,1.684,2.249,2.249,0,0,1-1.66.652,2.3,2.3,0,0,1-1.68-.652,2.326,2.326,0,0,1-.664-1.738Zm1.078.6a1.473,1.473,0,0,0,.344,1,1.161,1.161,0,0,0,.922.395,1.139,1.139,0,0,0,.895-.383,1.521,1.521,0,0,0,.34-1.047v-.57a1.51,1.51,0,0,0-.336-1.008,1.133,1.133,0,0,0-.914-.4,1.133,1.133,0,0,0-.914.4,1.557,1.557,0,0,0-.336,1.039Zm4.461,5.8a2.3,2.3,0,0,1,.652-1.684,2.254,2.254,0,0,1,1.676-.66,2.274,2.274,0,0,1,1.68.656,2.355,2.355,0,0,1,.656,1.742v.555A2.3,2.3,0,0,1,124.3-.5a2.244,2.244,0,0,1-1.668.66,2.3,2.3,0,0,1-1.68-.652,2.326,2.326,0,0,1-.664-1.738Zm1.078.609a1.484,1.484,0,0,0,.344,1.012,1.161,1.161,0,0,0,.922.395,1.13,1.13,0,0,0,.9-.387,1.548,1.548,0,0,0,.336-1.051v-.578a1.48,1.48,0,0,0-.34-1.008,1.146,1.146,0,0,0-.91-.391,1.157,1.157,0,0,0-.9.387,1.5,1.5,0,0,0-.348,1.043Zm-3.945,1.32-.82-.516,5.555-8.891.82.516Z" transform="translate(82 305)"/>
    <path id="Path_73" data-name="Path 73" d="M9.688-3.609A4.185,4.185,0,0,1,8.355-.824a4.365,4.365,0,0,1-2.98.98,4.008,4.008,0,0,1-3.23-1.445A5.815,5.815,0,0,1,.93-5.156V-6.25A6.481,6.481,0,0,1,1.5-9.039,4.231,4.231,0,0,1,3.1-10.887a4.47,4.47,0,0,1,2.406-.645A4.11,4.11,0,0,1,8.414-10.52a4.235,4.235,0,0,1,1.273,2.8H8.18a3.254,3.254,0,0,0-.848-1.969A2.569,2.569,0,0,0,5.508-10.3,2.685,2.685,0,0,0,3.254-9.234a4.875,4.875,0,0,0-.816,3.023v1.1a5.011,5.011,0,0,0,.773,2.945A2.5,2.5,0,0,0,5.375-1.07a2.887,2.887,0,0,0,1.918-.566A3.143,3.143,0,0,0,8.18-3.609Zm10.8-1.711A7.037,7.037,0,0,1,19.922-2.4,4.261,4.261,0,0,1,18.328-.5a4.385,4.385,0,0,1-2.406.656A4.347,4.347,0,0,1,13.539-.5a4.363,4.363,0,0,1-1.613-1.883,6.752,6.752,0,0,1-.59-2.832v-.82a6.953,6.953,0,0,1,.57-2.9,4.347,4.347,0,0,1,1.613-1.926,4.329,4.329,0,0,1,2.387-.668,4.41,4.41,0,0,1,2.41.66,4.253,4.253,0,0,1,1.605,1.914,7.071,7.071,0,0,1,.563,2.918Zm-1.492-.734A5.1,5.1,0,0,0,18.18-9.16a2.68,2.68,0,0,0-2.273-1.082A2.651,2.651,0,0,0,13.668-9.16a5,5,0,0,0-.84,3v.836a5.107,5.107,0,0,0,.824,3.082,2.662,2.662,0,0,0,2.27,1.121,2.652,2.652,0,0,0,2.25-1.059,5.079,5.079,0,0,0,.82-3.035Zm5.25,4.828h5.391V0h-6.9V-11.375h1.508ZM39.586-5.32A7.037,7.037,0,0,1,39.023-2.4,4.261,4.261,0,0,1,37.43-.5a4.385,4.385,0,0,1-2.406.656A4.347,4.347,0,0,1,32.641-.5a4.363,4.363,0,0,1-1.613-1.883,6.752,6.752,0,0,1-.59-2.832v-.82a6.953,6.953,0,0,1,.57-2.9,4.347,4.347,0,0,1,1.613-1.926,4.329,4.329,0,0,1,2.387-.668,4.41,4.41,0,0,1,2.41.66,4.253,4.253,0,0,1,1.605,1.914,7.071,7.071,0,0,1,.563,2.918Zm-1.492-.734a5.1,5.1,0,0,0-.812-3.105,2.68,2.68,0,0,0-2.273-1.082A2.651,2.651,0,0,0,32.77-9.16a5,5,0,0,0-.84,3v.836a5.107,5.107,0,0,0,.824,3.082,2.662,2.662,0,0,0,2.27,1.121,2.652,2.652,0,0,0,2.25-1.059,5.079,5.079,0,0,0,.82-3.035ZM46.008-4.6H43.336V0H41.828V-11.375h3.766a4.457,4.457,0,0,1,2.957.875,3.148,3.148,0,0,1,1.035,2.547A3.062,3.062,0,0,1,49.012-6.1a3.428,3.428,0,0,1-1.6,1.18L50.086-.094V0H48.477ZM43.336-5.828h2.3a2.6,2.6,0,0,0,1.777-.578,1.953,1.953,0,0,0,.66-1.547,2.057,2.057,0,0,0-.629-1.617,2.666,2.666,0,0,0-1.816-.57h-2.3ZM57.969-2.969H53.2L52.133,0H50.586L54.93-11.375h1.313L60.594,0H59.055ZM53.656-4.2h3.867l-1.937-5.32ZM62.125,0V-11.375h3.211a5.169,5.169,0,0,1,2.625.656,4.438,4.438,0,0,1,1.762,1.867,6.078,6.078,0,0,1,.629,2.781v.727a6.1,6.1,0,0,1-.621,2.82A4.369,4.369,0,0,1,67.957-.664,5.5,5.5,0,0,1,65.273,0Zm1.5-10.141v8.914H65.2A3.435,3.435,0,0,0,67.9-2.3a4.452,4.452,0,0,0,.965-3.07v-.664a4.522,4.522,0,0,0-.91-3.012,3.24,3.24,0,0,0-2.582-1.09ZM81.367-5.32A7.037,7.037,0,0,1,80.8-2.4,4.261,4.261,0,0,1,79.211-.5,4.385,4.385,0,0,1,76.8.156,4.347,4.347,0,0,1,74.422-.5a4.363,4.363,0,0,1-1.613-1.883,6.752,6.752,0,0,1-.59-2.832v-.82a6.953,6.953,0,0,1,.57-2.9A4.347,4.347,0,0,1,74.4-10.863a4.329,4.329,0,0,1,2.387-.668,4.41,4.41,0,0,1,2.41.66A4.253,4.253,0,0,1,80.8-8.957a7.071,7.071,0,0,1,.563,2.918Zm-1.492-.734a5.1,5.1,0,0,0-.812-3.105,2.68,2.68,0,0,0-2.273-1.082A2.651,2.651,0,0,0,74.551-9.16a5,5,0,0,0-.84,3v.836a5.107,5.107,0,0,0,.824,3.082A2.662,2.662,0,0,0,76.8-1.117a2.652,2.652,0,0,0,2.25-1.059,5.079,5.079,0,0,0,.82-3.035ZM83.68.977H82.438l4.75-12.352h1.234Zm8.984-4.562.219,1.5.32-1.352,2.25-7.937h1.266l2.2,7.938.313,1.375.242-1.531,1.766-7.781h1.508L99.984,0H98.617L96.273-8.289l-.18-.867-.18.867L93.484,0H92.117l-2.75-11.375h1.5Zm15.211-2.078,2.969-5.711h1.7l-3.922,7.133V0h-1.5V-4.242L103.2-11.375h1.719Zm14.664.344a7.037,7.037,0,0,1-.562,2.918,4.261,4.261,0,0,1-1.594,1.9,4.385,4.385,0,0,1-2.406.656,4.347,4.347,0,0,1-2.383-.66,4.363,4.363,0,0,1-1.613-1.883,6.752,6.752,0,0,1-.59-2.832v-.82a6.953,6.953,0,0,1,.57-2.9,4.347,4.347,0,0,1,1.613-1.926,4.329,4.329,0,0,1,2.387-.668,4.41,4.41,0,0,1,2.41.66,4.253,4.253,0,0,1,1.605,1.914,7.071,7.071,0,0,1,.563,2.918Zm-1.492-.734a5.1,5.1,0,0,0-.812-3.105,2.68,2.68,0,0,0-2.273-1.082,2.651,2.651,0,0,0-2.238,1.082,5,5,0,0,0-.84,3v.836a5.107,5.107,0,0,0,.824,3.082,2.662,2.662,0,0,0,2.27,1.121,2.652,2.652,0,0,0,2.25-1.059,5.079,5.079,0,0,0,.82-3.035Zm5.68-5.32,3.719,9.281,3.719-9.281h1.945V0h-1.5V-4.43l.141-4.781L131.016,0h-1.148l-3.727-9.187.148,4.758V0h-1.5V-11.375ZM140.367,0h-1.5V-11.375h1.5Zm11.484,0h-1.508l-5.727-8.766V0h-1.508V-11.375h1.508l5.742,8.8v-8.8h1.492Zm11.063-1.492A3.465,3.465,0,0,1,161.3-.254a6.517,6.517,0,0,1-2.41.41A4.674,4.674,0,0,1,156.422-.5a4.346,4.346,0,0,1-1.668-1.855,6.408,6.408,0,0,1-.605-2.789v-.992a5.982,5.982,0,0,1,1.2-3.984,4.179,4.179,0,0,1,3.371-1.414,4.316,4.316,0,0,1,2.867.91,3.965,3.965,0,0,1,1.328,2.582h-1.5a2.478,2.478,0,0,0-2.687-2.258,2.656,2.656,0,0,0-2.285,1.059,5.165,5.165,0,0,0-.785,3.066v.93a4.841,4.841,0,0,0,.875,3.043A2.837,2.837,0,0,0,158.9-1.07a5.217,5.217,0,0,0,1.477-.187,2.282,2.282,0,0,0,1.047-.633V-4.445h-2.633V-5.664h4.125Zm9.242-2.75h-3.812v-1.18h3.813ZM182.125,0h-1.453V-9.633l-2.914,1.07V-9.875L181.9-11.43h.227Zm4.414-.758a.905.905,0,0,1,.223-.625.848.848,0,0,1,.668-.25.874.874,0,0,1,.676.25.887.887,0,0,1,.23.625.839.839,0,0,1-.23.6.89.89,0,0,1-.676.242.863.863,0,0,1-.668-.242A.855.855,0,0,1,186.539-.758ZM197.7-4.852a6.61,6.61,0,0,1-.867,3.773A3.084,3.084,0,0,1,194.125.156a3.107,3.107,0,0,1-2.7-1.207,6.274,6.274,0,0,1-.906-3.605v-1.93a6.463,6.463,0,0,1,.867-3.727,3.108,3.108,0,0,1,2.719-1.219,3.136,3.136,0,0,1,2.7,1.176,6.237,6.237,0,0,1,.891,3.629Zm-1.445-1.977a5.3,5.3,0,0,0-.516-2.676,1.775,1.775,0,0,0-1.633-.84,1.751,1.751,0,0,0-1.617.836,5.171,5.171,0,0,0-.523,2.57v2.313A5.381,5.381,0,0,0,192.5-1.9a1.771,1.771,0,0,0,1.621.879,1.747,1.747,0,0,0,1.59-.828,5.186,5.186,0,0,0,.543-2.609Zm3.172-2.359a2.308,2.308,0,0,1,.652-1.687,2.247,2.247,0,0,1,1.676-.664,2.234,2.234,0,0,1,1.684.668,2.388,2.388,0,0,1,.645,1.73v.555a2.278,2.278,0,0,1-.652,1.684,2.249,2.249,0,0,1-1.66.652,2.3,2.3,0,0,1-1.68-.652,2.326,2.326,0,0,1-.664-1.738Zm1.078.6a1.473,1.473,0,0,0,.344,1,1.161,1.161,0,0,0,.922.395,1.139,1.139,0,0,0,.895-.383,1.521,1.521,0,0,0,.34-1.047v-.57a1.51,1.51,0,0,0-.336-1.008,1.133,1.133,0,0,0-.914-.4,1.133,1.133,0,0,0-.914.4,1.557,1.557,0,0,0-.336,1.039Zm4.461,5.8a2.3,2.3,0,0,1,.652-1.684,2.254,2.254,0,0,1,1.676-.66,2.274,2.274,0,0,1,1.68.656,2.355,2.355,0,0,1,.656,1.742v.555A2.3,2.3,0,0,1,208.98-.5a2.244,2.244,0,0,1-1.668.66,2.3,2.3,0,0,1-1.68-.652,2.326,2.326,0,0,1-.664-1.738Zm1.078.609a1.484,1.484,0,0,0,.344,1.012,1.161,1.161,0,0,0,.922.395,1.13,1.13,0,0,0,.9-.387,1.548,1.548,0,0,0,.336-1.051v-.578a1.48,1.48,0,0,0-.34-1.008,1.146,1.146,0,0,0-.91-.391,1.157,1.157,0,0,0-.9.387,1.5,1.5,0,0,0-.348,1.043ZM202.1-.859l-.82-.516,5.555-8.891.82.516Z" transform="translate(82 334)"/>
    <path id="Path_76" data-name="Path 76" d="M9.719-1.492A3.465,3.465,0,0,1,8.105-.254,6.517,6.517,0,0,1,5.7.156,4.674,4.674,0,0,1,3.227-.5,4.346,4.346,0,0,1,1.559-2.352,6.408,6.408,0,0,1,.953-5.141v-.992a5.982,5.982,0,0,1,1.2-3.984,4.179,4.179,0,0,1,3.371-1.414,4.316,4.316,0,0,1,2.867.91A3.965,3.965,0,0,1,9.719-8.039h-1.5A2.478,2.478,0,0,0,5.531-10.3,2.656,2.656,0,0,0,3.246-9.238a5.165,5.165,0,0,0-.785,3.066v.93A4.841,4.841,0,0,0,3.336-2.2,2.837,2.837,0,0,0,5.7-1.07,5.217,5.217,0,0,0,7.18-1.258a2.282,2.282,0,0,0,1.047-.633V-4.445H5.594V-5.664H9.719ZM16.391-4.6H13.719V0H12.211V-11.375h3.766a4.457,4.457,0,0,1,2.957.875,3.148,3.148,0,0,1,1.035,2.547A3.062,3.062,0,0,1,19.395-6.1a3.428,3.428,0,0,1-1.6,1.18L20.469-.094V0H18.859ZM13.719-5.828h2.3A2.6,2.6,0,0,0,17.8-6.406a1.953,1.953,0,0,0,.66-1.547,2.057,2.057,0,0,0-.629-1.617,2.666,2.666,0,0,0-1.816-.57h-2.3Zm14.781.57H23.57v4.031H29.3V0H22.07V-11.375h7.148v1.234H23.57v3.656H28.5Zm8.945,2.289H32.68L31.609,0H30.063l4.344-11.375h1.313L40.07,0H38.531ZM33.133-4.2H37l-1.937-5.32Zm15.32-5.937H44.8V0H43.3V-10.141H39.656v-1.234h8.8ZM56.57-5.258h-4.93v4.031h5.727V0H50.141V-11.375h7.148v1.234H51.641v3.656h4.93Zm6.836.656H60.734V0H59.227V-11.375h3.766a4.457,4.457,0,0,1,2.957.875,3.148,3.148,0,0,1,1.035,2.547A3.062,3.062,0,0,1,66.41-6.1a3.428,3.428,0,0,1-1.6,1.18L67.484-.094V0H65.875ZM60.734-5.828h2.3a2.6,2.6,0,0,0,1.777-.578,1.953,1.953,0,0,0,.66-1.547,2.057,2.057,0,0,0-.629-1.617,2.666,2.666,0,0,0-1.816-.57h-2.3ZM74.656,0h-1.5V-11.375h1.5ZM86.141,0H84.633L78.906-8.766V0H77.4V-11.375h1.508l5.742,8.8v-8.8h1.492ZM88.8,0V-11.375h3.211a5.169,5.169,0,0,1,2.625.656A4.438,4.438,0,0,1,96.4-8.852a6.078,6.078,0,0,1,.629,2.781v.727a6.1,6.1,0,0,1-.621,2.82A4.369,4.369,0,0,1,94.637-.664,5.5,5.5,0,0,1,91.953,0Zm1.5-10.141v8.914h1.578a3.435,3.435,0,0,0,2.7-1.078,4.452,4.452,0,0,0,.965-3.07v-.664a4.522,4.522,0,0,0-.91-3.012,3.24,3.24,0,0,0-2.582-1.09ZM100.906,0h-1.5V-11.375h1.5Zm9.023-2.969h-4.766L104.094,0h-1.547l4.344-11.375H108.2L112.555,0h-1.539ZM105.617-4.2h3.867l-1.937-5.32ZM122.828,0H121.32l-5.727-8.766V0h-1.508V-11.375h1.508l5.742,8.8v-8.8h1.492Zm8.945-2.969h-4.766L125.938,0h-1.547l4.344-11.375h1.313L134.4,0h-1.539ZM127.461-4.2h3.867l-1.937-5.32Zm15.211-.039h-3.812v-1.18h3.813ZM152.641,0h-1.453V-9.633l-2.914,1.07V-9.875l4.141-1.555h.227Zm4.414-.758a.905.905,0,0,1,.223-.625.848.848,0,0,1,.668-.25.874.874,0,0,1,.676.25.887.887,0,0,1,.23.625.839.839,0,0,1-.23.6.89.89,0,0,1-.676.242.863.863,0,0,1-.668-.242A.855.855,0,0,1,157.055-.758Zm6.133-5.633h1.086a2.387,2.387,0,0,0,1.609-.539,1.8,1.8,0,0,0,.586-1.414,1.764,1.764,0,0,0-1.992-2,2.072,2.072,0,0,0-1.5.535,1.873,1.873,0,0,0-.559,1.418h-1.445a2.9,2.9,0,0,1,.988-2.246,3.6,3.6,0,0,1,2.512-.895A3.558,3.558,0,0,1,167-10.68a3.076,3.076,0,0,1,.914,2.367,2.5,2.5,0,0,1-.48,1.438,2.9,2.9,0,0,1-1.309,1.039,2.8,2.8,0,0,1,1.449.984,2.734,2.734,0,0,1,.512,1.68,3.1,3.1,0,0,1-1,2.43,3.745,3.745,0,0,1-2.6.9,3.844,3.844,0,0,1-2.605-.867,2.877,2.877,0,0,1-1-2.289h1.453a1.859,1.859,0,0,0,.586,1.438,2.229,2.229,0,0,0,1.57.539,2.187,2.187,0,0,0,1.6-.547,2.108,2.108,0,0,0,.555-1.57,1.912,1.912,0,0,0-.609-1.523,2.655,2.655,0,0,0-1.758-.547h-1.086Zm6.758-2.8a2.308,2.308,0,0,1,.652-1.687,2.247,2.247,0,0,1,1.676-.664,2.234,2.234,0,0,1,1.684.668,2.388,2.388,0,0,1,.645,1.73v.555a2.278,2.278,0,0,1-.652,1.684,2.249,2.249,0,0,1-1.66.652,2.3,2.3,0,0,1-1.68-.652,2.326,2.326,0,0,1-.664-1.738Zm1.078.6a1.473,1.473,0,0,0,.344,1,1.161,1.161,0,0,0,.922.395,1.139,1.139,0,0,0,.895-.383,1.521,1.521,0,0,0,.34-1.047v-.57a1.51,1.51,0,0,0-.336-1.008,1.133,1.133,0,0,0-.914-.4,1.133,1.133,0,0,0-.914.4,1.557,1.557,0,0,0-.336,1.039Zm4.461,5.8a2.3,2.3,0,0,1,.652-1.684,2.254,2.254,0,0,1,1.676-.66,2.274,2.274,0,0,1,1.68.656,2.355,2.355,0,0,1,.656,1.742v.555A2.3,2.3,0,0,1,179.5-.5a2.244,2.244,0,0,1-1.668.66,2.3,2.3,0,0,1-1.68-.652,2.326,2.326,0,0,1-.664-1.738Zm1.078.609a1.484,1.484,0,0,0,.344,1.012,1.161,1.161,0,0,0,.922.395,1.13,1.13,0,0,0,.9-.387,1.548,1.548,0,0,0,.336-1.051v-.578a1.48,1.48,0,0,0-.34-1.008,1.146,1.146,0,0,0-.91-.391,1.157,1.157,0,0,0-.9.387,1.5,1.5,0,0,0-.348,1.043Zm-3.945,1.32-.82-.516,5.555-8.891.82.516Z" transform="translate(82 363)"/>
    <path id="Path_84" data-name="Path 84" d="M9.18-10.141H5.523V0H4.031V-10.141H.383v-1.234h8.8ZM15.039-4.6H12.367V0H10.859V-11.375h3.766a4.457,4.457,0,0,1,2.957.875,3.148,3.148,0,0,1,1.035,2.547A3.062,3.062,0,0,1,18.043-6.1a3.428,3.428,0,0,1-1.6,1.18L19.117-.094V0H17.508ZM12.367-5.828h2.3a2.6,2.6,0,0,0,1.777-.578,1.953,1.953,0,0,0,.66-1.547A2.057,2.057,0,0,0,16.48-9.57a2.666,2.666,0,0,0-1.816-.57h-2.3ZM22.328,0h-1.5V-11.375h1.5ZM25.07,0V-11.375h3.719a4.317,4.317,0,0,1,2.785.766,2.759,2.759,0,0,1,.934,2.266,2.31,2.31,0,0,1-.453,1.41,2.938,2.938,0,0,1-1.234.949A2.638,2.638,0,0,1,32.277-5a2.814,2.814,0,0,1,.535,1.723A3.042,3.042,0,0,1,31.82-.875a4.1,4.1,0,0,1-2.8.875Zm1.5-5.32v4.094h2.477A2.385,2.385,0,0,0,30.7-1.77a1.907,1.907,0,0,0,.605-1.5q0-2.055-2.234-2.055Zm0-1.2h2.266a2.378,2.378,0,0,0,1.574-.492A1.649,1.649,0,0,0,31-8.352a1.621,1.621,0,0,0-.547-1.363,2.69,2.69,0,0,0-1.664-.426H26.57Zm17.211,1.2A7.037,7.037,0,0,1,43.219-2.4,4.261,4.261,0,0,1,41.625-.5a4.385,4.385,0,0,1-2.406.656A4.347,4.347,0,0,1,36.836-.5a4.363,4.363,0,0,1-1.613-1.883,6.752,6.752,0,0,1-.59-2.832v-.82a6.953,6.953,0,0,1,.57-2.9,4.347,4.347,0,0,1,1.613-1.926,4.329,4.329,0,0,1,2.387-.668,4.41,4.41,0,0,1,2.41.66,4.253,4.253,0,0,1,1.605,1.914,7.071,7.071,0,0,1,.563,2.918Zm-1.492-.734a5.1,5.1,0,0,0-.812-3.105A2.68,2.68,0,0,0,39.2-10.242,2.651,2.651,0,0,0,36.965-9.16a5,5,0,0,0-.84,3v.836a5.107,5.107,0,0,0,.824,3.082,2.662,2.662,0,0,0,2.27,1.121,2.652,2.652,0,0,0,2.25-1.059,5.079,5.079,0,0,0,.82-3.035ZM50.2-4.6H47.531V0H46.023V-11.375h3.766a4.457,4.457,0,0,1,2.957.875,3.148,3.148,0,0,1,1.035,2.547A3.062,3.062,0,0,1,53.207-6.1a3.428,3.428,0,0,1-1.6,1.18L54.281-.094V0H52.672ZM47.531-5.828h2.3a2.6,2.6,0,0,0,1.777-.578,1.953,1.953,0,0,0,.66-1.547,2.057,2.057,0,0,0-.629-1.617,2.666,2.666,0,0,0-1.816-.57h-2.3Zm17.1.508A7.037,7.037,0,0,1,64.07-2.4,4.261,4.261,0,0,1,62.477-.5,4.385,4.385,0,0,1,60.07.156,4.347,4.347,0,0,1,57.688-.5a4.363,4.363,0,0,1-1.613-1.883,6.752,6.752,0,0,1-.59-2.832v-.82a6.953,6.953,0,0,1,.57-2.9,4.347,4.347,0,0,1,1.613-1.926,4.329,4.329,0,0,1,2.387-.668,4.41,4.41,0,0,1,2.41.66A4.253,4.253,0,0,1,64.07-8.957a7.071,7.071,0,0,1,.563,2.918Zm-1.492-.734a5.1,5.1,0,0,0-.812-3.105,2.68,2.68,0,0,0-2.273-1.082A2.651,2.651,0,0,0,57.816-9.16a5,5,0,0,0-.84,3v.836A5.107,5.107,0,0,0,57.8-2.238a2.662,2.662,0,0,0,2.27,1.121,2.652,2.652,0,0,0,2.25-1.059,5.079,5.079,0,0,0,.82-3.035Z" transform="translate(82 392)"/>
    <path id="Path_80" data-name="Path 80" d="M4.672-5.07A7.053,7.053,0,0,1,1.863-6.434a2.6,2.6,0,0,1-.879-2,2.751,2.751,0,0,1,1.074-2.223,4.269,4.269,0,0,1,2.793-.879,4.66,4.66,0,0,1,2.09.453,3.436,3.436,0,0,1,1.422,1.25,3.2,3.2,0,0,1,.5,1.742H7.359A2.069,2.069,0,0,0,6.7-9.707a2.675,2.675,0,0,0-1.852-.59,2.736,2.736,0,0,0-1.73.488A1.628,1.628,0,0,0,2.5-8.453a1.465,1.465,0,0,0,.59,1.176A5.79,5.79,0,0,0,5.1-6.4a9.3,9.3,0,0,1,2.219.879A3.367,3.367,0,0,1,8.5-4.4a2.861,2.861,0,0,1,.387,1.508A2.658,2.658,0,0,1,7.813-.676,4.6,4.6,0,0,1,4.93.156,5.347,5.347,0,0,1,2.742-.293a3.681,3.681,0,0,1-1.566-1.23A3,3,0,0,1,.625-3.3H2.133a1.959,1.959,0,0,0,.762,1.629,3.207,3.207,0,0,0,2.035.6,2.948,2.948,0,0,0,1.82-.484,1.573,1.573,0,0,0,.633-1.32A1.545,1.545,0,0,0,6.8-4.168,6.755,6.755,0,0,0,4.672-5.07Zm14.891-.25A7.037,7.037,0,0,1,19-2.4,4.261,4.261,0,0,1,17.406-.5,4.385,4.385,0,0,1,15,.156,4.347,4.347,0,0,1,12.617-.5,4.363,4.363,0,0,1,11-2.387a6.752,6.752,0,0,1-.59-2.832v-.82a6.953,6.953,0,0,1,.57-2.9A4.347,4.347,0,0,1,12.6-10.863a4.329,4.329,0,0,1,2.387-.668,4.41,4.41,0,0,1,2.41.66A4.253,4.253,0,0,1,19-8.957a7.071,7.071,0,0,1,.563,2.918ZM18.07-6.055a5.1,5.1,0,0,0-.812-3.105,2.68,2.68,0,0,0-2.273-1.082A2.651,2.651,0,0,0,12.746-9.16a5,5,0,0,0-.84,3v.836a5.107,5.107,0,0,0,.824,3.082A2.662,2.662,0,0,0,15-1.117a2.652,2.652,0,0,0,2.25-1.059,5.079,5.079,0,0,0,.82-3.035Zm11.75-5.32v7.734a3.628,3.628,0,0,1-1.012,2.633A4.077,4.077,0,0,1,26.086.141l-.4.016A4.258,4.258,0,0,1,22.711-.852a3.6,3.6,0,0,1-1.125-2.773v-7.75H23.07v7.7a2.6,2.6,0,0,0,.68,1.918,2.612,2.612,0,0,0,1.938.684,2.63,2.63,0,0,0,1.949-.68,2.6,2.6,0,0,0,.676-1.914v-7.711Zm10.227,1.234H36.391V0H34.9V-10.141H31.25v-1.234h8.8ZM50.477,0H48.969V-5.258H43.234V0h-1.5V-11.375h1.5v4.891h5.734v-4.891h1.508Zm12.9-5.023H58.6V0H57.1V-11.375h7.047v1.234H58.6V-6.25h4.773Zm4.078,3.8h5.391V0h-6.9V-11.375h1.508ZM82.8-5.32A7.037,7.037,0,0,1,82.234-2.4,4.261,4.261,0,0,1,80.641-.5a4.385,4.385,0,0,1-2.406.656A4.347,4.347,0,0,1,75.852-.5a4.363,4.363,0,0,1-1.613-1.883,6.752,6.752,0,0,1-.59-2.832v-.82a6.953,6.953,0,0,1,.57-2.9,4.347,4.347,0,0,1,1.613-1.926,4.329,4.329,0,0,1,2.387-.668,4.41,4.41,0,0,1,2.41.66,4.253,4.253,0,0,1,1.605,1.914A7.071,7.071,0,0,1,82.8-6.039ZM81.3-6.055a5.1,5.1,0,0,0-.812-3.105,2.68,2.68,0,0,0-2.273-1.082A2.651,2.651,0,0,0,75.98-9.16a5,5,0,0,0-.84,3v.836a5.107,5.107,0,0,0,.824,3.082,2.662,2.662,0,0,0,2.27,1.121,2.652,2.652,0,0,0,2.25-1.059,5.079,5.079,0,0,0,.82-3.035ZM89.219-4.6H86.547V0H85.039V-11.375H88.8a4.457,4.457,0,0,1,2.957.875A3.148,3.148,0,0,1,92.8-7.953,3.062,3.062,0,0,1,92.223-6.1a3.428,3.428,0,0,1-1.6,1.18L93.3-.094V0H91.688ZM86.547-5.828h2.3a2.6,2.6,0,0,0,1.777-.578,1.953,1.953,0,0,0,.66-1.547A2.057,2.057,0,0,0,90.66-9.57a2.666,2.666,0,0,0-1.816-.57h-2.3ZM96.508,0h-1.5V-11.375h1.5ZM99.25,0V-11.375h3.211a5.169,5.169,0,0,1,2.625.656,4.438,4.438,0,0,1,1.762,1.867,6.078,6.078,0,0,1,.629,2.781v.727a6.1,6.1,0,0,1-.621,2.82,4.369,4.369,0,0,1-1.773,1.859A5.5,5.5,0,0,1,102.4,0Zm1.5-10.141v8.914h1.578a3.435,3.435,0,0,0,2.7-1.078,4.452,4.452,0,0,0,.965-3.07v-.664a4.522,4.522,0,0,0-.91-3.012,3.24,3.24,0,0,0-2.582-1.09Zm15.273,7.172h-4.766L110.188,0h-1.547l4.344-11.375H114.3L118.648,0h-1.539ZM111.711-4.2h3.867l-1.937-5.32Z" transform="translate(82 421)"/>
    <path id="Path_77" data-name="Path 77" d="M9.688-3.609A4.185,4.185,0,0,1,8.355-.824a4.365,4.365,0,0,1-2.98.98,4.008,4.008,0,0,1-3.23-1.445A5.815,5.815,0,0,1,.93-5.156V-6.25A6.481,6.481,0,0,1,1.5-9.039,4.231,4.231,0,0,1,3.1-10.887a4.47,4.47,0,0,1,2.406-.645A4.11,4.11,0,0,1,8.414-10.52a4.235,4.235,0,0,1,1.273,2.8H8.18a3.254,3.254,0,0,0-.848-1.969A2.569,2.569,0,0,0,5.508-10.3,2.685,2.685,0,0,0,3.254-9.234a4.875,4.875,0,0,0-.816,3.023v1.1a5.011,5.011,0,0,0,.773,2.945A2.5,2.5,0,0,0,5.375-1.07a2.887,2.887,0,0,0,1.918-.566A3.143,3.143,0,0,0,8.18-3.609Zm8.477-1.648h-4.93v4.031h5.727V0H11.734V-11.375h7.148v1.234H13.234v3.656h4.93ZM29.57,0H28.063L22.336-8.766V0H20.828V-11.375h1.508l5.742,8.8v-8.8H29.57ZM40.094-10.141H36.438V0H34.945V-10.141H31.3v-1.234h8.8ZM45.953-4.6H43.281V0H41.773V-11.375h3.766A4.457,4.457,0,0,1,48.5-10.5a3.148,3.148,0,0,1,1.035,2.547A3.062,3.062,0,0,1,48.957-6.1a3.428,3.428,0,0,1-1.6,1.18L50.031-.094V0H48.422ZM43.281-5.828h2.3a2.6,2.6,0,0,0,1.777-.578,1.953,1.953,0,0,0,.66-1.547,2.057,2.057,0,0,0-.629-1.617,2.666,2.666,0,0,0-1.816-.57h-2.3ZM57.914-2.969H53.148L52.078,0H50.531l4.344-11.375h1.313L60.539,0H59ZM53.6-4.2h3.867l-1.937-5.32Zm9.977,2.977h5.391V0h-6.9V-11.375h1.508ZM76.25,0h-1.5V-11.375h1.5ZM80.5-1.227h5.391V0h-6.9V-11.375H80.5Zm8.609,0H94.5V0H87.6V-11.375h1.508ZM97.82,0h-1.5V-11.375h1.5ZM109.3,0H107.8L102.07-8.766V0h-1.508V-11.375h1.508l5.742,8.8v-8.8H109.3Zm11.414-5.32a7.037,7.037,0,0,1-.562,2.918,4.261,4.261,0,0,1-1.594,1.9,4.385,4.385,0,0,1-2.406.656,4.347,4.347,0,0,1-2.383-.66,4.363,4.363,0,0,1-1.613-1.883,6.752,6.752,0,0,1-.59-2.832v-.82a6.953,6.953,0,0,1,.57-2.9,4.347,4.347,0,0,1,1.613-1.926,4.329,4.329,0,0,1,2.387-.668,4.41,4.41,0,0,1,2.41.66,4.253,4.253,0,0,1,1.605,1.914,7.071,7.071,0,0,1,.563,2.918Zm-1.492-.734a5.1,5.1,0,0,0-.812-3.105,2.68,2.68,0,0,0-2.273-1.082A2.651,2.651,0,0,0,113.9-9.16a5,5,0,0,0-.84,3v.836a5.107,5.107,0,0,0,.824,3.082,2.662,2.662,0,0,0,2.27,1.121,2.652,2.652,0,0,0,2.25-1.059,5.079,5.079,0,0,0,.82-3.035ZM124.578,0h-1.5V-11.375h1.5Zm6.094-5.07a7.053,7.053,0,0,1-2.809-1.363,2.6,2.6,0,0,1-.879-2,2.751,2.751,0,0,1,1.074-2.223,4.269,4.269,0,0,1,2.793-.879,4.66,4.66,0,0,1,2.09.453,3.436,3.436,0,0,1,1.422,1.25,3.2,3.2,0,0,1,.5,1.742h-1.508a2.069,2.069,0,0,0-.656-1.621,2.675,2.675,0,0,0-1.852-.59,2.736,2.736,0,0,0-1.73.488,1.628,1.628,0,0,0-.621,1.355,1.464,1.464,0,0,0,.59,1.176A5.79,5.79,0,0,0,131.1-6.4a9.3,9.3,0,0,1,2.219.879A3.367,3.367,0,0,1,134.5-4.4a2.861,2.861,0,0,1,.387,1.508,2.658,2.658,0,0,1-1.078,2.215,4.6,4.6,0,0,1-2.883.832,5.347,5.347,0,0,1-2.187-.449,3.681,3.681,0,0,1-1.566-1.23,3,3,0,0,1-.551-1.773h1.508a1.959,1.959,0,0,0,.762,1.629,3.207,3.207,0,0,0,2.035.6,2.948,2.948,0,0,0,1.82-.484,1.573,1.573,0,0,0,.633-1.32,1.545,1.545,0,0,0-.586-1.293A6.755,6.755,0,0,0,130.672-5.07Z" transform="translate(82 450)"/>
    <path id="Path_83" data-name="Path 83" d="M4.672-5.07A7.053,7.053,0,0,1,1.863-6.434a2.6,2.6,0,0,1-.879-2,2.751,2.751,0,0,1,1.074-2.223,4.269,4.269,0,0,1,2.793-.879,4.66,4.66,0,0,1,2.09.453,3.436,3.436,0,0,1,1.422,1.25,3.2,3.2,0,0,1,.5,1.742H7.359A2.069,2.069,0,0,0,6.7-9.707a2.675,2.675,0,0,0-1.852-.59,2.736,2.736,0,0,0-1.73.488A1.628,1.628,0,0,0,2.5-8.453a1.465,1.465,0,0,0,.59,1.176A5.79,5.79,0,0,0,5.1-6.4a9.3,9.3,0,0,1,2.219.879A3.367,3.367,0,0,1,8.5-4.4a2.861,2.861,0,0,1,.387,1.508A2.658,2.658,0,0,1,7.813-.676,4.6,4.6,0,0,1,4.93.156,5.347,5.347,0,0,1,2.742-.293a3.681,3.681,0,0,1-1.566-1.23A3,3,0,0,1,.625-3.3H2.133a1.959,1.959,0,0,0,.762,1.629,3.207,3.207,0,0,0,2.035.6,2.948,2.948,0,0,0,1.82-.484,1.573,1.573,0,0,0,.633-1.32A1.545,1.545,0,0,0,6.8-4.168,6.755,6.755,0,0,0,4.672-5.07Zm14.148-6.3v7.734a3.628,3.628,0,0,1-1.012,2.633A4.077,4.077,0,0,1,15.086.141l-.4.016A4.258,4.258,0,0,1,11.711-.852a3.6,3.6,0,0,1-1.125-2.773v-7.75H12.07v7.7a2.6,2.6,0,0,0,.68,1.918,2.612,2.612,0,0,0,1.938.684,2.63,2.63,0,0,0,1.949-.68,2.6,2.6,0,0,0,.676-1.914v-7.711ZM29.93,0H28.422L22.7-8.766V0H21.188V-11.375H22.7l5.742,8.8v-8.8H29.93ZM40.961-3.609A4.185,4.185,0,0,1,39.629-.824a4.365,4.365,0,0,1-2.98.98,4.008,4.008,0,0,1-3.23-1.445A5.815,5.815,0,0,1,32.2-5.156V-6.25a6.481,6.481,0,0,1,.566-2.789,4.231,4.231,0,0,1,1.605-1.848,4.47,4.47,0,0,1,2.406-.645,4.11,4.11,0,0,1,2.906,1.012,4.235,4.235,0,0,1,1.273,2.8H39.453a3.254,3.254,0,0,0-.848-1.969,2.569,2.569,0,0,0-1.824-.609,2.685,2.685,0,0,0-2.254,1.063,4.875,4.875,0,0,0-.816,3.023v1.1a5.011,5.011,0,0,0,.773,2.945A2.5,2.5,0,0,0,36.648-1.07a2.887,2.887,0,0,0,1.918-.566,3.143,3.143,0,0,0,.887-1.973Zm10.8-1.711A7.037,7.037,0,0,1,51.2-2.4,4.261,4.261,0,0,1,49.6-.5,4.385,4.385,0,0,1,47.2.156,4.347,4.347,0,0,1,44.813-.5,4.363,4.363,0,0,1,43.2-2.387a6.752,6.752,0,0,1-.59-2.832v-.82a6.953,6.953,0,0,1,.57-2.9,4.347,4.347,0,0,1,1.613-1.926,4.329,4.329,0,0,1,2.387-.668,4.41,4.41,0,0,1,2.41.66A4.253,4.253,0,0,1,51.2-8.957a7.071,7.071,0,0,1,.563,2.918Zm-1.492-.734a5.1,5.1,0,0,0-.812-3.105,2.68,2.68,0,0,0-2.273-1.082A2.651,2.651,0,0,0,44.941-9.16a5,5,0,0,0-.84,3v.836a5.107,5.107,0,0,0,.824,3.082A2.662,2.662,0,0,0,47.2-1.117a2.652,2.652,0,0,0,2.25-1.059,5.079,5.079,0,0,0,.82-3.035Zm9.859,3.086H55.359L54.289,0H52.742l4.344-11.375H58.4L62.75,0H61.211ZM55.813-4.2H59.68l-1.937-5.32Zm11.82-.867a7.053,7.053,0,0,1-2.809-1.363,2.6,2.6,0,0,1-.879-2,2.751,2.751,0,0,1,1.074-2.223,4.269,4.269,0,0,1,2.793-.879,4.66,4.66,0,0,1,2.09.453,3.436,3.436,0,0,1,1.422,1.25,3.2,3.2,0,0,1,.5,1.742H70.32a2.069,2.069,0,0,0-.656-1.621,2.675,2.675,0,0,0-1.852-.59,2.736,2.736,0,0,0-1.73.488,1.628,1.628,0,0,0-.621,1.355,1.465,1.465,0,0,0,.59,1.176,5.79,5.79,0,0,0,2.008.879,9.3,9.3,0,0,1,2.219.879A3.367,3.367,0,0,1,71.465-4.4a2.861,2.861,0,0,1,.387,1.508A2.658,2.658,0,0,1,70.773-.676a4.6,4.6,0,0,1-2.883.832A5.347,5.347,0,0,1,65.7-.293a3.681,3.681,0,0,1-1.566-1.23A3,3,0,0,1,63.586-3.3h1.508a1.959,1.959,0,0,0,.762,1.629,3.207,3.207,0,0,0,2.035.6,2.948,2.948,0,0,0,1.82-.484,1.573,1.573,0,0,0,.633-1.32,1.545,1.545,0,0,0-.586-1.293A6.755,6.755,0,0,0,67.633-5.07Zm14-5.07H77.977V0H76.484V-10.141H72.836v-1.234h8.8Z" transform="translate(82 479)"/>
    <path id="Path_86" data-name="Path 86" d="M2.82-4.453V0H1.32V-11.375h4.2a4.215,4.215,0,0,1,2.926.953A3.231,3.231,0,0,1,9.5-7.9,3.189,3.189,0,0,1,8.465-5.348,4.4,4.4,0,0,1,5.5-4.453Zm0-1.227h2.7a2.7,2.7,0,0,0,1.844-.566A2.069,2.069,0,0,0,8-7.883a2.138,2.138,0,0,0-.641-1.625A2.528,2.528,0,0,0,5.6-10.141H2.82Zm17.344.359A7.037,7.037,0,0,1,19.6-2.4,4.261,4.261,0,0,1,18.008-.5,4.385,4.385,0,0,1,15.6.156,4.347,4.347,0,0,1,13.219-.5a4.363,4.363,0,0,1-1.613-1.883,6.752,6.752,0,0,1-.59-2.832v-.82a6.953,6.953,0,0,1,.57-2.9A4.347,4.347,0,0,1,13.2-10.863a4.329,4.329,0,0,1,2.387-.668,4.41,4.41,0,0,1,2.41.66A4.253,4.253,0,0,1,19.6-8.957a7.071,7.071,0,0,1,.563,2.918Zm-1.492-.734a5.1,5.1,0,0,0-.812-3.105,2.68,2.68,0,0,0-2.273-1.082A2.651,2.651,0,0,0,13.348-9.16a5,5,0,0,0-.84,3v.836a5.107,5.107,0,0,0,.824,3.082A2.662,2.662,0,0,0,15.6-1.117a2.652,2.652,0,0,0,2.25-1.059,5.079,5.079,0,0,0,.82-3.035ZM26.586-4.6H23.914V0H22.406V-11.375h3.766a4.457,4.457,0,0,1,2.957.875,3.148,3.148,0,0,1,1.035,2.547A3.062,3.062,0,0,1,29.59-6.1a3.428,3.428,0,0,1-1.6,1.18L30.664-.094V0H29.055ZM23.914-5.828h2.3A2.6,2.6,0,0,0,28-6.406a1.953,1.953,0,0,0,.66-1.547,2.057,2.057,0,0,0-.629-1.617,2.666,2.666,0,0,0-1.816-.57h-2.3ZM39.5-10.141H35.844V0H34.352V-10.141H30.7v-1.234h8.8Zm3.2,8.914h5.391V0h-6.9V-11.375H42.7ZM56.227-2.969H51.461L50.391,0H48.844l4.344-11.375H54.5L58.852,0H57.313ZM51.914-4.2h3.867l-1.937-5.32ZM69.125,0H67.617L61.891-8.766V0H60.383V-11.375h1.508l5.742,8.8v-8.8h1.492Zm2.664,0V-11.375H75a5.169,5.169,0,0,1,2.625.656,4.438,4.438,0,0,1,1.762,1.867,6.078,6.078,0,0,1,.629,2.781v.727a6.1,6.1,0,0,1-.621,2.82A4.369,4.369,0,0,1,77.621-.664,5.5,5.5,0,0,1,74.938,0Zm1.5-10.141v8.914h1.578a3.435,3.435,0,0,0,2.7-1.078,4.452,4.452,0,0,0,.965-3.07v-.664a4.522,4.522,0,0,0-.91-3.012,3.24,3.24,0,0,0-2.582-1.09Z" transform="translate(82 508)"/>
    <g id="Group_24" data-name="Group 24" transform="translate(-32 46)">
      <path id="Path_6" data-name="Path 6" class="cls-5" d="M104.946,483.135v-8.618H506.94v8.618"/>
      <path id="Path_7" data-name="Path 7" class="cls-5" d="M191.347,474.517v8.618"/>
      <path id="Path_8" data-name="Path 8" class="cls-5" d="M191.347,474.517v8.618" transform="translate(84)"/>
      <path id="Path_9" data-name="Path 9" class="cls-5" d="M191.347,474.517v8.618" transform="translate(170)"/>
      <path id="Path_10" data-name="Path 10" class="cls-5" d="M191.347,474.517v8.618" transform="translate(254)"/>
    </g>
    <path id="Path_87" data-name="Path 87" d="M6.059-3.639a4.958,4.958,0,0,1-.65,2.83A2.313,2.313,0,0,1,3.375.117,2.33,2.33,0,0,1,1.354-.788a4.706,4.706,0,0,1-.68-2.7V-4.939a4.847,4.847,0,0,1,.65-2.795,2.331,2.331,0,0,1,2.039-.914,2.352,2.352,0,0,1,2.027.882,4.678,4.678,0,0,1,.668,2.722ZM4.975-5.121a3.972,3.972,0,0,0-.387-2.007,1.331,1.331,0,0,0-1.225-.63,1.314,1.314,0,0,0-1.213.627A3.878,3.878,0,0,0,1.758-5.2v1.734a4.036,4.036,0,0,0,.4,2.042,1.329,1.329,0,0,0,1.216.659,1.31,1.31,0,0,0,1.192-.621,3.89,3.89,0,0,0,.407-1.957Z" transform="translate(70 540)"/>
    <path id="Path_88" data-name="Path 88" d="M1.207-4.277l.434-4.254H6.012v1H2.561L2.3-5.2a2.753,2.753,0,0,1,1.424-.369A2.354,2.354,0,0,1,5.578-4.8a3.02,3.02,0,0,1,.686,2.083A2.915,2.915,0,0,1,5.552-.642,2.6,2.6,0,0,1,3.563.117,2.7,2.7,0,0,1,1.717-.51,2.5,2.5,0,0,1,.9-2.244H1.928a1.722,1.722,0,0,0,.521,1.1,1.621,1.621,0,0,0,1.113.372,1.463,1.463,0,0,0,1.187-.516A2.156,2.156,0,0,0,5.18-2.707a1.978,1.978,0,0,0-.466-1.374A1.584,1.584,0,0,0,3.475-4.6a1.787,1.787,0,0,0-1.113.311l-.287.234Zm11.59.639a4.958,4.958,0,0,1-.65,2.83,2.313,2.313,0,0,1-2.033.926A2.33,2.33,0,0,1,8.092-.788a4.706,4.706,0,0,1-.68-2.7V-4.939a4.847,4.847,0,0,1,.65-2.795A2.331,2.331,0,0,1,10.1-8.648a2.352,2.352,0,0,1,2.027.882A4.678,4.678,0,0,1,12.8-5.045ZM11.713-5.121a3.972,3.972,0,0,0-.387-2.007,1.331,1.331,0,0,0-1.225-.63,1.314,1.314,0,0,0-1.213.627A3.878,3.878,0,0,0,8.5-5.2v1.734a4.036,4.036,0,0,0,.4,2.042,1.329,1.329,0,0,0,1.216.659,1.31,1.31,0,0,0,1.192-.621,3.89,3.89,0,0,0,.407-1.957Zm7.822,1.482a4.958,4.958,0,0,1-.65,2.83,2.313,2.313,0,0,1-2.033.926A2.33,2.33,0,0,1,14.83-.788a4.706,4.706,0,0,1-.68-2.7V-4.939a4.847,4.847,0,0,1,.65-2.795,2.331,2.331,0,0,1,2.039-.914,2.352,2.352,0,0,1,2.027.882,4.678,4.678,0,0,1,.668,2.722ZM18.451-5.121a3.972,3.972,0,0,0-.387-2.007,1.331,1.331,0,0,0-1.225-.63,1.314,1.314,0,0,0-1.213.627A3.878,3.878,0,0,0,15.234-5.2v1.734a4.036,4.036,0,0,0,.4,2.042,1.329,1.329,0,0,0,1.216.659,1.31,1.31,0,0,0,1.192-.621,3.89,3.89,0,0,0,.407-1.957Z" transform="translate(149 540)"/>
    <path id="Path_89" data-name="Path 89" d="M4.271,0H3.182V-7.225L1-6.422v-.984L4.1-8.572h.17ZM7.582-.568a.679.679,0,0,1,.167-.469.636.636,0,0,1,.5-.187.655.655,0,0,1,.507.188.665.665,0,0,1,.173.469.629.629,0,0,1-.173.451A.667.667,0,0,1,8.25.064a.648.648,0,0,1-.5-.182A.641.641,0,0,1,7.582-.568ZM11.1-4.277l.434-4.254h4.371v1H12.457L12.2-5.2a2.753,2.753,0,0,1,1.424-.369,2.354,2.354,0,0,1,1.852.771,3.02,3.02,0,0,1,.686,2.083,2.915,2.915,0,0,1-.712,2.077,2.6,2.6,0,0,1-1.989.759A2.7,2.7,0,0,1,11.613-.51,2.5,2.5,0,0,1,10.8-2.244h1.025a1.722,1.722,0,0,0,.521,1.1,1.621,1.621,0,0,0,1.113.372,1.463,1.463,0,0,0,1.187-.516,2.156,2.156,0,0,0,.431-1.424,1.978,1.978,0,0,0-.466-1.374A1.584,1.584,0,0,0,13.371-4.6a1.787,1.787,0,0,0-1.113.311l-.287.234Zm8.121,1.342-.68.709V0H17.461V-9h1.084v5.443l.58-.7L21.1-6.34h1.318L19.951-3.691,22.705,0H21.434Z" transform="translate(319 540)"/>
    <path id="Path_90" data-name="Path 90" d="M4.271,0H3.182V-7.225L1-6.422v-.984L4.1-8.572h.17ZM9.328-2.936l-.68.709V0H7.564V-9H8.648v5.443l.58-.7L11.2-6.34h1.318L10.055-3.691,12.809,0H11.537Z" transform="translate(237 540)"/>
    <path id="Path_91" data-name="Path 91" d="M6.3,0H.709V-.779L3.662-4.061a7.016,7.016,0,0,0,.905-1.21,2.019,2.019,0,0,0,.249-.964,1.531,1.531,0,0,0-.4-1.1,1.414,1.414,0,0,0-1.078-.428,1.674,1.674,0,0,0-1.257.46,1.757,1.757,0,0,0-.448,1.28H.545a2.516,2.516,0,0,1,.759-1.9,2.813,2.813,0,0,1,2.03-.727,2.7,2.7,0,0,1,1.881.624,2.129,2.129,0,0,1,.691,1.661,4.88,4.88,0,0,1-1.605,3L2.016-.885H6.3ZM9.328-2.936l-.68.709V0H7.564V-9H8.648v5.443l.58-.7L11.2-6.34h1.318L10.055-3.691,12.809,0H11.537Z" transform="translate(408 540)"/>
    <path id="Path_61" data-name="Path 61" class="cls-6" d="M0,0H10.59V289.623H0Z" transform="translate(480.705 224.494)"/>
    <path id="Path_62" data-name="Path 62" class="cls-7" d="M0,0H10.59V61.419H0Z" transform="translate(480.705 224.494)"/>
    <path id="Path_15" data-name="Path 15" d="M511.022,195.389l5.415-6.994,5.151,6.994Z" transform="translate(-30.293 29.104)"/>
    <path id="Path_16" data-name="Path 16" d="M0,6.994,5.415,0l5.151,6.994Z" transform="translate(491.295 521) rotate(180)"/>
    <g id="Group_28" data-name="Group 28" transform="translate(2 171)">
      <g class="cls-17" transform="matrix(1, 0, 0, 1, 68.67, 10)">
        <g id="Rectangle_15-2" data-name="Rectangle 15" class="cls-8" transform="translate(258.33 110)">
          <rect class="cls-14" width="154" height="74"/>
          <rect class="cls-15" x="0.5" y="0.5" width="153" height="73"/>
        </g>
      </g>
      <text id="ARIZONA_Failures:_1_520_Total:_156_125_First_Mile_Impact:_-0.9_" data-name="ARIZONA
Failures: 1,520
Total: 156,125
First Mile Impact: -0.9%" class="cls-9" transform="translate(334 138)"><tspan x="0" y="0">ARIZONA</tspan><tspan x="0" y="16">Failures: 1,520</tspan><tspan x="0" y="32">Total: 156,125</tspan><tspan x="0" y="48">First Mile Impact: -0.9%</tspan></text>
    </g>
    <g id="Group_29" data-name="Group 29" transform="translate(-447 169)">
      <path id="Path_17" data-name="Path 17" class="cls-10" d="M511.022,202.381l5.415-13.985,5.151,13.985Z" transform="translate(477.128 618.302) rotate(-90)"/>
      <path id="Path_18" data-name="Path 18" class="cls-11" d="M678.508,102s210.108,2.928,214.08,66.837"/>
    </g>
    <g id="Path_64" data-name="Path 64" class="cls-12" transform="translate(428 335)">
      <path class="cls-14" d="M17.5,0A17.5,17.5,0,1,1,0,17.5,17.5,17.5,0,0,1,17.5,0Z"/>
      <path class="cls-16" d="M 17.5 3 C 13.62690925598145 3 9.985639572143555 4.508260726928711 7.246950149536133 7.246950149536133 C 4.508260726928711 9.985639572143555 3 13.62690925598145 3 17.5 C 3 21.37308883666992 4.508260726928711 25.01436042785645 7.246950149536133 27.75304985046387 C 9.985639572143555 30.49174118041992 13.62690925598145 32 17.5 32 C 21.37308883666992 32 25.01436042785645 30.49174118041992 27.75304985046387 27.75304985046387 C 30.49174118041992 25.01436042785645 32 21.37308883666992 32 17.5 C 32 13.62690925598145 30.49174118041992 9.985639572143555 27.75304985046387 7.246950149536133 C 25.01436042785645 4.508260726928711 21.37308883666992 3 17.5 3 M 17.5 0 C 27.16497993469238 0 35 7.835020065307617 35 17.5 C 35 27.16497993469238 27.16497993469238 35 17.5 35 C 7.835020065307617 35 0 27.16497993469238 0 17.5 C 0 7.835020065307617 7.835020065307617 0 17.5 0 Z"/>
    </g>
    <path id="Path_65" data-name="Path 65" d="M5.82-5.088H.693V-7H5.82Zm18.516-1.65a8.724,8.724,0,0,1-.723,3.667A5.464,5.464,0,0,1,21.548-.649,5.681,5.681,0,0,1,18.457.2a5.7,5.7,0,0,1-3.081-.845,5.548,5.548,0,0,1-2.09-2.407,8.451,8.451,0,0,1-.747-3.6v-.8a8.649,8.649,0,0,1,.737-3.672,5.542,5.542,0,0,1,2.08-2.437,5.663,5.663,0,0,1,3.081-.845,5.713,5.713,0,0,1,3.081.835,5.471,5.471,0,0,1,2.075,2.4,8.63,8.63,0,0,1,.742,3.647ZM21.865-7.48a6.216,6.216,0,0,0-.894-3.623,2.923,2.923,0,0,0-2.534-1.26,2.914,2.914,0,0,0-2.5,1.255,6.1,6.1,0,0,0-.923,3.55v.82a6.168,6.168,0,0,0,.913,3.623,2.94,2.94,0,0,0,2.534,1.279,2.906,2.906,0,0,0,2.524-1.25,6.3,6.3,0,0,0,.884-3.652Zm6.9-3.086.068,1.221a3.8,3.8,0,0,1,3.076-1.416q3.3,0,3.359,3.779V0H32.9V-6.846a2.176,2.176,0,0,0-.435-1.489,1.828,1.828,0,0,0-1.421-.483,2.287,2.287,0,0,0-2.139,1.3V0H26.533V-10.566ZM45.01-9.414a3.714,3.714,0,0,1,2.939-1.348q3.379,0,3.428,3.857V0H49V-6.816a2.086,2.086,0,0,0-.474-1.548,1.936,1.936,0,0,0-1.392-.454,2.286,2.286,0,0,0-2.129,1.27V0H42.637V-15H45.01Zm8.32,4.033a6.231,6.231,0,0,1,.615-2.8,4.493,4.493,0,0,1,1.729-1.914,4.87,4.87,0,0,1,2.559-.669A4.615,4.615,0,0,1,61.7-9.385a5.416,5.416,0,0,1,1.44,3.652l.01.557a6.286,6.286,0,0,1-.6,2.793,4.439,4.439,0,0,1-1.719,1.9A4.906,4.906,0,0,1,58.252.2a4.584,4.584,0,0,1-3.579-1.489,5.7,5.7,0,0,1-1.343-3.97Zm2.373.205a4.258,4.258,0,0,0,.674,2.554,2.191,2.191,0,0,0,1.875.923,2.167,2.167,0,0,0,1.87-.937,4.7,4.7,0,0,0,.669-2.744A4.2,4.2,0,0,0,60.1-7.92a2.2,2.2,0,0,0-1.87-.937,2.178,2.178,0,0,0-1.846.923A4.614,4.614,0,0,0,55.7-5.176ZM68.74-3.008l2.236-7.559h2.451L69.766,0H67.705L64.014-10.566h2.461ZM79.561.2A4.91,4.91,0,0,1,75.9-1.226,5.154,5.154,0,0,1,74.5-5.01V-5.3a6.34,6.34,0,0,1,.61-2.827,4.645,4.645,0,0,1,1.714-1.938,4.531,4.531,0,0,1,2.461-.693,4.147,4.147,0,0,1,3.335,1.377,5.822,5.822,0,0,1,1.177,3.9v.957h-6.9a3.173,3.173,0,0,0,.874,2.07A2.624,2.624,0,0,0,79.7-1.7a3.213,3.213,0,0,0,2.656-1.318L83.633-1.8a4.272,4.272,0,0,1-1.694,1.47A5.3,5.3,0,0,1,79.561.2Zm-.283-9.053a2,2,0,0,0-1.577.684,3.543,3.543,0,0,0-.767,1.9h4.521v-.176a2.884,2.884,0,0,0-.635-1.8A1.983,1.983,0,0,0,79.277-8.857ZM91.172-8.4a5.872,5.872,0,0,0-.967-.078,2.177,2.177,0,0,0-2.2,1.25V0H85.635V-10.566H87.9l.059,1.182a2.674,2.674,0,0,1,2.383-1.377,2.222,2.222,0,0,1,.84.137ZM94.1-2.5a1.356,1.356,0,0,1,1.025.376,1.306,1.306,0,0,1,.361.942,1.26,1.26,0,0,1-.361.923A1.376,1.376,0,0,1,94.1.107,1.38,1.38,0,0,1,93.1-.254a1.238,1.238,0,0,1-.371-.928,1.306,1.306,0,0,1,.361-.942A1.342,1.342,0,0,1,94.1-2.5Zm0-8.291a1.356,1.356,0,0,1,1.025.376,1.306,1.306,0,0,1,.361.942,1.26,1.26,0,0,1-.361.923,1.376,1.376,0,0,1-1.025.366A1.38,1.38,0,0,1,93.1-8.545a1.238,1.238,0,0,1-.371-.928,1.306,1.306,0,0,1,.361-.942A1.342,1.342,0,0,1,94.1-10.791Zm14.775,7.92a1.076,1.076,0,0,0-.522-.967,5.557,5.557,0,0,0-1.733-.586,8.911,8.911,0,0,1-2.021-.645,2.7,2.7,0,0,1-1.777-2.49,2.813,2.813,0,0,1,1.152-2.285,4.556,4.556,0,0,1,2.93-.918,4.74,4.74,0,0,1,3.062.938,2.975,2.975,0,0,1,1.167,2.432H108.76a1.462,1.462,0,0,0-.508-1.138,1.946,1.946,0,0,0-1.348-.454,2.1,2.1,0,0,0-1.274.361,1.139,1.139,0,0,0-.493.967.962.962,0,0,0,.459.85,6.312,6.312,0,0,0,1.855.61,8.783,8.783,0,0,1,2.192.732,3.1,3.1,0,0,1,1.182,1.021A2.6,2.6,0,0,1,111.211-3a2.753,2.753,0,0,1-1.182,2.31,5.039,5.039,0,0,1-3.1.884,5.464,5.464,0,0,1-2.314-.469,3.809,3.809,0,0,1-1.582-1.289,3.051,3.051,0,0,1-.566-1.768h2.3a1.672,1.672,0,0,0,.635,1.294,2.467,2.467,0,0,0,1.553.454,2.4,2.4,0,0,0,1.426-.356A1.1,1.1,0,0,0,108.877-2.871ZM115.8,0h-2.373V-15H115.8Zm5.107,0h-2.373V-10.566h2.373Zm-2.52-13.311a1.259,1.259,0,0,1,.347-.908,1.309,1.309,0,0,1,.991-.361,1.326,1.326,0,0,1,1,.361,1.25,1.25,0,0,1,.352.908,1.221,1.221,0,0,1-.352.894,1.336,1.336,0,0,1-1,.356,1.32,1.32,0,0,1-.991-.356A1.23,1.23,0,0,1,118.389-13.311Zm4.688,7.949a6.18,6.18,0,0,1,1.157-3.931,3.714,3.714,0,0,1,3.071-1.47,3.48,3.48,0,0,1,2.842,1.26l.107-1.064h2.139V-.322A4.258,4.258,0,0,1,131.1,2.959a4.928,4.928,0,0,1-3.491,1.2,5.627,5.627,0,0,1-2.271-.483,4.034,4.034,0,0,1-1.685-1.265L124.775.986a3.392,3.392,0,0,0,2.7,1.3,2.621,2.621,0,0,0,1.865-.64,2.451,2.451,0,0,0,.684-1.88V-.947A3.494,3.494,0,0,1,127.285.2a3.705,3.705,0,0,1-3.032-1.475A6.38,6.38,0,0,1,123.076-5.361Zm2.363.205a4.254,4.254,0,0,0,.649,2.5,2.088,2.088,0,0,0,1.8.913,2.284,2.284,0,0,0,2.129-1.23V-7.617a2.251,2.251,0,0,0-2.109-1.2,2.1,2.1,0,0,0-1.821.928A4.763,4.763,0,0,0,125.439-5.156Zm11.729-4.258a3.714,3.714,0,0,1,2.939-1.348q3.379,0,3.428,3.857V0h-2.373V-6.816a2.086,2.086,0,0,0-.474-1.548,1.936,1.936,0,0,0-1.392-.454,2.286,2.286,0,0,0-2.129,1.27V0h-2.373V-15h2.373Zm11.738-3.721v2.568h1.865v1.758h-1.865v5.9a1.3,1.3,0,0,0,.239.874,1.109,1.109,0,0,0,.854.269,3.656,3.656,0,0,0,.83-.1V-.029A5.845,5.845,0,0,1,149.268.2q-2.734,0-2.734-3.018V-8.809h-1.738v-1.758h1.738v-2.568ZM161.9-1.7a2.146,2.146,0,0,0,1.475-.518A1.768,1.768,0,0,0,164-3.5h2.236a3.486,3.486,0,0,1-.615,1.841A4.035,4.035,0,0,1,164.063-.3a4.656,4.656,0,0,1-2.129.5,4.505,4.505,0,0,1-3.516-1.436,5.694,5.694,0,0,1-1.3-3.965v-.244a5.6,5.6,0,0,1,1.289-3.862,4.464,4.464,0,0,1,3.516-1.45A4.341,4.341,0,0,1,165-9.663a3.935,3.935,0,0,1,1.245,2.886H164a2.173,2.173,0,0,0-.62-1.494,2,2,0,0,0-1.479-.586,2.088,2.088,0,0,0-1.777.835,4.261,4.261,0,0,0-.635,2.534v.381a4.331,4.331,0,0,0,.62,2.563A2.086,2.086,0,0,0,161.9-1.7Zm5.684-3.682a6.231,6.231,0,0,1,.615-2.8,4.493,4.493,0,0,1,1.729-1.914,4.87,4.87,0,0,1,2.559-.669,4.615,4.615,0,0,1,3.472,1.377,5.416,5.416,0,0,1,1.44,3.652l.01.557a6.286,6.286,0,0,1-.6,2.793,4.439,4.439,0,0,1-1.719,1.9A4.906,4.906,0,0,1,172.51.2a4.584,4.584,0,0,1-3.579-1.489,5.7,5.7,0,0,1-1.343-3.97Zm2.373.205a4.258,4.258,0,0,0,.674,2.554,2.191,2.191,0,0,0,1.875.923,2.167,2.167,0,0,0,1.87-.937,4.7,4.7,0,0,0,.669-2.744,4.2,4.2,0,0,0-.688-2.539,2.2,2.2,0,0,0-1.87-.937,2.178,2.178,0,0,0-1.846.923A4.614,4.614,0,0,0,169.961-5.176ZM181.943,0H179.57V-15h2.373Zm2.139-5.381a6.231,6.231,0,0,1,.615-2.8,4.493,4.493,0,0,1,1.729-1.914,4.87,4.87,0,0,1,2.559-.669,4.615,4.615,0,0,1,3.472,1.377,5.416,5.416,0,0,1,1.44,3.652l.01.557a6.286,6.286,0,0,1-.6,2.793,4.439,4.439,0,0,1-1.719,1.9A4.906,4.906,0,0,1,189,.2a4.584,4.584,0,0,1-3.579-1.489,5.7,5.7,0,0,1-1.343-3.97Zm2.373.205a4.258,4.258,0,0,0,.674,2.554A2.191,2.191,0,0,0,189-1.7a2.167,2.167,0,0,0,1.87-.937,4.7,4.7,0,0,0,.669-2.744,4.2,4.2,0,0,0-.688-2.539,2.2,2.2,0,0,0-1.87-.937,2.178,2.178,0,0,0-1.846.923A4.614,4.614,0,0,0,186.455-5.176ZM201.445-8.4a5.872,5.872,0,0,0-.967-.078,2.177,2.177,0,0,0-2.2,1.25V0h-2.373V-10.566h2.266l.059,1.182a2.674,2.674,0,0,1,2.383-1.377,2.222,2.222,0,0,1,.84.137Zm8.818-1.016a3.714,3.714,0,0,1,2.939-1.348q3.379,0,3.428,3.857V0h-2.373V-6.816a2.086,2.086,0,0,0-.474-1.548,1.936,1.936,0,0,0-1.392-.454,2.286,2.286,0,0,0-2.129,1.27V0h-2.373V-15h2.373ZM221.553,0H219.18V-10.566h2.373Zm-2.52-13.311a1.259,1.259,0,0,1,.347-.908,1.309,1.309,0,0,1,.991-.361,1.326,1.326,0,0,1,1,.361,1.25,1.25,0,0,1,.352.908,1.221,1.221,0,0,1-.352.894,1.336,1.336,0,0,1-1,.356,1.32,1.32,0,0,1-.991-.356A1.23,1.23,0,0,1,219.033-13.311Zm4.688,7.949a6.18,6.18,0,0,1,1.157-3.931,3.714,3.714,0,0,1,3.071-1.47,3.48,3.48,0,0,1,2.842,1.26l.107-1.064h2.139V-.322a4.258,4.258,0,0,1-1.294,3.281,4.928,4.928,0,0,1-3.491,1.2,5.627,5.627,0,0,1-2.271-.483A4.034,4.034,0,0,1,224.3,2.412L225.42.986a3.392,3.392,0,0,0,2.7,1.3,2.621,2.621,0,0,0,1.865-.64,2.451,2.451,0,0,0,.684-1.88V-.947A3.494,3.494,0,0,1,227.93.2,3.705,3.705,0,0,1,224.9-1.279,6.38,6.38,0,0,1,223.721-5.361Zm2.363.205a4.254,4.254,0,0,0,.649,2.5,2.088,2.088,0,0,0,1.8.913,2.284,2.284,0,0,0,2.129-1.23V-7.617a2.251,2.251,0,0,0-2.109-1.2,2.1,2.1,0,0,0-1.821.928A4.763,4.763,0,0,0,226.084-5.156Zm11.729-4.258a3.714,3.714,0,0,1,2.939-1.348q3.379,0,3.428,3.857V0h-2.373V-6.816a2.086,2.086,0,0,0-.474-1.548,1.936,1.936,0,0,0-1.392-.454,2.286,2.286,0,0,0-2.129,1.27V0h-2.373V-15h2.373ZM249.1,0h-2.373V-15H249.1Zm5.107,0h-2.373V-10.566h2.373Zm-2.52-13.311a1.259,1.259,0,0,1,.347-.908,1.309,1.309,0,0,1,.991-.361,1.326,1.326,0,0,1,1,.361,1.25,1.25,0,0,1,.352.908,1.221,1.221,0,0,1-.352.894,1.336,1.336,0,0,1-1,.356,1.32,1.32,0,0,1-.991-.356A1.23,1.23,0,0,1,251.689-13.311Zm4.688,7.949a6.18,6.18,0,0,1,1.157-3.931,3.714,3.714,0,0,1,3.071-1.47,3.48,3.48,0,0,1,2.842,1.26l.107-1.064h2.139V-.322A4.258,4.258,0,0,1,264.4,2.959a4.928,4.928,0,0,1-3.491,1.2,5.627,5.627,0,0,1-2.271-.483,4.034,4.034,0,0,1-1.685-1.265L258.076.986a3.392,3.392,0,0,0,2.7,1.3,2.621,2.621,0,0,0,1.865-.64,2.451,2.451,0,0,0,.684-1.88V-.947A3.494,3.494,0,0,1,260.586.2a3.705,3.705,0,0,1-3.032-1.475A6.38,6.38,0,0,1,256.377-5.361Zm2.363.205a4.254,4.254,0,0,0,.649,2.5,2.088,2.088,0,0,0,1.8.913,2.284,2.284,0,0,0,2.129-1.23V-7.617a2.251,2.251,0,0,0-2.109-1.2,2.1,2.1,0,0,0-1.821.928A4.763,4.763,0,0,0,258.74-5.156Zm11.729-4.258a3.714,3.714,0,0,1,2.939-1.348q3.379,0,3.428,3.857V0h-2.373V-6.816a2.086,2.086,0,0,0-.474-1.548,1.936,1.936,0,0,0-1.392-.454,2.286,2.286,0,0,0-2.129,1.27V0H268.1V-15h2.373Zm11.738-3.721v2.568h1.865v1.758h-1.865v5.9a1.3,1.3,0,0,0,.239.874,1.109,1.109,0,0,0,.854.269,3.656,3.656,0,0,0,.83-.1V-.029A5.845,5.845,0,0,1,282.568.2q-2.734,0-2.734-3.018V-8.809H278.1v-1.758h1.738v-2.568ZM286.221,3.2l-1.279-.762a6.9,6.9,0,0,0,.776-1.548,4.618,4.618,0,0,0,.22-1.343V-2.295h2.139l-.01,1.709a4.763,4.763,0,0,1-.522,2.075A5.155,5.155,0,0,1,286.221,3.2Zm12.012-16.338v2.568H300.1v1.758h-1.865v5.9a1.3,1.3,0,0,0,.239.874,1.109,1.109,0,0,0,.854.269,3.656,3.656,0,0,0,.83-.1V-.029A5.845,5.845,0,0,1,298.594.2q-2.734,0-2.734-3.018V-8.809h-1.738v-1.758h1.738v-2.568Zm2.939,7.754a6.231,6.231,0,0,1,.615-2.8,4.493,4.493,0,0,1,1.729-1.914,4.87,4.87,0,0,1,2.559-.669,4.615,4.615,0,0,1,3.472,1.377,5.416,5.416,0,0,1,1.44,3.652l.01.557a6.286,6.286,0,0,1-.6,2.793,4.439,4.439,0,0,1-1.719,1.9A4.906,4.906,0,0,1,306.094.2a4.584,4.584,0,0,1-3.579-1.489,5.7,5.7,0,0,1-1.343-3.97Zm2.373.205a4.258,4.258,0,0,0,.674,2.554,2.191,2.191,0,0,0,1.875.923,2.167,2.167,0,0,0,1.87-.937,4.7,4.7,0,0,0,.669-2.744,4.2,4.2,0,0,0-.688-2.539,2.2,2.2,0,0,0-1.87-.937,2.178,2.178,0,0,0-1.846.923A4.614,4.614,0,0,0,303.545-5.176Zm9.014-.205a6.231,6.231,0,0,1,.615-2.8,4.493,4.493,0,0,1,1.729-1.914,4.87,4.87,0,0,1,2.559-.669,4.615,4.615,0,0,1,3.472,1.377,5.416,5.416,0,0,1,1.44,3.652l.01.557a6.286,6.286,0,0,1-.6,2.793,4.439,4.439,0,0,1-1.719,1.9A4.906,4.906,0,0,1,317.48.2,4.584,4.584,0,0,1,313.9-1.294a5.7,5.7,0,0,1-1.343-3.97Zm2.373.205a4.258,4.258,0,0,0,.674,2.554,2.191,2.191,0,0,0,1.875.923,2.167,2.167,0,0,0,1.87-.937,4.7,4.7,0,0,0,.669-2.744,4.2,4.2,0,0,0-.688-2.539,2.2,2.2,0,0,0-1.87-.937,2.178,2.178,0,0,0-1.846.923A4.614,4.614,0,0,0,314.932-5.176ZM326.914,0h-2.373V-15h2.373Zm5.557-13.135v2.568h1.865v1.758h-1.865v5.9a1.3,1.3,0,0,0,.239.874,1.109,1.109,0,0,0,.854.269,3.656,3.656,0,0,0,.83-.1V-.029A5.845,5.845,0,0,1,332.832.2Q330.1.2,330.1-2.822V-8.809h-1.738v-1.758H330.1v-2.568ZM338.672,0H336.3V-10.566h2.373Zm-2.52-13.311a1.259,1.259,0,0,1,.347-.908,1.309,1.309,0,0,1,.991-.361,1.326,1.326,0,0,1,1,.361,1.25,1.25,0,0,1,.352.908,1.221,1.221,0,0,1-.352.894,1.336,1.336,0,0,1-1,.356,1.32,1.32,0,0,1-.991-.356A1.23,1.23,0,0,1,336.152-13.311Zm14.355,8.135a6.291,6.291,0,0,1-1.113,3.911A3.565,3.565,0,0,1,346.406.2a3.589,3.589,0,0,1-2.783-1.143v5.01H341.25V-10.566h2.188l.1,1.074a3.486,3.486,0,0,1,2.842-1.27,3.6,3.6,0,0,1,3.032,1.44,6.459,6.459,0,0,1,1.1,4Zm-2.363-.205a4.407,4.407,0,0,0-.63-2.51,2.048,2.048,0,0,0-1.8-.928,2.184,2.184,0,0,0-2.09,1.2V-2.93a2.2,2.2,0,0,0,2.109,1.23,2.045,2.045,0,0,0,1.772-.913A4.851,4.851,0,0,0,348.145-5.381Z" transform="translate(72 196)"/>
    <path id="Path_66" data-name="Path 66" class="cls-13" d="M0,0H170V102H0Z" transform="translate(305 373)"/>
    <path id="Path_68" data-name="Path 68" d="M11.338-3.164,13.307-12.8h2.206L12.56,0H10.433L8-9.343,5.511,0H3.375L.422-12.8H2.628L4.614-3.182,7.058-12.8H8.921Zm7.7-5.309a3.343,3.343,0,0,1,2.646-1.213q3.041,0,3.085,3.472V0H22.632V-6.135a1.878,1.878,0,0,0-.426-1.393,1.743,1.743,0,0,0-1.252-.409,2.057,2.057,0,0,0-1.916,1.143V0H16.9V-13.5h2.136ZM31.113.176A4.419,4.419,0,0,1,27.822-1.1a4.639,4.639,0,0,1-1.261-3.406v-.264a5.706,5.706,0,0,1,.549-2.544,4.181,4.181,0,0,1,1.542-1.745,4.078,4.078,0,0,1,2.215-.624,3.733,3.733,0,0,1,3,1.239,5.24,5.24,0,0,1,1.059,3.507v.861H28.714A2.856,2.856,0,0,0,29.5-2.215a2.362,2.362,0,0,0,1.736.686,2.892,2.892,0,0,0,2.391-1.187l1.151,1.1A3.845,3.845,0,0,1,33.253-.294,4.774,4.774,0,0,1,31.113.176Zm-.255-8.147a1.8,1.8,0,0,0-1.419.615,3.189,3.189,0,0,0-.69,1.714h4.069V-5.8a2.6,2.6,0,0,0-.571-1.622A1.785,1.785,0,0,0,30.858-7.972ZM38.566-9.51l.062,1.1A3.419,3.419,0,0,1,41.4-9.686q2.971,0,3.023,3.4V0H42.284V-6.161a1.958,1.958,0,0,0-.391-1.34,1.645,1.645,0,0,0-1.279-.435,2.058,2.058,0,0,0-1.925,1.169V0H36.554V-9.51ZM59.405-4.658a5.662,5.662,0,0,1-1,3.52A3.209,3.209,0,0,1,55.714.176a3.23,3.23,0,0,1-2.5-1.028V3.656H51.073V-9.51h1.969l.088.967a3.137,3.137,0,0,1,2.558-1.143,3.242,3.242,0,0,1,2.729,1.3,5.813,5.813,0,0,1,.989,3.6Zm-2.127-.185A3.966,3.966,0,0,0,56.711-7.1a1.843,1.843,0,0,0-1.622-.835,1.965,1.965,0,0,0-1.881,1.081v4.219a1.983,1.983,0,0,0,1.9,1.107,1.841,1.841,0,0,0,1.6-.822A4.366,4.366,0,0,0,57.278-4.843Zm3.533,0a5.607,5.607,0,0,1,.554-2.518,4.044,4.044,0,0,1,1.556-1.723,4.383,4.383,0,0,1,2.3-.6,4.154,4.154,0,0,1,3.125,1.239,4.874,4.874,0,0,1,1.3,3.287l.009.5a5.658,5.658,0,0,1-.541,2.514A4,4,0,0,1,67.566-.431a4.415,4.415,0,0,1-2.325.606,4.125,4.125,0,0,1-3.221-1.34,5.133,5.133,0,0,1-1.208-3.573Zm2.136.185a3.832,3.832,0,0,0,.606,2.3,1.971,1.971,0,0,0,1.688.831,1.95,1.95,0,0,0,1.683-.844,4.232,4.232,0,0,0,.6-2.47,3.782,3.782,0,0,0-.62-2.285,1.979,1.979,0,0,0-1.683-.844,1.96,1.96,0,0,0-1.661.831A4.152,4.152,0,0,0,62.947-4.658ZM76.79-2.584a.968.968,0,0,0-.47-.87,5,5,0,0,0-1.56-.527,8.02,8.02,0,0,1-1.819-.58,2.428,2.428,0,0,1-1.6-2.241,2.531,2.531,0,0,1,1.037-2.057,4.1,4.1,0,0,1,2.637-.826,4.266,4.266,0,0,1,2.755.844,2.677,2.677,0,0,1,1.05,2.188H76.685a1.316,1.316,0,0,0-.457-1.024,1.752,1.752,0,0,0-1.213-.409,1.893,1.893,0,0,0-1.147.325,1.025,1.025,0,0,0-.444.87.866.866,0,0,0,.413.765,5.68,5.68,0,0,0,1.67.549,7.9,7.9,0,0,1,1.973.659A2.794,2.794,0,0,1,78.543-4a2.342,2.342,0,0,1,.347,1.3A2.478,2.478,0,0,1,77.827-.62a4.535,4.535,0,0,1-2.786.8,4.917,4.917,0,0,1-2.083-.422,3.428,3.428,0,0,1-1.424-1.16A2.746,2.746,0,0,1,71.024-3H73.1a1.5,1.5,0,0,0,.571,1.165,2.22,2.22,0,0,0,1.4.409,2.16,2.16,0,0,0,1.283-.321A.993.993,0,0,0,76.79-2.584Zm9.29,0a.968.968,0,0,0-.47-.87,5,5,0,0,0-1.56-.527,8.02,8.02,0,0,1-1.819-.58,2.428,2.428,0,0,1-1.6-2.241,2.531,2.531,0,0,1,1.037-2.057A4.1,4.1,0,0,1,84.3-9.686a4.266,4.266,0,0,1,2.755.844,2.677,2.677,0,0,1,1.05,2.188H85.975a1.316,1.316,0,0,0-.457-1.024A1.752,1.752,0,0,0,84.3-8.086a1.893,1.893,0,0,0-1.147.325,1.025,1.025,0,0,0-.444.87.866.866,0,0,0,.413.765,5.68,5.68,0,0,0,1.67.549,7.9,7.9,0,0,1,1.973.659A2.794,2.794,0,0,1,87.833-4a2.342,2.342,0,0,1,.347,1.3A2.478,2.478,0,0,1,87.117-.62a4.535,4.535,0,0,1-2.786.8,4.917,4.917,0,0,1-2.083-.422,3.428,3.428,0,0,1-1.424-1.16A2.746,2.746,0,0,1,80.314-3h2.074a1.5,1.5,0,0,0,.571,1.165,2.22,2.22,0,0,0,1.4.409,2.16,2.16,0,0,0,1.283-.321A.993.993,0,0,0,86.08-2.584ZM92.312,0H90.176V-9.51h2.136ZM90.044-11.979a1.133,1.133,0,0,1,.312-.817,1.179,1.179,0,0,1,.892-.325,1.193,1.193,0,0,1,.9.325,1.125,1.125,0,0,1,.316.817,1.1,1.1,0,0,1-.316.8,1.2,1.2,0,0,1-.9.321,1.188,1.188,0,0,1-.892-.321A1.107,1.107,0,0,1,90.044-11.979Zm12.938,7.321a5.712,5.712,0,0,1-.989,3.524,3.221,3.221,0,0,1-2.72,1.31,3.1,3.1,0,0,1-2.6-1.2L96.565,0H94.632V-13.5h2.136v4.9a3.091,3.091,0,0,1,2.487-1.09,3.258,3.258,0,0,1,2.733,1.292,5.807,5.807,0,0,1,.993,3.612Zm-2.136-.185a4.037,4.037,0,0,0-.545-2.32,1.815,1.815,0,0,0-1.582-.773,1.983,1.983,0,0,0-1.951,1.213V-2.8a2,2,0,0,0,1.969,1.239,1.8,1.8,0,0,0,1.547-.747,3.912,3.912,0,0,0,.563-2.259ZM107.042,0h-2.136V-13.5h2.136Zm6.513.176A4.419,4.419,0,0,1,110.263-1.1,4.639,4.639,0,0,1,109-4.509v-.264a5.706,5.706,0,0,1,.549-2.544,4.181,4.181,0,0,1,1.542-1.745,4.078,4.078,0,0,1,2.215-.624,3.733,3.733,0,0,1,3,1.239,5.24,5.24,0,0,1,1.059,3.507v.861h-6.214a2.856,2.856,0,0,0,.787,1.863,2.362,2.362,0,0,0,1.736.686,2.892,2.892,0,0,0,2.391-1.187l1.151,1.1a3.845,3.845,0,0,1-1.525,1.323A4.774,4.774,0,0,1,113.555.176ZM113.3-7.972a1.8,1.8,0,0,0-1.419.615,3.189,3.189,0,0,0-.69,1.714h4.069V-5.8a2.6,2.6,0,0,0-.571-1.622A1.785,1.785,0,0,0,113.3-7.972ZM3.366,24H1.23V14.49H3.366ZM1.1,12.021a1.133,1.133,0,0,1,.312-.817,1.179,1.179,0,0,1,.892-.325,1.193,1.193,0,0,1,.9.325,1.125,1.125,0,0,1,.316.817,1.1,1.1,0,0,1-.316.8,1.2,1.2,0,0,1-.9.321,1.188,1.188,0,0,1-.892-.321A1.107,1.107,0,0,1,1.1,12.021Zm6.574,2.47.062,1.1A3.419,3.419,0,0,1,10.5,14.314q2.971,0,3.023,3.4V24H11.391V17.839A1.958,1.958,0,0,0,11,16.5a1.645,1.645,0,0,0-1.279-.435A2.058,2.058,0,0,0,7.8,17.232V24H5.66V14.49Zm11.936,7.98A1.931,1.931,0,0,0,20.936,22a1.591,1.591,0,0,0,.563-1.151h2.013a3.137,3.137,0,0,1-.554,1.657,3.632,3.632,0,0,1-1.406,1.217,4.191,4.191,0,0,1-1.916.448,4.055,4.055,0,0,1-3.164-1.292A5.124,5.124,0,0,1,15.3,19.315V19.1a5.039,5.039,0,0,1,1.16-3.476,4.018,4.018,0,0,1,3.164-1.305,3.907,3.907,0,0,1,2.764.989,3.542,3.542,0,0,1,1.121,2.6H21.5a1.956,1.956,0,0,0-.558-1.345,1.8,1.8,0,0,0-1.332-.527,1.879,1.879,0,0,0-1.6.751,3.834,3.834,0,0,0-.571,2.281V19.4A3.9,3.9,0,0,0,18,21.71,1.878,1.878,0,0,0,19.608,22.471ZM27.4,24H25.26V10.5H27.4Zm8.086-.932a3.312,3.312,0,0,1-2.672,1.107,2.952,2.952,0,0,1-2.342-.905,3.851,3.851,0,0,1-.8-2.619V14.49h2.136v6.135q0,1.811,1.5,1.811a2.111,2.111,0,0,0,2.1-1.116V14.49h2.136V24H35.534Zm3.841-3.894a5.654,5.654,0,0,1,1.02-3.529,3.267,3.267,0,0,1,2.733-1.332,3.1,3.1,0,0,1,2.443,1.055V10.5h2.136V24H45.721l-.105-.984a3.148,3.148,0,0,1-2.558,1.16,3.248,3.248,0,0,1-2.7-1.345A5.861,5.861,0,0,1,39.322,19.175Zm2.136.185a3.958,3.958,0,0,0,.558,2.263,1.811,1.811,0,0,0,1.586.813,2.017,2.017,0,0,0,1.916-1.169V17.206a1.986,1.986,0,0,0-1.9-1.143,1.824,1.824,0,0,0-1.6.822A4.408,4.408,0,0,0,41.458,19.359ZM54.07,24.176A4.419,4.419,0,0,1,50.779,22.9a4.639,4.639,0,0,1-1.261-3.406v-.264a5.706,5.706,0,0,1,.549-2.544,4.181,4.181,0,0,1,1.542-1.745,4.078,4.078,0,0,1,2.215-.624,3.733,3.733,0,0,1,3,1.239,5.24,5.24,0,0,1,1.059,3.507v.861H51.671a2.856,2.856,0,0,0,.787,1.863,2.362,2.362,0,0,0,1.736.686,2.892,2.892,0,0,0,2.391-1.187l1.151,1.1a3.845,3.845,0,0,1-1.525,1.323A4.774,4.774,0,0,1,54.07,24.176Zm-.255-8.147a1.8,1.8,0,0,0-1.419.615,3.189,3.189,0,0,0-.69,1.714h4.069V18.2a2.6,2.6,0,0,0-.571-1.622A1.785,1.785,0,0,0,53.815,16.028Zm9.809,3.146a5.654,5.654,0,0,1,1.02-3.529,3.267,3.267,0,0,1,2.733-1.332,3.1,3.1,0,0,1,2.443,1.055V10.5h2.136V24H70.022l-.105-.984a3.148,3.148,0,0,1-2.558,1.16,3.248,3.248,0,0,1-2.7-1.345A5.861,5.861,0,0,1,63.624,19.175Zm2.136.185a3.958,3.958,0,0,0,.558,2.263,1.811,1.811,0,0,0,1.586.813,2.017,2.017,0,0,0,1.916-1.169V17.206a1.986,1.986,0,0,0-1.9-1.143,1.824,1.824,0,0,0-1.6.822A4.408,4.408,0,0,0,65.76,19.359ZM79.866,24a3.3,3.3,0,0,1-.246-.888,3.593,3.593,0,0,1-4.834.246,2.615,2.615,0,0,1-.905-2.021A2.7,2.7,0,0,1,75.01,19a5.473,5.473,0,0,1,3.23-.813h1.31v-.624a1.666,1.666,0,0,0-.413-1.182,1.638,1.638,0,0,0-1.257-.444,1.881,1.881,0,0,0-1.2.365,1.129,1.129,0,0,0-.466.927H74.083a2.37,2.37,0,0,1,.519-1.463A3.455,3.455,0,0,1,76.012,14.7,4.955,4.955,0,0,1,78,14.314a3.99,3.99,0,0,1,2.663.839,2.993,2.993,0,0,1,1.02,2.36V21.8a4.861,4.861,0,0,0,.36,2.048V24ZM77.52,22.462a2.429,2.429,0,0,0,1.191-.308,2.055,2.055,0,0,0,.839-.826V19.535H78.4a3.148,3.148,0,0,0-1.784.413,1.338,1.338,0,0,0-.6,1.169,1.248,1.248,0,0,0,.409.98A1.583,1.583,0,0,0,77.52,22.462ZM86.6,12.179V14.49h1.679v1.582H86.6v5.309a1.169,1.169,0,0,0,.215.787,1,1,0,0,0,.769.242,3.29,3.29,0,0,0,.747-.088v1.652a5.26,5.26,0,0,1-1.406.2q-2.461,0-2.461-2.716V16.072H82.9V14.49h1.564V12.179ZM95.59,24a3.3,3.3,0,0,1-.246-.888,3.593,3.593,0,0,1-4.834.246,2.615,2.615,0,0,1-.905-2.021A2.7,2.7,0,0,1,90.734,19a5.473,5.473,0,0,1,3.23-.813h1.31v-.624a1.666,1.666,0,0,0-.413-1.182A1.638,1.638,0,0,0,93.6,15.94a1.881,1.881,0,0,0-1.2.365,1.129,1.129,0,0,0-.466.927H89.807a2.37,2.37,0,0,1,.519-1.463A3.455,3.455,0,0,1,91.736,14.7a4.955,4.955,0,0,1,1.991-.387,3.99,3.99,0,0,1,2.663.839,2.993,2.993,0,0,1,1.02,2.36V21.8a4.861,4.861,0,0,0,.36,2.048V24Zm-2.347-1.538a2.429,2.429,0,0,0,1.191-.308,2.055,2.055,0,0,0,.839-.826V19.535H94.122a3.148,3.148,0,0,0-1.784.413,1.338,1.338,0,0,0-.6,1.169,1.248,1.248,0,0,0,.409.98A1.583,1.583,0,0,0,93.243,22.462ZM9.448,45.056,10.96,38.49h2.083L10.45,48H8.692L6.653,41.47l-2,6.53H2.892L.29,38.49H2.373l1.538,6.5,1.951-6.5H7.471ZM16.743,48H14.607V38.49h2.136ZM14.476,36.021a1.133,1.133,0,0,1,.312-.817,1.179,1.179,0,0,1,.892-.325,1.193,1.193,0,0,1,.9.325,1.125,1.125,0,0,1,.316.817,1.1,1.1,0,0,1-.316.8,1.2,1.2,0,0,1-.9.321,1.188,1.188,0,0,1-.892-.321A1.107,1.107,0,0,1,14.476,36.021Zm7.269.158V38.49h1.679v1.582H21.744v5.309a1.169,1.169,0,0,0,.215.787,1,1,0,0,0,.769.242,3.29,3.29,0,0,0,.747-.088v1.652a5.26,5.26,0,0,1-1.406.2q-2.461,0-2.461-2.716V40.072H18.044V38.49h1.564V36.179Zm5.414,3.349A3.343,3.343,0,0,1,29.8,38.314q3.041,0,3.085,3.472V48H30.753V41.865a1.878,1.878,0,0,0-.426-1.393,1.743,1.743,0,0,0-1.252-.409,2.057,2.057,0,0,0-1.916,1.143V48H25.022V34.5h2.136Zm15.047-3.349V38.49h1.679v1.582H42.205v5.309a1.169,1.169,0,0,0,.215.787,1,1,0,0,0,.769.242,3.29,3.29,0,0,0,.747-.088v1.652a5.26,5.26,0,0,1-1.406.2q-2.461,0-2.461-2.716V40.072H38.5V38.49h1.564V36.179ZM47.786,48H45.65V38.49h2.136ZM45.519,36.021a1.133,1.133,0,0,1,.312-.817,1.179,1.179,0,0,1,.892-.325,1.193,1.193,0,0,1,.9.325,1.125,1.125,0,0,1,.316.817,1.1,1.1,0,0,1-.316.8,1.2,1.2,0,0,1-.9.321,1.188,1.188,0,0,1-.892-.321A1.107,1.107,0,0,1,45.519,36.021Zm7.269.158V38.49h1.679v1.582H52.787v5.309a1.169,1.169,0,0,0,.215.787,1,1,0,0,0,.769.242,3.29,3.29,0,0,0,.747-.088v1.652a5.26,5.26,0,0,1-1.406.2q-2.461,0-2.461-2.716V40.072H49.087V38.49h1.564V36.179ZM58.368,48H56.232V34.5h2.136Zm6.513.176A4.419,4.419,0,0,1,61.589,46.9a4.639,4.639,0,0,1-1.261-3.406v-.264a5.706,5.706,0,0,1,.549-2.544,4.181,4.181,0,0,1,1.542-1.745,4.078,4.078,0,0,1,2.215-.624,3.733,3.733,0,0,1,3,1.239A5.24,5.24,0,0,1,68.7,43.061v.861H62.481a2.856,2.856,0,0,0,.787,1.863A2.362,2.362,0,0,0,65,46.471a2.892,2.892,0,0,0,2.391-1.187l1.151,1.1a3.845,3.845,0,0,1-1.525,1.323A4.774,4.774,0,0,1,64.881,48.176Zm-.255-8.147a1.8,1.8,0,0,0-1.419.615,3.189,3.189,0,0,0-.69,1.714h4.069V42.2a2.6,2.6,0,0,0-.571-1.622A1.785,1.785,0,0,0,64.626,40.028Z" transform="translate(332 407)"/>
  </g>
</svg>
