<svg xmlns="http://www.w3.org/2000/svg" viewBox="0 0 363.906 368.699">
  <defs>
    <style>
      .cls-1, .cls-3 {
        fill: #30d074;
      }

      .cls-1, .cls-2 {
        opacity: 0.291;
      }

      .cls-2, .cls-4 {
        fill: #ff604e;
      }

      .cls-3, .cls-4 {
        opacity: 0.93;
      }

      .cls-5 {
        fill: #bfbfbf;
      }

      .cls-6 {
        fill: #767676;
      }

      .cls-7 {
        fill: gray;
      }

      .cls-8, .cls-9 {
        fill: none;
        stroke-width: 2px;
      }

      .cls-8 {
        stroke: #000;
      }

      .cls-9 {
        stroke: #707070;
      }

      .cls-10 {
        fill: #fff;
      }

      .cls-11, .cls-12 {
        stroke: none;
      }

      .cls-12 {
        fill: #707070;
      }
    </style>
  </defs>
  <g id="Group_70" data-name="Group 70" transform="translate(-689.693 -578)">
    <path id="Path_159" data-name="Path 159" d="M5.82-5.088H.693V-7H5.82Zm18.516-1.65a8.724,8.724,0,0,1-.723,3.667A5.464,5.464,0,0,1,21.548-.649,5.681,5.681,0,0,1,18.457.2a5.7,5.7,0,0,1-3.081-.845,5.548,5.548,0,0,1-2.09-2.407,8.451,8.451,0,0,1-.747-3.6v-.8a8.649,8.649,0,0,1,.737-3.672,5.542,5.542,0,0,1,2.08-2.437,5.663,5.663,0,0,1,3.081-.845,5.713,5.713,0,0,1,3.081.835,5.471,5.471,0,0,1,2.075,2.4,8.63,8.63,0,0,1,.742,3.647ZM21.865-7.48a6.216,6.216,0,0,0-.894-3.623,2.923,2.923,0,0,0-2.534-1.26,2.914,2.914,0,0,0-2.5,1.255,6.1,6.1,0,0,0-.923,3.55v.82a6.168,6.168,0,0,0,.913,3.623,2.94,2.94,0,0,0,2.534,1.279,2.906,2.906,0,0,0,2.524-1.25,6.3,6.3,0,0,0,.884-3.652Zm6.9-3.086.068,1.221a3.8,3.8,0,0,1,3.076-1.416q3.3,0,3.359,3.779V0H32.9V-6.846a2.176,2.176,0,0,0-.435-1.489,1.828,1.828,0,0,0-1.421-.483,2.287,2.287,0,0,0-2.139,1.3V0H26.533V-10.566Zm19.824,7.7a1.076,1.076,0,0,0-.522-.967,5.557,5.557,0,0,0-1.733-.586,8.911,8.911,0,0,1-2.021-.645,2.7,2.7,0,0,1-1.777-2.49,2.813,2.813,0,0,1,1.152-2.285,4.556,4.556,0,0,1,2.93-.918,4.74,4.74,0,0,1,3.062.938A2.975,2.975,0,0,1,50.85-7.393H48.477a1.462,1.462,0,0,0-.508-1.138,1.946,1.946,0,0,0-1.348-.454,2.1,2.1,0,0,0-1.274.361,1.139,1.139,0,0,0-.493.967.962.962,0,0,0,.459.85,6.312,6.312,0,0,0,1.855.61,8.783,8.783,0,0,1,2.192.732,3.1,3.1,0,0,1,1.182,1.021A2.6,2.6,0,0,1,50.928-3a2.753,2.753,0,0,1-1.182,2.31A5.039,5.039,0,0,1,46.65.2a5.464,5.464,0,0,1-2.314-.469,3.809,3.809,0,0,1-1.582-1.289,3.051,3.051,0,0,1-.566-1.768h2.3a1.672,1.672,0,0,0,.635,1.294,2.467,2.467,0,0,0,1.553.454,2.4,2.4,0,0,0,1.426-.356A1.1,1.1,0,0,0,48.594-2.871ZM57.646.2a4.91,4.91,0,0,1-3.657-1.421,5.154,5.154,0,0,1-1.4-3.784V-5.3A6.34,6.34,0,0,1,53.2-8.13a4.646,4.646,0,0,1,1.714-1.938,4.531,4.531,0,0,1,2.461-.693,4.147,4.147,0,0,1,3.335,1.377,5.823,5.823,0,0,1,1.177,3.9v.957h-6.9a3.173,3.173,0,0,0,.874,2.07,2.624,2.624,0,0,0,1.929.762,3.213,3.213,0,0,0,2.656-1.318L61.719-1.8a4.272,4.272,0,0,1-1.694,1.47A5.3,5.3,0,0,1,57.646.2Zm-.283-9.053a2,2,0,0,0-1.577.684,3.543,3.543,0,0,0-.767,1.9h4.521v-.176a2.884,2.884,0,0,0-.635-1.8A1.983,1.983,0,0,0,57.363-8.857ZM68.066-1.7a2.146,2.146,0,0,0,1.475-.518A1.768,1.768,0,0,0,70.166-3.5H72.4a3.486,3.486,0,0,1-.615,1.841A4.035,4.035,0,0,1,70.225-.3,4.656,4.656,0,0,1,68.1.2,4.505,4.505,0,0,1,64.58-1.24a5.694,5.694,0,0,1-1.3-3.965v-.244A5.6,5.6,0,0,1,64.57-9.312a4.464,4.464,0,0,1,3.516-1.45,4.341,4.341,0,0,1,3.071,1.1A3.935,3.935,0,0,1,72.4-6.777H70.166a2.173,2.173,0,0,0-.62-1.494,2,2,0,0,0-1.479-.586,2.088,2.088,0,0,0-1.777.835,4.261,4.261,0,0,0-.635,2.534v.381a4.331,4.331,0,0,0,.62,2.563A2.086,2.086,0,0,0,68.066-1.7ZM73.75-5.381a6.231,6.231,0,0,1,.615-2.8,4.493,4.493,0,0,1,1.729-1.914,4.87,4.87,0,0,1,2.559-.669,4.615,4.615,0,0,1,3.472,1.377,5.416,5.416,0,0,1,1.44,3.652l.01.557a6.286,6.286,0,0,1-.6,2.793,4.439,4.439,0,0,1-1.719,1.9A4.906,4.906,0,0,1,78.672.2a4.584,4.584,0,0,1-3.579-1.489,5.7,5.7,0,0,1-1.343-3.97Zm2.373.205A4.258,4.258,0,0,0,76.8-2.622a2.191,2.191,0,0,0,1.875.923,2.167,2.167,0,0,0,1.87-.937,4.7,4.7,0,0,0,.669-2.744,4.2,4.2,0,0,0-.688-2.539,2.2,2.2,0,0,0-1.87-.937,2.178,2.178,0,0,0-1.846.923A4.614,4.614,0,0,0,76.123-5.176Zm11.66-5.391.068,1.221a3.8,3.8,0,0,1,3.076-1.416q3.3,0,3.359,3.779V0H91.914V-6.846a2.176,2.176,0,0,0-.435-1.489,1.828,1.828,0,0,0-1.421-.483,2.287,2.287,0,0,0-2.139,1.3V0H85.547V-10.566ZM96.26-5.361a6.282,6.282,0,0,1,1.133-3.921,3.63,3.63,0,0,1,3.037-1.479,3.449,3.449,0,0,1,2.715,1.172V-15h2.373V0h-2.148l-.117-1.094A3.5,3.5,0,0,1,100.41.2a3.609,3.609,0,0,1-3-1.494A6.512,6.512,0,0,1,96.26-5.361Zm2.373.205a4.4,4.4,0,0,0,.62,2.515,2.012,2.012,0,0,0,1.763.9,2.241,2.241,0,0,0,2.129-1.3V-7.549a2.207,2.207,0,0,0-2.109-1.27,2.027,2.027,0,0,0-1.777.913A4.9,4.9,0,0,0,98.633-5.156Zm17.314-7.979v2.568h1.865v1.758h-1.865v5.9a1.3,1.3,0,0,0,.239.874,1.109,1.109,0,0,0,.854.269,3.656,3.656,0,0,0,.83-.1V-.029A5.845,5.845,0,0,1,116.309.2q-2.734,0-2.734-3.018V-8.809h-1.738v-1.758h1.738v-2.568ZM125.938,0a3.662,3.662,0,0,1-.273-.986A3.694,3.694,0,0,1,122.891.2a3.728,3.728,0,0,1-2.6-.908,2.906,2.906,0,0,1-1.006-2.246,3,3,0,0,1,1.255-2.593,6.081,6.081,0,0,1,3.589-.9h1.455v-.693a1.851,1.851,0,0,0-.459-1.313,1.819,1.819,0,0,0-1.4-.493,2.09,2.09,0,0,0-1.328.405,1.254,1.254,0,0,0-.518,1.03h-2.373a2.634,2.634,0,0,1,.576-1.626,3.839,3.839,0,0,1,1.567-1.187,5.506,5.506,0,0,1,2.212-.43,4.434,4.434,0,0,1,2.959.933,3.326,3.326,0,0,1,1.133,2.622v4.766a5.4,5.4,0,0,0,.4,2.275V0ZM123.33-1.709a2.7,2.7,0,0,0,1.323-.342,2.284,2.284,0,0,0,.933-.918V-4.961h-1.279a3.5,3.5,0,0,0-1.982.459,1.487,1.487,0,0,0-.664,1.3,1.387,1.387,0,0,0,.454,1.089A1.758,1.758,0,0,0,123.33-1.709ZM139.7-5.176a6.291,6.291,0,0,1-1.113,3.911A3.565,3.565,0,0,1,135.6.2a3.589,3.589,0,0,1-2.783-1.143v5.01h-2.373V-10.566h2.188l.1,1.074a3.485,3.485,0,0,1,2.842-1.27,3.6,3.6,0,0,1,3.032,1.44,6.459,6.459,0,0,1,1.1,4Zm-2.363-.205a4.407,4.407,0,0,0-.63-2.51,2.048,2.048,0,0,0-1.8-.928,2.184,2.184,0,0,0-2.09,1.2V-2.93a2.2,2.2,0,0,0,2.109,1.23,2.045,2.045,0,0,0,1.772-.913A4.851,4.851,0,0,0,137.334-5.381Zm5.8,2.881a1.356,1.356,0,0,1,1.025.376,1.306,1.306,0,0,1,.361.942,1.26,1.26,0,0,1-.361.923,1.376,1.376,0,0,1-1.025.366,1.38,1.38,0,0,1-1.006-.361,1.238,1.238,0,0,1-.371-.928,1.306,1.306,0,0,1,.361-.942A1.342,1.342,0,0,1,143.135-2.5Zm0-8.291a1.356,1.356,0,0,1,1.025.376,1.306,1.306,0,0,1,.361.942,1.26,1.26,0,0,1-.361.923,1.376,1.376,0,0,1-1.025.366,1.38,1.38,0,0,1-1.006-.361,1.238,1.238,0,0,1-.371-.928,1.306,1.306,0,0,1,.361-.942A1.342,1.342,0,0,1,143.135-10.791Zm14.775,7.92a1.076,1.076,0,0,0-.522-.967,5.557,5.557,0,0,0-1.733-.586,8.911,8.911,0,0,1-2.021-.645,2.7,2.7,0,0,1-1.777-2.49,2.813,2.813,0,0,1,1.152-2.285,4.556,4.556,0,0,1,2.93-.918A4.74,4.74,0,0,1,159-9.824a2.975,2.975,0,0,1,1.167,2.432h-2.373a1.462,1.462,0,0,0-.508-1.138,1.946,1.946,0,0,0-1.348-.454,2.1,2.1,0,0,0-1.274.361,1.139,1.139,0,0,0-.493.967.962.962,0,0,0,.459.85,6.312,6.312,0,0,0,1.855.61,8.783,8.783,0,0,1,2.192.732,3.1,3.1,0,0,1,1.182,1.021A2.6,2.6,0,0,1,160.244-3a2.753,2.753,0,0,1-1.182,2.31,5.039,5.039,0,0,1-3.1.884,5.464,5.464,0,0,1-2.314-.469,3.809,3.809,0,0,1-1.582-1.289A3.051,3.051,0,0,1,151.5-3.33h2.3a1.672,1.672,0,0,0,.635,1.294A2.467,2.467,0,0,0,156-1.582a2.4,2.4,0,0,0,1.426-.356A1.1,1.1,0,0,0,157.91-2.871ZM166.963.2a4.91,4.91,0,0,1-3.657-1.421,5.154,5.154,0,0,1-1.4-3.784V-5.3a6.34,6.34,0,0,1,.61-2.827,4.646,4.646,0,0,1,1.714-1.938,4.531,4.531,0,0,1,2.461-.693,4.147,4.147,0,0,1,3.335,1.377,5.823,5.823,0,0,1,1.177,3.9v.957h-6.9a3.173,3.173,0,0,0,.874,2.07A2.624,2.624,0,0,0,167.1-1.7a3.213,3.213,0,0,0,2.656-1.318L171.035-1.8a4.272,4.272,0,0,1-1.694,1.47A5.3,5.3,0,0,1,166.963.2Zm-.283-9.053a2,2,0,0,0-1.577.684,3.543,3.543,0,0,0-.767,1.9h4.521v-.176a2.884,2.884,0,0,0-.635-1.8A1.983,1.983,0,0,0,166.68-8.857ZM175.566,0h-2.373V-15h2.373ZM182.8.2a4.91,4.91,0,0,1-3.657-1.421,5.154,5.154,0,0,1-1.4-3.784V-5.3a6.34,6.34,0,0,1,.61-2.827,4.646,4.646,0,0,1,1.714-1.938,4.531,4.531,0,0,1,2.461-.693,4.147,4.147,0,0,1,3.335,1.377,5.823,5.823,0,0,1,1.177,3.9v.957h-6.9a3.173,3.173,0,0,0,.874,2.07,2.624,2.624,0,0,0,1.929.762A3.213,3.213,0,0,0,185.6-3.018L186.875-1.8a4.272,4.272,0,0,1-1.694,1.47A5.3,5.3,0,0,1,182.8.2Zm-.283-9.053a2,2,0,0,0-1.577.684,3.543,3.543,0,0,0-.767,1.9H184.7v-.176a2.884,2.884,0,0,0-.635-1.8A1.983,1.983,0,0,0,182.52-8.857Zm10.7,7.158a2.146,2.146,0,0,0,1.475-.518,1.768,1.768,0,0,0,.625-1.279h2.236a3.486,3.486,0,0,1-.615,1.841A4.035,4.035,0,0,1,195.381-.3a4.656,4.656,0,0,1-2.129.5,4.505,4.505,0,0,1-3.516-1.436,5.694,5.694,0,0,1-1.3-3.965v-.244a5.6,5.6,0,0,1,1.289-3.862,4.464,4.464,0,0,1,3.516-1.45,4.341,4.341,0,0,1,3.071,1.1,3.935,3.935,0,0,1,1.245,2.886h-2.236a2.173,2.173,0,0,0-.62-1.494,2,2,0,0,0-1.479-.586,2.088,2.088,0,0,0-1.777.835,4.261,4.261,0,0,0-.635,2.534v.381a4.331,4.331,0,0,0,.62,2.563A2.086,2.086,0,0,0,193.223-1.7Zm9.1-11.436v2.568h1.865v1.758h-1.865v5.9a1.3,1.3,0,0,0,.239.874,1.109,1.109,0,0,0,.854.269,3.656,3.656,0,0,0,.83-.1V-.029A5.845,5.845,0,0,1,202.686.2q-2.734,0-2.734-3.018V-8.809h-1.738v-1.758h1.738v-2.568ZM210.654.2A4.91,4.91,0,0,1,207-1.226a5.154,5.154,0,0,1-1.4-3.784V-5.3a6.34,6.34,0,0,1,.61-2.827,4.646,4.646,0,0,1,1.714-1.938,4.531,4.531,0,0,1,2.461-.693,4.147,4.147,0,0,1,3.335,1.377,5.823,5.823,0,0,1,1.177,3.9v.957h-6.9a3.173,3.173,0,0,0,.874,2.07,2.624,2.624,0,0,0,1.929.762,3.213,3.213,0,0,0,2.656-1.318L214.727-1.8a4.272,4.272,0,0,1-1.694,1.47A5.3,5.3,0,0,1,210.654.2Zm-.283-9.053a2,2,0,0,0-1.577.684,3.543,3.543,0,0,0-.767,1.9h4.521v-.176a2.884,2.884,0,0,0-.635-1.8A1.983,1.983,0,0,0,210.371-8.857Zm5.918,3.5a6.282,6.282,0,0,1,1.133-3.921,3.63,3.63,0,0,1,3.037-1.479,3.449,3.449,0,0,1,2.715,1.172V-15h2.373V0H223.4l-.117-1.094A3.5,3.5,0,0,1,220.439.2a3.609,3.609,0,0,1-3-1.494A6.512,6.512,0,0,1,216.289-5.361Zm2.373.205a4.4,4.4,0,0,0,.62,2.515,2.012,2.012,0,0,0,1.763.9,2.241,2.241,0,0,0,2.129-1.3V-7.549a2.207,2.207,0,0,0-2.109-1.27,2.027,2.027,0,0,0-1.777.913A4.9,4.9,0,0,0,218.662-5.156Zm23.613-.02a6.347,6.347,0,0,1-1.1,3.916A3.579,3.579,0,0,1,238.154.2a3.447,3.447,0,0,1-2.891-1.338L235.146,0H233V-15h2.373v5.449a3.435,3.435,0,0,1,2.764-1.211,3.62,3.62,0,0,1,3.037,1.436,6.452,6.452,0,0,1,1.1,4.014ZM239.9-5.381a4.486,4.486,0,0,0-.605-2.578,2.016,2.016,0,0,0-1.758-.859,2.2,2.2,0,0,0-2.168,1.348v4.355a2.226,2.226,0,0,0,2.188,1.377,2,2,0,0,0,1.719-.83,4.347,4.347,0,0,0,.625-2.51ZM250.576,0a3.662,3.662,0,0,1-.273-.986A3.694,3.694,0,0,1,247.529.2a3.728,3.728,0,0,1-2.6-.908,2.906,2.906,0,0,1-1.006-2.246,3,3,0,0,1,1.255-2.593,6.081,6.081,0,0,1,3.589-.9h1.455v-.693a1.851,1.851,0,0,0-.459-1.313,1.819,1.819,0,0,0-1.4-.493,2.09,2.09,0,0,0-1.328.405,1.254,1.254,0,0,0-.518,1.03H244.15a2.634,2.634,0,0,1,.576-1.626,3.838,3.838,0,0,1,1.567-1.187,5.506,5.506,0,0,1,2.212-.43,4.434,4.434,0,0,1,2.959.933A3.326,3.326,0,0,1,252.6-7.207v4.766A5.4,5.4,0,0,0,253-.166V0Zm-2.607-1.709a2.7,2.7,0,0,0,1.323-.342,2.284,2.284,0,0,0,.933-.918V-4.961h-1.279a3.5,3.5,0,0,0-1.982.459,1.487,1.487,0,0,0-.664,1.3,1.387,1.387,0,0,0,.454,1.089A1.758,1.758,0,0,0,247.969-1.709ZM260.615-8.4a5.872,5.872,0,0,0-.967-.078,2.177,2.177,0,0,0-2.2,1.25V0h-2.373V-10.566h2.266l.059,1.182a2.674,2.674,0,0,1,2.383-1.377,2.222,2.222,0,0,1,.84.137Zm8.818-1.016a3.714,3.714,0,0,1,2.939-1.348q3.379,0,3.428,3.857V0h-2.373V-6.816a2.086,2.086,0,0,0-.474-1.548,1.936,1.936,0,0,0-1.392-.454,2.286,2.286,0,0,0-2.129,1.27V0h-2.373V-15h2.373ZM280.723,0H278.35V-10.566h2.373ZM278.2-13.311a1.259,1.259,0,0,1,.347-.908,1.309,1.309,0,0,1,.991-.361,1.326,1.326,0,0,1,1,.361,1.25,1.25,0,0,1,.352.908,1.221,1.221,0,0,1-.352.894,1.336,1.336,0,0,1-1,.356,1.32,1.32,0,0,1-.991-.356A1.23,1.23,0,0,1,278.2-13.311Zm4.688,7.949a6.18,6.18,0,0,1,1.157-3.931,3.714,3.714,0,0,1,3.071-1.47,3.48,3.48,0,0,1,2.842,1.26l.107-1.064h2.139V-.322a4.258,4.258,0,0,1-1.294,3.281,4.928,4.928,0,0,1-3.491,1.2,5.627,5.627,0,0,1-2.271-.483,4.034,4.034,0,0,1-1.685-1.265L284.59.986a3.392,3.392,0,0,0,2.7,1.3,2.621,2.621,0,0,0,1.865-.64,2.451,2.451,0,0,0,.684-1.88V-.947A3.494,3.494,0,0,1,287.1.2a3.705,3.705,0,0,1-3.032-1.475A6.38,6.38,0,0,1,282.891-5.361Zm2.363.205a4.254,4.254,0,0,0,.649,2.5,2.088,2.088,0,0,0,1.8.913,2.284,2.284,0,0,0,2.129-1.23V-7.617a2.251,2.251,0,0,0-2.109-1.2,2.1,2.1,0,0,0-1.821.928A4.763,4.763,0,0,0,285.254-5.156Zm11.729-4.258a3.714,3.714,0,0,1,2.939-1.348q3.379,0,3.428,3.857V0h-2.373V-6.816a2.086,2.086,0,0,0-.474-1.548,1.936,1.936,0,0,0-1.392-.454,2.286,2.286,0,0,0-2.129,1.27V0h-2.373V-15h2.373ZM308.271,0H305.9V-15h2.373Zm5.107,0h-2.373V-10.566h2.373Zm-2.52-13.311a1.259,1.259,0,0,1,.347-.908,1.309,1.309,0,0,1,.991-.361,1.326,1.326,0,0,1,1,.361,1.25,1.25,0,0,1,.352.908,1.221,1.221,0,0,1-.352.894,1.336,1.336,0,0,1-1,.356,1.32,1.32,0,0,1-.991-.356A1.23,1.23,0,0,1,310.859-13.311Zm4.688,7.949A6.18,6.18,0,0,1,316.7-9.292a3.714,3.714,0,0,1,3.071-1.47,3.48,3.48,0,0,1,2.842,1.26l.107-1.064h2.139V-.322a4.258,4.258,0,0,1-1.294,3.281,4.928,4.928,0,0,1-3.491,1.2,5.627,5.627,0,0,1-2.271-.483,4.034,4.034,0,0,1-1.685-1.265L317.246.986a3.392,3.392,0,0,0,2.7,1.3,2.621,2.621,0,0,0,1.865-.64,2.451,2.451,0,0,0,.684-1.88V-.947A3.494,3.494,0,0,1,319.756.2a3.705,3.705,0,0,1-3.032-1.475A6.38,6.38,0,0,1,315.547-5.361Zm2.363.205a4.254,4.254,0,0,0,.649,2.5,2.088,2.088,0,0,0,1.8.913,2.284,2.284,0,0,0,2.129-1.23V-7.617a2.251,2.251,0,0,0-2.109-1.2,2.1,2.1,0,0,0-1.821.928A4.763,4.763,0,0,0,317.91-5.156Zm11.729-4.258a3.714,3.714,0,0,1,2.939-1.348q3.379,0,3.428,3.857V0h-2.373V-6.816a2.086,2.086,0,0,0-.474-1.548,1.936,1.936,0,0,0-1.392-.454,2.286,2.286,0,0,0-2.129,1.27V0h-2.373V-15h2.373Zm11.738-3.721v2.568h1.865v1.758h-1.865v5.9a1.3,1.3,0,0,0,.239.874,1.109,1.109,0,0,0,.854.269,3.656,3.656,0,0,0,.83-.1V-.029A5.845,5.845,0,0,1,341.738.2Q339,.2,339-2.822V-8.809h-1.738v-1.758H339v-2.568ZM349.707.2a4.91,4.91,0,0,1-3.657-1.421,5.154,5.154,0,0,1-1.4-3.784V-5.3a6.34,6.34,0,0,1,.61-2.827,4.645,4.645,0,0,1,1.714-1.938,4.531,4.531,0,0,1,2.461-.693,4.147,4.147,0,0,1,3.335,1.377,5.822,5.822,0,0,1,1.177,3.9v.957h-6.9a3.173,3.173,0,0,0,.874,2.07,2.624,2.624,0,0,0,1.929.762A3.213,3.213,0,0,0,352.5-3.018L353.779-1.8a4.272,4.272,0,0,1-1.694,1.47A5.3,5.3,0,0,1,349.707.2Zm-.283-9.053a2,2,0,0,0-1.577.684,3.543,3.543,0,0,0-.767,1.9H351.6v-.176a2.884,2.884,0,0,0-.635-1.8A1.983,1.983,0,0,0,349.424-8.857Zm5.918,3.5a6.282,6.282,0,0,1,1.133-3.921,3.63,3.63,0,0,1,3.037-1.479,3.449,3.449,0,0,1,2.715,1.172V-15H364.6V0h-2.148l-.117-1.094A3.5,3.5,0,0,1,359.492.2a3.609,3.609,0,0,1-3-1.494A6.512,6.512,0,0,1,355.342-5.361Zm2.373.205a4.4,4.4,0,0,0,.62,2.515,2.012,2.012,0,0,0,1.763.9,2.241,2.241,0,0,0,2.129-1.3V-7.549a2.207,2.207,0,0,0-2.109-1.27,2.027,2.027,0,0,0-1.777.913A4.9,4.9,0,0,0,357.715-5.156ZM25.439,22.729l1.68-7.295h2.314L26.553,26H24.6l-2.266-7.256L20.107,26H18.154L15.264,15.434h2.314l1.709,7.217,2.168-7.217h1.787ZM33.545,26H31.172V15.434h2.373Zm-2.52-13.311a1.259,1.259,0,0,1,.347-.908,1.309,1.309,0,0,1,.991-.361,1.326,1.326,0,0,1,1,.361,1.25,1.25,0,0,1,.352.908,1.221,1.221,0,0,1-.352.894,1.336,1.336,0,0,1-1,.356,1.32,1.32,0,0,1-.991-.356A1.23,1.23,0,0,1,31.025,12.689Zm8.076.176v2.568h1.865v1.758H39.1v5.9a1.3,1.3,0,0,0,.239.874,1.109,1.109,0,0,0,.854.269,3.656,3.656,0,0,0,.83-.1v1.836a5.844,5.844,0,0,1-1.562.225q-2.734,0-2.734-3.018V17.191H34.99V15.434h1.738V12.865Zm6.016,3.721a3.714,3.714,0,0,1,2.939-1.348q3.379,0,3.428,3.857V26H49.111V19.184a2.086,2.086,0,0,0-.474-1.548,1.936,1.936,0,0,0-1.392-.454,2.286,2.286,0,0,0-2.129,1.27V26H42.744V11h2.373ZM63.2,24.3a2.146,2.146,0,0,0,1.475-.518A1.768,1.768,0,0,0,65.3,22.5h2.236a3.486,3.486,0,0,1-.615,1.841A4.035,4.035,0,0,1,65.361,25.7a4.656,4.656,0,0,1-2.129.5,4.505,4.505,0,0,1-3.516-1.436,5.694,5.694,0,0,1-1.3-3.965v-.244a5.6,5.6,0,0,1,1.289-3.862,4.464,4.464,0,0,1,3.516-1.45,4.341,4.341,0,0,1,3.071,1.1,3.935,3.935,0,0,1,1.245,2.886H65.3a2.173,2.173,0,0,0-.62-1.494,2,2,0,0,0-1.479-.586,2.088,2.088,0,0,0-1.777.835,4.261,4.261,0,0,0-.635,2.534v.381a4.331,4.331,0,0,0,.62,2.563A2.086,2.086,0,0,0,63.2,24.3Zm5.684-3.682a6.231,6.231,0,0,1,.615-2.8,4.493,4.493,0,0,1,1.729-1.914,4.87,4.87,0,0,1,2.559-.669,4.615,4.615,0,0,1,3.472,1.377,5.416,5.416,0,0,1,1.44,3.652l.01.557a6.286,6.286,0,0,1-.6,2.793,4.439,4.439,0,0,1-1.719,1.9,4.906,4.906,0,0,1-2.583.674,4.584,4.584,0,0,1-3.579-1.489,5.7,5.7,0,0,1-1.343-3.97Zm2.373.205a4.258,4.258,0,0,0,.674,2.554,2.191,2.191,0,0,0,1.875.923,2.167,2.167,0,0,0,1.87-.937,4.7,4.7,0,0,0,.669-2.744,4.2,4.2,0,0,0-.688-2.539,2.321,2.321,0,0,0-3.716-.015A4.614,4.614,0,0,0,71.26,20.824ZM83.242,26H80.869V11h2.373Zm2.139-5.381a6.231,6.231,0,0,1,.615-2.8,4.493,4.493,0,0,1,1.729-1.914,4.87,4.87,0,0,1,2.559-.669,4.615,4.615,0,0,1,3.472,1.377,5.416,5.416,0,0,1,1.44,3.652l.01.557a6.286,6.286,0,0,1-.6,2.793,4.439,4.439,0,0,1-1.719,1.9A4.906,4.906,0,0,1,90.3,26.2a4.584,4.584,0,0,1-3.579-1.489,5.7,5.7,0,0,1-1.343-3.97Zm2.373.205a4.258,4.258,0,0,0,.674,2.554A2.191,2.191,0,0,0,90.3,24.3a2.167,2.167,0,0,0,1.87-.937,4.7,4.7,0,0,0,.669-2.744,4.2,4.2,0,0,0-.688-2.539,2.321,2.321,0,0,0-3.716-.015A4.614,4.614,0,0,0,87.754,20.824Zm14.99-3.223a5.872,5.872,0,0,0-.967-.078,2.177,2.177,0,0,0-2.2,1.25V26H97.207V15.434h2.266l.059,1.182a2.674,2.674,0,0,1,2.383-1.377,2.222,2.222,0,0,1,.84.137Zm.146,11.6-1.279-.762a6.9,6.9,0,0,0,.776-1.548,4.619,4.619,0,0,0,.22-1.343V23.705h2.139l-.01,1.709a4.763,4.763,0,0,1-.522,2.075A5.155,5.155,0,0,1,102.891,29.2Zm14.961-6.074a1.076,1.076,0,0,0-.522-.967,5.557,5.557,0,0,0-1.733-.586,8.911,8.911,0,0,1-2.021-.645,2.7,2.7,0,0,1-1.777-2.49,2.813,2.813,0,0,1,1.152-2.285,4.556,4.556,0,0,1,2.93-.918,4.74,4.74,0,0,1,3.062.938,2.975,2.975,0,0,1,1.167,2.432h-2.373a1.462,1.462,0,0,0-.508-1.138,1.946,1.946,0,0,0-1.348-.454,2.1,2.1,0,0,0-1.274.361,1.139,1.139,0,0,0-.493.967.962.962,0,0,0,.459.85,6.312,6.312,0,0,0,1.855.61,8.783,8.783,0,0,1,2.192.732,3.1,3.1,0,0,1,1.182,1.021A2.6,2.6,0,0,1,120.186,23,2.753,2.753,0,0,1,119,25.312a5.039,5.039,0,0,1-3.1.884,5.464,5.464,0,0,1-2.314-.469,3.809,3.809,0,0,1-1.582-1.289,3.051,3.051,0,0,1-.566-1.768h2.3a1.672,1.672,0,0,0,.635,1.294,2.467,2.467,0,0,0,1.553.454,2.4,2.4,0,0,0,1.426-.356A1.1,1.1,0,0,0,117.852,23.129Zm7.373-10.264v2.568h1.865v1.758h-1.865v5.9a1.3,1.3,0,0,0,.239.874,1.109,1.109,0,0,0,.854.269,3.656,3.656,0,0,0,.83-.1v1.836a5.844,5.844,0,0,1-1.562.225q-2.734,0-2.734-3.018V17.191h-1.738V15.434h1.738V12.865ZM135.215,26a3.662,3.662,0,0,1-.273-.986,3.992,3.992,0,0,1-5.371.273,2.906,2.906,0,0,1-1.006-2.246,3,3,0,0,1,1.255-2.593,6.081,6.081,0,0,1,3.589-.9h1.455v-.693a1.851,1.851,0,0,0-.459-1.313,1.819,1.819,0,0,0-1.4-.493,2.09,2.09,0,0,0-1.328.405,1.254,1.254,0,0,0-.518,1.03h-2.373a2.634,2.634,0,0,1,.576-1.626,3.838,3.838,0,0,1,1.567-1.187,5.506,5.506,0,0,1,2.212-.43,4.434,4.434,0,0,1,2.959.933,3.326,3.326,0,0,1,1.133,2.622v4.766a5.4,5.4,0,0,0,.4,2.275V26Zm-2.607-1.709a2.7,2.7,0,0,0,1.323-.342,2.284,2.284,0,0,0,.933-.918V21.039h-1.279a3.5,3.5,0,0,0-1.982.459,1.487,1.487,0,0,0-.664,1.3,1.387,1.387,0,0,0,.454,1.089A1.758,1.758,0,0,0,132.607,24.291ZM143.418,22.6l2.148-7.168H148.1L143.9,27.6q-.967,2.666-3.281,2.666a4.251,4.251,0,0,1-1.143-.176V28.256l.449.029a2.309,2.309,0,0,0,1.353-.327,2.169,2.169,0,0,0,.718-1.1l.342-.908-3.711-10.518h2.559Zm11.963.527a1.076,1.076,0,0,0-.522-.967,5.557,5.557,0,0,0-1.733-.586,8.911,8.911,0,0,1-2.021-.645,2.7,2.7,0,0,1-1.777-2.49,2.813,2.813,0,0,1,1.152-2.285,4.556,4.556,0,0,1,2.93-.918,4.74,4.74,0,0,1,3.062.938,2.975,2.975,0,0,1,1.167,2.432h-2.373a1.462,1.462,0,0,0-.508-1.138,1.946,1.946,0,0,0-1.348-.454,2.1,2.1,0,0,0-1.274.361,1.139,1.139,0,0,0-.493.967.962.962,0,0,0,.459.85,6.312,6.312,0,0,0,1.855.61,8.783,8.783,0,0,1,2.192.732,3.1,3.1,0,0,1,1.182,1.021A2.6,2.6,0,0,1,157.715,23a2.753,2.753,0,0,1-1.182,2.31,5.039,5.039,0,0,1-3.1.884,5.464,5.464,0,0,1-2.314-.469,3.809,3.809,0,0,1-1.582-1.289,3.051,3.051,0,0,1-.566-1.768h2.3a1.672,1.672,0,0,0,.635,1.294,2.467,2.467,0,0,0,1.553.454,2.4,2.4,0,0,0,1.426-.356A1.1,1.1,0,0,0,155.381,23.129ZM167.285,26h-2.373V15.434h2.373Zm-2.52-13.311a1.259,1.259,0,0,1,.347-.908,1.309,1.309,0,0,1,.991-.361,1.326,1.326,0,0,1,1,.361,1.25,1.25,0,0,1,.352.908,1.221,1.221,0,0,1-.352.894,1.336,1.336,0,0,1-1,.356,1.32,1.32,0,0,1-.991-.356A1.23,1.23,0,0,1,164.766,12.689Zm7.3,2.744.068,1.221a3.8,3.8,0,0,1,3.076-1.416q3.3,0,3.359,3.779V26H176.2V19.154a2.176,2.176,0,0,0-.435-1.489,1.828,1.828,0,0,0-1.421-.483,2.287,2.287,0,0,0-2.139,1.3V26h-2.373V15.434Zm23.154,5.391a6.291,6.291,0,0,1-1.113,3.911,3.867,3.867,0,0,1-5.771.317v5.01h-2.373V15.434h2.188l.1,1.074a3.485,3.485,0,0,1,2.842-1.27,3.6,3.6,0,0,1,3.032,1.44,6.459,6.459,0,0,1,1.1,4Zm-2.363-.205a4.407,4.407,0,0,0-.63-2.51,2.048,2.048,0,0,0-1.8-.928,2.184,2.184,0,0,0-2.09,1.2V23.07a2.2,2.2,0,0,0,2.109,1.23,2.045,2.045,0,0,0,1.772-.913A4.851,4.851,0,0,0,192.861,20.619ZM199.756,26h-2.373V11h2.373Zm8.9,0a3.662,3.662,0,0,1-.273-.986,3.992,3.992,0,0,1-5.371.273A2.906,2.906,0,0,1,202,23.041a3,3,0,0,1,1.255-2.593,6.081,6.081,0,0,1,3.589-.9H208.3v-.693a1.851,1.851,0,0,0-.459-1.313,1.819,1.819,0,0,0-1.4-.493,2.09,2.09,0,0,0-1.328.405,1.254,1.254,0,0,0-.518,1.03h-2.373a2.634,2.634,0,0,1,.576-1.626,3.838,3.838,0,0,1,1.567-1.187,5.506,5.506,0,0,1,2.212-.43,4.434,4.434,0,0,1,2.959.933,3.326,3.326,0,0,1,1.133,2.622v4.766a5.4,5.4,0,0,0,.4,2.275V26Zm-2.607-1.709a2.7,2.7,0,0,0,1.323-.342,2.284,2.284,0,0,0,.933-.918V21.039h-1.279a3.5,3.5,0,0,0-1.982.459,1.487,1.487,0,0,0-.664,1.3,1.387,1.387,0,0,0,.454,1.089A1.758,1.758,0,0,0,206.045,24.291Zm11.455.01a2.146,2.146,0,0,0,1.475-.518A1.768,1.768,0,0,0,219.6,22.5h2.236a3.486,3.486,0,0,1-.615,1.841,4.035,4.035,0,0,1-1.562,1.353,4.656,4.656,0,0,1-2.129.5,4.505,4.505,0,0,1-3.516-1.436,5.694,5.694,0,0,1-1.3-3.965v-.244A5.6,5.6,0,0,1,214,16.688a4.464,4.464,0,0,1,3.516-1.45,4.341,4.341,0,0,1,3.071,1.1,3.935,3.935,0,0,1,1.245,2.886H219.6a2.173,2.173,0,0,0-.62-1.494,2,2,0,0,0-1.479-.586,2.088,2.088,0,0,0-1.777.835,4.261,4.261,0,0,0-.635,2.534v.381a4.331,4.331,0,0,0,.62,2.563A2.086,2.086,0,0,0,217.5,24.3ZM228.281,26.2a4.91,4.91,0,0,1-3.657-1.421,5.154,5.154,0,0,1-1.4-3.784V20.7a6.34,6.34,0,0,1,.61-2.827,4.646,4.646,0,0,1,1.714-1.938,4.531,4.531,0,0,1,2.461-.693,4.147,4.147,0,0,1,3.335,1.377,5.823,5.823,0,0,1,1.177,3.9v.957h-6.9a3.173,3.173,0,0,0,.874,2.07,2.624,2.624,0,0,0,1.929.762,3.213,3.213,0,0,0,2.656-1.318l1.279,1.221a4.272,4.272,0,0,1-1.694,1.47A5.3,5.3,0,0,1,228.281,26.2ZM228,17.143a2,2,0,0,0-1.577.684,3.543,3.543,0,0,0-.767,1.9h4.521v-.176a2.884,2.884,0,0,0-.635-1.8A1.983,1.983,0,0,0,228,17.143Z" transform="translate(689 593)"/>
    <path id="Path_165" data-name="Path 165" class="cls-1" d="M0,0H151V23.2H0Z" transform="translate(703 646.515)"/>
    <path id="Path_176" data-name="Path 176" class="cls-2" d="M0,0H120.605V23.2H0Z" transform="translate(703 646.515)"/>
    <path id="Path_162" data-name="Path 162" class="cls-1" d="M0,0H193.75V23.2H0Z" transform="translate(703 674.547)"/>
    <path id="Path_166" data-name="Path 166" class="cls-2" d="M0,0H154.75V23.2H0Z" transform="translate(703 674.547)"/>
    <path id="Path_167" data-name="Path 167" class="cls-1" d="M0,0H144.642V23.2H0Z" transform="translate(703 702.578)"/>
    <path id="Path_177" data-name="Path 177" class="cls-2" d="M0,0H115.527V23.2H0Z" transform="translate(703 702.578)"/>
    <path id="Path_163" data-name="Path 163" class="cls-1" d="M0,0H158.1V23.2H0Z" transform="translate(703 730.61)"/>
    <path id="Path_170" data-name="Path 170" class="cls-2" d="M0,0H126.276V23.2H0Z" transform="translate(703 730.61)"/>
    <path id="Path_164" data-name="Path 164" class="cls-1" d="M0,0H158.021V23.2H0Z" transform="translate(703 759.642)"/>
    <path id="Path_171" data-name="Path 171" class="cls-2" d="M0,0H126.213V23.2H0Z" transform="translate(703 759.642)"/>
    <path id="Path_168" data-name="Path 168" class="cls-1" d="M0,0H140.916V23.2H0Z" transform="translate(703 786.674)"/>
    <path id="Path_181" data-name="Path 181" class="cls-2" d="M0,0H112.551V23.2H0Z" transform="translate(703 786.674)"/>
    <path id="Path_174" data-name="Path 174" class="cls-3" d="M0,0H133.887V23.2H0Z" transform="translate(703 814.706)"/>
    <path id="Path_182" data-name="Path 182" class="cls-4" d="M0,0H106.937V23.2H0Z" transform="translate(703 814.706)"/>
    <path id="Path_183" data-name="Path 183" class="cls-1" d="M0,0H128.6V23.2H0Z" transform="translate(703 842.738)"/>
    <path id="Path_184" data-name="Path 184" class="cls-2" d="M0,0H102.715V23.2H0Z" transform="translate(703 842.738)"/>
    <path id="Path_186" data-name="Path 186" class="cls-1" d="M0,0H116.17V23.2H0Z" transform="translate(703 870.769)"/>
    <path id="Path_187" data-name="Path 187" class="cls-2" d="M0,0H92.786V23.2H0Z" transform="translate(703 870.769)"/>
    <path id="Path_192" data-name="Path 192" class="cls-1" d="M0,0H116.17V23.2H0Z" transform="translate(703 898.801)"/>
    <path id="Path_193" data-name="Path 193" class="cls-2" d="M0,0H92.786V23.2H0Z" transform="translate(703 898.801)"/>
    <path id="Path_200" data-name="Path 200" d="M6.059-3.639a4.958,4.958,0,0,1-.65,2.83A2.313,2.313,0,0,1,3.375.117,2.33,2.33,0,0,1,1.354-.788a4.706,4.706,0,0,1-.68-2.7V-4.939a4.847,4.847,0,0,1,.65-2.795,2.331,2.331,0,0,1,2.039-.914,2.352,2.352,0,0,1,2.027.882,4.678,4.678,0,0,1,.668,2.722ZM4.975-5.121a3.972,3.972,0,0,0-.387-2.007,1.331,1.331,0,0,0-1.225-.63,1.314,1.314,0,0,0-1.213.627A3.878,3.878,0,0,0,1.758-5.2v1.734a4.036,4.036,0,0,0,.4,2.042,1.329,1.329,0,0,0,1.216.659,1.31,1.31,0,0,0,1.192-.621,3.89,3.89,0,0,0,.407-1.957Z" transform="translate(699 945)"/>
    <path id="Path_197" data-name="Path 197" d="M4.482-2.4H2.936L2.467,0H1.629L2.1-2.4H.7v-.8H2.25l.4-2.074H1.143v-.814h1.67l.48-2.437h.838L3.65-6.094H5.2l.48-2.437h.844l-.48,2.438h1.2v.814H5.883l-.4,2.074H6.8v.8H5.326L4.857,0H4.014Zm-1.395-.8H4.635l.4-2.074H3.492Zm7.8-.023A3.745,3.745,0,0,1,11.259-4.9a2.732,2.732,0,0,1,1.02-1.148,2.775,2.775,0,0,1,1.491-.4,2.674,2.674,0,0,1,2.095.9,3.449,3.449,0,0,1,.8,2.385V-3.1a3.777,3.777,0,0,1-.354,1.661A2.692,2.692,0,0,1,15.3-.293a2.807,2.807,0,0,1-1.515.41,2.667,2.667,0,0,1-2.089-.9,3.432,3.432,0,0,1-.8-2.373Zm1.09.129a2.712,2.712,0,0,0,.489,1.693,1.566,1.566,0,0,0,1.31.639,1.556,1.556,0,0,0,1.313-.647,2.966,2.966,0,0,0,.486-1.813,2.708,2.708,0,0,0-.5-1.69,1.574,1.574,0,0,0-1.315-.647,1.557,1.557,0,0,0-1.295.639A2.944,2.944,0,0,0,11.982-3.1ZM18.557,0V-5.5h-1V-6.34h1v-.65A2.159,2.159,0,0,1,19.1-8.566a2.058,2.058,0,0,1,1.541-.557,2.845,2.845,0,0,1,.744.1l-.059.879a3.113,3.113,0,0,0-.586-.053,1.059,1.059,0,0,0-.814.308,1.245,1.245,0,0,0-.287.882v.668h1.354V-5.5H19.641V0Zm7.9-3.34V0H25.33V-8.531h3.146a3.161,3.161,0,0,1,2.194.715,2.423,2.423,0,0,1,.794,1.893,2.391,2.391,0,0,1-.776,1.913,3.3,3.3,0,0,1-2.224.671Zm0-.92h2.021a2.023,2.023,0,0,0,1.383-.425,1.552,1.552,0,0,0,.48-1.228,1.6,1.6,0,0,0-.48-1.219,1.9,1.9,0,0,0-1.318-.475H26.455ZM33.908,0H32.824V-6.34h1.084ZM32.736-8.021a.647.647,0,0,1,.161-.445.6.6,0,0,1,.478-.182.614.614,0,0,1,.48.182.64.64,0,0,1,.164.445.619.619,0,0,1-.164.439.626.626,0,0,1-.48.176.616.616,0,0,1-.478-.176A.626.626,0,0,1,32.736-8.021ZM38.273.117a2.77,2.77,0,0,1-2.1-.847,3.142,3.142,0,0,1-.809-2.265v-.2a3.8,3.8,0,0,1,.36-1.685,2.811,2.811,0,0,1,1.008-1.16,2.534,2.534,0,0,1,1.4-.419,2.374,2.374,0,0,1,1.922.814,3.526,3.526,0,0,1,.686,2.332v.451H36.451A2.254,2.254,0,0,0,37-1.345a1.722,1.722,0,0,0,1.333.577A1.888,1.888,0,0,0,39.3-1a2.444,2.444,0,0,0,.7-.621l.662.516A2.662,2.662,0,0,1,38.273.117Zm-.135-5.684a1.446,1.446,0,0,0-1.1.478,2.321,2.321,0,0,0-.551,1.339h3.176v-.082a2.065,2.065,0,0,0-.445-1.28A1.361,1.361,0,0,0,38.139-5.566Zm6.4,4.8a1.561,1.561,0,0,0,1.014-.352A1.237,1.237,0,0,0,46.037-2h1.025a1.966,1.966,0,0,1-.375,1.037,2.47,2.47,0,0,1-.923.785,2.663,2.663,0,0,1-1.222.293,2.612,2.612,0,0,1-2.06-.864,3.442,3.442,0,0,1-.765-2.364v-.182a3.817,3.817,0,0,1,.34-1.646,2.588,2.588,0,0,1,.976-1.119,2.771,2.771,0,0,1,1.5-.4,2.543,2.543,0,0,1,1.772.639,2.283,2.283,0,0,1,.753,1.658H46.037a1.494,1.494,0,0,0-.466-1.011,1.449,1.449,0,0,0-1.034-.4,1.517,1.517,0,0,0-1.28.595,2.793,2.793,0,0,0-.454,1.72v.205a2.737,2.737,0,0,0,.451,1.688A1.524,1.524,0,0,0,44.543-.768Zm6.369.885a2.77,2.77,0,0,1-2.1-.847,3.142,3.142,0,0,1-.809-2.265v-.2a3.8,3.8,0,0,1,.36-1.685,2.811,2.811,0,0,1,1.008-1.16,2.534,2.534,0,0,1,1.4-.419,2.374,2.374,0,0,1,1.922.814,3.526,3.526,0,0,1,.686,2.332v.451H49.09a2.254,2.254,0,0,0,.548,1.515,1.722,1.722,0,0,0,1.333.577A1.888,1.888,0,0,0,51.943-1a2.444,2.444,0,0,0,.7-.621l.662.516A2.662,2.662,0,0,1,50.912.117Zm-.135-5.684a1.446,1.446,0,0,0-1.1.478,2.321,2.321,0,0,0-.551,1.339H52.3v-.082a2.065,2.065,0,0,0-.445-1.28A1.361,1.361,0,0,0,50.777-5.566ZM58.33-1.682A.8.8,0,0,0,58-2.364a3.187,3.187,0,0,0-1.154-.419,5.457,5.457,0,0,1-1.307-.422,1.859,1.859,0,0,1-.715-.586,1.4,1.4,0,0,1-.231-.809,1.645,1.645,0,0,1,.659-1.318,2.574,2.574,0,0,1,1.685-.539,2.649,2.649,0,0,1,1.749.557,1.768,1.768,0,0,1,.671,1.424h-1.09a.979.979,0,0,0-.378-.768,1.416,1.416,0,0,0-.952-.322,1.482,1.482,0,0,0-.926.258.812.812,0,0,0-.334.674.658.658,0,0,0,.311.592,3.821,3.821,0,0,0,1.122.381,5.847,5.847,0,0,1,1.315.434,1.919,1.919,0,0,1,.747.606,1.491,1.491,0,0,1,.243.864A1.623,1.623,0,0,1,58.734-.4a2.851,2.851,0,0,1-1.764.513,3.193,3.193,0,0,1-1.348-.27,2.192,2.192,0,0,1-.917-.753,1.815,1.815,0,0,1-.331-1.046h1.084a1.122,1.122,0,0,0,.437.864,1.693,1.693,0,0,0,1.075.319,1.748,1.748,0,0,0,.987-.249A.765.765,0,0,0,58.33-1.682Z" transform="translate(766 945)"/>
    <path id="Path_198" data-name="Path 198" d="M4.963-8.537v.92h-.2a2.854,2.854,0,0,0-2.016.75,3.121,3.121,0,0,0-.867,2.045A2.314,2.314,0,0,1,3.721-5.6,2.212,2.212,0,0,1,5.5-4.811a3.028,3.028,0,0,1,.665,2.027A3.019,3.019,0,0,1,5.446-.674,2.472,2.472,0,0,1,3.521.117a2.435,2.435,0,0,1-1.986-.94A3.727,3.727,0,0,1,.773-3.246v-.416a5.616,5.616,0,0,1,1-3.6A3.691,3.691,0,0,1,4.77-8.537ZM3.539-4.693a1.729,1.729,0,0,0-1.025.334,1.74,1.74,0,0,0-.65.838v.4a2.8,2.8,0,0,0,.475,1.7,1.422,1.422,0,0,0,1.184.645,1.378,1.378,0,0,0,1.151-.539A2.237,2.237,0,0,0,5.092-2.73a2.238,2.238,0,0,0-.425-1.421A1.362,1.362,0,0,0,3.539-4.693ZM13.037,0H7.447V-.779L10.4-4.061a7.016,7.016,0,0,0,.905-1.21,2.019,2.019,0,0,0,.249-.964,1.531,1.531,0,0,0-.4-1.1,1.414,1.414,0,0,0-1.078-.428,1.674,1.674,0,0,0-1.257.46,1.757,1.757,0,0,0-.448,1.28H7.283a2.516,2.516,0,0,1,.759-1.9,2.813,2.813,0,0,1,2.03-.727,2.7,2.7,0,0,1,1.881.624,2.129,2.129,0,0,1,.691,1.661,4.88,4.88,0,0,1-1.605,3L8.754-.885h4.283Zm1.225,1.7-.615-.422A2.827,2.827,0,0,0,14.221-.3v-.979h1.061v.85A2.669,2.669,0,0,1,14.991.75,2.771,2.771,0,0,1,14.262,1.7Zm7.453-8a1.981,1.981,0,0,1-.337,1.137,2.292,2.292,0,0,1-.911.779,2.445,2.445,0,0,1,1.058.838,2.108,2.108,0,0,1,.39,1.248,2.229,2.229,0,0,1-.747,1.764A2.87,2.87,0,0,1,19.2.117a2.857,2.857,0,0,1-1.972-.659A2.24,2.24,0,0,1,16.488-2.3a2.171,2.171,0,0,1,.378-1.248,2.352,2.352,0,0,1,1.046-.844,2.236,2.236,0,0,1-.9-.779A2.009,2.009,0,0,1,16.688-6.3a2.205,2.205,0,0,1,.691-1.711A2.594,2.594,0,0,1,19.2-8.648a2.6,2.6,0,0,1,1.819.633A2.2,2.2,0,0,1,21.715-6.3ZM20.83-2.326a1.572,1.572,0,0,0-.454-1.166,1.61,1.61,0,0,0-1.187-.451,1.582,1.582,0,0,0-1.175.445,1.59,1.59,0,0,0-.442,1.172A1.514,1.514,0,0,0,18-1.184a1.653,1.653,0,0,0,1.2.416,1.648,1.648,0,0,0,1.2-.419A1.511,1.511,0,0,0,20.83-2.326ZM19.2-7.758a1.4,1.4,0,0,0-1.034.4,1.453,1.453,0,0,0-.4,1.075,1.446,1.446,0,0,0,.39,1.052,1.383,1.383,0,0,0,1.04.4,1.383,1.383,0,0,0,1.04-.4,1.446,1.446,0,0,0,.39-1.052,1.446,1.446,0,0,0-.4-1.061A1.379,1.379,0,0,0,19.2-7.758ZM28.453-6.3a1.981,1.981,0,0,1-.337,1.137,2.292,2.292,0,0,1-.911.779,2.445,2.445,0,0,1,1.058.838,2.108,2.108,0,0,1,.39,1.248,2.229,2.229,0,0,1-.747,1.764,2.87,2.87,0,0,1-1.966.656,2.857,2.857,0,0,1-1.972-.659A2.24,2.24,0,0,1,23.227-2.3,2.171,2.171,0,0,1,23.6-3.551a2.352,2.352,0,0,1,1.046-.844,2.236,2.236,0,0,1-.9-.779A2.009,2.009,0,0,1,23.426-6.3a2.205,2.205,0,0,1,.691-1.711,2.594,2.594,0,0,1,1.822-.633,2.6,2.6,0,0,1,1.819.633A2.2,2.2,0,0,1,28.453-6.3Zm-.885,3.979a1.572,1.572,0,0,0-.454-1.166,1.61,1.61,0,0,0-1.187-.451,1.582,1.582,0,0,0-1.175.445,1.59,1.59,0,0,0-.442,1.172,1.514,1.514,0,0,0,.431,1.143,1.653,1.653,0,0,0,1.2.416,1.648,1.648,0,0,0,1.2-.419A1.511,1.511,0,0,0,27.568-2.326ZM25.939-7.758a1.4,1.4,0,0,0-1.034.4,1.453,1.453,0,0,0-.4,1.075,1.446,1.446,0,0,0,.39,1.052,1.383,1.383,0,0,0,1.04.4,1.383,1.383,0,0,0,1.04-.4,1.446,1.446,0,0,0,.39-1.052,1.446,1.446,0,0,0-.4-1.061A1.379,1.379,0,0,0,25.939-7.758ZM35.607,0h-5.59V-.779l2.953-3.281a7.016,7.016,0,0,0,.905-1.21,2.019,2.019,0,0,0,.249-.964,1.531,1.531,0,0,0-.4-1.1,1.414,1.414,0,0,0-1.078-.428,1.674,1.674,0,0,0-1.257.46,1.757,1.757,0,0,0-.448,1.28H29.854a2.516,2.516,0,0,1,.759-1.9,2.813,2.813,0,0,1,2.03-.727,2.7,2.7,0,0,1,1.881.624,2.129,2.129,0,0,1,.691,1.661,4.88,4.88,0,0,1-1.605,3L31.324-.885h4.283Z" transform="translate(881 945)"/>
    <path id="Path_160" data-name="Path 160" class="cls-5" d="M0,0H13.214V269.889H0Z" transform="translate(912.705 645.162)"/>
    <path id="Path_161" data-name="Path 161" class="cls-6" d="M0,0H13.214V8.507H0Z" transform="translate(912.705 645.162)"/>
    <path id="Path_20" data-name="Path 20" class="cls-7" d="M511.022,198.461l6.757-10.065,6.428,10.065Z" transform="translate(401.712 445.104)"/>
    <path id="Path_21" data-name="Path 21" class="cls-7" d="M0,10.065,6.757,0l6.428,10.065Z" transform="translate(925.919 926.565) rotate(180)"/>
    <path id="Path_24" data-name="Path 24" class="cls-8" d="M668.727,188.85H869.3v8.67" transform="translate(27 737.67)"/>
    <path id="Path_23" data-name="Path 23" class="cls-8" d="M675.857,193.185V489.793" transform="translate(27 445)"/>
    <path id="Path_178" data-name="Path 178" d="M7.547,0H6.416L2.121-6.574V0H.99V-8.531H2.121l4.307,6.6v-6.6H7.547Zm8.561-3.99A5.277,5.277,0,0,1,15.686-1.8a3.2,3.2,0,0,1-1.2,1.427,3.289,3.289,0,0,1-1.8.492,3.261,3.261,0,0,1-1.787-.5A3.272,3.272,0,0,1,9.688-1.79a5.064,5.064,0,0,1-.442-2.124v-.615A5.215,5.215,0,0,1,9.674-6.7a3.26,3.26,0,0,1,1.21-1.444,3.247,3.247,0,0,1,1.79-.5,3.307,3.307,0,0,1,1.808.5,3.19,3.19,0,0,1,1.2,1.436,5.3,5.3,0,0,1,.422,2.188Zm-1.119-.551a3.825,3.825,0,0,0-.609-2.329,2.01,2.01,0,0,0-1.705-.812A1.988,1.988,0,0,0,11-6.87a3.747,3.747,0,0,0-.63,2.253v.627a3.831,3.831,0,0,0,.618,2.312,2,2,0,0,0,1.7.841,1.989,1.989,0,0,0,1.688-.794,3.809,3.809,0,0,0,.615-2.276Zm5.936,1.09h-2V0H17.789V-8.531h2.824a3.343,3.343,0,0,1,2.218.656,2.361,2.361,0,0,1,.776,1.91,2.3,2.3,0,0,1-.431,1.389,2.571,2.571,0,0,1-1.2.885l2,3.621V0H22.775Zm-2-.92h1.729A1.952,1.952,0,0,0,21.981-4.8a1.465,1.465,0,0,0,.5-1.16A1.543,1.543,0,0,0,22-7.178a2,2,0,0,0-1.362-.428H18.92ZM30.609-7.605H27.867V0H26.748V-7.605H24.012v-.926h6.6ZM38.432,0H37.3V-3.943H33V0H31.875V-8.531H33v3.668h4.3V-8.531h1.131Zm6.82-3.943h-3.7V-.92H45.85V0H40.43V-8.531h5.361v.926H41.555v2.742h3.7Zm5.127.492h-2V0H47.244V-8.531h2.824a3.343,3.343,0,0,1,2.218.656,2.361,2.361,0,0,1,.776,1.91,2.3,2.3,0,0,1-.431,1.389,2.571,2.571,0,0,1-1.2.885l2,3.621V0H52.23Zm-2-.92H50.1A1.952,1.952,0,0,0,51.437-4.8a1.465,1.465,0,0,0,.5-1.16,1.543,1.543,0,0,0-.472-1.213A2,2,0,0,0,50.1-7.605H48.375ZM61.2,0H60.064L55.77-6.574V0H54.639V-8.531H55.77l4.307,6.6v-6.6H61.2Zm7.793-1.494,2.438-7.037h1.23L69.492,0h-1L65.338-8.531h1.225ZM75.006,0H73.881V-8.531h1.125Zm5.186-3.451h-2V0H77.057V-8.531h2.824a3.343,3.343,0,0,1,2.218.656,2.361,2.361,0,0,1,.776,1.91,2.3,2.3,0,0,1-.431,1.389,2.571,2.571,0,0,1-1.2.885l2,3.621V0H82.043Zm-2-.92h1.729A1.952,1.952,0,0,0,81.249-4.8a1.465,1.465,0,0,0,.5-1.16,1.543,1.543,0,0,0-.472-1.213,2,2,0,0,0-1.362-.428H78.188ZM90.75-1.119a2.6,2.6,0,0,1-1.21.929,4.887,4.887,0,0,1-1.808.308,3.506,3.506,0,0,1-1.852-.489A3.26,3.26,0,0,1,84.63-1.764a4.806,4.806,0,0,1-.454-2.092V-4.6a4.487,4.487,0,0,1,.9-2.988A3.134,3.134,0,0,1,87.6-8.648a3.237,3.237,0,0,1,2.15.683,2.974,2.974,0,0,1,1,1.937H89.625a1.858,1.858,0,0,0-2.016-1.693,1.992,1.992,0,0,0-1.714.794,3.874,3.874,0,0,0-.589,2.3v.7a3.631,3.631,0,0,0,.656,2.282A2.128,2.128,0,0,0,87.738-.8a3.913,3.913,0,0,0,1.107-.141,1.712,1.712,0,0,0,.785-.475V-3.334H87.656v-.914H90.75ZM93.832,0H92.707V-8.531h1.125Zm8.613,0h-1.131L97.02-6.574V0H95.889V-8.531H97.02l4.307,6.6v-6.6h1.119Zm3.205,0h-1.125V-8.531h1.125Zm6.768-2.227h-3.574L108.041,0h-1.16l3.258-8.531h.984L114.387,0h-1.154Zm-3.234-.926h2.9l-1.453-3.99Z" transform="translate(706 663)"/>
    <path id="Path_172" data-name="Path 172" d="M7.266-2.707a3.139,3.139,0,0,1-1,2.089A3.274,3.274,0,0,1,4.031.117,3.006,3.006,0,0,1,1.608-.967,4.361,4.361,0,0,1,.7-3.867v-.82a4.861,4.861,0,0,1,.425-2.092,3.173,3.173,0,0,1,1.2-1.386,3.353,3.353,0,0,1,1.8-.483,3.083,3.083,0,0,1,2.18.759,3.176,3.176,0,0,1,.955,2.1H6.135A2.44,2.44,0,0,0,5.5-7.266a1.927,1.927,0,0,0-1.368-.457,2.013,2.013,0,0,0-1.69.8,3.656,3.656,0,0,0-.612,2.268v.826a3.758,3.758,0,0,0,.58,2.209A1.875,1.875,0,0,0,4.031-.8,2.165,2.165,0,0,0,5.47-1.228a2.357,2.357,0,0,0,.665-1.479Zm8.1-1.283A5.277,5.277,0,0,1,14.941-1.8a3.2,3.2,0,0,1-1.2,1.427,3.289,3.289,0,0,1-1.8.492,3.261,3.261,0,0,1-1.787-.5A3.272,3.272,0,0,1,8.944-1.79,5.064,5.064,0,0,1,8.5-3.914v-.615A5.215,5.215,0,0,1,8.93-6.7a3.26,3.26,0,0,1,1.21-1.444,3.247,3.247,0,0,1,1.79-.5,3.307,3.307,0,0,1,1.808.5,3.19,3.19,0,0,1,1.2,1.436,5.3,5.3,0,0,1,.422,2.188Zm-1.119-.551a3.825,3.825,0,0,0-.609-2.329,2.01,2.01,0,0,0-1.705-.812,1.988,1.988,0,0,0-1.679.812,3.747,3.747,0,0,0-.63,2.253v.627a3.831,3.831,0,0,0,.618,2.312,2,2,0,0,0,1.7.841,1.989,1.989,0,0,0,1.688-.794,3.809,3.809,0,0,0,.615-2.276ZM23.607,0H22.477L18.182-6.574V0H17.051V-8.531h1.131l4.307,6.6v-6.6h1.119Zm8.555,0H31.031L26.736-6.574V0H25.605V-8.531h1.131l4.307,6.6v-6.6h1.119Zm6.82-3.943h-3.7V-.92H39.58V0H34.16V-8.531h5.361v.926H35.285v2.742h3.7Zm8.273,1.236a3.139,3.139,0,0,1-1,2.089,3.274,3.274,0,0,1-2.235.735A3.006,3.006,0,0,1,41.6-.967a4.361,4.361,0,0,1-.911-2.9v-.82a4.861,4.861,0,0,1,.425-2.092,3.173,3.173,0,0,1,1.2-1.386,3.353,3.353,0,0,1,1.8-.483,3.083,3.083,0,0,1,2.18.759,3.176,3.176,0,0,1,.955,2.1H46.125a2.44,2.44,0,0,0-.636-1.477,1.927,1.927,0,0,0-1.368-.457,2.013,2.013,0,0,0-1.69.8,3.656,3.656,0,0,0-.612,2.268v.826a3.758,3.758,0,0,0,.58,2.209,1.875,1.875,0,0,0,1.623.82,2.165,2.165,0,0,0,1.438-.425,2.357,2.357,0,0,0,.665-1.479Zm7.26-4.9H51.773V0H50.654V-7.605H47.918v-.926h6.6ZM56.988,0H55.863V-8.531h1.125ZM65.32-2.707a3.139,3.139,0,0,1-1,2.089,3.274,3.274,0,0,1-2.235.735A3.006,3.006,0,0,1,59.663-.967a4.361,4.361,0,0,1-.911-2.9v-.82a4.861,4.861,0,0,1,.425-2.092,3.173,3.173,0,0,1,1.2-1.386,3.353,3.353,0,0,1,1.8-.483,3.083,3.083,0,0,1,2.18.759,3.176,3.176,0,0,1,.955,2.1H64.189a2.44,2.44,0,0,0-.636-1.477,1.927,1.927,0,0,0-1.368-.457,2.013,2.013,0,0,0-1.69.8,3.656,3.656,0,0,0-.612,2.268v.826a3.758,3.758,0,0,0,.58,2.209,1.875,1.875,0,0,0,1.623.82,2.165,2.165,0,0,0,1.438-.425,2.357,2.357,0,0,0,.665-1.479Zm7.541-5.824v5.8A2.721,2.721,0,0,1,72.1-.756a3.058,3.058,0,0,1-2.042.861l-.3.012a3.193,3.193,0,0,1-2.232-.756,2.7,2.7,0,0,1-.844-2.08V-8.531H67.8v5.777a1.951,1.951,0,0,0,.51,1.438A1.959,1.959,0,0,0,69.762-.8a1.972,1.972,0,0,0,1.462-.51,1.948,1.948,0,0,0,.507-1.436V-8.531Zm7.67.926H77.789V0H76.67V-7.605H73.934v-.926h6.6Zm6.826,6.111,2.438-7.037h1.23L87.861,0h-1L83.707-8.531h1.225Zm9.082-.732H92.865L92.063,0H90.9L94.16-8.531h.984L98.408,0H97.254Zm-3.234-.926h2.9l-1.453-3.99ZM100.688-.92h4.043V0H99.557V-8.531h1.131Zm6.457,0h4.043V0h-5.174V-8.531h1.131Zm10.148-3.023h-3.7V-.92h4.295V0h-5.42V-8.531h5.361v.926H113.6v2.742h3.7Zm4.6-.3,2.227-4.283H125.4l-2.941,5.35V0H121.33V-3.182l-2.941-5.35h1.289Z" transform="translate(706 691)"/>
    <path id="Path_195" data-name="Path 195" d="M7.266-2.707a3.139,3.139,0,0,1-1,2.089A3.274,3.274,0,0,1,4.031.117,3.006,3.006,0,0,1,1.608-.967,4.361,4.361,0,0,1,.7-3.867v-.82a4.861,4.861,0,0,1,.425-2.092,3.173,3.173,0,0,1,1.2-1.386,3.353,3.353,0,0,1,1.8-.483,3.083,3.083,0,0,1,2.18.759,3.176,3.176,0,0,1,.955,2.1H6.135A2.44,2.44,0,0,0,5.5-7.266a1.927,1.927,0,0,0-1.368-.457,2.013,2.013,0,0,0-1.69.8,3.656,3.656,0,0,0-.612,2.268v.826a3.758,3.758,0,0,0,.58,2.209A1.875,1.875,0,0,0,4.031-.8,2.165,2.165,0,0,0,5.47-1.228a2.357,2.357,0,0,0,.665-1.479Zm6.246.48H9.938L9.135,0H7.975l3.258-8.531h.984L15.48,0H14.326Zm-3.234-.926h2.9l-1.453-3.99Zm7.477-.187V0H16.629V-8.531h3.146a3.161,3.161,0,0,1,2.194.715,2.423,2.423,0,0,1,.794,1.893,2.391,2.391,0,0,1-.776,1.913,3.3,3.3,0,0,1-2.224.671Zm0-.92h2.021a2.023,2.023,0,0,0,1.383-.425,1.552,1.552,0,0,0,.48-1.228,1.6,1.6,0,0,0-.48-1.219,1.9,1.9,0,0,0-1.318-.475H17.754ZM25.406,0H24.281V-8.531h1.125Zm7.951-7.605H30.615V0H29.5V-7.605H26.76v-.926h6.6Zm5.514,5.379H35.3L34.494,0h-1.16l3.258-8.531h.984L40.84,0H39.686Zm-3.234-.926h2.9l-1.453-3.99ZM43.119-.92h4.043V0H41.988V-8.531h1.131Z" transform="translate(706 719)"/>
    <path id="Path_189" data-name="Path 189" d="M2.121-.92H6.164V0H.99V-8.531H2.121ZM13.629-3.99A5.277,5.277,0,0,1,13.207-1.8a3.2,3.2,0,0,1-1.2,1.427,3.289,3.289,0,0,1-1.8.492,3.261,3.261,0,0,1-1.787-.5A3.272,3.272,0,0,1,7.21-1.79a5.064,5.064,0,0,1-.442-2.124v-.615A5.215,5.215,0,0,1,7.2-6.7a3.26,3.26,0,0,1,1.21-1.444,3.247,3.247,0,0,1,1.79-.5,3.307,3.307,0,0,1,1.808.5,3.19,3.19,0,0,1,1.2,1.436,5.3,5.3,0,0,1,.422,2.188ZM12.51-4.541A3.825,3.825,0,0,0,11.9-6.87,2.01,2.01,0,0,0,10.2-7.682a1.988,1.988,0,0,0-1.679.812,3.747,3.747,0,0,0-.63,2.253v.627A3.831,3.831,0,0,0,8.5-1.679a2,2,0,0,0,1.7.841,1.989,1.989,0,0,0,1.688-.794,3.809,3.809,0,0,0,.615-2.276ZM21.873,0H20.742L16.447-6.574V0H15.316V-8.531h1.131l4.307,6.6v-6.6h1.119Zm8.3-1.119a2.6,2.6,0,0,1-1.21.929,4.887,4.887,0,0,1-1.808.308A3.506,3.506,0,0,1,25.3-.372,3.26,3.26,0,0,1,24.05-1.764,4.806,4.806,0,0,1,23.6-3.855V-4.6a4.487,4.487,0,0,1,.9-2.988,3.134,3.134,0,0,1,2.528-1.061,3.237,3.237,0,0,1,2.15.683,2.974,2.974,0,0,1,1,1.937H29.045a1.858,1.858,0,0,0-2.016-1.693,1.992,1.992,0,0,0-1.714.794,3.874,3.874,0,0,0-.589,2.3v.7a3.631,3.631,0,0,0,.656,2.282A2.128,2.128,0,0,0,27.158-.8a3.913,3.913,0,0,0,1.107-.141,1.712,1.712,0,0,0,.785-.475V-3.334H27.076v-.914H30.17ZM36.223,0H35.1V-8.531h1.125Zm4.57-3.8a5.29,5.29,0,0,1-2.106-1.022,1.954,1.954,0,0,1-.659-1.5,2.064,2.064,0,0,1,.806-1.667,3.2,3.2,0,0,1,2.095-.659,3.5,3.5,0,0,1,1.567.34,2.577,2.577,0,0,1,1.066.938,2.4,2.4,0,0,1,.378,1.307H42.809a1.552,1.552,0,0,0-.492-1.216,2.006,2.006,0,0,0-1.389-.442,2.052,2.052,0,0,0-1.3.366,1.221,1.221,0,0,0-.466,1.017,1.1,1.1,0,0,0,.442.882,4.343,4.343,0,0,0,1.506.659,6.973,6.973,0,0,1,1.664.659,2.525,2.525,0,0,1,.891.841,2.146,2.146,0,0,1,.29,1.131,1.993,1.993,0,0,1-.809,1.661,3.448,3.448,0,0,1-2.162.624A4.01,4.01,0,0,1,39.346-.22a2.761,2.761,0,0,1-1.175-.923,2.252,2.252,0,0,1-.413-1.33h1.131a1.469,1.469,0,0,0,.571,1.222A2.4,2.4,0,0,0,40.986-.8a2.211,2.211,0,0,0,1.365-.363,1.18,1.18,0,0,0,.475-.99,1.158,1.158,0,0,0-.439-.97A5.066,5.066,0,0,0,40.793-3.8ZM46.529-.92h4.043V0H45.4V-8.531h1.131ZM56.678-2.227H53.1L52.3,0h-1.16L54.4-8.531h.984L58.646,0H57.492Zm-3.234-.926h2.9l-1.453-3.99ZM66.352,0H65.221L60.926-6.574V0H59.795V-8.531h1.131l4.307,6.6v-6.6h1.119Zm2,0V-8.531h2.408a3.877,3.877,0,0,1,1.969.492,3.329,3.329,0,0,1,1.321,1.4,4.558,4.558,0,0,1,.472,2.086v.545a4.574,4.574,0,0,1-.466,2.115A3.277,3.277,0,0,1,72.724-.5a4.124,4.124,0,0,1-2.013.5Zm1.125-7.605V-.92h1.184a2.576,2.576,0,0,0,2.024-.809,3.339,3.339,0,0,0,.724-2.3v-.5a3.392,3.392,0,0,0-.683-2.259,2.43,2.43,0,0,0-1.937-.817Z" transform="translate(706 747)"/>
    <path id="Path_173" data-name="Path 173" d="M2.115-3.34V0H.99V-8.531H4.137a3.161,3.161,0,0,1,2.194.715,2.423,2.423,0,0,1,.794,1.893,2.391,2.391,0,0,1-.776,1.913,3.3,3.3,0,0,1-2.224.671Zm0-.92H4.137A2.023,2.023,0,0,0,5.52-4.685,1.552,1.552,0,0,0,6-5.912a1.6,1.6,0,0,0-.48-1.219A1.9,1.9,0,0,0,4.2-7.605H2.115Zm13,4.26H13.986V-3.943h-4.3V0H8.561V-8.531H9.686v3.668h4.3V-8.531h1.131Zm3.205,0H17.2V-8.531h1.125ZM21.51-.92h4.043V0H20.379V-8.531H21.51ZM31.658-2.227H28.084L27.281,0h-1.16l3.258-8.531h.984L33.627,0H32.473Zm-3.234-.926h2.9l-1.453-3.99ZM34.775,0V-8.531h2.408a3.877,3.877,0,0,1,1.969.492,3.329,3.329,0,0,1,1.321,1.4,4.558,4.558,0,0,1,.472,2.086v.545a4.574,4.574,0,0,1-.466,2.115A3.277,3.277,0,0,1,39.149-.5a4.124,4.124,0,0,1-2.013.5ZM35.9-7.605V-.92h1.184a2.576,2.576,0,0,0,2.024-.809,3.339,3.339,0,0,0,.724-2.3v-.5a3.392,3.392,0,0,0-.683-2.259,2.43,2.43,0,0,0-1.937-.817ZM47.467-3.943h-3.7V-.92h4.295V0h-5.42V-8.531h5.361v.926H43.77v2.742h3.7ZM50.6-.92h4.043V0H49.465V-8.531H50.6Zm6.451-2.42V0H55.922V-8.531h3.146a3.161,3.161,0,0,1,2.194.715,2.423,2.423,0,0,1,.794,1.893,2.391,2.391,0,0,1-.776,1.913,3.3,3.3,0,0,1-2.224.671Zm0-.92h2.021a2.023,2.023,0,0,0,1.383-.425,1.552,1.552,0,0,0,.48-1.228,1.6,1.6,0,0,0-.48-1.219,1.9,1.9,0,0,0-1.318-.475H57.047Zm13,4.26H68.918V-3.943h-4.3V0H63.492V-8.531h1.125v3.668h4.3V-8.531h1.131Zm3.205,0H72.129V-8.531h1.125Zm6.768-2.227H76.447L75.645,0h-1.16l3.258-8.531h.984L81.99,0H80.836Zm-3.234-.926h2.9l-1.453-3.99ZM87.563-8.531,90.352-1.57l2.789-6.961H94.6V0H93.475V-3.322l.105-3.586L90.779,0h-.861L87.123-6.891l.111,3.568V0H86.109V-8.531Zm13.846,4.588h-3.7V-.92h4.295V0h-5.42V-8.531h5.361v.926H97.711v2.742h3.7Zm8.01-3.662h-2.742V0h-1.119V-7.605H102.82v-.926h6.6Zm4.395,4.154h-2V0h-1.131V-8.531H113.5a3.343,3.343,0,0,1,2.218.656,2.361,2.361,0,0,1,.776,1.91,2.3,2.3,0,0,1-.431,1.389,2.571,2.571,0,0,1-1.2.885l2,3.621V0h-1.207Zm-2-.92h1.729A1.952,1.952,0,0,0,114.87-4.8a1.465,1.465,0,0,0,.5-1.16,1.543,1.543,0,0,0-.472-1.213,2,2,0,0,0-1.362-.428h-1.723Zm12.826.381a5.277,5.277,0,0,1-.422,2.188,3.2,3.2,0,0,1-1.2,1.427,3.289,3.289,0,0,1-1.8.492,3.261,3.261,0,0,1-1.787-.5,3.272,3.272,0,0,1-1.21-1.412,5.064,5.064,0,0,1-.442-2.124v-.615A5.215,5.215,0,0,1,118.2-6.7a3.26,3.26,0,0,1,1.21-1.444,3.247,3.247,0,0,1,1.79-.5,3.307,3.307,0,0,1,1.808.5,3.19,3.19,0,0,1,1.2,1.436,5.3,5.3,0,0,1,.422,2.188Zm-1.119-.551a3.825,3.825,0,0,0-.609-2.329,2.01,2.01,0,0,0-1.705-.812,1.988,1.988,0,0,0-1.679.812,3.747,3.747,0,0,0-.63,2.253v.627a3.831,3.831,0,0,0,.618,2.312,2,2,0,0,0,1.7.841,1.989,1.989,0,0,0,1.688-.794,3.809,3.809,0,0,0,.615-2.276Z" transform="translate(706 775)"/>
    <path id="Path_196" data-name="Path 196" d="M7.266-2.707a3.139,3.139,0,0,1-1,2.089A3.274,3.274,0,0,1,4.031.117,3.006,3.006,0,0,1,1.608-.967,4.361,4.361,0,0,1,.7-3.867v-.82a4.861,4.861,0,0,1,.425-2.092,3.173,3.173,0,0,1,1.2-1.386,3.353,3.353,0,0,1,1.8-.483,3.083,3.083,0,0,1,2.18.759,3.176,3.176,0,0,1,.955,2.1H6.135A2.44,2.44,0,0,0,5.5-7.266a1.927,1.927,0,0,0-1.368-.457,2.013,2.013,0,0,0-1.69.8,3.656,3.656,0,0,0-.612,2.268v.826a3.758,3.758,0,0,0,.58,2.209A1.875,1.875,0,0,0,4.031-.8,2.165,2.165,0,0,0,5.47-1.228a2.357,2.357,0,0,0,.665-1.479ZM15.357,0H14.227V-3.943h-4.3V0H8.8V-8.531H9.926v3.668h4.3V-8.531h1.131Zm3.205,0H17.438V-8.531h1.125Zm8.332-2.707a3.139,3.139,0,0,1-1,2.089A3.274,3.274,0,0,1,23.66.117,3.006,3.006,0,0,1,21.237-.967a4.361,4.361,0,0,1-.911-2.9v-.82a4.861,4.861,0,0,1,.425-2.092,3.173,3.173,0,0,1,1.2-1.386,3.353,3.353,0,0,1,1.8-.483,3.083,3.083,0,0,1,2.18.759,3.176,3.176,0,0,1,.955,2.1H25.764a2.44,2.44,0,0,0-.636-1.477,1.927,1.927,0,0,0-1.368-.457,2.013,2.013,0,0,0-1.69.8,3.656,3.656,0,0,0-.612,2.268v.826a3.758,3.758,0,0,0,.58,2.209A1.875,1.875,0,0,0,23.66-.8,2.165,2.165,0,0,0,25.1-1.228a2.357,2.357,0,0,0,.665-1.479Zm6.246.48H29.566L28.764,0H27.6l3.258-8.531h.984L35.109,0H33.955Zm-3.234-.926h2.9l-1.453-3.99Zm12.65,2.033a2.6,2.6,0,0,1-1.21.929,4.887,4.887,0,0,1-1.808.308,3.506,3.506,0,0,1-1.852-.489,3.26,3.26,0,0,1-1.251-1.392,4.806,4.806,0,0,1-.454-2.092V-4.6a4.487,4.487,0,0,1,.9-2.988A3.134,3.134,0,0,1,39.41-8.648a3.237,3.237,0,0,1,2.15.683,2.974,2.974,0,0,1,1,1.937H41.432a1.858,1.858,0,0,0-2.016-1.693,1.992,1.992,0,0,0-1.714.794,3.874,3.874,0,0,0-.589,2.3v.7a3.631,3.631,0,0,0,.656,2.282A2.128,2.128,0,0,0,39.545-.8a3.913,3.913,0,0,0,1.107-.141,1.712,1.712,0,0,0,.785-.475V-3.334H39.463v-.914h3.094ZM50.994-3.99A5.277,5.277,0,0,1,50.572-1.8a3.2,3.2,0,0,1-1.2,1.427,3.289,3.289,0,0,1-1.8.492,3.261,3.261,0,0,1-1.787-.5,3.272,3.272,0,0,1-1.21-1.412,5.064,5.064,0,0,1-.442-2.124v-.615A5.215,5.215,0,0,1,44.561-6.7a3.26,3.26,0,0,1,1.21-1.444,3.247,3.247,0,0,1,1.79-.5,3.307,3.307,0,0,1,1.808.5,3.19,3.19,0,0,1,1.2,1.436,5.3,5.3,0,0,1,.422,2.188Zm-1.119-.551a3.825,3.825,0,0,0-.609-2.329,2.01,2.01,0,0,0-1.705-.812,1.988,1.988,0,0,0-1.679.812,3.747,3.747,0,0,0-.63,2.253v.627a3.831,3.831,0,0,0,.618,2.312,2,2,0,0,0,1.7.841,1.989,1.989,0,0,0,1.688-.794,3.809,3.809,0,0,0,.615-2.276Z" transform="translate(706 803)"/>
    <path id="Path_175" data-name="Path 175" d="M7.547,0H6.416L2.121-6.574V0H.99V-8.531H2.121l4.307,6.6v-6.6H7.547Zm8.561-3.99A5.277,5.277,0,0,1,15.686-1.8a3.2,3.2,0,0,1-1.2,1.427,3.289,3.289,0,0,1-1.8.492,3.261,3.261,0,0,1-1.787-.5A3.272,3.272,0,0,1,9.688-1.79a5.064,5.064,0,0,1-.442-2.124v-.615A5.215,5.215,0,0,1,9.674-6.7a3.26,3.26,0,0,1,1.21-1.444,3.247,3.247,0,0,1,1.79-.5,3.307,3.307,0,0,1,1.808.5,3.19,3.19,0,0,1,1.2,1.436,5.3,5.3,0,0,1,.422,2.188Zm-1.119-.551a3.825,3.825,0,0,0-.609-2.329,2.01,2.01,0,0,0-1.705-.812A1.988,1.988,0,0,0,11-6.87a3.747,3.747,0,0,0-.63,2.253v.627a3.831,3.831,0,0,0,.618,2.312,2,2,0,0,0,1.7.841,1.989,1.989,0,0,0,1.688-.794,3.809,3.809,0,0,0,.615-2.276Zm5.936,1.09h-2V0H17.789V-8.531h2.824a3.343,3.343,0,0,1,2.218.656,2.361,2.361,0,0,1,.776,1.91,2.3,2.3,0,0,1-.431,1.389,2.571,2.571,0,0,1-1.2.885l2,3.621V0H22.775Zm-2-.92h1.729A1.952,1.952,0,0,0,21.981-4.8a1.465,1.465,0,0,0,.5-1.16A1.543,1.543,0,0,0,22-7.178a2,2,0,0,0-1.362-.428H18.92ZM30.609-7.605H27.867V0H26.748V-7.605H24.012v-.926h6.6ZM38.432,0H37.3V-3.943H33V0H31.875V-8.531H33v3.668h4.3V-8.531h1.131Zm6.82-3.943h-3.7V-.92H45.85V0H40.43V-8.531h5.361v.926H41.555v2.742h3.7ZM53.807,0H52.676L48.381-6.574V0H47.25V-8.531h1.131l4.307,6.6v-6.6h1.119ZM65.332,0H64.2L59.906-6.574V0H58.775V-8.531h1.131l4.307,6.6v-6.6h1.119Zm6.82-3.943h-3.7V-.92H72.75V0H67.33V-8.531h5.361v.926H68.455v2.742h3.7ZM75.99-2.689l.164,1.125.24-1.014,1.688-5.953h.949l1.646,5.953.234,1.031L81.094-2.7l1.324-5.836h1.131L81.48,0H80.455L78.7-6.217l-.135-.65-.135.65L76.605,0H75.58L73.518-8.531h1.125ZM91.342-8.531h1.131V-2.49a2.5,2.5,0,0,1-.735,1.916,2.745,2.745,0,0,1-1.96.691,2.821,2.821,0,0,1-1.98-.65,2.349,2.349,0,0,1-.709-1.822h1.125a1.564,1.564,0,0,0,.4,1.143,1.555,1.555,0,0,0,1.163.41,1.509,1.509,0,0,0,1.128-.439,1.7,1.7,0,0,0,.437-1.23Zm7.869,4.588h-3.7V-.92h4.295V0h-5.42V-8.531H99.75v.926H95.514v2.742h3.7Zm5.127.492h-2V0H101.2V-8.531h2.824a3.343,3.343,0,0,1,2.218.656,2.361,2.361,0,0,1,.776,1.91,2.3,2.3,0,0,1-.431,1.389,2.571,2.571,0,0,1-1.2.885l2,3.621V0h-1.207Zm-2-.92h1.729A1.952,1.952,0,0,0,105.4-4.8a1.465,1.465,0,0,0,.5-1.16,1.543,1.543,0,0,0-.472-1.213,2,2,0,0,0-1.362-.428h-1.723Zm8.777.568A5.29,5.29,0,0,1,109-4.825a1.954,1.954,0,0,1-.659-1.5,2.064,2.064,0,0,1,.806-1.667,3.2,3.2,0,0,1,2.095-.659,3.5,3.5,0,0,1,1.567.34,2.577,2.577,0,0,1,1.066.938,2.4,2.4,0,0,1,.378,1.307h-1.131a1.552,1.552,0,0,0-.492-1.216,2.006,2.006,0,0,0-1.389-.442,2.052,2.052,0,0,0-1.3.366,1.221,1.221,0,0,0-.466,1.017,1.1,1.1,0,0,0,.442.882,4.343,4.343,0,0,0,1.506.659,6.973,6.973,0,0,1,1.664.659,2.525,2.525,0,0,1,.891.841,2.146,2.146,0,0,1,.29,1.131,1.993,1.993,0,0,1-.809,1.661A3.448,3.448,0,0,1,111.3.117a4.01,4.01,0,0,1-1.641-.337,2.761,2.761,0,0,1-1.175-.923,2.252,2.252,0,0,1-.413-1.33h1.131a1.469,1.469,0,0,0,.571,1.222A2.4,2.4,0,0,0,111.3-.8a2.211,2.211,0,0,0,1.365-.363,1.18,1.18,0,0,0,.475-.99,1.158,1.158,0,0,0-.439-.97A5.066,5.066,0,0,0,111.111-3.8Zm9.428-.141h-3.7V-.92h4.295V0h-5.42V-8.531h5.361v.926h-4.236v2.742h3.7Zm4.6-.3,2.227-4.283h1.277L125.7-3.182V0h-1.125V-3.182l-2.941-5.35h1.289Z" transform="translate(706 831)"/>
    <path id="Path_190" data-name="Path 190" d="M.99,0V-8.531H3.779a3.238,3.238,0,0,1,2.089.574,2.07,2.07,0,0,1,.7,1.7A1.733,1.733,0,0,1,6.229-5.2a2.2,2.2,0,0,1-.926.712A1.979,1.979,0,0,1,6.4-3.753a2.11,2.11,0,0,1,.4,1.292,2.282,2.282,0,0,1-.744,1.8A3.077,3.077,0,0,1,3.949,0ZM2.115-3.99V-.92H3.973a1.788,1.788,0,0,0,1.239-.407,1.43,1.43,0,0,0,.454-1.122q0-1.541-1.676-1.541Zm0-.9h1.7A1.784,1.784,0,0,0,5-5.262a1.236,1.236,0,0,0,.442-1,1.216,1.216,0,0,0-.41-1.022,2.017,2.017,0,0,0-1.248-.319H2.115ZM13.172-2.227H9.6L8.795,0H7.635l3.258-8.531h.984L15.141,0H13.986ZM9.938-3.152h2.9l-1.453-3.99ZM17.42-.92h4.043V0H16.289V-8.531H17.42Zm9.609-6.686H24.287V0H23.168V-7.605H20.432v-.926h6.6ZM29.5,0H28.377V-8.531H29.5Zm3.51-8.531L35.8-1.57,38.59-8.531h1.459V0H38.924V-3.322l.105-3.586L36.229,0h-.861L32.572-6.891l.111,3.568V0H31.559V-8.531ZM48.6-3.99A5.277,5.277,0,0,1,48.176-1.8a3.2,3.2,0,0,1-1.2,1.427,3.289,3.289,0,0,1-1.8.492,3.261,3.261,0,0,1-1.787-.5,3.272,3.272,0,0,1-1.21-1.412,5.064,5.064,0,0,1-.442-2.124v-.615A5.215,5.215,0,0,1,42.164-6.7a3.26,3.26,0,0,1,1.21-1.444,3.247,3.247,0,0,1,1.79-.5,3.307,3.307,0,0,1,1.808.5,3.19,3.19,0,0,1,1.2,1.436A5.3,5.3,0,0,1,48.6-4.529Zm-1.119-.551a3.825,3.825,0,0,0-.609-2.329,2.01,2.01,0,0,0-1.705-.812,1.988,1.988,0,0,0-1.679.812,3.747,3.747,0,0,0-.63,2.253v.627a3.831,3.831,0,0,0,.618,2.312,2,2,0,0,0,1.7.841,1.989,1.989,0,0,0,1.688-.794,3.809,3.809,0,0,0,.615-2.276Zm5.936,1.09h-2V0H50.279V-8.531H53.1a3.343,3.343,0,0,1,2.218.656,2.361,2.361,0,0,1,.776,1.91,2.3,2.3,0,0,1-.431,1.389,2.571,2.571,0,0,1-1.2.885l2,3.621V0H55.266Zm-2-.92h1.729A1.952,1.952,0,0,0,54.472-4.8a1.465,1.465,0,0,0,.5-1.16A1.543,1.543,0,0,0,54.5-7.178a2,2,0,0,0-1.362-.428H51.41ZM62.5-3.943H58.8V-.92h4.295V0h-5.42V-8.531h5.361v.926H58.8v2.742h3.7Z" transform="translate(706 859)"/>
    <path id="Path_188" data-name="Path 188" d="M3.5-3.8A5.29,5.29,0,0,1,1.4-4.825a1.954,1.954,0,0,1-.659-1.5,2.064,2.064,0,0,1,.806-1.667,3.2,3.2,0,0,1,2.095-.659,3.5,3.5,0,0,1,1.567.34,2.577,2.577,0,0,1,1.066.938A2.4,2.4,0,0,1,6.65-6.064H5.52A1.552,1.552,0,0,0,5.027-7.28a2.006,2.006,0,0,0-1.389-.442,2.052,2.052,0,0,0-1.3.366A1.221,1.221,0,0,0,1.875-6.34a1.1,1.1,0,0,0,.442.882A4.343,4.343,0,0,0,3.823-4.8a6.973,6.973,0,0,1,1.664.659,2.525,2.525,0,0,1,.891.841,2.146,2.146,0,0,1,.29,1.131A1.993,1.993,0,0,1,5.859-.507,3.448,3.448,0,0,1,3.7.117,4.01,4.01,0,0,1,2.057-.22,2.761,2.761,0,0,1,.882-1.143a2.252,2.252,0,0,1-.413-1.33H1.6a1.469,1.469,0,0,0,.571,1.222A2.4,2.4,0,0,0,3.7-.8a2.211,2.211,0,0,0,1.365-.363,1.18,1.18,0,0,0,.475-.99,1.158,1.158,0,0,0-.439-.97A5.066,5.066,0,0,0,3.5-3.8ZM14.672-3.99A5.277,5.277,0,0,1,14.25-1.8a3.2,3.2,0,0,1-1.2,1.427,3.289,3.289,0,0,1-1.8.492,3.261,3.261,0,0,1-1.787-.5A3.272,3.272,0,0,1,8.253-1.79a5.064,5.064,0,0,1-.442-2.124v-.615A5.215,5.215,0,0,1,8.238-6.7a3.26,3.26,0,0,1,1.21-1.444,3.247,3.247,0,0,1,1.79-.5,3.307,3.307,0,0,1,1.808.5,3.19,3.19,0,0,1,1.2,1.436,5.3,5.3,0,0,1,.422,2.188Zm-1.119-.551a3.825,3.825,0,0,0-.609-2.329,2.01,2.01,0,0,0-1.705-.812A1.988,1.988,0,0,0,9.56-6.87a3.747,3.747,0,0,0-.63,2.253v.627a3.831,3.831,0,0,0,.618,2.312,2,2,0,0,0,1.7.841,1.989,1.989,0,0,0,1.688-.794,3.809,3.809,0,0,0,.615-2.276Zm8.813-3.99v5.8a2.721,2.721,0,0,1-.759,1.975,3.058,3.058,0,0,1-2.042.861l-.3.012a3.193,3.193,0,0,1-2.232-.756,2.7,2.7,0,0,1-.844-2.08V-8.531H17.3v5.777a1.951,1.951,0,0,0,.51,1.438A1.959,1.959,0,0,0,19.266-.8a1.972,1.972,0,0,0,1.462-.51,1.948,1.948,0,0,0,.507-1.436V-8.531Zm7.67.926H27.293V0H26.174V-7.605H23.438v-.926h6.6ZM37.857,0H36.727V-3.943h-4.3V0H31.3V-8.531h1.125v3.668h4.3V-8.531h1.131ZM46.4-8.531h1.131V-2.49A2.5,2.5,0,0,1,46.8-.574a2.745,2.745,0,0,1-1.96.691,2.821,2.821,0,0,1-1.98-.65,2.349,2.349,0,0,1-.709-1.822h1.125a1.564,1.564,0,0,0,.4,1.143,1.555,1.555,0,0,0,1.163.41,1.509,1.509,0,0,0,1.128-.439,1.7,1.7,0,0,0,.437-1.23ZM54.27-3.943h-3.7V-.92h4.295V0h-5.42V-8.531h5.361v.926H50.572v2.742h3.7Zm5.127.492h-2V0H56.262V-8.531h2.824a3.343,3.343,0,0,1,2.218.656,2.361,2.361,0,0,1,.776,1.91,2.3,2.3,0,0,1-.431,1.389,2.571,2.571,0,0,1-1.2.885l2,3.621V0H61.248Zm-2-.92h1.729A1.952,1.952,0,0,0,60.454-4.8a1.465,1.465,0,0,0,.5-1.16,1.543,1.543,0,0,0-.472-1.213,2,2,0,0,0-1.362-.428H57.393ZM66.17-3.8a5.29,5.29,0,0,1-2.106-1.022,1.954,1.954,0,0,1-.659-1.5,2.064,2.064,0,0,1,.806-1.667A3.2,3.2,0,0,1,66.3-8.648a3.5,3.5,0,0,1,1.567.34,2.577,2.577,0,0,1,1.066.938,2.4,2.4,0,0,1,.378,1.307H68.186a1.552,1.552,0,0,0-.492-1.216A2.006,2.006,0,0,0,66.3-7.723a2.052,2.052,0,0,0-1.3.366,1.221,1.221,0,0,0-.466,1.017,1.1,1.1,0,0,0,.442.882,4.343,4.343,0,0,0,1.506.659,6.973,6.973,0,0,1,1.664.659,2.525,2.525,0,0,1,.891.841,2.146,2.146,0,0,1,.29,1.131,1.993,1.993,0,0,1-.809,1.661,3.448,3.448,0,0,1-2.162.624A4.01,4.01,0,0,1,64.723-.22a2.761,2.761,0,0,1-1.175-.923,2.252,2.252,0,0,1-.413-1.33h1.131a1.469,1.469,0,0,0,.571,1.222A2.4,2.4,0,0,0,66.363-.8a2.211,2.211,0,0,0,1.365-.363,1.18,1.18,0,0,0,.475-.99,1.158,1.158,0,0,0-.439-.97A5.066,5.066,0,0,0,66.17-3.8ZM75.6-3.943H71.9V-.92H76.2V0h-5.42V-8.531h5.361v.926H71.9v2.742h3.7Zm4.6-.3,2.227-4.283H83.7L80.76-3.182V0H79.635V-3.182l-2.941-5.35h1.289Z" transform="translate(706 887)"/>
    <path id="Path_194" data-name="Path 194" d="M7.289-1.119a2.6,2.6,0,0,1-1.21.929A4.887,4.887,0,0,1,4.271.117,3.506,3.506,0,0,1,2.42-.372,3.26,3.26,0,0,1,1.169-1.764,4.806,4.806,0,0,1,.715-3.855V-4.6a4.487,4.487,0,0,1,.9-2.988A3.134,3.134,0,0,1,4.143-8.648a3.237,3.237,0,0,1,2.15.683,2.974,2.974,0,0,1,1,1.937H6.164A1.858,1.858,0,0,0,4.148-7.723a1.992,1.992,0,0,0-1.714.794,3.874,3.874,0,0,0-.589,2.3v.7A3.631,3.631,0,0,0,2.5-1.649,2.128,2.128,0,0,0,4.277-.8,3.913,3.913,0,0,0,5.385-.943a1.712,1.712,0,0,0,.785-.475V-3.334H4.2v-.914H7.289Zm5-2.332h-2V0H9.158V-8.531h2.824a3.343,3.343,0,0,1,2.218.656,2.361,2.361,0,0,1,.776,1.91,2.3,2.3,0,0,1-.431,1.389,2.571,2.571,0,0,1-1.2.885l2,3.621V0H14.145Zm-2-.92h1.729A1.952,1.952,0,0,0,13.351-4.8a1.465,1.465,0,0,0,.5-1.16,1.543,1.543,0,0,0-.472-1.213,2,2,0,0,0-1.362-.428H10.289Zm11.086.428h-3.7V-.92h4.295V0h-5.42V-8.531h5.361v.926H17.678v2.742h3.7Zm6.709,1.717H24.51L23.707,0h-1.16L25.8-8.531h.984L30.053,0H28.9ZM24.85-3.152h2.9L26.3-7.143ZM36.34-7.605H33.6V0H32.479V-7.605H29.742v-.926h6.6Zm6.088,3.662h-3.7V-.92h4.295V0h-5.42V-8.531h5.361v.926H38.73v2.742h3.7Zm5.127.492h-2V0H44.42V-8.531h2.824a3.343,3.343,0,0,1,2.218.656,2.361,2.361,0,0,1,.776,1.91,2.3,2.3,0,0,1-.431,1.389,2.571,2.571,0,0,1-1.2.885l2,3.621V0H49.406Zm-2-.92h1.729A1.952,1.952,0,0,0,48.612-4.8a1.465,1.465,0,0,0,.5-1.16,1.543,1.543,0,0,0-.472-1.213,2,2,0,0,0-1.362-.428H45.551ZM54.785,0V-8.531h2.789a3.238,3.238,0,0,1,2.089.574,2.07,2.07,0,0,1,.7,1.7,1.733,1.733,0,0,1-.34,1.058,2.2,2.2,0,0,1-.926.712,1.979,1.979,0,0,1,1.093.735,2.11,2.11,0,0,1,.4,1.292,2.282,2.282,0,0,1-.744,1.8,3.077,3.077,0,0,1-2.1.656ZM55.91-3.99V-.92h1.857a1.788,1.788,0,0,0,1.239-.407,1.43,1.43,0,0,0,.454-1.122q0-1.541-1.676-1.541Zm0-.9h1.7a1.784,1.784,0,0,0,1.181-.369,1.236,1.236,0,0,0,.442-1,1.216,1.216,0,0,0-.41-1.022,2.017,2.017,0,0,0-1.248-.319H55.91Zm12.908.9A5.277,5.277,0,0,1,68.4-1.8,3.2,3.2,0,0,1,67.2-.375a3.289,3.289,0,0,1-1.8.492,3.261,3.261,0,0,1-1.787-.5A3.272,3.272,0,0,1,62.4-1.79a5.064,5.064,0,0,1-.442-2.124v-.615A5.215,5.215,0,0,1,62.385-6.7a3.26,3.26,0,0,1,1.21-1.444,3.247,3.247,0,0,1,1.79-.5,3.307,3.307,0,0,1,1.808.5,3.19,3.19,0,0,1,1.2,1.436,5.3,5.3,0,0,1,.422,2.188ZM67.7-4.541A3.825,3.825,0,0,0,67.09-6.87a2.01,2.01,0,0,0-1.705-.812,1.988,1.988,0,0,0-1.679.812,3.747,3.747,0,0,0-.63,2.253v.627a3.831,3.831,0,0,0,.618,2.312,2,2,0,0,0,1.7.841,1.989,1.989,0,0,0,1.688-.794A3.809,3.809,0,0,0,67.7-3.908Zm5.32.738a5.29,5.29,0,0,1-2.106-1.022,1.954,1.954,0,0,1-.659-1.5,2.064,2.064,0,0,1,.806-1.667,3.2,3.2,0,0,1,2.095-.659,3.5,3.5,0,0,1,1.567.34,2.577,2.577,0,0,1,1.066.938,2.4,2.4,0,0,1,.378,1.307H75.035a1.552,1.552,0,0,0-.492-1.216,2.006,2.006,0,0,0-1.389-.442,2.052,2.052,0,0,0-1.3.366,1.221,1.221,0,0,0-.466,1.017,1.1,1.1,0,0,0,.442.882,4.343,4.343,0,0,0,1.506.659A6.973,6.973,0,0,1,75-4.14a2.525,2.525,0,0,1,.891.841,2.146,2.146,0,0,1,.29,1.131,1.993,1.993,0,0,1-.809,1.661,3.448,3.448,0,0,1-2.162.624A4.01,4.01,0,0,1,71.572-.22,2.761,2.761,0,0,1,70.4-1.143a2.252,2.252,0,0,1-.413-1.33h1.131a1.469,1.469,0,0,0,.571,1.222A2.4,2.4,0,0,0,73.213-.8a2.211,2.211,0,0,0,1.365-.363,1.18,1.18,0,0,0,.475-.99,1.158,1.158,0,0,0-.439-.97A5.066,5.066,0,0,0,73.02-3.8Zm10.5-3.8H80.777V0H79.658V-7.605H76.922v-.926h6.6ZM91.184-3.99A5.277,5.277,0,0,1,90.762-1.8a3.2,3.2,0,0,1-1.2,1.427,3.289,3.289,0,0,1-1.8.492,3.261,3.261,0,0,1-1.787-.5,3.272,3.272,0,0,1-1.21-1.412,5.064,5.064,0,0,1-.442-2.124v-.615A5.215,5.215,0,0,1,84.75-6.7a3.26,3.26,0,0,1,1.21-1.444,3.247,3.247,0,0,1,1.79-.5,3.307,3.307,0,0,1,1.808.5,3.19,3.19,0,0,1,1.2,1.436,5.3,5.3,0,0,1,.422,2.188Zm-1.119-.551a3.825,3.825,0,0,0-.609-2.329,2.01,2.01,0,0,0-1.705-.812,1.988,1.988,0,0,0-1.679.812,3.747,3.747,0,0,0-.63,2.253v.627a3.831,3.831,0,0,0,.618,2.312,2,2,0,0,0,1.7.841,1.989,1.989,0,0,0,1.688-.794,3.809,3.809,0,0,0,.615-2.276ZM99.428,0H98.3L94-6.574V0H92.871V-8.531H94l4.307,6.6v-6.6h1.119Z" transform="translate(706 915)"/>
    <path id="Path_29" data-name="Path 29" class="cls-9" d="M692.1,199.519V388.512" transform="translate(163 442.981)"/>
    <path id="Path_30" data-name="Path 30" class="cls-9" d="M692.1,199.519V388.512" transform="translate(182 442.981)"/>
    <g id="Path_179" data-name="Path 179" class="cls-10" transform="translate(848 822)">
      <path class="cls-11" d="M 7 13 C 3.691590070724487 13 1 10.30840969085693 1 7 C 1 3.691590070724487 3.691590070724487 1 7 1 C 10.30840969085693 1 13 3.691590070724487 13 7 C 13 10.30840969085693 10.30840969085693 13 7 13 Z"/>
      <path class="cls-12" d="M 7 2 C 4.242989540100098 2 2 4.242989540100098 2 7 C 2 9.757009506225586 4.242989540100098 12 7 12 C 9.757009506225586 12 12 9.757009506225586 12 7 C 12 4.242989540100098 9.757009506225586 2 7 2 M 7 0 C 10.86598968505859 0 14 3.134010314941406 14 7 C 14 10.86598968505859 10.86598968505859 14 7 14 C 3.134010314941406 14 0 10.86598968505859 0 7 C 0 3.134010314941406 3.134010314941406 0 7 0 Z"/>
    </g>
    <g id="Path_180" data-name="Path 180" class="cls-10" transform="translate(867 822)">
      <path class="cls-11" d="M 7 13 C 3.691590070724487 13 1 10.30840969085693 1 7 C 1 3.691590070724487 3.691590070724487 1 7 1 C 10.30840969085693 1 13 3.691590070724487 13 7 C 13 10.30840969085693 10.30840969085693 13 7 13 Z"/>
      <path class="cls-12" d="M 7 2 C 4.242989540100098 2 2 4.242989540100098 2 7 C 2 9.757009506225586 4.242989540100098 12 7 12 C 9.757009506225586 12 12 9.757009506225586 12 7 C 12 4.242989540100098 9.757009506225586 2 7 2 M 7 0 C 10.86598968505859 0 14 3.134010314941406 14 7 C 14 10.86598968505859 10.86598968505859 14 7 14 C 3.134010314941406 14 0 10.86598968505859 0 7 C 0 3.134010314941406 3.134010314941406 0 7 0 Z"/>
    </g>
    <path id="Path_26" data-name="Path 26" class="cls-9" d="M692.1,199.519V279" transform="translate(70 442.981)"/>
    <path id="Path_27" data-name="Path 27" class="cls-9" d="M692.1,199.519v135.5" transform="translate(118 442.981)"/>
    <path id="Path_28" data-name="Path 28" class="cls-9" d="M692.1,199.519V279" transform="translate(148 442.981)"/>
    <g id="Path_191" data-name="Path 191" class="cls-10" transform="translate(755 716)">
      <path class="cls-11" d="M 7 13 C 3.691590070724487 13 1 10.30840969085693 1 7 C 1 3.691590070724487 3.691590070724487 1 7 1 C 10.30840969085693 1 13 3.691590070724487 13 7 C 13 10.30840969085693 10.30840969085693 13 7 13 Z"/>
      <path class="cls-12" d="M 7 2 C 4.242989540100098 2 2 4.242989540100098 2 7 C 2 9.757009506225586 4.242989540100098 12 7 12 C 9.757009506225586 12 12 9.757009506225586 12 7 C 12 4.242989540100098 9.757009506225586 2 7 2 M 7 0 C 10.86598968505859 0 14 3.134010314941406 14 7 C 14 10.86598968505859 10.86598968505859 14 7 14 C 3.134010314941406 14 0 10.86598968505859 0 7 C 0 3.134010314941406 3.134010314941406 0 7 0 Z"/>
    </g>
    <g id="Path_169" data-name="Path 169" class="cls-10" transform="translate(833 716)">
      <path class="cls-11" d="M 7 13 C 3.691590070724487 13 1 10.30840969085693 1 7 C 1 3.691590070724487 3.691590070724487 1 7 1 C 10.30840969085693 1 13 3.691590070724487 13 7 C 13 10.30840969085693 10.30840969085693 13 7 13 Z"/>
      <path class="cls-12" d="M 7 2 C 4.242989540100098 2 2 4.242989540100098 2 7 C 2 9.757009506225586 4.242989540100098 12 7 12 C 9.757009506225586 12 12 9.757009506225586 12 7 C 12 4.242989540100098 9.757009506225586 2 7 2 M 7 0 C 10.86598968505859 0 14 3.134010314941406 14 7 C 14 10.86598968505859 10.86598968505859 14 7 14 C 3.134010314941406 14 0 10.86598968505859 0 7 C 0 3.134010314941406 3.134010314941406 0 7 0 Z"/>
    </g>
    <g id="Path_185" data-name="Path 185" class="cls-10" transform="translate(803 775)">
      <path class="cls-11" d="M 7 13 C 3.691590070724487 13 1 10.30840969085693 1 7 C 1 3.691590070724487 3.691590070724487 1 7 1 C 10.30840969085693 1 13 3.691590070724487 13 7 C 13 10.30840969085693 10.30840969085693 13 7 13 Z"/>
      <path class="cls-12" d="M 7 2 C 4.242989540100098 2 2 4.242989540100098 2 7 C 2 9.757009506225586 4.242989540100098 12 7 12 C 9.757009506225586 12 12 9.757009506225586 12 7 C 12 4.242989540100098 9.757009506225586 2 7 2 M 7 0 C 10.86598968505859 0 14 3.134010314941406 14 7 C 14 10.86598968505859 10.86598968505859 14 7 14 C 3.134010314941406 14 0 10.86598968505859 0 7 C 0 3.134010314941406 3.134010314941406 0 7 0 Z"/>
    </g>
    <path id="Path_25" data-name="Path 25" class="cls-9" d="M692.1,199.519v14.144" transform="translate(26 442.981)"/>
    <g id="Path_199" data-name="Path 199" class="cls-10" transform="translate(711 656)">
      <path class="cls-11" d="M 7 13 C 3.691590070724487 13 1 10.30840969085693 1 7 C 1 3.691590070724487 3.691590070724487 1 7 1 C 10.30840969085693 1 13 3.691590070724487 13 7 C 13 10.30840969085693 10.30840969085693 13 7 13 Z"/>
      <path class="cls-12" d="M 7 2 C 4.242989540100098 2 2 4.242989540100098 2 7 C 2 9.757009506225586 4.242989540100098 12 7 12 C 9.757009506225586 12 12 9.757009506225586 12 7 C 12 4.242989540100098 9.757009506225586 2 7 2 M 7 0 C 10.86598968505859 0 14 3.134010314941406 14 7 C 14 10.86598968505859 10.86598968505859 14 7 14 C 3.134010314941406 14 0 10.86598968505859 0 7 C 0 3.134010314941406 3.134010314941406 0 7 0 Z"/>
    </g>
    <path id="Path_22" data-name="Path 22" class="cls-8" d="M668.727,197.519H869.3v-8.67" transform="translate(27 445)"/>
  </g>
</svg>
