<svg xmlns="http://www.w3.org/2000/svg" xmlns:xlink="http://www.w3.org/1999/xlink" width="1920" height="1200" viewBox="0 0 1920 1200">
  <defs>
    <filter id="Rectangle_863" x="-9" y="804" width="1938" height="402" filterUnits="userSpaceOnUse">
      <feOffset dy="-3" input="SourceAlpha"/>
      <feGaussianBlur stdDeviation="3" result="blur"/>
      <feFlood flood-opacity="0.161"/>
      <feComposite operator="in" in2="blur"/>
      <feComposite in="SourceGraphic"/>
    </filter>
    <filter id="Rectangle_860" x="-9" y="-6" width="1938" height="90" filterUnits="userSpaceOnUse">
      <feOffset dy="3" input="SourceAlpha"/>
      <feGaussianBlur stdDeviation="3" result="blur-2"/>
      <feFlood flood-opacity="0.161"/>
      <feComposite operator="in" in2="blur-2"/>
      <feComposite in="SourceGraphic"/>
    </filter>
    <filter id="Union_44" x="908" y="166.375" width="434" height="549.073" filterUnits="userSpaceOnUse">
      <feOffset dy="3" input="SourceAlpha"/>
      <feGaussianBlur stdDeviation="3" result="blur-3"/>
      <feFlood flood-opacity="0.553"/>
      <feComposite operator="in" in2="blur-3"/>
      <feComposite in="SourceGraphic"/>
    </filter>
    <filter id="Union_46" x="146" y="30.375" width="618" height="396.626" filterUnits="userSpaceOnUse">
      <feOffset dy="3" input="SourceAlpha"/>
      <feGaussianBlur stdDeviation="3" result="blur-4"/>
      <feFlood flood-opacity="0.553"/>
      <feComposite operator="in" in2="blur-4"/>
      <feComposite in="SourceGraphic"/>
    </filter>
    <filter id="Union_45" x="146" y="455.375" width="618" height="396.626" filterUnits="userSpaceOnUse">
      <feOffset dy="3" input="SourceAlpha"/>
      <feGaussianBlur stdDeviation="3" result="blur-5"/>
      <feFlood flood-opacity="0.545"/>
      <feComposite operator="in" in2="blur-5"/>
      <feComposite in="SourceGraphic"/>
    </filter>
    <clipPath id="clip-UTB_-_Web">
      <rect width="1920" height="1200"/>
    </clipPath>
  </defs>
  <g id="UTB_-_Web" data-name="UTB - Web" clip-path="url(#clip-UTB_-_Web)">
    <rect width="1920" height="1200" fill="#fff"/>
    <g transform="matrix(1, 0, 0, 1, 0, 0)" filter="url(#Rectangle_863)">
      <rect id="Rectangle_863-2" data-name="Rectangle 863" width="1920" height="384" transform="translate(0 816)" fill="#f8f9fa"/>
    </g>
    <g transform="matrix(1, 0, 0, 1, 0, 0)" filter="url(#Rectangle_860)">
      <rect id="Rectangle_860-2" data-name="Rectangle 860" width="1920" height="72" fill="#f8f9fa"/>
    </g>
    <g id="Group_767" data-name="Group 767" transform="translate(30 17)">
      <path id="E" d="M11.934,157.893l-2.064,9.483H30.323l-2.307,6.673H.4L8.778,136h28.47l-2.307,6.673H15.273l-1.881,8.6H31.419l-2.368,6.614Z" transform="translate(-0.4 -136)" fill="#336" fill-rule="evenodd"/>
      <path id="A" d="M133.087,136h9.895l6.066,35.59v.82a2.114,2.114,0,0,1-.576,1.054q-.517.585-.638.585H124.648l3.764-6.614h11.837l-3.639-22.129L120.28,174.047h-8.44Z" transform="translate(-91.147 -136)" fill="#d61515" fill-rule="evenodd"/>
    </g>
    <g id="Group_769" data-name="Group 769" transform="translate(932.396 12)">
      <g id="EANews1" transform="translate(0 0)">
        <path id="Path_1709" data-name="Path 1709" d="M15.266-22.763H12.655l-1.894,8.812L7.172-22.763H4.361L1.61-9.8H4.224l1.811-8.533L9.644-9.8h2.871Zm8.513,7.456.78-2.253H18.636l.618-2.931h6.459l.758-2.273H17.12L14.369-9.8H23.44l.758-2.273H17.479l.678-3.23ZM36.857-9.8l-.9-8.433L31.215-9.8H29.082L27.707-22.763h2.871l.7,7.855,4.306-7.855h2.691l.758,7.875,4.326-7.875h2.97L39.01-9.8Zm7.875,0,.478-2.273h5.3a1.088,1.088,0,0,0,1.176-.9,1.082,1.082,0,0,0-.13-.469,3.521,3.521,0,0,0-.229-.349v.02l-3.848-3.907a1.923,1.923,0,0,1-.5-.867,3.531,3.531,0,0,1-.14-.927q0-.159.01-.259t.03-.2v-.04a3.562,3.562,0,0,1,.6-1.455,3.1,3.1,0,0,1,.947-.854,3.408,3.408,0,0,1,1.107-.4,6.463,6.463,0,0,1,1.1-.1H56.3l-.478,2.293H50.634a1.562,1.562,0,0,0-.738.19q-.359.189-.4.409l-.06.2.02-.057v.08a.823.823,0,0,0,.149.419,3.9,3.9,0,0,0,.4.518q.249.279.578.608t.69.668q.518.5,1.057,1.047a13.812,13.812,0,0,1,.987,1.116,5.938,5.938,0,0,1,.725,1.16,2.807,2.807,0,0,1,.279,1.2q0,.14-.01.249a1.98,1.98,0,0,1-.03.209,4.557,4.557,0,0,1-.359.977,3.4,3.4,0,0,1-.609.854,2.913,2.913,0,0,1-.857.612,2.478,2.478,0,0,1-1.069.228Z" transform="translate(26.078 39.94)" fill="#336"/>
        <path id="Path_17" data-name="Path 17" d="M61.8,47.674h0c.114-.083.228-.168.334-.254l.208-.161.075-.056.008-.006c.132-.1.268-.2.4-.305.474-.376.924-.756,1.336-1.128.018-.016.036-.031.057-.046a.651.651,0,0,0,.062-.053c.429-.393.871-.829,1.353-1.333.09-.095.179-.194.265-.289l.121-.134c.321-.351.627-.7.911-1.047l.076-.093c.1-.125.211-.256.314-.386.317-.4.627-.819.954-1.28.03-.042.06-.084.09-.124l.114-.154c.346-.505.694-1.054,1.036-1.632.061-.1.12-.21.177-.313.03-.056.063-.112.1-.172.043-.077.088-.154.132-.23.1-.168.2-.346.293-.523l.181.1h0c.148.083.3.168.448.258l.162.1c.109.066.222.134.332.2.481.307.941.623,1.367.939l.071.049a.854.854,0,0,1,.076.056c.446.334.911.712,1.424,1.156.105.092.211.189.312.281h0l.12.112c.16.145.318.3.47.446h0l.107.1A25.294,25.294,0,0,1,69,45.7,25.944,25.944,0,0,1,61.8,47.674Zm-6.672,0A25.916,25.916,0,0,1,47.941,45.7a25.284,25.284,0,0,1-6.286-3.938l.1-.094c.159-.154.324-.314.49-.466l.141-.13c.091-.084.185-.168.279-.252.513-.443.979-.822,1.429-1.159.022-.017.045-.032.067-.047h0c.022-.015.046-.031.068-.048.433-.32.9-.638,1.378-.946.114-.075.237-.147.353-.216h0l.136-.082c.156-.095.318-.186.476-.274l.155-.087c.093.177.193.351.29.52h0c.044.077.091.157.135.236.033.056.066.118.1.175.057.1.114.2.171.3.342.58.692,1.131,1.038,1.637.037.056.077.108.114.161l.076.1c.31.441.635.877.965,1.3.124.156.252.312.377.462l.006.007c.292.353.6.709.921,1.058l.135.148h0c.079.087.16.176.242.263.484.509.928.946,1.357,1.338l.051.044h0l.051.044c.411.372.854.744,1.348,1.138.12.095.243.188.363.281h0l.109.083c.072.056.143.112.212.163.108.084.219.168.332.252Zm2.445-.407h0c-.048-.03-.1-.06-.146-.088h0l-.187-.112c-.183-.119-.375-.248-.6-.407-.342-.234-.646-.454-.934-.674-.187-.142-.387-.294-.583-.449-.264-.212-.547-.449-.89-.751l-.1-.086-.005,0c-.141-.123-.285-.25-.427-.381-.338-.314-.658-.64-.9-.888-.054-.056-.108-.11-.162-.162h0c-.088-.088-.179-.178-.265-.271-.447-.479-.848-.941-1.227-1.411a.421.421,0,0,1-.027-.036c-.366-.457-.74-.955-1.106-1.485-.076-.11-.15-.225-.22-.337-.04-.063-.083-.129-.125-.193-.224-.337-.461-.7-.688-1.086-.1-.162-.19-.331-.281-.494l-.08-.148c-.118-.213-.234-.433-.346-.646l-.006-.012.122-.06h0c.062-.03.126-.062.189-.091.133-.062.279-.127.459-.206.251-.109.52-.22.8-.329l.128-.051c.1-.041.212-.084.318-.123.264-.1.548-.2.892-.306l.123-.042h0c.079-.027.161-.056.243-.08.456-.14.875-.256,1.278-.355l.046-.01.04-.008c.395-.095.8-.182,1.2-.257l.256-.043.16-.026c.348-.056.631-.1.892-.134.157-.019.315-.037.468-.053H55.9c.3-.031.577-.056.847-.075.157-.012.321-.022.5-.031.063,0,.128-.005.19-.006l.135,0Zm1.786,0V34.853l.136,0c.062,0,.126,0,.189.006.187.01.351.02.5.031.252.017.521.041.846.075.166.018.329.035.489.056.3.038.59.085.888.134l.165.027c.084.013.171.028.256.044.408.076.811.162,1.2.256l.057.012.035.007c.423.105.854.225,1.277.355.072.022.145.047.215.071h0l.15.05c.351.112.635.211.892.307.114.041.224.085.332.129H67l.105.042c.281.112.544.218.8.33.166.072.316.139.456.2.061.028.122.056.182.088h0c.042.021.085.042.128.062l-.037.071h0c-.1.194-.207.393-.316.589l-.049.088c-.1.181-.2.368-.312.549-.242.407-.5.8-.695,1.094-.044.066-.087.134-.129.2h0c-.067.106-.137.214-.21.318-.38.547-.747,1.04-1.122,1.508l0,0,0,.005c-.367.455-.77.919-1.233,1.418-.085.092-.175.182-.262.268h0l-.158.159c-.245.252-.57.581-.906.894-.133.124-.272.245-.406.363h0l-.12.106c-.318.281-.609.527-.892.754-.194.156-.394.308-.581.449-.31.234-.627.46-.935.674-.228.157-.42.286-.6.405-.061.039-.125.077-.186.112s-.1.056-.148.089ZM40.388,40.6a24.459,24.459,0,0,1-3.506-4.308,23.22,23.22,0,0,1-2.365-4.881H44.21c.072.281.152.571.235.865.027.093.057.186.085.276h0c.018.056.036.112.057.172.136.445.244.786.353,1.1.045.13.094.26.141.386v0l.062.168c.143.389.257.686.371.964.081.2.167.393.248.581.03.068.057.138.087.2h0c.041.1.084.2.128.3-.179.1-.358.211-.53.317h0l-.24.148-.171.1h0c-.117.07-.24.142-.357.217-.6.383-1.131.747-1.622,1.113-.022.016-.043.033-.063.049s-.034.028-.051.041c-.47.354-.952.746-1.433,1.164-.109.095-.218.2-.324.292h0l-.158.145-.215.192c-.141.125-.285.254-.424.387Zm36.164,0h0c-.137-.133-.285-.262-.423-.386l-.212-.19-.132-.121c-.114-.107-.235-.217-.356-.321-.478-.414-.956-.8-1.421-1.153l-.057-.046-.069-.056c-.48-.358-1.009-.722-1.618-1.11-.117-.075-.239-.148-.357-.217l-.18-.107-.214-.131h0c-.179-.112-.363-.225-.55-.33.041-.09.08-.183.117-.273.028-.067.057-.136.086-.2l.017-.038h0c.084-.193.171-.393.251-.59.13-.319.251-.64.351-.911l.052-.139h0c.057-.151.114-.308.171-.464.124-.355.236-.722.333-1.037.018-.056.037-.116.054-.168.035-.112.072-.225.105-.337.082-.286.16-.573.232-.853h9.692a23.231,23.231,0,0,1-2.365,4.881,24.462,24.462,0,0,1-3.5,4.306ZM47.521,35.632h0l-.057-.125c-.037-.08-.075-.163-.111-.245-.08-.186-.163-.384-.248-.589-.123-.3-.235-.6-.328-.852l-.05-.137c-.053-.144-.107-.294-.158-.441-.118-.343-.224-.685-.3-.945-.019-.061-.039-.124-.057-.18-.034-.108-.069-.219-.1-.33s-.071-.252-.105-.38H57.577v1.774c-.071,0-.141.007-.21.012L57.2,33.2c-.171.008-.369.019-.57.033-.308.021-.612.051-.895.08l-.122.013c-.134.014-.274.029-.411.046-.3.039-.627.088-.983.148l-.152.024c-.089.014-.181.028-.27.044-.481.089-.95.188-1.394.3l-.03.008-.046.012c-.436.108-.871.229-1.294.359-.087.026-.175.056-.26.084l-.165.056c-.276.09-.6.2-.931.321-.167.061-.334.126-.488.188-.31.121-.59.236-.854.352-.156.067-.319.14-.5.225l-.146.065h0q-.085.036-.171.076Zm21.9,0h0c-.057-.028-.118-.056-.176-.079l-.14-.062c-.145-.067-.305-.138-.5-.225-.269-.117-.554-.234-.845-.348-.136-.056-.316-.125-.5-.192-.332-.122-.665-.233-.918-.316l-.158-.052c-.091-.03-.185-.062-.279-.09-.418-.128-.844-.247-1.269-.352L64.58,33.9h0l-.047-.012c-.449-.112-.916-.209-1.391-.3-.093-.017-.189-.032-.281-.047l-.147-.023c-.362-.06-.666-.108-.977-.148-.165-.021-.333-.038-.5-.056l-.038,0c-.326-.035-.618-.061-.893-.08-.191-.015-.385-.025-.57-.033l-.15-.01h0c-.075-.005-.152-.011-.228-.013V31.409H70.935c-.035.132-.071.26-.107.381s-.068.229-.1.337h0l-.05.161c-.114.375-.212.68-.308.958-.054.156-.114.314-.167.466l-.035.095c-.114.314-.228.6-.336.872-.076.188-.153.369-.239.569-.032.075-.067.149-.1.225h0l-.071.157ZM83.667,24.891h0v-.225h.009c0,.076-.006.151-.01.225Zm.007-1.881h-.007v-.181c0,.061.005.121.007.181Zm-1.219-6.65H72.748c-.1-.384-.178-.694-.258-.974-.036-.125-.077-.252-.114-.374l-.071-.225c-.092-.3-.191-.618-.3-.934-.057-.159-.114-.319-.171-.473l-.063-.168c-.1-.256-.209-.558-.334-.864-.089-.217-.181-.428-.275-.644-.027-.061-.053-.124-.078-.185-.038-.09-.076-.183-.114-.272.177-.1.351-.207.52-.311l.253-.156.171-.108q.171-.1.342-.207c.6-.381,1.131-.746,1.626-1.116l.046-.037.046-.037c.477-.359.968-.757,1.455-1.179.107-.093.214-.191.316-.285h0l.159-.146.215-.193c.142-.126.289-.256.428-.393a24.455,24.455,0,0,1,3.532,4.35A23.217,23.217,0,0,1,82.454,16.36Zm-11.492,0h-11.6V14.493c.071,0,.142-.007.211-.012l.171-.011c.208-.01.394-.021.57-.033.259-.018.534-.042.89-.08l.114-.012h.005c.138-.015.281-.029.422-.047.281-.035.577-.08.962-.145l.149-.024c.1-.015.2-.03.3-.049.486-.09.938-.186,1.383-.294l.071-.019.07-.019c.427-.107.84-.225,1.228-.341.105-.031.211-.067.313-.1l.142-.047c.35-.112.635-.212.9-.308.157-.056.316-.12.471-.18l.041-.016c.285-.112.57-.228.832-.343.191-.083.358-.157.513-.225l.144-.063q.085-.036.171-.076l.069.151h0c.036.077.072.157.107.236.087.2.164.385.235.557.11.27.22.558.342.879l.014.038h0c.063.168.128.344.189.517.1.281.191.575.308.961l.053.168h0c.034.107.068.217.1.327.044.155.088.316.131.477Zm-13.386,0h-11.6c.044-.165.088-.325.132-.478.031-.109.066-.218.1-.325h0l.052-.168c.09-.293.2-.634.31-.966.057-.173.124-.347.186-.516l.015-.04c.1-.281.215-.577.337-.876.069-.168.145-.35.238-.567.035-.082.073-.164.11-.243l.063-.138c.057.028.118.056.176.079l.136.06c.178.081.35.158.513.228.257.112.53.225.835.344l.079.031h.008c.138.056.28.112.42.162.328.121.655.23.9.31l.154.051h0c.1.033.2.066.3.1.4.122.816.238,1.239.344l.06.016.068.019c.438.107.891.2,1.386.295.088.016.179.03.266.044h0l.174.028c.285.047.62.1.965.145.136.017.274.031.407.046l.132.014c.324.034.615.061.89.08.181.013.373.024.57.033.057,0,.114.007.167.011h0c.069,0,.14.01.21.012v1.87Zm-13.392,0h-9.7a23.207,23.207,0,0,1,2.37-4.932,24.437,24.437,0,0,1,3.532-4.35c.134.13.276.256.412.377.075.066.152.135.228.2l.141.13c.11.1.224.207.342.306.49.425.979.822,1.454,1.179.018.013.035.028.052.042l.041.033c.492.367,1.025.73,1.627,1.116.114.074.235.144.352.213h0l.165.1.256.158h0c.171.106.345.213.522.312-.044.1-.085.2-.126.294h0c-.028.069-.057.14-.089.209v.005c-.082.189-.167.385-.247.579-.114.281-.231.585-.369.955l-.06.162c-.049.131-.1.267-.146.4-.128.367-.243.737-.347,1.082-.019.061-.038.122-.057.182h0c-.03.092-.057.188-.087.281-.094.328-.181.65-.259.955Zm13.393-3.538h0l-.135,0c-.062,0-.125,0-.188-.006-.165-.008-.33-.019-.506-.031-.269-.019-.544-.044-.842-.075h0c-.161-.017-.328-.035-.492-.056-.318-.04-.637-.092-.88-.133l-.164-.026c-.088-.013-.178-.028-.266-.044-.373-.069-.762-.152-1.158-.247l-.064-.014-.067-.015c-.406-.1-.821-.215-1.267-.352-.081-.025-.163-.053-.243-.08h0l-.153-.051c-.253-.083-.553-.182-.86-.295-.137-.051-.275-.106-.409-.158l-.063-.025c-.285-.112-.534-.215-.768-.316-.143-.062-.3-.131-.489-.219-.061-.028-.122-.056-.181-.086l-.114-.056.038-.071c.1-.193.206-.393.314-.584l.076-.136h0c.093-.168.189-.341.289-.505.228-.38.465-.747.69-1.088l.124-.191c.071-.112.144-.225.22-.334.365-.527.74-1.028,1.11-1.49l.012-.015h0l.008-.011c.377-.467.791-.943,1.23-1.416.087-.094.179-.186.269-.275.053-.053.107-.107.16-.161.279-.286.581-.591.9-.885.129-.12.263-.238.393-.35h0l.139-.122c.324-.285.613-.53.886-.749.2-.158.394-.308.586-.453.3-.229.617-.454.931-.669.177-.122.387-.266.608-.407.065-.042.133-.083.2-.121.044-.026.089-.053.133-.08Zm1.787,0h0V.411l.15.091h0c.057.035.119.071.178.108.214.139.427.285.615.413h0c.316.216.627.439.922.663.19.143.393.3.592.459.271.217.56.462.882.745l.136.119c.132.116.269.235.4.357.325.3.638.618.9.89l.157.158h0c.089.088.18.179.267.273a26.655,26.655,0,0,1,2.364,2.937c.072.1.141.211.207.316.04.063.082.128.124.192.2.3.456.7.7,1.106.1.162.19.33.28.492h0l.073.132c.1.168.187.344.276.513h0l.08.153-.114.056c-.062.03-.125.062-.189.09-.191.088-.338.153-.478.213-.243.106-.5.213-.778.321l-.136.053c-.108.042-.219.086-.329.126-.26.1-.543.193-.867.3l-.156.052h0c-.076.026-.154.053-.232.076-.436.134-.864.253-1.27.353l-.069.015h0L64,12.2c-.389.093-.78.176-1.16.247-.091.017-.184.031-.274.046h0l-.156.025c-.342.056-.62.1-.879.133-.153.019-.309.036-.46.052h0l-.032,0c-.276.03-.559.056-.841.075-.175.013-.354.023-.506.031-.057,0-.12,0-.179.006l-.142.005Zm-12.635-3.1h0l-.185-.1c-.145-.082-.3-.168-.441-.254l-.124-.074c-.122-.074-.249-.149-.373-.229-.509-.326-.968-.64-1.4-.96l-.049-.034L44.1,8.021c-.451-.337-.919-.718-1.433-1.164-.092-.079-.183-.163-.271-.245-.047-.044-.1-.089-.145-.133-.157-.143-.313-.294-.465-.44h0l-.124-.12a25.284,25.284,0,0,1,6.284-3.94A25.955,25.955,0,0,1,55.135,0c-.117.084-.234.175-.346.262-.066.052-.134.105-.2.156L54.471.5h0c-.117.089-.238.18-.354.273-.488.387-.928.758-1.345,1.136l-.045.038h0a.641.641,0,0,0-.062.056c-.433.393-.877.832-1.355,1.335-.092.1-.185.2-.273.3h0l-.111.122c-.315.344-.622.7-.911,1.05l-.044.053c-.114.138-.232.281-.346.425-.326.414-.648.842-.956,1.282-.031.044-.064.089-.1.131s-.071.1-.1.145c-.35.512-.69,1.046-1.037,1.634-.057.095-.111.193-.163.288-.035.063-.071.128-.108.192l-.134.235h0c-.1.168-.2.344-.291.52Zm23.483,0h0c-.093-.177-.195-.353-.292-.523h0c-.044-.076-.089-.154-.133-.232-.032-.056-.064-.112-.1-.168h0c-.057-.1-.114-.207-.175-.309-.358-.6-.7-1.138-1.037-1.634-.035-.051-.072-.1-.108-.149h0c-.029-.039-.057-.08-.088-.121-.3-.431-.627-.865-.961-1.292-.129-.163-.265-.327-.385-.472-.3-.361-.6-.715-.92-1.058l-.117-.13h0c-.084-.093-.171-.19-.26-.281-.493-.516-.937-.955-1.357-1.338l-.05-.043h0c-.015-.012-.03-.025-.044-.039-.417-.379-.863-.753-1.359-1.146-.127-.1-.257-.2-.384-.295l-.087-.07c-.073-.056-.148-.112-.219-.168C62.031.168,61.92.081,61.807,0A25.964,25.964,0,0,1,69,1.978a25.289,25.289,0,0,1,6.285,3.938l-.137.133,0,0c-.145.14-.3.286-.447.423-.054.049-.108.1-.16.148-.084.077-.171.157-.257.232-.509.441-.976.821-1.43,1.161l-.07.049a.679.679,0,0,0-.057.042c-.432.32-.9.639-1.381.949-.12.076-.244.151-.365.225h0l-.132.08c-.146.088-.3.173-.442.255h0l-.178.1Z" transform="translate(-10.543 0)" fill="#707070"/>
        <path id="E-2" data-name="E" d="M6.9,148.792l-1.163,5.541H17.26l-1.3,3.9H.4L5.12,136H21.162l-1.3,3.9H8.78l-1.06,5.028H17.878l-1.334,3.865Z" transform="translate(-0.4 -123.3)" fill="#336" fill-rule="evenodd"/>
        <path id="A-2" data-name="A" d="M123.811,136h5.575l3.418,20.8v.479a1.249,1.249,0,0,1-.325.616q-.291.342-.359.342H119.057l2.121-3.865h6.67l-2.051-12.93-9.2,16.794H111.84Z" transform="translate(-99.928 -123.3)" fill="#d61515" fill-rule="evenodd"/>
      </g>
      <g id="DMSLogo" transform="translate(109.888 11.952)">
        <path id="Path_1690" data-name="Path 1690" d="M13.982-15.208a6.082,6.082,0,0,1-1.7,3.4,4.214,4.214,0,0,1-2.86,1.028H9.289a2.957,2.957,0,0,1-2.033-.638,2.642,2.642,0,0,1-.715-2.067,8.013,8.013,0,0,1,.2-1.654l1.634-7.618H5.4L3.748-14.985q-.089.469-.134.916t-.045.871A5.327,5.327,0,0,0,4-10.94,4.793,4.793,0,0,0,5.1-9.4a4.214,4.214,0,0,0,1.452.883,4.6,4.6,0,0,0,1.531.279H9.759a6.344,6.344,0,0,0,2.078-.383A6.931,6.931,0,0,0,13.926-9.8,8.127,8.127,0,0,0,15.7-11.867,9.513,9.513,0,0,0,16.868-14.9l1.673-7.865h-2.95Zm3.531,6.972.536-2.547h5.944a1.219,1.219,0,0,0,1.318-1.006,1.213,1.213,0,0,0-.146-.525,3.946,3.946,0,0,0-.255-.391v.022L20.6-17.063a2.155,2.155,0,0,1-.559-.972,3.958,3.958,0,0,1-.156-1.039q0-.179.011-.29a2.245,2.245,0,0,1,.033-.223v-.045a3.993,3.993,0,0,1,.67-1.631,3.474,3.474,0,0,1,1.062-.958,3.82,3.82,0,0,1,1.24-.447,7.244,7.244,0,0,1,1.229-.112h6.346l-.536,2.57h-5.81A1.751,1.751,0,0,0,23.3-20q-.4.212-.447.458l-.067.223.022-.064v.089a.922.922,0,0,0,.168.469,4.367,4.367,0,0,0,.447.581q.28.313.648.682t.769.741q.581.559,1.184,1.173a15.481,15.481,0,0,1,1.106,1.251,6.655,6.655,0,0,1,.815,1.308,3.147,3.147,0,0,1,.313,1.341q0,.156-.011.28a2.221,2.221,0,0,1-.034.234,5.107,5.107,0,0,1-.4,1.095,3.812,3.812,0,0,1-.681.96,3.265,3.265,0,0,1-.961.683,2.778,2.778,0,0,1-1.2.255Zm17.63-11.977L32.6-8.237h-2.95l3.106-14.524h6.86a4.323,4.323,0,0,1,3.061.916,3.32,3.32,0,0,1,.958,2.525,5.957,5.957,0,0,1-.134,1.251,4.56,4.56,0,0,1-1.028,2.089,7.347,7.347,0,0,1-1.844,1.532,9.124,9.124,0,0,1-2.257.95,9.372,9.372,0,0,1-2.245.346l-.268-2.592a7.8,7.8,0,0,0,1.826-.2,5.816,5.816,0,0,0,1.463-.548,3.465,3.465,0,0,0,1.006-.8,2.273,2.273,0,0,0,.492-.972v-.045a2.118,2.118,0,0,0,.064-.514,1.289,1.289,0,0,0-.168-.693,1.377,1.377,0,0,0-.4-.425,1.457,1.457,0,0,0-.469-.213,1.675,1.675,0,0,0-.346-.056Zm7.91,11.977.536-2.547h5.944a1.219,1.219,0,0,0,1.318-1.006,1.213,1.213,0,0,0-.146-.525,3.946,3.946,0,0,0-.257-.391v.022l-4.313-4.38a2.155,2.155,0,0,1-.559-.972,3.959,3.959,0,0,1-.156-1.039q0-.179.011-.29t.033-.223v-.045a3.993,3.993,0,0,1,.67-1.631,3.474,3.474,0,0,1,1.061-.958,3.82,3.82,0,0,1,1.24-.447,7.244,7.244,0,0,1,1.229-.112h6.346l-.536,2.57h-5.81a1.751,1.751,0,0,0-.83.213q-.4.212-.447.458l-.064.223.022-.064v.089a.922.922,0,0,0,.168.469,4.368,4.368,0,0,0,.447.581q.279.313.648.682t.774.741q.581.559,1.184,1.173a15.479,15.479,0,0,1,1.106,1.251,6.654,6.654,0,0,1,.813,1.307,3.147,3.147,0,0,1,.313,1.341q0,.156-.011.28a2.219,2.219,0,0,1-.033.234,5.107,5.107,0,0,1-.4,1.095,3.812,3.812,0,0,1-.682.961,3.265,3.265,0,0,1-.96.683,2.778,2.778,0,0,1-1.2.255Z" transform="translate(25.148 23.691)" fill="#336"/>
        <path id="Path_1691" data-name="Path 1691" d="M16.4-16.013a6.99,6.99,0,0,0,.145-.972q.034-.458.034-.883a5.567,5.567,0,0,0-.4-2.223,4.387,4.387,0,0,0-1.05-1.519,4.157,4.157,0,0,0-1.452-.871,4.941,4.941,0,0,0-1.631-.279H4.694L1.61-8.237H9.073A7.17,7.17,0,0,0,11.4-8.62,6.213,6.213,0,0,0,13.453-9.8a7.32,7.32,0,0,0,1.631-2.067A11.173,11.173,0,0,0,16.16-14.9Zm-2.95,0-.179.8a6.852,6.852,0,0,1-.727,2.023,5.176,5.176,0,0,1-1.106,1.374,4.008,4.008,0,0,1-1.385.782,5.122,5.122,0,0,1-1.587.246h-3.4l2.011-9.43h3.508a4.46,4.46,0,0,1,1.207.156,2.554,2.554,0,0,1,.961.492,2.323,2.323,0,0,1,.638.871,3.224,3.224,0,0,1,.235,1.3,4.621,4.621,0,0,1-.045.569Q13.542-16.482,13.453-16.013Zm21.384-6.748L31.709-8.237H28.782l1.765-8.312L25.452-8.237H23.31l-1.679-8.67-1.855,8.67h-2.95l3.106-14.524h3.486l1.922,9.519,5.676-9.519ZM33.809-8.237l.536-2.547h5.944a1.219,1.219,0,0,0,1.318-1.006,1.213,1.213,0,0,0-.146-.525,3.947,3.947,0,0,0-.257-.391v.022l-4.313-4.38a2.155,2.155,0,0,1-.559-.972,3.958,3.958,0,0,1-.156-1.039q0-.179.011-.29t.033-.223v-.045a3.993,3.993,0,0,1,.67-1.631,3.474,3.474,0,0,1,1.062-.958,3.82,3.82,0,0,1,1.24-.447,7.244,7.244,0,0,1,1.229-.112H46.77l-.536,2.57H40.42a1.751,1.751,0,0,0-.827.213q-.4.212-.447.458l-.067.223.022-.064v.089a.922.922,0,0,0,.168.469,4.368,4.368,0,0,0,.447.581q.28.313.648.682t.771.748q.581.559,1.184,1.173a15.479,15.479,0,0,1,1.106,1.251,6.655,6.655,0,0,1,.818,1.3,3.147,3.147,0,0,1,.313,1.341q0,.156-.011.28a2.221,2.221,0,0,1-.034.234,5.107,5.107,0,0,1-.4,1.095,3.812,3.812,0,0,1-.681.961,3.265,3.265,0,0,1-.961.683,2.778,2.778,0,0,1-1.2.255Z" transform="translate(83.953 23.691)" fill="#707070"/>
        <path id="Path_1689" data-name="Path 1689" d="M6-5.858a2.554,2.554,0,0,0,.053-.356q.012-.167.012-.323a2.036,2.036,0,0,0-.147-.813,1.6,1.6,0,0,0-.383-.555A1.52,1.52,0,0,0,5-8.225a1.807,1.807,0,0,0-.6-.1H1.716L.589-3.014H3.318a2.622,2.622,0,0,0,.853-.139,2.272,2.272,0,0,0,.749-.435,2.677,2.677,0,0,0,.6-.753,4.086,4.086,0,0,0,.392-1.107Zm-1.079,0-.064.294a2.506,2.506,0,0,1-.266.739,1.893,1.893,0,0,1-.4.5,1.468,1.468,0,0,1-.507.286,1.873,1.873,0,0,1-.58.09H1.856l.735-3.448H3.874a1.631,1.631,0,0,1,.441.057.935.935,0,0,1,.351.18.85.85,0,0,1,.233.319,1.179,1.179,0,0,1,.086.474,1.691,1.691,0,0,1-.017.208q-.016.125-.049.3ZM10-5.269l.319-.923H7.9l.255-1.2H10.8l.31-.931H7.279L6.146-3.014H9.864l.308-.931H7.421L7.7-5.27Zm2.909-3.057H11.85L10.731-3.014h3.677l.319-.931H11.989Zm7.641,0H16.418l-.2.931h1.528L17-3.946H15.478l-.2.931h4.143l.2-.931H18.085l.735-3.448h1.536Zm1.258,5.312-.766-5.312h1.149l.433,3.473,2.1-3.473h1.242l-3.3,5.312ZM29.174-5.27l.319-.923H27.067l.255-1.2h2.641l.31-.931H26.444L25.317-3.014h3.718l.31-.931H26.592l.278-1.324ZM29.9-3.014l1.136-5.312h2.509a1.866,1.866,0,0,1,1.1.274,1.046,1.046,0,0,1,.383.911q0,.139-.012.266t-.029.241a1.991,1.991,0,0,1-.213.58,1.986,1.986,0,0,1-.356.462,2.471,2.471,0,0,1-.458.347,2.371,2.371,0,0,1-.519.229l.9,2H33.254L32.108-5.67a.8.8,0,0,1,.172-.106.362.362,0,0,1,.114-.017,2.14,2.14,0,0,0,.981-.2,1.085,1.085,0,0,0,.548-.695V-6.7a.775.775,0,0,0,.024-.188.472.472,0,0,0-.064-.255.5.5,0,0,0-.147-.155.533.533,0,0,0-.172-.078.612.612,0,0,0-.128-.02H31.912L30.98-3.014Zm7.454,0,.425-2.043,2.713-3.269H39.226L37.46-6.185l-.866-2.141H35.426l1.291,3.252-.433,2.06ZM50-8.326,48.853-3.014H47.782l.645-3.04-1.864,3.04H45.78l-.613-3.17-.679,3.17H43.409l1.136-5.312h1.277l.7,3.481L48.6-8.326Zm-.645,5.312h1.136l2.2-4.013.49,3.089h-1.6l-.5.924H54.2q.017,0,.086-.082a.3.3,0,0,0,.078-.147v-.115l-.817-4.968H52.211Zm11.1-5.312H59.378L58.6-4.714,57.133-8.326H55.984L54.851-3.014h1.071l.744-3.5,1.479,3.5H59.32Zm-.638,5.312h1.136l2.2-4.013.49,3.089h-1.6l-.5.924h3.122q.017,0,.086-.082a.3.3,0,0,0,.078-.147v-.115L64-8.326H62.671ZM66.471-5a.985.985,0,0,0,.3.805,1.206,1.206,0,0,0,.793.249h1.2l.262-1.217H67.821l.351-.923h1.5a.422.422,0,0,1,.376.167.658.658,0,0,1,.114.383.808.808,0,0,1-.008.139.033.033,0,0,0-.008.024v.008l-.36,1.712a.866.866,0,0,1-.255.447.623.623,0,0,1-.441.188H67.065a1.9,1.9,0,0,1-.613-.1,1.477,1.477,0,0,1-.539-.323A1.706,1.706,0,0,1,65.525-4a1.936,1.936,0,0,1-.151-.8,3,3,0,0,1,.02-.347,2.989,2.989,0,0,1,.064-.347v.008l.09-.409A3.541,3.541,0,0,1,65.972-7a2.992,2.992,0,0,1,.638-.756,2.447,2.447,0,0,1,.752-.433,2.306,2.306,0,0,1,.766-.139h2.231l-.2.931H68.334a1.906,1.906,0,0,0-.555.082,1.479,1.479,0,0,0-.5.269,1.769,1.769,0,0,0-.409.486,2.4,2.4,0,0,0-.266.732l-.064.286q-.033.163-.049.294A1.98,1.98,0,0,0,66.471-5Zm7.8-.269.319-.923H72.16l.255-1.2h2.648l.31-.931H71.543L70.41-3.014h3.718l.31-.931H71.684l.278-1.324Zm7.322-3.057L80.445-3.014H79.374l.643-3.04-1.86,3.04h-.785l-.613-3.17-.678,3.17H75l1.136-5.312h1.277l.7,3.481,2.076-3.481ZM85.07-5.27l.319-.923H82.964l.255-1.2h2.648l.31-.931H82.346L81.214-3.014h3.72l.31-.931H82.488l.278-1.324ZM91.4-8.326H90.333l-.776,3.612L88.088-8.326H86.939L85.806-3.014h1.071l.744-3.5,1.479,3.5h1.177Zm5.107,0H92.163l-.2.931H93.61l-.931,4.38h1.071l.923-4.38h1.643Zm3.228,5.312.2-.931h2.171a.447.447,0,0,0,.482-.368.442.442,0,0,0-.053-.192,1.443,1.443,0,0,0-.094-.143v.008l-1.577-1.6a.788.788,0,0,1-.2-.356,1.448,1.448,0,0,1-.057-.383q0-.064,0-.106a.713.713,0,0,1,.012-.082v-.017a1.46,1.46,0,0,1,.245-.6,1.27,1.27,0,0,1,.388-.351A1.4,1.4,0,0,1,101.7-8.3a2.649,2.649,0,0,1,.447-.041h2.321l-.2.94h-2.118a.638.638,0,0,0-.3.078q-.147.078-.163.167l-.024.082.008-.024v.033a.337.337,0,0,0,.064.172,1.594,1.594,0,0,0,.163.213q.1.114.237.249t.282.274q.213.2.433.429a5.662,5.662,0,0,1,.4.458,2.433,2.433,0,0,1,.3.478,1.149,1.149,0,0,1,.114.49q0,.057,0,.1a.81.81,0,0,1-.012.086,1.869,1.869,0,0,1-.147.4,1.4,1.4,0,0,1-.249.351,1.194,1.194,0,0,1-.351.249,1.016,1.016,0,0,1-.437.094Zm7.208,0,.425-2.043,2.713-3.269h-1.267l-1.765,2.141-.867-2.141h-1.168l1.291,3.252-.435,2.06Zm2.46,0,.2-.931h2.171a.447.447,0,0,0,.482-.368.443.443,0,0,0-.053-.192,1.447,1.447,0,0,0-.094-.143v.008l-1.574-1.6a.788.788,0,0,1-.2-.356,1.447,1.447,0,0,1-.057-.383q0-.064,0-.106a.71.71,0,0,1,.012-.082v-.017a1.46,1.46,0,0,1,.245-.6,1.271,1.271,0,0,1,.388-.351,1.4,1.4,0,0,1,.453-.163,2.649,2.649,0,0,1,.447-.041h2.321l-.2.94h-2.125a.638.638,0,0,0-.3.078q-.147.078-.163.167l-.024.082.008-.024v.033a.337.337,0,0,0,.064.172,1.6,1.6,0,0,0,.163.213q.1.114.237.249t.282.274q.213.2.433.429a5.661,5.661,0,0,1,.4.458,2.433,2.433,0,0,1,.3.478,1.149,1.149,0,0,1,.114.49q0,.057,0,.1a.812.812,0,0,1-.012.086,1.869,1.869,0,0,1-.147.4,1.394,1.394,0,0,1-.249.351,1.194,1.194,0,0,1-.351.249,1.016,1.016,0,0,1-.437.094Zm9.912-5.312h-4.348l-.2.931h1.643l-.931,4.38h1.071l.923-4.38h1.643Zm3.5,3.056.319-.923H120.71l.255-1.2h2.648l.31-.931h-3.831l-1.131,5.312h3.718l.31-.931h-2.754l.278-1.324Zm7.322-3.056-1.144,5.312h-1.071l.645-3.04-1.863,3.04h-.786l-.613-3.17-.677,3.17h-1.079l1.136-5.312h1.277l.7,3.481,2.076-3.481Z" transform="translate(-0.589 27.407)" fill="#707070"/>
        <path id="Path_1692" data-name="Path 1692" d="M.42-4.879A2.42,2.42,0,0,1,.711-6.048,2.183,2.183,0,0,1,1.519-6.9a2.125,2.125,0,0,1,1.115-.31,2.125,2.125,0,0,1,1.115.31,2.183,2.183,0,0,1,.809.849,2.42,2.42,0,0,1,.29,1.169,2.411,2.411,0,0,1-.3,1.177,2.21,2.21,0,0,1-.809.849,2.111,2.111,0,0,1-1.108.31,2.107,2.107,0,0,1-1.115-.313,2.213,2.213,0,0,1-.806-.851A2.416,2.416,0,0,1,.42-4.879Zm4.043,0a2.033,2.033,0,0,0-.234-.961,1.827,1.827,0,0,0-.661-.711,1.732,1.732,0,0,0-.935-.269,1.757,1.757,0,0,0-.921.255,1.811,1.811,0,0,0-.667.707A2.023,2.023,0,0,0,.8-4.879a2.033,2.033,0,0,0,.241.979,1.834,1.834,0,0,0,.667.709,1.738,1.738,0,0,0,.924.26A1.731,1.731,0,0,0,3.56-3.2a1.826,1.826,0,0,0,.666-.714A2.043,2.043,0,0,0,4.463-4.879Zm-2.279.237v1.051H1.713V-6.24h.876a1.169,1.169,0,0,1,.742.213.727.727,0,0,1,.271.607.6.6,0,0,1-.352.543.55.55,0,0,1,.266.269,1.062,1.062,0,0,1,.077.428q0,.255.011.361a.6.6,0,0,0,.042.177v.05H3.163a2.48,2.48,0,0,1-.04-.6.474.474,0,0,0-.1-.342.469.469,0,0,0-.343-.1Zm0-.418h.424a.665.665,0,0,0,.379-.1.3.3,0,0,0,.148-.262.383.383,0,0,0-.11-.313.657.657,0,0,0-.4-.1h-.44Z" transform="translate(81.83 7.207)" fill="#707070"/>
        <g id="Group_1481" data-name="Group 1481" transform="translate(0.953 0.616)">
          <path id="Path_1688" data-name="Path 1688" d="M308.608,61.514h23.285l-3.679,16.754H304.975Z" transform="translate(-304.975 -61.514)" fill="#fff"/>
          <g id="Group_1479" data-name="Group 1479" transform="translate(0.733 0.403)">
            <path id="Path_185" data-name="Path 185" d="M9.712,6.9h22.3L28.6,22.884,8.4,22.775l19.7-7.632s2.187-3.455.328-4.022l-2.383-.044s0-.525-2.646-.962Z" transform="translate(-6.563 -6.9)" fill="#336"/>
            <path id="Path_186" data-name="Path 186" d="M2.49,24.5H16.727s2.231.328,2.056.853l2.383.219s.962.328-.459,2.231l-.064.044.372-1.421-4.395.087,2.165-.744L9.251,25.55,10.783,29.9l4.548-1.64a10.52,10.52,0,0,1,4.614-.894l.043.481a25.185,25.185,0,0,0-3.98,1.115S8.6,32.029,7.743,32.507L0,36.461Z" transform="translate(0 -20.652)" fill="#336"/>
          </g>
        </g>
      </g>
      <g id="Group_750" data-name="Group 750" transform="translate(267.903 11.952)">
        <rect id="Rectangle_1" data-name="Rectangle 1" width="7.06" height="24.246" transform="translate(0 0)" fill="#707070"/>
        <path id="Path_1" data-name="Path 1" d="M165.82,118h7.759l4.117,17.121L182.341,118h7.753l-7.756,24.393h-8.758Z" transform="translate(-155.44 -118)" fill="#707070"/>
        <g id="Group_749" data-name="Group 749" transform="translate(36.029 0.5)">
          <g id="Ellipse_1" data-name="Ellipse 1" fill="none" stroke="#336" stroke-width="1">
            <ellipse cx="3.756" cy="3.756" rx="3.756" ry="3.756" stroke="none"/>
            <ellipse cx="3.756" cy="3.756" rx="3.256" ry="3.256" fill="none"/>
          </g>
          <path id="Path_2" data-name="Path 2" d="M2.381-15.644v-.929h.795a.557.557,0,0,1,.374.109.44.44,0,0,1,.125.349.46.46,0,0,1-.124.36.547.547,0,0,1-.374.111Zm-.725-1.492v3.3h.725v-1.29h.725a.539.539,0,0,1,.393.12.654.654,0,0,1,.157.38q.028.2.042.416a1.277,1.277,0,0,0,.077.374H4.5A.485.485,0,0,1,4.422-14a1.457,1.457,0,0,1-.037-.21q-.011-.111-.016-.217t-.009-.182a1.983,1.983,0,0,0-.035-.25.839.839,0,0,0-.079-.228.628.628,0,0,0-.143-.182.56.56,0,0,0-.223-.113V-15.4a.77.77,0,0,0,.4-.323.992.992,0,0,0,.122-.5.925.925,0,0,0-.067-.353.852.852,0,0,0-.194-.289.92.92,0,0,0-.305-.2,1.062,1.062,0,0,0-.4-.072Z" transform="translate(0.825 19.137)" fill="#336" stroke="rgba(0,0,0,0)" stroke-width="0.75"/>
        </g>
      </g>
      <g id="SVweb" transform="translate(338.488 10.352)">
        <path id="Path_1694" data-name="Path 1694" d="M17.656-33.81a.761.761,0,0,0-.7.513L13.114-18.245,9.27-33.3a.761.761,0,0,0-.7-.513H.4a.367.367,0,0,0-.329.149.367.367,0,0,0-.037.36L8.426-9.052a.753.753,0,0,0,.659.513h8.058a.753.753,0,0,0,.659-.513L26.189-33.3a.367.367,0,0,0-.037-.36.367.367,0,0,0-.329-.149Z" transform="translate(12.721 34.558)" fill="#707070" opacity="0.536"/>
        <path id="Path_1693" data-name="Path 1693" d="M1.272-11.251c-.11.183,0,.44.293.659A13.9,13.9,0,0,0,9.7-8.175c5.64,0,9.413-3.26,9.413-8.131,0-8.058-10.365-7.911-10.365-10.072,0-.806.733-1.319,1.869-1.319a14.771,14.771,0,0,1,5.164,1.9c.293.183.549.075.659-.293l2.307-5.164c.11-.183,0-.476-.293-.659a15.872,15.872,0,0,0-8.2-2.637c-5.567,0-9.269,3.26-9.269,8.167,0,7.984,10.292,7.874,10.292,10.035,0,.842-.769,1.392-1.943,1.392a13.853,13.853,0,0,1-5.091-1.758c-.293-.183-.549-.075-.659.293Z" transform="translate(-0.978 34.545)" fill="#707070" opacity="0.857"/>
        <path id="Path_1695" data-name="Path 1695" d="M3.438-7.747l.185,1.761H3.68l.2-1.789L5.61-13.3H6.888L8.6-7.747l.2,1.761h.057l.213-1.789,1.2-5.524h1.974L9.5-3.288H8.194L6.419-8.815l-.241-1.517H6.1L5.865-8.8,4.1-3.288H2.727L0-13.3H2.116ZM17.979-3.969a3.613,3.613,0,0,1-1.158.576,5.067,5.067,0,0,1-1.555.235,3.017,3.017,0,0,1-2.514-1,4.3,4.3,0,0,1-.793-2.748,3.932,3.932,0,0,1,.9-2.812,3.31,3.31,0,0,1,2.514-.937,3.908,3.908,0,0,1,1.051.142,2.446,2.446,0,0,1,.909.469,2.306,2.306,0,0,1,.639.881A3.453,3.453,0,0,1,18.21-7.79a6.188,6.188,0,0,1-.035.639q-.036.341-.107.71H13.808A2.081,2.081,0,0,0,14.27-5.1a1.769,1.769,0,0,0,1.352.458,2.89,2.89,0,0,0,1.046-.177,2.89,2.89,0,0,0,.7-.363ZM15.338-9.181a1.293,1.293,0,0,0-1.072.433,2.141,2.141,0,0,0-.419,1.158h2.642a1.788,1.788,0,0,0-.234-1.179,1.046,1.046,0,0,0-.916-.412ZM19.513-13.3h1.846v3.408h.057a2.077,2.077,0,0,1,.767-.54,2.628,2.628,0,0,1,1.037-.2,2.317,2.317,0,0,1,1.953.874,4.335,4.335,0,0,1,.674,2.66A4.073,4.073,0,0,1,24.9-4.181a3.4,3.4,0,0,1-2.591.993,8.569,8.569,0,0,1-1.662-.149,4.986,4.986,0,0,1-1.136-.333ZM22.68-9.068a1.265,1.265,0,0,0-.83.263,1.644,1.644,0,0,0-.49.759v3.1a1.7,1.7,0,0,0,.49.156,3.507,3.507,0,0,0,.561.043A1.316,1.316,0,0,0,23.554-5.3a3.039,3.039,0,0,0,.39-1.739Q23.944-9.068,22.68-9.068Z" transform="translate(36.642 28.997)" fill="#336" opacity="0.869"/>
      </g>
      <g id="ETALogo" transform="translate(428.324 11.952)">
        <path id="Path_1697" data-name="Path 1697" d="M569.452,449.5H506.1v3.746h63.354Z" transform="translate(-506.1 -434.814)" fill="#707070" opacity="0.561"/>
        <path id="Path_1696" data-name="Path 1696" d="M569.452,449.5H506.1v3.746h63.354Z" transform="translate(-506.1 -442.986)" fill="#949090" opacity="0.553"/>
        <path id="Path_1698" data-name="Path 1698" d="M22.34-21.687a5.324,5.324,0,0,1,1.907.419A5.491,5.491,0,0,1,26.018-20.2a2,2,0,0,1,.791,1.489,2,2,0,0,1-.791,1.489,5.491,5.491,0,0,1-1.771,1.071,5.324,5.324,0,0,1-1.907.419H17.033L12.146-7.163a.729.729,0,0,1-.652.373H8.421a.669.669,0,0,1-.582-.3.714.714,0,0,1-.116-.629l2.283-8.007h-4.8l-2,2.7a.749.749,0,0,1-.605.279H.74a.686.686,0,0,1-.582-.279A.866.866,0,0,1,0-13.68l1.489-5.028L0-23.735a.866.866,0,0,1,.163-.652.686.686,0,0,1,.582-.279H2.6a.749.749,0,0,1,.605.279l2,2.7h4.8L7.725-29.694a.714.714,0,0,1,.116-.629.669.669,0,0,1,.582-.3H11.5a.729.729,0,0,1,.652.373l4.886,8.566Z" transform="translate(61.227 31.182)" fill="#336"/>
        <path id="Path_1699" data-name="Path 1699" d="M8.606-16.794v-2.836h6.474a.586.586,0,0,0,.567-.434l.467-4.672A.4.4,0,0,0,16-25.054a.4.4,0,0,0-.318-.116H8.606v-2.636h8.709a.5.5,0,0,0,.376-.136.5.5,0,0,0,.158-.366v-5.039a.518.518,0,0,0-.534-.467H2.132a.422.422,0,0,0-.346.121.422.422,0,0,0-.121.346v22.06c.068.234.3.5.534.5H17.715a.509.509,0,0,0,.5-.467v-5.107a.481.481,0,0,0-.5-.434ZM19.35-33.813a.509.509,0,0,0-.467.5v5.039a.477.477,0,0,0,.467.467H24.89v16.548a.509.509,0,0,0,.5.469H31.3a.477.477,0,0,0,.467-.467V-27.8h4.971a.567.567,0,0,0,.534-.467l.5-5.072a.436.436,0,0,0-.125-.341.436.436,0,0,0-.34-.129Zm30.5.434a1.009,1.009,0,0,0-.8-.434h-6.81a1.009,1.009,0,0,0-.8.434L33.9-11.222a.3.3,0,0,0,.022.306.3.3,0,0,0,.279.128h6.606a.778.778,0,0,0,.7-.434l1-3.5H48.78l1,3.5a.778.778,0,0,0,.7.434h6.606a.3.3,0,0,0,.282-.126.3.3,0,0,0,.022-.308ZM47.447-19.5H43.842l1.8-6.34Z" transform="translate(2.126 33.818)" fill="#707070"/>
      </g>
    </g>
    <g id="Rectangle_861" data-name="Rectangle 861" transform="translate(1489 14)" fill="#fff" stroke="#d4d9de" stroke-width="1">
      <rect width="302.466" height="43.539" rx="5" stroke="none"/>
      <rect x="0.5" y="0.5" width="301.466" height="42.539" rx="4.5" fill="none"/>
    </g>
    <path id="Path_847" data-name="Path 847" d="M7.778-3.357A1.353,1.353,0,0,0,7.251-4.5a6.917,6.917,0,0,0-1.9-.844,13.458,13.458,0,0,1-2.171-.875A3.547,3.547,0,0,1,1-9.4a3.09,3.09,0,0,1,.584-1.85,3.812,3.812,0,0,1,1.679-1.27,6.318,6.318,0,0,1,2.457-.457,5.751,5.751,0,0,1,2.443.5,3.891,3.891,0,0,1,1.666,1.4,3.668,3.668,0,0,1,.593,2.057H7.787a1.726,1.726,0,0,0-.554-1.367,2.276,2.276,0,0,0-1.556-.488,2.432,2.432,0,0,0-1.5.409,1.289,1.289,0,0,0-.536,1.077,1.235,1.235,0,0,0,.628,1.046,7.1,7.1,0,0,0,1.85.791A7.994,7.994,0,0,1,9.4-5.871a3.343,3.343,0,0,1,1.028,2.5A3.08,3.08,0,0,1,9.167-.769,5.5,5.5,0,0,1,5.783.176,6.534,6.534,0,0,1,3.094-.365a4.256,4.256,0,0,1-1.85-1.481,3.793,3.793,0,0,1-.637-2.18H3.252q0,2.118,2.531,2.118A2.462,2.462,0,0,0,7.251-2.29,1.244,1.244,0,0,0,7.778-3.357ZM16.418.176a4.668,4.668,0,0,1-3.406-1.283A4.561,4.561,0,0,1,11.7-4.526v-.246a5.745,5.745,0,0,1,.554-2.562,4.064,4.064,0,0,1,1.569-1.74,4.4,4.4,0,0,1,2.316-.611,3.947,3.947,0,0,1,3.072,1.23,5,5,0,0,1,1.121,3.489v1.037H14.273a2.36,2.36,0,0,0,.743,1.494,2.245,2.245,0,0,0,1.569.563,2.742,2.742,0,0,0,2.294-1.063l1.248,1.4A3.813,3.813,0,0,1,18.58-.277,5.075,5.075,0,0,1,16.418.176Zm-.29-7.8a1.591,1.591,0,0,0-1.226.51,2.634,2.634,0,0,0-.6,1.459h3.533v-.2a1.878,1.878,0,0,0-.457-1.305A1.642,1.642,0,0,0,16.128-7.629ZM27.281,0a2.821,2.821,0,0,1-.255-.853,3.073,3.073,0,0,1-2.4,1.028,3.376,3.376,0,0,1-2.316-.809,2.6,2.6,0,0,1-.918-2.039,2.687,2.687,0,0,1,1.121-2.32,5.529,5.529,0,0,1,3.239-.817h1.169v-.545a1.567,1.567,0,0,0-.338-1.055,1.331,1.331,0,0,0-1.068-.4,1.513,1.513,0,0,0-1.006.308,1.045,1.045,0,0,0-.365.844H21.6a2.551,2.551,0,0,1,.51-1.529,3.37,3.37,0,0,1,1.441-1.1,5.253,5.253,0,0,1,2.092-.4,4.15,4.15,0,0,1,2.791.883A3.09,3.09,0,0,1,29.47-6.319V-2.2a4.546,4.546,0,0,0,.378,2.048V0Zm-2.1-1.767a2.188,2.188,0,0,0,1.037-.25,1.645,1.645,0,0,0,.7-.672V-4.324h-.949q-1.907,0-2.03,1.318l-.009.149a1.017,1.017,0,0,0,.334.782A1.3,1.3,0,0,0,25.181-1.767ZM36.765-7.128a6.9,6.9,0,0,0-.914-.07,1.86,1.86,0,0,0-1.89.976V0h-2.54V-9.51h2.4l.07,1.134a2.354,2.354,0,0,1,2.118-1.31,2.662,2.662,0,0,1,.791.114Zm5.01,5.256a1.666,1.666,0,0,0,1.143-.387,1.355,1.355,0,0,0,.457-1.028h2.382a3.258,3.258,0,0,1-.527,1.771A3.48,3.48,0,0,1,43.809-.268a4.442,4.442,0,0,1-1.991.444,4.129,4.129,0,0,1-3.217-1.3A5.13,5.13,0,0,1,37.424-4.7v-.167a5.071,5.071,0,0,1,1.169-3.507A4.08,4.08,0,0,1,41.8-9.686,4,4,0,0,1,44.662-8.67a3.594,3.594,0,0,1,1.094,2.7H43.374a1.731,1.731,0,0,0-.457-1.2,1.528,1.528,0,0,0-1.16-.461,1.531,1.531,0,0,0-1.34.646,3.739,3.739,0,0,0-.453,2.1v.264a3.786,3.786,0,0,0,.448,2.109A1.55,1.55,0,0,0,41.774-1.872Zm7.91-6.6a3.17,3.17,0,0,1,2.54-1.213q3.094,0,3.138,3.595V0h-2.54V-6.021a1.767,1.767,0,0,0-.352-1.208A1.507,1.507,0,0,0,51.3-7.62a1.729,1.729,0,0,0-1.617.861V0h-2.54V-13.5h2.54ZM69.627-5.546H64.564v3.428h5.941V0H61.928V-12.8h8.561v2.136H64.564v3.05h5.063Zm9.65,2.909H74.654L73.775,0h-2.8l4.764-12.8h2.443L82.969,0h-2.8ZM75.366-4.772h3.2l-1.608-4.79Z" transform="translate(1510 43)" fill="#b4b4b4"/>
    <g id="Rectangle_862" data-name="Rectangle 862" transform="translate(1745.135 14)" fill="#fff" stroke="#c1c1c1" stroke-width="1">
      <path d="M0,0H41.331a5,5,0,0,1,5,5V38.539a5,5,0,0,1-5,5H0a0,0,0,0,1,0,0V0A0,0,0,0,1,0,0Z" stroke="none"/>
      <path d="M1,.5H41.331a4.5,4.5,0,0,1,4.5,4.5V38.539a4.5,4.5,0,0,1-4.5,4.5H1a.5.5,0,0,1-.5-.5V1A.5.5,0,0,1,1,.5Z" fill="none"/>
    </g>
    <path id="Path_848" data-name="Path 848" d="M19.727-.2A.9.9,0,0,1,20,.469a.9.9,0,0,1-.273.664L18.633,2.227a.943.943,0,0,1-1.328,0L13.4-1.68a.9.9,0,0,1-.273-.664v-.625a7.872,7.872,0,0,1-5,1.719A7.826,7.826,0,0,1,2.383-3.633,7.826,7.826,0,0,1,0-9.375a7.826,7.826,0,0,1,2.383-5.742A7.826,7.826,0,0,1,8.125-17.5a7.826,7.826,0,0,1,5.742,2.383A7.826,7.826,0,0,1,16.25-9.375a7.872,7.872,0,0,1-1.719,5h.625a.9.9,0,0,1,.664.273ZM4.57-5.82A4.916,4.916,0,0,0,8.125-4.375,4.817,4.817,0,0,0,11.66-5.84a4.817,4.817,0,0,0,1.465-3.535A4.817,4.817,0,0,0,11.66-12.91a4.817,4.817,0,0,0-3.535-1.465A4.817,4.817,0,0,0,4.59-12.91,4.817,4.817,0,0,0,3.125-9.375,4.916,4.916,0,0,0,4.57-5.82Z" transform="translate(1759 43.823)" fill="#95989a"/>
    <path id="Path_850" data-name="Path 850" d="M12.266-8.945A4.785,4.785,0,0,1,8.75-7.5,4.817,4.817,0,0,1,5.215-8.965,4.817,4.817,0,0,1,3.75-12.5a4.817,4.817,0,0,1,1.465-3.535A4.817,4.817,0,0,1,8.75-17.5a4.817,4.817,0,0,1,3.535,1.465A4.817,4.817,0,0,1,13.75-12.5,4.85,4.85,0,0,1,12.266-8.945Zm0,2.7a5.037,5.037,0,0,1,3.691,1.543A5.037,5.037,0,0,1,17.5-1.016V.625a1.808,1.808,0,0,1-.547,1.328,1.808,1.808,0,0,1-1.328.547H1.875A1.808,1.808,0,0,1,.547,1.953,1.808,1.808,0,0,1,0,.625V-1.016A5.037,5.037,0,0,1,1.543-4.707,5.037,5.037,0,0,1,5.234-6.25H5.9a6.783,6.783,0,0,0,2.852.625A6.783,6.783,0,0,0,11.6-6.25Z" transform="translate(1868 44)" fill="#95989a"/>
    <path id="Path_849" data-name="Path 849" d="M19.609-10.039a.193.193,0,0,1,.254-.039A.253.253,0,0,1,20-9.844v7.969a1.808,1.808,0,0,1-.547,1.328A1.808,1.808,0,0,1,18.125,0H1.875A1.808,1.808,0,0,1,.547-.547,1.808,1.808,0,0,1,0-1.875V-9.844a.214.214,0,0,1,.137-.215.252.252,0,0,1,.254.02q1.289.977,6.016,4.414.078.078.527.43t.723.527q.273.176.7.43a3.607,3.607,0,0,0,.84.371,2.908,2.908,0,0,0,.8.117,2.617,2.617,0,0,0,.7-.1,4.98,4.98,0,0,0,.664-.234,4.367,4.367,0,0,0,.664-.371q.352-.234.586-.41l.547-.41a4.485,4.485,0,0,0,.43-.352Q18.2-8.945,19.609-10.039ZM10-5a1.841,1.841,0,0,1-.762-.215,6.785,6.785,0,0,1-.723-.391q-.273-.176-.8-.586a4.242,4.242,0,0,0-.566-.41q-4.766-3.477-6.8-5.039A.89.89,0,0,1,0-12.383v-.742a1.808,1.808,0,0,1,.547-1.328A1.808,1.808,0,0,1,1.875-15h16.25a1.808,1.808,0,0,1,1.328.547A1.808,1.808,0,0,1,20-13.125v.742a.89.89,0,0,1-.352.742q-1.914,1.484-6.8,5.039a4.242,4.242,0,0,0-.566.41q-.527.41-.8.586a6.785,6.785,0,0,1-.723.391A1.841,1.841,0,0,1,10-5Z" transform="translate(1820 44)" fill="#95989a"/>
    <g id="Group_770" data-name="Group 770" transform="translate(-15)">
      <text id="Enterprise_Analytics_Applications" data-name="Enterprise Analytics Applications" transform="translate(811 860)" fill="#6c757d" font-size="20" font-family="Roboto-Bold, Roboto" font-weight="700"><tspan x="0" y="0">Enterprise Analytics Applications</tspan></text>
      <path id="Path_851" data-name="Path 851" d="M21.016-8.633a4.481,4.481,0,0,1,2.031.9,5.089,5.089,0,0,1,1.426,1.758A4.914,4.914,0,0,1,25-3.75,4.817,4.817,0,0,1,23.535-.215,4.817,4.817,0,0,1,20,1.25H5.625A5.425,5.425,0,0,1,1.641-.391,5.425,5.425,0,0,1,0-4.375,5.426,5.426,0,0,1,1.055-7.656a5.611,5.611,0,0,1,2.7-2.031V-10a6.018,6.018,0,0,1,1.836-4.414A6.018,6.018,0,0,1,10-16.25a6.078,6.078,0,0,1,3.164.859,6.3,6.3,0,0,1,2.266,2.266,3.653,3.653,0,0,1,2.07-.625,3.616,3.616,0,0,1,2.656,1.094A3.616,3.616,0,0,1,21.25-10,4.079,4.079,0,0,1,21.016-8.633Z" transform="translate(1115 860)" fill="#6c757d"/>
    </g>
    <g id="Group_777" data-name="Group 777" transform="translate(44 32)">
      <g id="Group_771" data-name="Group 771" transform="translate(-1027 486)">
        <text id="Category" transform="translate(1057 417)" fill="#6c757d" font-size="20" font-family="Roboto-Bold, Roboto" font-weight="700"><tspan x="0" y="0">Category</tspan></text>
        <text id="Bundle_Scanning_Visibility_Last_Mile_Diagnostics_Mail_Processing_Performance_Sampling_Detail_Performance_to_Plan" data-name="Bundle Scanning Visibility
Last Mile Diagnostics
Mail Processing Performance
Sampling Detail
Performance to Plan" transform="translate(1057 448)" fill="#6c757d" font-size="16" font-family="Roboto-Medium, Roboto" font-weight="500"><tspan x="0" y="0">Bundle Scanning Visibility</tspan><tspan x="0" y="19">Last Mile Diagnostics</tspan><tspan x="0" y="38">Mail Processing Performance</tspan><tspan x="0" y="57">Sampling Detail</tspan><tspan x="0" y="76">Performance to Plan</tspan></text>
      </g>
      <g id="Group_772" data-name="Group 772" transform="translate(-715 486)">
        <text id="Category-2" data-name="Category" transform="translate(1057 417)" fill="#6c757d" font-size="20" font-family="Roboto-Bold, Roboto" font-weight="700"><tspan x="0" y="0">Category</tspan></text>
        <text id="Bundle_Scanning_Visibility_Last_Mile_Diagnostics_Mail_Processing_Performance_Sampling_Detail_Performance_to_Plan-2" data-name="Bundle Scanning Visibility
Last Mile Diagnostics
Mail Processing Performance
Sampling Detail
Performance to Plan" transform="translate(1057 448)" fill="#6c757d" font-size="16" font-family="Roboto-Medium, Roboto" font-weight="500"><tspan x="0" y="0">Bundle Scanning Visibility</tspan><tspan x="0" y="19">Last Mile Diagnostics</tspan><tspan x="0" y="38">Mail Processing Performance</tspan><tspan x="0" y="57">Sampling Detail</tspan><tspan x="0" y="76">Performance to Plan</tspan></text>
      </g>
      <g id="Group_773" data-name="Group 773" transform="translate(-403 486)">
        <text id="Category-3" data-name="Category" transform="translate(1057 417)" fill="#6c757d" font-size="20" font-family="Roboto-Bold, Roboto" font-weight="700"><tspan x="0" y="0">Category</tspan></text>
        <text id="Bundle_Scanning_Visibility_Last_Mile_Diagnostics_Mail_Processing_Performance_Sampling_Detail_Performance_to_Plan-3" data-name="Bundle Scanning Visibility
Last Mile Diagnostics
Mail Processing Performance
Sampling Detail
Performance to Plan" transform="translate(1057 448)" fill="#6c757d" font-size="16" font-family="Roboto-Medium, Roboto" font-weight="500"><tspan x="0" y="0">Bundle Scanning Visibility</tspan><tspan x="0" y="19">Last Mile Diagnostics</tspan><tspan x="0" y="38">Mail Processing Performance</tspan><tspan x="0" y="57">Sampling Detail</tspan><tspan x="0" y="76">Performance to Plan</tspan></text>
      </g>
      <g id="Group_774" data-name="Group 774" transform="translate(-91 486)">
        <text id="Category-4" data-name="Category" transform="translate(1057 417)" fill="#6c757d" font-size="20" font-family="Roboto-Bold, Roboto" font-weight="700"><tspan x="0" y="0">Category</tspan></text>
        <text id="Bundle_Scanning_Visibility_Last_Mile_Diagnostics_Mail_Processing_Performance_Sampling_Detail_Performance_to_Plan-4" data-name="Bundle Scanning Visibility
Last Mile Diagnostics
Mail Processing Performance
Sampling Detail
Performance to Plan" transform="translate(1057 448)" fill="#6c757d" font-size="16" font-family="Roboto-Medium, Roboto" font-weight="500"><tspan x="0" y="0">Bundle Scanning Visibility</tspan><tspan x="0" y="19">Last Mile Diagnostics</tspan><tspan x="0" y="38">Mail Processing Performance</tspan><tspan x="0" y="57">Sampling Detail</tspan><tspan x="0" y="76">Performance to Plan</tspan></text>
      </g>
      <g id="Group_775" data-name="Group 775" transform="translate(221 486)">
        <text id="Category-5" data-name="Category" transform="translate(1057 417)" fill="#6c757d" font-size="20" font-family="Roboto-Bold, Roboto" font-weight="700"><tspan x="0" y="0">Category</tspan></text>
        <text id="Bundle_Scanning_Visibility_Last_Mile_Diagnostics_Mail_Processing_Performance_Sampling_Detail_Performance_to_Plan-5" data-name="Bundle Scanning Visibility
Last Mile Diagnostics
Mail Processing Performance
Sampling Detail
Performance to Plan" transform="translate(1057 448)" fill="#6c757d" font-size="16" font-family="Roboto-Medium, Roboto" font-weight="500"><tspan x="0" y="0">Bundle Scanning Visibility</tspan><tspan x="0" y="19">Last Mile Diagnostics</tspan><tspan x="0" y="38">Mail Processing Performance</tspan><tspan x="0" y="57">Sampling Detail</tspan><tspan x="0" y="76">Performance to Plan</tspan></text>
      </g>
      <g id="Group_776" data-name="Group 776" transform="translate(533 486)">
        <text id="Category-6" data-name="Category" transform="translate(1057 417)" fill="#6c757d" font-size="20" font-family="Roboto-Bold, Roboto" font-weight="700"><tspan x="0" y="0">Category</tspan></text>
        <text id="Bundle_Scanning_Visibility_Last_Mile_Diagnostics_Mail_Processing_Performance_Sampling_Detail_Performance_to_Plan-6" data-name="Bundle Scanning Visibility
Last Mile Diagnostics
Mail Processing Performance
Sampling Detail
Performance to Plan" transform="translate(1057 448)" fill="#6c757d" font-size="16" font-family="Roboto-Medium, Roboto" font-weight="500"><tspan x="0" y="0">Bundle Scanning Visibility</tspan><tspan x="0" y="19">Last Mile Diagnostics</tspan><tspan x="0" y="38">Mail Processing Performance</tspan><tspan x="0" y="57">Sampling Detail</tspan><tspan x="0" y="76">Performance to Plan</tspan></text>
      </g>
    </g>
    <path id="Path_830" data-name="Path 830" d="M6913.713-9243.741H8581.73" transform="translate(-6788.213 10341.241)" fill="none" stroke="#707070" stroke-width="1"/>
    <g id="Group_778" data-name="Group 778" transform="translate(-83 -20)">
      <text id="Resource" transform="translate(712 1165)" fill="#6c757d" font-size="16" font-family="Roboto-Medium, Roboto" font-weight="500"><tspan x="0" y="0">Resource</tspan></text>
      <text id="Resource-2" data-name="Resource" transform="translate(831 1165)" fill="#6c757d" font-size="16" font-family="Roboto-Medium, Roboto" font-weight="500"><tspan x="0" y="0">Resource</tspan></text>
      <text id="Resource-3" data-name="Resource" transform="translate(950 1165)" fill="#6c757d" font-size="16" font-family="Roboto-Medium, Roboto" font-weight="500"><tspan x="0" y="0">Resource</tspan></text>
      <text id="Resource-4" data-name="Resource" transform="translate(1069 1165)" fill="#6c757d" font-size="16" font-family="Roboto-Medium, Roboto" font-weight="500"><tspan x="0" y="0">Resource</tspan></text>
      <text id="Resource-5" data-name="Resource" transform="translate(1188 1165)" fill="#6c757d" font-size="16" font-family="Roboto-Medium, Roboto" font-weight="500"><tspan x="0" y="0">Resource</tspan></text>
      <text id="Resource-6" data-name="Resource" transform="translate(1307 1165)" fill="#6c757d" font-size="16" font-family="Roboto-Medium, Roboto" font-weight="500"><tspan x="0" y="0">Resource</tspan></text>
    </g>
    <text id="Enterprise_Analytics_2019" data-name="Enterprise Analytics © 2019" transform="translate(886 1188)" fill="#6c757d" font-size="12" font-family="Roboto-Regular, Roboto"><tspan x="0" y="0">Enterprise Analytics © 2019</tspan></text>
    <g id="Group_784" data-name="Group 784" transform="translate(-497 -200)">
      <g transform="matrix(1, 0, 0, 1, 497, 200)" filter="url(#Union_44)">
        <path id="Union_44-2" data-name="Union 44" d="M-7908,423.116h59.155V380.626H-8010v-230h164.29V107.956H-7908L-7801.912,0l105.405,107.956h-59.155v42.669H-7594v230h-164.8v42.491h62.29l-106.088,107.956Z" transform="translate(8927 172.37)" fill="#9dddff"/>
      </g>
      <text id="EA_Applications" data-name="EA Applications" transform="translate(1459 656)" font-size="46" font-family="Roboto-Bold, Roboto" font-weight="700"><tspan x="0" y="0">EA Applications</tspan></text>
    </g>
    <g id="Group_787" data-name="Group 787" transform="translate(-2 1)">
      <g id="Group_785" data-name="Group 785" transform="translate(-111 -60)">
        <g transform="matrix(1, 0, 0, 1, 113, 59)" filter="url(#Union_46)">
          <path id="Union_46-2" data-name="Union 46" d="M-8010,378.626v-230h258.523V107.956h-62.287L-7707.677,0l105.405,107.956h-59.156v40.669H-7410v230Z" transform="translate(8165 36.37)" fill="#9dddff"/>
        </g>
        <text id="Universal_Header_Tool_Bar" data-name="Universal Header/Tool Bar" transform="translate(297 338)" font-size="46" font-family="Roboto-Bold, Roboto" font-weight="700"><tspan x="0" y="0">Universal Header/Tool Bar</tspan></text>
        <text id="With_links_to_EA_applications" data-name="With links to EA applications" transform="translate(300 405)" font-size="42" font-family="Roboto-Bold, Roboto" font-weight="700"><tspan x="0" y="0">With links to EA applications</tspan></text>
      </g>
      <g id="Group_786" data-name="Group 786" transform="translate(-753 216)">
        <g transform="matrix(1, 0, 0, 1, 755, -217)" filter="url(#Union_45)">
          <path id="Union_45-2" data-name="Union 45" d="M-7817.728,270.669h59.155V230H-8010V0h600V230h-258.523v40.669h62.287l-106.086,107.956Z" transform="translate(8165 461.37)" fill="#9dddff"/>
        </g>
        <text id="Universal_Footer" data-name="Universal Footer" transform="translate(1041 336)" font-size="46" font-family="Roboto-Bold, Roboto" font-weight="700"><tspan x="0" y="0">Universal Footer</tspan></text>
        <text id="With_links_to_EA_applications-2" data-name="With links to EA applications" transform="translate(942 403)" font-size="42" font-family="Roboto-Bold, Roboto" font-weight="700"><tspan x="0" y="0">With links to EA applications</tspan></text>
      </g>
    </g>
  </g>
</svg>
